<?xml version="1.0" encoding="UTF-8"?>
<svg xmlns="http://www.w3.org/2000/svg" xmlns:xlink="http://www.w3.org/1999/xlink" width="288pt" height="216pt" viewBox="0 0 288 216">
<defs>
<g>
<g id="glyph-0-0">
<path d="M 0.203125 0 L 0.203125 -4.59375 L 3.859375 -4.59375 L 3.859375 0 Z M 3.28125 -0.578125 L 3.28125 -4.015625 L 0.78125 -4.015625 L 0.78125 -0.578125 Z M 3.28125 -0.578125 "/>
</g>
<g id="glyph-0-1">
<path d="M 0.609375 -3.171875 L 0.609375 -3.609375 C 1.015625 -3.640625 1.296875 -3.703125 1.453125 -3.796875 C 1.617188 -3.890625 1.742188 -4.109375 1.828125 -4.453125 L 2.265625 -4.453125 L 2.265625 0 L 1.671875 0 L 1.671875 -3.171875 Z M 0.609375 -3.171875 "/>
</g>
<g id="glyph-0-2">
<path d="M 0.203125 0 C 0.222656 -0.382812 0.300781 -0.71875 0.4375 -1 C 0.570312 -1.289062 0.84375 -1.550781 1.25 -1.78125 L 1.859375 -2.140625 C 2.117188 -2.296875 2.304688 -2.425781 2.421875 -2.53125 C 2.585938 -2.707031 2.671875 -2.90625 2.671875 -3.125 C 2.671875 -3.382812 2.59375 -3.59375 2.4375 -3.75 C 2.28125 -3.90625 2.070312 -3.984375 1.8125 -3.984375 C 1.425781 -3.984375 1.160156 -3.835938 1.015625 -3.546875 C 0.929688 -3.390625 0.882812 -3.171875 0.875 -2.890625 L 0.3125 -2.890625 C 0.3125 -3.273438 0.382812 -3.59375 0.53125 -3.84375 C 0.769531 -4.28125 1.195312 -4.5 1.8125 -4.5 C 2.332031 -4.5 2.707031 -4.359375 2.9375 -4.078125 C 3.175781 -3.796875 3.296875 -3.488281 3.296875 -3.15625 C 3.296875 -2.789062 3.171875 -2.484375 2.921875 -2.234375 C 2.773438 -2.085938 2.515625 -1.910156 2.140625 -1.703125 L 1.703125 -1.453125 C 1.492188 -1.335938 1.332031 -1.234375 1.21875 -1.140625 C 1.007812 -0.953125 0.878906 -0.75 0.828125 -0.53125 L 3.28125 -0.53125 L 3.28125 0 Z M 0.203125 0 "/>
</g>
<g id="glyph-0-3">
<path d="M 2.125 -1.578125 L 2.125 -3.609375 L 0.6875 -1.578125 Z M 2.125 0 L 2.125 -1.09375 L 0.15625 -1.09375 L 0.15625 -1.640625 L 2.21875 -4.484375 L 2.6875 -4.484375 L 2.6875 -1.578125 L 3.34375 -1.578125 L 3.34375 -1.09375 L 2.6875 -1.09375 L 2.6875 0 Z M 2.125 0 "/>
</g>
<g id="glyph-0-4">
<path d="M 1.875 -4.5 C 2.375 -4.5 2.722656 -4.367188 2.921875 -4.109375 C 3.117188 -3.847656 3.21875 -3.582031 3.21875 -3.3125 L 2.65625 -3.3125 C 2.625 -3.488281 2.570312 -3.625 2.5 -3.71875 C 2.363281 -3.90625 2.160156 -4 1.890625 -4 C 1.566406 -4 1.3125 -3.851562 1.125 -3.5625 C 0.945312 -3.269531 0.847656 -2.851562 0.828125 -2.3125 C 0.953125 -2.507812 1.113281 -2.65625 1.3125 -2.75 C 1.488281 -2.832031 1.6875 -2.875 1.90625 -2.875 C 2.28125 -2.875 2.609375 -2.753906 2.890625 -2.515625 C 3.171875 -2.273438 3.3125 -1.914062 3.3125 -1.4375 C 3.3125 -1.03125 3.175781 -0.671875 2.90625 -0.359375 C 2.644531 -0.046875 2.269531 0.109375 1.78125 0.109375 C 1.363281 0.109375 1 -0.046875 0.6875 -0.359375 C 0.382812 -0.679688 0.234375 -1.21875 0.234375 -1.96875 C 0.234375 -2.519531 0.300781 -2.992188 0.4375 -3.390625 C 0.695312 -4.128906 1.175781 -4.5 1.875 -4.5 Z M 1.828125 -0.390625 C 2.128906 -0.390625 2.351562 -0.488281 2.5 -0.6875 C 2.644531 -0.882812 2.71875 -1.117188 2.71875 -1.390625 C 2.71875 -1.617188 2.648438 -1.835938 2.515625 -2.046875 C 2.390625 -2.253906 2.15625 -2.359375 1.8125 -2.359375 C 1.5625 -2.359375 1.34375 -2.273438 1.15625 -2.109375 C 0.976562 -1.953125 0.890625 -1.710938 0.890625 -1.390625 C 0.890625 -1.109375 0.972656 -0.867188 1.140625 -0.671875 C 1.304688 -0.484375 1.535156 -0.390625 1.828125 -0.390625 Z M 1.828125 -0.390625 "/>
</g>
<g id="glyph-0-5">
<path d="M 0.84375 -1.078125 C 0.863281 -0.765625 0.984375 -0.550781 1.203125 -0.4375 C 1.316406 -0.375 1.445312 -0.34375 1.59375 -0.34375 C 1.863281 -0.34375 2.09375 -0.453125 2.28125 -0.671875 C 2.476562 -0.898438 2.613281 -1.359375 2.6875 -2.046875 C 2.5625 -1.847656 2.40625 -1.707031 2.21875 -1.625 C 2.039062 -1.539062 1.84375 -1.5 1.625 -1.5 C 1.195312 -1.5 0.859375 -1.632812 0.609375 -1.90625 C 0.359375 -2.175781 0.234375 -2.523438 0.234375 -2.953125 C 0.234375 -3.359375 0.351562 -3.710938 0.59375 -4.015625 C 0.84375 -4.328125 1.210938 -4.484375 1.703125 -4.484375 C 2.347656 -4.484375 2.796875 -4.191406 3.046875 -3.609375 C 3.179688 -3.285156 3.25 -2.878906 3.25 -2.390625 C 3.25 -1.835938 3.171875 -1.351562 3.015625 -0.9375 C 2.734375 -0.226562 2.269531 0.125 1.625 0.125 C 1.1875 0.125 0.851562 0.0078125 0.625 -0.21875 C 0.394531 -0.445312 0.28125 -0.734375 0.28125 -1.078125 Z M 1.703125 -2 C 1.929688 -2 2.132812 -2.070312 2.3125 -2.21875 C 2.5 -2.363281 2.59375 -2.625 2.59375 -3 C 2.59375 -3.320312 2.507812 -3.5625 2.34375 -3.71875 C 2.175781 -3.882812 1.96875 -3.96875 1.71875 -3.96875 C 1.4375 -3.96875 1.210938 -3.875 1.046875 -3.6875 C 0.890625 -3.507812 0.8125 -3.265625 0.8125 -2.953125 C 0.8125 -2.660156 0.878906 -2.425781 1.015625 -2.25 C 1.160156 -2.082031 1.390625 -2 1.703125 -2 Z M 1.703125 -2 "/>
</g>
<g id="glyph-0-6">
<path d="M 1.75 -2.609375 C 1.988281 -2.609375 2.175781 -2.675781 2.3125 -2.8125 C 2.457031 -2.945312 2.53125 -3.113281 2.53125 -3.3125 C 2.53125 -3.476562 2.460938 -3.628906 2.328125 -3.765625 C 2.203125 -3.898438 2 -3.96875 1.71875 -3.96875 C 1.445312 -3.96875 1.25 -3.898438 1.125 -3.765625 C 1.007812 -3.628906 0.953125 -3.46875 0.953125 -3.28125 C 0.953125 -3.0625 1.03125 -2.894531 1.1875 -2.78125 C 1.34375 -2.664062 1.53125 -2.609375 1.75 -2.609375 Z M 1.78125 -0.390625 C 2.039062 -0.390625 2.253906 -0.457031 2.421875 -0.59375 C 2.597656 -0.738281 2.6875 -0.945312 2.6875 -1.21875 C 2.6875 -1.507812 2.597656 -1.726562 2.421875 -1.875 C 2.242188 -2.03125 2.015625 -2.109375 1.734375 -2.109375 C 1.460938 -2.109375 1.242188 -2.03125 1.078125 -1.875 C 0.910156 -1.726562 0.828125 -1.519531 0.828125 -1.25 C 0.828125 -1.007812 0.898438 -0.804688 1.046875 -0.640625 C 1.203125 -0.472656 1.445312 -0.390625 1.78125 -0.390625 Z M 0.96875 -2.390625 C 0.8125 -2.453125 0.691406 -2.53125 0.609375 -2.625 C 0.441406 -2.789062 0.359375 -3.003906 0.359375 -3.265625 C 0.359375 -3.597656 0.476562 -3.882812 0.71875 -4.125 C 0.96875 -4.363281 1.3125 -4.484375 1.75 -4.484375 C 2.1875 -4.484375 2.523438 -4.367188 2.765625 -4.140625 C 3.003906 -3.921875 3.125 -3.660156 3.125 -3.359375 C 3.125 -3.078125 3.054688 -2.851562 2.921875 -2.6875 C 2.835938 -2.582031 2.710938 -2.484375 2.546875 -2.390625 C 2.734375 -2.304688 2.878906 -2.207031 2.984375 -2.09375 C 3.179688 -1.882812 3.28125 -1.613281 3.28125 -1.28125 C 3.28125 -0.882812 3.144531 -0.550781 2.875 -0.28125 C 2.613281 -0.0078125 2.242188 0.125 1.765625 0.125 C 1.328125 0.125 0.957031 0.0078125 0.65625 -0.21875 C 0.351562 -0.457031 0.203125 -0.800781 0.203125 -1.25 C 0.203125 -1.519531 0.265625 -1.75 0.390625 -1.9375 C 0.523438 -2.132812 0.71875 -2.285156 0.96875 -2.390625 Z M 0.96875 -2.390625 "/>
</g>
<g id="glyph-0-7">
<path d="M 1.734375 -4.484375 C 2.316406 -4.484375 2.734375 -4.242188 2.984375 -3.765625 C 3.191406 -3.390625 3.296875 -2.882812 3.296875 -2.25 C 3.296875 -1.632812 3.203125 -1.128906 3.015625 -0.734375 C 2.753906 -0.160156 2.328125 0.125 1.734375 0.125 C 1.191406 0.125 0.789062 -0.109375 0.53125 -0.578125 C 0.3125 -0.960938 0.203125 -1.488281 0.203125 -2.15625 C 0.203125 -2.65625 0.265625 -3.085938 0.390625 -3.453125 C 0.640625 -4.140625 1.085938 -4.484375 1.734375 -4.484375 Z M 1.734375 -0.390625 C 2.023438 -0.390625 2.253906 -0.519531 2.421875 -0.78125 C 2.597656 -1.039062 2.6875 -1.519531 2.6875 -2.21875 C 2.6875 -2.726562 2.625 -3.144531 2.5 -3.46875 C 2.375 -3.800781 2.128906 -3.96875 1.765625 -3.96875 C 1.429688 -3.96875 1.1875 -3.8125 1.03125 -3.5 C 0.882812 -3.1875 0.8125 -2.726562 0.8125 -2.125 C 0.8125 -1.664062 0.859375 -1.300781 0.953125 -1.03125 C 1.109375 -0.601562 1.367188 -0.390625 1.734375 -0.390625 Z M 1.734375 -0.390625 "/>
</g>
<g id="glyph-1-0">
<path d="M 0.265625 0 L 0.265625 -5.734375 L 4.8125 -5.734375 L 4.8125 0 Z M 4.09375 -0.71875 L 4.09375 -5.015625 L 0.984375 -5.015625 L 0.984375 -0.71875 Z M 4.09375 -0.71875 "/>
</g>
<g id="glyph-1-1">
<path d="M 2.8125 -0.671875 C 3.070312 -0.671875 3.289062 -0.695312 3.46875 -0.75 C 3.769531 -0.851562 4.015625 -1.046875 4.203125 -1.328125 C 4.359375 -1.566406 4.46875 -1.863281 4.53125 -2.21875 C 4.570312 -2.4375 4.59375 -2.640625 4.59375 -2.828125 C 4.59375 -3.535156 4.453125 -4.085938 4.171875 -4.484375 C 3.890625 -4.878906 3.4375 -5.078125 2.8125 -5.078125 L 1.421875 -5.078125 L 1.421875 -0.671875 Z M 0.640625 -5.734375 L 2.96875 -5.734375 C 3.757812 -5.734375 4.375 -5.457031 4.8125 -4.90625 C 5.195312 -4.394531 5.390625 -3.742188 5.390625 -2.953125 C 5.390625 -2.347656 5.273438 -1.800781 5.046875 -1.3125 C 4.640625 -0.4375 3.945312 0 2.96875 0 L 0.640625 0 Z M 0.640625 -5.734375 "/>
</g>
<g id="glyph-1-2">
<path d="M 1.0625 -1.109375 C 1.0625 -0.910156 1.132812 -0.75 1.28125 -0.625 C 1.425781 -0.507812 1.601562 -0.453125 1.8125 -0.453125 C 2.050781 -0.453125 2.289062 -0.507812 2.53125 -0.625 C 2.914062 -0.820312 3.109375 -1.132812 3.109375 -1.5625 L 3.109375 -2.125 C 3.023438 -2.070312 2.914062 -2.023438 2.78125 -1.984375 C 2.644531 -1.953125 2.507812 -1.929688 2.375 -1.921875 L 1.953125 -1.859375 C 1.703125 -1.828125 1.507812 -1.773438 1.375 -1.703125 C 1.164062 -1.578125 1.0625 -1.378906 1.0625 -1.109375 Z M 2.765625 -2.53125 C 2.921875 -2.550781 3.023438 -2.617188 3.078125 -2.734375 C 3.109375 -2.796875 3.125 -2.890625 3.125 -3.015625 C 3.125 -3.253906 3.039062 -3.425781 2.875 -3.53125 C 2.707031 -3.632812 2.460938 -3.6875 2.140625 -3.6875 C 1.773438 -3.6875 1.515625 -3.585938 1.359375 -3.390625 C 1.273438 -3.285156 1.21875 -3.125 1.1875 -2.90625 L 0.53125 -2.90625 C 0.550781 -3.425781 0.71875 -3.785156 1.03125 -3.984375 C 1.351562 -4.179688 1.726562 -4.28125 2.15625 -4.28125 C 2.644531 -4.28125 3.046875 -4.1875 3.359375 -4 C 3.660156 -3.8125 3.8125 -3.519531 3.8125 -3.125 L 3.8125 -0.71875 C 3.8125 -0.644531 3.828125 -0.585938 3.859375 -0.546875 C 3.890625 -0.503906 3.953125 -0.484375 4.046875 -0.484375 C 4.078125 -0.484375 4.113281 -0.484375 4.15625 -0.484375 C 4.195312 -0.484375 4.238281 -0.488281 4.28125 -0.5 L 4.28125 0.015625 C 4.164062 0.046875 4.078125 0.0664062 4.015625 0.078125 C 3.960938 0.0859375 3.890625 0.09375 3.796875 0.09375 C 3.554688 0.09375 3.378906 0.00390625 3.265625 -0.171875 C 3.210938 -0.265625 3.171875 -0.394531 3.140625 -0.5625 C 3.003906 -0.375 2.800781 -0.207031 2.53125 -0.0625 C 2.257812 0.0703125 1.960938 0.140625 1.640625 0.140625 C 1.253906 0.140625 0.9375 0.0234375 0.6875 -0.203125 C 0.445312 -0.441406 0.328125 -0.738281 0.328125 -1.09375 C 0.328125 -1.488281 0.445312 -1.789062 0.6875 -2 C 0.925781 -2.21875 1.242188 -2.347656 1.640625 -2.390625 Z M 2.171875 -4.28125 Z M 2.171875 -4.28125 "/>
</g>
<g id="glyph-1-3">
<path d="M 0.65625 -5.359375 L 1.375 -5.359375 L 1.375 -4.1875 L 2.03125 -4.1875 L 2.03125 -3.609375 L 1.375 -3.609375 L 1.375 -0.875 C 1.375 -0.726562 1.421875 -0.632812 1.515625 -0.59375 C 1.566406 -0.5625 1.660156 -0.546875 1.796875 -0.546875 C 1.828125 -0.546875 1.859375 -0.546875 1.890625 -0.546875 C 1.929688 -0.546875 1.976562 -0.550781 2.03125 -0.5625 L 2.03125 0 C 1.957031 0.0195312 1.875 0.0351562 1.78125 0.046875 C 1.695312 0.0546875 1.601562 0.0625 1.5 0.0625 C 1.175781 0.0625 0.953125 -0.0195312 0.828125 -0.1875 C 0.710938 -0.351562 0.65625 -0.570312 0.65625 -0.84375 L 0.65625 -3.609375 L 0.09375 -3.609375 L 0.09375 -4.1875 L 0.65625 -4.1875 Z M 0.65625 -5.359375 "/>
</g>
<g id="glyph-1-4">
<path d="M 2.265625 -4.28125 C 2.554688 -4.28125 2.84375 -4.207031 3.125 -4.0625 C 3.40625 -3.925781 3.617188 -3.75 3.765625 -3.53125 C 3.898438 -3.320312 3.992188 -3.078125 4.046875 -2.796875 C 4.085938 -2.597656 4.109375 -2.289062 4.109375 -1.875 L 1.03125 -1.875 C 1.050781 -1.445312 1.15625 -1.101562 1.34375 -0.84375 C 1.53125 -0.59375 1.816406 -0.46875 2.203125 -0.46875 C 2.578125 -0.46875 2.875 -0.585938 3.09375 -0.828125 C 3.21875 -0.960938 3.304688 -1.125 3.359375 -1.3125 L 4.046875 -1.3125 C 4.023438 -1.15625 3.960938 -0.984375 3.859375 -0.796875 C 3.753906 -0.609375 3.640625 -0.457031 3.515625 -0.34375 C 3.304688 -0.132812 3.039062 0.0078125 2.71875 0.09375 C 2.550781 0.132812 2.363281 0.15625 2.15625 0.15625 C 1.632812 0.15625 1.191406 -0.03125 0.828125 -0.40625 C 0.460938 -0.789062 0.28125 -1.328125 0.28125 -2.015625 C 0.28125 -2.679688 0.460938 -3.222656 0.828125 -3.640625 C 1.191406 -4.066406 1.671875 -4.28125 2.265625 -4.28125 Z M 3.375 -2.421875 C 3.351562 -2.734375 3.289062 -2.976562 3.1875 -3.15625 C 2.988281 -3.5 2.664062 -3.671875 2.21875 -3.671875 C 1.894531 -3.671875 1.625 -3.550781 1.40625 -3.3125 C 1.1875 -3.082031 1.070312 -2.785156 1.0625 -2.421875 Z M 2.1875 -4.28125 Z M 2.1875 -4.28125 "/>
</g>
<g id="glyph-2-0">
<path d="M 0 -0.265625 L -5.734375 -0.265625 L -5.734375 -4.8125 L 0 -4.8125 Z M -0.71875 -4.09375 L -5.015625 -4.09375 L -5.015625 -0.984375 L -0.71875 -0.984375 Z M -0.71875 -4.09375 "/>
</g>
<g id="glyph-2-1">
<path d="M -5.734375 -4.78125 L -5.0625 -4.78125 L -5.0625 -2.859375 L 0 -2.859375 L 0 -2.0625 L -5.0625 -2.0625 L -5.0625 -0.125 L -5.734375 -0.125 Z M -5.734375 -4.78125 "/>
</g>
<g id="glyph-2-2">
<path d="M -4.28125 -2.265625 C -4.28125 -2.554688 -4.207031 -2.84375 -4.0625 -3.125 C -3.925781 -3.40625 -3.75 -3.617188 -3.53125 -3.765625 C -3.320312 -3.898438 -3.078125 -3.992188 -2.796875 -4.046875 C -2.597656 -4.085938 -2.289062 -4.109375 -1.875 -4.109375 L -1.875 -1.03125 C -1.445312 -1.050781 -1.101562 -1.15625 -0.84375 -1.34375 C -0.59375 -1.53125 -0.46875 -1.816406 -0.46875 -2.203125 C -0.46875 -2.578125 -0.585938 -2.875 -0.828125 -3.09375 C -0.960938 -3.21875 -1.125 -3.304688 -1.3125 -3.359375 L -1.3125 -4.046875 C -1.15625 -4.023438 -0.984375 -3.960938 -0.796875 -3.859375 C -0.609375 -3.753906 -0.457031 -3.640625 -0.34375 -3.515625 C -0.132812 -3.304688 0.0078125 -3.039062 0.09375 -2.71875 C 0.132812 -2.550781 0.15625 -2.363281 0.15625 -2.15625 C 0.15625 -1.632812 -0.03125 -1.191406 -0.40625 -0.828125 C -0.789062 -0.460938 -1.328125 -0.28125 -2.015625 -0.28125 C -2.679688 -0.28125 -3.222656 -0.460938 -3.640625 -0.828125 C -4.066406 -1.191406 -4.28125 -1.671875 -4.28125 -2.265625 Z M -2.421875 -3.375 C -2.734375 -3.351562 -2.976562 -3.289062 -3.15625 -3.1875 C -3.5 -2.988281 -3.671875 -2.664062 -3.671875 -2.21875 C -3.671875 -1.894531 -3.550781 -1.625 -3.3125 -1.40625 C -3.082031 -1.1875 -2.785156 -1.070312 -2.421875 -1.0625 Z M -4.28125 -2.1875 Z M -4.28125 -2.1875 "/>
</g>
<g id="glyph-2-3">
<path d="M -4.1875 -0.515625 L -4.1875 -1.21875 L -3.59375 -1.21875 C -3.800781 -1.382812 -3.953125 -1.535156 -4.046875 -1.671875 C -4.203125 -1.898438 -4.28125 -2.160156 -4.28125 -2.453125 C -4.28125 -2.785156 -4.195312 -3.054688 -4.03125 -3.265625 C -3.9375 -3.378906 -3.800781 -3.484375 -3.625 -3.578125 C -3.84375 -3.734375 -4.003906 -3.914062 -4.109375 -4.125 C -4.222656 -4.332031 -4.28125 -4.566406 -4.28125 -4.828125 C -4.28125 -5.390625 -4.078125 -5.773438 -3.671875 -5.984375 C -3.453125 -6.085938 -3.15625 -6.140625 -2.78125 -6.140625 L 0 -6.140625 L 0 -5.421875 L -2.90625 -5.421875 C -3.1875 -5.421875 -3.378906 -5.347656 -3.484375 -5.203125 C -3.585938 -5.066406 -3.640625 -4.898438 -3.640625 -4.703125 C -3.640625 -4.421875 -3.546875 -4.179688 -3.359375 -3.984375 C -3.171875 -3.785156 -2.863281 -3.6875 -2.4375 -3.6875 L 0 -3.6875 L 0 -2.96875 L -2.734375 -2.96875 C -3.015625 -2.96875 -3.222656 -2.9375 -3.359375 -2.875 C -3.546875 -2.757812 -3.640625 -2.554688 -3.640625 -2.265625 C -3.640625 -2.003906 -3.535156 -1.765625 -3.328125 -1.546875 C -3.128906 -1.328125 -2.757812 -1.21875 -2.21875 -1.21875 L 0 -1.21875 L 0 -0.515625 Z M -4.1875 -0.515625 "/>
</g>
<g id="glyph-2-4">
<path d="M -0.46875 -2.28125 C -0.46875 -2.613281 -0.601562 -2.882812 -0.875 -3.09375 C -1.15625 -3.3125 -1.570312 -3.421875 -2.125 -3.421875 C -2.457031 -3.421875 -2.742188 -3.375 -2.984375 -3.28125 C -3.441406 -3.101562 -3.671875 -2.769531 -3.671875 -2.28125 C -3.671875 -1.789062 -3.425781 -1.457031 -2.9375 -1.28125 C -2.675781 -1.1875 -2.347656 -1.140625 -1.953125 -1.140625 C -1.628906 -1.140625 -1.351562 -1.1875 -1.125 -1.28125 C -0.6875 -1.46875 -0.46875 -1.800781 -0.46875 -2.28125 Z M -4.171875 -0.46875 L -4.171875 -1.140625 L -3.609375 -1.140625 C -3.796875 -1.285156 -3.941406 -1.441406 -4.046875 -1.609375 C -4.203125 -1.847656 -4.28125 -2.125 -4.28125 -2.4375 C -4.28125 -2.914062 -4.097656 -3.316406 -3.734375 -3.640625 C -3.378906 -3.972656 -2.863281 -4.140625 -2.1875 -4.140625 C -1.269531 -4.140625 -0.617188 -3.90625 -0.234375 -3.4375 C 0.0117188 -3.132812 0.140625 -2.78125 0.140625 -2.375 C 0.140625 -2.0625 0.0703125 -1.796875 -0.0625 -1.578125 C -0.144531 -1.453125 -0.28125 -1.316406 -0.46875 -1.171875 L 1.671875 -1.171875 L 1.671875 -0.46875 Z M -4.171875 -0.46875 "/>
</g>
<g id="glyph-2-5">
<path d="M -4.1875 -0.53125 L -4.1875 -1.203125 L -3.46875 -1.203125 C -3.601562 -1.253906 -3.769531 -1.382812 -3.96875 -1.59375 C -4.175781 -1.8125 -4.28125 -2.0625 -4.28125 -2.34375 C -4.28125 -2.351562 -4.273438 -2.375 -4.265625 -2.40625 C -4.265625 -2.4375 -4.265625 -2.492188 -4.265625 -2.578125 L -3.515625 -2.578125 C -3.523438 -2.535156 -3.53125 -2.492188 -3.53125 -2.453125 C -3.53125 -2.421875 -3.53125 -2.382812 -3.53125 -2.34375 C -3.53125 -1.988281 -3.414062 -1.710938 -3.1875 -1.515625 C -2.96875 -1.328125 -2.707031 -1.234375 -2.40625 -1.234375 L 0 -1.234375 L 0 -0.53125 Z M -4.1875 -0.53125 "/>
</g>
<g id="glyph-2-6">
<path d="M -1.109375 -1.0625 C -0.910156 -1.0625 -0.75 -1.132812 -0.625 -1.28125 C -0.507812 -1.425781 -0.453125 -1.601562 -0.453125 -1.8125 C -0.453125 -2.050781 -0.507812 -2.289062 -0.625 -2.53125 C -0.820312 -2.914062 -1.132812 -3.109375 -1.5625 -3.109375 L -2.125 -3.109375 C -2.070312 -3.023438 -2.023438 -2.914062 -1.984375 -2.78125 C -1.953125 -2.644531 -1.929688 -2.507812 -1.921875 -2.375 L -1.859375 -1.953125 C -1.828125 -1.703125 -1.773438 -1.507812 -1.703125 -1.375 C -1.578125 -1.164062 -1.378906 -1.0625 -1.109375 -1.0625 Z M -2.53125 -2.765625 C -2.550781 -2.921875 -2.617188 -3.023438 -2.734375 -3.078125 C -2.796875 -3.109375 -2.890625 -3.125 -3.015625 -3.125 C -3.253906 -3.125 -3.425781 -3.039062 -3.53125 -2.875 C -3.632812 -2.707031 -3.6875 -2.460938 -3.6875 -2.140625 C -3.6875 -1.773438 -3.585938 -1.515625 -3.390625 -1.359375 C -3.285156 -1.273438 -3.125 -1.21875 -2.90625 -1.1875 L -2.90625 -0.53125 C -3.425781 -0.550781 -3.785156 -0.71875 -3.984375 -1.03125 C -4.179688 -1.351562 -4.28125 -1.726562 -4.28125 -2.15625 C -4.28125 -2.644531 -4.1875 -3.046875 -4 -3.359375 C -3.8125 -3.660156 -3.519531 -3.8125 -3.125 -3.8125 L -0.71875 -3.8125 C -0.644531 -3.8125 -0.585938 -3.828125 -0.546875 -3.859375 C -0.503906 -3.890625 -0.484375 -3.953125 -0.484375 -4.046875 C -0.484375 -4.078125 -0.484375 -4.113281 -0.484375 -4.15625 C -0.484375 -4.195312 -0.488281 -4.238281 -0.5 -4.28125 L 0.015625 -4.28125 C 0.046875 -4.164062 0.0664062 -4.078125 0.078125 -4.015625 C 0.0859375 -3.960938 0.09375 -3.890625 0.09375 -3.796875 C 0.09375 -3.554688 0.00390625 -3.378906 -0.171875 -3.265625 C -0.265625 -3.210938 -0.394531 -3.171875 -0.5625 -3.140625 C -0.375 -3.003906 -0.207031 -2.800781 -0.0625 -2.53125 C 0.0703125 -2.257812 0.140625 -1.960938 0.140625 -1.640625 C 0.140625 -1.253906 0.0234375 -0.9375 -0.203125 -0.6875 C -0.441406 -0.445312 -0.738281 -0.328125 -1.09375 -0.328125 C -1.488281 -0.328125 -1.789062 -0.445312 -2 -0.6875 C -2.21875 -0.925781 -2.347656 -1.242188 -2.390625 -1.640625 Z M -4.28125 -2.171875 Z M -4.28125 -2.171875 "/>
</g>
<g id="glyph-2-7">
<path d="M -5.359375 -0.65625 L -5.359375 -1.375 L -4.1875 -1.375 L -4.1875 -2.03125 L -3.609375 -2.03125 L -3.609375 -1.375 L -0.875 -1.375 C -0.726562 -1.375 -0.632812 -1.421875 -0.59375 -1.515625 C -0.5625 -1.566406 -0.546875 -1.660156 -0.546875 -1.796875 C -0.546875 -1.828125 -0.546875 -1.859375 -0.546875 -1.890625 C -0.546875 -1.929688 -0.550781 -1.976562 -0.5625 -2.03125 L 0 -2.03125 C 0.0195312 -1.957031 0.0351562 -1.875 0.046875 -1.78125 C 0.0546875 -1.695312 0.0625 -1.601562 0.0625 -1.5 C 0.0625 -1.175781 -0.0195312 -0.953125 -0.1875 -0.828125 C -0.351562 -0.710938 -0.570312 -0.65625 -0.84375 -0.65625 L -3.609375 -0.65625 L -3.609375 -0.09375 L -4.1875 -0.09375 L -4.1875 -0.65625 Z M -5.359375 -0.65625 "/>
</g>
<g id="glyph-2-8">
<path d="M -4.1875 -1.21875 L -1.40625 -1.21875 C -1.195312 -1.21875 -1.023438 -1.253906 -0.890625 -1.328125 C -0.640625 -1.453125 -0.515625 -1.679688 -0.515625 -2.015625 C -0.515625 -2.503906 -0.734375 -2.835938 -1.171875 -3.015625 C -1.398438 -3.117188 -1.71875 -3.171875 -2.125 -3.171875 L -4.1875 -3.171875 L -4.1875 -3.875 L 0 -3.875 L 0 -3.203125 L -0.625 -3.21875 C -0.457031 -3.125 -0.320312 -3.007812 -0.21875 -2.875 C 0 -2.601562 0.109375 -2.273438 0.109375 -1.890625 C 0.109375 -1.296875 -0.0859375 -0.890625 -0.484375 -0.671875 C -0.703125 -0.554688 -0.988281 -0.5 -1.34375 -0.5 L -4.1875 -0.5 Z M -4.28125 -2.1875 Z M -4.28125 -2.1875 "/>
</g>
<g id="glyph-2-9">
</g>
<g id="glyph-2-10">
<path d="M -5.828125 -2.375 C -5.035156 -1.957031 -4.453125 -1.691406 -4.078125 -1.578125 C -3.503906 -1.390625 -2.847656 -1.296875 -2.109375 -1.296875 C -1.347656 -1.296875 -0.65625 -1.398438 -0.03125 -1.609375 C 0.351562 -1.742188 0.910156 -2 1.640625 -2.375 L 1.640625 -1.90625 C 1.046875 -1.53125 0.664062 -1.296875 0.5 -1.203125 C 0.332031 -1.109375 0.105469 -1.007812 -0.171875 -0.90625 C -0.554688 -0.757812 -0.96875 -0.65625 -1.40625 -0.59375 C -1.632812 -0.570312 -1.851562 -0.5625 -2.0625 -0.5625 C -2.832031 -0.5625 -3.515625 -0.679688 -4.109375 -0.921875 C -4.492188 -1.078125 -5.066406 -1.394531 -5.828125 -1.875 Z M -5.828125 -2.375 "/>
</g>
<g id="glyph-2-11">
<path d="M -5.59375 -1.625 C -5.59375 -1.945312 -5.476562 -2.222656 -5.25 -2.453125 C -5.019531 -2.679688 -4.742188 -2.796875 -4.421875 -2.796875 C -4.078125 -2.796875 -3.789062 -2.675781 -3.5625 -2.4375 C -3.34375 -2.207031 -3.234375 -1.9375 -3.234375 -1.625 C -3.234375 -1.269531 -3.347656 -0.984375 -3.578125 -0.765625 C -3.816406 -0.546875 -4.09375 -0.4375 -4.40625 -0.4375 C -4.738281 -0.4375 -5.019531 -0.550781 -5.25 -0.78125 C -5.476562 -1.019531 -5.59375 -1.300781 -5.59375 -1.625 Z M -4.40625 -0.859375 C -4.207031 -0.859375 -4.03125 -0.929688 -3.875 -1.078125 C -3.726562 -1.234375 -3.65625 -1.414062 -3.65625 -1.625 C -3.65625 -1.820312 -3.726562 -1.992188 -3.875 -2.140625 C -4.019531 -2.296875 -4.203125 -2.375 -4.421875 -2.375 C -4.617188 -2.375 -4.789062 -2.296875 -4.9375 -2.140625 C -5.09375 -1.992188 -5.171875 -1.820312 -5.171875 -1.625 C -5.171875 -1.414062 -5.09375 -1.234375 -4.9375 -1.078125 C -4.789062 -0.929688 -4.613281 -0.859375 -4.40625 -0.859375 Z M -4.40625 -0.859375 "/>
</g>
<g id="glyph-2-12">
<path d="M -5.890625 -3.03125 C -5.890625 -3.757812 -5.695312 -4.320312 -5.3125 -4.71875 C -4.9375 -5.125 -4.503906 -5.347656 -4.015625 -5.390625 L -4.015625 -4.625 C -4.390625 -4.539062 -4.679688 -4.367188 -4.890625 -4.109375 C -5.109375 -3.859375 -5.21875 -3.5 -5.21875 -3.03125 C -5.21875 -2.46875 -5.019531 -2.007812 -4.625 -1.65625 C -4.226562 -1.3125 -3.617188 -1.140625 -2.796875 -1.140625 C -2.128906 -1.140625 -1.582031 -1.296875 -1.15625 -1.609375 C -0.738281 -1.929688 -0.53125 -2.398438 -0.53125 -3.015625 C -0.53125 -3.585938 -0.753906 -4.023438 -1.203125 -4.328125 C -1.429688 -4.484375 -1.734375 -4.601562 -2.109375 -4.6875 L -2.109375 -5.4375 C -1.503906 -5.375 -1 -5.148438 -0.59375 -4.765625 C -0.09375 -4.316406 0.15625 -3.703125 0.15625 -2.921875 C 0.15625 -2.253906 -0.046875 -1.695312 -0.453125 -1.25 C -0.992188 -0.65625 -1.820312 -0.359375 -2.9375 -0.359375 C -3.78125 -0.359375 -4.472656 -0.582031 -5.015625 -1.03125 C -5.597656 -1.507812 -5.890625 -2.175781 -5.890625 -3.03125 Z M -5.890625 -2.875 Z M -5.890625 -2.875 "/>
</g>
<g id="glyph-2-13">
<path d="M 1.640625 -0.28125 C 0.828125 -0.695312 0.230469 -0.960938 -0.140625 -1.078125 C -0.691406 -1.265625 -1.347656 -1.359375 -2.109375 -1.359375 C -2.859375 -1.359375 -3.546875 -1.25 -4.171875 -1.03125 C -4.554688 -0.90625 -5.109375 -0.648438 -5.828125 -0.265625 L -5.828125 -0.734375 C -5.191406 -1.140625 -4.796875 -1.382812 -4.640625 -1.46875 C -4.492188 -1.550781 -4.289062 -1.644531 -4.03125 -1.75 C -3.707031 -1.875 -3.382812 -1.960938 -3.0625 -2.015625 C -2.75 -2.066406 -2.441406 -2.09375 -2.140625 -2.09375 C -1.367188 -2.09375 -0.679688 -1.96875 -0.078125 -1.71875 C 0.304688 -1.570312 0.878906 -1.253906 1.640625 -0.765625 Z M 1.640625 -0.28125 "/>
</g>
</g>
<clipPath id="clip-0">
<path clip-rule="nonzero" d="M 25.5625 3.984375 L 284.011719 3.984375 L 284.011719 191.433594 L 25.5625 191.433594 Z M 25.5625 3.984375 "/>
</clipPath>
<clipPath id="clip-1">
<path clip-rule="nonzero" d="M 25.5625 169 L 284.011719 169 L 284.011719 170 L 25.5625 170 Z M 25.5625 169 "/>
</clipPath>
<clipPath id="clip-2">
<path clip-rule="nonzero" d="M 25.5625 118 L 284.011719 118 L 284.011719 119 L 25.5625 119 Z M 25.5625 118 "/>
</clipPath>
<clipPath id="clip-3">
<path clip-rule="nonzero" d="M 25.5625 68 L 284.011719 68 L 284.011719 69 L 25.5625 69 Z M 25.5625 68 "/>
</clipPath>
<clipPath id="clip-4">
<path clip-rule="nonzero" d="M 25.5625 17 L 284.011719 17 L 284.011719 18 L 25.5625 18 Z M 25.5625 17 "/>
</clipPath>
<clipPath id="clip-5">
<path clip-rule="nonzero" d="M 45 3.984375 L 46 3.984375 L 46 191.433594 L 45 191.433594 Z M 45 3.984375 "/>
</clipPath>
<clipPath id="clip-6">
<path clip-rule="nonzero" d="M 99 3.984375 L 101 3.984375 L 101 191.433594 L 99 191.433594 Z M 99 3.984375 "/>
</clipPath>
<clipPath id="clip-7">
<path clip-rule="nonzero" d="M 154 3.984375 L 155 3.984375 L 155 191.433594 L 154 191.433594 Z M 154 3.984375 "/>
</clipPath>
<clipPath id="clip-8">
<path clip-rule="nonzero" d="M 208 3.984375 L 210 3.984375 L 210 191.433594 L 208 191.433594 Z M 208 3.984375 "/>
</clipPath>
<clipPath id="clip-9">
<path clip-rule="nonzero" d="M 263 3.984375 L 264 3.984375 L 264 191.433594 L 263 191.433594 Z M 263 3.984375 "/>
</clipPath>
<clipPath id="clip-10">
<path clip-rule="nonzero" d="M 25.5625 143 L 284.011719 143 L 284.011719 145 L 25.5625 145 Z M 25.5625 143 "/>
</clipPath>
<clipPath id="clip-11">
<path clip-rule="nonzero" d="M 25.5625 93 L 284.011719 93 L 284.011719 94 L 25.5625 94 Z M 25.5625 93 "/>
</clipPath>
<clipPath id="clip-12">
<path clip-rule="nonzero" d="M 25.5625 42 L 284.011719 42 L 284.011719 44 L 25.5625 44 Z M 25.5625 42 "/>
</clipPath>
<clipPath id="clip-13">
<path clip-rule="nonzero" d="M 72 3.984375 L 74 3.984375 L 74 191.433594 L 72 191.433594 Z M 72 3.984375 "/>
</clipPath>
<clipPath id="clip-14">
<path clip-rule="nonzero" d="M 126 3.984375 L 128 3.984375 L 128 191.433594 L 126 191.433594 Z M 126 3.984375 "/>
</clipPath>
<clipPath id="clip-15">
<path clip-rule="nonzero" d="M 181 3.984375 L 183 3.984375 L 183 191.433594 L 181 191.433594 Z M 181 3.984375 "/>
</clipPath>
<clipPath id="clip-16">
<path clip-rule="nonzero" d="M 235 3.984375 L 237 3.984375 L 237 191.433594 L 235 191.433594 Z M 235 3.984375 "/>
</clipPath>
</defs>
<rect x="-28.8" y="-21.6" width="345.6" height="259.2" fill="rgb(100%, 100%, 100%)" fill-opacity="1"/>
<rect x="-28.8" y="-21.6" width="345.6" height="259.2" fill="rgb(100%, 100%, 100%)" fill-opacity="1"/>
<path fill="none" stroke-width="0.775984" stroke-linecap="round" stroke-linejoin="round" stroke="rgb(100%, 100%, 100%)" stroke-opacity="1" stroke-miterlimit="10" d="M 0 216 L 288 216 L 288 0 L 0 0 Z M 0 216 "/>
<g clip-path="url(#clip-0)">
<path fill-rule="nonzero" fill="rgb(92.156863%, 92.156863%, 92.156863%)" fill-opacity="1" d="M 25.5625 191.4375 L 284.011719 191.4375 L 284.011719 3.988281 L 25.5625 3.988281 Z M 25.5625 191.4375 "/>
</g>
<g clip-path="url(#clip-1)">
<path fill="none" stroke-width="0.387992" stroke-linecap="butt" stroke-linejoin="round" stroke="rgb(100%, 100%, 100%)" stroke-opacity="1" stroke-miterlimit="10" d="M 25.5625 169.324219 L 284.015625 169.324219 "/>
</g>
<g clip-path="url(#clip-2)">
<path fill="none" stroke-width="0.387992" stroke-linecap="butt" stroke-linejoin="round" stroke="rgb(100%, 100%, 100%)" stroke-opacity="1" stroke-miterlimit="10" d="M 25.5625 118.792969 L 284.015625 118.792969 "/>
</g>
<g clip-path="url(#clip-3)">
<path fill="none" stroke-width="0.387992" stroke-linecap="butt" stroke-linejoin="round" stroke="rgb(100%, 100%, 100%)" stroke-opacity="1" stroke-miterlimit="10" d="M 25.5625 68.265625 L 284.015625 68.265625 "/>
</g>
<g clip-path="url(#clip-4)">
<path fill="none" stroke-width="0.387992" stroke-linecap="butt" stroke-linejoin="round" stroke="rgb(100%, 100%, 100%)" stroke-opacity="1" stroke-miterlimit="10" d="M 25.5625 17.734375 L 284.015625 17.734375 "/>
</g>
<g clip-path="url(#clip-5)">
<path fill="none" stroke-width="0.387992" stroke-linecap="butt" stroke-linejoin="round" stroke="rgb(100%, 100%, 100%)" stroke-opacity="1" stroke-miterlimit="10" d="M 45.5 191.4375 L 45.5 3.984375 "/>
</g>
<g clip-path="url(#clip-6)">
<path fill="none" stroke-width="0.387992" stroke-linecap="butt" stroke-linejoin="round" stroke="rgb(100%, 100%, 100%)" stroke-opacity="1" stroke-miterlimit="10" d="M 100.039062 191.4375 L 100.039062 3.984375 "/>
</g>
<g clip-path="url(#clip-7)">
<path fill="none" stroke-width="0.387992" stroke-linecap="butt" stroke-linejoin="round" stroke="rgb(100%, 100%, 100%)" stroke-opacity="1" stroke-miterlimit="10" d="M 154.574219 191.4375 L 154.574219 3.984375 "/>
</g>
<g clip-path="url(#clip-8)">
<path fill="none" stroke-width="0.387992" stroke-linecap="butt" stroke-linejoin="round" stroke="rgb(100%, 100%, 100%)" stroke-opacity="1" stroke-miterlimit="10" d="M 209.105469 191.4375 L 209.105469 3.984375 "/>
</g>
<g clip-path="url(#clip-9)">
<path fill="none" stroke-width="0.387992" stroke-linecap="butt" stroke-linejoin="round" stroke="rgb(100%, 100%, 100%)" stroke-opacity="1" stroke-miterlimit="10" d="M 263.644531 191.4375 L 263.644531 3.984375 "/>
</g>
<g clip-path="url(#clip-10)">
<path fill="none" stroke-width="0.775984" stroke-linecap="butt" stroke-linejoin="round" stroke="rgb(100%, 100%, 100%)" stroke-opacity="1" stroke-miterlimit="10" d="M 25.5625 144.058594 L 284.015625 144.058594 "/>
</g>
<g clip-path="url(#clip-11)">
<path fill="none" stroke-width="0.775984" stroke-linecap="butt" stroke-linejoin="round" stroke="rgb(100%, 100%, 100%)" stroke-opacity="1" stroke-miterlimit="10" d="M 25.5625 93.527344 L 284.015625 93.527344 "/>
</g>
<g clip-path="url(#clip-12)">
<path fill="none" stroke-width="0.775984" stroke-linecap="butt" stroke-linejoin="round" stroke="rgb(100%, 100%, 100%)" stroke-opacity="1" stroke-miterlimit="10" d="M 25.5625 43 L 284.015625 43 "/>
</g>
<g clip-path="url(#clip-13)">
<path fill="none" stroke-width="0.775984" stroke-linecap="butt" stroke-linejoin="round" stroke="rgb(100%, 100%, 100%)" stroke-opacity="1" stroke-miterlimit="10" d="M 72.769531 191.4375 L 72.769531 3.984375 "/>
</g>
<g clip-path="url(#clip-14)">
<path fill="none" stroke-width="0.775984" stroke-linecap="butt" stroke-linejoin="round" stroke="rgb(100%, 100%, 100%)" stroke-opacity="1" stroke-miterlimit="10" d="M 127.3125 191.4375 L 127.3125 3.984375 "/>
</g>
<g clip-path="url(#clip-15)">
<path fill="none" stroke-width="0.775984" stroke-linecap="butt" stroke-linejoin="round" stroke="rgb(100%, 100%, 100%)" stroke-opacity="1" stroke-miterlimit="10" d="M 181.835938 191.4375 L 181.835938 3.984375 "/>
</g>
<g clip-path="url(#clip-16)">
<path fill="none" stroke-width="0.775984" stroke-linecap="butt" stroke-linejoin="round" stroke="rgb(100%, 100%, 100%)" stroke-opacity="1" stroke-miterlimit="10" d="M 236.375 191.4375 L 236.375 3.984375 "/>
</g>
<path fill="none" stroke-width="0.775984" stroke-linecap="butt" stroke-linejoin="round" stroke="rgb(0%, 0%, 0%)" stroke-opacity="0.698039" stroke-miterlimit="10" d="M 37.3125 151.082031 L 37.773438 155.832031 L 38.238281 172.378906 L 38.683594 149.464844 L 39.148438 136.277344 L 39.597656 135.46875 L 40.058594 155.730469 L 40.523438 141.40625 L 40.941406 144.792969 L 41.402344 132.386719 L 41.851562 132.839844 L 42.3125 125.488281 L 42.761719 157.828125 L 43.222656 126.273438 L 43.6875 168.816406 L 44.136719 167.90625 L 44.597656 144.5625 L 45.046875 160.101562 L 45.507812 168.84375 L 45.972656 101.941406 L 46.390625 152.320312 L 46.851562 130.945312 L 47.300781 128.621094 L 47.761719 155.226562 L 48.671875 179.53125 L 49.136719 182.914062 L 49.585938 175.867188 L 50.046875 175.386719 L 50.496094 141.808594 L 50.957031 107.527344 L 51.421875 116.167969 L 52.765625 141.835938 L 53.226562 129.734375 L 53.675781 139.839844 L 54.136719 174.222656 L 54.601562 176.902344 L 55.050781 154.238281 L 55.511719 133.523438 L 55.960938 123.265625 L 56.421875 119.601562 L 56.886719 83.929688 L 57.304688 109.015625 L 57.765625 118.792969 L 58.214844 136.226562 L 58.675781 137.742188 L 59.125 146.914062 L 59.585938 151.386719 L 60.050781 147.417969 L 60.5 148.683594 L 60.960938 145.320312 L 61.410156 125.3125 L 61.871094 123.265625 L 62.335938 122.40625 L 62.753906 126.953125 L 63.214844 120.488281 L 63.664062 134.28125 L 64.125 155.855469 L 64.574219 151.890625 L 65.039062 136.730469 L 65.5 146.15625 L 65.949219 155.476562 L 66.410156 130.996094 L 66.859375 119.601562 L 67.320312 113.890625 L 67.785156 103.914062 L 68.203125 120.4375 L 68.664062 142.367188 L 69.113281 139.585938 L 69.574219 139.003906 L 70.023438 157.5 L 70.488281 157.5 L 70.949219 163.839844 L 71.398438 150.171875 L 71.859375 134.382812 L 72.308594 115.9375 L 72.769531 99.238281 L 73.234375 123.140625 L 73.667969 115.128906 L 74.128906 134.785156 L 74.578125 150.578125 L 75.039062 156.691406 L 75.488281 166.0625 L 75.949219 139.15625 L 76.414062 137.742188 L 76.863281 150.980469 L 77.324219 125.945312 L 77.773438 122.054688 L 78.234375 116.796875 L 78.699219 93.527344 L 79.117188 122.457031 L 79.578125 147.949219 L 80.027344 139.710938 L 80.488281 159.648438 L 80.9375 161.59375 L 81.402344 151.789062 L 81.863281 144.058594 L 82.3125 142.011719 L 82.773438 140.167969 L 83.222656 136.679688 L 83.683594 139.839844 L 84.148438 123.191406 L 84.566406 131.425781 L 85.027344 147.214844 L 85.476562 137.996094 L 85.9375 163.257812 L 86.386719 163.714844 L 86.851562 182.460938 L 87.3125 167.300781 L 87.761719 150.375 L 88.222656 135.644531 L 88.671875 138.804688 L 89.132812 145.070312 L 89.597656 164.066406 L 90.015625 154.339844 L 90.476562 126.574219 L 90.925781 142.996094 L 91.390625 153.53125 L 91.835938 160.910156 L 92.300781 165.433594 L 92.761719 149.667969 L 93.210938 155.730469 L 93.671875 126.574219 L 94.121094 133.066406 L 94.582031 92.519531 L 95.046875 95.550781 L 95.480469 112.25 L 95.941406 93.527344 L 96.390625 118.792969 L 96.851562 142.996094 L 97.300781 161.542969 L 97.765625 164.648438 L 98.226562 143.046875 L 98.675781 130.011719 L 99.136719 169.324219 L 99.585938 140.773438 L 100.046875 121.597656 L 100.511719 112.476562 L 100.929688 136.984375 L 101.390625 126.878906 L 101.839844 128.519531 L 102.300781 146.078125 L 102.75 156.136719 L 103.214844 154.898438 L 103.675781 145.699219 L 104.585938 124.78125 L 105.035156 92.71875 L 105.496094 140.800781 L 105.960938 131.878906 L 106.378906 133.066406 L 106.839844 129.734375 L 107.289062 147.722656 L 107.753906 109.523438 L 108.199219 139.585938 L 108.664062 120.839844 L 109.125 147.015625 L 109.574219 147.316406 L 110.035156 144.890625 L 110.484375 121.246094 L 110.945312 135.367188 L 111.410156 152.671875 L 111.828125 140.800781 L 112.289062 146.585938 L 112.738281 145.269531 L 113.203125 145.75 L 113.648438 155.882812 L 114.113281 155.882812 L 114.574219 152.902344 L 115.023438 147.316406 L 115.484375 145.75 L 115.933594 103.304688 L 116.398438 157.09375 L 116.859375 128.898438 L 117.292969 72.484375 L 117.753906 148.683594 L 118.203125 146.105469 L 118.667969 141.101562 L 119.113281 180.261719 L 119.578125 166.46875 L 120.039062 165.960938 L 120.488281 159.140625 L 120.949219 150.375 L 121.398438 102.5 L 121.859375 93.527344 L 122.324219 84.964844 L 122.742188 119.199219 L 123.203125 122.152344 L 123.652344 112.679688 L 124.117188 133.953125 L 124.5625 155.476562 L 125.027344 153.027344 L 125.488281 167.628906 L 125.9375 174.222656 L 126.398438 160.480469 L 126.847656 146.914062 L 127.3125 126.800781 L 127.773438 53.839844 L 128.191406 89.058594 L 128.65625 102.371094 L 129.101562 123.695312 L 129.566406 163.007812 L 130.011719 170.964844 L 130.476562 178.292969 L 130.9375 165.960938 L 131.386719 162.804688 L 131.847656 150.804688 L 132.296875 126.523438 L 132.761719 138.753906 L 133.222656 130.515625 L 133.640625 122.457031 L 134.105469 132.261719 L 134.550781 143.652344 L 135.015625 140.269531 L 135.460938 140.394531 L 135.925781 173.792969 L 136.386719 168.488281 L 136.835938 157.953125 L 137.300781 164.523438 L 137.746094 164.851562 L 138.210938 166.0625 L 138.671875 121.394531 L 139.105469 130.214844 L 139.566406 127.636719 L 140.015625 168.515625 L 140.480469 174.375 L 140.925781 174.628906 L 141.390625 175.839844 L 141.851562 175.210938 L 142.300781 134.585938 L 142.761719 159.976562 L 143.210938 156.691406 L 143.675781 148.960938 L 144.136719 135.039062 L 144.554688 137.136719 L 145.019531 108.257812 L 145.464844 145.269531 L 145.929688 158.382812 L 146.375 139.15625 L 146.839844 151.386719 L 147.300781 174.980469 L 147.75 170.535156 L 148.210938 152.472656 L 148.660156 144.488281 L 149.125 119.222656 L 149.585938 91.734375 L 150.003906 96.382812 L 150.46875 104.898438 L 150.914062 146.914062 L 151.378906 158.382812 L 151.824219 164.015625 L 152.289062 166.621094 L 152.75 146.15625 L 153.199219 156.285156 L 153.664062 135.265625 L 154.109375 129.785156 L 154.574219 105.351562 L 155.035156 97.597656 L 155.453125 101.691406 L 155.917969 118.363281 L 156.363281 104.066406 L 156.828125 135.214844 L 157.277344 160.355469 L 157.738281 157.523438 L 158.199219 163.007812 L 158.648438 134.332031 L 159.113281 147.671875 L 159.558594 54.824219 L 160.023438 98.835938 L 160.484375 100.503906 L 160.917969 113.890625 L 161.382812 111.644531 L 161.828125 121.648438 L 162.292969 107.425781 L 162.738281 135.492188 L 163.203125 149.363281 L 163.664062 137.3125 L 164.113281 150.171875 L 164.578125 145.320312 L 165.023438 129.378906 L 165.488281 130.617188 L 165.949219 143.605469 L 166.367188 146.507812 L 166.832031 136.050781 L 167.277344 143.199219 L 167.742188 129.328125 L 168.1875 144.058594 L 168.652344 157.902344 L 169.113281 126.375 L 169.5625 148.125 L 170.027344 131.855469 L 170.472656 120.488281 L 170.9375 125.3125 L 171.398438 80.898438 L 171.816406 117.984375 L 172.28125 125.945312 L 172.726562 139.839844 L 173.191406 160.050781 L 173.640625 171.773438 L 174.101562 159.140625 L 176.386719 131.023438 L 176.847656 119.25 L 177.265625 130.214844 L 177.730469 112.476562 L 178.175781 116.34375 L 178.640625 126.375 L 179.089844 129.378906 L 179.550781 132.234375 L 180.015625 133.523438 L 180.460938 142.417969 L 180.925781 147.015625 L 181.371094 121.445312 L 181.835938 108.257812 L 182.296875 135.796875 L 182.730469 130.617188 L 183.195312 127.636719 L 183.640625 160.355469 L 184.105469 135.644531 L 184.550781 144.867188 L 185.015625 143.652344 L 185.476562 165.105469 L 185.925781 154.238281 L 186.390625 105.328125 L 186.835938 138.347656 L 187.300781 133.066406 L 187.761719 116.089844 L 188.179688 109.015625 L 188.644531 122.683594 L 189.089844 104.949219 L 189.554688 136.910156 L 190.003906 128.570312 L 190.464844 129.734375 L 190.929688 133.523438 L 191.375 115.535156 L 191.839844 84.257812 L 192.285156 82.84375 L 192.75 100.933594 L 193.210938 96.6875 L 193.628906 108.207031 L 194.09375 93.957031 L 194.539062 72.484375 L 195.003906 100.679688 L 195.453125 119.601562 L 195.914062 153.429688 L 196.378906 153.332031 L 196.824219 152.21875 L 197.289062 154.59375 L 197.734375 154.519531 L 198.199219 130.996094 L 198.660156 120.15625 L 199.078125 132.640625 L 199.542969 123.417969 L 199.992188 135.089844 L 200.453125 170.15625 L 200.902344 160.355469 L 201.363281 154.289062 L 201.828125 151.789062 L 202.273438 137.742188 L 202.738281 137.742188 L 203.183594 137.945312 L 203.648438 123.695312 L 204.109375 133.167969 L 204.542969 144.460938 L 205.007812 152.066406 L 205.453125 153.835938 L 205.917969 146.585938 L 206.367188 161.164062 L 206.828125 154.238281 L 207.292969 153.203125 L 207.738281 135.492188 L 208.203125 146.15625 L 208.648438 112.679688 L 209.113281 95.980469 L 209.574219 96.234375 L 209.992188 107.375 L 210.457031 128.898438 L 210.90625 132.640625 L 211.367188 145.75 L 211.816406 149.363281 L 212.277344 159.140625 L 212.742188 162.578125 L 213.1875 156.691406 L 213.652344 118.363281 L 214.097656 139.585938 L 214.5625 124.503906 L 215.023438 97.597656 L 215.441406 128.167969 L 215.90625 112.90625 L 216.355469 97.191406 L 216.816406 101.109375 L 217.265625 130.214844 L 217.726562 143.25 L 218.191406 155.855469 L 218.636719 142.417969 L 219.101562 135.644531 L 219.550781 133.066406 L 220.011719 129.785156 L 220.472656 125.566406 L 220.894531 121.421875 L 221.355469 119.222656 L 221.804688 129.785156 L 222.265625 128.066406 L 222.714844 142.011719 L 223.175781 138.347656 L 223.640625 153.332031 L 224.085938 155.882812 L 224.550781 150.804688 L 225 105.757812 L 225.460938 114.726562 L 225.925781 133.167969 L 226.355469 110.230469 L 226.820312 127.636719 L 227.269531 115.535156 L 227.730469 112.476562 L 228.179688 122.054688 L 228.640625 130.214844 L 229.105469 120.890625 L 229.550781 125.714844 L 230.015625 130.996094 L 230.460938 122.054688 L 230.925781 88.628906 L 231.386719 100.300781 L 231.804688 122.054688 L 232.269531 132.6875 L 232.71875 113.082031 L 233.179688 125.945312 L 233.628906 120.4375 L 234.089844 152.625 L 234.554688 146.585938 L 235 135.898438 L 235.464844 104.46875 L 235.914062 95.980469 L 236.375 122.054688 L 236.839844 111.113281 L 237.257812 106.96875 L 237.71875 132.261719 L 238.167969 134.683594 L 238.628906 141.53125 L 239.078125 148.53125 L 239.539062 138.753906 L 240.003906 137.742188 L 240.449219 131.425781 L 240.914062 125.945312 L 241.363281 108.207031 L 241.824219 77.535156 L 242.289062 96.6875 L 242.707031 74.78125 L 243.167969 113.3125 L 243.617188 112.277344 L 244.078125 128.898438 L 244.527344 133.066406 L 244.988281 134.683594 L 245.453125 137.742188 L 245.902344 128.167969 L 246.363281 138.574219 L 246.8125 136.328125 L 247.273438 100.046875 L 247.738281 113.992188 L 248.171875 124.097656 L 248.632812 136.910156 L 249.082031 150.980469 L 249.542969 154.164062 L 249.992188 159.140625 L 250.453125 155.882812 L 250.917969 151.636719 L 251.363281 143.652344 L 251.828125 139.839844 L 252.277344 98.835938 L 252.738281 113.488281 L 253.203125 117.882812 L 253.621094 119.601562 L 254.082031 123.011719 L 254.53125 117.53125 L 254.992188 119.222656 L 255.441406 126.953125 L 255.902344 150.171875 L 256.367188 141.960938 L 256.816406 115.535156 L 257.277344 82.160156 L 257.726562 113.488281 L 258.1875 102.902344 L 258.652344 105.707031 L 259.070312 110.632812 L 259.53125 125.945312 L 259.980469 121.246094 L 260.441406 133.523438 L 260.890625 130.617188 L 261.351562 117.152344 L 261.816406 136.480469 L 262.265625 104.519531 L 262.726562 81.328125 L 263.175781 113.488281 L 263.636719 121.75 L 264.101562 87.667969 L 264.519531 82.539062 L 264.980469 99.414062 L 265.429688 125.3125 L 265.890625 104.46875 L 266.339844 126.523438 L 266.804688 119.199219 L 267.265625 87.640625 L 267.714844 100.503906 L 268.175781 78.371094 L 268.625 56.84375 L 269.085938 19.78125 L 269.550781 12.503906 L 269.984375 51.160156 L 270.445312 49.746094 L 270.894531 57.273438 L 271.355469 68.695312 L 271.804688 89.867188 L 272.265625 75.011719 "/>
<g fill="rgb(30.196078%, 30.196078%, 30.196078%)" fill-opacity="1">
<use xlink:href="#glyph-0-1" x="13.976562" y="146.486328"/>
<use xlink:href="#glyph-0-2" x="17.976562" y="146.486328"/>
</g>
<g fill="rgb(30.196078%, 30.196078%, 30.196078%)" fill-opacity="1">
<use xlink:href="#glyph-0-1" x="13.976562" y="95.955078"/>
<use xlink:href="#glyph-0-3" x="17.976562" y="95.955078"/>
</g>
<g fill="rgb(30.196078%, 30.196078%, 30.196078%)" fill-opacity="1">
<use xlink:href="#glyph-0-1" x="13.976562" y="45.427734"/>
<use xlink:href="#glyph-0-4" x="17.976562" y="45.427734"/>
</g>
<path fill="none" stroke-width="0.775984" stroke-linecap="butt" stroke-linejoin="round" stroke="rgb(20%, 20%, 20%)" stroke-opacity="1" stroke-miterlimit="10" d="M 23.570312 144.058594 L 25.5625 144.058594 "/>
<path fill="none" stroke-width="0.775984" stroke-linecap="butt" stroke-linejoin="round" stroke="rgb(20%, 20%, 20%)" stroke-opacity="1" stroke-miterlimit="10" d="M 23.570312 93.527344 L 25.5625 93.527344 "/>
<path fill="none" stroke-width="0.775984" stroke-linecap="butt" stroke-linejoin="round" stroke="rgb(20%, 20%, 20%)" stroke-opacity="1" stroke-miterlimit="10" d="M 23.570312 43 L 25.5625 43 "/>
<path fill="none" stroke-width="0.775984" stroke-linecap="butt" stroke-linejoin="round" stroke="rgb(20%, 20%, 20%)" stroke-opacity="1" stroke-miterlimit="10" d="M 72.769531 193.429688 L 72.769531 191.4375 "/>
<path fill="none" stroke-width="0.775984" stroke-linecap="butt" stroke-linejoin="round" stroke="rgb(20%, 20%, 20%)" stroke-opacity="1" stroke-miterlimit="10" d="M 127.3125 193.429688 L 127.3125 191.4375 "/>
<path fill="none" stroke-width="0.775984" stroke-linecap="butt" stroke-linejoin="round" stroke="rgb(20%, 20%, 20%)" stroke-opacity="1" stroke-miterlimit="10" d="M 181.835938 193.429688 L 181.835938 191.4375 "/>
<path fill="none" stroke-width="0.775984" stroke-linecap="butt" stroke-linejoin="round" stroke="rgb(20%, 20%, 20%)" stroke-opacity="1" stroke-miterlimit="10" d="M 236.375 193.429688 L 236.375 191.4375 "/>
<g fill="rgb(30.196078%, 30.196078%, 30.196078%)" fill-opacity="1">
<use xlink:href="#glyph-0-1" x="64.769531" y="199.951172"/>
<use xlink:href="#glyph-0-5" x="68.769531" y="199.951172"/>
<use xlink:href="#glyph-0-6" x="72.769531" y="199.951172"/>
<use xlink:href="#glyph-0-7" x="76.769531" y="199.951172"/>
</g>
<g fill="rgb(30.196078%, 30.196078%, 30.196078%)" fill-opacity="1">
<use xlink:href="#glyph-0-1" x="119.3125" y="199.951172"/>
<use xlink:href="#glyph-0-5" x="123.3125" y="199.951172"/>
<use xlink:href="#glyph-0-5" x="127.3125" y="199.951172"/>
<use xlink:href="#glyph-0-7" x="131.3125" y="199.951172"/>
</g>
<g fill="rgb(30.196078%, 30.196078%, 30.196078%)" fill-opacity="1">
<use xlink:href="#glyph-0-2" x="173.835938" y="199.951172"/>
<use xlink:href="#glyph-0-7" x="177.835938" y="199.951172"/>
<use xlink:href="#glyph-0-7" x="181.835938" y="199.951172"/>
<use xlink:href="#glyph-0-7" x="185.835938" y="199.951172"/>
</g>
<g fill="rgb(30.196078%, 30.196078%, 30.196078%)" fill-opacity="1">
<use xlink:href="#glyph-0-2" x="228.375" y="199.951172"/>
<use xlink:href="#glyph-0-7" x="232.375" y="199.951172"/>
<use xlink:href="#glyph-0-1" x="236.375" y="199.951172"/>
<use xlink:href="#glyph-0-7" x="240.375" y="199.951172"/>
</g>
<g fill="rgb(0%, 0%, 0%)" fill-opacity="1">
<use xlink:href="#glyph-1-1" x="146.789062" y="209.175781"/>
<use xlink:href="#glyph-1-2" x="152.789062" y="209.175781"/>
<use xlink:href="#glyph-1-3" x="156.789062" y="209.175781"/>
<use xlink:href="#glyph-1-4" x="158.789062" y="209.175781"/>
</g>
<g fill="rgb(0%, 0%, 0%)" fill-opacity="1">
<use xlink:href="#glyph-2-1" x="9.144531" y="127.710938"/>
<use xlink:href="#glyph-2-2" x="9.144531" y="123.710938"/>
<use xlink:href="#glyph-2-3" x="9.144531" y="119.710938"/>
<use xlink:href="#glyph-2-4" x="9.144531" y="112.710938"/>
<use xlink:href="#glyph-2-2" x="9.144531" y="108.710938"/>
<use xlink:href="#glyph-2-5" x="9.144531" y="104.710938"/>
<use xlink:href="#glyph-2-6" x="9.144531" y="101.710938"/>
<use xlink:href="#glyph-2-7" x="9.144531" y="97.710938"/>
<use xlink:href="#glyph-2-8" x="9.144531" y="95.710938"/>
<use xlink:href="#glyph-2-5" x="9.144531" y="91.710938"/>
<use xlink:href="#glyph-2-2" x="9.144531" y="88.710938"/>
<use xlink:href="#glyph-2-9" x="9.144531" y="84.710938"/>
<use xlink:href="#glyph-2-10" x="9.144531" y="82.710938"/>
<use xlink:href="#glyph-2-11" x="9.144531" y="79.710938"/>
<use xlink:href="#glyph-2-12" x="9.144531" y="76.710938"/>
<use xlink:href="#glyph-2-13" x="9.144531" y="70.710938"/>
</g>
</svg>
