<?xml version="1.0" encoding="UTF-8"?>
<svg xmlns="http://www.w3.org/2000/svg" xmlns:xlink="http://www.w3.org/1999/xlink" width="864" height="540" viewBox="0 0 864 540">
<defs>
<clipPath id="clip-0">
<path clip-rule="nonzero" d="M 59.039062 59.039062 L 833.757812 59.039062 L 833.757812 466.558594 L 59.039062 466.558594 Z M 59.039062 59.039062 "/>
</clipPath>
</defs>
<rect x="-86.4" y="-54" width="1036.8" height="648" fill="rgb(100%, 100%, 100%)" fill-opacity="1"/>
<g clip-path="url(#clip-0)">
<path fill-rule="nonzero" fill="rgb(100%, 100%, 100%)" fill-opacity="1" stroke-width="0.75" stroke-linecap="round" stroke-linejoin="round" stroke="rgb(100%, 100%, 100%)" stroke-opacity="1" stroke-miterlimit="10" d="M 59.039062 466.558594 L 833.757812 466.558594 L 833.757812 59.039062 L 59.039062 59.039062 Z M 59.039062 466.558594 "/>
</g>
<path fill="none" stroke-width="0.75" stroke-linecap="round" stroke-linejoin="round" stroke="rgb(0%, 0%, 0%)" stroke-opacity="1" stroke-miterlimit="10" d="M 540.996094 330.539062 L 540.734375 331.523438 L 540.703125 331.863281 L 540.625 332.1875 L 540.117188 332.878906 L 540.078125 333.011719 L 540.019531 333.457031 L 539.988281 333.589844 L 539.855469 333.828125 L 539.792969 334.238281 L 538.296875 338.339844 L 537.308594 342.878906 L 537.285156 343.226562 L 537.257812 343.382812 L 537.125 343.75 L 537.082031 343.917969 L 537.078125 344.105469 L 537.160156 344.398438 L 537.179688 344.5625 L 536.496094 348.421875 L 536.402344 348.710938 L 535.203125 350.515625 L 535.121094 350.765625 L 535.0625 351.121094 L 534.90625 351.445312 L 534.660156 351.683594 L 534.339844 351.773438 L 534.390625 351.925781 L 534.445312 351.96875 L 534.515625 351.941406 L 534.632812 351.878906 L 534.746094 352.417969 L 534.589844 352.992188 L 534.355469 353.554688 L 534.230469 354.058594 L 534.050781 354.332031 L 532.816406 355.542969 L 532.628906 355.683594 L 532.167969 355.898438 L 531.984375 356.015625 L 531.847656 356.1875 L 531.582031 356.632812 L 531.394531 356.863281 L 529.820312 358.152344 L 529.429688 357.84375 L 528.863281 357.925781 L 528.539062 358.257812 L 528.855469 358.679688 L 528.96875 358.546875 L 529.160156 358.386719 L 529.386719 358.269531 L 529.625 358.246094 L 529.355469 358.746094 L 528.796875 359.191406 L 527.027344 360.09375 L 526.507812 360.195312 L 525.960938 360.175781 L 525.320312 360.054688 L 525.339844 360.1875 L 525.367188 360.277344 L 525.421875 360.335938 L 525.515625 360.382812 L 525.515625 360.480469 L 525.078125 360.734375 L 522.296875 363.765625 L 521.621094 364.34375 L 521.394531 364.445312 L 521.308594 364.507812 L 521.273438 364.601562 L 521.21875 364.875 L 521.164062 364.929688 L 520.976562 365.054688 L 520.429688 365.785156 L 520.222656 365.957031 L 519.738281 366.246094 L 519.542969 366.414062 L 519.472656 366.566406 L 519.394531 366.890625 L 519.214844 366.992188 L 519.101562 367.089844 L 518.992188 367.210938 L 518.878906 367.488281 L 516.996094 369.941406 L 515.117188 373.496094 L 514.972656 374.113281 L 515.121094 374.710938 L 514.550781 374.710938 L 514.410156 374.835938 L 514.339844 375.242188 L 514.558594 375.128906 L 515.046875 374.972656 L 515.230469 374.808594 L 515.230469 374.925781 L 515.203125 375.03125 L 515.15625 375.140625 L 515.03125 375.335938 L 514.664062 375.757812 L 513.179688 377.039062 L 512.761719 377.527344 L 512.074219 378.664062 L 511.269531 380.433594 L 509.199219 383.875 L 508.910156 384.503906 L 508.855469 384.738281 L 508.742188 384.957031 L 508.066406 385.644531 L 505.636719 389.878906 L 505.230469 390.421875 L 505.003906 390.644531 L 504.796875 390.734375 L 504.605469 390.890625 L 504.152344 391.800781 L 502.828125 393.453125 L 501.789062 394.75 L 501.382812 395.015625 L 500.921875 395.945312 L 500.167969 396.777344 L 498.082031 398.625 L 497.824219 398.75 L 496.941406 398.984375 L 496.617188 399.125 L 496.335938 399.335938 L 496.214844 399.605469 L 495.339844 400.609375 L 495.023438 400.734375 L 494.894531 400.820312 L 494.800781 401.117188 L 494.699219 401.238281 L 494.589844 401.328125 L 494.511719 401.359375 L 494.191406 401.4375 L 493.933594 401.628906 L 493.476562 402.101562 L 493.246094 402.226562 L 492.683594 402.417969 L 492.3125 402.664062 L 492.191406 402.691406 L 492.054688 402.703125 L 491.902344 402.746094 L 491.835938 402.753906 L 491.675781 402.730469 L 491.609375 402.746094 L 491.523438 402.847656 L 491.542969 402.929688 L 491.597656 402.996094 L 491.609375 403.0625 L 491.328125 403.644531 L 490.90625 403.863281 L 490.828125 403.957031 L 490.769531 404.339844 L 490.617188 404.542969 L 490.148438 404.859375 L 489.679688 405.335938 L 489.460938 405.628906 L 489.363281 405.875 L 489.328125 406.023438 L 489.074219 406.449219 L 488.917969 406.535156 L 488.878906 406.566406 L 488.851562 406.625 L 488.804688 406.816406 L 488.78125 406.871094 L 487.835938 407.273438 L 487.695312 407.464844 L 487.636719 407.71875 L 487.496094 408.007812 L 487.101562 408.574219 L 485.34375 410.324219 L 483.871094 412.191406 L 483.109375 412.625 L 482.984375 412.777344 L 481.0625 414.414062 L 480.738281 414.855469 L 480.617188 414.953125 L 480.378906 415.0625 L 480.25 415.152344 L 479.722656 415.664062 L 479.472656 415.984375 L 479.363281 416.269531 L 479.269531 416.457031 L 477.679688 417.597656 L 477.316406 417.777344 L 476.851562 418.140625 L 476.621094 418.25 L 476.574219 418.496094 L 476.242188 418.734375 L 475.539062 419.085938 L 474.863281 419.53125 L 474.4375 419.746094 L 473.648438 419.960938 L 473.285156 420.273438 L 473.011719 420.703125 L 472.902344 421.164062 L 472.769531 421.492188 L 472.457031 421.816406 L 470.996094 422.933594 L 470.5625 423.078125 L 470.433594 423.199219 L 470.246094 423.453125 L 470.050781 423.558594 L 470.027344 423.613281 L 470.023438 423.691406 L 470.011719 423.777344 L 469.953125 423.855469 L 469.269531 424.144531 L 468.992188 424.433594 L 468.832031 424.5 L 468.554688 424.542969 L 467.847656 424.78125 L 467.601562 424.921875 L 466.324219 426.160156 L 465.847656 426.519531 L 464.835938 426.871094 L 464.671875 427 L 464.609375 427.023438 L 464.273438 427.472656 L 464.164062 427.527344 L 464.054688 427.558594 L 463.9375 427.546875 L 463.785156 427.472656 L 463.679688 427.867188 L 463.339844 428.207031 L 462.5625 428.773438 L 462.210938 428.960938 L 462.15625 428.960938 L 462.09375 428.925781 L 462.046875 428.882812 L 462.019531 428.867188 L 461.972656 428.914062 L 461.914062 429.078125 L 460.390625 430.035156 L 460.253906 430.1875 L 459.171875 430.664062 L 458.949219 430.828125 L 458.839844 430.933594 L 458.789062 431.039062 L 458.761719 431.15625 L 458.683594 431.28125 L 458.566406 431.375 L 458.4375 431.414062 L 458.144531 431.460938 L 456.90625 432.070312 L 456.628906 432.136719 L 456.285156 432.15625 L 455.96875 432.246094 L 455.167969 432.886719 L 454.875 432.957031 L 454.1875 433.03125 L 453.710938 433.292969 L 452.339844 433.828125 L 452.167969 433.847656 L 452.054688 433.914062 L 451.960938 434.203125 L 451.871094 434.269531 L 451.558594 434.3125 L 450.191406 434.941406 L 449.632812 435.078125 L 449.042969 435.105469 L 447.828125 434.945312 L 447.449219 434.957031 L 447.175781 435.070312 L 446.921875 435.109375 L 446.589844 434.980469 L 446.050781 434.695312 L 444.148438 434.347656 L 442.183594 434.25 L 440.929688 434.421875 L 439.757812 434.757812 L 438.695312 435.230469 L 438.234375 435.558594 L 437.863281 435.984375 L 437.59375 436.488281 L 437.355469 437.359375 L 437.320312 437.722656 L 437.382812 437.894531 L 437.660156 438.015625 L 437.726562 438.152344 L 437.792969 438.246094 L 438.207031 438.523438 L 438.472656 438.914062 L 438.597656 439.050781 L 438.578125 439.171875 L 438.550781 439.222656 L 438.5 439.273438 L 438.050781 439.140625 L 437.738281 439.234375 L 437.449219 439.398438 L 437.078125 439.484375 L 436.632812 439.4375 L 435.875 439.21875 L 435.464844 439.15625 L 434.75 439.242188 L 434.394531 439.242188 L 434.011719 439.035156 L 433.5 438.953125 L 433.011719 438.628906 L 432.492188 438.4375 L 431.28125 438.144531 L 429.972656 438.121094 L 428.691406 438.28125 L 427.851562 438.5 L 427.511719 438.667969 L 427.285156 438.90625 L 427.488281 439.542969 L 427.328125 439.851562 L 427.085938 440.121094 L 426.933594 440.222656 L 426.253906 440.785156 L 426.152344 441.019531 L 426.210938 441.207031 L 426.347656 441.308594 L 426.480469 441.382812 L 426.542969 441.492188 L 426.492188 441.628906 L 426.25 441.800781 L 426.152344 441.917969 L 426.054688 441.917969 L 425.875 441.6875 L 425.574219 441.59375 L 424.597656 441.570312 L 423.808594 441.378906 L 423.480469 441.335938 L 422.578125 441.492188 L 422.304688 441.472656 L 421.066406 441.175781 L 420.449219 440.882812 L 419.949219 440.476562 L 419.671875 440.378906 L 417.929688 440.191406 L 417.683594 440.066406 L 417.484375 439.9375 L 416.558594 439.578125 L 414 439.367188 L 413.691406 439.300781 L 413.074219 439.09375 L 411.550781 438.953125 L 409.011719 438.414062 L 408.339844 438.441406 L 406.039062 438.921875 L 405.734375 439.046875 L 405.457031 439.214844 L 405.230469 439.425781 L 405.089844 439.765625 L 405.1875 440.074219 L 405.4375 440.285156 L 405.765625 440.332031 L 405.765625 440.4375 L 400.824219 440.011719 L 400.746094 439.914062 L 400.664062 439.46875 L 400.625 439.367188 L 400.195312 439.335938 L 400.019531 439.273438 L 399.898438 439.15625 L 399.949219 439.390625 L 400.054688 439.484375 L 400.195312 439.53125 L 400.335938 439.636719 L 400.480469 439.851562 L 400.480469 439.96875 L 400.386719 440.066406 L 400.300781 439.984375 L 400.101562 439.929688 L 399.703125 439.898438 L 399.519531 439.933594 L 399.382812 439.992188 L 399.230469 440.03125 L 399.011719 440.011719 L 397.871094 439.6875 L 397.410156 439.429688 L 397.226562 439.378906 L 397.066406 439.28125 L 396.953125 439.050781 L 396.917969 438.90625 L 396.929688 438.796875 L 397.027344 438.738281 L 397.246094 438.742188 L 397.019531 438.570312 L 396.703125 438.476562 L 396.070312 438.414062 L 396.207031 438.648438 L 396.394531 438.878906 L 396.621094 439.0625 L 396.851562 439.15625 L 396.589844 439.242188 L 396.242188 439.179688 L 394.632812 438.664062 L 394.347656 438.628906 L 393.972656 438.640625 L 393.691406 438.6875 L 393.457031 438.785156 L 392.714844 439.339844 L 392.136719 439.613281 L 391.496094 439.746094 L 390.160156 439.613281 L 389.558594 439.625 L 388.332031 439.898438 L 388.046875 440.019531 L 387.8125 440.183594 L 387.390625 440.597656 L 387.214844 440.925781 L 387.277344 441.175781 L 387.484375 441.359375 L 387.738281 441.492188 L 387.542969 441.644531 L 387.257812 441.734375 L 385.398438 441.988281 L 384.867188 442.199219 L 384.507812 442.554688 L 384.464844 442.804688 L 384.535156 443.3125 L 384.402344 443.484375 L 384.117188 443.9375 L 384.035156 443.992188 L 383.1875 444.441406 L 382.605469 444.640625 L 381.996094 444.75 L 381.375 444.78125 L 379.867188 444.503906 L 379.332031 444.207031 L 379.011719 444.136719 L 378.703125 444.1875 L 378.105469 444.414062 L 377.601562 444.5 L 377.503906 444.585938 L 377.4375 444.6875 L 377.363281 444.78125 L 377.269531 444.851562 L 376.316406 445.226562 L 375.699219 445.308594 L 375.078125 445.261719 L 372.734375 444.476562 L 372.160156 444.359375 L 370.773438 444.246094 L 370.085938 444.316406 L 369.519531 444.570312 L 369.621094 444.570312 L 368.804688 444.777344 L 368.539062 444.898438 L 368.925781 444.957031 L 369.269531 445.191406 L 369.441406 445.515625 L 369.320312 445.839844 L 369.054688 445.9375 L 366.527344 445.523438 L 364.523438 445.769531 L 363.929688 446.019531 L 363.433594 446.375 L 362.648438 447.328125 L 362.382812 447.558594 L 362.109375 447.65625 L 361.90625 447.699219 L 361.808594 447.796875 L 361.730469 447.933594 L 361.582031 448.082031 L 361.460938 448.140625 L 360.996094 448.304688 L 360.765625 448.445312 L 360.503906 448.664062 L 360.292969 448.921875 L 360.207031 449.191406 L 360.054688 449.144531 L 359.703125 449.226562 L 359.125 449.457031 L 358.0625 450.148438 L 357.660156 450.636719 L 357.855469 451.050781 L 357.855469 451.148438 L 357.625 451.207031 L 357.25 451.421875 L 357.015625 451.464844 L 356.792969 451.4375 L 356.566406 451.363281 L 356.359375 451.261719 L 355.460938 450.65625 L 355.253906 450.464844 L 355 450.347656 L 352.707031 450.410156 L 352.5 450.453125 L 352.265625 450.667969 L 352.066406 450.726562 L 351.914062 450.695312 L 351.816406 450.597656 L 351.75 450.488281 L 351.683594 450.410156 L 350.964844 450.011719 L 349.871094 449.023438 L 349.140625 448.648438 L 348.917969 448.492188 L 348.695312 448.246094 L 348.425781 448.054688 L 348.085938 448.015625 L 347.742188 448.105469 L 347.46875 448.304688 L 347.34375 448.222656 L 347.21875 448.195312 L 347.09375 448.226562 L 346.972656 448.304688 L 347.023438 448.128906 L 347.875 447.078125 L 347.945312 446.910156 L 347.878906 446.484375 L 347.652344 445.988281 L 347.359375 445.527344 L 347.078125 445.207031 L 346.878906 445.070312 L 346.695312 445.03125 L 345.699219 445.214844 L 344.820312 445.160156 L 344.628906 445.109375 L 344.433594 444.9375 L 344.171875 444.5 L 343.945312 444.359375 L 343.945312 444.253906 L 344.3125 444.195312 L 344.484375 443.96875 L 344.578125 443.644531 L 344.726562 443.292969 L 344.480469 443.421875 L 344.140625 443.929688 L 343.992188 444.042969 L 342.898438 443.976562 L 342.710938 443.988281 L 342.300781 444.125 L 340.910156 444.339844 L 340.609375 444.519531 L 340.550781 444.644531 L 340.414062 444.679688 L 340.253906 444.644531 L 340.117188 444.570312 L 339.984375 444.382812 L 340 444.230469 L 340.117188 444.042969 L 340.023438 443.53125 L 340.015625 443.40625 L 340.0625 443.238281 L 340.128906 443.164062 L 340.210938 443.105469 L 340.316406 442.972656 L 340.433594 442.671875 L 340.414062 442.445312 L 340.207031 441.917969 L 340.1875 441.597656 L 340.316406 441.457031 L 340.511719 441.328125 L 340.699219 441.058594 L 340.097656 440.234375 L 339.867188 440.117188 L 339.019531 439.929688 L 337.683594 439.816406 L 336.363281 439.875 L 336.152344 439.957031 L 336.03125 440.03125 L 335.515625 440.222656 L 335.265625 440.386719 L 335.148438 440.496094 L 335.015625 440.65625 L 334.804688 440.855469 L 334.742188 440.964844 L 334.722656 441.175781 L 334.757812 441.335938 L 334.828125 441.421875 L 334.921875 441.488281 L 335.015625 441.589844 L 335.210938 442.234375 L 335.230469 442.386719 L 335.242188 442.527344 L 335.113281 443.554688 L 335.171875 443.871094 L 335.414062 444.042969 L 335.148438 444.113281 L 334.792969 443.945312 L 334.453125 443.664062 L 334.234375 443.40625 L 333.890625 442.792969 L 333.84375 442.609375 L 333.859375 442.511719 L 333.925781 442.296875 L 333.941406 442.175781 L 333.914062 442.121094 L 333.855469 442.085938 L 333.785156 442.054688 L 333.746094 442.023438 L 333.609375 441.617188 L 333.492188 441.449219 L 333.082031 441.320312 L 332.949219 441.171875 L 332.914062 440.972656 L 332.957031 440.753906 L 333.0625 440.632812 L 333.195312 440.589844 L 333.308594 440.507812 L 333.355469 440.277344 L 333.363281 440.066406 L 333.390625 439.898438 L 333.453125 439.746094 L 333.550781 439.578125 L 333.34375 439.609375 L 333.257812 439.632812 L 333.152344 439.695312 L 332.949219 439.40625 L 332.929688 439.179688 L 333.046875 438.976562 L 333.257812 438.742188 L 333.457031 438.457031 L 333.609375 437.902344 L 333.746094 437.570312 L 334.210938 437.230469 L 334.761719 437.246094 L 335.222656 437.179688 L 335.414062 436.609375 L 335.351562 436.3125 L 335.078125 435.910156 L 335.015625 435.707031 L 334.980469 435.402344 L 334.601562 434.03125 L 334.226562 433.351562 L 334.148438 433.050781 L 334.015625 432.988281 L 333.355469 432.261719 L 333.121094 432.121094 L 333.007812 432.03125 L 332.957031 431.890625 L 332.957031 431.25 L 332.921875 430.929688 L 332.820312 430.664062 L 332.46875 430.136719 L 332.0625 429.734375 L 330.515625 428.75 L 330.65625 428.488281 L 330.574219 428.183594 L 330.214844 427.574219 L 330.027344 427.164062 L 329.679688 426.734375 L 329.636719 426.570312 L 329.5 426.371094 L 328.84375 425.792969 L 328.601562 425.675781 L 328.308594 425.566406 L 328.109375 425.316406 L 327.949219 425.03125 L 327.78125 424.816406 L 328.148438 424.648438 L 328.359375 424.601562 L 328.511719 424.65625 L 328.621094 424.835938 L 328.703125 425.003906 L 328.800781 425.148438 L 328.960938 425.25 L 328.898438 425.417969 L 329 425.546875 L 329.394531 425.832031 L 329.65625 426.171875 L 329.84375 426.351562 L 330.027344 426.414062 L 330.25 426.292969 L 330.191406 426.121094 L 329.882812 425.832031 L 329.808594 425.703125 L 329.777344 425.441406 L 329.734375 425.335938 L 329.671875 425.296875 L 329.511719 425.28125 L 329.441406 425.25 L 329.128906 424.964844 L 329.011719 424.8125 L 328.960938 424.65625 L 329.007812 423.988281 L 328.960938 423.761719 L 328.757812 423.457031 L 328.417969 423.304688 L 328.003906 423.273438 L 327.578125 423.335938 L 327.707031 423.582031 L 327.78125 423.664062 L 327.605469 423.699219 L 327.457031 423.769531 L 327.179688 423.972656 L 327.023438 423.808594 L 326.9375 423.648438 L 326.902344 423.503906 L 326.894531 423.394531 L 326.839844 423.261719 L 326.742188 423.121094 L 326.691406 422.949219 L 326.789062 422.710938 L 326.71875 422.589844 L 326.546875 422.140625 L 326.460938 421.796875 L 326.449219 421.671875 L 326.496094 421.539062 L 326.644531 421.375 L 326.726562 421.183594 L 326.644531 421.003906 L 326.316406 420.597656 L 326.238281 420.558594 L 326.183594 420.5 L 326.195312 420.363281 L 326.25 420.34375 L 326.355469 420.367188 L 326.449219 420.375 L 326.496094 420.3125 L 326.542969 420.265625 L 326.761719 420.085938 L 326.839844 420.046875 L 326.957031 420.023438 L 326.984375 419.972656 L 326.988281 419.890625 L 327.039062 419.78125 L 327.046875 419.660156 L 327.035156 419.183594 L 327.082031 418.988281 L 327.277344 418.84375 L 327.617188 418.714844 L 327.960938 418.644531 L 328.171875 418.664062 L 328.066406 418.777344 L 328.234375 419.007812 L 328.960938 419.621094 L 329.578125 419.847656 L 330.125 419.71875 L 330.601562 419.382812 L 332.332031 417.777344 L 332.664062 417.171875 L 332.871094 416.617188 L 333.203125 415.355469 L 333.257812 414.738281 L 333.191406 413.660156 L 333.109375 413.414062 L 332.9375 413.066406 L 333.015625 412.8125 L 333.355469 412.402344 L 333.421875 411.777344 L 332.871094 409.75 L 332.710938 408.09375 L 332.457031 407.417969 L 332.371094 407.082031 L 332.40625 406.40625 L 332.386719 406.078125 L 332.226562 405.765625 L 332.046875 405.546875 L 331.882812 405.285156 L 331.796875 405.078125 L 331.785156 404.9375 L 331.800781 404.816406 L 331.785156 404.652344 L 331.484375 403.570312 L 331.242188 403.054688 L 330.898438 402.523438 L 330.230469 401.734375 L 330.125 401.515625 L 330.09375 401.398438 L 329.441406 400.511719 L 328.757812 399.847656 L 328.652344 399.605469 L 328.5625 399.324219 L 328.34375 399.085938 L 327.871094 398.695312 L 327.3125 397.886719 L 326.90625 397.589844 L 326.765625 397.207031 L 326.59375 396.476562 L 326.414062 396.28125 L 325.832031 395.84375 L 325.707031 395.683594 L 325.628906 395.480469 L 324.855469 394.292969 L 324.785156 394.246094 L 324.636719 393.863281 L 324.582031 393.765625 L 324.398438 393.496094 L 324.09375 392.804688 L 323.949219 392.542969 L 322.953125 391.226562 L 322.160156 389.738281 L 322.085938 389.519531 L 321.964844 388.949219 L 321.792969 388.40625 L 320.949219 387.328125 L 320.566406 386.65625 L 320.621094 386.070312 L 320.269531 385.691406 L 319.46875 384.304688 L 319.339844 383.945312 L 319.078125 383.640625 L 318.160156 382.140625 L 318.09375 381.984375 L 318.050781 381.582031 L 317.929688 381.089844 L 317.871094 380.960938 L 317.835938 380.550781 L 317.085938 379.316406 L 316.890625 378.800781 L 316.839844 378.195312 L 316.503906 376.953125 L 315.609375 374.972656 L 315.515625 374.441406 L 315.484375 374.367188 L 315.417969 374.285156 L 315.351562 374.175781 L 315.320312 374.015625 L 315.308594 373.851562 L 314.933594 372.578125 L 315.019531 372.578125 L 314.949219 372.375 L 314.953125 371.960938 L 314.933594 371.742188 L 314.578125 370.847656 L 314.585938 370.683594 L 314.394531 370.535156 L 314.296875 370.199219 L 314.238281 369.613281 L 313.816406 368.507812 L 313.710938 368.335938 L 313.183594 366.800781 L 313.121094 366.703125 L 312.84375 366.414062 L 312.78125 366.261719 L 312.742188 366.191406 L 312.480469 365.890625 L 312.179688 364.957031 L 312.097656 364.816406 L 311.949219 364.667969 L 311.886719 364.535156 L 311.898438 364.179688 L 311.847656 364.03125 L 311.714844 363.796875 L 311.59375 363.441406 L 311.539062 363.078125 L 311.609375 362.824219 L 311.390625 362.472656 L 310.480469 361.703125 L 310.347656 361.511719 L 310.128906 360.914062 L 310.019531 360.699219 L 309.375 359.84375 L 308.410156 359.050781 L 308.257812 358.714844 L 308.113281 358.167969 L 308.035156 357.617188 L 308.078125 357.296875 L 308.019531 357.191406 L 307.894531 356.925781 L 307.875 356.808594 L 307.820312 356.730469 L 307.699219 356.699219 L 307.566406 356.691406 L 307.476562 356.660156 L 307.171875 356.003906 L 306.933594 355.824219 L 306.574219 355.457031 L 306.546875 355.371094 L 306.695312 355.269531 L 306.785156 355.042969 L 306.820312 354.796875 L 306.792969 354.640625 L 306.527344 354.832031 L 306.382812 355.070312 L 306.203125 355.222656 L 305.824219 355.171875 L 305.660156 355.070312 L 304.785156 354.382812 L 304.34375 353.890625 L 304.132812 353.582031 L 302.59375 352.097656 L 302.339844 351.996094 L 302.230469 351.898438 L 301.367188 350.773438 L 300.449219 349.75 L 298.554688 348.417969 L 298.171875 348.050781 L 297.441406 347.148438 L 296.417969 346.359375 L 296.21875 346.144531 L 295.777344 345.460938 L 295.3125 344.988281 L 295.234375 344.878906 L 295.222656 344.699219 L 295.316406 344.382812 L 295.332031 344.234375 L 295.152344 343.75 L 294.765625 343.234375 L 293.339844 341.859375 L 293.15625 341.582031 L 293.085938 341.210938 L 293.09375 340.40625 L 293.0625 340.28125 L 292.972656 340.089844 L 291.605469 337.964844 L 291.375 337.46875 L 291.203125 337.222656 L 290.964844 337.117188 L 290.84375 336.980469 L 290.425781 336.167969 L 289.839844 335.433594 L 289.75 335.265625 L 289.554688 334.039062 L 289.476562 333.890625 L 289.382812 333.777344 L 289.296875 333.652344 L 289.261719 333.457031 L 289.359375 332.824219 L 289.160156 331.824219 L 289.261719 331.597656 L 288.976562 331.027344 L 288.894531 330.726562 L 288.863281 330.378906 L 288.875 329.734375 L 288.792969 329.425781 L 288.570312 329.15625 L 288.46875 329.117188 L 288.207031 329.097656 L 288.082031 329.050781 L 288.050781 328.980469 L 287.953125 328.816406 L 287.847656 328.675781 L 287.796875 328.675781 L 287.757812 328.335938 L 287.65625 328.046875 L 287.199219 327.113281 L 287.125 326.851562 L 287.1875 326.429688 L 287.039062 326.125 L 286.835938 325.8125 L 286.714844 325.546875 L 286.683594 325.191406 L 286.722656 324.878906 L 286.839844 324.660156 L 287.050781 324.578125 L 287.199219 324.542969 L 287.34375 324.488281 L 287.453125 324.492188 L 287.496094 324.640625 L 287.496094 325.234375 L 287.59375 325.234375 L 287.648438 324.925781 L 287.929688 324.117188 L 287.941406 323.953125 L 287.847656 323.746094 L 287.558594 322.800781 L 287.367188 321.867188 L 287.039062 321.292969 L 286.5625 320.816406 L 286.023438 320.453125 L 285.171875 320.109375 L 285.046875 319.96875 L 284.9375 318.757812 L 284.992188 317.585938 L 284.707031 317.160156 L 284.65625 317.054688 L 284.714844 316.875 L 284.796875 316.867188 L 284.910156 316.910156 L 285.046875 316.84375 L 285.238281 316.351562 L 285.226562 315.6875 L 285.074219 315.019531 L 284.851562 314.507812 L 284.207031 313.464844 L 284.128906 312.957031 L 284.363281 312.382812 L 284.257812 312.382812 L 283.523438 311.527344 L 283.277344 311.113281 L 283.242188 310.929688 L 283.242188 310.800781 L 283.277344 310.582031 L 283.277344 309.359375 L 283.339844 309.039062 L 283.769531 308.238281 L 283.808594 307.980469 L 283.804688 307.628906 L 283.746094 307.316406 L 283.429688 307.007812 L 283.339844 306.617188 L 283.277344 305.910156 L 282.925781 304.96875 L 282.847656 304.242188 L 282.703125 303.664062 L 282.683594 303.355469 L 283.128906 302.195312 L 283.085938 302.015625 L 283.375 300.910156 L 283.429688 300.277344 L 283.285156 299.683594 L 283.089844 299.285156 L 282.792969 298.679688 L 282.613281 298.074219 L 282.566406 296.832031 L 282.390625 296.234375 L 281.574219 294.6875 L 281.230469 294.214844 L 280.523438 293.53125 L 280.324219 293.066406 L 279.835938 292.5 L 279.75 292.109375 L 279.800781 291.945312 L 280.003906 291.714844 L 280.050781 291.625 L 280.050781 290.988281 L 279.984375 290.695312 L 279.664062 290.113281 L 279.351562 289.328125 L 278.578125 287.839844 L 278.28125 286.765625 L 278 286.253906 L 277.902344 285.542969 L 277.792969 285.3125 L 277.863281 285 L 277.863281 284.480469 L 277.800781 283.949219 L 277.691406 283.609375 L 277.792969 283.394531 L 277.886719 282.96875 L 277.988281 282.761719 L 278.078125 282.71875 L 278.210938 282.695312 L 278.328125 282.640625 L 278.378906 282.492188 L 278.578125 282.117188 L 278.464844 281.929688 L 278.476562 281.058594 L 278.226562 280.316406 L 278.183594 280.046875 L 278.378906 277.8125 L 278.308594 277.257812 L 278.148438 276.832031 L 277.617188 275.425781 L 277.4375 274.726562 L 277.449219 274.578125 L 277.5625 274.4375 L 277.910156 273.808594 L 278.085938 273.636719 L 278.085938 273.960938 L 278.152344 274.101562 L 278.238281 274.023438 L 278.28125 273.683594 L 278.261719 273.082031 L 277.996094 271.28125 L 277.84375 270.730469 L 277.597656 270.328125 L 277.394531 269.894531 L 277.242188 269.394531 L 277.144531 268.855469 L 277.09375 267.839844 L 277.109375 267.691406 L 277.175781 267.542969 L 277.363281 267.246094 L 277.402344 267.101562 L 277.402344 266.460938 L 277.449219 266.429688 L 277.53125 266.429688 L 277.574219 266.488281 L 277.492188 266.625 L 277.558594 266.722656 L 277.636719 266.871094 L 277.691406 266.933594 L 277.605469 267.246094 L 277.582031 267.5625 L 277.6875 267.722656 L 277.988281 267.578125 L 277.96875 267.753906 L 277.792969 268.21875 L 278.007812 268.015625 L 278.332031 267.390625 L 278.527344 267.257812 L 278.691406 267.105469 L 278.796875 266.746094 L 278.867188 266.035156 L 278.769531 263.328125 L 278.5 261.289062 L 278.164062 260.738281 L 278.007812 260.046875 L 277.492188 258.980469 L 277.214844 258.0625 L 276.753906 257.082031 L 276.667969 256.957031 L 275.734375 255.902344 L 275.433594 255.394531 L 275.421875 255.019531 L 275.394531 254.882812 L 273.1875 251.96875 L 272.113281 250.953125 L 272.003906 250.703125 L 270.824219 249.585938 L 270.546875 249.449219 L 270.542969 249.289062 L 270.605469 249.125 L 270.640625 249.054688 L 270.730469 248.664062 L 270.738281 248.566406 L 270.691406 248.367188 L 270.628906 248.226562 L 269.480469 246.480469 L 269.265625 245.484375 L 268.820312 244.378906 L 267.355469 242.421875 L 266.464844 240.90625 L 265.910156 240.210938 L 265.546875 239.753906 L 264.269531 237.425781 L 263.675781 236.605469 L 263.492188 236.035156 L 263.289062 235.816406 L 262.902344 235.503906 L 262.613281 234.96875 L 262.464844 234.453125 L 262.3125 233.175781 L 261.925781 231.796875 L 260.683594 229.328125 L 260.34375 227.964844 L 260.265625 227.304688 L 259.972656 226.046875 L 259.46875 224.742188 L 259.136719 224.199219 L 258.5625 224.019531 L 257.941406 223.578125 L 257.460938 222.730469 L 257.003906 220.808594 L 255.894531 218.628906 L 255.761719 218.175781 L 255.152344 217.347656 L 254.101562 215.375 L 253.980469 215.019531 L 253.824219 214.789062 L 253.460938 214.015625 L 253.34375 213.847656 L 252.703125 212.679688 L 252.511719 212.1875 L 252.4375 211.890625 L 252.347656 211.183594 L 252.183594 210.847656 L 251.726562 210.230469 L 251.433594 209.6875 L 250.742188 207.902344 L 250.445312 207.421875 L 250.011719 206.898438 L 249.496094 206.484375 L 249.355469 206.277344 L 249.1875 205.160156 L 249.0625 204.835938 L 246.730469 201.632812 L 245.125 200.550781 L 244.425781 199.726562 L 244.339844 199.644531 L 244.085938 199.28125 L 243.9375 199.199219 L 243.800781 199.101562 L 243.082031 198.652344 L 242.855469 197.839844 L 242.804688 197.554688 L 242.628906 197.089844 L 242.628906 177.761719 L 243.039062 177.636719 L 243.703125 177.542969 L 243.804688 177.515625 L 243.886719 177.484375 L 243.988281 177.492188 L 244.136719 177.589844 L 244.628906 177.742188 L 244.789062 177.707031 L 244.867188 177.636719 L 244.9375 177.59375 L 245.070312 177.636719 L 245.160156 177.726562 L 245.195312 177.832031 L 245.21875 177.949219 L 245.273438 178.070312 L 245.355469 178.15625 L 245.496094 178.257812 L 245.65625 178.351562 L 245.804688 178.390625 L 245.941406 178.457031 L 246.011719 178.601562 L 246.050781 178.746094 L 246.097656 178.8125 L 247.128906 178.707031 L 248.054688 178.742188 L 248.261719 178.652344 L 248.457031 178.488281 L 248.605469 178.480469 L 248.945312 178.6875 L 249.210938 178.785156 L 250.050781 178.855469 L 250.558594 178.976562 L 250.738281 178.960938 L 251.085938 178.773438 L 251.726562 178.195312 L 252.074219 178.070312 L 252.4375 178.015625 L 252.707031 177.871094 L 253.207031 177.425781 L 253.84375 177.109375 L 254.328125 176.953125 L 254.425781 176.820312 L 254.539062 176.59375 L 254.671875 176.472656 L 254.78125 176.425781 L 255.035156 176.34375 L 255.160156 176.253906 L 255.21875 176.113281 L 255.246094 175.9375 L 255.3125 175.789062 L 255.65625 175.691406 L 255.933594 175.546875 L 256.378906 175.441406 L 257.132812 174.984375 L 258.667969 174.703125 L 258.992188 174.589844 L 259.304688 174.570312 L 259.570312 174.773438 L 259.761719 174.667969 L 259.867188 174.753906 L 259.960938 174.90625 L 260.113281 174.984375 L 260.433594 175.039062 L 260.605469 175.042969 L 260.753906 174.984375 L 260.753906 175.101562 L 261.117188 174.921875 L 261.335938 174.863281 L 261.433594 174.929688 L 261.523438 174.9375 L 261.875 174.84375 L 262.128906 174.773438 L 262.390625 174.867188 L 262.894531 175.230469 L 263.148438 175.3125 L 263.488281 175.355469 L 263.789062 175.484375 L 264 175.699219 L 264.1875 176.3125 L 264.394531 176.519531 L 264.519531 176.773438 L 264.382812 177.214844 L 265.601562 177.921875 L 266.851562 178.992188 L 268.230469 179.789062 L 269.574219 180.570312 L 269.753906 180.734375 L 270.410156 181.652344 L 270.617188 181.820312 L 270.949219 181.890625 L 271.125 181.855469 L 271.355469 181.703125 L 271.484375 181.667969 L 271.644531 181.6875 L 271.90625 181.773438 L 272.214844 181.8125 L 272.449219 181.890625 L 272.617188 181.890625 L 272.773438 181.84375 L 273 181.703125 L 273.097656 181.667969 L 273.730469 181.777344 L 274.046875 181.726562 L 274.179688 181.417969 L 274.195312 181.339844 L 275.335938 181.339844 L 279.003906 181.34375 L 290.011719 181.34375 L 293.523438 181.347656 L 304.6875 181.347656 L 308.355469 181.351562 L 318.117188 181.351562 L 319.363281 181.355469 L 330.367188 181.355469 L 334.035156 181.359375 L 334.800781 181.359375 L 334.914062 181.367188 L 334.933594 181.460938 L 334.984375 181.605469 L 335.078125 181.667969 L 335.171875 181.746094 L 335.40625 182.332031 L 335.429688 182.492188 L 335.472656 182.523438 L 335.8125 182.628906 L 336.304688 183.621094 L 336.351562 183.792969 L 336.542969 183.898438 L 337.289062 184.542969 L 337.332031 184.65625 L 337.40625 184.929688 L 337.484375 185.070312 L 337.617188 185.214844 L 337.882812 185.347656 L 338.019531 185.445312 L 338.839844 186.34375 L 339.125 186.734375 L 339.324219 186.910156 L 339.878906 187.050781 L 341.152344 187.710938 L 343.019531 188.066406 L 344.230469 188.003906 L 344.71875 187.804688 L 345.027344 187.738281 L 345.1875 187.742188 L 345.613281 187.832031 L 346.253906 187.785156 L 346.480469 187.9375 L 348.75 188.644531 L 351.203125 188.609375 L 352.019531 188.417969 L 352.34375 188.382812 L 352.640625 188.460938 L 352.765625 188.742188 L 352.898438 188.851562 L 353.195312 188.992188 L 353.527344 189.101562 L 353.75 189.121094 L 353.824219 189.039062 L 353.988281 188.753906 L 354.078125 188.6875 L 356.339844 188.6875 L 356.875 189.003906 L 357.378906 189.1875 L 357.515625 189.207031 L 358.347656 189.121094 L 358.742188 189.128906 L 358.925781 189.097656 L 359.128906 189.003906 L 359.238281 189.121094 L 359.445312 188.933594 L 359.789062 188.839844 L 360.171875 188.859375 L 360.507812 189.003906 L 361.003906 188.574219 L 361.15625 188.675781 L 361.355469 188.664062 L 361.832031 188.574219 L 362 188.636719 L 362.558594 189.121094 L 362.925781 189.027344 L 363.28125 189.1875 L 363.605469 189.484375 L 363.882812 189.804688 L 364.027344 189.925781 L 364.519531 190.179688 L 364.933594 190.496094 L 365.113281 190.59375 L 365.472656 190.492188 L 366.035156 190.464844 L 366.554688 190.515625 L 366.78125 190.644531 L 366.886719 190.773438 L 367.125 190.878906 L 367.359375 190.921875 L 367.464844 190.859375 L 367.570312 190.71875 L 367.8125 190.789062 L 368.246094 191.015625 L 368.554688 191.308594 L 368.921875 191.277344 L 369.347656 191.113281 L 369.816406 191.015625 L 370.015625 190.605469 L 371.132812 190.289062 L 371.335938 190.234375 L 372.65625 189.863281 L 372.890625 189.96875 L 373.128906 189.910156 L 373.371094 189.792969 L 373.632812 189.746094 L 373.839844 189.785156 L 374.421875 189.746094 L 374.652344 189.804688 L 375.304688 190.179688 L 376.117188 190.480469 L 376.542969 190.699219 L 376.777344 191.015625 L 376.859375 191.046875 L 377.125 190.964844 L 378.15625 190.761719 L 381.742188 190.042969 L 385.332031 189.332031 L 388.921875 188.613281 L 392.511719 187.898438 L 395.429688 187.300781 L 398.351562 186.699219 L 404.1875 185.503906 L 405.382812 185.261719 L 405.964844 185.140625 L 406.464844 185.039062 L 406.734375 185.03125 L 407.160156 184.941406 L 407.773438 184.808594 L 408.386719 184.679688 L 409 184.546875 L 409.609375 184.417969 L 410.222656 184.285156 L 410.832031 184.15625 L 411.445312 184.023438 L 412.058594 183.894531 L 412.671875 183.761719 L 413.285156 183.632812 L 413.894531 183.5 L 414.507812 183.371094 L 415.121094 183.238281 L 415.730469 183.109375 L 416.34375 182.976562 L 416.957031 182.847656 L 417.378906 182.757812 L 417.640625 182.734375 L 417.90625 182.777344 L 418.664062 182.804688 L 418.820312 182.898438 L 418.9375 182.84375 L 419.535156 182.667969 L 419.785156 182.628906 L 420.046875 182.679688 L 420.648438 182.90625 L 421.078125 182.988281 L 421.347656 183.128906 L 421.710938 183.195312 L 421.828125 183.28125 L 421.917969 183.390625 L 422.039062 183.484375 L 422.269531 183.574219 L 422.394531 183.59375 L 422.53125 183.582031 L 422.679688 183.515625 L 422.898438 183.308594 L 423.054688 183.214844 L 423.132812 183.109375 L 423.230469 183.003906 L 423.371094 182.957031 L 424.011719 182.957031 L 425.234375 183.160156 L 425.308594 183.191406 L 425.378906 183.265625 L 425.476562 183.335938 L 425.628906 183.371094 L 426.085938 183.347656 L 427.070312 183.554688 L 427.453125 183.738281 L 427.632812 184.015625 L 427.925781 183.875 L 428.113281 184.015625 L 428.277344 184.261719 L 428.503906 184.4375 L 428.640625 184.445312 L 428.90625 184.355469 L 429.054688 184.332031 L 429.105469 184.382812 L 429.007812 184.648438 L 429.007812 184.753906 L 429.097656 184.875 L 429.171875 184.933594 L 429.277344 184.957031 L 429.445312 184.957031 L 429.484375 185.015625 L 429.742188 185.257812 L 429.792969 185.285156 L 429.910156 185.742188 L 429.9375 185.8125 L 430.070312 185.84375 L 430.171875 185.929688 L 430.242188 186.035156 L 430.277344 186.140625 L 430.40625 185.964844 L 430.507812 185.957031 L 430.71875 186.1875 L 430.761719 186.277344 L 430.746094 186.472656 L 430.769531 186.5625 L 430.832031 186.628906 L 430.992188 186.714844 L 431.066406 186.773438 L 431.253906 187.03125 L 431.359375 187.078125 L 431.601562 187.089844 L 431.796875 187.140625 L 431.992188 187.261719 L 432.148438 187.4375 L 432.238281 187.632812 L 432.339844 187.738281 L 432.605469 187.867188 L 433.042969 188.21875 L 433.324219 188.359375 L 433.460938 188.382812 L 433.910156 188.359375 L 434.382812 188.542969 L 434.535156 188.574219 L 435.613281 188.574219 L 435.6875 188.589844 L 435.820312 188.671875 L 435.910156 188.6875 L 435.992188 188.65625 L 436.117188 188.511719 L 436.203125 188.476562 L 437.164062 188.28125 L 437.921875 187.9375 L 438.269531 187.898438 L 438.453125 188.023438 L 438.625 188.183594 L 439.160156 188.332031 L 439.476562 188.496094 L 439.765625 188.6875 L 439.890625 188.847656 L 440.027344 189.089844 L 440.675781 189.375 L 440.875 189.640625 L 440.644531 189.726562 L 440.625 189.949219 L 440.730469 190.203125 L 440.875 190.378906 L 441.746094 190.804688 L 442.351562 190.828125 L 442.519531 190.804688 L 443.308594 190.378906 L 443.40625 190.488281 L 443.492188 190.300781 L 443.71875 190.246094 L 443.984375 190.238281 L 444.1875 190.179688 L 444.199219 190.117188 L 444.171875 189.921875 L 444.1875 189.863281 L 444.273438 189.828125 L 444.519531 189.761719 L 444.761719 189.621094 L 445.09375 189.554688 L 445.21875 189.480469 L 445.726562 189.074219 L 445.855469 189.003906 L 445.988281 189.058594 L 446.089844 189.1875 L 446.171875 189.332031 L 446.246094 189.429688 L 446.375 189.480469 L 447.035156 189.558594 L 447.167969 189.625 L 447.285156 189.710938 L 447.375 189.804688 L 447.480469 189.828125 L 448.011719 189.746094 L 448.667969 189.875 L 449.765625 190.5 L 450.363281 190.699219 L 450.742188 190.765625 L 450.980469 190.867188 L 451.167969 191.027344 L 451.390625 191.285156 L 451.585938 191.460938 L 451.816406 191.582031 L 452.628906 191.855469 L 452.835938 191.894531 L 453.003906 191.839844 L 453.414062 191.449219 L 453.601562 191.332031 L 453.832031 191.269531 L 454.179688 191.226562 L 455.527344 190.582031 L 455.867188 190.699219 L 456.390625 190.339844 L 456.539062 190.273438 L 457.214844 190.242188 L 457.429688 190.179688 L 457.816406 189.957031 L 458.242188 189.535156 L 458.777344 188.996094 L 459.253906 188.378906 L 459.21875 188.015625 L 459.203125 187.632812 L 459.226562 187.472656 L 459.371094 187.246094 L 463.160156 183.148438 L 464.621094 181.757812 L 465.378906 180.953125 L 465.769531 180.171875 L 466.058594 178.941406 L 466.292969 178.402344 L 468.238281 175.34375 L 468.804688 174.703125 L 469.546875 174.238281 L 471.753906 173.242188 L 473.054688 172.65625 L 474.464844 171.429688 L 475.429688 170.78125 L 480.625 168.644531 L 481.300781 168.515625 L 481.703125 168.515625 L 481.90625 168.480469 L 482.027344 168.363281 L 482.308594 168.078125 L 482.425781 167.816406 L 482.992188 167.367188 L 483.1875 167.125 L 483.28125 166.566406 L 483.335938 166.441406 L 483.683594 165.847656 L 483.679688 165.496094 L 483.445312 164.847656 L 483.390625 164.578125 L 483.441406 164.246094 L 483.78125 163.414062 L 483.539062 162.972656 L 483.613281 162.355469 L 483.800781 161.710938 L 483.878906 161.183594 L 483.84375 161.105469 L 483.777344 161.019531 L 483.710938 160.910156 L 483.683594 160.769531 L 483.726562 160.597656 L 483.925781 160.28125 L 483.96875 160.171875 L 484.277344 159.761719 L 484.757812 159.269531 L 484.964844 159.167969 L 485.027344 159.140625 L 485.335938 159.078125 L 485.984375 159.066406 L 486.328125 159 L 486.511719 158.816406 L 486.816406 158.210938 L 486.957031 158.042969 L 487.1875 157.832031 L 487.464844 157.652344 L 487.753906 157.578125 L 487.882812 157.488281 L 488.390625 156.933594 L 491.542969 155.40625 L 491.761719 155.355469 L 492.996094 155.238281 L 493.25 155.074219 L 493.78125 154.597656 L 494.121094 154.5 L 494.425781 154.539062 L 494.703125 154.621094 L 494.996094 154.667969 L 495.34375 154.617188 L 496.164062 154.328125 L 496.78125 154.222656 L 497.367188 153.941406 L 497.699219 153.863281 L 498.332031 153.925781 L 499.558594 154.277344 L 500.175781 154.351562 L 500.742188 154.257812 L 501.3125 154.089844 L 501.886719 154 L 502.453125 154.132812 L 502.820312 154.394531 L 502.988281 154.457031 L 503.214844 154.40625 L 503.328125 154.328125 L 503.542969 154.132812 L 503.667969 154.082031 L 504.03125 154.136719 L 504.261719 154.238281 L 504.714844 154.445312 L 505.125 154.433594 L 505.691406 154.191406 L 505.890625 154.105469 L 505.925781 154.066406 L 505.761719 153.609375 L 505.6875 153.488281 L 505.277344 153.035156 L 505.246094 152.820312 L 505.339844 152.480469 L 505.605469 151.941406 L 505.640625 151.789062 L 505.597656 151.636719 L 505.386719 151.332031 L 505.339844 151.152344 L 505.304688 150.144531 L 505.242188 149.824219 L 505.140625 149.539062 L 504.992188 149.261719 L 504.8125 149.058594 L 504.609375 148.976562 L 504.140625 148.660156 L 503.789062 147.921875 L 503.253906 145.984375 L 503.183594 145.3125 L 503.183594 144.621094 L 503.082031 144.160156 L 503.089844 144.058594 L 503.089844 144.050781 L 503.324219 143.984375 L 504.578125 143.828125 L 505.636719 143.269531 L 506.96875 142.570312 L 508.488281 141.984375 L 509.703125 141.511719 L 511.691406 140.746094 L 513.109375 140.402344 L 515.132812 139.914062 L 515.390625 139.890625 L 516.871094 139.511719 L 518.710938 139.042969 L 520.199219 138.660156 L 521.425781 138.179688 L 522.757812 137.441406 L 523.738281 136.894531 L 525.785156 136.183594 L 527.664062 135.523438 L 529.101562 135.023438 L 530.179688 134.496094 L 530.726562 134.320312 L 531.875 134.097656 L 533.207031 133.617188 L 534.707031 133.074219 L 536.871094 132.292969 L 539.277344 131.421875 L 541.738281 130.535156 L 543.539062 129.882812 L 544.785156 129.433594 L 545.824219 129.058594 L 546.609375 129.519531 L 546.929688 129.785156 L 547.089844 130.226562 L 547.015625 130.996094 L 547.078125 131.273438 L 547.4375 131.898438 L 547.554688 132.039062 L 547.761719 132.179688 L 547.886719 132.234375 L 547.992188 132.335938 L 548.03125 132.417969 L 548.230469 132.820312 L 548.480469 133.191406 L 549.203125 134.742188 L 549.464844 135.109375 L 549.648438 135.265625 L 550.25 135.550781 L 550.441406 135.726562 L 550.535156 135.914062 L 550.609375 136.105469 L 550.730469 136.304688 L 550.894531 136.441406 L 551.277344 136.632812 L 551.441406 136.769531 L 551.5625 136.964844 L 551.765625 137.550781 L 551.855469 137.800781 L 551.976562 138.007812 L 552.144531 138.167969 L 552.394531 138.25 L 552.535156 138.144531 L 552.582031 137.867188 L 552.582031 137.332031 L 552.707031 136.882812 L 552.921875 136.53125 L 553.226562 136.429688 L 553.996094 137.054688 L 554.398438 137.097656 L 554.804688 136.941406 L 555.636719 136.40625 L 556.027344 136.300781 L 556.445312 136.304688 L 557.949219 136.515625 L 558.0625 136.4375 L 558.226562 136.046875 L 558.332031 135.886719 L 558.789062 135.683594 L 559.832031 135.652344 L 561.246094 135.117188 L 561.355469 135.105469 L 561.582031 135.132812 L 561.699219 135.105469 L 561.808594 135.03125 L 561.910156 134.941406 L 562.019531 134.867188 L 562.144531 134.847656 L 562.542969 135.070312 L 562.664062 135.253906 L 562.855469 135.542969 L 563.320312 136.554688 L 563.65625 136.984375 L 564.398438 137.765625 L 564.632812 138.253906 L 564.652344 138.773438 L 564.457031 139.695312 L 564.59375 140.226562 L 564.832031 140.726562 L 564.984375 141.179688 L 565.066406 141.667969 L 565.070312 142.8125 L 565.105469 143.074219 L 565.1875 143.382812 L 565.316406 143.628906 L 565.472656 143.863281 L 565.578125 144.097656 L 565.550781 144.359375 L 565.445312 144.585938 L 565.15625 145.011719 L 565.070312 145.230469 L 565.101562 145.449219 L 565.191406 145.644531 L 565.230469 145.820312 L 565.097656 145.988281 L 565.0625 146.253906 L 565.21875 147.441406 L 565.363281 148.539062 L 565.304688 148.945312 L 565.042969 149.347656 L 564.851562 149.5 L 564.664062 149.601562 L 564.488281 149.730469 L 564.324219 149.957031 L 564.257812 150.152344 L 564.1875 150.542969 L 564.09375 150.734375 L 563.804688 150.921875 L 563.523438 151.394531 L 563.265625 151.535156 L 563.089844 151.796875 L 563.085938 152.316406 L 563.21875 153.253906 L 563.171875 153.867188 L 563 154.359375 L 562.117188 155.652344 L 562.113281 155.664062 L 561.957031 155.757812 L 561.660156 155.855469 L 561.417969 155.976562 L 561.164062 156.179688 L 560.757812 156.644531 L 560.605469 157.03125 L 560.53125 157.574219 L 560.558594 158.125 L 560.714844 158.554688 L 560.890625 158.71875 L 561.367188 158.957031 L 561.574219 159.089844 L 562.769531 160.40625 L 563.007812 160.757812 L 563.070312 161.195312 L 562.789062 162.195312 L 562.730469 162.722656 L 563.320312 164.078125 L 563.601562 164.375 L 564.09375 164.394531 L 564.726562 164.492188 L 565.046875 164.839844 L 565.445312 165.910156 L 565.601562 166.152344 L 565.78125 166.335938 L 566.242188 166.703125 L 566.339844 166.8125 L 566.414062 166.957031 L 566.589844 167.414062 L 566.679688 167.484375 L 566.785156 167.527344 L 567.691406 168.03125 L 567.875 168.246094 L 568.132812 168.761719 L 568.277344 168.96875 L 568.941406 169.558594 L 569.058594 169.773438 L 569.160156 170.105469 L 569.300781 170.34375 L 569.519531 170.480469 L 569.773438 170.59375 L 569.902344 170.691406 L 570 170.765625 L 570.0625 170.894531 L 570.105469 171.195312 L 570.171875 171.3125 L 570.269531 171.367188 L 570.488281 171.410156 L 570.585938 171.449219 L 570.78125 171.597656 L 570.902344 171.738281 L 571.167969 172.105469 L 571.589844 172.453125 L 571.996094 172.523438 L 572.421875 172.480469 L 572.894531 172.496094 L 573.214844 172.746094 L 573.347656 173.226562 L 573.355469 173.789062 L 573.3125 174.285156 L 573.144531 174.710938 L 572.832031 174.945312 L 572.46875 175.128906 L 572.160156 175.398438 L 572.046875 175.882812 L 572.511719 176.628906 L 572.46875 177.027344 L 572.6875 177.25 L 573.4375 177.371094 L 574.878906 177.421875 L 575.695312 177.332031 L 575.699219 177.332031 L 575.804688 177.15625 L 575.882812 176.941406 L 575.921875 176.683594 L 575.902344 176.371094 L 575.777344 175.789062 L 575.792969 175.539062 L 575.945312 175.253906 L 576.019531 175.050781 L 575.933594 174.917969 L 575.46875 174.632812 L 575.402344 174.558594 L 575.398438 174.460938 L 575.46875 174.382812 L 575.554688 174.316406 L 575.601562 174.242188 L 575.566406 173.65625 L 575.601562 173.328125 L 575.960938 173.011719 L 575.886719 172.625 L 575.601562 172.023438 L 575.542969 171.714844 L 575.5 170.691406 L 575.457031 170.609375 L 575.113281 170.214844 L 575.074219 170.1875 L 574.953125 170.128906 L 574.90625 170.097656 L 574.851562 170.015625 L 574.777344 169.855469 L 574.710938 169.78125 L 574.621094 169.730469 L 574.308594 169.601562 L 574.175781 169.578125 L 574.015625 169.523438 L 573.933594 169.394531 L 573.875 169.234375 L 573.644531 168.851562 L 573.410156 168.164062 L 573.59375 168.03125 L 574.589844 167.335938 L 574.785156 167.117188 L 574.863281 166.84375 L 574.859375 166.226562 L 574.917969 166.015625 L 574.9375 165.9375 L 575.273438 165.511719 L 575.328125 165.355469 L 575.160156 164.921875 L 575.125 164.757812 L 575.222656 164.039062 L 575.488281 163.457031 L 575.800781 163.066406 L 575.882812 162.964844 L 576.878906 162.015625 L 577.148438 161.824219 L 577.472656 161.738281 L 577.753906 161.753906 L 578.050781 161.835938 L 578.285156 162.003906 L 578.390625 162.261719 L 578.511719 162.382812 L 578.703125 162.480469 L 578.882812 162.488281 L 578.972656 162.34375 L 579.015625 162.105469 L 579.089844 162.011719 L 579.433594 161.976562 L 580.796875 161.546875 L 580.945312 161.539062 L 581.214844 161.589844 L 581.347656 161.578125 L 581.5 161.496094 L 582.535156 160.742188 L 582.75 160.488281 L 582.886719 160.152344 L 582.902344 159.910156 L 582.820312 159.4375 L 582.816406 159.191406 L 582.914062 158.796875 L 583.058594 158.21875 L 583.203125 155.988281 L 583.292969 154.617188 L 583.421875 152.679688 L 583.5 151.453125 L 583.5 151.4375 L 583.542969 150.800781 L 583.136719 149.0625 L 582.800781 147.613281 L 582.742188 147.363281 L 582.738281 147 L 582.832031 146.613281 L 583.523438 144.902344 L 583.917969 143.921875 L 584.453125 142.585938 L 584.148438 142.59375 L 583.960938 142.566406 L 583.867188 142.425781 L 583.722656 139.1875 L 583.640625 138.921875 L 583.472656 138.695312 L 582.777344 137.953125 L 582.257812 137.257812 L 581.738281 136.570312 L 580.238281 134.566406 L 579 132.914062 L 578.039062 130.964844 L 576.816406 129.421875 L 575.507812 127.773438 L 573.96875 125.832031 L 572.726562 124.261719 L 571.472656 123.046875 L 570.015625 121.632812 L 569.578125 121.347656 L 569.566406 121.339844 L 569.085938 121.15625 L 568.597656 121.078125 L 566.769531 121.109375 L 566.539062 121.0625 L 566.382812 120.976562 L 566.339844 120.914062 L 566.324219 120.820312 L 566.257812 120.648438 L 565.96875 120.101562 L 565.800781 119.859375 L 565.558594 119.601562 L 565.507812 119.554688 L 565.492188 119.523438 L 565.019531 118.398438 L 564.984375 117.125 L 565.078125 115.816406 L 564.914062 114.269531 L 564.714844 112.414062 L 564.480469 110.242188 L 564.292969 108.503906 L 563.503906 105.527344 L 562.664062 102.367188 L 562.308594 101.03125 L 562.285156 100.945312 L 562.355469 100.246094 L 562.660156 99.464844 L 564.195312 96.988281 L 565.285156 95.234375 L 565.867188 93.710938 L 565.976562 93.101562 L 566.003906 92.472656 L 565.90625 91.800781 L 565.90625 91.519531 L 566.042969 91.320312 L 566.535156 91.191406 L 571.015625 91.246094 L 576.980469 91.3125 L 577.578125 91.292969 L 577.605469 91.378906 L 577.699219 91.476562 L 577.832031 91.523438 L 578.183594 91.542969 L 578.246094 91.535156 L 578.4375 91.453125 L 578.441406 91.441406 L 578.53125 91.410156 L 578.589844 91.375 L 578.65625 91.382812 L 578.78125 91.488281 L 578.859375 91.605469 L 578.894531 91.710938 L 578.960938 91.796875 L 579.125 91.855469 L 579.140625 91.589844 L 579.296875 91.574219 L 579.527344 91.671875 L 579.765625 91.738281 L 580.097656 91.535156 L 580.117188 91.539062 L 580.886719 91.320312 L 581.03125 91.222656 L 581.132812 90.90625 L 581.25 90.691406 L 581.410156 90.484375 L 581.582031 90.363281 L 581.472656 90.023438 L 581.734375 89.859375 L 582.453125 89.71875 L 582.703125 89.507812 L 583.152344 88.90625 L 583.339844 88.765625 L 583.925781 88.882812 L 584.332031 89.066406 L 584.421875 89.09375 L 584.960938 89.085938 L 585.152344 89.1875 L 585.398438 89.507812 L 585.261719 89.851562 L 585.390625 90.144531 L 585.660156 90.296875 L 585.9375 90.210938 L 586.140625 90.195312 L 586.441406 90.339844 L 586.960938 90.679688 L 587.101562 90.742188 L 587.417969 90.828125 L 587.554688 90.890625 L 587.675781 90.992188 L 587.769531 91.097656 L 587.867188 91.175781 L 587.996094 91.210938 L 588.226562 91.328125 L 588.304688 91.617188 L 588.339844 91.96875 L 588.433594 92.277344 L 588.34375 92.507812 L 588.386719 92.828125 L 588.515625 93.109375 L 588.679688 93.230469 L 589.269531 93.121094 L 589.441406 93.15625 L 589.660156 93.300781 L 589.808594 93.34375 L 590.019531 93.320312 L 590.539062 93.160156 L 590.988281 93.089844 L 591.085938 93.015625 L 591.160156 92.945312 L 591.230469 92.910156 L 592.898438 92.910156 L 593.011719 92.996094 L 593.097656 93.359375 L 593.1875 93.441406 L 593.269531 93.472656 L 593.625 93.664062 L 593.875 93.691406 L 594.769531 93.539062 L 594.984375 93.460938 L 595.363281 93.414062 L 595.46875 93.34375 L 595.546875 93.246094 L 595.683594 93.121094 L 596.214844 92.910156 L 596.378906 92.816406 L 596.503906 92.6875 L 596.902344 92.0625 L 597.550781 91.246094 L 597.792969 91.160156 L 597.929688 91.234375 L 598.210938 91.257812 L 598.566406 91.503906 L 598.777344 91.546875 L 600.101562 91.417969 L 600.234375 91.355469 L 600.363281 91.253906 L 600.585938 91.113281 L 600.757812 91.589844 L 601.144531 92.109375 L 601.644531 92.558594 L 602.148438 92.816406 L 603.363281 93.109375 L 603.988281 93.183594 L 604.5 93.121094 L 604.640625 93.054688 L 604.75 92.980469 L 604.863281 92.921875 L 604.996094 92.910156 L 605.160156 92.996094 L 605.417969 93.28125 L 605.53125 93.34375 L 606.242188 93.558594 L 606.566406 93.558594 L 606.839844 93.507812 L 606.933594 93.453125 L 607.054688 93.34375 L 607.136719 93.191406 L 607.214844 92.976562 L 607.328125 92.785156 L 607.5 92.699219 L 607.796875 92.632812 L 608.316406 92.339844 L 608.625 92.277344 L 609.078125 92.273438 L 609.386719 92.214844 L 609.652344 92.054688 L 610.289062 91.507812 L 611.328125 91.019531 L 611.625 90.796875 L 611.804688 90.628906 L 611.921875 90.421875 L 611.894531 90.230469 L 611.808594 90.039062 L 611.753906 89.832031 L 611.828125 89.484375 L 612.171875 88.835938 L 612.148438 88.554688 L 612.285156 88.367188 L 612.503906 87.667969 L 612.542969 87.441406 L 612.640625 87.304688 L 613.539062 86.761719 L 613.773438 86.699219 L 614.355469 86.660156 L 614.484375 86.625 L 614.617188 86.472656 L 615.433594 86.324219 L 615.757812 86.332031 L 615.871094 86.335938 L 615.871094 86.308594 L 615.914062 86.265625 L 615.988281 86.230469 L 616.074219 86.226562 L 616.097656 86.265625 L 616.175781 86.410156 L 616.21875 86.4375 L 616.359375 86.488281 L 616.640625 86.707031 L 616.808594 86.757812 L 616.972656 86.726562 L 617.289062 86.585938 L 617.433594 86.542969 L 618.09375 86.65625 L 618.605469 87.035156 L 619.394531 87.917969 L 619.902344 88.195312 L 621.035156 88.5 L 621.453125 88.761719 L 621.460938 88.765625 L 621.816406 88.296875 L 623.226562 87.277344 L 623.550781 86.84375 L 623.777344 86.632812 L 624.203125 86.511719 L 624.492188 86.367188 L 624.648438 86.335938 L 624.820312 86.355469 L 625.128906 86.433594 L 625.285156 86.4375 L 625.546875 86.292969 L 626.117188 85.710938 L 626.308594 85.582031 L 626.605469 85.503906 L 626.855469 85.316406 L 627.238281 84.957031 L 627.722656 84.839844 L 629.59375 84.84375 L 630.085938 84.738281 L 630.527344 84.523438 L 630.863281 84.597656 L 631.445312 84.9375 L 631.75 85.054688 L 632.128906 85.058594 L 632.488281 84.945312 L 632.820312 84.75 L 635.625 82.347656 L 635.851562 82.214844 L 636.097656 82.128906 L 637.199219 82.042969 L 639.597656 81.480469 L 639.960938 81.316406 L 641.390625 80.261719 L 642.867188 79.585938 L 643.140625 79.433594 L 644.925781 77.9375 L 645.324219 77.78125 L 645.492188 77.605469 L 645.761719 77.230469 L 646.609375 76.332031 L 647.148438 75.898438 L 648.074219 75.554688 L 648.589844 75.160156 L 649.042969 74.671875 L 649.269531 74.222656 L 649.515625 74.132812 L 649.734375 74.1875 L 649.820312 74.34375 L 649.667969 74.550781 L 649.941406 74.613281 L 650.171875 74.40625 L 650.171875 75.375 L 650.160156 75.394531 L 650.171875 75.425781 L 650.171875 78.5 L 649.964844 78.675781 L 650.0625 79.214844 L 650.171875 79.132812 L 650.171875 81.535156 L 650.117188 81.675781 L 650.171875 81.886719 L 650.171875 82.679688 L 650.148438 82.785156 L 650.171875 82.8125 L 650.171875 84.496094 L 650.160156 84.523438 L 650.148438 84.722656 L 650.171875 84.808594 L 650.171875 85.40625 L 650.089844 85.535156 L 649.136719 86.277344 L 649.03125 86.480469 L 648.820312 87.019531 L 648.703125 87.175781 L 648.519531 87.246094 L 648.179688 87.246094 L 648.011719 87.273438 L 648.15625 87.507812 L 648.28125 87.804688 L 648.390625 87.917969 L 648.5 87.601562 L 648.714844 87.734375 L 648.941406 87.960938 L 649.136719 88.214844 L 649.269531 88.4375 L 649.683594 88.328125 L 649.761719 88.816406 L 649.671875 89.339844 L 649.570312 89.9375 L 649.421875 90.417969 L 649.308594 90.632812 L 649.136719 90.839844 L 649.078125 91.085938 L 649.242188 91.328125 L 649.464844 91.546875 L 649.570312 91.734375 L 649.484375 91.910156 L 649.164062 92.300781 L 649.136719 92.433594 L 649.289062 92.660156 L 649.335938 92.839844 L 649.375 93.34375 L 649.441406 93.648438 L 649.707031 93.917969 L 649.753906 94 L 649.773438 94.097656 L 649.796875 94.851562 L 649.878906 95.117188 L 650.0625 95.359375 L 650.171875 95.292969 L 650.171875 95.671875 L 650.074219 95.78125 L 649.976562 96.230469 L 650.074219 96.695312 L 650.171875 96.929688 L 650.171875 99.699219 L 650.160156 99.816406 L 650.171875 99.882812 L 650.171875 101.664062 L 650.0625 101.730469 L 649.855469 101.664062 L 649.652344 101.574219 L 649.507812 101.613281 L 649.472656 101.941406 L 649.828125 101.855469 L 650.140625 102.101562 L 650.171875 102.160156 L 650.171875 104.9375 L 649.890625 105.359375 L 649.859375 105.617188 L 650.0625 105.863281 L 650.171875 105.914062 L 650.171875 111.507812 L 650.160156 111.5 L 650.03125 111.484375 L 649.945312 111.511719 L 649.535156 111.742188 L 649.242188 111.960938 L 649 112.214844 L 648.898438 112.453125 L 648.921875 112.746094 L 648.996094 112.914062 L 649.71875 113.613281 L 649.933594 113.6875 L 650.160156 113.605469 L 650.171875 113.585938 L 650.171875 152.480469 L 650.160156 152.476562 L 650.113281 152.882812 L 649.898438 153.15625 L 649.324219 153.59375 L 649.109375 153.867188 L 648.222656 155.414062 L 645.375 158.523438 L 644.769531 158.898438 L 644.683594 159.035156 L 644.652344 159.230469 L 644.589844 159.402344 L 644.429688 159.480469 L 644.296875 159.5 L 644.113281 159.5625 L 643.953125 159.664062 L 643.890625 159.804688 L 644.050781 159.980469 L 644.359375 159.800781 L 644.867188 159.269531 L 644.949219 159.625 L 644.835938 159.894531 L 644.671875 160.148438 L 644.585938 160.441406 L 644.519531 160.824219 L 644.351562 161.066406 L 643.890625 161.507812 L 643.296875 162.699219 L 642.914062 163.277344 L 642.417969 163.527344 L 641.503906 163.546875 L 641.238281 163.625 L 640.351562 164.125 L 639.925781 164.511719 L 639.890625 164.578125 L 639.914062 164.710938 L 640.011719 164.765625 L 640.171875 164.789062 L 640.179688 164.972656 L 640.160156 165.355469 L 640.171875 165.539062 L 640.277344 165.859375 L 640.457031 166.132812 L 640.691406 166.347656 L 640.964844 166.492188 L 640.3125 166.921875 L 640.074219 167.019531 L 640.058594 166.910156 L 639.984375 166.707031 L 639.96875 166.59375 L 639.832031 166.664062 L 639.691406 166.699219 L 639.542969 166.714844 L 639.390625 166.699219 L 639.464844 166.773438 L 639.601562 166.945312 L 639.675781 167.019531 L 639.292969 167.164062 L 639.148438 167.257812 L 638.992188 167.441406 L 639.011719 167.46875 L 639.027344 167.566406 L 639.015625 167.691406 L 638.949219 167.8125 L 638.707031 168.078125 L 638.421875 168.292969 L 637.839844 168.636719 L 637.414062 169.003906 L 636.835938 169.199219 L 636.699219 169.296875 L 636.339844 169.683594 L 633.816406 171.046875 L 631.644531 172.492188 L 631.402344 172.707031 L 631.03125 173.28125 L 630.832031 173.414062 L 630.570312 173.28125 L 630.570312 173.339844 L 630.566406 173.59375 L 630.410156 173.804688 L 630.160156 173.9375 L 629.878906 174.019531 L 630.128906 174.117188 L 630.34375 174.042969 L 630.472656 174.046875 L 630.472656 174.347656 L 630.382812 174.625 L 630.222656 174.875 L 630.015625 175.074219 L 629.789062 175.195312 L 629.273438 175.253906 L 628.773438 175.222656 L 628.300781 175.269531 L 627.472656 175.851562 L 626.941406 176.035156 L 624.695312 176.25 L 624.476562 176.164062 L 624.140625 175.792969 L 623.902344 175.722656 L 624.21875 176.164062 L 623.957031 176.496094 L 623.429688 176.707031 L 622.9375 176.789062 L 623 176.507812 L 622.332031 177.214844 L 622.109375 177.210938 L 621.953125 177.097656 L 621.839844 176.976562 L 621.746094 176.949219 L 621.632812 177.046875 L 621.578125 177.164062 L 621.585938 177.296875 L 621.648438 177.425781 L 617.609375 179.101562 L 617.421875 179.242188 L 617.097656 179.632812 L 616.894531 179.78125 L 616.652344 179.769531 L 616.390625 179.414062 L 616.371094 178.371094 L 616.164062 178.070312 L 616.261719 178.386719 L 616.09375 178.457031 L 615.910156 178.441406 L 615.734375 178.375 L 615.578125 178.28125 L 615.777344 178.597656 L 616.113281 178.960938 L 616.277344 179.304688 L 615.96875 179.558594 L 616.253906 179.761719 L 615.921875 180.03125 L 614.992188 180.40625 L 613.121094 180.828125 L 612.332031 181.269531 L 610.484375 182.582031 L 610.339844 182.609375 L 610.375 182.40625 L 610.019531 182.5625 L 609.492188 183.039062 L 608.921875 183.445312 L 608.425781 183.367188 L 608.074219 183.78125 L 606.234375 184.914062 L 605.851562 185.3125 L 605.636719 185.472656 L 605.429688 185.53125 L 605.28125 185.398438 L 605.042969 185.757812 L 604.898438 185.878906 L 604.695312 185.929688 L 604.316406 185.9375 L 604.167969 186.027344 L 604.113281 186.238281 L 603.953125 186.488281 L 603.585938 186.738281 L 603.160156 186.871094 L 602.832031 186.773438 L 602.769531 187.34375 L 602.363281 187.882812 L 601.359375 188.792969 L 600.316406 190.597656 L 599.894531 191.011719 L 599.890625 190.894531 L 599.796875 190.589844 L 599.699219 190.695312 L 599.570312 190.496094 L 599.445312 190.347656 L 599.300781 190.234375 L 599.109375 190.128906 L 598.910156 189.96875 L 598.855469 189.777344 L 598.859375 189.558594 L 598.8125 189.320312 L 598.519531 188.976562 L 598.109375 188.828125 L 597.730469 188.925781 L 597.542969 189.320312 L 598.003906 189.007812 L 598.316406 189.257812 L 598.515625 189.777344 L 598.625 190.273438 L 598.695312 190.847656 L 598.800781 191.042969 L 599.277344 191.164062 L 599.445312 191.273438 L 599.601562 191.414062 L 599.796875 191.542969 L 599.359375 192.398438 L 599.164062 192.664062 L 598.792969 193.0625 L 598.671875 193.28125 L 598.625 193.5625 L 598.511719 193.75 L 598.242188 193.707031 L 597.914062 193.59375 L 597.640625 193.570312 L 597.421875 193.71875 L 597.277344 193.941406 L 597.054688 194.417969 L 597.324219 194.3125 L 597.742188 193.992188 L 597.941406 193.890625 L 597.773438 194.214844 L 596.78125 195.472656 L 596.199219 195.980469 L 594.855469 197.601562 L 594.1875 198.242188 L 593.71875 198.351562 L 593.613281 198.976562 L 593.519531 199.199219 L 593.429688 199.128906 L 593.132812 198.988281 L 593.179688 199.292969 L 593.230469 199.398438 L 593.046875 199.378906 L 592.78125 199.386719 L 592.585938 199.441406 L 592.59375 199.5625 L 592.679688 199.753906 L 592.609375 199.933594 L 592.351562 200.257812 L 591.792969 201.492188 L 591.570312 201.84375 L 591.59375 201.640625 L 591.566406 201.503906 L 591.488281 201.457031 L 591.375 201.527344 L 591.320312 201.648438 L 591.273438 201.984375 L 591.148438 202.316406 L 591.265625 202.359375 L 591.398438 202.292969 L 591.375 202.171875 L 591.425781 202.203125 L 591.527344 202.246094 L 591.570312 202.277344 L 591.585938 202.324219 L 591.589844 202.476562 L 591.773438 202.828125 L 591.648438 202.980469 L 591.410156 203.074219 L 591.222656 203.175781 L 590.957031 203.28125 L 590.632812 203.175781 L 590.308594 203 L 590.046875 202.910156 L 589.714844 202.574219 L 589.226562 201.574219 L 589.210938 202.054688 L 589.519531 203.128906 L 589.601562 203.683594 L 589.402344 204.191406 L 589.527344 204.230469 L 589.621094 204.304688 L 589.675781 204.414062 L 589.695312 204.554688 L 589.640625 204.625 L 589.515625 204.601562 L 589.316406 204.507812 L 588.847656 204.585938 L 588.429688 204.71875 L 587.921875 204.773438 L 587.707031 204.554688 L 587.640625 203.660156 L 587.667969 203.546875 L 587.726562 203.402344 L 587.726562 203.28125 L 587.59375 203.226562 L 587.457031 203.25 L 587.375 203.308594 L 586.945312 203.804688 L 586.261719 204.855469 L 585.960938 205.089844 L 585.492188 205.152344 L 585.578125 204.835938 L 585.519531 204.667969 L 585.378906 204.65625 L 585.207031 204.824219 L 585.121094 205.046875 L 585.0625 205.324219 L 584.976562 205.589844 L 584.808594 205.773438 L 584.5 205.847656 L 584.328125 205.71875 L 584.199219 205.53125 L 584.015625 205.449219 L 583.878906 205.484375 L 583.753906 205.5625 L 583.667969 205.679688 L 583.632812 205.835938 L 583.683594 205.984375 L 583.789062 205.957031 L 583.917969 205.878906 L 584.015625 205.890625 L 583.925781 206.136719 L 581.867188 207.59375 L 581.738281 207.746094 L 581.519531 208.085938 L 581.371094 208.21875 L 581.191406 208.171875 L 580.992188 208.375 L 580.6875 208.960938 L 580.792969 208.90625 L 580.871094 208.882812 L 581.078125 208.855469 L 581.078125 208.960938 L 580.683594 209.191406 L 580.304688 209.503906 L 579.605469 210.230469 L 579.898438 210.230469 L 579.777344 210.441406 L 579.140625 211.199219 L 579.035156 211.273438 L 578.871094 211.304688 L 578.746094 211.355469 L 578.695312 211.480469 L 578.65625 211.632812 L 578.574219 211.777344 L 577.839844 212.785156 L 576.382812 214.382812 L 574.707031 215.769531 L 573.335938 217.238281 L 572.839844 217.460938 L 572.484375 217.566406 L 571.703125 218.394531 L 571.269531 218.730469 L 571.140625 218.570312 L 570.976562 218.6875 L 570.589844 219.164062 L 569.808594 219.691406 L 569.355469 219.511719 L 569.234375 219.398438 L 569.132812 219.164062 L 569.054688 218.71875 L 568.992188 218.503906 L 568.886719 218.414062 L 568.769531 218.332031 L 568.164062 217.777344 L 567.476562 217.519531 L 567.316406 217.402344 L 566.753906 216.53125 L 566.632812 216.394531 L 566.417969 216.292969 L 566.320312 216.050781 L 566.269531 215.769531 L 566.1875 215.546875 L 566.046875 215.449219 L 565.820312 215.347656 L 565.566406 215.269531 L 565.355469 215.238281 L 565.132812 215.335938 L 564.984375 215.769531 L 564.808594 215.863281 L 564.808594 215.980469 L 565.03125 215.964844 L 565.304688 215.714844 L 565.546875 215.652344 L 565.796875 215.6875 L 566 215.792969 L 566.136719 215.972656 L 566.234375 216.453125 L 566.359375 216.691406 L 567.117188 217.828125 L 567.207031 217.886719 L 567.351562 217.9375 L 567.605469 217.992188 L 567.734375 218.042969 L 567.824219 218.164062 L 567.949219 218.414062 L 568.285156 218.804688 L 568.34375 218.945312 L 568.277344 219.355469 L 568.058594 219.78125 L 567.734375 220.058594 L 567.367188 220.011719 L 567.402344 220.277344 L 567.535156 220.277344 L 567.707031 220.167969 L 567.851562 220.105469 L 568.105469 220.1875 L 568.160156 220.3125 L 568.046875 220.753906 L 568.058594 221.003906 L 568.152344 221.503906 L 568.164062 221.703125 L 568.144531 221.832031 L 568.121094 221.914062 L 568.074219 221.988281 L 568 222.078125 L 567.933594 222.226562 L 567.960938 222.359375 L 568.015625 222.480469 L 568.046875 222.605469 L 568.027344 222.945312 L 568.046875 223.097656 L 568.089844 223.214844 L 568.21875 223.441406 L 568.261719 223.675781 L 568.332031 223.902344 L 568.34375 224.039062 L 568.304688 224.167969 L 568.191406 224.3125 L 568.164062 224.417969 L 568.042969 224.605469 L 567.765625 224.523438 L 567.316406 224.25 L 567.078125 224.3125 L 566.878906 224.40625 L 566.714844 224.398438 L 566.59375 224.15625 L 566.609375 224.273438 L 566.609375 224.359375 L 566.59375 224.472656 L 566.816406 224.730469 L 567.851562 225.320312 L 567.851562 225.414062 L 567.734375 225.542969 L 567.628906 225.726562 L 567.53125 225.949219 L 567.378906 226.46875 L 567.316406 226.628906 L 567.023438 226.957031 L 566.945312 227.183594 L 567.28125 227.425781 L 567.214844 227.59375 L 566.996094 227.757812 L 566.808594 227.828125 L 566.617188 227.792969 L 566.378906 227.636719 L 566.429688 227.863281 L 566.507812 228.09375 L 566.609375 228.296875 L 566.726562 228.449219 L 566.914062 228.582031 L 567.21875 228.640625 L 567.367188 228.714844 L 567.410156 228.820312 L 567.46875 229.046875 L 567.484375 229.304688 L 567.414062 229.511719 L 566.847656 230.003906 L 566.78125 230.195312 L 567.28125 229.925781 L 567.582031 229.855469 L 567.804688 229.933594 L 567.839844 230.335938 L 567.945312 230.488281 L 568.164062 230.308594 L 568.277344 230.632812 L 568.46875 230.777344 L 568.714844 230.886719 L 568.980469 231.101562 L 569.128906 231.292969 L 569.238281 231.492188 L 569.304688 231.738281 L 569.328125 232.058594 L 569.40625 232.203125 L 569.8125 231.898438 L 570 232.011719 L 569.988281 232.257812 L 569.800781 232.40625 L 569.636719 232.570312 L 569.699219 232.859375 L 569.78125 232.726562 L 569.894531 232.636719 L 570.039062 232.578125 L 570.207031 232.539062 L 570.886719 232.59375 L 570.960938 232.722656 L 571.429688 233.125 L 571.484375 233.273438 L 571.496094 233.492188 L 571.476562 233.90625 L 571.628906 233.8125 L 571.753906 233.820312 L 571.835938 233.925781 L 571.867188 234.117188 L 571.820312 234.226562 L 571.617188 234.4375 L 571.574219 234.601562 L 571.660156 234.871094 L 572.097656 235.285156 L 572.265625 235.503906 L 572.167969 235.6875 L 572.09375 235.894531 L 572.054688 236.117188 L 572.0625 236.351562 L 572.460938 236.015625 L 572.664062 235.96875 L 572.949219 236.136719 L 573.046875 236.226562 L 573.070312 236.265625 L 573.085938 236.320312 L 573.144531 236.464844 L 573.132812 236.570312 L 573.132812 236.574219 L 573.066406 236.671875 L 573.0625 236.75 L 573.242188 236.785156 L 573.144531 237.125 L 573.0625 237.285156 L 572.949219 237.425781 L 572.792969 237.324219 L 572.632812 237.308594 L 572.511719 237.390625 L 572.460938 237.582031 L 572.503906 237.691406 L 572.601562 237.71875 L 572.699219 237.71875 L 572.753906 237.734375 L 572.765625 237.828125 L 572.75 237.953125 L 572.75 238.390625 L 572.648438 238.621094 L 572.460938 238.757812 L 572.210938 238.800781 L 572.113281 238.742188 L 572 238.640625 L 571.878906 238.621094 L 571.777344 238.800781 L 571.757812 239.027344 L 571.84375 239.132812 L 571.976562 239.191406 L 572.191406 239.339844 L 572.25 239.347656 L 572.300781 239.363281 L 572.351562 239.4375 L 572.363281 239.515625 L 572.332031 239.609375 L 572.296875 239.667969 L 572.265625 239.660156 L 572.289062 239.835938 L 572.285156 239.972656 L 572.316406 240.082031 L 572.460938 240.1875 L 572.375 240.371094 L 572.46875 240.453125 L 572.632812 240.507812 L 572.753906 240.609375 L 572.789062 240.828125 L 572.691406 240.910156 L 572.519531 240.945312 L 572.351562 241.03125 L 572.203125 241.222656 L 572.257812 241.28125 L 572.414062 241.324219 L 572.558594 241.457031 L 572.59375 241.632812 L 572.558594 242.292969 L 572.914062 241.910156 L 573.339844 240.074219 L 573.359375 240.34375 L 573.257812 241.34375 L 573.121094 241.792969 L 573.242188 243.148438 L 573.691406 244.335938 L 574.558594 245.847656 L 574.765625 246.113281 L 574.957031 246.226562 L 575.398438 247.285156 L 575.433594 247.945312 L 575.363281 249.289062 L 575.496094 249.957031 L 575.925781 250.910156 L 575.984375 251.164062 L 576.050781 252.148438 L 576.199219 252.882812 L 576.324219 254.179688 L 575.898438 258.160156 L 575.894531 258.820312 L 575.976562 259.199219 L 576.179688 259.378906 L 576.4375 259.480469 L 576.675781 259.613281 L 576.953125 260.125 L 577.160156 260.355469 L 577.253906 260.191406 L 577.210938 259.511719 L 577.316406 259.285156 L 577.644531 259.085938 L 577.308594 258.523438 L 577.117188 257.765625 L 577.113281 257.007812 L 577.359375 256.433594 L 577.300781 256.289062 L 577.308594 256.175781 L 577.363281 256.078125 L 577.457031 255.996094 L 577.625 256.457031 L 577.757812 256.558594 L 577.945312 256.3125 L 577.585938 255.660156 L 577.457031 255.574219 L 577.527344 255.390625 L 577.839844 254.941406 L 577.851562 254.851562 L 577.835938 254.746094 L 577.835938 254.652344 L 577.894531 254.613281 L 577.953125 254.59375 L 578.039062 254.550781 L 578.109375 254.5 L 578.140625 254.464844 L 578.203125 254.28125 L 578.351562 254.214844 L 578.515625 254.234375 L 578.628906 254.296875 L 578.683594 254.441406 L 578.679688 254.625 L 578.628906 254.992188 L 578.921875 257.605469 L 579.03125 257.339844 L 579.089844 257.070312 L 579.144531 256.207031 L 579.269531 255.832031 L 579.3125 255.574219 L 579.410156 255.574219 L 579.214844 257.488281 L 579.214844 257.800781 L 579.3125 258.820312 L 579.277344 259.148438 L 578.570312 261.550781 L 578.523438 263.492188 L 578.96875 266.863281 L 579.214844 267.472656 L 579.355469 267.277344 L 579.394531 267.1875 L 579.410156 267.046875 L 579.65625 267.160156 L 579.890625 267.164062 L 580.007812 267.082031 L 579.898438 266.933594 L 579.898438 266.835938 L 580.191406 266.972656 L 580.117188 267.417969 L 579.597656 268.484375 L 579.28125 268.945312 L 578.726562 270.328125 L 578.464844 270.785156 L 578.367188 271.035156 L 578.328125 271.347656 L 578.359375 271.671875 L 578.5 272.242188 L 578.523438 272.558594 L 578.417969 273.210938 L 577.585938 275.742188 L 577.359375 277.761719 L 577.359375 279.09375 L 577.324219 279.40625 L 577.234375 279.746094 L 577.105469 279.882812 L 576.960938 279.570312 L 576.972656 279.273438 L 577.035156 278.996094 L 576.980469 278.792969 L 576.628906 278.714844 L 576.390625 278.769531 L 576.4375 278.894531 L 576.59375 279.007812 L 576.675781 279.039062 L 576.761719 279.398438 L 576.773438 279.570312 L 576.742188 279.863281 L 576.609375 280.46875 L 576.578125 280.789062 L 576.601562 281.300781 L 576.578125 281.492188 L 576.53125 281.648438 L 576.421875 281.863281 L 576.382812 282.019531 L 576.394531 282.113281 L 576.457031 282.414062 L 576.472656 282.597656 L 576.441406 282.773438 L 576.308594 283.070312 L 576.277344 283.238281 L 576.402344 283.222656 L 577.066406 282.433594 L 576.835938 281.898438 L 576.8125 281.613281 L 576.960938 281.375 L 577.167969 281.335938 L 577.375 281.460938 L 577.75 281.800781 L 578.019531 281.929688 L 578.1875 281.929688 L 578.28125 281.792969 L 578.386719 280.703125 L 578.328125 280.53125 L 578.328125 280.414062 L 578.914062 280.5625 L 579.066406 280.734375 L 579.128906 281.421875 L 579.175781 281.542969 L 579.261719 281.589844 L 579.292969 281.667969 L 578.46875 284.351562 L 578.433594 284.667969 L 578.464844 284.867188 L 578.597656 285.183594 L 578.628906 285.359375 L 578.582031 285.5 L 578.476562 285.605469 L 578.375 285.691406 L 578.328125 285.773438 L 578.253906 286.078125 L 578.082031 286.367188 L 575.875 289.609375 L 574.257812 291.363281 L 574.214844 291.519531 L 574.210938 291.71875 L 574.179688 291.875 L 574.105469 292.011719 L 573.046875 293.050781 L 568.839844 295.273438 L 566.503906 296.378906 L 564.125 296.976562 L 564.089844 296.992188 L 562.21875 297.78125 L 561.847656 297.886719 L 560.257812 298.550781 L 559.460938 298.675781 L 556.277344 299.84375 L 553.351562 300.910156 L 551.292969 301.988281 L 549.570312 302.585938 L 547.464844 303.730469 L 546.886719 303.878906 L 546.886719 303.773438 L 547.121094 303.671875 L 547.359375 303.515625 L 547.558594 303.328125 L 547.679688 303.132812 L 547.488281 303.191406 L 546.90625 303.476562 L 546.78125 303.621094 L 546.605469 303.75 L 546.253906 303.789062 L 545.992188 303.886719 L 546.089844 304.210938 L 546.175781 304.15625 L 546.382812 304.082031 L 546.175781 304.425781 L 545.847656 304.632812 L 545.113281 304.949219 L 544.8125 305.15625 L 541.105469 307.707031 L 540.703125 308.15625 L 539.953125 309.199219 L 539.628906 309.84375 L 539.367188 310.839844 L 539.167969 311.171875 L 539.273438 311.941406 L 539.203125 312.078125 L 539.214844 311.988281 L 539.1875 311.878906 L 539.128906 311.738281 L 539.042969 311.738281 L 538.941406 311.867188 L 538.808594 311.953125 L 538.695312 312.050781 L 538.644531 312.214844 L 538.628906 312.433594 L 538.589844 312.644531 L 538.53125 312.835938 L 538.449219 313.007812 L 537.777344 313.644531 L 537.667969 313.816406 L 537.589844 313.910156 L 537.210938 314.21875 L 537.082031 314.296875 L 536.914062 314.308594 L 536.789062 314.265625 L 536.496094 314.085938 L 536.253906 314.007812 L 536.011719 314 L 535.777344 314.074219 L 535.5625 314.242188 L 535.441406 314.535156 L 535.5 314.824219 L 535.652344 314.996094 L 535.800781 314.921875 L 535.789062 314.847656 L 535.800781 314.34375 L 535.898438 314.289062 L 536.113281 314.324219 L 536.328125 314.394531 L 536.449219 314.449219 L 536.519531 314.566406 L 536.625 314.824219 L 536.691406 314.921875 L 536.832031 315.007812 L 537.136719 315.125 L 537.285156 315.246094 L 537.386719 315.417969 L 537.515625 315.769531 L 537.617188 315.941406 L 537.742188 316.054688 L 537.851562 316.132812 L 537.929688 316.222656 L 538.011719 316.695312 L 538.269531 317.359375 L 538.359375 317.691406 L 538.605469 317.464844 L 538.96875 317.539062 L 539.320312 317.742188 L 539.53125 317.902344 L 539.839844 318.273438 L 540.027344 318.625 L 540.230469 318.9375 L 540.507812 319.171875 L 540.671875 319.25 L 540.820312 319.1875 L 540.988281 319.09375 L 541.199219 319.074219 L 541.066406 318.585938 L 541.046875 318.175781 L 541.125 317.761719 L 541.289062 317.269531 L 541.417969 316.554688 L 541.539062 316.367188 L 541.710938 316.238281 L 542.273438 316 L 542.28125 316.414062 L 541.914062 318.898438 L 541.753906 323.207031 L 541.558594 324.382812 L 541.429688 324.730469 L 541.394531 324.914062 L 541.484375 325.546875 L 541.394531 326.773438 L 541.363281 326.929688 L 541.199219 327.355469 L 541.226562 327.511719 L 541.347656 327.738281 L 541.394531 327.886719 L 541.214844 328.519531 Z M 566.789062 99.679688 L 567.074219 99.785156 L 567.398438 99.726562 L 567.699219 99.542969 L 567.921875 99.257812 L 568.082031 98.871094 L 568.125 98.480469 L 568.007812 98.167969 L 567.78125 98.003906 L 567.457031 97.878906 L 567.148438 97.859375 L 566.960938 98 L 566.695312 98.671875 L 566.601562 99.035156 L 566.605469 99.363281 Z M 565.746094 98.96875 L 565.964844 98.980469 L 566.257812 98.667969 L 566.394531 98.132812 L 566.195312 97.65625 L 565.78125 97.398438 L 565.269531 97.515625 L 565.253906 97.523438 L 564.972656 97.773438 L 565.003906 98.03125 L 565.386719 98.492188 L 565.566406 98.769531 Z M 565.746094 98.96875 "/>
<path fill="none" stroke-width="0.75" stroke-linecap="round" stroke-linejoin="round" stroke="rgb(0%, 0%, 0%)" stroke-opacity="1" stroke-miterlimit="10" d="M 650.117188 112.898438 L 650.0625 112.652344 L 650.171875 112.546875 L 650.171875 112.972656 Z M 650.117188 112.898438 "/>
<path fill="none" stroke-width="0.75" stroke-linecap="round" stroke-linejoin="round" stroke="rgb(0%, 0%, 0%)" stroke-opacity="1" stroke-miterlimit="10" d="M 542.664062 314.46875 L 542.566406 314.921875 L 542.417969 315.363281 L 542.371094 315.460938 L 542.234375 315.597656 L 542.199219 315.613281 L 542.152344 315.550781 L 541.992188 315.460938 L 541.933594 315.386719 L 541.929688 315.28125 L 541.875 315.214844 L 541.6875 315.246094 L 541.691406 315.3125 L 541.589844 315.671875 L 541.425781 315.214844 L 541.753906 314.796875 L 542.269531 314.476562 L 542.675781 314.296875 Z M 542.664062 314.46875 "/>
<path fill="none" stroke-width="0.75" stroke-linecap="round" stroke-linejoin="round" stroke="rgb(0%, 0%, 0%)" stroke-opacity="1" stroke-miterlimit="10" d="M 578.628906 246.128906 L 578.539062 247.25 L 578.035156 249.410156 L 577.742188 249.433594 L 577.628906 249.214844 L 577.625 248.910156 L 577.78125 247.730469 L 578.238281 245.8125 L 578.402344 245.507812 L 578.53125 245.519531 L 578.609375 245.757812 Z M 578.628906 246.128906 "/>
<path fill="none" stroke-width="0.75" stroke-linecap="round" stroke-linejoin="round" stroke="rgb(0%, 0%, 0%)" stroke-opacity="1" stroke-miterlimit="10" d="M 641.691406 165.691406 L 641.71875 165.964844 L 641.640625 166.183594 L 641.285156 166.292969 L 640.96875 166.183594 L 640.625 165.882812 L 640.414062 165.351562 L 640.46875 164.75 L 640.625 164.476562 L 641.03125 164.273438 L 641.730469 164.105469 L 642.214844 164.160156 L 642.253906 164.515625 L 642.191406 164.828125 L 641.808594 165.238281 Z M 641.691406 165.691406 "/>
</svg>
