<?xml version="1.0" encoding="UTF-8"?>
<svg xmlns="http://www.w3.org/2000/svg" xmlns:xlink="http://www.w3.org/1999/xlink" width="432pt" height="360pt" viewBox="0 0 432 360">
<defs>
<g>
<g id="glyph-0-0">
<path d="M 0.390625 0 L 0.390625 -8.609375 L 7.21875 -8.609375 L 7.21875 0 Z M 6.140625 -1.078125 L 6.140625 -7.53125 L 1.46875 -7.53125 L 1.46875 -1.078125 Z M 6.140625 -1.078125 "/>
</g>
<g id="glyph-0-1">
<path d="M 0.5 -3.890625 L 3.4375 -3.890625 L 3.4375 -2.796875 L 0.5 -2.796875 Z M 0.5 -3.890625 "/>
</g>
<g id="glyph-0-2">
<path d="M 1.15625 -5.9375 L 1.15625 -6.75 C 1.914062 -6.820312 2.441406 -6.945312 2.734375 -7.125 C 3.035156 -7.300781 3.265625 -7.710938 3.421875 -8.359375 L 4.25 -8.359375 L 4.25 0 L 3.125 0 L 3.125 -5.9375 Z M 1.15625 -5.9375 "/>
</g>
<g id="glyph-0-3">
<path d="M 1.03125 -1.28125 L 2.25 -1.28125 L 2.25 0 L 1.03125 0 Z M 1.03125 -1.28125 "/>
</g>
<g id="glyph-0-4">
<path d="M 3.25 -8.390625 C 4.332031 -8.390625 5.117188 -7.941406 5.609375 -7.046875 C 5.984375 -6.359375 6.171875 -5.410156 6.171875 -4.203125 C 6.171875 -3.066406 6 -2.125 5.65625 -1.375 C 5.164062 -0.300781 4.359375 0.234375 3.234375 0.234375 C 2.234375 0.234375 1.484375 -0.203125 0.984375 -1.078125 C 0.578125 -1.816406 0.375 -2.800781 0.375 -4.03125 C 0.375 -4.976562 0.5 -5.796875 0.75 -6.484375 C 1.207031 -7.753906 2.039062 -8.390625 3.25 -8.390625 Z M 3.234375 -0.734375 C 3.785156 -0.734375 4.222656 -0.972656 4.546875 -1.453125 C 4.867188 -1.941406 5.03125 -2.847656 5.03125 -4.171875 C 5.03125 -5.117188 4.910156 -5.898438 4.671875 -6.515625 C 4.441406 -7.128906 3.988281 -7.4375 3.3125 -7.4375 C 2.6875 -7.4375 2.226562 -7.144531 1.9375 -6.5625 C 1.65625 -5.976562 1.515625 -5.117188 1.515625 -3.984375 C 1.515625 -3.128906 1.609375 -2.441406 1.796875 -1.921875 C 2.078125 -1.128906 2.554688 -0.734375 3.234375 -0.734375 Z M 3.234375 -0.734375 "/>
</g>
<g id="glyph-0-5">
<path d="M 1.484375 -2.140625 C 1.554688 -1.535156 1.835938 -1.117188 2.328125 -0.890625 C 2.578125 -0.773438 2.863281 -0.71875 3.1875 -0.71875 C 3.8125 -0.71875 4.273438 -0.914062 4.578125 -1.3125 C 4.878906 -1.707031 5.03125 -2.148438 5.03125 -2.640625 C 5.03125 -3.222656 4.847656 -3.675781 4.484375 -4 C 4.128906 -4.320312 3.703125 -4.484375 3.203125 -4.484375 C 2.835938 -4.484375 2.523438 -4.410156 2.265625 -4.265625 C 2.003906 -4.128906 1.785156 -3.9375 1.609375 -3.6875 L 0.6875 -3.734375 L 1.328125 -8.25 L 5.6875 -8.25 L 5.6875 -7.234375 L 2.125 -7.234375 L 1.765625 -4.90625 C 1.960938 -5.050781 2.148438 -5.160156 2.328125 -5.234375 C 2.640625 -5.359375 3 -5.421875 3.40625 -5.421875 C 4.175781 -5.421875 4.828125 -5.171875 5.359375 -4.671875 C 5.898438 -4.179688 6.171875 -3.554688 6.171875 -2.796875 C 6.171875 -2.003906 5.921875 -1.300781 5.421875 -0.6875 C 4.929688 -0.0820312 4.148438 0.21875 3.078125 0.21875 C 2.398438 0.21875 1.796875 0.0234375 1.265625 -0.359375 C 0.742188 -0.742188 0.453125 -1.335938 0.390625 -2.140625 Z M 1.484375 -2.140625 "/>
</g>
<g id="glyph-0-6">
<path d="M 0.890625 -8.609375 L 2.5625 -8.609375 L 5.03125 -1.328125 L 7.484375 -8.609375 L 9.140625 -8.609375 L 9.140625 0 L 8.03125 0 L 8.03125 -5.078125 C 8.03125 -5.253906 8.03125 -5.546875 8.03125 -5.953125 C 8.039062 -6.359375 8.046875 -6.796875 8.046875 -7.265625 L 5.59375 0 L 4.4375 0 L 1.96875 -7.265625 L 1.96875 -7 C 1.96875 -6.789062 1.972656 -6.46875 1.984375 -6.03125 C 1.992188 -5.601562 2 -5.285156 2 -5.078125 L 2 0 L 0.890625 0 Z M 0.890625 -8.609375 "/>
</g>
<g id="glyph-0-7">
<path d="M 4.21875 -1 C 4.613281 -1 4.9375 -1.039062 5.1875 -1.125 C 5.644531 -1.269531 6.019531 -1.5625 6.3125 -2 C 6.539062 -2.34375 6.703125 -2.785156 6.796875 -3.328125 C 6.859375 -3.660156 6.890625 -3.960938 6.890625 -4.234375 C 6.890625 -5.304688 6.675781 -6.132812 6.25 -6.71875 C 5.832031 -7.3125 5.148438 -7.609375 4.203125 -7.609375 L 2.140625 -7.609375 L 2.140625 -1 Z M 0.96875 -8.609375 L 4.453125 -8.609375 C 5.640625 -8.609375 6.554688 -8.1875 7.203125 -7.34375 C 7.785156 -6.59375 8.078125 -5.625 8.078125 -4.4375 C 8.078125 -3.519531 7.90625 -2.691406 7.5625 -1.953125 C 6.957031 -0.648438 5.914062 0 4.4375 0 L 0.96875 0 Z M 0.96875 -8.609375 "/>
</g>
<g id="glyph-0-8">
<path d="M 1.671875 -2.78125 C 1.703125 -2.289062 1.816406 -1.894531 2.015625 -1.59375 C 2.410156 -1.019531 3.09375 -0.734375 4.0625 -0.734375 C 4.5 -0.734375 4.898438 -0.796875 5.265625 -0.921875 C 5.960938 -1.160156 6.3125 -1.59375 6.3125 -2.21875 C 6.3125 -2.6875 6.160156 -3.019531 5.859375 -3.21875 C 5.566406 -3.414062 5.101562 -3.585938 4.46875 -3.734375 L 3.3125 -4 C 2.539062 -4.164062 2 -4.351562 1.6875 -4.5625 C 1.144531 -4.925781 0.875 -5.460938 0.875 -6.171875 C 0.875 -6.953125 1.140625 -7.585938 1.671875 -8.078125 C 2.203125 -8.578125 2.957031 -8.828125 3.9375 -8.828125 C 4.84375 -8.828125 5.609375 -8.609375 6.234375 -8.171875 C 6.867188 -7.734375 7.1875 -7.035156 7.1875 -6.078125 L 6.09375 -6.078125 C 6.03125 -6.546875 5.90625 -6.898438 5.71875 -7.140625 C 5.363281 -7.585938 4.757812 -7.8125 3.90625 -7.8125 C 3.21875 -7.8125 2.722656 -7.664062 2.421875 -7.375 C 2.117188 -7.09375 1.96875 -6.757812 1.96875 -6.375 C 1.96875 -5.957031 2.144531 -5.648438 2.5 -5.453125 C 2.726562 -5.328125 3.25 -5.171875 4.0625 -4.984375 L 5.28125 -4.703125 C 5.851562 -4.566406 6.300781 -4.382812 6.625 -4.15625 C 7.164062 -3.757812 7.4375 -3.175781 7.4375 -2.40625 C 7.4375 -1.457031 7.085938 -0.773438 6.390625 -0.359375 C 5.703125 0.0429688 4.898438 0.25 3.984375 0.25 C 2.910156 0.25 2.070312 -0.0195312 1.46875 -0.5625 C 0.863281 -1.113281 0.566406 -1.851562 0.578125 -2.78125 Z M 4.03125 -8.84375 Z M 4.03125 -8.84375 "/>
</g>
<g id="glyph-1-0">
<path d="M 0 -0.390625 L -8.609375 -0.390625 L -8.609375 -7.21875 L 0 -7.21875 Z M -1.078125 -6.140625 L -7.53125 -6.140625 L -7.53125 -1.46875 L -1.078125 -1.46875 Z M -1.078125 -6.140625 "/>
</g>
<g id="glyph-1-1">
<path d="M -3.890625 -0.5 L -3.890625 -3.4375 L -2.796875 -3.4375 L -2.796875 -0.5 Z M -3.890625 -0.5 "/>
</g>
<g id="glyph-1-2">
<path d="M -5.9375 -1.15625 L -6.75 -1.15625 C -6.820312 -1.914062 -6.945312 -2.441406 -7.125 -2.734375 C -7.300781 -3.035156 -7.710938 -3.265625 -8.359375 -3.421875 L -8.359375 -4.25 L 0 -4.25 L 0 -3.125 L -5.9375 -3.125 Z M -5.9375 -1.15625 "/>
</g>
<g id="glyph-1-3">
<path d="M -1.28125 -1.03125 L -1.28125 -2.25 L 0 -2.25 L 0 -1.03125 Z M -1.28125 -1.03125 "/>
</g>
<g id="glyph-1-4">
<path d="M -8.390625 -3.25 C -8.390625 -4.332031 -7.941406 -5.117188 -7.046875 -5.609375 C -6.359375 -5.984375 -5.410156 -6.171875 -4.203125 -6.171875 C -3.066406 -6.171875 -2.125 -6 -1.375 -5.65625 C -0.300781 -5.164062 0.234375 -4.359375 0.234375 -3.234375 C 0.234375 -2.234375 -0.203125 -1.484375 -1.078125 -0.984375 C -1.816406 -0.578125 -2.800781 -0.375 -4.03125 -0.375 C -4.976562 -0.375 -5.796875 -0.5 -6.484375 -0.75 C -7.753906 -1.207031 -8.390625 -2.039062 -8.390625 -3.25 Z M -0.734375 -3.234375 C -0.734375 -3.785156 -0.972656 -4.222656 -1.453125 -4.546875 C -1.941406 -4.867188 -2.847656 -5.03125 -4.171875 -5.03125 C -5.117188 -5.03125 -5.898438 -4.910156 -6.515625 -4.671875 C -7.128906 -4.441406 -7.4375 -3.988281 -7.4375 -3.3125 C -7.4375 -2.6875 -7.144531 -2.226562 -6.5625 -1.9375 C -5.976562 -1.65625 -5.117188 -1.515625 -3.984375 -1.515625 C -3.128906 -1.515625 -2.441406 -1.609375 -1.921875 -1.796875 C -1.128906 -2.078125 -0.734375 -2.554688 -0.734375 -3.234375 Z M -0.734375 -3.234375 "/>
</g>
<g id="glyph-1-5">
<path d="M -2.140625 -1.484375 C -1.535156 -1.554688 -1.117188 -1.835938 -0.890625 -2.328125 C -0.773438 -2.578125 -0.71875 -2.863281 -0.71875 -3.1875 C -0.71875 -3.8125 -0.914062 -4.273438 -1.3125 -4.578125 C -1.707031 -4.878906 -2.148438 -5.03125 -2.640625 -5.03125 C -3.222656 -5.03125 -3.675781 -4.847656 -4 -4.484375 C -4.320312 -4.128906 -4.484375 -3.703125 -4.484375 -3.203125 C -4.484375 -2.835938 -4.410156 -2.523438 -4.265625 -2.265625 C -4.128906 -2.003906 -3.9375 -1.785156 -3.6875 -1.609375 L -3.734375 -0.6875 L -8.25 -1.328125 L -8.25 -5.6875 L -7.234375 -5.6875 L -7.234375 -2.125 L -4.90625 -1.765625 C -5.050781 -1.960938 -5.160156 -2.148438 -5.234375 -2.328125 C -5.359375 -2.640625 -5.421875 -3 -5.421875 -3.40625 C -5.421875 -4.175781 -5.171875 -4.828125 -4.671875 -5.359375 C -4.179688 -5.898438 -3.554688 -6.171875 -2.796875 -6.171875 C -2.003906 -6.171875 -1.300781 -5.921875 -0.6875 -5.421875 C -0.0820312 -4.929688 0.21875 -4.148438 0.21875 -3.078125 C 0.21875 -2.398438 0.0234375 -1.796875 -0.359375 -1.265625 C -0.742188 -0.742188 -1.335938 -0.453125 -2.140625 -0.390625 Z M -2.140625 -1.484375 "/>
</g>
<g id="glyph-1-6">
<path d="M -8.609375 -0.890625 L -8.609375 -2.5625 L -1.328125 -5.03125 L -8.609375 -7.484375 L -8.609375 -9.140625 L 0 -9.140625 L 0 -8.03125 L -5.078125 -8.03125 C -5.253906 -8.03125 -5.546875 -8.03125 -5.953125 -8.03125 C -6.359375 -8.039062 -6.796875 -8.046875 -7.265625 -8.046875 L 0 -5.59375 L 0 -4.4375 L -7.265625 -1.96875 L -7 -1.96875 C -6.789062 -1.96875 -6.46875 -1.972656 -6.03125 -1.984375 C -5.601562 -1.992188 -5.285156 -2 -5.078125 -2 L 0 -2 L 0 -0.890625 Z M -8.609375 -0.890625 "/>
</g>
<g id="glyph-1-7">
<path d="M -1 -4.21875 C -1 -4.613281 -1.039062 -4.9375 -1.125 -5.1875 C -1.269531 -5.644531 -1.5625 -6.019531 -2 -6.3125 C -2.34375 -6.539062 -2.785156 -6.703125 -3.328125 -6.796875 C -3.660156 -6.859375 -3.960938 -6.890625 -4.234375 -6.890625 C -5.304688 -6.890625 -6.132812 -6.675781 -6.71875 -6.25 C -7.3125 -5.832031 -7.609375 -5.148438 -7.609375 -4.203125 L -7.609375 -2.140625 L -1 -2.140625 Z M -8.609375 -0.96875 L -8.609375 -4.453125 C -8.609375 -5.640625 -8.1875 -6.554688 -7.34375 -7.203125 C -6.59375 -7.785156 -5.625 -8.078125 -4.4375 -8.078125 C -3.519531 -8.078125 -2.691406 -7.90625 -1.953125 -7.5625 C -0.648438 -6.957031 0 -5.914062 0 -4.4375 L 0 -0.96875 Z M -8.609375 -0.96875 "/>
</g>
<g id="glyph-1-8">
<path d="M -2.78125 -1.671875 C -2.289062 -1.703125 -1.894531 -1.816406 -1.59375 -2.015625 C -1.019531 -2.410156 -0.734375 -3.09375 -0.734375 -4.0625 C -0.734375 -4.5 -0.796875 -4.898438 -0.921875 -5.265625 C -1.160156 -5.960938 -1.59375 -6.3125 -2.21875 -6.3125 C -2.6875 -6.3125 -3.019531 -6.160156 -3.21875 -5.859375 C -3.414062 -5.566406 -3.585938 -5.101562 -3.734375 -4.46875 L -4 -3.3125 C -4.164062 -2.539062 -4.351562 -2 -4.5625 -1.6875 C -4.925781 -1.144531 -5.460938 -0.875 -6.171875 -0.875 C -6.953125 -0.875 -7.585938 -1.140625 -8.078125 -1.671875 C -8.578125 -2.203125 -8.828125 -2.957031 -8.828125 -3.9375 C -8.828125 -4.84375 -8.609375 -5.609375 -8.171875 -6.234375 C -7.734375 -6.867188 -7.035156 -7.1875 -6.078125 -7.1875 L -6.078125 -6.09375 C -6.546875 -6.03125 -6.898438 -5.90625 -7.140625 -5.71875 C -7.585938 -5.363281 -7.8125 -4.757812 -7.8125 -3.90625 C -7.8125 -3.21875 -7.664062 -2.722656 -7.375 -2.421875 C -7.09375 -2.117188 -6.757812 -1.96875 -6.375 -1.96875 C -5.957031 -1.96875 -5.648438 -2.144531 -5.453125 -2.5 C -5.328125 -2.726562 -5.171875 -3.25 -4.984375 -4.0625 L -4.703125 -5.28125 C -4.566406 -5.851562 -4.382812 -6.300781 -4.15625 -6.625 C -3.757812 -7.164062 -3.175781 -7.4375 -2.40625 -7.4375 C -1.457031 -7.4375 -0.773438 -7.085938 -0.359375 -6.390625 C 0.0429688 -5.703125 0.25 -4.898438 0.25 -3.984375 C 0.25 -2.910156 -0.0195312 -2.070312 -0.5625 -1.46875 C -1.113281 -0.863281 -1.851562 -0.566406 -2.78125 -0.578125 Z M -8.84375 -4.03125 Z M -8.84375 -4.03125 "/>
</g>
<g id="glyph-1-9">
<path d="M 0 -0.375 C -0.71875 -0.414062 -1.34375 -0.566406 -1.875 -0.828125 C -2.414062 -1.085938 -2.90625 -1.59375 -3.34375 -2.34375 L -4 -3.46875 C -4.289062 -3.96875 -4.539062 -4.320312 -4.75 -4.53125 C -5.070312 -4.851562 -5.441406 -5.015625 -5.859375 -5.015625 C -6.347656 -5.015625 -6.734375 -4.863281 -7.015625 -4.5625 C -7.304688 -4.269531 -7.453125 -3.882812 -7.453125 -3.40625 C -7.453125 -2.675781 -7.179688 -2.175781 -6.640625 -1.90625 C -6.335938 -1.75 -5.929688 -1.664062 -5.421875 -1.65625 L -5.421875 -0.578125 C -6.148438 -0.585938 -6.742188 -0.722656 -7.203125 -0.984375 C -8.015625 -1.441406 -8.421875 -2.25 -8.421875 -3.40625 C -8.421875 -4.363281 -8.160156 -5.0625 -7.640625 -5.5 C -7.117188 -5.945312 -6.539062 -6.171875 -5.90625 -6.171875 C -5.238281 -6.171875 -4.664062 -5.9375 -4.1875 -5.46875 C -3.90625 -5.195312 -3.566406 -4.707031 -3.171875 -4 L -2.734375 -3.1875 C -2.523438 -2.8125 -2.320312 -2.515625 -2.125 -2.296875 C -1.789062 -1.898438 -1.414062 -1.648438 -1 -1.546875 L -1 -6.140625 L 0 -6.140625 Z M 0 -0.375 "/>
</g>
<g id="glyph-2-0">
<path d="M 1.078125 -10.375 L 9.4375 -10.375 L 9.4375 0 L 1.078125 0 Z M 8.140625 -1.296875 L 8.140625 -9.078125 L 2.375 -9.078125 L 2.375 -1.296875 Z M 8.140625 -1.296875 "/>
</g>
<g id="glyph-2-1">
<path d="M 5.5 -3.734375 L 3.296875 -3.734375 L 3.296875 0 L 1.140625 0 L 1.140625 -10.375 L 5.65625 -10.375 C 6.695312 -10.375 7.523438 -10.101562 8.140625 -9.5625 C 8.765625 -9.03125 9.078125 -8.203125 9.078125 -7.078125 C 9.078125 -5.859375 8.765625 -4.992188 8.140625 -4.484375 C 7.523438 -3.984375 6.644531 -3.734375 5.5 -3.734375 Z M 6.515625 -5.890625 C 6.796875 -6.140625 6.9375 -6.53125 6.9375 -7.0625 C 6.9375 -7.601562 6.789062 -7.988281 6.5 -8.21875 C 6.21875 -8.445312 5.820312 -8.5625 5.3125 -8.5625 L 3.296875 -8.5625 L 3.296875 -5.515625 L 5.3125 -5.515625 C 5.820312 -5.515625 6.222656 -5.640625 6.515625 -5.890625 Z M 6.515625 -5.890625 "/>
</g>
<g id="glyph-2-2">
<path d="M 8.40625 -0.78125 C 7.632812 -0.0703125 6.644531 0.28125 5.4375 0.28125 C 3.945312 0.28125 2.773438 -0.191406 1.921875 -1.140625 C 1.066406 -2.109375 0.640625 -3.425781 0.640625 -5.09375 C 0.640625 -6.90625 1.128906 -8.300781 2.109375 -9.28125 C 2.953125 -10.132812 4.023438 -10.5625 5.328125 -10.5625 C 7.066406 -10.5625 8.34375 -9.988281 9.15625 -8.84375 C 9.59375 -8.207031 9.832031 -7.566406 9.875 -6.921875 L 7.703125 -6.921875 C 7.554688 -7.410156 7.375 -7.785156 7.15625 -8.046875 C 6.757812 -8.492188 6.175781 -8.71875 5.40625 -8.71875 C 4.625 -8.71875 4.003906 -8.398438 3.546875 -7.765625 C 3.085938 -7.128906 2.859375 -6.226562 2.859375 -5.0625 C 2.859375 -3.894531 3.097656 -3.019531 3.578125 -2.4375 C 4.066406 -1.863281 4.679688 -1.578125 5.421875 -1.578125 C 6.179688 -1.578125 6.757812 -1.828125 7.15625 -2.328125 C 7.375 -2.597656 7.554688 -3 7.703125 -3.53125 L 9.84375 -3.53125 C 9.65625 -2.40625 9.175781 -1.488281 8.40625 -0.78125 Z M 8.40625 -0.78125 "/>
</g>
<g id="glyph-2-3">
<path d="M 7.328125 -6.703125 C 7.972656 -5.890625 8.296875 -4.925781 8.296875 -3.8125 C 8.296875 -2.6875 7.972656 -1.722656 7.328125 -0.921875 C 6.679688 -0.128906 5.695312 0.265625 4.375 0.265625 C 3.0625 0.265625 2.082031 -0.128906 1.4375 -0.921875 C 0.789062 -1.722656 0.46875 -2.6875 0.46875 -3.8125 C 0.46875 -4.925781 0.789062 -5.882812 1.4375 -6.6875 C 2.082031 -7.5 3.0625 -7.90625 4.375 -7.90625 C 5.695312 -7.90625 6.679688 -7.503906 7.328125 -6.703125 Z M 4.375 -6.21875 C 3.789062 -6.21875 3.335938 -6.007812 3.015625 -5.59375 C 2.703125 -5.175781 2.546875 -4.582031 2.546875 -3.8125 C 2.546875 -3.050781 2.703125 -2.457031 3.015625 -2.03125 C 3.335938 -1.613281 3.789062 -1.40625 4.375 -1.40625 C 4.957031 -1.40625 5.40625 -1.613281 5.71875 -2.03125 C 6.039062 -2.457031 6.203125 -3.050781 6.203125 -3.8125 C 6.203125 -4.582031 6.039062 -5.175781 5.71875 -5.59375 C 5.40625 -6.007812 4.957031 -6.21875 4.375 -6.21875 Z M 4.375 -6.21875 "/>
</g>
<g id="glyph-2-4">
<path d="M 7.171875 -2.125 L 3.34375 -2.125 L 2.625 0 L 0.359375 0 L 4.0625 -10.375 L 6.515625 -10.375 L 10.1875 0 L 7.84375 0 Z M 6.5625 -3.921875 L 5.265625 -8 L 3.9375 -3.921875 Z M 6.5625 -3.921875 "/>
</g>
<g id="glyph-2-5">
</g>
<g id="glyph-2-6">
<path d="M 4.546875 -6.1875 C 3.867188 -6.1875 3.398438 -5.894531 3.140625 -5.3125 C 3.015625 -5.007812 2.953125 -4.625 2.953125 -4.15625 L 2.953125 0 L 0.953125 0 L 0.953125 -7.65625 L 2.890625 -7.65625 L 2.890625 -6.53125 C 3.140625 -6.925781 3.378906 -7.210938 3.609375 -7.390625 C 4.023438 -7.691406 4.550781 -7.84375 5.1875 -7.84375 C 5.976562 -7.84375 6.625 -7.632812 7.125 -7.21875 C 7.632812 -6.8125 7.890625 -6.125 7.890625 -5.15625 L 7.890625 0 L 5.828125 0 L 5.828125 -4.65625 C 5.828125 -5.0625 5.773438 -5.375 5.671875 -5.59375 C 5.472656 -5.988281 5.097656 -6.1875 4.546875 -6.1875 Z M 4.546875 -6.1875 "/>
</g>
<g id="glyph-2-7">
<path d="M 7.453125 -0.25 C 6.878906 0.101562 6.175781 0.28125 5.34375 0.28125 C 3.96875 0.28125 2.84375 -0.195312 1.96875 -1.15625 C 1.050781 -2.113281 0.59375 -3.421875 0.59375 -5.078125 C 0.59375 -6.753906 1.054688 -8.097656 1.984375 -9.109375 C 2.910156 -10.128906 4.132812 -10.640625 5.65625 -10.640625 C 6.96875 -10.640625 8.023438 -10.300781 8.828125 -9.625 C 9.628906 -8.957031 10.085938 -8.125 10.203125 -7.125 L 8.0625 -7.125 C 7.90625 -7.832031 7.503906 -8.328125 6.859375 -8.609375 C 6.503906 -8.765625 6.109375 -8.84375 5.671875 -8.84375 C 4.835938 -8.84375 4.148438 -8.523438 3.609375 -7.890625 C 3.078125 -7.265625 2.8125 -6.320312 2.8125 -5.0625 C 2.8125 -3.78125 3.101562 -2.875 3.6875 -2.34375 C 4.269531 -1.8125 4.929688 -1.546875 5.671875 -1.546875 C 6.398438 -1.546875 6.992188 -1.753906 7.453125 -2.171875 C 7.921875 -2.597656 8.207031 -3.148438 8.3125 -3.828125 L 5.921875 -3.828125 L 5.921875 -5.5625 L 10.234375 -5.5625 L 10.234375 0 L 8.796875 0 L 8.578125 -1.296875 C 8.160156 -0.804688 7.785156 -0.457031 7.453125 -0.25 Z M 7.453125 -0.25 "/>
</g>
<g id="glyph-2-8">
<path d="M 6.75 0 L 5.546875 -5.578125 L 4.328125 0 L 2.25 0 L 0.09375 -7.671875 L 2.25 -7.671875 L 3.453125 -2.171875 L 4.546875 -7.671875 L 6.578125 -7.671875 L 7.75 -2.140625 L 8.953125 -7.671875 L 11.03125 -7.671875 L 8.8125 0 Z M 6.75 0 "/>
</g>
<g id="glyph-2-9">
<path d="M 7.5 -2.25 C 7.445312 -1.789062 7.207031 -1.328125 6.78125 -0.859375 C 6.125 -0.117188 5.207031 0.25 4.03125 0.25 C 3.050781 0.25 2.1875 -0.0625 1.4375 -0.6875 C 0.695312 -1.3125 0.328125 -2.332031 0.328125 -3.75 C 0.328125 -5.082031 0.660156 -6.101562 1.328125 -6.8125 C 2.003906 -7.519531 2.878906 -7.875 3.953125 -7.875 C 4.597656 -7.875 5.175781 -7.753906 5.6875 -7.515625 C 6.195312 -7.273438 6.617188 -6.894531 6.953125 -6.375 C 7.253906 -5.925781 7.445312 -5.398438 7.53125 -4.796875 C 7.582031 -4.441406 7.601562 -3.9375 7.59375 -3.28125 L 2.34375 -3.28125 C 2.375 -2.507812 2.617188 -1.96875 3.078125 -1.65625 C 3.347656 -1.46875 3.679688 -1.375 4.078125 -1.375 C 4.484375 -1.375 4.816406 -1.488281 5.078125 -1.71875 C 5.222656 -1.84375 5.347656 -2.019531 5.453125 -2.25 Z M 5.515625 -4.59375 C 5.484375 -5.125 5.320312 -5.523438 5.03125 -5.796875 C 4.738281 -6.078125 4.378906 -6.21875 3.953125 -6.21875 C 3.492188 -6.21875 3.132812 -6.070312 2.875 -5.78125 C 2.625 -5.488281 2.46875 -5.09375 2.40625 -4.59375 Z M 5.515625 -4.59375 "/>
</g>
<g id="glyph-2-10">
<path d="M 4.796875 -5.8125 C 3.984375 -5.8125 3.441406 -5.550781 3.171875 -5.03125 C 3.015625 -4.738281 2.9375 -4.285156 2.9375 -3.671875 L 2.9375 0 L 0.921875 0 L 0.921875 -7.671875 L 2.828125 -7.671875 L 2.828125 -6.328125 C 3.140625 -6.835938 3.410156 -7.1875 3.640625 -7.375 C 4.015625 -7.6875 4.5 -7.84375 5.09375 -7.84375 C 5.132812 -7.84375 5.164062 -7.84375 5.1875 -7.84375 C 5.21875 -7.84375 5.273438 -7.84375 5.359375 -7.84375 L 5.359375 -5.78125 C 5.234375 -5.789062 5.117188 -5.796875 5.015625 -5.796875 C 4.921875 -5.804688 4.847656 -5.8125 4.796875 -5.8125 Z M 4.796875 -5.8125 "/>
</g>
<g id="glyph-2-11">
<path d="M 3.140625 2.90625 L 2.640625 2.21875 C 2.316406 1.8125 1.972656 1.195312 1.609375 0.375 C 0.953125 -1.082031 0.625 -2.515625 0.625 -3.921875 C 0.625 -5.210938 0.898438 -6.488281 1.453125 -7.75 C 1.816406 -8.613281 2.359375 -9.539062 3.078125 -10.53125 L 4.59375 -10.53125 L 4.15625 -9.75 C 3.5625 -8.664062 3.148438 -7.53125 2.921875 -6.34375 C 2.773438 -5.5625 2.703125 -4.710938 2.703125 -3.796875 C 2.703125 -2.359375 2.910156 -1.039062 3.328125 0.15625 C 3.566406 0.875 4 1.789062 4.625 2.90625 Z M 3.140625 2.90625 "/>
</g>
<g id="glyph-2-12">
<path d="M 5.234375 -5.5625 C 5.066406 -5.925781 4.738281 -6.109375 4.25 -6.109375 C 3.675781 -6.109375 3.289062 -5.925781 3.09375 -5.5625 C 2.988281 -5.34375 2.9375 -5.023438 2.9375 -4.609375 L 2.9375 0 L 0.90625 0 L 0.90625 -7.65625 L 2.84375 -7.65625 L 2.84375 -6.53125 C 3.09375 -6.925781 3.328125 -7.210938 3.546875 -7.390625 C 3.941406 -7.691406 4.445312 -7.84375 5.0625 -7.84375 C 5.644531 -7.84375 6.117188 -7.710938 6.484375 -7.453125 C 6.773438 -7.210938 6.992188 -6.90625 7.140625 -6.53125 C 7.410156 -6.976562 7.738281 -7.304688 8.125 -7.515625 C 8.539062 -7.734375 9 -7.84375 9.5 -7.84375 C 9.84375 -7.84375 10.175781 -7.773438 10.5 -7.640625 C 10.832031 -7.503906 11.128906 -7.273438 11.390625 -6.953125 C 11.609375 -6.679688 11.753906 -6.351562 11.828125 -5.96875 C 11.878906 -5.707031 11.90625 -5.328125 11.90625 -4.828125 L 11.890625 0 L 9.828125 0 L 9.828125 -4.875 C 9.828125 -5.164062 9.78125 -5.40625 9.6875 -5.59375 C 9.507812 -5.957031 9.179688 -6.140625 8.703125 -6.140625 C 8.148438 -6.140625 7.769531 -5.90625 7.5625 -5.4375 C 7.457031 -5.195312 7.40625 -4.90625 7.40625 -4.5625 L 7.40625 0 L 5.375 0 L 5.375 -4.5625 C 5.375 -5.019531 5.328125 -5.351562 5.234375 -5.5625 Z M 5.234375 -5.5625 "/>
</g>
<g id="glyph-2-13">
<path d="M 3 -7.671875 L 3 0 L 0.96875 0 L 0.96875 -7.671875 Z M 3 -10.4375 L 3 -8.578125 L 0.96875 -8.578125 L 0.96875 -10.4375 Z M 3 -10.4375 "/>
</g>
<g id="glyph-2-14">
<path d="M 7.765625 0 L 5.265625 0 L 3.953125 -2.296875 L 2.609375 0 L 0.1875 0 L 2.796875 -3.890625 L 0.296875 -7.65625 L 2.75 -7.65625 L 4.03125 -5.4375 L 5.28125 -7.65625 L 7.671875 -7.65625 L 5.15625 -3.921875 Z M 7.765625 0 "/>
</g>
<g id="glyph-2-15">
<path d="M 7.90625 -10.359375 L 7.90625 0 L 5.96875 0 L 5.96875 -1.0625 C 5.675781 -0.601562 5.347656 -0.269531 4.984375 -0.0625 C 4.617188 0.132812 4.164062 0.234375 3.625 0.234375 C 2.726562 0.234375 1.972656 -0.125 1.359375 -0.84375 C 0.742188 -1.570312 0.4375 -2.503906 0.4375 -3.640625 C 0.4375 -4.941406 0.738281 -5.96875 1.34375 -6.71875 C 1.945312 -7.46875 2.753906 -7.84375 3.765625 -7.84375 C 4.222656 -7.84375 4.632812 -7.738281 5 -7.53125 C 5.363281 -7.332031 5.65625 -7.054688 5.875 -6.703125 L 5.875 -10.359375 Z M 2.515625 -3.78125 C 2.515625 -3.070312 2.65625 -2.507812 2.9375 -2.09375 C 3.207031 -1.664062 3.628906 -1.453125 4.203125 -1.453125 C 4.765625 -1.453125 5.191406 -1.660156 5.484375 -2.078125 C 5.785156 -2.503906 5.9375 -3.050781 5.9375 -3.71875 C 5.9375 -4.65625 5.695312 -5.328125 5.21875 -5.734375 C 4.9375 -5.972656 4.601562 -6.09375 4.21875 -6.09375 C 3.625 -6.09375 3.191406 -5.867188 2.921875 -5.421875 C 2.648438 -4.984375 2.515625 -4.4375 2.515625 -3.78125 Z M 2.515625 -3.78125 "/>
</g>
<g id="glyph-2-16">
<path d="M 0.328125 -4.96875 L 4.375 -4.96875 L 4.375 -3.0625 L 0.328125 -3.0625 Z M 0.328125 -4.96875 "/>
</g>
<g id="glyph-2-17">
<path d="M 4.453125 -1.421875 L 4.453125 0.078125 L 3.5 0.109375 C 2.550781 0.140625 1.898438 -0.0234375 1.546875 -0.390625 C 1.328125 -0.617188 1.21875 -0.972656 1.21875 -1.453125 L 1.21875 -6.171875 L 0.140625 -6.171875 L 0.140625 -7.59375 L 1.21875 -7.59375 L 1.21875 -9.734375 L 3.203125 -9.734375 L 3.203125 -7.59375 L 4.453125 -7.59375 L 4.453125 -6.171875 L 3.203125 -6.171875 L 3.203125 -2.125 C 3.203125 -1.800781 3.238281 -1.597656 3.3125 -1.515625 C 3.394531 -1.441406 3.640625 -1.40625 4.046875 -1.40625 C 4.109375 -1.40625 4.171875 -1.40625 4.234375 -1.40625 C 4.304688 -1.414062 4.378906 -1.421875 4.453125 -1.421875 Z M 4.453125 -1.421875 "/>
</g>
<g id="glyph-2-18">
<path d="M 4.046875 -2.015625 L 5.640625 -7.671875 L 7.765625 -7.671875 L 5.140625 -0.125 C 4.628906 1.320312 4.222656 2.222656 3.921875 2.578125 C 3.628906 2.929688 3.039062 3.109375 2.15625 3.109375 C 1.976562 3.109375 1.832031 3.101562 1.71875 3.09375 C 1.613281 3.09375 1.457031 3.085938 1.25 3.078125 L 1.25 1.46875 L 1.5 1.484375 C 1.695312 1.492188 1.882812 1.484375 2.0625 1.453125 C 2.238281 1.429688 2.390625 1.378906 2.515625 1.296875 C 2.628906 1.222656 2.734375 1.054688 2.828125 0.796875 C 2.929688 0.546875 2.976562 0.394531 2.96875 0.34375 L 0.140625 -7.671875 L 2.375 -7.671875 Z M 4.046875 -2.015625 "/>
</g>
<g id="glyph-2-19">
<path d="M 7.359375 -6.84375 C 7.972656 -6.1875 8.28125 -5.21875 8.28125 -3.9375 C 8.28125 -2.582031 7.976562 -1.550781 7.375 -0.84375 C 6.769531 -0.132812 5.988281 0.21875 5.03125 0.21875 C 4.414062 0.21875 3.910156 0.0664062 3.515625 -0.234375 C 3.285156 -0.410156 3.066406 -0.660156 2.859375 -0.984375 L 2.859375 3.015625 L 0.875 3.015625 L 0.875 -7.671875 L 2.796875 -7.671875 L 2.796875 -6.53125 C 3.015625 -6.863281 3.242188 -7.128906 3.484375 -7.328125 C 3.929688 -7.671875 4.460938 -7.84375 5.078125 -7.84375 C 5.972656 -7.84375 6.734375 -7.507812 7.359375 -6.84375 Z M 6.21875 -3.828125 C 6.21875 -4.421875 6.082031 -4.941406 5.8125 -5.390625 C 5.539062 -5.847656 5.101562 -6.078125 4.5 -6.078125 C 3.769531 -6.078125 3.269531 -5.734375 3 -5.046875 C 2.863281 -4.679688 2.796875 -4.21875 2.796875 -3.65625 C 2.796875 -2.769531 3.03125 -2.144531 3.5 -1.78125 C 3.78125 -1.570312 4.113281 -1.46875 4.5 -1.46875 C 5.0625 -1.46875 5.488281 -1.679688 5.78125 -2.109375 C 6.070312 -2.535156 6.21875 -3.109375 6.21875 -3.828125 Z M 6.21875 -3.828125 "/>
</g>
<g id="glyph-2-20">
<path d="M 1.21875 -6.84375 C 1.75 -7.507812 2.660156 -7.84375 3.953125 -7.84375 C 4.796875 -7.84375 5.539062 -7.675781 6.1875 -7.34375 C 6.84375 -7.007812 7.171875 -6.382812 7.171875 -5.46875 L 7.171875 -1.953125 C 7.171875 -1.703125 7.175781 -1.40625 7.1875 -1.0625 C 7.195312 -0.800781 7.234375 -0.625 7.296875 -0.53125 C 7.367188 -0.4375 7.46875 -0.359375 7.59375 -0.296875 L 7.59375 0 L 5.421875 0 C 5.359375 -0.15625 5.3125 -0.300781 5.28125 -0.4375 C 5.257812 -0.570312 5.242188 -0.726562 5.234375 -0.90625 C 4.953125 -0.601562 4.632812 -0.347656 4.28125 -0.140625 C 3.84375 0.105469 3.351562 0.234375 2.8125 0.234375 C 2.113281 0.234375 1.539062 0.0351562 1.09375 -0.359375 C 0.644531 -0.753906 0.421875 -1.316406 0.421875 -2.046875 C 0.421875 -2.984375 0.78125 -3.664062 1.5 -4.09375 C 1.90625 -4.320312 2.492188 -4.484375 3.265625 -4.578125 L 3.953125 -4.65625 C 4.316406 -4.707031 4.578125 -4.769531 4.734375 -4.84375 C 5.023438 -4.957031 5.171875 -5.144531 5.171875 -5.40625 C 5.171875 -5.71875 5.0625 -5.929688 4.84375 -6.046875 C 4.625 -6.171875 4.304688 -6.234375 3.890625 -6.234375 C 3.410156 -6.234375 3.070312 -6.117188 2.875 -5.890625 C 2.738281 -5.710938 2.644531 -5.476562 2.59375 -5.1875 L 0.65625 -5.1875 C 0.695312 -5.851562 0.882812 -6.40625 1.21875 -6.84375 Z M 2.71875 -1.453125 C 2.90625 -1.296875 3.132812 -1.21875 3.40625 -1.21875 C 3.832031 -1.21875 4.226562 -1.34375 4.59375 -1.59375 C 4.957031 -1.851562 5.144531 -2.316406 5.15625 -2.984375 L 5.15625 -3.734375 C 5.03125 -3.648438 4.90625 -3.582031 4.78125 -3.53125 C 4.65625 -3.476562 4.476562 -3.429688 4.25 -3.390625 L 3.796875 -3.3125 C 3.378906 -3.238281 3.078125 -3.144531 2.890625 -3.03125 C 2.578125 -2.851562 2.421875 -2.570312 2.421875 -2.1875 C 2.421875 -1.84375 2.519531 -1.597656 2.71875 -1.453125 Z M 2.71875 -1.453125 "/>
</g>
<g id="glyph-2-21">
<path d="M 5.09375 0.203125 C 4.46875 0.203125 3.960938 0.0742188 3.578125 -0.171875 C 3.347656 -0.328125 3.097656 -0.59375 2.828125 -0.96875 L 2.828125 0 L 0.859375 0 L 0.859375 -10.359375 L 2.859375 -10.359375 L 2.859375 -6.671875 C 3.117188 -7.023438 3.398438 -7.296875 3.703125 -7.484375 C 4.054688 -7.722656 4.515625 -7.84375 5.078125 -7.84375 C 6.085938 -7.84375 6.875 -7.476562 7.4375 -6.75 C 8.007812 -6.019531 8.296875 -5.082031 8.296875 -3.9375 C 8.296875 -2.738281 8.015625 -1.75 7.453125 -0.96875 C 6.890625 -0.1875 6.101562 0.203125 5.09375 0.203125 Z M 6.203125 -3.71875 C 6.203125 -4.257812 6.128906 -4.710938 5.984375 -5.078125 C 5.710938 -5.742188 5.222656 -6.078125 4.515625 -6.078125 C 3.785156 -6.078125 3.285156 -5.75 3.015625 -5.09375 C 2.867188 -4.738281 2.796875 -4.285156 2.796875 -3.734375 C 2.796875 -3.078125 2.941406 -2.53125 3.234375 -2.09375 C 3.523438 -1.664062 3.96875 -1.453125 4.5625 -1.453125 C 5.082031 -1.453125 5.484375 -1.660156 5.765625 -2.078125 C 6.054688 -2.492188 6.203125 -3.039062 6.203125 -3.71875 Z M 6.203125 -3.71875 "/>
</g>
<g id="glyph-2-22">
<path d="M 0.984375 -10.375 L 2.984375 -10.375 L 2.984375 0 L 0.984375 0 Z M 0.984375 -10.375 "/>
</g>
<g id="glyph-2-23">
<path d="M 2.125 2.21875 L 1.625 2.90625 L 0.140625 2.90625 C 0.765625 1.789062 1.195312 0.875 1.4375 0.15625 C 1.851562 -1.039062 2.0625 -2.359375 2.0625 -3.796875 C 2.0625 -4.710938 1.988281 -5.5625 1.84375 -6.34375 C 1.613281 -7.53125 1.203125 -8.664062 0.609375 -9.75 L 0.1875 -10.53125 L 1.6875 -10.53125 C 2.40625 -9.539062 2.945312 -8.613281 3.3125 -7.75 C 3.863281 -6.488281 4.140625 -5.210938 4.140625 -3.921875 C 4.140625 -2.515625 3.816406 -1.082031 3.171875 0.375 C 2.796875 1.195312 2.445312 1.8125 2.125 2.21875 Z M 2.125 2.21875 "/>
</g>
<g id="glyph-3-0">
<path d="M 0.265625 0 L 0.265625 -6.03125 L 5.0625 -6.03125 L 5.0625 0 Z M 4.296875 -0.75 L 4.296875 -5.28125 L 1.03125 -5.28125 L 1.03125 -0.75 Z M 4.296875 -0.75 "/>
</g>
<g id="glyph-3-1">
<path d="M 0.796875 -4.15625 L 0.796875 -4.734375 C 1.335938 -4.785156 1.710938 -4.867188 1.921875 -4.984375 C 2.128906 -5.109375 2.285156 -5.398438 2.390625 -5.859375 L 2.96875 -5.859375 L 2.96875 0 L 2.1875 0 L 2.1875 -4.15625 Z M 0.796875 -4.15625 "/>
</g>
<g id="glyph-3-2">
<path d="M 0.265625 0 C 0.285156 -0.507812 0.382812 -0.953125 0.5625 -1.328125 C 0.75 -1.703125 1.109375 -2.039062 1.640625 -2.34375 L 2.4375 -2.796875 C 2.78125 -3.003906 3.023438 -3.179688 3.171875 -3.328125 C 3.398438 -3.554688 3.515625 -3.816406 3.515625 -4.109375 C 3.515625 -4.453125 3.410156 -4.722656 3.203125 -4.921875 C 2.992188 -5.117188 2.71875 -5.21875 2.375 -5.21875 C 1.875 -5.21875 1.523438 -5.023438 1.328125 -4.640625 C 1.222656 -4.441406 1.164062 -4.160156 1.15625 -3.796875 L 0.40625 -3.796875 C 0.414062 -4.304688 0.507812 -4.722656 0.6875 -5.046875 C 1.007812 -5.609375 1.578125 -5.890625 2.390625 -5.890625 C 3.054688 -5.890625 3.546875 -5.707031 3.859375 -5.34375 C 4.171875 -4.988281 4.328125 -4.585938 4.328125 -4.140625 C 4.328125 -3.671875 4.160156 -3.269531 3.828125 -2.9375 C 3.640625 -2.738281 3.296875 -2.5 2.796875 -2.21875 L 2.234375 -1.90625 C 1.960938 -1.757812 1.753906 -1.617188 1.609375 -1.484375 C 1.328125 -1.253906 1.15625 -0.992188 1.09375 -0.703125 L 4.296875 -0.703125 L 4.296875 0 Z M 0.265625 0 "/>
</g>
<g id="glyph-3-3">
<path d="M 2.1875 0.15625 C 1.488281 0.15625 0.984375 -0.03125 0.671875 -0.40625 C 0.359375 -0.789062 0.203125 -1.257812 0.203125 -1.8125 L 0.96875 -1.8125 C 1 -1.425781 1.070312 -1.148438 1.1875 -0.984375 C 1.375 -0.671875 1.71875 -0.515625 2.21875 -0.515625 C 2.613281 -0.515625 2.925781 -0.617188 3.15625 -0.828125 C 3.394531 -1.035156 3.515625 -1.300781 3.515625 -1.625 C 3.515625 -2.03125 3.390625 -2.3125 3.140625 -2.46875 C 2.890625 -2.632812 2.546875 -2.71875 2.109375 -2.71875 C 2.054688 -2.71875 2.003906 -2.71875 1.953125 -2.71875 C 1.910156 -2.71875 1.863281 -2.71875 1.8125 -2.71875 L 1.8125 -3.359375 C 1.882812 -3.359375 1.945312 -3.351562 2 -3.34375 C 2.050781 -3.34375 2.109375 -3.34375 2.171875 -3.34375 C 2.441406 -3.34375 2.664062 -3.390625 2.84375 -3.484375 C 3.15625 -3.628906 3.3125 -3.898438 3.3125 -4.296875 C 3.3125 -4.585938 3.207031 -4.8125 3 -4.96875 C 2.789062 -5.132812 2.550781 -5.21875 2.28125 -5.21875 C 1.789062 -5.21875 1.445312 -5.050781 1.25 -4.71875 C 1.144531 -4.539062 1.085938 -4.285156 1.078125 -3.953125 L 0.34375 -3.953125 C 0.34375 -4.390625 0.429688 -4.757812 0.609375 -5.0625 C 0.910156 -5.613281 1.441406 -5.890625 2.203125 -5.890625 C 2.796875 -5.890625 3.253906 -5.753906 3.578125 -5.484375 C 3.910156 -5.210938 4.078125 -4.828125 4.078125 -4.328125 C 4.078125 -3.960938 3.984375 -3.671875 3.796875 -3.453125 C 3.671875 -3.304688 3.515625 -3.195312 3.328125 -3.125 C 3.628906 -3.039062 3.867188 -2.875 4.046875 -2.625 C 4.222656 -2.382812 4.3125 -2.085938 4.3125 -1.734375 C 4.3125 -1.179688 4.125 -0.726562 3.75 -0.375 C 3.382812 -0.0195312 2.863281 0.15625 2.1875 0.15625 Z M 2.1875 0.15625 "/>
</g>
<g id="glyph-3-4">
<path d="M 2.78125 -2.078125 L 2.78125 -4.75 L 0.890625 -2.078125 Z M 2.796875 0 L 2.796875 -1.4375 L 0.21875 -1.4375 L 0.21875 -2.15625 L 2.90625 -5.890625 L 3.53125 -5.890625 L 3.53125 -2.078125 L 4.390625 -2.078125 L 4.390625 -1.4375 L 3.53125 -1.4375 L 3.53125 0 Z M 2.796875 0 "/>
</g>
<g id="glyph-3-5">
<path d="M 1.03125 -1.5 C 1.082031 -1.070312 1.28125 -0.78125 1.625 -0.625 C 1.800781 -0.539062 2.003906 -0.5 2.234375 -0.5 C 2.671875 -0.5 2.992188 -0.640625 3.203125 -0.921875 C 3.410156 -1.203125 3.515625 -1.507812 3.515625 -1.84375 C 3.515625 -2.257812 3.390625 -2.578125 3.140625 -2.796875 C 2.890625 -3.023438 2.59375 -3.140625 2.25 -3.140625 C 1.988281 -3.140625 1.765625 -3.085938 1.578125 -2.984375 C 1.398438 -2.890625 1.25 -2.753906 1.125 -2.578125 L 0.484375 -2.609375 L 0.9375 -5.78125 L 3.984375 -5.78125 L 3.984375 -5.0625 L 1.484375 -5.0625 L 1.234375 -3.4375 C 1.367188 -3.539062 1.5 -3.617188 1.625 -3.671875 C 1.84375 -3.753906 2.097656 -3.796875 2.390625 -3.796875 C 2.921875 -3.796875 3.375 -3.625 3.75 -3.28125 C 4.125 -2.9375 4.3125 -2.492188 4.3125 -1.953125 C 4.3125 -1.398438 4.140625 -0.910156 3.796875 -0.484375 C 3.453125 -0.0664062 2.90625 0.140625 2.15625 0.140625 C 1.675781 0.140625 1.253906 0.0078125 0.890625 -0.25 C 0.523438 -0.519531 0.316406 -0.9375 0.265625 -1.5 Z M 1.03125 -1.5 "/>
</g>
<g id="glyph-3-6">
<path d="M 2.453125 -5.90625 C 3.109375 -5.90625 3.566406 -5.734375 3.828125 -5.390625 C 4.085938 -5.046875 4.21875 -4.695312 4.21875 -4.34375 L 3.484375 -4.34375 C 3.441406 -4.570312 3.375 -4.753906 3.28125 -4.890625 C 3.101562 -5.128906 2.832031 -5.25 2.46875 -5.25 C 2.050781 -5.25 1.722656 -5.054688 1.484375 -4.671875 C 1.242188 -4.296875 1.109375 -3.753906 1.078125 -3.046875 C 1.242188 -3.296875 1.457031 -3.476562 1.71875 -3.59375 C 1.957031 -3.707031 2.222656 -3.765625 2.515625 -3.765625 C 3.003906 -3.765625 3.429688 -3.601562 3.796875 -3.28125 C 4.160156 -2.96875 4.34375 -2.503906 4.34375 -1.890625 C 4.34375 -1.347656 4.164062 -0.867188 3.8125 -0.453125 C 3.46875 -0.046875 2.976562 0.15625 2.34375 0.15625 C 1.789062 0.15625 1.3125 -0.0507812 0.90625 -0.46875 C 0.507812 -0.882812 0.3125 -1.585938 0.3125 -2.578125 C 0.3125 -3.304688 0.398438 -3.925781 0.578125 -4.4375 C 0.921875 -5.414062 1.546875 -5.90625 2.453125 -5.90625 Z M 2.40625 -0.5 C 2.789062 -0.5 3.078125 -0.628906 3.265625 -0.890625 C 3.460938 -1.148438 3.5625 -1.460938 3.5625 -1.828125 C 3.5625 -2.128906 3.472656 -2.414062 3.296875 -2.6875 C 3.128906 -2.957031 2.820312 -3.09375 2.375 -3.09375 C 2.050781 -3.09375 1.769531 -2.984375 1.53125 -2.765625 C 1.289062 -2.554688 1.171875 -2.242188 1.171875 -1.828125 C 1.171875 -1.453125 1.28125 -1.132812 1.5 -0.875 C 1.71875 -0.625 2.019531 -0.5 2.40625 -0.5 Z M 2.40625 -0.5 "/>
</g>
<g id="glyph-3-7">
<path d="M 4.390625 -5.78125 L 4.390625 -5.140625 C 4.203125 -4.953125 3.953125 -4.628906 3.640625 -4.171875 C 3.328125 -3.722656 3.050781 -3.234375 2.8125 -2.703125 C 2.570312 -2.191406 2.390625 -1.726562 2.265625 -1.3125 C 2.191406 -1.039062 2.09375 -0.601562 1.96875 0 L 1.140625 0 C 1.328125 -1.125 1.738281 -2.238281 2.375 -3.34375 C 2.75 -4 3.144531 -4.5625 3.5625 -5.03125 L 0.3125 -5.03125 L 0.3125 -5.78125 Z M 4.390625 -5.78125 "/>
</g>
<g id="glyph-3-8">
<path d="M 1.109375 -1.421875 C 1.140625 -1.015625 1.300781 -0.734375 1.59375 -0.578125 C 1.738281 -0.492188 1.90625 -0.453125 2.09375 -0.453125 C 2.445312 -0.453125 2.75 -0.597656 3 -0.890625 C 3.25 -1.179688 3.425781 -1.78125 3.53125 -2.6875 C 3.363281 -2.425781 3.160156 -2.242188 2.921875 -2.140625 C 2.679688 -2.035156 2.421875 -1.984375 2.140625 -1.984375 C 1.566406 -1.984375 1.113281 -2.15625 0.78125 -2.5 C 0.457031 -2.851562 0.296875 -3.3125 0.296875 -3.875 C 0.296875 -4.40625 0.457031 -4.875 0.78125 -5.28125 C 1.113281 -5.6875 1.597656 -5.890625 2.234375 -5.890625 C 3.085938 -5.890625 3.675781 -5.503906 4 -4.734375 C 4.175781 -4.304688 4.265625 -3.773438 4.265625 -3.140625 C 4.265625 -2.421875 4.160156 -1.78125 3.953125 -1.21875 C 3.585938 -0.289062 2.976562 0.171875 2.125 0.171875 C 1.550781 0.171875 1.113281 0.0195312 0.8125 -0.28125 C 0.519531 -0.582031 0.375 -0.960938 0.375 -1.421875 Z M 2.234375 -2.625 C 2.523438 -2.625 2.789062 -2.71875 3.03125 -2.90625 C 3.28125 -3.101562 3.40625 -3.441406 3.40625 -3.921875 C 3.40625 -4.359375 3.296875 -4.679688 3.078125 -4.890625 C 2.859375 -5.109375 2.582031 -5.21875 2.25 -5.21875 C 1.882812 -5.21875 1.59375 -5.09375 1.375 -4.84375 C 1.164062 -4.601562 1.0625 -4.28125 1.0625 -3.875 C 1.0625 -3.488281 1.15625 -3.179688 1.34375 -2.953125 C 1.53125 -2.734375 1.828125 -2.625 2.234375 -2.625 Z M 2.234375 -2.625 "/>
</g>
<g id="glyph-3-9">
<path d="M 2.28125 -5.875 C 3.039062 -5.875 3.585938 -5.5625 3.921875 -4.9375 C 4.179688 -4.457031 4.3125 -3.796875 4.3125 -2.953125 C 4.3125 -2.148438 4.195312 -1.488281 3.96875 -0.96875 C 3.613281 -0.21875 3.046875 0.15625 2.265625 0.15625 C 1.554688 0.15625 1.03125 -0.148438 0.6875 -0.765625 C 0.40625 -1.273438 0.265625 -1.957031 0.265625 -2.8125 C 0.265625 -3.488281 0.347656 -4.066406 0.515625 -4.546875 C 0.835938 -5.429688 1.425781 -5.875 2.28125 -5.875 Z M 2.265625 -0.515625 C 2.648438 -0.515625 2.953125 -0.679688 3.171875 -1.015625 C 3.398438 -1.359375 3.515625 -1.992188 3.515625 -2.921875 C 3.515625 -3.585938 3.429688 -4.132812 3.265625 -4.5625 C 3.109375 -5 2.789062 -5.21875 2.3125 -5.21875 C 1.882812 -5.21875 1.566406 -5.007812 1.359375 -4.59375 C 1.160156 -4.1875 1.0625 -3.585938 1.0625 -2.796875 C 1.0625 -2.191406 1.125 -1.707031 1.25 -1.34375 C 1.445312 -0.789062 1.785156 -0.515625 2.265625 -0.515625 Z M 2.265625 -0.515625 "/>
</g>
<g id="glyph-3-10">
<path d="M 2.28125 -3.421875 C 2.613281 -3.421875 2.867188 -3.507812 3.046875 -3.6875 C 3.234375 -3.875 3.328125 -4.09375 3.328125 -4.34375 C 3.328125 -4.5625 3.238281 -4.757812 3.0625 -4.9375 C 2.882812 -5.125 2.617188 -5.21875 2.265625 -5.21875 C 1.910156 -5.21875 1.648438 -5.125 1.484375 -4.9375 C 1.328125 -4.757812 1.25 -4.546875 1.25 -4.296875 C 1.25 -4.023438 1.351562 -3.8125 1.5625 -3.65625 C 1.769531 -3.5 2.007812 -3.421875 2.28125 -3.421875 Z M 2.328125 -0.5 C 2.671875 -0.5 2.953125 -0.59375 3.171875 -0.78125 C 3.398438 -0.96875 3.515625 -1.242188 3.515625 -1.609375 C 3.515625 -1.984375 3.398438 -2.269531 3.171875 -2.46875 C 2.941406 -2.664062 2.644531 -2.765625 2.28125 -2.765625 C 1.925781 -2.765625 1.632812 -2.664062 1.40625 -2.46875 C 1.1875 -2.269531 1.078125 -1.992188 1.078125 -1.640625 C 1.078125 -1.328125 1.175781 -1.054688 1.375 -0.828125 C 1.582031 -0.609375 1.898438 -0.5 2.328125 -0.5 Z M 1.28125 -3.125 C 1.070312 -3.21875 0.910156 -3.320312 0.796875 -3.4375 C 0.578125 -3.65625 0.46875 -3.941406 0.46875 -4.296875 C 0.46875 -4.734375 0.625 -5.109375 0.9375 -5.421875 C 1.257812 -5.734375 1.710938 -5.890625 2.296875 -5.890625 C 2.859375 -5.890625 3.300781 -5.738281 3.625 -5.4375 C 3.945312 -5.144531 4.109375 -4.800781 4.109375 -4.40625 C 4.109375 -4.039062 4.015625 -3.742188 3.828125 -3.515625 C 3.722656 -3.390625 3.5625 -3.265625 3.34375 -3.140625 C 3.582031 -3.023438 3.773438 -2.894531 3.921875 -2.75 C 4.179688 -2.476562 4.3125 -2.125 4.3125 -1.6875 C 4.3125 -1.164062 4.132812 -0.722656 3.78125 -0.359375 C 3.4375 -0.00390625 2.945312 0.171875 2.3125 0.171875 C 1.738281 0.171875 1.253906 0.0117188 0.859375 -0.296875 C 0.460938 -0.609375 0.265625 -1.0625 0.265625 -1.65625 C 0.265625 -2 0.347656 -2.296875 0.515625 -2.546875 C 0.691406 -2.804688 0.945312 -3 1.28125 -3.125 Z M 1.28125 -3.125 "/>
</g>
</g>
<clipPath id="clip-0">
<path clip-rule="nonzero" d="M 59.039062 163 L 401.757812 163 L 401.757812 164 L 59.039062 164 Z M 59.039062 163 "/>
</clipPath>
<clipPath id="clip-1">
<path clip-rule="nonzero" d="M 217 59.039062 L 219 59.039062 L 219 286.558594 L 217 286.558594 Z M 217 59.039062 "/>
</clipPath>
</defs>
<rect x="-43.2" y="-36" width="518.4" height="432" fill="rgb(100%, 100%, 100%)" fill-opacity="1"/>
<path fill="none" stroke-width="0.75" stroke-linecap="round" stroke-linejoin="round" stroke="rgb(0%, 0%, 0%)" stroke-opacity="1" stroke-miterlimit="10" d="M 107.578125 286.558594 L 383.007812 286.558594 "/>
<path fill="none" stroke-width="0.75" stroke-linecap="round" stroke-linejoin="round" stroke="rgb(0%, 0%, 0%)" stroke-opacity="1" stroke-miterlimit="10" d="M 107.578125 286.558594 L 107.578125 293.761719 "/>
<path fill="none" stroke-width="0.75" stroke-linecap="round" stroke-linejoin="round" stroke="rgb(0%, 0%, 0%)" stroke-opacity="1" stroke-miterlimit="10" d="M 162.664062 286.558594 L 162.664062 293.761719 "/>
<path fill="none" stroke-width="0.75" stroke-linecap="round" stroke-linejoin="round" stroke="rgb(0%, 0%, 0%)" stroke-opacity="1" stroke-miterlimit="10" d="M 217.75 286.558594 L 217.75 293.761719 "/>
<path fill="none" stroke-width="0.75" stroke-linecap="round" stroke-linejoin="round" stroke="rgb(0%, 0%, 0%)" stroke-opacity="1" stroke-miterlimit="10" d="M 272.835938 286.558594 L 272.835938 293.761719 "/>
<path fill="none" stroke-width="0.75" stroke-linecap="round" stroke-linejoin="round" stroke="rgb(0%, 0%, 0%)" stroke-opacity="1" stroke-miterlimit="10" d="M 327.921875 286.558594 L 327.921875 293.761719 "/>
<path fill="none" stroke-width="0.75" stroke-linecap="round" stroke-linejoin="round" stroke="rgb(0%, 0%, 0%)" stroke-opacity="1" stroke-miterlimit="10" d="M 383.007812 286.558594 L 383.007812 293.761719 "/>
<g fill="rgb(0%, 0%, 0%)" fill-opacity="1">
<use xlink:href="#glyph-0-1" x="97.078125" y="311.720703"/>
<use xlink:href="#glyph-0-2" x="101.078125" y="311.720703"/>
<use xlink:href="#glyph-0-3" x="108.078125" y="311.720703"/>
<use xlink:href="#glyph-0-4" x="111.078125" y="311.720703"/>
</g>
<g fill="rgb(0%, 0%, 0%)" fill-opacity="1">
<use xlink:href="#glyph-0-1" x="152.164062" y="311.720703"/>
<use xlink:href="#glyph-0-4" x="156.164062" y="311.720703"/>
<use xlink:href="#glyph-0-3" x="163.164062" y="311.720703"/>
<use xlink:href="#glyph-0-5" x="166.164062" y="311.720703"/>
</g>
<g fill="rgb(0%, 0%, 0%)" fill-opacity="1">
<use xlink:href="#glyph-0-4" x="209.25" y="311.720703"/>
<use xlink:href="#glyph-0-3" x="216.25" y="311.720703"/>
<use xlink:href="#glyph-0-4" x="219.25" y="311.720703"/>
</g>
<g fill="rgb(0%, 0%, 0%)" fill-opacity="1">
<use xlink:href="#glyph-0-4" x="264.335938" y="311.720703"/>
<use xlink:href="#glyph-0-3" x="271.335938" y="311.720703"/>
<use xlink:href="#glyph-0-5" x="274.335938" y="311.720703"/>
</g>
<g fill="rgb(0%, 0%, 0%)" fill-opacity="1">
<use xlink:href="#glyph-0-2" x="319.421875" y="311.720703"/>
<use xlink:href="#glyph-0-3" x="326.421875" y="311.720703"/>
<use xlink:href="#glyph-0-4" x="329.421875" y="311.720703"/>
</g>
<g fill="rgb(0%, 0%, 0%)" fill-opacity="1">
<use xlink:href="#glyph-0-2" x="374.507812" y="311.720703"/>
<use xlink:href="#glyph-0-3" x="381.507812" y="311.720703"/>
<use xlink:href="#glyph-0-5" x="384.507812" y="311.720703"/>
</g>
<path fill="none" stroke-width="0.75" stroke-linecap="round" stroke-linejoin="round" stroke="rgb(0%, 0%, 0%)" stroke-opacity="1" stroke-miterlimit="10" d="M 59.039062 273.601562 L 59.039062 108.34375 "/>
<path fill="none" stroke-width="0.75" stroke-linecap="round" stroke-linejoin="round" stroke="rgb(0%, 0%, 0%)" stroke-opacity="1" stroke-miterlimit="10" d="M 59.039062 273.601562 L 51.839844 273.601562 "/>
<path fill="none" stroke-width="0.75" stroke-linecap="round" stroke-linejoin="round" stroke="rgb(0%, 0%, 0%)" stroke-opacity="1" stroke-miterlimit="10" d="M 59.039062 218.515625 L 51.839844 218.515625 "/>
<path fill="none" stroke-width="0.75" stroke-linecap="round" stroke-linejoin="round" stroke="rgb(0%, 0%, 0%)" stroke-opacity="1" stroke-miterlimit="10" d="M 59.039062 163.429688 L 51.839844 163.429688 "/>
<path fill="none" stroke-width="0.75" stroke-linecap="round" stroke-linejoin="round" stroke="rgb(0%, 0%, 0%)" stroke-opacity="1" stroke-miterlimit="10" d="M 59.039062 108.34375 L 51.839844 108.34375 "/>
<g fill="rgb(0%, 0%, 0%)" fill-opacity="1">
<use xlink:href="#glyph-1-1" x="41.001953" y="284.101562"/>
<use xlink:href="#glyph-1-2" x="41.001953" y="280.101562"/>
<use xlink:href="#glyph-1-3" x="41.001953" y="273.101562"/>
<use xlink:href="#glyph-1-4" x="41.001953" y="270.101562"/>
</g>
<g fill="rgb(0%, 0%, 0%)" fill-opacity="1">
<use xlink:href="#glyph-1-1" x="41.001953" y="229.015625"/>
<use xlink:href="#glyph-1-4" x="41.001953" y="225.015625"/>
<use xlink:href="#glyph-1-3" x="41.001953" y="218.015625"/>
<use xlink:href="#glyph-1-5" x="41.001953" y="215.015625"/>
</g>
<g fill="rgb(0%, 0%, 0%)" fill-opacity="1">
<use xlink:href="#glyph-1-4" x="41.001953" y="171.929688"/>
<use xlink:href="#glyph-1-3" x="41.001953" y="164.929688"/>
<use xlink:href="#glyph-1-4" x="41.001953" y="161.929688"/>
</g>
<g fill="rgb(0%, 0%, 0%)" fill-opacity="1">
<use xlink:href="#glyph-1-4" x="41.001953" y="116.84375"/>
<use xlink:href="#glyph-1-3" x="41.001953" y="109.84375"/>
<use xlink:href="#glyph-1-5" x="41.001953" y="106.84375"/>
</g>
<path fill="none" stroke-width="0.75" stroke-linecap="round" stroke-linejoin="round" stroke="rgb(0%, 0%, 0%)" stroke-opacity="1" stroke-miterlimit="10" d="M 59.039062 286.558594 L 401.761719 286.558594 L 401.761719 59.039062 L 59.039062 59.039062 Z M 59.039062 286.558594 "/>
<g fill="rgb(0%, 0%, 0%)" fill-opacity="1">
<use xlink:href="#glyph-2-1" x="110.898438" y="34.107422"/>
<use xlink:href="#glyph-2-2" x="120.898438" y="34.107422"/>
<use xlink:href="#glyph-2-3" x="130.898438" y="34.107422"/>
<use xlink:href="#glyph-2-4" x="139.898438" y="34.107422"/>
<use xlink:href="#glyph-2-5" x="149.898438" y="34.107422"/>
<use xlink:href="#glyph-2-3" x="153.898438" y="34.107422"/>
<use xlink:href="#glyph-2-6" x="162.898438" y="34.107422"/>
<use xlink:href="#glyph-2-5" x="171.898438" y="34.107422"/>
<use xlink:href="#glyph-2-7" x="175.898438" y="34.107422"/>
<use xlink:href="#glyph-2-3" x="186.898438" y="34.107422"/>
<use xlink:href="#glyph-2-8" x="195.898438" y="34.107422"/>
<use xlink:href="#glyph-2-9" x="206.898438" y="34.107422"/>
<use xlink:href="#glyph-2-10" x="214.898438" y="34.107422"/>
<use xlink:href="#glyph-2-5" x="220.898438" y="34.107422"/>
<use xlink:href="#glyph-2-11" x="224.898438" y="34.107422"/>
<use xlink:href="#glyph-2-12" x="229.898438" y="34.107422"/>
<use xlink:href="#glyph-2-13" x="242.898438" y="34.107422"/>
<use xlink:href="#glyph-2-14" x="246.898438" y="34.107422"/>
<use xlink:href="#glyph-2-9" x="254.898438" y="34.107422"/>
<use xlink:href="#glyph-2-15" x="262.898438" y="34.107422"/>
<use xlink:href="#glyph-2-16" x="271.898438" y="34.107422"/>
<use xlink:href="#glyph-2-17" x="276.898438" y="34.107422"/>
<use xlink:href="#glyph-2-18" x="281.898438" y="34.107422"/>
<use xlink:href="#glyph-2-19" x="289.898438" y="34.107422"/>
<use xlink:href="#glyph-2-9" x="298.898438" y="34.107422"/>
<use xlink:href="#glyph-2-5" x="306.898438" y="34.107422"/>
<use xlink:href="#glyph-2-17" x="310.898438" y="34.107422"/>
<use xlink:href="#glyph-2-20" x="315.898438" y="34.107422"/>
<use xlink:href="#glyph-2-21" x="323.898438" y="34.107422"/>
<use xlink:href="#glyph-2-22" x="332.898438" y="34.107422"/>
<use xlink:href="#glyph-2-9" x="336.898438" y="34.107422"/>
<use xlink:href="#glyph-2-23" x="344.898438" y="34.107422"/>
</g>
<g fill="rgb(0%, 0%, 0%)" fill-opacity="1">
<use xlink:href="#glyph-0-6" x="213.398438" y="340.521484"/>
<use xlink:href="#glyph-0-7" x="223.398438" y="340.521484"/>
<use xlink:href="#glyph-0-8" x="232.398438" y="340.521484"/>
<use xlink:href="#glyph-0-2" x="240.398438" y="340.521484"/>
</g>
<g fill="rgb(0%, 0%, 0%)" fill-opacity="1">
<use xlink:href="#glyph-1-6" x="12.201172" y="189.800781"/>
<use xlink:href="#glyph-1-7" x="12.201172" y="179.800781"/>
<use xlink:href="#glyph-1-8" x="12.201172" y="170.800781"/>
<use xlink:href="#glyph-1-9" x="12.201172" y="162.800781"/>
</g>
<g clip-path="url(#clip-0)">
<path fill="none" stroke-width="0.75" stroke-linecap="round" stroke-linejoin="round" stroke="rgb(0%, 0%, 0%)" stroke-opacity="1" stroke-dasharray="0.75 2.25" stroke-miterlimit="10" d="M 59.039062 163.429688 L 401.761719 163.429688 "/>
</g>
<g clip-path="url(#clip-1)">
<path fill="none" stroke-width="0.75" stroke-linecap="round" stroke-linejoin="round" stroke="rgb(0%, 0%, 0%)" stroke-opacity="1" stroke-dasharray="0.75 2.25" stroke-miterlimit="10" d="M 217.75 286.558594 L 217.75 59.039062 "/>
</g>
<g fill="rgb(0%, 0%, 0%)" fill-opacity="1">
<use xlink:href="#glyph-3-1" x="118.511719" y="118.459961"/>
</g>
<g fill="rgb(0%, 0%, 0%)" fill-opacity="1">
<use xlink:href="#glyph-3-2" x="144.757812" y="126.928711"/>
</g>
<g fill="rgb(0%, 0%, 0%)" fill-opacity="1">
<use xlink:href="#glyph-3-3" x="146.738281" y="144.506836"/>
</g>
<g fill="rgb(0%, 0%, 0%)" fill-opacity="1">
<use xlink:href="#glyph-3-4" x="154.449219" y="141.241211"/>
</g>
<g fill="rgb(0%, 0%, 0%)" fill-opacity="1">
<use xlink:href="#glyph-3-5" x="178.085938" y="92.756836"/>
</g>
<g fill="rgb(0%, 0%, 0%)" fill-opacity="1">
<use xlink:href="#glyph-3-6" x="159.511719" y="111.104492"/>
</g>
<g fill="rgb(0%, 0%, 0%)" fill-opacity="1">
<use xlink:href="#glyph-3-7" x="160.285156" y="148.53418"/>
</g>
<g fill="rgb(0%, 0%, 0%)" fill-opacity="1">
<use xlink:href="#glyph-3-8" x="186.984375" y="97.549805"/>
</g>
<g fill="rgb(0%, 0%, 0%)" fill-opacity="1">
<use xlink:href="#glyph-3-1" x="172.914062" y="139.366211"/>
<use xlink:href="#glyph-3-9" x="177.914062" y="139.366211"/>
</g>
<g fill="rgb(0%, 0%, 0%)" fill-opacity="1">
<use xlink:href="#glyph-3-1" x="190.914062" y="168.081055"/>
<use xlink:href="#glyph-3-1" x="194.914062" y="168.081055"/>
</g>
<g fill="rgb(0%, 0%, 0%)" fill-opacity="1">
<use xlink:href="#glyph-3-1" x="182.097656" y="165.291992"/>
<use xlink:href="#glyph-3-2" x="187.097656" y="165.291992"/>
</g>
<g fill="rgb(0%, 0%, 0%)" fill-opacity="1">
<use xlink:href="#glyph-3-1" x="186.3125" y="172.00293"/>
<use xlink:href="#glyph-3-3" x="191.3125" y="172.00293"/>
</g>
<g fill="rgb(0%, 0%, 0%)" fill-opacity="1">
<use xlink:href="#glyph-3-1" x="204.089844" y="253.936523"/>
<use xlink:href="#glyph-3-4" x="209.089844" y="253.936523"/>
</g>
<g fill="rgb(0%, 0%, 0%)" fill-opacity="1">
<use xlink:href="#glyph-3-1" x="199.480469" y="280.100586"/>
<use xlink:href="#glyph-3-5" x="204.480469" y="280.100586"/>
</g>
<g fill="rgb(0%, 0%, 0%)" fill-opacity="1">
<use xlink:href="#glyph-3-1" x="208.507812" y="223.026367"/>
<use xlink:href="#glyph-3-6" x="213.507812" y="223.026367"/>
</g>
<g fill="rgb(0%, 0%, 0%)" fill-opacity="1">
<use xlink:href="#glyph-3-1" x="221.890625" y="216.436523"/>
<use xlink:href="#glyph-3-7" x="226.890625" y="216.436523"/>
</g>
<g fill="rgb(0%, 0%, 0%)" fill-opacity="1">
<use xlink:href="#glyph-3-1" x="220.917969" y="221.713867"/>
<use xlink:href="#glyph-3-10" x="225.917969" y="221.713867"/>
</g>
<g fill="rgb(0%, 0%, 0%)" fill-opacity="1">
<use xlink:href="#glyph-3-1" x="221.277344" y="228.819336"/>
<use xlink:href="#glyph-3-8" x="226.277344" y="228.819336"/>
</g>
<g fill="rgb(0%, 0%, 0%)" fill-opacity="1">
<use xlink:href="#glyph-3-2" x="227.214844" y="221.764648"/>
<use xlink:href="#glyph-3-9" x="232.214844" y="221.764648"/>
</g>
<g fill="rgb(0%, 0%, 0%)" fill-opacity="1">
<use xlink:href="#glyph-3-2" x="229.722656" y="212.389648"/>
<use xlink:href="#glyph-3-1" x="234.722656" y="212.389648"/>
</g>
<g fill="rgb(0%, 0%, 0%)" fill-opacity="1">
<use xlink:href="#glyph-3-2" x="229.472656" y="218.057617"/>
<use xlink:href="#glyph-3-2" x="234.472656" y="218.057617"/>
</g>
<g fill="rgb(0%, 0%, 0%)" fill-opacity="1">
<use xlink:href="#glyph-3-2" x="296.136719" y="113.229492"/>
<use xlink:href="#glyph-3-3" x="301.136719" y="113.229492"/>
</g>
<g fill="rgb(0%, 0%, 0%)" fill-opacity="1">
<use xlink:href="#glyph-3-2" x="279.511719" y="122.081055"/>
<use xlink:href="#glyph-3-4" x="284.511719" y="122.081055"/>
</g>
<g fill="rgb(0%, 0%, 0%)" fill-opacity="1">
<use xlink:href="#glyph-3-2" x="334.785156" y="69.432617"/>
<use xlink:href="#glyph-3-5" x="339.785156" y="69.432617"/>
</g>
<g fill="rgb(0%, 0%, 0%)" fill-opacity="1">
<use xlink:href="#glyph-3-2" x="276.097656" y="122.06543"/>
<use xlink:href="#glyph-3-6" x="281.097656" y="122.06543"/>
</g>
<g fill="rgb(0%, 0%, 0%)" fill-opacity="1">
<use xlink:href="#glyph-3-2" x="263.976562" y="144.467773"/>
<use xlink:href="#glyph-3-7" x="268.976562" y="144.467773"/>
</g>
<g fill="rgb(0%, 0%, 0%)" fill-opacity="1">
<use xlink:href="#glyph-3-2" x="270.941406" y="171.69043"/>
<use xlink:href="#glyph-3-10" x="275.941406" y="171.69043"/>
</g>
<g fill="rgb(0%, 0%, 0%)" fill-opacity="1">
<use xlink:href="#glyph-3-2" x="260.292969" y="173.229492"/>
<use xlink:href="#glyph-3-8" x="265.292969" y="173.229492"/>
</g>
<g fill="rgb(0%, 0%, 0%)" fill-opacity="1">
<use xlink:href="#glyph-3-3" x="264.910156" y="184.280273"/>
<use xlink:href="#glyph-3-9" x="269.910156" y="184.280273"/>
</g>
</svg>
