<?xml version="1.0" encoding="UTF-8"?>
<svg xmlns="http://www.w3.org/2000/svg" xmlns:xlink="http://www.w3.org/1999/xlink" width="324pt" height="216pt" viewBox="0 0 324 216">
<defs>
<g>
<g id="glyph-0-0">
<path d="M 0.28125 0 L 0.28125 -6.3125 L 5.296875 -6.3125 L 5.296875 0 Z M 4.5 -0.796875 L 4.5 -5.515625 L 1.078125 -5.515625 L 1.078125 -0.796875 Z M 4.5 -0.796875 "/>
</g>
<g id="glyph-0-1">
<path d="M 1.09375 -1.5625 C 1.132812 -1.125 1.335938 -0.820312 1.703125 -0.65625 C 1.878906 -0.570312 2.09375 -0.53125 2.34375 -0.53125 C 2.800781 -0.53125 3.140625 -0.675781 3.359375 -0.96875 C 3.578125 -1.257812 3.6875 -1.582031 3.6875 -1.9375 C 3.6875 -2.363281 3.554688 -2.691406 3.296875 -2.921875 C 3.035156 -3.160156 2.71875 -3.28125 2.34375 -3.28125 C 2.082031 -3.28125 1.851562 -3.226562 1.65625 -3.125 C 1.46875 -3.019531 1.304688 -2.878906 1.171875 -2.703125 L 0.5 -2.734375 L 0.96875 -6.046875 L 4.171875 -6.046875 L 4.171875 -5.296875 L 1.5625 -5.296875 L 1.296875 -3.59375 C 1.429688 -3.695312 1.566406 -3.773438 1.703125 -3.828125 C 1.929688 -3.929688 2.195312 -3.984375 2.5 -3.984375 C 3.0625 -3.984375 3.535156 -3.800781 3.921875 -3.4375 C 4.316406 -3.070312 4.515625 -2.609375 4.515625 -2.046875 C 4.515625 -1.460938 4.332031 -0.945312 3.96875 -0.5 C 3.613281 -0.0625 3.046875 0.15625 2.265625 0.15625 C 1.753906 0.15625 1.304688 0.0117188 0.921875 -0.265625 C 0.546875 -0.546875 0.332031 -0.976562 0.28125 -1.5625 Z M 1.09375 -1.5625 "/>
</g>
<g id="glyph-0-2">
<path d="M 0.84375 -4.359375 L 0.84375 -4.953125 C 1.394531 -5.003906 1.78125 -5.09375 2 -5.21875 C 2.226562 -5.34375 2.394531 -5.644531 2.5 -6.125 L 3.109375 -6.125 L 3.109375 0 L 2.296875 0 L 2.296875 -4.359375 Z M 0.84375 -4.359375 "/>
</g>
<g id="glyph-0-3">
<path d="M 2.375 -6.15625 C 3.175781 -6.15625 3.753906 -5.828125 4.109375 -5.171875 C 4.378906 -4.660156 4.515625 -3.960938 4.515625 -3.078125 C 4.515625 -2.242188 4.390625 -1.554688 4.140625 -1.015625 C 3.785156 -0.222656 3.195312 0.171875 2.375 0.171875 C 1.632812 0.171875 1.082031 -0.148438 0.71875 -0.796875 C 0.425781 -1.328125 0.28125 -2.046875 0.28125 -2.953125 C 0.28125 -3.648438 0.367188 -4.25 0.546875 -4.75 C 0.878906 -5.6875 1.488281 -6.15625 2.375 -6.15625 Z M 2.375 -0.53125 C 2.769531 -0.53125 3.085938 -0.707031 3.328125 -1.0625 C 3.566406 -1.425781 3.6875 -2.085938 3.6875 -3.046875 C 3.6875 -3.753906 3.597656 -4.332031 3.421875 -4.78125 C 3.253906 -5.226562 2.921875 -5.453125 2.421875 -5.453125 C 1.972656 -5.453125 1.640625 -5.238281 1.421875 -4.8125 C 1.210938 -4.382812 1.109375 -3.753906 1.109375 -2.921875 C 1.109375 -2.296875 1.175781 -1.789062 1.3125 -1.40625 C 1.519531 -0.820312 1.875 -0.53125 2.375 -0.53125 Z M 2.375 -0.53125 "/>
</g>
<g id="glyph-0-4">
<path d="M 0.28125 0 C 0.300781 -0.53125 0.40625 -0.988281 0.59375 -1.375 C 0.789062 -1.769531 1.164062 -2.128906 1.71875 -2.453125 L 2.546875 -2.921875 C 2.910156 -3.140625 3.164062 -3.328125 3.3125 -3.484375 C 3.550781 -3.710938 3.671875 -3.984375 3.671875 -4.296875 C 3.671875 -4.648438 3.5625 -4.929688 3.34375 -5.140625 C 3.132812 -5.359375 2.847656 -5.46875 2.484375 -5.46875 C 1.960938 -5.46875 1.597656 -5.265625 1.390625 -4.859375 C 1.285156 -4.648438 1.226562 -4.351562 1.21875 -3.96875 L 0.421875 -3.96875 C 0.429688 -4.5 0.53125 -4.9375 0.71875 -5.28125 C 1.050781 -5.875 1.644531 -6.171875 2.5 -6.171875 C 3.195312 -6.171875 3.707031 -5.976562 4.03125 -5.59375 C 4.363281 -5.21875 4.53125 -4.796875 4.53125 -4.328125 C 4.53125 -3.835938 4.351562 -3.414062 4 -3.0625 C 3.800781 -2.863281 3.441406 -2.617188 2.921875 -2.328125 L 2.34375 -2 C 2.0625 -1.84375 1.835938 -1.695312 1.671875 -1.5625 C 1.390625 -1.3125 1.210938 -1.035156 1.140625 -0.734375 L 4.5 -0.734375 L 4.5 0 Z M 0.28125 0 "/>
</g>
<g id="glyph-0-5">
<path d="M 2.34375 -4.734375 C 2.863281 -4.734375 3.285156 -4.609375 3.609375 -4.359375 C 3.929688 -4.109375 4.125 -3.671875 4.1875 -3.046875 L 3.4375 -3.046875 C 3.394531 -3.335938 3.289062 -3.578125 3.125 -3.765625 C 2.957031 -3.953125 2.695312 -4.046875 2.34375 -4.046875 C 1.851562 -4.046875 1.5 -3.800781 1.28125 -3.3125 C 1.144531 -3.007812 1.078125 -2.628906 1.078125 -2.171875 C 1.078125 -1.703125 1.171875 -1.3125 1.359375 -1 C 1.554688 -0.6875 1.867188 -0.53125 2.296875 -0.53125 C 2.609375 -0.53125 2.859375 -0.625 3.046875 -0.8125 C 3.234375 -1.007812 3.363281 -1.28125 3.4375 -1.625 L 4.1875 -1.625 C 4.101562 -1.019531 3.890625 -0.570312 3.546875 -0.28125 C 3.203125 0 2.765625 0.140625 2.234375 0.140625 C 1.628906 0.140625 1.144531 -0.078125 0.78125 -0.515625 C 0.425781 -0.960938 0.25 -1.515625 0.25 -2.171875 C 0.25 -2.984375 0.445312 -3.613281 0.84375 -4.0625 C 1.238281 -4.507812 1.738281 -4.734375 2.34375 -4.734375 Z M 2.21875 -4.71875 Z M 2.21875 -4.71875 "/>
</g>
<g id="glyph-0-6">
<path d="M 1.15625 -1.21875 C 1.15625 -1 1.238281 -0.820312 1.40625 -0.6875 C 1.570312 -0.5625 1.765625 -0.5 1.984375 -0.5 C 2.253906 -0.5 2.519531 -0.5625 2.78125 -0.6875 C 3.207031 -0.894531 3.421875 -1.238281 3.421875 -1.71875 L 3.421875 -2.34375 C 3.328125 -2.28125 3.203125 -2.226562 3.046875 -2.1875 C 2.898438 -2.144531 2.753906 -2.117188 2.609375 -2.109375 L 2.140625 -2.046875 C 1.867188 -2.003906 1.660156 -1.945312 1.515625 -1.875 C 1.273438 -1.738281 1.15625 -1.519531 1.15625 -1.21875 Z M 3.03125 -2.78125 C 3.207031 -2.8125 3.328125 -2.890625 3.390625 -3.015625 C 3.421875 -3.078125 3.4375 -3.175781 3.4375 -3.3125 C 3.4375 -3.570312 3.34375 -3.757812 3.15625 -3.875 C 2.96875 -4 2.703125 -4.0625 2.359375 -4.0625 C 1.953125 -4.0625 1.664062 -3.953125 1.5 -3.734375 C 1.40625 -3.609375 1.34375 -3.429688 1.3125 -3.203125 L 0.59375 -3.203125 C 0.601562 -3.765625 0.785156 -4.15625 1.140625 -4.375 C 1.492188 -4.601562 1.90625 -4.71875 2.375 -4.71875 C 2.914062 -4.71875 3.351562 -4.613281 3.6875 -4.40625 C 4.019531 -4.195312 4.1875 -3.875 4.1875 -3.4375 L 4.1875 -0.796875 C 4.1875 -0.710938 4.203125 -0.644531 4.234375 -0.59375 C 4.273438 -0.550781 4.347656 -0.53125 4.453125 -0.53125 C 4.484375 -0.53125 4.519531 -0.53125 4.5625 -0.53125 C 4.601562 -0.53125 4.648438 -0.535156 4.703125 -0.546875 L 4.703125 0.015625 C 4.578125 0.0546875 4.484375 0.078125 4.421875 0.078125 C 4.359375 0.0859375 4.273438 0.09375 4.171875 0.09375 C 3.898438 0.09375 3.707031 0 3.59375 -0.1875 C 3.53125 -0.28125 3.484375 -0.421875 3.453125 -0.609375 C 3.296875 -0.398438 3.070312 -0.21875 2.78125 -0.0625 C 2.488281 0.0820312 2.160156 0.15625 1.796875 0.15625 C 1.367188 0.15625 1.019531 0.0234375 0.75 -0.234375 C 0.488281 -0.492188 0.359375 -0.816406 0.359375 -1.203125 C 0.359375 -1.628906 0.488281 -1.957031 0.75 -2.1875 C 1.019531 -2.425781 1.367188 -2.578125 1.796875 -2.640625 Z M 2.390625 -4.71875 Z M 2.390625 -4.71875 "/>
</g>
<g id="glyph-0-7">
<path d="M 0.59375 -4.59375 L 1.328125 -4.59375 L 1.328125 -3.8125 C 1.378906 -3.957031 1.523438 -4.140625 1.765625 -4.359375 C 2.003906 -4.585938 2.273438 -4.703125 2.578125 -4.703125 C 2.585938 -4.703125 2.609375 -4.695312 2.640625 -4.6875 C 2.679688 -4.6875 2.742188 -4.6875 2.828125 -4.6875 L 2.828125 -3.859375 C 2.773438 -3.867188 2.726562 -3.875 2.6875 -3.875 C 2.65625 -3.882812 2.617188 -3.890625 2.578125 -3.890625 C 2.179688 -3.890625 1.878906 -3.765625 1.671875 -3.515625 C 1.460938 -3.265625 1.359375 -2.972656 1.359375 -2.640625 L 1.359375 0 L 0.59375 0 Z M 0.59375 -4.59375 "/>
</g>
<g id="glyph-0-8">
<path d="M 0.5625 -4.59375 L 1.296875 -4.59375 L 1.296875 -3.953125 C 1.515625 -4.210938 1.742188 -4.398438 1.984375 -4.515625 C 2.234375 -4.640625 2.507812 -4.703125 2.8125 -4.703125 C 3.457031 -4.703125 3.894531 -4.472656 4.125 -4.015625 C 4.25 -3.765625 4.3125 -3.410156 4.3125 -2.953125 L 4.3125 0 L 3.53125 0 L 3.53125 -2.90625 C 3.53125 -3.175781 3.488281 -3.398438 3.40625 -3.578125 C 3.269531 -3.859375 3.019531 -4 2.65625 -4 C 2.476562 -4 2.328125 -3.984375 2.203125 -3.953125 C 1.992188 -3.890625 1.8125 -3.765625 1.65625 -3.578125 C 1.519531 -3.421875 1.429688 -3.257812 1.390625 -3.09375 C 1.359375 -2.9375 1.34375 -2.707031 1.34375 -2.40625 L 1.34375 0 L 0.5625 0 Z M 2.390625 -4.71875 Z M 2.390625 -4.71875 "/>
</g>
<g id="glyph-0-9">
<path d="M 0.5625 -4.578125 L 1.359375 -4.578125 L 1.359375 0 L 0.5625 0 Z M 0.5625 -6.3125 L 1.359375 -6.3125 L 1.359375 -5.4375 L 0.5625 -5.4375 Z M 0.5625 -6.3125 "/>
</g>
<g id="glyph-0-10">
<path d="M 0.5625 -6.328125 L 1.34375 -6.328125 L 1.34375 -3.984375 C 1.519531 -4.210938 1.679688 -4.375 1.828125 -4.46875 C 2.078125 -4.632812 2.390625 -4.71875 2.765625 -4.71875 C 3.429688 -4.71875 3.882812 -4.484375 4.125 -4.015625 C 4.25 -3.753906 4.3125 -3.398438 4.3125 -2.953125 L 4.3125 0 L 3.515625 0 L 3.515625 -2.90625 C 3.515625 -3.238281 3.472656 -3.484375 3.390625 -3.640625 C 3.253906 -3.890625 2.992188 -4.015625 2.609375 -4.015625 C 2.285156 -4.015625 1.992188 -3.90625 1.734375 -3.6875 C 1.472656 -3.46875 1.34375 -3.050781 1.34375 -2.4375 L 1.34375 0 L 0.5625 0 Z M 0.5625 -6.328125 "/>
</g>
<g id="glyph-0-11">
<path d="M 2.484375 -4.703125 C 2.804688 -4.703125 3.117188 -4.625 3.421875 -4.46875 C 3.734375 -4.320312 3.96875 -4.125 4.125 -3.875 C 4.28125 -3.644531 4.382812 -3.375 4.4375 -3.0625 C 4.488281 -2.851562 4.515625 -2.515625 4.515625 -2.046875 L 1.140625 -2.046875 C 1.148438 -1.585938 1.257812 -1.210938 1.46875 -0.921875 C 1.675781 -0.640625 1.992188 -0.5 2.421875 -0.5 C 2.828125 -0.5 3.148438 -0.632812 3.390625 -0.90625 C 3.523438 -1.0625 3.625 -1.238281 3.6875 -1.4375 L 4.453125 -1.4375 C 4.429688 -1.269531 4.363281 -1.082031 4.25 -0.875 C 4.132812 -0.664062 4.003906 -0.5 3.859375 -0.375 C 3.628906 -0.144531 3.34375 0.0078125 3 0.09375 C 2.8125 0.132812 2.597656 0.15625 2.359375 0.15625 C 1.785156 0.15625 1.300781 -0.0507812 0.90625 -0.46875 C 0.507812 -0.882812 0.3125 -1.46875 0.3125 -2.21875 C 0.3125 -2.945312 0.507812 -3.539062 0.90625 -4 C 1.3125 -4.46875 1.835938 -4.703125 2.484375 -4.703125 Z M 3.71875 -2.671875 C 3.6875 -3.003906 3.613281 -3.269531 3.5 -3.46875 C 3.28125 -3.84375 2.925781 -4.03125 2.4375 -4.03125 C 2.082031 -4.03125 1.785156 -3.898438 1.546875 -3.640625 C 1.304688 -3.390625 1.175781 -3.066406 1.15625 -2.671875 Z M 2.40625 -4.71875 Z M 2.40625 -4.71875 "/>
</g>
<g id="glyph-0-12">
<path d="M 0.5 -6.328125 L 1.265625 -6.328125 L 1.265625 -4.046875 C 1.429688 -4.265625 1.628906 -4.429688 1.859375 -4.546875 C 2.097656 -4.660156 2.351562 -4.71875 2.625 -4.71875 C 3.195312 -4.71875 3.660156 -4.519531 4.015625 -4.125 C 4.378906 -3.738281 4.5625 -3.160156 4.5625 -2.390625 C 4.5625 -1.660156 4.382812 -1.054688 4.03125 -0.578125 C 3.675781 -0.0976562 3.1875 0.140625 2.5625 0.140625 C 2.21875 0.140625 1.921875 0.0546875 1.671875 -0.109375 C 1.535156 -0.203125 1.382812 -0.363281 1.21875 -0.59375 L 1.21875 0 L 0.5 0 Z M 2.515625 -0.53125 C 2.929688 -0.53125 3.242188 -0.695312 3.453125 -1.03125 C 3.660156 -1.363281 3.765625 -1.800781 3.765625 -2.34375 C 3.765625 -2.832031 3.660156 -3.234375 3.453125 -3.546875 C 3.242188 -3.867188 2.9375 -4.03125 2.53125 -4.03125 C 2.1875 -4.03125 1.878906 -3.898438 1.609375 -3.640625 C 1.347656 -3.378906 1.21875 -2.945312 1.21875 -2.34375 C 1.21875 -1.914062 1.269531 -1.566406 1.375 -1.296875 C 1.582031 -0.785156 1.960938 -0.53125 2.515625 -0.53125 Z M 2.515625 -0.53125 "/>
</g>
<g id="glyph-0-13">
<path d="M 1.03125 -1.4375 C 1.050781 -1.1875 1.113281 -0.988281 1.21875 -0.84375 C 1.414062 -0.601562 1.753906 -0.484375 2.234375 -0.484375 C 2.515625 -0.484375 2.765625 -0.539062 2.984375 -0.65625 C 3.203125 -0.78125 3.3125 -0.972656 3.3125 -1.234375 C 3.3125 -1.429688 3.222656 -1.582031 3.046875 -1.6875 C 2.941406 -1.75 2.722656 -1.820312 2.390625 -1.90625 L 1.78125 -2.0625 C 1.382812 -2.164062 1.09375 -2.273438 0.90625 -2.390625 C 0.570312 -2.597656 0.40625 -2.890625 0.40625 -3.265625 C 0.40625 -3.691406 0.5625 -4.039062 0.875 -4.3125 C 1.195312 -4.582031 1.617188 -4.71875 2.140625 -4.71875 C 2.835938 -4.71875 3.335938 -4.515625 3.640625 -4.109375 C 3.835938 -3.847656 3.929688 -3.570312 3.921875 -3.28125 L 3.203125 -3.28125 C 3.179688 -3.457031 3.117188 -3.613281 3.015625 -3.75 C 2.835938 -3.957031 2.53125 -4.0625 2.09375 -4.0625 C 1.800781 -4.0625 1.578125 -4.003906 1.421875 -3.890625 C 1.273438 -3.773438 1.203125 -3.628906 1.203125 -3.453125 C 1.203125 -3.253906 1.300781 -3.09375 1.5 -2.96875 C 1.613281 -2.894531 1.78125 -2.832031 2 -2.78125 L 2.515625 -2.65625 C 3.066406 -2.519531 3.4375 -2.390625 3.625 -2.265625 C 3.925781 -2.066406 4.078125 -1.753906 4.078125 -1.328125 C 4.078125 -0.921875 3.921875 -0.566406 3.609375 -0.265625 C 3.304688 0.0234375 2.832031 0.171875 2.1875 0.171875 C 1.507812 0.171875 1.023438 0.0195312 0.734375 -0.28125 C 0.453125 -0.59375 0.300781 -0.976562 0.28125 -1.4375 Z M 2.171875 -4.71875 Z M 2.171875 -4.71875 "/>
</g>
<g id="glyph-0-14">
<path d="M 0.71875 -5.890625 L 1.5 -5.890625 L 1.5 -4.59375 L 2.234375 -4.59375 L 2.234375 -3.96875 L 1.5 -3.96875 L 1.5 -0.96875 C 1.5 -0.800781 1.554688 -0.691406 1.671875 -0.640625 C 1.722656 -0.609375 1.820312 -0.59375 1.96875 -0.59375 C 2 -0.59375 2.035156 -0.59375 2.078125 -0.59375 C 2.128906 -0.59375 2.179688 -0.597656 2.234375 -0.609375 L 2.234375 0 C 2.148438 0.0195312 2.054688 0.0351562 1.953125 0.046875 C 1.859375 0.0664062 1.757812 0.078125 1.65625 0.078125 C 1.289062 0.078125 1.039062 -0.015625 0.90625 -0.203125 C 0.78125 -0.390625 0.71875 -0.628906 0.71875 -0.921875 L 0.71875 -3.96875 L 0.09375 -3.96875 L 0.09375 -4.59375 L 0.71875 -4.59375 Z M 0.71875 -5.890625 "/>
</g>
<g id="glyph-0-15">
<path d="M 2.390625 -0.5 C 2.898438 -0.5 3.25 -0.691406 3.4375 -1.078125 C 3.632812 -1.460938 3.734375 -1.894531 3.734375 -2.375 C 3.734375 -2.800781 3.664062 -3.148438 3.53125 -3.421875 C 3.3125 -3.847656 2.9375 -4.0625 2.40625 -4.0625 C 1.925781 -4.0625 1.578125 -3.878906 1.359375 -3.515625 C 1.148438 -3.160156 1.046875 -2.726562 1.046875 -2.21875 C 1.046875 -1.726562 1.148438 -1.316406 1.359375 -0.984375 C 1.578125 -0.660156 1.921875 -0.5 2.390625 -0.5 Z M 2.421875 -4.734375 C 3.015625 -4.734375 3.515625 -4.535156 3.921875 -4.140625 C 4.335938 -3.742188 4.546875 -3.160156 4.546875 -2.390625 C 4.546875 -1.648438 4.363281 -1.035156 4 -0.546875 C 3.632812 -0.0664062 3.070312 0.171875 2.3125 0.171875 C 1.6875 0.171875 1.1875 -0.0390625 0.8125 -0.46875 C 0.4375 -0.894531 0.25 -1.472656 0.25 -2.203125 C 0.25 -2.972656 0.445312 -3.585938 0.84375 -4.046875 C 1.238281 -4.503906 1.765625 -4.734375 2.421875 -4.734375 Z M 2.390625 -4.71875 Z M 2.390625 -4.71875 "/>
</g>
<g id="glyph-0-16">
<path d="M 0.5625 -4.59375 L 1.328125 -4.59375 L 1.328125 -3.953125 C 1.515625 -4.171875 1.679688 -4.332031 1.828125 -4.4375 C 2.085938 -4.613281 2.378906 -4.703125 2.703125 -4.703125 C 3.066406 -4.703125 3.359375 -4.613281 3.578125 -4.4375 C 3.703125 -4.332031 3.816406 -4.179688 3.921875 -3.984375 C 4.097656 -4.222656 4.300781 -4.398438 4.53125 -4.515625 C 4.757812 -4.640625 5.019531 -4.703125 5.3125 -4.703125 C 5.925781 -4.703125 6.347656 -4.476562 6.578125 -4.03125 C 6.691406 -3.789062 6.75 -3.46875 6.75 -3.0625 L 6.75 0 L 5.953125 0 L 5.953125 -3.203125 C 5.953125 -3.503906 5.875 -3.710938 5.71875 -3.828125 C 5.570312 -3.941406 5.382812 -4 5.15625 -4 C 4.851562 -4 4.59375 -3.894531 4.375 -3.6875 C 4.15625 -3.488281 4.046875 -3.148438 4.046875 -2.671875 L 4.046875 0 L 3.265625 0 L 3.265625 -3 C 3.265625 -3.3125 3.226562 -3.539062 3.15625 -3.6875 C 3.039062 -3.894531 2.820312 -4 2.5 -4 C 2.207031 -4 1.941406 -3.882812 1.703125 -3.65625 C 1.460938 -3.4375 1.34375 -3.03125 1.34375 -2.4375 L 1.34375 0 L 0.5625 0 Z M 0.5625 -4.59375 "/>
</g>
<g id="glyph-0-17">
<path d="M 0.671875 -6.3125 L 1.671875 -6.3125 L 4.859375 -1.203125 L 4.859375 -6.3125 L 5.671875 -6.3125 L 5.671875 0 L 4.71875 0 L 1.484375 -5.109375 L 1.484375 0 L 0.671875 0 Z M 3.125 -6.3125 Z M 3.125 -6.3125 "/>
</g>
<g id="glyph-0-18">
<path d="M 3.90625 -2.578125 L 2.953125 -5.375 L 1.9375 -2.578125 Z M 2.5 -6.3125 L 3.46875 -6.3125 L 5.765625 0 L 4.828125 0 L 4.1875 -1.890625 L 1.6875 -1.890625 L 1 0 L 0.125 0 Z M 2.5 -6.3125 "/>
</g>
<g id="glyph-1-0">
<path d="M 0.359375 0 L 0.359375 -7.890625 L 6.625 -7.890625 L 6.625 0 Z M 5.625 -0.984375 L 5.625 -6.90625 L 1.34375 -6.90625 L 1.34375 -0.984375 Z M 5.625 -0.984375 "/>
</g>
<g id="glyph-1-1">
<path d="M 1.8125 -7.890625 L 1.640625 -4.734375 L 1.015625 -4.734375 L 0.84375 -7.890625 Z M 1.8125 -7.890625 "/>
</g>
<g id="glyph-1-2">
<path d="M 0.453125 -3.5625 L 3.15625 -3.5625 L 3.15625 -2.5625 L 0.453125 -2.5625 Z M 0.453125 -3.5625 "/>
</g>
<g id="glyph-1-3">
<path d="M 1.1875 -5.75 L 2.71875 -1.0625 L 4.328125 -5.75 L 5.375 -5.75 L 3.21875 0 L 2.1875 0 L 0.0625 -5.75 Z M 1.1875 -5.75 "/>
</g>
<g id="glyph-1-4">
<path d="M 2.984375 -0.625 C 3.628906 -0.625 4.070312 -0.863281 4.3125 -1.34375 C 4.550781 -1.832031 4.671875 -2.375 4.671875 -2.96875 C 4.671875 -3.507812 4.582031 -3.945312 4.40625 -4.28125 C 4.132812 -4.8125 3.664062 -5.078125 3 -5.078125 C 2.40625 -5.078125 1.972656 -4.847656 1.703125 -4.390625 C 1.441406 -3.941406 1.3125 -3.398438 1.3125 -2.765625 C 1.3125 -2.148438 1.441406 -1.640625 1.703125 -1.234375 C 1.972656 -0.828125 2.398438 -0.625 2.984375 -0.625 Z M 3.03125 -5.921875 C 3.769531 -5.921875 4.394531 -5.671875 4.90625 -5.171875 C 5.414062 -4.679688 5.671875 -3.957031 5.671875 -3 C 5.671875 -2.070312 5.445312 -1.304688 5 -0.703125 C 4.550781 -0.0976562 3.851562 0.203125 2.90625 0.203125 C 2.113281 0.203125 1.484375 -0.0625 1.015625 -0.59375 C 0.546875 -1.125 0.3125 -1.84375 0.3125 -2.75 C 0.3125 -3.71875 0.554688 -4.488281 1.046875 -5.0625 C 1.535156 -5.632812 2.195312 -5.921875 3.03125 -5.921875 Z M 3 -5.890625 Z M 3 -5.890625 "/>
</g>
<g id="glyph-1-5">
<path d="M 0.734375 -5.75 L 1.65625 -5.75 L 1.65625 -4.765625 C 1.726562 -4.953125 1.910156 -5.179688 2.203125 -5.453125 C 2.492188 -5.734375 2.832031 -5.875 3.21875 -5.875 C 3.238281 -5.875 3.269531 -5.875 3.3125 -5.875 C 3.351562 -5.875 3.425781 -5.867188 3.53125 -5.859375 L 3.53125 -4.828125 C 3.476562 -4.835938 3.425781 -4.84375 3.375 -4.84375 C 3.320312 -4.851562 3.269531 -4.859375 3.21875 -4.859375 C 2.726562 -4.859375 2.351562 -4.703125 2.09375 -4.390625 C 1.832031 -4.078125 1.703125 -3.71875 1.703125 -3.3125 L 1.703125 0 L 0.734375 0 Z M 0.734375 -5.75 "/>
</g>
<g id="glyph-1-6">
<path d="M 3.109375 -5.875 C 3.515625 -5.875 3.90625 -5.78125 4.28125 -5.59375 C 4.664062 -5.40625 4.960938 -5.15625 5.171875 -4.84375 C 5.359375 -4.5625 5.484375 -4.222656 5.546875 -3.828125 C 5.609375 -3.566406 5.640625 -3.144531 5.640625 -2.5625 L 1.421875 -2.5625 C 1.441406 -1.976562 1.578125 -1.507812 1.828125 -1.15625 C 2.085938 -0.8125 2.488281 -0.640625 3.03125 -0.640625 C 3.539062 -0.640625 3.945312 -0.804688 4.25 -1.140625 C 4.414062 -1.328125 4.535156 -1.550781 4.609375 -1.8125 L 5.5625 -1.8125 C 5.53125 -1.59375 5.441406 -1.351562 5.296875 -1.09375 C 5.160156 -0.832031 5.003906 -0.625 4.828125 -0.46875 C 4.535156 -0.175781 4.175781 0.0195312 3.75 0.125 C 3.507812 0.175781 3.242188 0.203125 2.953125 0.203125 C 2.234375 0.203125 1.625 -0.0546875 1.125 -0.578125 C 0.632812 -1.097656 0.390625 -1.828125 0.390625 -2.765625 C 0.390625 -3.691406 0.640625 -4.441406 1.140625 -5.015625 C 1.640625 -5.585938 2.296875 -5.875 3.109375 -5.875 Z M 4.640625 -3.328125 C 4.609375 -3.753906 4.519531 -4.09375 4.375 -4.34375 C 4.101562 -4.800781 3.660156 -5.03125 3.046875 -5.03125 C 2.597656 -5.03125 2.222656 -4.867188 1.921875 -4.546875 C 1.628906 -4.234375 1.472656 -3.828125 1.453125 -3.328125 Z M 3.015625 -5.890625 Z M 3.015625 -5.890625 "/>
</g>
<g id="glyph-2-0">
<path d="M 0 -0.359375 L -7.890625 -0.359375 L -7.890625 -6.625 L 0 -6.625 Z M -0.984375 -5.625 L -6.90625 -5.625 L -6.90625 -1.34375 L -0.984375 -1.34375 Z M -0.984375 -5.625 "/>
</g>
<g id="glyph-2-1">
<path d="M -2.546875 -1.53125 C -2.097656 -1.5625 -1.734375 -1.671875 -1.453125 -1.859375 C -0.929688 -2.210938 -0.671875 -2.835938 -0.671875 -3.734375 C -0.671875 -4.128906 -0.726562 -4.492188 -0.84375 -4.828125 C -1.0625 -5.460938 -1.457031 -5.78125 -2.03125 -5.78125 C -2.46875 -5.78125 -2.773438 -5.644531 -2.953125 -5.375 C -3.128906 -5.101562 -3.285156 -4.675781 -3.421875 -4.09375 L -3.65625 -3.03125 C -3.820312 -2.332031 -4 -1.835938 -4.1875 -1.546875 C -4.507812 -1.046875 -5 -0.796875 -5.65625 -0.796875 C -6.363281 -0.796875 -6.945312 -1.039062 -7.40625 -1.53125 C -7.863281 -2.019531 -8.09375 -2.710938 -8.09375 -3.609375 C -8.09375 -4.441406 -7.890625 -5.144531 -7.484375 -5.71875 C -7.085938 -6.300781 -6.453125 -6.59375 -5.578125 -6.59375 L -5.578125 -5.59375 C -5.992188 -5.53125 -6.316406 -5.414062 -6.546875 -5.25 C -6.960938 -4.914062 -7.171875 -4.359375 -7.171875 -3.578125 C -7.171875 -2.953125 -7.035156 -2.5 -6.765625 -2.21875 C -6.503906 -1.945312 -6.195312 -1.8125 -5.84375 -1.8125 C -5.457031 -1.8125 -5.175781 -1.972656 -5 -2.296875 C -4.882812 -2.503906 -4.738281 -2.984375 -4.5625 -3.734375 L -4.3125 -4.828125 C -4.1875 -5.367188 -4.019531 -5.78125 -3.8125 -6.0625 C -3.445312 -6.570312 -2.910156 -6.828125 -2.203125 -6.828125 C -1.328125 -6.828125 -0.703125 -6.507812 -0.328125 -5.875 C 0.0429688 -5.238281 0.234375 -4.5 0.234375 -3.65625 C 0.234375 -2.675781 -0.015625 -1.90625 -0.515625 -1.34375 C -1.015625 -0.789062 -1.691406 -0.519531 -2.546875 -0.53125 Z M -8.109375 -3.703125 Z M -8.109375 -3.703125 "/>
</g>
<g id="glyph-2-2">
<path d="M -7.890625 -0.734375 L -7.890625 -1.703125 L 0 -1.703125 L 0 -0.734375 Z M -7.890625 -0.734375 "/>
</g>
<g id="glyph-2-3">
<path d="M -5.875 -3.109375 C -5.875 -3.515625 -5.78125 -3.90625 -5.59375 -4.28125 C -5.40625 -4.664062 -5.15625 -4.960938 -4.84375 -5.171875 C -4.5625 -5.359375 -4.222656 -5.484375 -3.828125 -5.546875 C -3.566406 -5.609375 -3.144531 -5.640625 -2.5625 -5.640625 L -2.5625 -1.421875 C -1.976562 -1.441406 -1.507812 -1.578125 -1.15625 -1.828125 C -0.8125 -2.085938 -0.640625 -2.488281 -0.640625 -3.03125 C -0.640625 -3.539062 -0.804688 -3.945312 -1.140625 -4.25 C -1.328125 -4.414062 -1.550781 -4.535156 -1.8125 -4.609375 L -1.8125 -5.5625 C -1.59375 -5.53125 -1.351562 -5.441406 -1.09375 -5.296875 C -0.832031 -5.160156 -0.625 -5.003906 -0.46875 -4.828125 C -0.175781 -4.535156 0.0195312 -4.175781 0.125 -3.75 C 0.175781 -3.507812 0.203125 -3.242188 0.203125 -2.953125 C 0.203125 -2.234375 -0.0546875 -1.625 -0.578125 -1.125 C -1.097656 -0.632812 -1.828125 -0.390625 -2.765625 -0.390625 C -3.691406 -0.390625 -4.441406 -0.640625 -5.015625 -1.140625 C -5.585938 -1.640625 -5.875 -2.296875 -5.875 -3.109375 Z M -3.328125 -4.640625 C -3.753906 -4.609375 -4.09375 -4.519531 -4.34375 -4.375 C -4.800781 -4.101562 -5.03125 -3.660156 -5.03125 -3.046875 C -5.03125 -2.597656 -4.867188 -2.222656 -4.546875 -1.921875 C -4.234375 -1.628906 -3.828125 -1.472656 -3.328125 -1.453125 Z M -5.890625 -3.015625 Z M -5.890625 -3.015625 "/>
</g>
<g id="glyph-2-4">
<path d="M -0.65625 -3.140625 C -0.65625 -3.585938 -0.84375 -3.957031 -1.21875 -4.25 C -1.59375 -4.550781 -2.15625 -4.703125 -2.90625 -4.703125 C -3.363281 -4.703125 -3.757812 -4.640625 -4.09375 -4.515625 C -4.726562 -4.265625 -5.046875 -3.804688 -5.046875 -3.140625 C -5.046875 -2.460938 -4.710938 -2.003906 -4.046875 -1.765625 C -3.679688 -1.628906 -3.222656 -1.5625 -2.671875 -1.5625 C -2.234375 -1.5625 -1.859375 -1.628906 -1.546875 -1.765625 C -0.953125 -2.015625 -0.65625 -2.472656 -0.65625 -3.140625 Z M -5.71875 -0.640625 L -5.71875 -1.578125 L -4.96875 -1.578125 C -5.226562 -1.765625 -5.425781 -1.972656 -5.5625 -2.203125 C -5.78125 -2.535156 -5.890625 -2.921875 -5.890625 -3.359375 C -5.890625 -4.003906 -5.640625 -4.554688 -5.140625 -5.015625 C -4.640625 -5.472656 -3.925781 -5.703125 -3 -5.703125 C -1.75 -5.703125 -0.851562 -5.375 -0.3125 -4.71875 C 0.0195312 -4.300781 0.1875 -3.816406 0.1875 -3.265625 C 0.1875 -2.828125 0.0898438 -2.460938 -0.09375 -2.171875 C -0.195312 -2.003906 -0.378906 -1.8125 -0.640625 -1.59375 L 2.296875 -1.59375 L 2.296875 -0.640625 Z M -5.71875 -0.640625 "/>
</g>
<g id="glyph-2-5">
</g>
<g id="glyph-2-6">
<path d="M -2.8125 -1.328125 C -2.195312 -1.328125 -1.679688 -1.457031 -1.265625 -1.71875 C -0.847656 -1.976562 -0.640625 -2.394531 -0.640625 -2.96875 C -0.640625 -3.414062 -0.832031 -3.78125 -1.21875 -4.0625 C -1.601562 -4.351562 -2.15625 -4.5 -2.875 -4.5 C -3.601562 -4.5 -4.140625 -4.347656 -4.484375 -4.046875 C -4.835938 -3.753906 -5.015625 -3.390625 -5.015625 -2.953125 C -5.015625 -2.472656 -4.828125 -2.082031 -4.453125 -1.78125 C -4.078125 -1.476562 -3.53125 -1.328125 -2.8125 -1.328125 Z M -5.859375 -2.78125 C -5.859375 -3.21875 -5.765625 -3.585938 -5.578125 -3.890625 C -5.472656 -4.054688 -5.285156 -4.25 -5.015625 -4.46875 L -7.921875 -4.46875 L -7.921875 -5.390625 L 0 -5.390625 L 0 -4.53125 L -0.796875 -4.53125 C -0.441406 -4.300781 -0.1875 -4.03125 -0.03125 -3.71875 C 0.121094 -3.414062 0.203125 -3.066406 0.203125 -2.671875 C 0.203125 -2.023438 -0.0625 -1.46875 -0.59375 -1 C -1.132812 -0.53125 -1.851562 -0.296875 -2.75 -0.296875 C -3.59375 -0.296875 -4.320312 -0.507812 -4.9375 -0.9375 C -5.550781 -1.363281 -5.859375 -1.976562 -5.859375 -2.78125 Z M -5.859375 -2.78125 "/>
</g>
<g id="glyph-2-7">
<path d="M -5.75 -1.671875 L -1.9375 -1.671875 C -1.644531 -1.671875 -1.40625 -1.71875 -1.21875 -1.8125 C -0.875 -1.988281 -0.703125 -2.3125 -0.703125 -2.78125 C -0.703125 -3.445312 -1 -3.90625 -1.59375 -4.15625 C -1.914062 -4.28125 -2.359375 -4.34375 -2.921875 -4.34375 L -5.75 -4.34375 L -5.75 -5.3125 L 0 -5.3125 L 0 -4.40625 L -0.84375 -4.421875 C -0.625 -4.296875 -0.441406 -4.140625 -0.296875 -3.953125 C 0.00390625 -3.578125 0.15625 -3.128906 0.15625 -2.609375 C 0.15625 -1.785156 -0.117188 -1.222656 -0.671875 -0.921875 C -0.960938 -0.765625 -1.351562 -0.6875 -1.84375 -0.6875 L -5.75 -0.6875 Z M -5.890625 -3 Z M -5.890625 -3 "/>
</g>
<g id="glyph-2-8">
<path d="M -5.75 -0.734375 L -5.75 -1.65625 L -4.765625 -1.65625 C -4.953125 -1.726562 -5.179688 -1.910156 -5.453125 -2.203125 C -5.734375 -2.492188 -5.875 -2.832031 -5.875 -3.21875 C -5.875 -3.238281 -5.875 -3.269531 -5.875 -3.3125 C -5.875 -3.351562 -5.867188 -3.425781 -5.859375 -3.53125 L -4.828125 -3.53125 C -4.835938 -3.476562 -4.84375 -3.425781 -4.84375 -3.375 C -4.851562 -3.320312 -4.859375 -3.269531 -4.859375 -3.21875 C -4.859375 -2.726562 -4.703125 -2.351562 -4.390625 -2.09375 C -4.078125 -1.832031 -3.71875 -1.703125 -3.3125 -1.703125 L 0 -1.703125 L 0 -0.734375 Z M -5.75 -0.734375 "/>
</g>
<g id="glyph-2-9">
<path d="M -1.53125 -1.453125 C -1.25 -1.453125 -1.023438 -1.550781 -0.859375 -1.75 C -0.703125 -1.957031 -0.625 -2.203125 -0.625 -2.484375 C -0.625 -2.816406 -0.703125 -3.144531 -0.859375 -3.46875 C -1.117188 -4.007812 -1.550781 -4.28125 -2.15625 -4.28125 L -2.921875 -4.28125 C -2.847656 -4.15625 -2.785156 -4 -2.734375 -3.8125 C -2.691406 -3.632812 -2.65625 -3.453125 -2.625 -3.265625 L -2.5625 -2.6875 C -2.507812 -2.332031 -2.4375 -2.066406 -2.34375 -1.890625 C -2.164062 -1.597656 -1.894531 -1.453125 -1.53125 -1.453125 Z M -3.484375 -3.796875 C -3.515625 -4.015625 -3.609375 -4.160156 -3.765625 -4.234375 C -3.847656 -4.273438 -3.972656 -4.296875 -4.140625 -4.296875 C -4.460938 -4.296875 -4.695312 -4.175781 -4.84375 -3.9375 C -5 -3.707031 -5.078125 -3.375 -5.078125 -2.9375 C -5.078125 -2.4375 -4.941406 -2.082031 -4.671875 -1.875 C -4.515625 -1.75 -4.289062 -1.671875 -4 -1.640625 L -4 -0.734375 C -4.707031 -0.753906 -5.195312 -0.984375 -5.46875 -1.421875 C -5.75 -1.867188 -5.890625 -2.382812 -5.890625 -2.96875 C -5.890625 -3.644531 -5.757812 -4.191406 -5.5 -4.609375 C -5.25 -5.035156 -4.847656 -5.25 -4.296875 -5.25 L -0.984375 -5.25 C -0.890625 -5.25 -0.8125 -5.265625 -0.75 -5.296875 C -0.6875 -5.335938 -0.65625 -5.425781 -0.65625 -5.5625 C -0.65625 -5.601562 -0.65625 -5.648438 -0.65625 -5.703125 C -0.664062 -5.765625 -0.675781 -5.820312 -0.6875 -5.875 L 0.03125 -5.875 C 0.0703125 -5.726562 0.0976562 -5.613281 0.109375 -5.53125 C 0.117188 -5.457031 0.125 -5.351562 0.125 -5.21875 C 0.125 -4.882812 0.00390625 -4.640625 -0.234375 -4.484375 C -0.359375 -4.410156 -0.535156 -4.359375 -0.765625 -4.328125 C -0.503906 -4.128906 -0.28125 -3.84375 -0.09375 -3.46875 C 0.0898438 -3.101562 0.1875 -2.695312 0.1875 -2.25 C 0.1875 -1.71875 0.0234375 -1.28125 -0.296875 -0.9375 C -0.617188 -0.601562 -1.023438 -0.4375 -1.515625 -0.4375 C -2.046875 -0.4375 -2.457031 -0.601562 -2.75 -0.9375 C -3.039062 -1.269531 -3.222656 -1.707031 -3.296875 -2.25 Z M -5.890625 -2.984375 Z M -5.890625 -2.984375 "/>
</g>
<g id="glyph-2-10">
<path d="M -7.359375 -0.90625 L -7.359375 -1.875 L -5.75 -1.875 L -5.75 -2.796875 L -4.96875 -2.796875 L -4.96875 -1.875 L -1.203125 -1.875 C -1.003906 -1.875 -0.875 -1.941406 -0.8125 -2.078125 C -0.769531 -2.160156 -0.75 -2.285156 -0.75 -2.453125 C -0.75 -2.503906 -0.75 -2.554688 -0.75 -2.609375 C -0.75 -2.660156 -0.753906 -2.722656 -0.765625 -2.796875 L 0 -2.796875 C 0.03125 -2.679688 0.0507812 -2.5625 0.0625 -2.4375 C 0.0820312 -2.320312 0.09375 -2.195312 0.09375 -2.0625 C 0.09375 -1.613281 -0.0195312 -1.304688 -0.25 -1.140625 C -0.488281 -0.984375 -0.789062 -0.90625 -1.15625 -0.90625 L -4.96875 -0.90625 L -4.96875 -0.125 L -5.75 -0.125 L -5.75 -0.90625 Z M -7.359375 -0.90625 "/>
</g>
<g id="glyph-2-11">
<path d="M -5.71875 -0.703125 L -5.71875 -1.6875 L 0 -1.6875 L 0 -0.703125 Z M -7.890625 -0.703125 L -7.890625 -1.6875 L -6.796875 -1.6875 L -6.796875 -0.703125 Z M -7.890625 -0.703125 "/>
</g>
<g id="glyph-2-12">
<path d="M -0.625 -2.984375 C -0.625 -3.628906 -0.863281 -4.070312 -1.34375 -4.3125 C -1.832031 -4.550781 -2.375 -4.671875 -2.96875 -4.671875 C -3.507812 -4.671875 -3.945312 -4.582031 -4.28125 -4.40625 C -4.8125 -4.132812 -5.078125 -3.664062 -5.078125 -3 C -5.078125 -2.40625 -4.847656 -1.972656 -4.390625 -1.703125 C -3.941406 -1.441406 -3.398438 -1.3125 -2.765625 -1.3125 C -2.148438 -1.3125 -1.640625 -1.441406 -1.234375 -1.703125 C -0.828125 -1.972656 -0.625 -2.398438 -0.625 -2.984375 Z M -5.921875 -3.03125 C -5.921875 -3.769531 -5.671875 -4.394531 -5.171875 -4.90625 C -4.679688 -5.414062 -3.957031 -5.671875 -3 -5.671875 C -2.070312 -5.671875 -1.304688 -5.445312 -0.703125 -5 C -0.0976562 -4.550781 0.203125 -3.851562 0.203125 -2.90625 C 0.203125 -2.113281 -0.0625 -1.484375 -0.59375 -1.015625 C -1.125 -0.546875 -1.84375 -0.3125 -2.75 -0.3125 C -3.71875 -0.3125 -4.488281 -0.554688 -5.0625 -1.046875 C -5.632812 -1.535156 -5.921875 -2.195312 -5.921875 -3.03125 Z M -5.890625 -3 Z M -5.890625 -3 "/>
</g>
<g id="glyph-2-13">
<path d="M -5.75 -0.703125 L -5.75 -1.625 L -4.9375 -1.625 C -5.269531 -1.894531 -5.507812 -2.179688 -5.65625 -2.484375 C -5.800781 -2.796875 -5.875 -3.132812 -5.875 -3.5 C -5.875 -4.320312 -5.59375 -4.875 -5.03125 -5.15625 C -4.71875 -5.3125 -4.269531 -5.390625 -3.6875 -5.390625 L 0 -5.390625 L 0 -4.421875 L -3.625 -4.421875 C -3.976562 -4.421875 -4.257812 -4.367188 -4.46875 -4.265625 C -4.832031 -4.085938 -5.015625 -3.773438 -5.015625 -3.328125 C -5.015625 -3.097656 -4.988281 -2.910156 -4.9375 -2.765625 C -4.863281 -2.492188 -4.707031 -2.257812 -4.46875 -2.0625 C -4.28125 -1.90625 -4.082031 -1.800781 -3.875 -1.75 C -3.675781 -1.695312 -3.390625 -1.671875 -3.015625 -1.671875 L 0 -1.671875 L 0 -0.703125 Z M -5.890625 -2.984375 Z M -5.890625 -2.984375 "/>
</g>
<g id="glyph-2-14">
<path d="M -8.015625 -3.25 C -6.921875 -2.6875 -6.117188 -2.320312 -5.609375 -2.15625 C -4.828125 -1.90625 -3.921875 -1.78125 -2.890625 -1.78125 C -1.847656 -1.78125 -0.898438 -1.925781 -0.046875 -2.21875 C 0.480469 -2.394531 1.25 -2.742188 2.25 -3.265625 L 2.25 -2.625 C 1.425781 -2.101562 0.898438 -1.78125 0.671875 -1.65625 C 0.453125 -1.53125 0.148438 -1.390625 -0.234375 -1.234375 C -0.765625 -1.035156 -1.332031 -0.898438 -1.9375 -0.828125 C -2.25 -0.785156 -2.546875 -0.765625 -2.828125 -0.765625 C -3.890625 -0.765625 -4.832031 -0.929688 -5.65625 -1.265625 C -6.1875 -1.472656 -6.972656 -1.910156 -8.015625 -2.578125 Z M -8.015625 -3.25 "/>
</g>
<g id="glyph-2-15">
<path d="M -7.921875 -0.703125 L -7.921875 -1.671875 L -4.96875 -1.671875 C -5.257812 -1.898438 -5.46875 -2.109375 -5.59375 -2.296875 C -5.789062 -2.609375 -5.890625 -2.992188 -5.890625 -3.453125 C -5.890625 -4.285156 -5.597656 -4.851562 -5.015625 -5.15625 C -4.691406 -5.3125 -4.25 -5.390625 -3.6875 -5.390625 L 0 -5.390625 L 0 -4.40625 L -3.625 -4.40625 C -4.050781 -4.40625 -4.363281 -4.351562 -4.5625 -4.25 C -4.875 -4.070312 -5.03125 -3.738281 -5.03125 -3.25 C -5.03125 -2.851562 -4.890625 -2.488281 -4.609375 -2.15625 C -4.335938 -1.832031 -3.816406 -1.671875 -3.046875 -1.671875 L 0 -1.671875 L 0 -0.703125 Z M -7.921875 -0.703125 "/>
</g>
<g id="glyph-2-16">
<path d="M 2.25 -0.375 C 1.132812 -0.945312 0.320312 -1.316406 -0.1875 -1.484375 C -0.957031 -1.734375 -1.859375 -1.859375 -2.890625 -1.859375 C -3.921875 -1.859375 -4.867188 -1.710938 -5.734375 -1.421875 C -6.265625 -1.242188 -7.023438 -0.890625 -8.015625 -0.359375 L -8.015625 -1.015625 C -7.140625 -1.566406 -6.597656 -1.898438 -6.390625 -2.015625 C -6.179688 -2.128906 -5.894531 -2.253906 -5.53125 -2.390625 C -5.082031 -2.566406 -4.640625 -2.691406 -4.203125 -2.765625 C -3.773438 -2.835938 -3.359375 -2.875 -2.953125 -2.875 C -1.890625 -2.875 -0.941406 -2.707031 -0.109375 -2.375 C 0.417969 -2.15625 1.207031 -1.710938 2.25 -1.046875 Z M 2.25 -0.375 "/>
</g>
</g>
<clipPath id="clip-0">
<path clip-rule="nonzero" d="M 34.152344 5.480469 L 318.523438 5.480469 L 318.523438 182.851562 L 34.152344 182.851562 Z M 34.152344 5.480469 "/>
</clipPath>
<clipPath id="clip-1">
<path clip-rule="nonzero" d="M 34.152344 169 L 318.523438 169 L 318.523438 170 L 34.152344 170 Z M 34.152344 169 "/>
</clipPath>
<clipPath id="clip-2">
<path clip-rule="nonzero" d="M 34.152344 124 L 318.523438 124 L 318.523438 125 L 34.152344 125 Z M 34.152344 124 "/>
</clipPath>
<clipPath id="clip-3">
<path clip-rule="nonzero" d="M 34.152344 79 L 318.523438 79 L 318.523438 81 L 34.152344 81 Z M 34.152344 79 "/>
</clipPath>
<clipPath id="clip-4">
<path clip-rule="nonzero" d="M 34.152344 34 L 318.523438 34 L 318.523438 36 L 34.152344 36 Z M 34.152344 34 "/>
</clipPath>
<clipPath id="clip-5">
<path clip-rule="nonzero" d="M 34.152344 146 L 318.523438 146 L 318.523438 148 L 34.152344 148 Z M 34.152344 146 "/>
</clipPath>
<clipPath id="clip-6">
<path clip-rule="nonzero" d="M 34.152344 101 L 318.523438 101 L 318.523438 103 L 34.152344 103 Z M 34.152344 101 "/>
</clipPath>
<clipPath id="clip-7">
<path clip-rule="nonzero" d="M 34.152344 56 L 318.523438 56 L 318.523438 59 L 34.152344 59 Z M 34.152344 56 "/>
</clipPath>
<clipPath id="clip-8">
<path clip-rule="nonzero" d="M 34.152344 12 L 318.523438 12 L 318.523438 14 L 34.152344 14 Z M 34.152344 12 "/>
</clipPath>
<clipPath id="clip-9">
<path clip-rule="nonzero" d="M 66 5.480469 L 68 5.480469 L 68 182.851562 L 66 182.851562 Z M 66 5.480469 "/>
</clipPath>
<clipPath id="clip-10">
<path clip-rule="nonzero" d="M 121 5.480469 L 123 5.480469 L 123 182.851562 L 121 182.851562 Z M 121 5.480469 "/>
</clipPath>
<clipPath id="clip-11">
<path clip-rule="nonzero" d="M 175 5.480469 L 177 5.480469 L 177 182.851562 L 175 182.851562 Z M 175 5.480469 "/>
</clipPath>
<clipPath id="clip-12">
<path clip-rule="nonzero" d="M 230 5.480469 L 232 5.480469 L 232 182.851562 L 230 182.851562 Z M 230 5.480469 "/>
</clipPath>
<clipPath id="clip-13">
<path clip-rule="nonzero" d="M 285 5.480469 L 287 5.480469 L 287 182.851562 L 285 182.851562 Z M 285 5.480469 "/>
</clipPath>
</defs>
<rect x="-32.4" y="-21.6" width="388.8" height="259.2" fill="rgb(100%, 100%, 100%)" fill-opacity="1"/>
<rect x="-32.4" y="-21.6" width="388.8" height="259.2" fill="rgb(100%, 100%, 100%)" fill-opacity="1"/>
<path fill="none" stroke-width="1.066978" stroke-linecap="round" stroke-linejoin="round" stroke="rgb(100%, 100%, 100%)" stroke-opacity="1" stroke-miterlimit="10" d="M 0 216 L 324 216 L 324 0 L 0 0 Z M 0 216 "/>
<g clip-path="url(#clip-0)">
<path fill-rule="nonzero" fill="rgb(92.156863%, 92.156863%, 92.156863%)" fill-opacity="1" d="M 34.152344 182.847656 L 318.523438 182.847656 L 318.523438 5.476562 L 34.152344 5.476562 Z M 34.152344 182.847656 "/>
</g>
<g clip-path="url(#clip-1)">
<path fill="none" stroke-width="0.533489" stroke-linecap="butt" stroke-linejoin="round" stroke="rgb(100%, 100%, 100%)" stroke-opacity="1" stroke-miterlimit="10" d="M 34.152344 169.417969 L 318.519531 169.417969 "/>
</g>
<g clip-path="url(#clip-2)">
<path fill="none" stroke-width="0.533489" stroke-linecap="butt" stroke-linejoin="round" stroke="rgb(100%, 100%, 100%)" stroke-opacity="1" stroke-miterlimit="10" d="M 34.152344 124.65625 L 318.519531 124.65625 "/>
</g>
<g clip-path="url(#clip-3)">
<path fill="none" stroke-width="0.533489" stroke-linecap="butt" stroke-linejoin="round" stroke="rgb(100%, 100%, 100%)" stroke-opacity="1" stroke-miterlimit="10" d="M 34.152344 79.898438 L 318.519531 79.898438 "/>
</g>
<g clip-path="url(#clip-4)">
<path fill="none" stroke-width="0.533489" stroke-linecap="butt" stroke-linejoin="round" stroke="rgb(100%, 100%, 100%)" stroke-opacity="1" stroke-miterlimit="10" d="M 34.152344 35.140625 L 318.519531 35.140625 "/>
</g>
<g clip-path="url(#clip-5)">
<path fill="none" stroke-width="1.066978" stroke-linecap="butt" stroke-linejoin="round" stroke="rgb(100%, 100%, 100%)" stroke-opacity="1" stroke-miterlimit="10" d="M 34.152344 147.035156 L 318.519531 147.035156 "/>
</g>
<g clip-path="url(#clip-6)">
<path fill="none" stroke-width="1.066978" stroke-linecap="butt" stroke-linejoin="round" stroke="rgb(100%, 100%, 100%)" stroke-opacity="1" stroke-miterlimit="10" d="M 34.152344 102.277344 L 318.519531 102.277344 "/>
</g>
<g clip-path="url(#clip-7)">
<path fill="none" stroke-width="1.066978" stroke-linecap="butt" stroke-linejoin="round" stroke="rgb(100%, 100%, 100%)" stroke-opacity="1" stroke-miterlimit="10" d="M 34.152344 57.519531 L 318.519531 57.519531 "/>
</g>
<g clip-path="url(#clip-8)">
<path fill="none" stroke-width="1.066978" stroke-linecap="butt" stroke-linejoin="round" stroke="rgb(100%, 100%, 100%)" stroke-opacity="1" stroke-miterlimit="10" d="M 34.152344 12.761719 L 318.519531 12.761719 "/>
</g>
<g clip-path="url(#clip-9)">
<path fill="none" stroke-width="1.066978" stroke-linecap="butt" stroke-linejoin="round" stroke="rgb(100%, 100%, 100%)" stroke-opacity="1" stroke-miterlimit="10" d="M 66.960938 182.847656 L 66.960938 5.480469 "/>
</g>
<g clip-path="url(#clip-10)">
<path fill="none" stroke-width="1.066978" stroke-linecap="butt" stroke-linejoin="round" stroke="rgb(100%, 100%, 100%)" stroke-opacity="1" stroke-miterlimit="10" d="M 121.648438 182.847656 L 121.648438 5.480469 "/>
</g>
<g clip-path="url(#clip-11)">
<path fill="none" stroke-width="1.066978" stroke-linecap="butt" stroke-linejoin="round" stroke="rgb(100%, 100%, 100%)" stroke-opacity="1" stroke-miterlimit="10" d="M 176.335938 182.847656 L 176.335938 5.480469 "/>
</g>
<g clip-path="url(#clip-12)">
<path fill="none" stroke-width="1.066978" stroke-linecap="butt" stroke-linejoin="round" stroke="rgb(100%, 100%, 100%)" stroke-opacity="1" stroke-miterlimit="10" d="M 231.023438 182.847656 L 231.023438 5.480469 "/>
</g>
<g clip-path="url(#clip-13)">
<path fill="none" stroke-width="1.066978" stroke-linecap="butt" stroke-linejoin="round" stroke="rgb(100%, 100%, 100%)" stroke-opacity="1" stroke-miterlimit="10" d="M 285.707031 182.847656 L 285.707031 5.480469 "/>
</g>
<path fill="none" stroke-width="1.066978" stroke-linecap="butt" stroke-linejoin="round" stroke="rgb(0%, 0%, 0%)" stroke-opacity="1" stroke-miterlimit="10" d="M 66.960938 75.421875 L 66.960938 18.132812 "/>
<path fill="none" stroke-width="1.066978" stroke-linecap="butt" stroke-linejoin="round" stroke="rgb(0%, 0%, 0%)" stroke-opacity="1" stroke-miterlimit="10" d="M 66.960938 135.847656 L 66.960938 167.625 "/>
<path fill-rule="nonzero" fill="rgb(98.039216%, 50.196078%, 44.705882%)" fill-opacity="0.4" stroke-width="1.066978" stroke-linecap="butt" stroke-linejoin="miter" stroke="rgb(0%, 0%, 0%)" stroke-opacity="1" stroke-miterlimit="10" d="M 46.457031 75.421875 L 46.457031 135.847656 L 87.46875 135.847656 L 87.46875 75.421875 Z M 46.457031 75.421875 "/>
<path fill="none" stroke-width="2.133957" stroke-linecap="butt" stroke-linejoin="miter" stroke="rgb(0%, 0%, 0%)" stroke-opacity="1" stroke-miterlimit="10" d="M 46.457031 98.699219 L 87.46875 98.699219 "/>
<path fill="none" stroke-width="1.066978" stroke-linecap="butt" stroke-linejoin="round" stroke="rgb(0%, 0%, 0%)" stroke-opacity="1" stroke-miterlimit="10" d="M 121.648438 64.457031 L 121.648438 43.199219 "/>
<path fill="none" stroke-width="1.066978" stroke-linecap="butt" stroke-linejoin="round" stroke="rgb(0%, 0%, 0%)" stroke-opacity="1" stroke-miterlimit="10" d="M 121.648438 153.304688 L 121.648438 174.785156 "/>
<path fill-rule="nonzero" fill="rgb(98.039216%, 50.196078%, 44.705882%)" fill-opacity="0.4" stroke-width="1.066978" stroke-linecap="butt" stroke-linejoin="miter" stroke="rgb(0%, 0%, 0%)" stroke-opacity="1" stroke-miterlimit="10" d="M 101.140625 64.457031 L 101.140625 153.304688 L 142.15625 153.304688 L 142.15625 64.457031 Z M 101.140625 64.457031 "/>
<path fill="none" stroke-width="2.133957" stroke-linecap="butt" stroke-linejoin="miter" stroke="rgb(0%, 0%, 0%)" stroke-opacity="1" stroke-miterlimit="10" d="M 101.140625 99.59375 L 142.15625 99.59375 "/>
<path fill="none" stroke-width="1.066978" stroke-linecap="butt" stroke-linejoin="round" stroke="rgb(0%, 0%, 0%)" stroke-opacity="1" stroke-miterlimit="10" d="M 176.335938 15.449219 L 176.335938 13.65625 "/>
<path fill="none" stroke-width="1.066978" stroke-linecap="butt" stroke-linejoin="round" stroke="rgb(0%, 0%, 0%)" stroke-opacity="1" stroke-miterlimit="10" d="M 176.335938 114.8125 L 176.335938 116.601562 "/>
<path fill-rule="nonzero" fill="rgb(98.039216%, 50.196078%, 44.705882%)" fill-opacity="0.4" stroke-width="1.066978" stroke-linecap="butt" stroke-linejoin="miter" stroke="rgb(0%, 0%, 0%)" stroke-opacity="1" stroke-miterlimit="10" d="M 155.828125 15.449219 L 155.828125 114.8125 L 196.84375 114.8125 L 196.84375 15.449219 Z M 155.828125 15.449219 "/>
<path fill="none" stroke-width="2.133957" stroke-linecap="butt" stroke-linejoin="miter" stroke="rgb(0%, 0%, 0%)" stroke-opacity="1" stroke-miterlimit="10" d="M 155.828125 29.769531 L 196.84375 29.769531 "/>
<path fill-rule="nonzero" fill="rgb(80.392157%, 0%, 0%)" fill-opacity="1" stroke-width="0.708661" stroke-linecap="round" stroke-linejoin="round" stroke="rgb(80.392157%, 0%, 0%)" stroke-opacity="1" stroke-miterlimit="10" d="M 233.722656 39.617188 C 233.722656 43.21875 228.320312 43.21875 228.320312 39.617188 C 228.320312 36.015625 233.722656 36.015625 233.722656 39.617188 "/>
<path fill-rule="nonzero" fill="rgb(80.392157%, 0%, 0%)" fill-opacity="1" stroke-width="0.708661" stroke-linecap="round" stroke-linejoin="round" stroke="rgb(80.392157%, 0%, 0%)" stroke-opacity="1" stroke-miterlimit="10" d="M 233.722656 58.414062 C 233.722656 62.019531 228.320312 62.019531 228.320312 58.414062 C 228.320312 54.8125 233.722656 54.8125 233.722656 58.414062 "/>
<path fill-rule="nonzero" fill="rgb(80.392157%, 0%, 0%)" fill-opacity="1" stroke-width="0.708661" stroke-linecap="round" stroke-linejoin="round" stroke="rgb(80.392157%, 0%, 0%)" stroke-opacity="1" stroke-miterlimit="10" d="M 233.722656 30.664062 C 233.722656 34.269531 228.320312 34.269531 228.320312 30.664062 C 228.320312 27.0625 233.722656 27.0625 233.722656 30.664062 "/>
<path fill-rule="nonzero" fill="rgb(80.392157%, 0%, 0%)" fill-opacity="1" stroke-width="0.708661" stroke-linecap="round" stroke-linejoin="round" stroke="rgb(80.392157%, 0%, 0%)" stroke-opacity="1" stroke-miterlimit="10" d="M 233.722656 52.148438 C 233.722656 55.75 228.320312 55.75 228.320312 52.148438 C 228.320312 48.546875 233.722656 48.546875 233.722656 52.148438 "/>
<path fill="none" stroke-width="1.066978" stroke-linecap="butt" stroke-linejoin="round" stroke="rgb(0%, 0%, 0%)" stroke-opacity="1" stroke-miterlimit="10" d="M 231.023438 94 L 231.023438 93.328125 "/>
<path fill="none" stroke-width="1.066978" stroke-linecap="butt" stroke-linejoin="round" stroke="rgb(0%, 0%, 0%)" stroke-opacity="1" stroke-miterlimit="10" d="M 231.023438 110.335938 L 231.023438 120.183594 "/>
<path fill-rule="nonzero" fill="rgb(98.039216%, 50.196078%, 44.705882%)" fill-opacity="0.4" stroke-width="1.066978" stroke-linecap="butt" stroke-linejoin="miter" stroke="rgb(0%, 0%, 0%)" stroke-opacity="1" stroke-miterlimit="10" d="M 210.515625 94 L 210.515625 110.335938 L 251.53125 110.335938 L 251.53125 94 Z M 210.515625 94 "/>
<path fill="none" stroke-width="2.133957" stroke-linecap="butt" stroke-linejoin="miter" stroke="rgb(0%, 0%, 0%)" stroke-opacity="1" stroke-miterlimit="10" d="M 210.515625 103.171875 L 251.53125 103.171875 "/>
<path fill="none" stroke-width="1.066978" stroke-linecap="butt" stroke-linejoin="round" stroke="rgb(0%, 0%, 0%)" stroke-opacity="1" stroke-miterlimit="10" d="M 285.707031 83.03125 L 285.707031 69.15625 "/>
<path fill="none" stroke-width="1.066978" stroke-linecap="butt" stroke-linejoin="round" stroke="rgb(0%, 0%, 0%)" stroke-opacity="1" stroke-miterlimit="10" d="M 285.707031 114.363281 L 285.707031 143.457031 "/>
<path fill-rule="nonzero" fill="rgb(98.039216%, 50.196078%, 44.705882%)" fill-opacity="0.4" stroke-width="1.066978" stroke-linecap="butt" stroke-linejoin="miter" stroke="rgb(0%, 0%, 0%)" stroke-opacity="1" stroke-miterlimit="10" d="M 265.203125 83.03125 L 265.203125 114.363281 L 306.214844 114.363281 L 306.214844 83.03125 Z M 265.203125 83.03125 "/>
<path fill="none" stroke-width="2.133957" stroke-linecap="butt" stroke-linejoin="miter" stroke="rgb(0%, 0%, 0%)" stroke-opacity="1" stroke-miterlimit="10" d="M 265.203125 96.90625 L 306.214844 96.90625 "/>
<path fill-rule="nonzero" fill="rgb(0%, 0%, 100%)" fill-opacity="0.501961" stroke-width="0.708661" stroke-linecap="round" stroke-linejoin="round" stroke="rgb(0%, 0%, 50.196078%)" stroke-opacity="0.501961" stroke-miterlimit="10" d="M 67.082031 83.460938 C 67.082031 87.0625 61.679688 87.0625 61.679688 83.460938 C 61.679688 79.859375 67.082031 79.859375 67.082031 83.460938 "/>
<path fill-rule="nonzero" fill="rgb(0%, 0%, 100%)" fill-opacity="0.501961" stroke-width="0.708661" stroke-linecap="round" stroke-linejoin="round" stroke="rgb(0%, 0%, 50.196078%)" stroke-opacity="0.501961" stroke-miterlimit="10" d="M 235.972656 39.945312 C 235.972656 43.546875 230.570312 43.546875 230.570312 39.945312 C 230.570312 36.34375 235.972656 36.34375 235.972656 39.945312 "/>
<path fill-rule="nonzero" fill="rgb(0%, 0%, 100%)" fill-opacity="0.501961" stroke-width="0.708661" stroke-linecap="round" stroke-linejoin="round" stroke="rgb(0%, 0%, 50.196078%)" stroke-opacity="0.501961" stroke-miterlimit="10" d="M 124.414062 63.066406 C 124.414062 66.667969 119.011719 66.667969 119.011719 63.066406 C 119.011719 59.464844 124.414062 59.464844 124.414062 63.066406 "/>
<path fill-rule="nonzero" fill="rgb(0%, 0%, 100%)" fill-opacity="0.501961" stroke-width="0.708661" stroke-linecap="round" stroke-linejoin="round" stroke="rgb(0%, 0%, 50.196078%)" stroke-opacity="0.501961" stroke-miterlimit="10" d="M 237.4375 58.699219 C 237.4375 62.300781 232.035156 62.300781 232.035156 58.699219 C 232.035156 55.097656 237.4375 55.097656 237.4375 58.699219 "/>
<path fill-rule="nonzero" fill="rgb(0%, 0%, 100%)" fill-opacity="0.501961" stroke-width="0.708661" stroke-linecap="round" stroke-linejoin="round" stroke="rgb(0%, 0%, 50.196078%)" stroke-opacity="0.501961" stroke-miterlimit="10" d="M 123.6875 155.957031 C 123.6875 159.558594 118.285156 159.558594 118.285156 155.957031 C 118.285156 152.351562 123.6875 152.351562 123.6875 155.957031 "/>
<path fill-rule="nonzero" fill="rgb(0%, 0%, 100%)" fill-opacity="0.501961" stroke-width="0.708661" stroke-linecap="round" stroke-linejoin="round" stroke="rgb(0%, 0%, 50.196078%)" stroke-opacity="0.501961" stroke-miterlimit="10" d="M 126.144531 63.222656 C 126.144531 66.824219 120.742188 66.824219 120.742188 63.222656 C 120.742188 59.617188 126.144531 59.617188 126.144531 63.222656 "/>
<path fill-rule="nonzero" fill="rgb(0%, 0%, 100%)" fill-opacity="0.501961" stroke-width="0.708661" stroke-linecap="round" stroke-linejoin="round" stroke="rgb(0%, 0%, 50.196078%)" stroke-opacity="0.501961" stroke-miterlimit="10" d="M 70.296875 114.21875 C 70.296875 117.820312 64.890625 117.820312 64.890625 114.21875 C 64.890625 110.613281 70.296875 110.613281 70.296875 114.21875 "/>
<path fill-rule="nonzero" fill="rgb(0%, 0%, 100%)" fill-opacity="0.501961" stroke-width="0.708661" stroke-linecap="round" stroke-linejoin="round" stroke="rgb(0%, 0%, 50.196078%)" stroke-opacity="0.501961" stroke-miterlimit="10" d="M 293.613281 128.789062 C 293.613281 132.390625 288.210938 132.390625 288.210938 128.789062 C 288.210938 125.183594 293.613281 125.183594 293.613281 128.789062 "/>
<path fill-rule="nonzero" fill="rgb(0%, 0%, 100%)" fill-opacity="0.501961" stroke-width="0.708661" stroke-linecap="round" stroke-linejoin="round" stroke="rgb(0%, 0%, 50.196078%)" stroke-opacity="0.501961" stroke-miterlimit="10" d="M 70.234375 101.523438 C 70.234375 105.125 64.832031 105.125 64.832031 101.523438 C 64.832031 97.921875 70.234375 97.921875 70.234375 101.523438 "/>
<path fill-rule="nonzero" fill="rgb(0%, 0%, 100%)" fill-opacity="0.501961" stroke-width="0.708661" stroke-linecap="round" stroke-linejoin="round" stroke="rgb(0%, 0%, 50.196078%)" stroke-opacity="0.501961" stroke-miterlimit="10" d="M 128.378906 164.707031 C 128.378906 168.308594 122.972656 168.308594 122.972656 164.707031 C 122.972656 161.105469 128.378906 161.105469 128.378906 164.707031 "/>
<path fill-rule="nonzero" fill="rgb(0%, 0%, 100%)" fill-opacity="0.501961" stroke-width="0.708661" stroke-linecap="round" stroke-linejoin="round" stroke="rgb(0%, 0%, 50.196078%)" stroke-opacity="0.501961" stroke-miterlimit="10" d="M 128.105469 144.609375 C 128.105469 148.210938 122.703125 148.210938 122.703125 144.609375 C 122.703125 141.003906 128.105469 141.003906 128.105469 144.609375 "/>
<path fill-rule="nonzero" fill="rgb(0%, 0%, 100%)" fill-opacity="0.501961" stroke-width="0.708661" stroke-linecap="round" stroke-linejoin="round" stroke="rgb(0%, 0%, 50.196078%)" stroke-opacity="0.501961" stroke-miterlimit="10" d="M 128.960938 107.808594 C 128.960938 111.410156 123.558594 111.410156 123.558594 107.808594 C 123.558594 104.207031 128.960938 104.207031 128.960938 107.808594 "/>
<path fill-rule="nonzero" fill="rgb(0%, 0%, 100%)" fill-opacity="0.501961" stroke-width="0.708661" stroke-linecap="round" stroke-linejoin="round" stroke="rgb(0%, 0%, 50.196078%)" stroke-opacity="0.501961" stroke-miterlimit="10" d="M 228.738281 102.636719 C 228.738281 106.238281 223.332031 106.238281 223.332031 102.636719 C 223.332031 99.03125 228.738281 99.03125 228.738281 102.636719 "/>
<path fill-rule="nonzero" fill="rgb(0%, 0%, 100%)" fill-opacity="0.501961" stroke-width="0.708661" stroke-linecap="round" stroke-linejoin="round" stroke="rgb(0%, 0%, 50.196078%)" stroke-opacity="0.501961" stroke-miterlimit="10" d="M 120.988281 80.101562 C 120.988281 83.703125 115.582031 83.703125 115.582031 80.101562 C 115.582031 76.5 120.988281 76.5 120.988281 80.101562 "/>
<path fill-rule="nonzero" fill="rgb(0%, 0%, 100%)" fill-opacity="0.501961" stroke-width="0.708661" stroke-linecap="round" stroke-linejoin="round" stroke="rgb(0%, 0%, 50.196078%)" stroke-opacity="0.501961" stroke-miterlimit="10" d="M 235.304688 99.625 C 235.304688 103.226562 229.902344 103.226562 229.902344 99.625 C 229.902344 96.023438 235.304688 96.023438 235.304688 99.625 "/>
<path fill-rule="nonzero" fill="rgb(0%, 0%, 100%)" fill-opacity="0.501961" stroke-width="0.708661" stroke-linecap="round" stroke-linejoin="round" stroke="rgb(0%, 0%, 50.196078%)" stroke-opacity="0.501961" stroke-miterlimit="10" d="M 237.425781 117.421875 C 237.425781 121.023438 232.023438 121.023438 232.023438 117.421875 C 232.023438 113.820312 237.425781 113.820312 237.425781 117.421875 "/>
<path fill-rule="nonzero" fill="rgb(0%, 0%, 100%)" fill-opacity="0.501961" stroke-width="0.708661" stroke-linecap="round" stroke-linejoin="round" stroke="rgb(0%, 0%, 50.196078%)" stroke-opacity="0.501961" stroke-miterlimit="10" d="M 231.089844 110.007812 C 231.089844 113.609375 225.683594 113.609375 225.683594 110.007812 C 225.683594 106.40625 231.089844 106.40625 231.089844 110.007812 "/>
<path fill-rule="nonzero" fill="rgb(0%, 0%, 100%)" fill-opacity="0.501961" stroke-width="0.708661" stroke-linecap="round" stroke-linejoin="round" stroke="rgb(0%, 0%, 50.196078%)" stroke-opacity="0.501961" stroke-miterlimit="10" d="M 72.335938 35.945312 C 72.335938 39.546875 66.933594 39.546875 66.933594 35.945312 C 66.933594 32.339844 72.335938 32.339844 72.335938 35.945312 "/>
<path fill-rule="nonzero" fill="rgb(0%, 0%, 100%)" fill-opacity="0.501961" stroke-width="0.708661" stroke-linecap="round" stroke-linejoin="round" stroke="rgb(0%, 0%, 50.196078%)" stroke-opacity="0.501961" stroke-miterlimit="10" d="M 125.449219 144.03125 C 125.449219 147.636719 120.046875 147.636719 120.046875 144.03125 C 120.046875 140.429688 125.449219 140.429688 125.449219 144.03125 "/>
<path fill-rule="nonzero" fill="rgb(0%, 0%, 100%)" fill-opacity="0.501961" stroke-width="0.708661" stroke-linecap="round" stroke-linejoin="round" stroke="rgb(0%, 0%, 50.196078%)" stroke-opacity="0.501961" stroke-miterlimit="10" d="M 238.027344 30.308594 C 238.027344 33.910156 232.621094 33.910156 232.621094 30.308594 C 232.621094 26.707031 238.027344 26.707031 238.027344 30.308594 "/>
<path fill-rule="nonzero" fill="rgb(0%, 0%, 100%)" fill-opacity="0.501961" stroke-width="0.708661" stroke-linecap="round" stroke-linejoin="round" stroke="rgb(0%, 0%, 50.196078%)" stroke-opacity="0.501961" stroke-miterlimit="10" d="M 121.714844 157.207031 C 121.714844 160.808594 116.308594 160.808594 116.308594 157.207031 C 116.308594 153.605469 121.714844 153.605469 121.714844 157.207031 "/>
<path fill-rule="nonzero" fill="rgb(0%, 0%, 100%)" fill-opacity="0.501961" stroke-width="0.708661" stroke-linecap="round" stroke-linejoin="round" stroke="rgb(0%, 0%, 50.196078%)" stroke-opacity="0.501961" stroke-miterlimit="10" d="M 178.769531 15.636719 C 178.769531 19.242188 173.367188 19.242188 173.367188 15.636719 C 173.367188 12.035156 178.769531 12.035156 178.769531 15.636719 "/>
<path fill-rule="nonzero" fill="rgb(0%, 0%, 100%)" fill-opacity="0.501961" stroke-width="0.708661" stroke-linecap="round" stroke-linejoin="round" stroke="rgb(0%, 0%, 50.196078%)" stroke-opacity="0.501961" stroke-miterlimit="10" d="M 119.8125 165.855469 C 119.8125 169.457031 114.410156 169.457031 114.410156 165.855469 C 114.410156 162.25 119.8125 162.25 119.8125 165.855469 "/>
<path fill-rule="nonzero" fill="rgb(0%, 0%, 100%)" fill-opacity="0.501961" stroke-width="0.708661" stroke-linecap="round" stroke-linejoin="round" stroke="rgb(0%, 0%, 50.196078%)" stroke-opacity="0.501961" stroke-miterlimit="10" d="M 119.347656 163.738281 C 119.347656 167.339844 113.941406 167.339844 113.941406 163.738281 C 113.941406 160.136719 119.347656 160.136719 119.347656 163.738281 "/>
<path fill-rule="nonzero" fill="rgb(0%, 0%, 100%)" fill-opacity="0.501961" stroke-width="0.708661" stroke-linecap="round" stroke-linejoin="round" stroke="rgb(0%, 0%, 50.196078%)" stroke-opacity="0.501961" stroke-miterlimit="10" d="M 229.925781 101.167969 C 229.925781 104.773438 224.523438 104.773438 224.523438 101.167969 C 224.523438 97.566406 229.925781 97.566406 229.925781 101.167969 "/>
<path fill-rule="nonzero" fill="rgb(0%, 0%, 100%)" fill-opacity="0.501961" stroke-width="0.708661" stroke-linecap="round" stroke-linejoin="round" stroke="rgb(0%, 0%, 50.196078%)" stroke-opacity="0.501961" stroke-miterlimit="10" d="M 232.175781 94.257812 C 232.175781 97.859375 226.773438 97.859375 226.773438 94.257812 C 226.773438 90.65625 232.175781 90.65625 232.175781 94.257812 "/>
<path fill-rule="nonzero" fill="rgb(0%, 0%, 100%)" fill-opacity="0.501961" stroke-width="0.708661" stroke-linecap="round" stroke-linejoin="round" stroke="rgb(0%, 0%, 50.196078%)" stroke-opacity="0.501961" stroke-miterlimit="10" d="M 126.390625 58.375 C 126.390625 61.976562 120.984375 61.976562 120.984375 58.375 C 120.984375 54.773438 126.390625 54.773438 126.390625 58.375 "/>
<path fill-rule="nonzero" fill="rgb(0%, 0%, 100%)" fill-opacity="0.501961" stroke-width="0.708661" stroke-linecap="round" stroke-linejoin="round" stroke="rgb(0%, 0%, 50.196078%)" stroke-opacity="0.501961" stroke-miterlimit="10" d="M 69.71875 80.1875 C 69.71875 83.792969 64.3125 83.792969 64.3125 80.1875 C 64.3125 76.585938 69.71875 76.585938 69.71875 80.1875 "/>
<path fill-rule="nonzero" fill="rgb(0%, 0%, 100%)" fill-opacity="0.501961" stroke-width="0.708661" stroke-linecap="round" stroke-linejoin="round" stroke="rgb(0%, 0%, 50.196078%)" stroke-opacity="0.501961" stroke-miterlimit="10" d="M 228.722656 104.0625 C 228.722656 107.664062 223.320312 107.664062 223.320312 104.0625 C 223.320312 100.460938 228.722656 100.460938 228.722656 104.0625 "/>
<path fill-rule="nonzero" fill="rgb(0%, 0%, 100%)" fill-opacity="0.501961" stroke-width="0.708661" stroke-linecap="round" stroke-linejoin="round" stroke="rgb(0%, 0%, 50.196078%)" stroke-opacity="0.501961" stroke-miterlimit="10" d="M 120.75 174.691406 C 120.75 178.296875 115.347656 178.296875 115.347656 174.691406 C 115.347656 171.089844 120.75 171.089844 120.75 174.691406 "/>
<path fill-rule="nonzero" fill="rgb(0%, 0%, 100%)" fill-opacity="0.501961" stroke-width="0.708661" stroke-linecap="round" stroke-linejoin="round" stroke="rgb(0%, 0%, 50.196078%)" stroke-opacity="0.501961" stroke-miterlimit="10" d="M 68.617188 167.789062 C 68.617188 171.390625 63.210938 171.390625 63.210938 167.789062 C 63.210938 164.1875 68.617188 164.1875 68.617188 167.789062 "/>
<path fill-rule="nonzero" fill="rgb(0%, 0%, 100%)" fill-opacity="0.501961" stroke-width="0.708661" stroke-linecap="round" stroke-linejoin="round" stroke="rgb(0%, 0%, 50.196078%)" stroke-opacity="0.501961" stroke-miterlimit="10" d="M 65.347656 136.578125 C 65.347656 140.179688 59.945312 140.179688 59.945312 136.578125 C 59.945312 132.976562 65.347656 132.976562 65.347656 136.578125 "/>
<path fill-rule="nonzero" fill="rgb(0%, 0%, 100%)" fill-opacity="0.501961" stroke-width="0.708661" stroke-linecap="round" stroke-linejoin="round" stroke="rgb(0%, 0%, 50.196078%)" stroke-opacity="0.501961" stroke-miterlimit="10" d="M 124.847656 135.464844 C 124.847656 139.066406 119.445312 139.066406 119.445312 135.464844 C 119.445312 131.863281 124.847656 131.863281 124.847656 135.464844 "/>
<path fill-rule="nonzero" fill="rgb(0%, 0%, 100%)" fill-opacity="0.501961" stroke-width="0.708661" stroke-linecap="round" stroke-linejoin="round" stroke="rgb(0%, 0%, 50.196078%)" stroke-opacity="0.501961" stroke-miterlimit="10" d="M 234.222656 119.972656 C 234.222656 123.574219 228.820312 123.574219 228.820312 119.972656 C 228.820312 116.371094 234.222656 116.371094 234.222656 119.972656 "/>
<path fill-rule="nonzero" fill="rgb(0%, 0%, 100%)" fill-opacity="0.501961" stroke-width="0.708661" stroke-linecap="round" stroke-linejoin="round" stroke="rgb(0%, 0%, 50.196078%)" stroke-opacity="0.501961" stroke-miterlimit="10" d="M 119.140625 106.46875 C 119.140625 110.070312 113.734375 110.070312 113.734375 106.46875 C 113.734375 102.867188 119.140625 102.867188 119.140625 106.46875 "/>
<path fill-rule="nonzero" fill="rgb(0%, 0%, 100%)" fill-opacity="0.501961" stroke-width="0.708661" stroke-linecap="round" stroke-linejoin="round" stroke="rgb(0%, 0%, 50.196078%)" stroke-opacity="0.501961" stroke-miterlimit="10" d="M 129.027344 162.460938 C 129.027344 166.0625 123.625 166.0625 123.625 162.460938 C 123.625 158.859375 129.027344 158.859375 129.027344 162.460938 "/>
<path fill-rule="nonzero" fill="rgb(0%, 0%, 100%)" fill-opacity="0.501961" stroke-width="0.708661" stroke-linecap="round" stroke-linejoin="round" stroke="rgb(0%, 0%, 50.196078%)" stroke-opacity="0.501961" stroke-miterlimit="10" d="M 71.351562 18.421875 C 71.351562 22.027344 65.949219 22.027344 65.949219 18.421875 C 65.949219 14.820312 71.351562 14.820312 71.351562 18.421875 "/>
<path fill-rule="nonzero" fill="rgb(0%, 0%, 100%)" fill-opacity="0.501961" stroke-width="0.708661" stroke-linecap="round" stroke-linejoin="round" stroke="rgb(0%, 0%, 50.196078%)" stroke-opacity="0.501961" stroke-miterlimit="10" d="M 231.78125 101.464844 C 231.78125 105.066406 226.378906 105.066406 226.378906 101.464844 C 226.378906 97.863281 231.78125 97.863281 231.78125 101.464844 "/>
<path fill-rule="nonzero" fill="rgb(0%, 0%, 100%)" fill-opacity="0.501961" stroke-width="0.708661" stroke-linecap="round" stroke-linejoin="round" stroke="rgb(0%, 0%, 50.196078%)" stroke-opacity="0.501961" stroke-miterlimit="10" d="M 118.917969 64.347656 C 118.917969 67.949219 113.515625 67.949219 113.515625 64.347656 C 113.515625 60.746094 118.917969 60.746094 118.917969 64.347656 "/>
<path fill-rule="nonzero" fill="rgb(0%, 0%, 100%)" fill-opacity="0.501961" stroke-width="0.708661" stroke-linecap="round" stroke-linejoin="round" stroke="rgb(0%, 0%, 50.196078%)" stroke-opacity="0.501961" stroke-miterlimit="10" d="M 124.972656 63.914062 C 124.972656 67.515625 119.570312 67.515625 119.570312 63.914062 C 119.570312 60.3125 124.972656 60.3125 124.972656 63.914062 "/>
<path fill-rule="nonzero" fill="rgb(0%, 0%, 100%)" fill-opacity="0.501961" stroke-width="0.708661" stroke-linecap="round" stroke-linejoin="round" stroke="rgb(0%, 0%, 50.196078%)" stroke-opacity="0.501961" stroke-miterlimit="10" d="M 120.789062 77.027344 C 120.789062 80.628906 115.386719 80.628906 115.386719 77.027344 C 115.386719 73.425781 120.789062 73.425781 120.789062 77.027344 "/>
<path fill-rule="nonzero" fill="rgb(0%, 0%, 100%)" fill-opacity="0.501961" stroke-width="0.708661" stroke-linecap="round" stroke-linejoin="round" stroke="rgb(0%, 0%, 50.196078%)" stroke-opacity="0.501961" stroke-miterlimit="10" d="M 122.195312 79.957031 C 122.195312 83.5625 116.792969 83.5625 116.792969 79.957031 C 116.792969 76.355469 122.195312 76.355469 122.195312 79.957031 "/>
<path fill-rule="nonzero" fill="rgb(0%, 0%, 100%)" fill-opacity="0.501961" stroke-width="0.708661" stroke-linecap="round" stroke-linejoin="round" stroke="rgb(0%, 0%, 50.196078%)" stroke-opacity="0.501961" stroke-miterlimit="10" d="M 177.128906 13.542969 C 177.128906 17.144531 171.726562 17.144531 171.726562 13.542969 C 171.726562 9.941406 177.128906 9.941406 177.128906 13.542969 "/>
<path fill-rule="nonzero" fill="rgb(0%, 0%, 100%)" fill-opacity="0.501961" stroke-width="0.708661" stroke-linecap="round" stroke-linejoin="round" stroke="rgb(0%, 0%, 50.196078%)" stroke-opacity="0.501961" stroke-miterlimit="10" d="M 119.714844 60.996094 C 119.714844 64.597656 114.308594 64.597656 114.308594 60.996094 C 114.308594 57.394531 119.714844 57.394531 119.714844 60.996094 "/>
<path fill-rule="nonzero" fill="rgb(0%, 0%, 100%)" fill-opacity="0.501961" stroke-width="0.708661" stroke-linecap="round" stroke-linejoin="round" stroke="rgb(0%, 0%, 50.196078%)" stroke-opacity="0.501961" stroke-miterlimit="10" d="M 65.207031 93.132812 C 65.207031 96.734375 59.804688 96.734375 59.804688 93.132812 C 59.804688 89.53125 65.207031 89.53125 65.207031 93.132812 "/>
<path fill-rule="nonzero" fill="rgb(0%, 0%, 100%)" fill-opacity="0.501961" stroke-width="0.708661" stroke-linecap="round" stroke-linejoin="round" stroke="rgb(0%, 0%, 50.196078%)" stroke-opacity="0.501961" stroke-miterlimit="10" d="M 126.070312 123.222656 C 126.070312 126.828125 120.667969 126.828125 120.667969 123.222656 C 120.667969 119.621094 126.070312 119.621094 126.070312 123.222656 "/>
<path fill-rule="nonzero" fill="rgb(0%, 0%, 100%)" fill-opacity="0.501961" stroke-width="0.708661" stroke-linecap="round" stroke-linejoin="round" stroke="rgb(0%, 0%, 50.196078%)" stroke-opacity="0.501961" stroke-miterlimit="10" d="M 71.980469 61.695312 C 71.980469 65.296875 66.578125 65.296875 66.578125 61.695312 C 66.578125 58.09375 71.980469 58.09375 71.980469 61.695312 "/>
<path fill-rule="nonzero" fill="rgb(0%, 0%, 100%)" fill-opacity="0.501961" stroke-width="0.708661" stroke-linecap="round" stroke-linejoin="round" stroke="rgb(0%, 0%, 50.196078%)" stroke-opacity="0.501961" stroke-miterlimit="10" d="M 129.113281 116.664062 C 129.113281 120.265625 123.710938 120.265625 123.710938 116.664062 C 123.710938 113.0625 129.113281 113.0625 129.113281 116.664062 "/>
<path fill-rule="nonzero" fill="rgb(0%, 0%, 100%)" fill-opacity="0.501961" stroke-width="0.708661" stroke-linecap="round" stroke-linejoin="round" stroke="rgb(0%, 0%, 50.196078%)" stroke-opacity="0.501961" stroke-miterlimit="10" d="M 122.101562 157.78125 C 122.101562 161.386719 116.699219 161.386719 116.699219 157.78125 C 116.699219 154.179688 122.101562 154.179688 122.101562 157.78125 "/>
<path fill-rule="nonzero" fill="rgb(0%, 0%, 100%)" fill-opacity="0.501961" stroke-width="0.708661" stroke-linecap="round" stroke-linejoin="round" stroke="rgb(0%, 0%, 50.196078%)" stroke-opacity="0.501961" stroke-miterlimit="10" d="M 234.398438 105.3125 C 234.398438 108.914062 228.996094 108.914062 228.996094 105.3125 C 228.996094 101.710938 234.398438 101.710938 234.398438 105.3125 "/>
<path fill-rule="nonzero" fill="rgb(0%, 0%, 100%)" fill-opacity="0.501961" stroke-width="0.708661" stroke-linecap="round" stroke-linejoin="round" stroke="rgb(0%, 0%, 50.196078%)" stroke-opacity="0.501961" stroke-miterlimit="10" d="M 70.117188 50.132812 C 70.117188 53.734375 64.714844 53.734375 64.714844 50.132812 C 64.714844 46.53125 70.117188 46.53125 70.117188 50.132812 "/>
<path fill-rule="nonzero" fill="rgb(0%, 0%, 100%)" fill-opacity="0.501961" stroke-width="0.708661" stroke-linecap="round" stroke-linejoin="round" stroke="rgb(0%, 0%, 50.196078%)" stroke-opacity="0.501961" stroke-miterlimit="10" d="M 68.730469 99.015625 C 68.730469 102.617188 63.328125 102.617188 63.328125 99.015625 C 63.328125 95.410156 68.730469 95.410156 68.730469 99.015625 "/>
<path fill-rule="nonzero" fill="rgb(0%, 0%, 100%)" fill-opacity="0.501961" stroke-width="0.708661" stroke-linecap="round" stroke-linejoin="round" stroke="rgb(0%, 0%, 50.196078%)" stroke-opacity="0.501961" stroke-miterlimit="10" d="M 69.242188 70.921875 C 69.242188 74.527344 63.835938 74.527344 63.835938 70.921875 C 63.835938 67.320312 69.242188 67.320312 69.242188 70.921875 "/>
<path fill-rule="nonzero" fill="rgb(0%, 0%, 100%)" fill-opacity="0.501961" stroke-width="0.708661" stroke-linecap="round" stroke-linejoin="round" stroke="rgb(0%, 0%, 50.196078%)" stroke-opacity="0.501961" stroke-miterlimit="10" d="M 235.273438 107.382812 C 235.273438 110.984375 229.871094 110.984375 229.871094 107.382812 C 229.871094 103.78125 235.273438 103.78125 235.273438 107.382812 "/>
<path fill-rule="nonzero" fill="rgb(0%, 0%, 100%)" fill-opacity="0.501961" stroke-width="0.708661" stroke-linecap="round" stroke-linejoin="round" stroke="rgb(0%, 0%, 50.196078%)" stroke-opacity="0.501961" stroke-miterlimit="10" d="M 283.832031 99.65625 C 283.832031 103.261719 278.429688 103.261719 278.429688 99.65625 C 278.429688 96.054688 283.832031 96.054688 283.832031 99.65625 "/>
<path fill-rule="nonzero" fill="rgb(0%, 0%, 100%)" fill-opacity="0.501961" stroke-width="0.708661" stroke-linecap="round" stroke-linejoin="round" stroke="rgb(0%, 0%, 50.196078%)" stroke-opacity="0.501961" stroke-miterlimit="10" d="M 237.820312 93.644531 C 237.820312 97.246094 232.417969 97.246094 232.417969 93.644531 C 232.417969 90.042969 237.820312 90.042969 237.820312 93.644531 "/>
<path fill-rule="nonzero" fill="rgb(0%, 0%, 100%)" fill-opacity="0.501961" stroke-width="0.708661" stroke-linecap="round" stroke-linejoin="round" stroke="rgb(0%, 0%, 50.196078%)" stroke-opacity="0.501961" stroke-miterlimit="10" d="M 291.039062 89.136719 C 291.039062 92.738281 285.636719 92.738281 285.636719 89.136719 C 285.636719 85.535156 291.039062 85.535156 291.039062 89.136719 "/>
<path fill-rule="nonzero" fill="rgb(0%, 0%, 100%)" fill-opacity="0.501961" stroke-width="0.708661" stroke-linecap="round" stroke-linejoin="round" stroke="rgb(0%, 0%, 50.196078%)" stroke-opacity="0.501961" stroke-miterlimit="10" d="M 287.535156 69.132812 C 287.535156 72.734375 282.132812 72.734375 282.132812 69.132812 C 282.132812 65.527344 287.535156 65.527344 287.535156 69.132812 "/>
<path fill-rule="nonzero" fill="rgb(0%, 0%, 100%)" fill-opacity="0.501961" stroke-width="0.708661" stroke-linecap="round" stroke-linejoin="round" stroke="rgb(0%, 0%, 50.196078%)" stroke-opacity="0.501961" stroke-miterlimit="10" d="M 67.476562 160.4375 C 67.476562 164.039062 62.074219 164.039062 62.074219 160.4375 C 62.074219 156.835938 67.476562 156.835938 67.476562 160.4375 "/>
<path fill-rule="nonzero" fill="rgb(0%, 0%, 100%)" fill-opacity="0.501961" stroke-width="0.708661" stroke-linecap="round" stroke-linejoin="round" stroke="rgb(0%, 0%, 50.196078%)" stroke-opacity="0.501961" stroke-miterlimit="10" d="M 73.25 141.390625 C 73.25 144.996094 67.847656 144.996094 67.847656 141.390625 C 67.847656 137.789062 73.25 137.789062 73.25 141.390625 "/>
<path fill-rule="nonzero" fill="rgb(0%, 0%, 100%)" fill-opacity="0.501961" stroke-width="0.708661" stroke-linecap="round" stroke-linejoin="round" stroke="rgb(0%, 0%, 50.196078%)" stroke-opacity="0.501961" stroke-miterlimit="10" d="M 125.371094 92.144531 C 125.371094 95.75 119.96875 95.75 119.96875 92.144531 C 119.96875 88.542969 125.371094 88.542969 125.371094 92.144531 "/>
<path fill-rule="nonzero" fill="rgb(0%, 0%, 100%)" fill-opacity="0.501961" stroke-width="0.708661" stroke-linecap="round" stroke-linejoin="round" stroke="rgb(0%, 0%, 50.196078%)" stroke-opacity="0.501961" stroke-miterlimit="10" d="M 180.8125 30.054688 C 180.8125 33.65625 175.410156 33.65625 175.410156 30.054688 C 175.410156 26.453125 180.8125 26.453125 180.8125 30.054688 "/>
<path fill-rule="nonzero" fill="rgb(0%, 0%, 100%)" fill-opacity="0.501961" stroke-width="0.708661" stroke-linecap="round" stroke-linejoin="round" stroke="rgb(0%, 0%, 50.196078%)" stroke-opacity="0.501961" stroke-miterlimit="10" d="M 286.773438 143.359375 C 286.773438 146.960938 281.371094 146.960938 281.371094 143.359375 C 281.371094 139.753906 286.773438 139.753906 286.773438 143.359375 "/>
<path fill-rule="nonzero" fill="rgb(0%, 0%, 100%)" fill-opacity="0.501961" stroke-width="0.708661" stroke-linecap="round" stroke-linejoin="round" stroke="rgb(0%, 0%, 50.196078%)" stroke-opacity="0.501961" stroke-miterlimit="10" d="M 128.132812 75.070312 C 128.132812 78.671875 122.730469 78.671875 122.730469 75.070312 C 122.730469 71.46875 128.132812 71.46875 128.132812 75.070312 "/>
<path fill-rule="nonzero" fill="rgb(0%, 0%, 100%)" fill-opacity="0.501961" stroke-width="0.708661" stroke-linecap="round" stroke-linejoin="round" stroke="rgb(0%, 0%, 50.196078%)" stroke-opacity="0.501961" stroke-miterlimit="10" d="M 233.070312 113.773438 C 233.070312 117.375 227.667969 117.375 227.667969 113.773438 C 227.667969 110.171875 233.070312 110.171875 233.070312 113.773438 "/>
<path fill-rule="nonzero" fill="rgb(0%, 0%, 100%)" fill-opacity="0.501961" stroke-width="0.708661" stroke-linecap="round" stroke-linejoin="round" stroke="rgb(0%, 0%, 50.196078%)" stroke-opacity="0.501961" stroke-miterlimit="10" d="M 229.1875 106.007812 C 229.1875 109.609375 223.785156 109.609375 223.785156 106.007812 C 223.785156 102.40625 229.1875 102.40625 229.1875 106.007812 "/>
<path fill-rule="nonzero" fill="rgb(0%, 0%, 100%)" fill-opacity="0.501961" stroke-width="0.708661" stroke-linecap="round" stroke-linejoin="round" stroke="rgb(0%, 0%, 50.196078%)" stroke-opacity="0.501961" stroke-miterlimit="10" d="M 182.378906 116.746094 C 182.378906 120.347656 176.976562 120.347656 176.976562 116.746094 C 176.976562 113.144531 182.378906 113.144531 182.378906 116.746094 "/>
<path fill-rule="nonzero" fill="rgb(0%, 0%, 100%)" fill-opacity="0.501961" stroke-width="0.708661" stroke-linecap="round" stroke-linejoin="round" stroke="rgb(0%, 0%, 50.196078%)" stroke-opacity="0.501961" stroke-miterlimit="10" d="M 119.183594 90.476562 C 119.183594 94.078125 113.78125 94.078125 113.78125 90.476562 C 113.78125 86.875 119.183594 86.875 119.183594 90.476562 "/>
<path fill-rule="nonzero" fill="rgb(0%, 0%, 100%)" fill-opacity="0.501961" stroke-width="0.708661" stroke-linecap="round" stroke-linejoin="round" stroke="rgb(0%, 0%, 50.196078%)" stroke-opacity="0.501961" stroke-miterlimit="10" d="M 288.15625 96.8125 C 288.15625 100.414062 282.75 100.414062 282.75 96.8125 C 282.75 93.207031 288.15625 93.207031 288.15625 96.8125 "/>
<path fill-rule="nonzero" fill="rgb(0%, 0%, 100%)" fill-opacity="0.501961" stroke-width="0.708661" stroke-linecap="round" stroke-linejoin="round" stroke="rgb(0%, 0%, 50.196078%)" stroke-opacity="0.501961" stroke-miterlimit="10" d="M 125.667969 42.890625 C 125.667969 46.492188 120.265625 46.492188 120.265625 42.890625 C 120.265625 39.289062 125.667969 39.289062 125.667969 42.890625 "/>
<path fill-rule="nonzero" fill="rgb(0%, 0%, 100%)" fill-opacity="0.501961" stroke-width="0.708661" stroke-linecap="round" stroke-linejoin="round" stroke="rgb(0%, 0%, 50.196078%)" stroke-opacity="0.501961" stroke-miterlimit="10" d="M 129.722656 68.542969 C 129.722656 72.144531 124.320312 72.144531 124.320312 68.542969 C 124.320312 64.941406 129.722656 64.941406 129.722656 68.542969 "/>
<path fill-rule="nonzero" fill="rgb(0%, 0%, 100%)" fill-opacity="0.501961" stroke-width="0.708661" stroke-linecap="round" stroke-linejoin="round" stroke="rgb(0%, 0%, 50.196078%)" stroke-opacity="0.501961" stroke-miterlimit="10" d="M 124.769531 49.550781 C 124.769531 53.15625 119.367188 53.15625 119.367188 49.550781 C 119.367188 45.949219 124.769531 45.949219 124.769531 49.550781 "/>
<path fill-rule="nonzero" fill="rgb(0%, 0%, 100%)" fill-opacity="0.501961" stroke-width="0.708661" stroke-linecap="round" stroke-linejoin="round" stroke="rgb(0%, 0%, 50.196078%)" stroke-opacity="0.501961" stroke-miterlimit="10" d="M 283.140625 76.953125 C 283.140625 80.554688 277.738281 80.554688 277.738281 76.953125 C 277.738281 73.351562 283.140625 73.351562 283.140625 76.953125 "/>
<path fill-rule="nonzero" fill="rgb(0%, 0%, 100%)" fill-opacity="0.501961" stroke-width="0.708661" stroke-linecap="round" stroke-linejoin="round" stroke="rgb(0%, 0%, 50.196078%)" stroke-opacity="0.501961" stroke-miterlimit="10" d="M 231.449219 110.25 C 231.449219 113.851562 226.042969 113.851562 226.042969 110.25 C 226.042969 106.644531 231.449219 106.644531 231.449219 110.25 "/>
<path fill-rule="nonzero" fill="rgb(0%, 0%, 100%)" fill-opacity="0.501961" stroke-width="0.708661" stroke-linecap="round" stroke-linejoin="round" stroke="rgb(0%, 0%, 50.196078%)" stroke-opacity="0.501961" stroke-miterlimit="10" d="M 179.789062 114.808594 C 179.789062 118.410156 174.386719 118.410156 174.386719 114.808594 C 174.386719 111.207031 179.789062 111.207031 179.789062 114.808594 "/>
<path fill-rule="nonzero" fill="rgb(0%, 0%, 100%)" fill-opacity="0.501961" stroke-width="0.708661" stroke-linecap="round" stroke-linejoin="round" stroke="rgb(0%, 0%, 50.196078%)" stroke-opacity="0.501961" stroke-miterlimit="10" d="M 125.820312 50.320312 C 125.820312 53.921875 120.417969 53.921875 120.417969 50.320312 C 120.417969 46.714844 125.820312 46.714844 125.820312 50.320312 "/>
<path fill-rule="nonzero" fill="rgb(0%, 0%, 100%)" fill-opacity="0.501961" stroke-width="0.708661" stroke-linecap="round" stroke-linejoin="round" stroke="rgb(0%, 0%, 50.196078%)" stroke-opacity="0.501961" stroke-miterlimit="10" d="M 128.621094 152.242188 C 128.621094 155.84375 123.21875 155.84375 123.21875 152.242188 C 123.21875 148.640625 128.621094 148.640625 128.621094 152.242188 "/>
<path fill-rule="nonzero" fill="rgb(0%, 0%, 100%)" fill-opacity="0.501961" stroke-width="0.708661" stroke-linecap="round" stroke-linejoin="round" stroke="rgb(0%, 0%, 50.196078%)" stroke-opacity="0.501961" stroke-miterlimit="10" d="M 237.519531 52.3125 C 237.519531 55.914062 232.117188 55.914062 232.117188 52.3125 C 232.117188 48.710938 237.519531 48.710938 237.519531 52.3125 "/>
<path fill-rule="nonzero" fill="rgb(0%, 0%, 100%)" fill-opacity="0.501961" stroke-width="0.708661" stroke-linecap="round" stroke-linejoin="round" stroke="rgb(0%, 0%, 50.196078%)" stroke-opacity="0.501961" stroke-miterlimit="10" d="M 236.679688 112.144531 C 236.679688 115.746094 231.277344 115.746094 231.277344 112.144531 C 231.277344 108.539062 236.679688 108.539062 236.679688 112.144531 "/>
<path fill-rule="nonzero" fill="rgb(0%, 0%, 100%)" fill-opacity="0.501961" stroke-width="0.708661" stroke-linecap="round" stroke-linejoin="round" stroke="rgb(0%, 0%, 50.196078%)" stroke-opacity="0.501961" stroke-miterlimit="10" d="M 68.183594 145.320312 C 68.183594 148.921875 62.78125 148.921875 62.78125 145.320312 C 62.78125 141.714844 68.183594 141.714844 68.183594 145.320312 "/>
<path fill-rule="nonzero" fill="rgb(0%, 0%, 100%)" fill-opacity="0.501961" stroke-width="0.708661" stroke-linecap="round" stroke-linejoin="round" stroke="rgb(0%, 0%, 50.196078%)" stroke-opacity="0.501961" stroke-miterlimit="10" d="M 69.703125 135.566406 C 69.703125 139.167969 64.300781 139.167969 64.300781 135.566406 C 64.300781 131.960938 69.703125 131.960938 69.703125 135.566406 "/>
<path fill-rule="nonzero" fill="rgb(0%, 0%, 100%)" fill-opacity="0.501961" stroke-width="0.708661" stroke-linecap="round" stroke-linejoin="round" stroke="rgb(0%, 0%, 50.196078%)" stroke-opacity="0.501961" stroke-miterlimit="10" d="M 66.113281 79.871094 C 66.113281 83.472656 60.707031 83.472656 60.707031 79.871094 C 60.707031 76.269531 66.113281 76.269531 66.113281 79.871094 "/>
<path fill-rule="nonzero" fill="rgb(0%, 0%, 100%)" fill-opacity="0.501961" stroke-width="0.708661" stroke-linecap="round" stroke-linejoin="round" stroke="rgb(0%, 0%, 50.196078%)" stroke-opacity="0.501961" stroke-miterlimit="10" d="M 69.554688 104.320312 C 69.554688 107.921875 64.152344 107.921875 64.152344 104.320312 C 64.152344 100.71875 69.554688 100.71875 69.554688 104.320312 "/>
<g fill="rgb(30.196078%, 30.196078%, 30.196078%)" fill-opacity="1">
<use xlink:href="#glyph-0-1" x="24.21875" y="150.311523"/>
</g>
<g fill="rgb(30.196078%, 30.196078%, 30.196078%)" fill-opacity="1">
<use xlink:href="#glyph-0-2" x="19.21875" y="105.553711"/>
<use xlink:href="#glyph-0-3" x="24.21875" y="105.553711"/>
</g>
<g fill="rgb(30.196078%, 30.196078%, 30.196078%)" fill-opacity="1">
<use xlink:href="#glyph-0-2" x="19.21875" y="60.795898"/>
<use xlink:href="#glyph-0-1" x="24.21875" y="60.795898"/>
</g>
<g fill="rgb(30.196078%, 30.196078%, 30.196078%)" fill-opacity="1">
<use xlink:href="#glyph-0-4" x="19.21875" y="16.038086"/>
<use xlink:href="#glyph-0-3" x="24.21875" y="16.038086"/>
</g>
<path fill="none" stroke-width="1.066978" stroke-linecap="butt" stroke-linejoin="round" stroke="rgb(20%, 20%, 20%)" stroke-opacity="1" stroke-miterlimit="10" d="M 31.410156 147.035156 L 34.152344 147.035156 "/>
<path fill="none" stroke-width="1.066978" stroke-linecap="butt" stroke-linejoin="round" stroke="rgb(20%, 20%, 20%)" stroke-opacity="1" stroke-miterlimit="10" d="M 31.410156 102.277344 L 34.152344 102.277344 "/>
<path fill="none" stroke-width="1.066978" stroke-linecap="butt" stroke-linejoin="round" stroke="rgb(20%, 20%, 20%)" stroke-opacity="1" stroke-miterlimit="10" d="M 31.410156 57.519531 L 34.152344 57.519531 "/>
<path fill="none" stroke-width="1.066978" stroke-linecap="butt" stroke-linejoin="round" stroke="rgb(20%, 20%, 20%)" stroke-opacity="1" stroke-miterlimit="10" d="M 31.410156 12.761719 L 34.152344 12.761719 "/>
<path fill="none" stroke-width="1.066978" stroke-linecap="butt" stroke-linejoin="round" stroke="rgb(20%, 20%, 20%)" stroke-opacity="1" stroke-miterlimit="10" d="M 66.960938 185.589844 L 66.960938 182.847656 "/>
<path fill="none" stroke-width="1.066978" stroke-linecap="butt" stroke-linejoin="round" stroke="rgb(20%, 20%, 20%)" stroke-opacity="1" stroke-miterlimit="10" d="M 121.648438 185.589844 L 121.648438 182.847656 "/>
<path fill="none" stroke-width="1.066978" stroke-linecap="butt" stroke-linejoin="round" stroke="rgb(20%, 20%, 20%)" stroke-opacity="1" stroke-miterlimit="10" d="M 176.335938 185.589844 L 176.335938 182.847656 "/>
<path fill="none" stroke-width="1.066978" stroke-linecap="butt" stroke-linejoin="round" stroke="rgb(20%, 20%, 20%)" stroke-opacity="1" stroke-miterlimit="10" d="M 231.023438 185.589844 L 231.023438 182.847656 "/>
<path fill="none" stroke-width="1.066978" stroke-linecap="butt" stroke-linejoin="round" stroke="rgb(20%, 20%, 20%)" stroke-opacity="1" stroke-miterlimit="10" d="M 285.707031 185.589844 L 285.707031 182.847656 "/>
<g fill="rgb(30.196078%, 30.196078%, 30.196078%)" fill-opacity="1">
<use xlink:href="#glyph-0-5" x="57.460938" y="194.557617"/>
<use xlink:href="#glyph-0-6" x="61.460938" y="194.557617"/>
<use xlink:href="#glyph-0-7" x="66.460938" y="194.557617"/>
<use xlink:href="#glyph-0-8" x="69.460938" y="194.557617"/>
<use xlink:href="#glyph-0-9" x="74.460938" y="194.557617"/>
</g>
<g fill="rgb(30.196078%, 30.196078%, 30.196078%)" fill-opacity="1">
<use xlink:href="#glyph-0-10" x="111.648438" y="194.557617"/>
<use xlink:href="#glyph-0-11" x="116.648438" y="194.557617"/>
<use xlink:href="#glyph-0-7" x="121.648438" y="194.557617"/>
<use xlink:href="#glyph-0-12" x="124.648438" y="194.557617"/>
<use xlink:href="#glyph-0-9" x="129.648438" y="194.557617"/>
</g>
<g fill="rgb(30.196078%, 30.196078%, 30.196078%)" fill-opacity="1">
<use xlink:href="#glyph-0-9" x="164.335938" y="194.557617"/>
<use xlink:href="#glyph-0-8" x="166.335938" y="194.557617"/>
<use xlink:href="#glyph-0-13" x="171.335938" y="194.557617"/>
<use xlink:href="#glyph-0-11" x="175.335938" y="194.557617"/>
<use xlink:href="#glyph-0-5" x="180.335938" y="194.557617"/>
<use xlink:href="#glyph-0-14" x="184.335938" y="194.557617"/>
<use xlink:href="#glyph-0-9" x="186.335938" y="194.557617"/>
</g>
<g fill="rgb(30.196078%, 30.196078%, 30.196078%)" fill-opacity="1">
<use xlink:href="#glyph-0-15" x="221.523438" y="194.557617"/>
<use xlink:href="#glyph-0-16" x="226.523438" y="194.557617"/>
<use xlink:href="#glyph-0-8" x="233.523438" y="194.557617"/>
<use xlink:href="#glyph-0-9" x="238.523438" y="194.557617"/>
</g>
<g fill="rgb(30.196078%, 30.196078%, 30.196078%)" fill-opacity="1">
<use xlink:href="#glyph-0-17" x="279.707031" y="194.557617"/>
<use xlink:href="#glyph-0-18" x="285.707031" y="194.557617"/>
</g>
<g fill="rgb(0%, 0%, 0%)" fill-opacity="1">
<use xlink:href="#glyph-1-1" x="161.335938" y="206.990234"/>
<use xlink:href="#glyph-1-2" x="163.335938" y="206.990234"/>
<use xlink:href="#glyph-1-3" x="167.335938" y="206.990234"/>
<use xlink:href="#glyph-1-4" x="173.335938" y="206.990234"/>
<use xlink:href="#glyph-1-5" x="179.335938" y="206.990234"/>
<use xlink:href="#glyph-1-6" x="183.335938" y="206.990234"/>
<use xlink:href="#glyph-1-1" x="189.335938" y="206.990234"/>
</g>
<g fill="rgb(0%, 0%, 0%)" fill-opacity="1">
<use xlink:href="#glyph-2-1" x="12.951172" y="139.164062"/>
<use xlink:href="#glyph-2-2" x="12.951172" y="132.164062"/>
<use xlink:href="#glyph-2-3" x="12.951172" y="130.164062"/>
<use xlink:href="#glyph-2-3" x="12.951172" y="124.164062"/>
<use xlink:href="#glyph-2-4" x="12.951172" y="118.164062"/>
<use xlink:href="#glyph-2-5" x="12.951172" y="112.164062"/>
<use xlink:href="#glyph-2-6" x="12.951172" y="109.164062"/>
<use xlink:href="#glyph-2-7" x="12.951172" y="103.164062"/>
<use xlink:href="#glyph-2-8" x="12.951172" y="97.164062"/>
<use xlink:href="#glyph-2-9" x="12.951172" y="93.164062"/>
<use xlink:href="#glyph-2-10" x="12.951172" y="87.164062"/>
<use xlink:href="#glyph-2-11" x="12.951172" y="84.164062"/>
<use xlink:href="#glyph-2-12" x="12.951172" y="82.164062"/>
<use xlink:href="#glyph-2-13" x="12.951172" y="76.164062"/>
<use xlink:href="#glyph-2-5" x="12.951172" y="70.164062"/>
<use xlink:href="#glyph-2-14" x="12.951172" y="67.164062"/>
<use xlink:href="#glyph-2-15" x="12.951172" y="63.164062"/>
<use xlink:href="#glyph-2-8" x="12.951172" y="57.164062"/>
<use xlink:href="#glyph-2-16" x="12.951172" y="53.164062"/>
</g>
</svg>
