<?xml version="1.0" encoding="UTF-8"?>
<svg xmlns="http://www.w3.org/2000/svg" xmlns:xlink="http://www.w3.org/1999/xlink" width="324pt" height="189pt" viewBox="0 0 324 189">
<defs>
<g>
<g id="glyph-0-0">
<path d="M 0.3125 0 L 0.3125 -6.875 L 5.765625 -6.875 L 5.765625 0 Z M 4.90625 -0.859375 L 4.90625 -6.015625 L 1.171875 -6.015625 L 1.171875 -0.859375 Z M 4.90625 -0.859375 "/>
</g>
<g id="glyph-0-1">
<path d="M 1.1875 -1.703125 C 1.238281 -1.222656 1.460938 -0.894531 1.859375 -0.71875 C 2.054688 -0.625 2.285156 -0.578125 2.546875 -0.578125 C 3.046875 -0.578125 3.414062 -0.734375 3.65625 -1.046875 C 3.894531 -1.367188 4.015625 -1.722656 4.015625 -2.109375 C 4.015625 -2.578125 3.867188 -2.9375 3.578125 -3.1875 C 3.296875 -3.445312 2.957031 -3.578125 2.5625 -3.578125 C 2.269531 -3.578125 2.019531 -3.519531 1.8125 -3.40625 C 1.601562 -3.289062 1.425781 -3.132812 1.28125 -2.9375 L 0.546875 -2.984375 L 1.0625 -6.59375 L 4.546875 -6.59375 L 4.546875 -5.78125 L 1.703125 -5.78125 L 1.40625 -3.921875 C 1.5625 -4.035156 1.710938 -4.125 1.859375 -4.1875 C 2.109375 -4.289062 2.394531 -4.34375 2.71875 -4.34375 C 3.332031 -4.34375 3.851562 -4.140625 4.28125 -3.734375 C 4.707031 -3.335938 4.921875 -2.835938 4.921875 -2.234375 C 4.921875 -1.597656 4.722656 -1.035156 4.328125 -0.546875 C 3.941406 -0.0664062 3.320312 0.171875 2.46875 0.171875 C 1.914062 0.171875 1.429688 0.0195312 1.015625 -0.28125 C 0.597656 -0.59375 0.363281 -1.066406 0.3125 -1.703125 Z M 1.1875 -1.703125 "/>
</g>
<g id="glyph-0-2">
<path d="M 0.921875 -4.75 L 0.921875 -5.390625 C 1.523438 -5.453125 1.945312 -5.550781 2.1875 -5.6875 C 2.425781 -5.832031 2.609375 -6.164062 2.734375 -6.6875 L 3.390625 -6.6875 L 3.390625 0 L 2.5 0 L 2.5 -4.75 Z M 0.921875 -4.75 "/>
</g>
<g id="glyph-0-3">
<path d="M 2.59375 -6.703125 C 3.457031 -6.703125 4.085938 -6.347656 4.484375 -5.640625 C 4.773438 -5.085938 4.921875 -4.328125 4.921875 -3.359375 C 4.921875 -2.453125 4.785156 -1.695312 4.515625 -1.09375 C 4.128906 -0.238281 3.488281 0.1875 2.59375 0.1875 C 1.78125 0.1875 1.179688 -0.160156 0.796875 -0.859375 C 0.460938 -1.453125 0.296875 -2.238281 0.296875 -3.21875 C 0.296875 -3.976562 0.394531 -4.632812 0.59375 -5.1875 C 0.957031 -6.195312 1.625 -6.703125 2.59375 -6.703125 Z M 2.578125 -0.578125 C 3.015625 -0.578125 3.363281 -0.769531 3.625 -1.15625 C 3.882812 -1.550781 4.015625 -2.273438 4.015625 -3.328125 C 4.015625 -4.085938 3.921875 -4.710938 3.734375 -5.203125 C 3.546875 -5.703125 3.179688 -5.953125 2.640625 -5.953125 C 2.148438 -5.953125 1.789062 -5.71875 1.5625 -5.25 C 1.332031 -4.78125 1.21875 -4.09375 1.21875 -3.1875 C 1.21875 -2.5 1.289062 -1.945312 1.4375 -1.53125 C 1.65625 -0.894531 2.035156 -0.578125 2.578125 -0.578125 Z M 2.578125 -0.578125 "/>
</g>
<g id="glyph-0-4">
<path d="M 0.296875 0 C 0.328125 -0.570312 0.445312 -1.070312 0.65625 -1.5 C 0.863281 -1.9375 1.269531 -2.328125 1.875 -2.671875 L 2.765625 -3.1875 C 3.171875 -3.425781 3.457031 -3.628906 3.625 -3.796875 C 3.875 -4.054688 4 -4.351562 4 -4.6875 C 4 -5.070312 3.878906 -5.378906 3.640625 -5.609375 C 3.410156 -5.835938 3.101562 -5.953125 2.71875 -5.953125 C 2.132812 -5.953125 1.734375 -5.734375 1.515625 -5.296875 C 1.398438 -5.066406 1.335938 -4.742188 1.328125 -4.328125 L 0.46875 -4.328125 C 0.476562 -4.910156 0.582031 -5.382812 0.78125 -5.75 C 1.144531 -6.40625 1.789062 -6.734375 2.71875 -6.734375 C 3.488281 -6.734375 4.050781 -6.523438 4.40625 -6.109375 C 4.757812 -5.691406 4.9375 -5.226562 4.9375 -4.71875 C 4.9375 -4.1875 4.75 -3.726562 4.375 -3.34375 C 4.15625 -3.125 3.757812 -2.851562 3.1875 -2.53125 L 2.546875 -2.1875 C 2.242188 -2.019531 2.003906 -1.859375 1.828125 -1.703125 C 1.515625 -1.429688 1.316406 -1.128906 1.234375 -0.796875 L 4.90625 -0.796875 L 4.90625 0 Z M 0.296875 0 "/>
</g>
<g id="glyph-0-5">
<path d="M 2.546875 -5.15625 C 3.117188 -5.15625 3.582031 -5.019531 3.9375 -4.75 C 4.289062 -4.476562 4.503906 -4.003906 4.578125 -3.328125 L 3.75 -3.328125 C 3.695312 -3.640625 3.582031 -3.894531 3.40625 -4.09375 C 3.226562 -4.300781 2.941406 -4.40625 2.546875 -4.40625 C 2.015625 -4.40625 1.632812 -4.144531 1.40625 -3.625 C 1.25 -3.28125 1.171875 -2.859375 1.171875 -2.359375 C 1.171875 -1.859375 1.273438 -1.4375 1.484375 -1.09375 C 1.703125 -0.75 2.039062 -0.578125 2.5 -0.578125 C 2.84375 -0.578125 3.117188 -0.679688 3.328125 -0.890625 C 3.535156 -1.109375 3.675781 -1.40625 3.75 -1.78125 L 4.578125 -1.78125 C 4.484375 -1.113281 4.25 -0.625 3.875 -0.3125 C 3.5 -0.0078125 3.019531 0.140625 2.4375 0.140625 C 1.78125 0.140625 1.253906 -0.0976562 0.859375 -0.578125 C 0.472656 -1.054688 0.28125 -1.65625 0.28125 -2.375 C 0.28125 -3.25 0.492188 -3.929688 0.921875 -4.421875 C 1.347656 -4.910156 1.890625 -5.15625 2.546875 -5.15625 Z M 2.421875 -5.140625 Z M 2.421875 -5.140625 "/>
</g>
<g id="glyph-0-6">
<path d="M 1.265625 -1.328125 C 1.265625 -1.085938 1.351562 -0.894531 1.53125 -0.75 C 1.707031 -0.613281 1.921875 -0.546875 2.171875 -0.546875 C 2.460938 -0.546875 2.75 -0.613281 3.03125 -0.75 C 3.5 -0.976562 3.734375 -1.351562 3.734375 -1.875 L 3.734375 -2.546875 C 3.628906 -2.484375 3.492188 -2.429688 3.328125 -2.390625 C 3.171875 -2.347656 3.015625 -2.316406 2.859375 -2.296875 L 2.34375 -2.234375 C 2.039062 -2.191406 1.8125 -2.125 1.65625 -2.03125 C 1.394531 -1.882812 1.265625 -1.648438 1.265625 -1.328125 Z M 3.3125 -3.046875 C 3.5 -3.066406 3.628906 -3.144531 3.703125 -3.28125 C 3.734375 -3.351562 3.75 -3.460938 3.75 -3.609375 C 3.75 -3.890625 3.644531 -4.09375 3.4375 -4.21875 C 3.238281 -4.351562 2.945312 -4.421875 2.5625 -4.421875 C 2.125 -4.421875 1.8125 -4.304688 1.625 -4.078125 C 1.519531 -3.941406 1.453125 -3.742188 1.421875 -3.484375 L 0.640625 -3.484375 C 0.660156 -4.097656 0.863281 -4.523438 1.25 -4.765625 C 1.632812 -5.015625 2.078125 -5.140625 2.578125 -5.140625 C 3.171875 -5.140625 3.65625 -5.023438 4.03125 -4.796875 C 4.394531 -4.578125 4.578125 -4.226562 4.578125 -3.75 L 4.578125 -0.859375 C 4.578125 -0.773438 4.59375 -0.707031 4.625 -0.65625 C 4.664062 -0.601562 4.742188 -0.578125 4.859375 -0.578125 C 4.890625 -0.578125 4.925781 -0.578125 4.96875 -0.578125 C 5.019531 -0.578125 5.070312 -0.582031 5.125 -0.59375 L 5.125 0.015625 C 5 0.0546875 4.898438 0.0820312 4.828125 0.09375 C 4.765625 0.101562 4.671875 0.109375 4.546875 0.109375 C 4.253906 0.109375 4.046875 0.00390625 3.921875 -0.203125 C 3.847656 -0.304688 3.796875 -0.460938 3.765625 -0.671875 C 3.597656 -0.441406 3.351562 -0.242188 3.03125 -0.078125 C 2.707031 0.0859375 2.351562 0.171875 1.96875 0.171875 C 1.5 0.171875 1.117188 0.0273438 0.828125 -0.25 C 0.535156 -0.53125 0.390625 -0.882812 0.390625 -1.3125 C 0.390625 -1.78125 0.53125 -2.140625 0.8125 -2.390625 C 1.101562 -2.648438 1.488281 -2.8125 1.96875 -2.875 Z M 2.609375 -5.140625 Z M 2.609375 -5.140625 "/>
</g>
<g id="glyph-0-7">
<path d="M 0.640625 -5.015625 L 1.4375 -5.015625 L 1.4375 -4.15625 C 1.507812 -4.320312 1.671875 -4.523438 1.921875 -4.765625 C 2.179688 -5.003906 2.476562 -5.125 2.8125 -5.125 C 2.820312 -5.125 2.847656 -5.125 2.890625 -5.125 C 2.929688 -5.125 2.992188 -5.117188 3.078125 -5.109375 L 3.078125 -4.21875 C 3.023438 -4.226562 2.976562 -4.234375 2.9375 -4.234375 C 2.894531 -4.234375 2.851562 -4.234375 2.8125 -4.234375 C 2.382812 -4.234375 2.054688 -4.097656 1.828125 -3.828125 C 1.597656 -3.554688 1.484375 -3.242188 1.484375 -2.890625 L 1.484375 0 L 0.640625 0 Z M 0.640625 -5.015625 "/>
</g>
<g id="glyph-0-8">
<path d="M 0.625 -5.015625 L 1.421875 -5.015625 L 1.421875 -4.3125 C 1.660156 -4.601562 1.910156 -4.8125 2.171875 -4.9375 C 2.441406 -5.0625 2.738281 -5.125 3.0625 -5.125 C 3.769531 -5.125 4.25 -4.878906 4.5 -4.390625 C 4.632812 -4.117188 4.703125 -3.726562 4.703125 -3.21875 L 4.703125 0 L 3.84375 0 L 3.84375 -3.15625 C 3.84375 -3.46875 3.800781 -3.71875 3.71875 -3.90625 C 3.5625 -4.21875 3.289062 -4.375 2.90625 -4.375 C 2.695312 -4.375 2.53125 -4.351562 2.40625 -4.3125 C 2.175781 -4.238281 1.972656 -4.097656 1.796875 -3.890625 C 1.660156 -3.734375 1.570312 -3.566406 1.53125 -3.390625 C 1.488281 -3.210938 1.46875 -2.957031 1.46875 -2.625 L 1.46875 0 L 0.625 0 Z M 2.59375 -5.140625 Z M 2.59375 -5.140625 "/>
</g>
<g id="glyph-0-9">
<path d="M 0.625 -5 L 1.46875 -5 L 1.46875 0 L 0.625 0 Z M 0.625 -6.875 L 1.46875 -6.875 L 1.46875 -5.921875 L 0.625 -5.921875 Z M 0.625 -6.875 "/>
</g>
<g id="glyph-0-10">
<path d="M 0.625 -6.90625 L 1.46875 -6.90625 L 1.46875 -4.34375 C 1.664062 -4.59375 1.84375 -4.769531 2 -4.875 C 2.269531 -5.050781 2.609375 -5.140625 3.015625 -5.140625 C 3.742188 -5.140625 4.238281 -4.882812 4.5 -4.375 C 4.632812 -4.09375 4.703125 -3.707031 4.703125 -3.21875 L 4.703125 0 L 3.84375 0 L 3.84375 -3.15625 C 3.84375 -3.53125 3.796875 -3.800781 3.703125 -3.96875 C 3.546875 -4.25 3.257812 -4.390625 2.84375 -4.390625 C 2.488281 -4.390625 2.171875 -4.265625 1.890625 -4.015625 C 1.609375 -3.773438 1.46875 -3.320312 1.46875 -2.65625 L 1.46875 0 L 0.625 0 Z M 0.625 -6.90625 "/>
</g>
<g id="glyph-0-11">
<path d="M 2.703125 -5.125 C 3.054688 -5.125 3.398438 -5.039062 3.734375 -4.875 C 4.078125 -4.707031 4.332031 -4.492188 4.5 -4.234375 C 4.675781 -3.972656 4.789062 -3.675781 4.84375 -3.34375 C 4.894531 -3.113281 4.921875 -2.742188 4.921875 -2.234375 L 1.234375 -2.234375 C 1.253906 -1.722656 1.375 -1.3125 1.59375 -1 C 1.820312 -0.695312 2.171875 -0.546875 2.640625 -0.546875 C 3.085938 -0.546875 3.441406 -0.691406 3.703125 -0.984375 C 3.847656 -1.148438 3.953125 -1.347656 4.015625 -1.578125 L 4.84375 -1.578125 C 4.820312 -1.390625 4.75 -1.179688 4.625 -0.953125 C 4.507812 -0.734375 4.375 -0.550781 4.21875 -0.40625 C 3.957031 -0.15625 3.640625 0.015625 3.265625 0.109375 C 3.054688 0.148438 2.828125 0.171875 2.578125 0.171875 C 1.953125 0.171875 1.421875 -0.0507812 0.984375 -0.5 C 0.554688 -0.957031 0.34375 -1.59375 0.34375 -2.40625 C 0.34375 -3.21875 0.5625 -3.875 1 -4.375 C 1.4375 -4.875 2.003906 -5.125 2.703125 -5.125 Z M 4.046875 -2.90625 C 4.015625 -3.269531 3.9375 -3.5625 3.8125 -3.78125 C 3.582031 -4.1875 3.195312 -4.390625 2.65625 -4.390625 C 2.269531 -4.390625 1.941406 -4.25 1.671875 -3.96875 C 1.410156 -3.695312 1.273438 -3.34375 1.265625 -2.90625 Z M 2.625 -5.140625 Z M 2.625 -5.140625 "/>
</g>
<g id="glyph-0-12">
<path d="M 0.546875 -6.90625 L 1.375 -6.90625 L 1.375 -4.40625 C 1.5625 -4.644531 1.78125 -4.828125 2.03125 -4.953125 C 2.289062 -5.078125 2.566406 -5.140625 2.859375 -5.140625 C 3.484375 -5.140625 3.988281 -4.925781 4.375 -4.5 C 4.769531 -4.070312 4.96875 -3.441406 4.96875 -2.609375 C 4.96875 -1.816406 4.773438 -1.15625 4.390625 -0.625 C 4.003906 -0.101562 3.472656 0.15625 2.796875 0.15625 C 2.410156 0.15625 2.085938 0.0664062 1.828125 -0.109375 C 1.671875 -0.222656 1.503906 -0.398438 1.328125 -0.640625 L 1.328125 0 L 0.546875 0 Z M 2.75 -0.578125 C 3.195312 -0.578125 3.535156 -0.757812 3.765625 -1.125 C 3.992188 -1.488281 4.109375 -1.96875 4.109375 -2.5625 C 4.109375 -3.09375 3.992188 -3.53125 3.765625 -3.875 C 3.535156 -4.21875 3.203125 -4.390625 2.765625 -4.390625 C 2.378906 -4.390625 2.039062 -4.25 1.75 -3.96875 C 1.46875 -3.6875 1.328125 -3.21875 1.328125 -2.5625 C 1.328125 -2.09375 1.382812 -1.710938 1.5 -1.421875 C 1.726562 -0.859375 2.144531 -0.578125 2.75 -0.578125 Z M 2.75 -0.578125 "/>
</g>
<g id="glyph-0-13">
<path d="M 1.125 -1.578125 C 1.144531 -1.296875 1.210938 -1.078125 1.328125 -0.921875 C 1.546875 -0.648438 1.914062 -0.515625 2.4375 -0.515625 C 2.75 -0.515625 3.019531 -0.582031 3.25 -0.71875 C 3.488281 -0.851562 3.609375 -1.066406 3.609375 -1.359375 C 3.609375 -1.566406 3.515625 -1.726562 3.328125 -1.84375 C 3.203125 -1.914062 2.960938 -1.992188 2.609375 -2.078125 L 1.9375 -2.25 C 1.507812 -2.351562 1.195312 -2.472656 1 -2.609375 C 0.632812 -2.835938 0.453125 -3.15625 0.453125 -3.5625 C 0.453125 -4.03125 0.617188 -4.410156 0.953125 -4.703125 C 1.296875 -4.992188 1.757812 -5.140625 2.34375 -5.140625 C 3.09375 -5.140625 3.640625 -4.921875 3.984375 -4.484375 C 4.191406 -4.203125 4.289062 -3.898438 4.28125 -3.578125 L 3.484375 -3.578125 C 3.472656 -3.765625 3.40625 -3.9375 3.28125 -4.09375 C 3.09375 -4.3125 2.757812 -4.421875 2.28125 -4.421875 C 1.957031 -4.421875 1.710938 -4.359375 1.546875 -4.234375 C 1.390625 -4.117188 1.3125 -3.960938 1.3125 -3.765625 C 1.3125 -3.546875 1.414062 -3.367188 1.625 -3.234375 C 1.75 -3.160156 1.9375 -3.09375 2.1875 -3.03125 L 2.734375 -2.890625 C 3.347656 -2.742188 3.753906 -2.601562 3.953125 -2.46875 C 4.285156 -2.25 4.453125 -1.910156 4.453125 -1.453125 C 4.453125 -1.003906 4.28125 -0.617188 3.9375 -0.296875 C 3.601562 0.0234375 3.085938 0.1875 2.390625 0.1875 C 1.648438 0.1875 1.125 0.0195312 0.8125 -0.3125 C 0.5 -0.65625 0.332031 -1.078125 0.3125 -1.578125 Z M 2.359375 -5.140625 Z M 2.359375 -5.140625 "/>
</g>
<g id="glyph-0-14">
<path d="M 0.78125 -6.421875 L 1.640625 -6.421875 L 1.640625 -5.015625 L 2.4375 -5.015625 L 2.4375 -4.328125 L 1.640625 -4.328125 L 1.640625 -1.046875 C 1.640625 -0.878906 1.695312 -0.765625 1.8125 -0.703125 C 1.882812 -0.671875 1.992188 -0.65625 2.140625 -0.65625 C 2.179688 -0.65625 2.222656 -0.65625 2.265625 -0.65625 C 2.316406 -0.65625 2.375 -0.660156 2.4375 -0.671875 L 2.4375 0 C 2.34375 0.03125 2.242188 0.0507812 2.140625 0.0625 C 2.035156 0.0703125 1.921875 0.078125 1.796875 0.078125 C 1.398438 0.078125 1.128906 -0.0195312 0.984375 -0.21875 C 0.847656 -0.425781 0.78125 -0.6875 0.78125 -1 L 0.78125 -4.328125 L 0.109375 -4.328125 L 0.109375 -5.015625 L 0.78125 -5.015625 Z M 0.78125 -6.421875 "/>
</g>
<g id="glyph-0-15">
<path d="M 2.609375 -0.546875 C 3.171875 -0.546875 3.554688 -0.753906 3.765625 -1.171875 C 3.972656 -1.597656 4.078125 -2.070312 4.078125 -2.59375 C 4.078125 -3.0625 4 -3.441406 3.84375 -3.734375 C 3.601562 -4.191406 3.195312 -4.421875 2.625 -4.421875 C 2.101562 -4.421875 1.722656 -4.222656 1.484375 -3.828125 C 1.253906 -3.441406 1.140625 -2.96875 1.140625 -2.40625 C 1.140625 -1.875 1.253906 -1.429688 1.484375 -1.078125 C 1.722656 -0.722656 2.097656 -0.546875 2.609375 -0.546875 Z M 2.640625 -5.15625 C 3.285156 -5.15625 3.832031 -4.941406 4.28125 -4.515625 C 4.726562 -4.085938 4.953125 -3.453125 4.953125 -2.609375 C 4.953125 -1.804688 4.753906 -1.140625 4.359375 -0.609375 C 3.960938 -0.078125 3.351562 0.1875 2.53125 0.1875 C 1.84375 0.1875 1.296875 -0.046875 0.890625 -0.515625 C 0.484375 -0.984375 0.28125 -1.613281 0.28125 -2.40625 C 0.28125 -3.238281 0.492188 -3.90625 0.921875 -4.40625 C 1.347656 -4.90625 1.921875 -5.15625 2.640625 -5.15625 Z M 2.609375 -5.140625 Z M 2.609375 -5.140625 "/>
</g>
<g id="glyph-0-16">
<path d="M 0.625 -5.015625 L 1.453125 -5.015625 L 1.453125 -4.3125 C 1.648438 -4.550781 1.832031 -4.726562 2 -4.84375 C 2.269531 -5.03125 2.582031 -5.125 2.9375 -5.125 C 3.34375 -5.125 3.664062 -5.023438 3.90625 -4.828125 C 4.039062 -4.722656 4.164062 -4.5625 4.28125 -4.34375 C 4.46875 -4.601562 4.6875 -4.796875 4.9375 -4.921875 C 5.195312 -5.054688 5.484375 -5.125 5.796875 -5.125 C 6.472656 -5.125 6.929688 -4.882812 7.171875 -4.40625 C 7.304688 -4.132812 7.375 -3.78125 7.375 -3.34375 L 7.375 0 L 6.5 0 L 6.5 -3.484375 C 6.5 -3.816406 6.410156 -4.046875 6.234375 -4.171875 C 6.066406 -4.296875 5.863281 -4.359375 5.625 -4.359375 C 5.300781 -4.359375 5.019531 -4.25 4.78125 -4.03125 C 4.539062 -3.8125 4.421875 -3.441406 4.421875 -2.921875 L 4.421875 0 L 3.5625 0 L 3.5625 -3.28125 C 3.5625 -3.613281 3.519531 -3.859375 3.4375 -4.015625 C 3.3125 -4.253906 3.070312 -4.375 2.71875 -4.375 C 2.40625 -4.375 2.117188 -4.25 1.859375 -4 C 1.597656 -3.75 1.46875 -3.300781 1.46875 -2.65625 L 1.46875 0 L 0.625 0 Z M 0.625 -5.015625 "/>
</g>
<g id="glyph-0-17">
<path d="M 0.734375 -6.875 L 1.828125 -6.875 L 5.3125 -1.3125 L 5.3125 -6.875 L 6.1875 -6.875 L 6.1875 0 L 5.140625 0 L 1.625 -5.5625 L 1.625 0 L 0.734375 0 Z M 3.40625 -6.875 Z M 3.40625 -6.875 "/>
</g>
<g id="glyph-0-18">
<path d="M 4.265625 -2.8125 L 3.21875 -5.859375 L 2.109375 -2.8125 Z M 2.734375 -6.875 L 3.78125 -6.875 L 6.28125 0 L 5.265625 0 L 4.5625 -2.0625 L 1.84375 -2.0625 L 1.09375 0 L 0.140625 0 Z M 2.734375 -6.875 "/>
</g>
<g id="glyph-1-0">
<path d="M 0.390625 0 L 0.390625 -8.609375 L 7.21875 -8.609375 L 7.21875 0 Z M 6.140625 -1.078125 L 6.140625 -7.53125 L 1.46875 -7.53125 L 1.46875 -1.078125 Z M 6.140625 -1.078125 "/>
</g>
<g id="glyph-1-1">
<path d="M 1.984375 -8.609375 L 1.78125 -5.15625 L 1.109375 -5.15625 L 0.921875 -8.609375 Z M 1.984375 -8.609375 "/>
</g>
<g id="glyph-1-2">
<path d="M 0.5 -3.890625 L 3.4375 -3.890625 L 3.4375 -2.796875 L 0.5 -2.796875 Z M 0.5 -3.890625 "/>
</g>
<g id="glyph-1-3">
<path d="M 1.296875 -6.28125 L 2.96875 -1.171875 L 4.71875 -6.28125 L 5.875 -6.28125 L 3.5 0 L 2.375 0 L 0.0625 -6.28125 Z M 1.296875 -6.28125 "/>
</g>
<g id="glyph-1-4">
<path d="M 3.265625 -0.6875 C 3.960938 -0.6875 4.441406 -0.945312 4.703125 -1.46875 C 4.960938 -2 5.09375 -2.585938 5.09375 -3.234375 C 5.09375 -3.828125 5 -4.304688 4.8125 -4.671875 C 4.507812 -5.242188 4 -5.53125 3.28125 -5.53125 C 2.632812 -5.53125 2.164062 -5.285156 1.875 -4.796875 C 1.582031 -4.304688 1.4375 -3.710938 1.4375 -3.015625 C 1.4375 -2.347656 1.582031 -1.789062 1.875 -1.34375 C 2.164062 -0.90625 2.628906 -0.6875 3.265625 -0.6875 Z M 3.3125 -6.453125 C 4.113281 -6.453125 4.789062 -6.179688 5.34375 -5.640625 C 5.90625 -5.109375 6.1875 -4.316406 6.1875 -3.265625 C 6.1875 -2.253906 5.941406 -1.414062 5.453125 -0.75 C 4.960938 -0.09375 4.203125 0.234375 3.171875 0.234375 C 2.304688 0.234375 1.617188 -0.0546875 1.109375 -0.640625 C 0.597656 -1.234375 0.34375 -2.019531 0.34375 -3 C 0.34375 -4.050781 0.609375 -4.890625 1.140625 -5.515625 C 1.679688 -6.140625 2.40625 -6.453125 3.3125 -6.453125 Z M 3.265625 -6.421875 Z M 3.265625 -6.421875 "/>
</g>
<g id="glyph-1-5">
<path d="M 0.796875 -6.28125 L 1.8125 -6.28125 L 1.8125 -5.1875 C 1.882812 -5.40625 2.082031 -5.664062 2.40625 -5.96875 C 2.726562 -6.269531 3.097656 -6.421875 3.515625 -6.421875 C 3.535156 -6.421875 3.566406 -6.414062 3.609375 -6.40625 C 3.660156 -6.40625 3.742188 -6.398438 3.859375 -6.390625 L 3.859375 -5.28125 C 3.796875 -5.289062 3.738281 -5.296875 3.6875 -5.296875 C 3.632812 -5.296875 3.578125 -5.296875 3.515625 -5.296875 C 2.984375 -5.296875 2.570312 -5.125 2.28125 -4.78125 C 2 -4.445312 1.859375 -4.054688 1.859375 -3.609375 L 1.859375 0 L 0.796875 0 Z M 0.796875 -6.28125 "/>
</g>
<g id="glyph-1-6">
<path d="M 3.390625 -6.421875 C 3.835938 -6.421875 4.269531 -6.316406 4.6875 -6.109375 C 5.101562 -5.898438 5.421875 -5.628906 5.640625 -5.296875 C 5.847656 -4.972656 5.988281 -4.601562 6.0625 -4.1875 C 6.125 -3.894531 6.15625 -3.429688 6.15625 -2.796875 L 1.546875 -2.796875 C 1.566406 -2.160156 1.71875 -1.648438 2 -1.265625 C 2.28125 -0.878906 2.71875 -0.6875 3.3125 -0.6875 C 3.863281 -0.6875 4.300781 -0.867188 4.625 -1.234375 C 4.8125 -1.441406 4.945312 -1.6875 5.03125 -1.96875 L 6.0625 -1.96875 C 6.039062 -1.738281 5.953125 -1.484375 5.796875 -1.203125 C 5.640625 -0.921875 5.46875 -0.6875 5.28125 -0.5 C 4.957031 -0.1875 4.554688 0.0195312 4.078125 0.125 C 3.828125 0.1875 3.539062 0.21875 3.21875 0.21875 C 2.4375 0.21875 1.773438 -0.0625 1.234375 -0.625 C 0.691406 -1.195312 0.421875 -1.992188 0.421875 -3.015625 C 0.421875 -4.023438 0.691406 -4.84375 1.234375 -5.46875 C 1.785156 -6.101562 2.503906 -6.421875 3.390625 -6.421875 Z M 5.0625 -3.640625 C 5.019531 -4.097656 4.921875 -4.460938 4.765625 -4.734375 C 4.484375 -5.242188 4.003906 -5.5 3.328125 -5.5 C 2.835938 -5.5 2.425781 -5.320312 2.09375 -4.96875 C 1.769531 -4.625 1.597656 -4.179688 1.578125 -3.640625 Z M 3.28125 -6.421875 Z M 3.28125 -6.421875 "/>
</g>
<g id="glyph-2-0">
<path d="M 0 -0.390625 L -8.609375 -0.390625 L -8.609375 -7.21875 L 0 -7.21875 Z M -1.078125 -6.140625 L -7.53125 -6.140625 L -7.53125 -1.46875 L -1.078125 -1.46875 Z M -1.078125 -6.140625 "/>
</g>
<g id="glyph-2-1">
<path d="M -2.78125 -1.671875 C -2.289062 -1.703125 -1.894531 -1.816406 -1.59375 -2.015625 C -1.019531 -2.410156 -0.734375 -3.09375 -0.734375 -4.0625 C -0.734375 -4.5 -0.796875 -4.898438 -0.921875 -5.265625 C -1.160156 -5.960938 -1.59375 -6.3125 -2.21875 -6.3125 C -2.6875 -6.3125 -3.019531 -6.160156 -3.21875 -5.859375 C -3.414062 -5.566406 -3.585938 -5.101562 -3.734375 -4.46875 L -4 -3.3125 C -4.164062 -2.539062 -4.351562 -2 -4.5625 -1.6875 C -4.925781 -1.144531 -5.460938 -0.875 -6.171875 -0.875 C -6.953125 -0.875 -7.585938 -1.140625 -8.078125 -1.671875 C -8.578125 -2.203125 -8.828125 -2.957031 -8.828125 -3.9375 C -8.828125 -4.84375 -8.609375 -5.609375 -8.171875 -6.234375 C -7.734375 -6.867188 -7.035156 -7.1875 -6.078125 -7.1875 L -6.078125 -6.09375 C -6.546875 -6.03125 -6.898438 -5.90625 -7.140625 -5.71875 C -7.585938 -5.363281 -7.8125 -4.757812 -7.8125 -3.90625 C -7.8125 -3.21875 -7.664062 -2.722656 -7.375 -2.421875 C -7.09375 -2.117188 -6.757812 -1.96875 -6.375 -1.96875 C -5.957031 -1.96875 -5.648438 -2.144531 -5.453125 -2.5 C -5.328125 -2.726562 -5.171875 -3.25 -4.984375 -4.0625 L -4.703125 -5.28125 C -4.566406 -5.851562 -4.382812 -6.300781 -4.15625 -6.625 C -3.757812 -7.164062 -3.175781 -7.4375 -2.40625 -7.4375 C -1.457031 -7.4375 -0.773438 -7.085938 -0.359375 -6.390625 C 0.0429688 -5.703125 0.25 -4.898438 0.25 -3.984375 C 0.25 -2.910156 -0.0195312 -2.070312 -0.5625 -1.46875 C -1.113281 -0.863281 -1.851562 -0.566406 -2.78125 -0.578125 Z M -8.84375 -4.03125 Z M -8.84375 -4.03125 "/>
</g>
<g id="glyph-2-2">
<path d="M -8.609375 -0.796875 L -8.609375 -1.859375 L 0 -1.859375 L 0 -0.796875 Z M -8.609375 -0.796875 "/>
</g>
<g id="glyph-2-3">
<path d="M -6.421875 -3.390625 C -6.421875 -3.835938 -6.316406 -4.269531 -6.109375 -4.6875 C -5.898438 -5.101562 -5.628906 -5.421875 -5.296875 -5.640625 C -4.972656 -5.847656 -4.601562 -5.988281 -4.1875 -6.0625 C -3.894531 -6.125 -3.429688 -6.15625 -2.796875 -6.15625 L -2.796875 -1.546875 C -2.160156 -1.566406 -1.648438 -1.71875 -1.265625 -2 C -0.878906 -2.28125 -0.6875 -2.71875 -0.6875 -3.3125 C -0.6875 -3.863281 -0.867188 -4.300781 -1.234375 -4.625 C -1.441406 -4.8125 -1.6875 -4.945312 -1.96875 -5.03125 L -1.96875 -6.0625 C -1.738281 -6.039062 -1.484375 -5.953125 -1.203125 -5.796875 C -0.921875 -5.640625 -0.6875 -5.46875 -0.5 -5.28125 C -0.1875 -4.957031 0.0195312 -4.554688 0.125 -4.078125 C 0.1875 -3.828125 0.21875 -3.539062 0.21875 -3.21875 C 0.21875 -2.4375 -0.0625 -1.773438 -0.625 -1.234375 C -1.195312 -0.691406 -1.992188 -0.421875 -3.015625 -0.421875 C -4.023438 -0.421875 -4.84375 -0.691406 -5.46875 -1.234375 C -6.101562 -1.785156 -6.421875 -2.503906 -6.421875 -3.390625 Z M -3.640625 -5.0625 C -4.097656 -5.019531 -4.460938 -4.921875 -4.734375 -4.765625 C -5.242188 -4.484375 -5.5 -4.003906 -5.5 -3.328125 C -5.5 -2.835938 -5.320312 -2.425781 -4.96875 -2.09375 C -4.625 -1.769531 -4.179688 -1.597656 -3.640625 -1.578125 Z M -6.421875 -3.28125 Z M -6.421875 -3.28125 "/>
</g>
<g id="glyph-2-4">
<path d="M -0.703125 -3.421875 C -0.703125 -3.910156 -0.910156 -4.316406 -1.328125 -4.640625 C -1.742188 -4.972656 -2.359375 -5.140625 -3.171875 -5.140625 C -3.671875 -5.140625 -4.101562 -5.066406 -4.46875 -4.921875 C -5.15625 -4.648438 -5.5 -4.148438 -5.5 -3.421875 C -5.5 -2.691406 -5.132812 -2.191406 -4.40625 -1.921875 C -4.019531 -1.773438 -3.523438 -1.703125 -2.921875 -1.703125 C -2.429688 -1.703125 -2.019531 -1.773438 -1.6875 -1.921875 C -1.03125 -2.191406 -0.703125 -2.691406 -0.703125 -3.421875 Z M -6.25 -0.6875 L -6.25 -1.71875 L -5.421875 -1.71875 C -5.703125 -1.925781 -5.921875 -2.15625 -6.078125 -2.40625 C -6.304688 -2.757812 -6.421875 -3.175781 -6.421875 -3.65625 C -6.421875 -4.375 -6.148438 -4.976562 -5.609375 -5.46875 C -5.066406 -5.96875 -4.289062 -6.21875 -3.28125 -6.21875 C -1.90625 -6.21875 -0.925781 -5.859375 -0.34375 -5.140625 C 0.0273438 -4.691406 0.21875 -4.164062 0.21875 -3.5625 C 0.21875 -3.09375 0.113281 -2.695312 -0.09375 -2.375 C -0.21875 -2.1875 -0.421875 -1.976562 -0.703125 -1.75 L 2.5 -1.75 L 2.5 -0.6875 Z M -6.25 -0.6875 "/>
</g>
<g id="glyph-2-5">
</g>
<g id="glyph-2-6">
<path d="M -3.0625 -1.4375 C -2.394531 -1.4375 -1.832031 -1.578125 -1.375 -1.859375 C -0.925781 -2.148438 -0.703125 -2.609375 -0.703125 -3.234375 C -0.703125 -3.722656 -0.910156 -4.125 -1.328125 -4.4375 C -1.742188 -4.757812 -2.347656 -4.921875 -3.140625 -4.921875 C -3.929688 -4.921875 -4.515625 -4.753906 -4.890625 -4.421875 C -5.273438 -4.097656 -5.46875 -3.703125 -5.46875 -3.234375 C -5.46875 -2.703125 -5.265625 -2.269531 -4.859375 -1.9375 C -4.453125 -1.601562 -3.851562 -1.4375 -3.0625 -1.4375 Z M -6.390625 -3.03125 C -6.390625 -3.507812 -6.285156 -3.910156 -6.078125 -4.234375 C -5.960938 -4.421875 -5.757812 -4.632812 -5.46875 -4.875 L -8.640625 -4.875 L -8.640625 -5.890625 L 0 -5.890625 L 0 -4.9375 L -0.875 -4.9375 C -0.488281 -4.695312 -0.207031 -4.40625 -0.03125 -4.0625 C 0.132812 -3.726562 0.21875 -3.34375 0.21875 -2.90625 C 0.21875 -2.207031 -0.0703125 -1.601562 -0.65625 -1.09375 C -1.25 -0.582031 -2.03125 -0.328125 -3 -0.328125 C -3.914062 -0.328125 -4.707031 -0.5625 -5.375 -1.03125 C -6.050781 -1.5 -6.390625 -2.164062 -6.390625 -3.03125 Z M -6.390625 -3.03125 "/>
</g>
<g id="glyph-2-7">
<path d="M -6.28125 -1.828125 L -2.109375 -1.828125 C -1.785156 -1.828125 -1.523438 -1.878906 -1.328125 -1.984375 C -0.953125 -2.171875 -0.765625 -2.519531 -0.765625 -3.03125 C -0.765625 -3.757812 -1.09375 -4.257812 -1.75 -4.53125 C -2.101562 -4.675781 -2.582031 -4.75 -3.1875 -4.75 L -6.28125 -4.75 L -6.28125 -5.796875 L 0 -5.796875 L 0 -4.8125 L -0.921875 -4.8125 C -0.679688 -4.675781 -0.484375 -4.507812 -0.328125 -4.3125 C 0.00390625 -3.90625 0.171875 -3.414062 0.171875 -2.84375 C 0.171875 -1.945312 -0.128906 -1.335938 -0.734375 -1.015625 C -1.046875 -0.835938 -1.472656 -0.75 -2.015625 -0.75 L -6.28125 -0.75 Z M -6.421875 -3.28125 Z M -6.421875 -3.28125 "/>
</g>
<g id="glyph-2-8">
<path d="M -6.28125 -0.796875 L -6.28125 -1.8125 L -5.1875 -1.8125 C -5.40625 -1.882812 -5.664062 -2.082031 -5.96875 -2.40625 C -6.269531 -2.726562 -6.421875 -3.097656 -6.421875 -3.515625 C -6.421875 -3.535156 -6.414062 -3.566406 -6.40625 -3.609375 C -6.40625 -3.660156 -6.398438 -3.742188 -6.390625 -3.859375 L -5.28125 -3.859375 C -5.289062 -3.796875 -5.296875 -3.738281 -5.296875 -3.6875 C -5.296875 -3.632812 -5.296875 -3.578125 -5.296875 -3.515625 C -5.296875 -2.984375 -5.125 -2.570312 -4.78125 -2.28125 C -4.445312 -2 -4.054688 -1.859375 -3.609375 -1.859375 L 0 -1.859375 L 0 -0.796875 Z M -6.28125 -0.796875 "/>
</g>
<g id="glyph-2-9">
<path d="M -1.671875 -1.578125 C -1.367188 -1.578125 -1.128906 -1.6875 -0.953125 -1.90625 C -0.773438 -2.132812 -0.6875 -2.398438 -0.6875 -2.703125 C -0.6875 -3.078125 -0.769531 -3.4375 -0.9375 -3.78125 C -1.226562 -4.375 -1.695312 -4.671875 -2.34375 -4.671875 L -3.1875 -4.671875 C -3.113281 -4.535156 -3.046875 -4.363281 -2.984375 -4.15625 C -2.929688 -3.957031 -2.894531 -3.757812 -2.875 -3.5625 L -2.796875 -2.9375 C -2.742188 -2.550781 -2.660156 -2.257812 -2.546875 -2.0625 C -2.367188 -1.738281 -2.078125 -1.578125 -1.671875 -1.578125 Z M -3.796875 -4.140625 C -3.828125 -4.378906 -3.929688 -4.539062 -4.109375 -4.625 C -4.203125 -4.664062 -4.335938 -4.6875 -4.515625 -4.6875 C -4.867188 -4.6875 -5.125 -4.554688 -5.28125 -4.296875 C -5.445312 -4.046875 -5.53125 -3.6875 -5.53125 -3.21875 C -5.53125 -2.664062 -5.382812 -2.273438 -5.09375 -2.046875 C -4.925781 -1.910156 -4.679688 -1.820312 -4.359375 -1.78125 L -4.359375 -0.796875 C -5.128906 -0.816406 -5.664062 -1.066406 -5.96875 -1.546875 C -6.269531 -2.035156 -6.421875 -2.597656 -6.421875 -3.234375 C -6.421875 -3.972656 -6.28125 -4.570312 -6 -5.03125 C -5.71875 -5.488281 -5.28125 -5.71875 -4.6875 -5.71875 L -1.078125 -5.71875 C -0.972656 -5.71875 -0.882812 -5.738281 -0.8125 -5.78125 C -0.75 -5.832031 -0.71875 -5.929688 -0.71875 -6.078125 C -0.71875 -6.117188 -0.71875 -6.164062 -0.71875 -6.21875 C -0.726562 -6.28125 -0.738281 -6.347656 -0.75 -6.421875 L 0.03125 -6.421875 C 0.0703125 -6.253906 0.0976562 -6.125 0.109375 -6.03125 C 0.128906 -5.945312 0.140625 -5.832031 0.140625 -5.6875 C 0.140625 -5.320312 0.0078125 -5.0625 -0.25 -4.90625 C -0.382812 -4.8125 -0.578125 -4.75 -0.828125 -4.71875 C -0.546875 -4.5 -0.300781 -4.1875 -0.09375 -3.78125 C 0.113281 -3.382812 0.21875 -2.945312 0.21875 -2.46875 C 0.21875 -1.882812 0.0390625 -1.40625 -0.3125 -1.03125 C -0.664062 -0.664062 -1.109375 -0.484375 -1.640625 -0.484375 C -2.222656 -0.484375 -2.675781 -0.664062 -3 -1.03125 C -3.320312 -1.394531 -3.519531 -1.867188 -3.59375 -2.453125 Z M -6.421875 -3.265625 Z M -6.421875 -3.265625 "/>
</g>
<g id="glyph-2-10">
<path d="M -8.03125 -0.984375 L -8.03125 -2.046875 L -6.28125 -2.046875 L -6.28125 -3.046875 L -5.421875 -3.046875 L -5.421875 -2.046875 L -1.3125 -2.046875 C -1.09375 -2.046875 -0.945312 -2.125 -0.875 -2.28125 C -0.832031 -2.351562 -0.8125 -2.488281 -0.8125 -2.6875 C -0.8125 -2.738281 -0.8125 -2.789062 -0.8125 -2.84375 C -0.820312 -2.90625 -0.828125 -2.972656 -0.828125 -3.046875 L 0 -3.046875 C 0.03125 -2.929688 0.0507812 -2.804688 0.0625 -2.671875 C 0.0820312 -2.546875 0.09375 -2.40625 0.09375 -2.25 C 0.09375 -1.757812 -0.03125 -1.425781 -0.28125 -1.25 C -0.53125 -1.070312 -0.859375 -0.984375 -1.265625 -0.984375 L -5.421875 -0.984375 L -5.421875 -0.140625 L -6.28125 -0.140625 L -6.28125 -0.984375 Z M -8.03125 -0.984375 "/>
</g>
<g id="glyph-2-11">
<path d="M -6.25 -0.78125 L -6.25 -1.84375 L 0 -1.84375 L 0 -0.78125 Z M -8.609375 -0.78125 L -8.609375 -1.84375 L -7.40625 -1.84375 L -7.40625 -0.78125 Z M -8.609375 -0.78125 "/>
</g>
<g id="glyph-2-12">
<path d="M -0.6875 -3.265625 C -0.6875 -3.960938 -0.945312 -4.441406 -1.46875 -4.703125 C -2 -4.960938 -2.585938 -5.09375 -3.234375 -5.09375 C -3.828125 -5.09375 -4.304688 -5 -4.671875 -4.8125 C -5.242188 -4.507812 -5.53125 -4 -5.53125 -3.28125 C -5.53125 -2.632812 -5.285156 -2.164062 -4.796875 -1.875 C -4.304688 -1.582031 -3.710938 -1.4375 -3.015625 -1.4375 C -2.347656 -1.4375 -1.789062 -1.582031 -1.34375 -1.875 C -0.90625 -2.164062 -0.6875 -2.628906 -0.6875 -3.265625 Z M -6.453125 -3.3125 C -6.453125 -4.113281 -6.179688 -4.789062 -5.640625 -5.34375 C -5.109375 -5.90625 -4.316406 -6.1875 -3.265625 -6.1875 C -2.253906 -6.1875 -1.414062 -5.941406 -0.75 -5.453125 C -0.09375 -4.960938 0.234375 -4.203125 0.234375 -3.171875 C 0.234375 -2.304688 -0.0546875 -1.617188 -0.640625 -1.109375 C -1.234375 -0.597656 -2.019531 -0.34375 -3 -0.34375 C -4.050781 -0.34375 -4.890625 -0.609375 -5.515625 -1.140625 C -6.140625 -1.679688 -6.453125 -2.40625 -6.453125 -3.3125 Z M -6.421875 -3.265625 Z M -6.421875 -3.265625 "/>
</g>
<g id="glyph-2-13">
<path d="M -6.28125 -0.78125 L -6.28125 -1.78125 L -5.390625 -1.78125 C -5.753906 -2.070312 -6.015625 -2.382812 -6.171875 -2.71875 C -6.335938 -3.050781 -6.421875 -3.421875 -6.421875 -3.828125 C -6.421875 -4.710938 -6.109375 -5.3125 -5.484375 -5.625 C -5.140625 -5.800781 -4.65625 -5.890625 -4.03125 -5.890625 L 0 -5.890625 L 0 -4.8125 L -3.953125 -4.8125 C -4.335938 -4.8125 -4.644531 -4.753906 -4.875 -4.640625 C -5.269531 -4.453125 -5.46875 -4.113281 -5.46875 -3.625 C -5.46875 -3.375 -5.441406 -3.171875 -5.390625 -3.015625 C -5.304688 -2.722656 -5.132812 -2.46875 -4.875 -2.25 C -4.664062 -2.070312 -4.453125 -1.957031 -4.234375 -1.90625 C -4.015625 -1.851562 -3.695312 -1.828125 -3.28125 -1.828125 L 0 -1.828125 L 0 -0.78125 Z M -6.421875 -3.25 Z M -6.421875 -3.25 "/>
</g>
<g id="glyph-2-14">
<path d="M -8.75 -3.546875 C -7.5625 -2.929688 -6.6875 -2.535156 -6.125 -2.359375 C -5.257812 -2.078125 -4.269531 -1.9375 -3.15625 -1.9375 C -2.019531 -1.9375 -0.984375 -2.097656 -0.046875 -2.421875 C 0.535156 -2.609375 1.367188 -2.988281 2.453125 -3.5625 L 2.453125 -2.859375 C 1.554688 -2.285156 0.984375 -1.929688 0.734375 -1.796875 C 0.492188 -1.660156 0.160156 -1.515625 -0.265625 -1.359375 C -0.835938 -1.140625 -1.453125 -0.984375 -2.109375 -0.890625 C -2.453125 -0.847656 -2.773438 -0.828125 -3.078125 -0.828125 C -4.234375 -0.828125 -5.265625 -1.007812 -6.171875 -1.375 C -6.742188 -1.601562 -7.601562 -2.082031 -8.75 -2.8125 Z M -8.75 -3.546875 "/>
</g>
<g id="glyph-2-15">
<path d="M -8.640625 -0.78125 L -8.640625 -1.828125 L -5.421875 -1.828125 C -5.742188 -2.078125 -5.96875 -2.300781 -6.09375 -2.5 C -6.3125 -2.84375 -6.421875 -3.269531 -6.421875 -3.78125 C -6.421875 -4.6875 -6.101562 -5.300781 -5.46875 -5.625 C -5.125 -5.800781 -4.644531 -5.890625 -4.03125 -5.890625 L 0 -5.890625 L 0 -4.8125 L -3.953125 -4.8125 C -4.410156 -4.8125 -4.75 -4.75 -4.96875 -4.625 C -5.3125 -4.4375 -5.484375 -4.078125 -5.484375 -3.546875 C -5.484375 -3.109375 -5.332031 -2.710938 -5.03125 -2.359375 C -4.726562 -2.003906 -4.160156 -1.828125 -3.328125 -1.828125 L 0 -1.828125 L 0 -0.78125 Z M -8.640625 -0.78125 "/>
</g>
<g id="glyph-2-16">
<path d="M 2.453125 -0.421875 C 1.242188 -1.035156 0.355469 -1.4375 -0.203125 -1.625 C -1.035156 -1.894531 -2.019531 -2.03125 -3.15625 -2.03125 C -4.28125 -2.03125 -5.3125 -1.867188 -6.25 -1.546875 C -6.832031 -1.359375 -7.664062 -0.976562 -8.75 -0.40625 L -8.75 -1.109375 C -7.789062 -1.710938 -7.195312 -2.078125 -6.96875 -2.203125 C -6.75 -2.328125 -6.441406 -2.460938 -6.046875 -2.609375 C -5.554688 -2.796875 -5.070312 -2.929688 -4.59375 -3.015625 C -4.113281 -3.097656 -3.65625 -3.140625 -3.21875 -3.140625 C -2.0625 -3.140625 -1.03125 -2.953125 -0.125 -2.578125 C 0.457031 -2.347656 1.316406 -1.875 2.453125 -1.15625 Z M 2.453125 -0.421875 "/>
</g>
</g>
<clipPath id="clip-0">
<path clip-rule="nonzero" d="M 36.347656 5.976562 L 318.023438 5.976562 L 318.023438 152.652344 L 36.347656 152.652344 Z M 36.347656 5.976562 "/>
</clipPath>
<clipPath id="clip-1">
<path clip-rule="nonzero" d="M 36.347656 141 L 318.023438 141 L 318.023438 142 L 36.347656 142 Z M 36.347656 141 "/>
</clipPath>
<clipPath id="clip-2">
<path clip-rule="nonzero" d="M 36.347656 104 L 318.023438 104 L 318.023438 105 L 36.347656 105 Z M 36.347656 104 "/>
</clipPath>
<clipPath id="clip-3">
<path clip-rule="nonzero" d="M 36.347656 67 L 318.023438 67 L 318.023438 68 L 36.347656 68 Z M 36.347656 67 "/>
</clipPath>
<clipPath id="clip-4">
<path clip-rule="nonzero" d="M 36.347656 30 L 318.023438 30 L 318.023438 31 L 36.347656 31 Z M 36.347656 30 "/>
</clipPath>
<clipPath id="clip-5">
<path clip-rule="nonzero" d="M 36.347656 122 L 318.023438 122 L 318.023438 124 L 36.347656 124 Z M 36.347656 122 "/>
</clipPath>
<clipPath id="clip-6">
<path clip-rule="nonzero" d="M 36.347656 85 L 318.023438 85 L 318.023438 87 L 36.347656 87 Z M 36.347656 85 "/>
</clipPath>
<clipPath id="clip-7">
<path clip-rule="nonzero" d="M 36.347656 48 L 318.023438 48 L 318.023438 50 L 36.347656 50 Z M 36.347656 48 "/>
</clipPath>
<clipPath id="clip-8">
<path clip-rule="nonzero" d="M 36.347656 11 L 318.023438 11 L 318.023438 13 L 36.347656 13 Z M 36.347656 11 "/>
</clipPath>
<clipPath id="clip-9">
<path clip-rule="nonzero" d="M 68 5.976562 L 70 5.976562 L 70 152.652344 L 68 152.652344 Z M 68 5.976562 "/>
</clipPath>
<clipPath id="clip-10">
<path clip-rule="nonzero" d="M 122 5.976562 L 124 5.976562 L 124 152.652344 L 122 152.652344 Z M 122 5.976562 "/>
</clipPath>
<clipPath id="clip-11">
<path clip-rule="nonzero" d="M 176 5.976562 L 178 5.976562 L 178 152.652344 L 176 152.652344 Z M 176 5.976562 "/>
</clipPath>
<clipPath id="clip-12">
<path clip-rule="nonzero" d="M 230 5.976562 L 232 5.976562 L 232 152.652344 L 230 152.652344 Z M 230 5.976562 "/>
</clipPath>
<clipPath id="clip-13">
<path clip-rule="nonzero" d="M 284 5.976562 L 287 5.976562 L 287 152.652344 L 284 152.652344 Z M 284 5.976562 "/>
</clipPath>
</defs>
<rect x="-32.4" y="-18.9" width="388.8" height="226.8" fill="rgb(100%, 100%, 100%)" fill-opacity="1"/>
<rect x="-32.4" y="-18.9" width="388.8" height="226.8" fill="rgb(100%, 100%, 100%)" fill-opacity="1"/>
<path fill="none" stroke-width="1.163976" stroke-linecap="round" stroke-linejoin="round" stroke="rgb(100%, 100%, 100%)" stroke-opacity="1" stroke-miterlimit="10" d="M 0 189 L 324 189 L 324 0 L 0 0 Z M 0 189 "/>
<g clip-path="url(#clip-0)">
<path fill-rule="nonzero" fill="rgb(100%, 100%, 100%)" fill-opacity="1" d="M 36.347656 152.652344 L 318.023438 152.652344 L 318.023438 5.976562 L 36.347656 5.976562 Z M 36.347656 152.652344 "/>
</g>
<g clip-path="url(#clip-1)">
<path fill="none" stroke-width="0.581988" stroke-linecap="butt" stroke-linejoin="round" stroke="rgb(100%, 100%, 100%)" stroke-opacity="1" stroke-miterlimit="10" d="M 36.347656 141.542969 L 318.023438 141.542969 "/>
</g>
<g clip-path="url(#clip-2)">
<path fill="none" stroke-width="0.581988" stroke-linecap="butt" stroke-linejoin="round" stroke="rgb(100%, 100%, 100%)" stroke-opacity="1" stroke-miterlimit="10" d="M 36.347656 104.503906 L 318.023438 104.503906 "/>
</g>
<g clip-path="url(#clip-3)">
<path fill="none" stroke-width="0.581988" stroke-linecap="butt" stroke-linejoin="round" stroke="rgb(100%, 100%, 100%)" stroke-opacity="1" stroke-miterlimit="10" d="M 36.347656 67.464844 L 318.023438 67.464844 "/>
</g>
<g clip-path="url(#clip-4)">
<path fill="none" stroke-width="0.581988" stroke-linecap="butt" stroke-linejoin="round" stroke="rgb(100%, 100%, 100%)" stroke-opacity="1" stroke-miterlimit="10" d="M 36.347656 30.421875 L 318.023438 30.421875 "/>
</g>
<g clip-path="url(#clip-5)">
<path fill="none" stroke-width="1.163976" stroke-linecap="butt" stroke-linejoin="round" stroke="rgb(74.509804%, 74.509804%, 74.509804%)" stroke-opacity="1" stroke-dasharray="1.163976 3.491929" stroke-miterlimit="10" d="M 36.347656 123.023438 L 318.023438 123.023438 "/>
</g>
<g clip-path="url(#clip-6)">
<path fill="none" stroke-width="1.163976" stroke-linecap="butt" stroke-linejoin="round" stroke="rgb(74.509804%, 74.509804%, 74.509804%)" stroke-opacity="1" stroke-dasharray="1.163976 3.491929" stroke-miterlimit="10" d="M 36.347656 85.984375 L 318.023438 85.984375 "/>
</g>
<g clip-path="url(#clip-7)">
<path fill="none" stroke-width="1.163976" stroke-linecap="butt" stroke-linejoin="round" stroke="rgb(74.509804%, 74.509804%, 74.509804%)" stroke-opacity="1" stroke-dasharray="1.163976 3.491929" stroke-miterlimit="10" d="M 36.347656 48.941406 L 318.023438 48.941406 "/>
</g>
<g clip-path="url(#clip-8)">
<path fill="none" stroke-width="1.163976" stroke-linecap="butt" stroke-linejoin="round" stroke="rgb(74.509804%, 74.509804%, 74.509804%)" stroke-opacity="1" stroke-dasharray="1.163976 3.491929" stroke-miterlimit="10" d="M 36.347656 11.902344 L 318.023438 11.902344 "/>
</g>
<g clip-path="url(#clip-9)">
<path fill="none" stroke-width="1.163976" stroke-linecap="butt" stroke-linejoin="round" stroke="rgb(100%, 100%, 100%)" stroke-opacity="1" stroke-miterlimit="10" d="M 68.847656 152.652344 L 68.847656 5.976562 "/>
</g>
<g clip-path="url(#clip-10)">
<path fill="none" stroke-width="1.163976" stroke-linecap="butt" stroke-linejoin="round" stroke="rgb(100%, 100%, 100%)" stroke-opacity="1" stroke-miterlimit="10" d="M 123.015625 152.652344 L 123.015625 5.976562 "/>
</g>
<g clip-path="url(#clip-11)">
<path fill="none" stroke-width="1.163976" stroke-linecap="butt" stroke-linejoin="round" stroke="rgb(100%, 100%, 100%)" stroke-opacity="1" stroke-miterlimit="10" d="M 177.183594 152.652344 L 177.183594 5.976562 "/>
</g>
<g clip-path="url(#clip-12)">
<path fill="none" stroke-width="1.163976" stroke-linecap="butt" stroke-linejoin="round" stroke="rgb(100%, 100%, 100%)" stroke-opacity="1" stroke-miterlimit="10" d="M 231.351562 152.652344 L 231.351562 5.976562 "/>
</g>
<g clip-path="url(#clip-13)">
<path fill="none" stroke-width="1.163976" stroke-linecap="butt" stroke-linejoin="round" stroke="rgb(100%, 100%, 100%)" stroke-opacity="1" stroke-miterlimit="10" d="M 285.519531 152.652344 L 285.519531 5.976562 "/>
</g>
<path fill="none" stroke-width="1.163976" stroke-linecap="butt" stroke-linejoin="round" stroke="rgb(0%, 0%, 0%)" stroke-opacity="1" stroke-miterlimit="10" d="M 68.847656 63.757812 L 68.847656 16.347656 "/>
<path fill="none" stroke-width="1.163976" stroke-linecap="butt" stroke-linejoin="round" stroke="rgb(0%, 0%, 0%)" stroke-opacity="1" stroke-miterlimit="10" d="M 68.847656 113.761719 L 68.847656 140.058594 "/>
<path fill-rule="nonzero" fill="rgb(98.039216%, 50.196078%, 44.705882%)" fill-opacity="0.4" stroke-width="1.163976" stroke-linecap="butt" stroke-linejoin="miter" stroke="rgb(0%, 0%, 0%)" stroke-opacity="1" stroke-miterlimit="10" d="M 48.535156 63.757812 L 48.535156 113.761719 L 89.160156 113.761719 L 89.160156 63.757812 Z M 48.535156 63.757812 "/>
<path fill="none" stroke-width="2.327953" stroke-linecap="butt" stroke-linejoin="miter" stroke="rgb(0%, 0%, 0%)" stroke-opacity="1" stroke-miterlimit="10" d="M 48.535156 83.019531 L 89.160156 83.019531 "/>
<path fill="none" stroke-width="1.163976" stroke-linecap="butt" stroke-linejoin="round" stroke="rgb(0%, 0%, 0%)" stroke-opacity="1" stroke-miterlimit="10" d="M 123.015625 54.683594 L 123.015625 37.089844 "/>
<path fill="none" stroke-width="1.163976" stroke-linecap="butt" stroke-linejoin="round" stroke="rgb(0%, 0%, 0%)" stroke-opacity="1" stroke-miterlimit="10" d="M 123.015625 128.207031 L 123.015625 145.988281 "/>
<path fill-rule="nonzero" fill="rgb(98.039216%, 50.196078%, 44.705882%)" fill-opacity="0.4" stroke-width="1.163976" stroke-linecap="butt" stroke-linejoin="miter" stroke="rgb(0%, 0%, 0%)" stroke-opacity="1" stroke-miterlimit="10" d="M 102.703125 54.683594 L 102.703125 128.207031 L 143.328125 128.207031 L 143.328125 54.683594 Z M 102.703125 54.683594 "/>
<path fill="none" stroke-width="2.327953" stroke-linecap="butt" stroke-linejoin="miter" stroke="rgb(0%, 0%, 0%)" stroke-opacity="1" stroke-miterlimit="10" d="M 102.703125 83.761719 L 143.328125 83.761719 "/>
<path fill="none" stroke-width="1.163976" stroke-linecap="butt" stroke-linejoin="round" stroke="rgb(0%, 0%, 0%)" stroke-opacity="1" stroke-miterlimit="10" d="M 177.183594 14.125 L 177.183594 12.644531 "/>
<path fill="none" stroke-width="1.163976" stroke-linecap="butt" stroke-linejoin="round" stroke="rgb(0%, 0%, 0%)" stroke-opacity="1" stroke-miterlimit="10" d="M 177.183594 96.355469 L 177.183594 97.835938 "/>
<path fill-rule="nonzero" fill="rgb(98.039216%, 50.196078%, 44.705882%)" fill-opacity="0.4" stroke-width="1.163976" stroke-linecap="butt" stroke-linejoin="miter" stroke="rgb(0%, 0%, 0%)" stroke-opacity="1" stroke-miterlimit="10" d="M 156.871094 14.125 L 156.871094 96.355469 L 197.496094 96.355469 L 197.496094 14.125 Z M 156.871094 14.125 "/>
<path fill="none" stroke-width="2.327953" stroke-linecap="butt" stroke-linejoin="miter" stroke="rgb(0%, 0%, 0%)" stroke-opacity="1" stroke-miterlimit="10" d="M 156.871094 25.980469 L 197.496094 25.980469 "/>
<path fill-rule="nonzero" fill="rgb(80.392157%, 0%, 0%)" fill-opacity="1" stroke-width="0.708661" stroke-linecap="round" stroke-linejoin="round" stroke="rgb(80.392157%, 0%, 0%)" stroke-opacity="1" stroke-miterlimit="10" d="M 234.054688 34.128906 C 234.054688 37.730469 228.652344 37.730469 228.652344 34.128906 C 228.652344 30.523438 234.054688 30.523438 234.054688 34.128906 "/>
<path fill-rule="nonzero" fill="rgb(80.392157%, 0%, 0%)" fill-opacity="1" stroke-width="0.708661" stroke-linecap="round" stroke-linejoin="round" stroke="rgb(80.392157%, 0%, 0%)" stroke-opacity="1" stroke-miterlimit="10" d="M 234.054688 49.683594 C 234.054688 53.285156 228.652344 53.285156 228.652344 49.683594 C 228.652344 46.082031 234.054688 46.082031 234.054688 49.683594 "/>
<path fill-rule="nonzero" fill="rgb(80.392157%, 0%, 0%)" fill-opacity="1" stroke-width="0.708661" stroke-linecap="round" stroke-linejoin="round" stroke="rgb(80.392157%, 0%, 0%)" stroke-opacity="1" stroke-miterlimit="10" d="M 234.054688 26.71875 C 234.054688 30.320312 228.652344 30.320312 228.652344 26.71875 C 228.652344 23.117188 234.054688 23.117188 234.054688 26.71875 "/>
<path fill-rule="nonzero" fill="rgb(80.392157%, 0%, 0%)" fill-opacity="1" stroke-width="0.708661" stroke-linecap="round" stroke-linejoin="round" stroke="rgb(80.392157%, 0%, 0%)" stroke-opacity="1" stroke-miterlimit="10" d="M 234.054688 44.5 C 234.054688 48.101562 228.652344 48.101562 228.652344 44.5 C 228.652344 40.894531 234.054688 40.894531 234.054688 44.5 "/>
<path fill="none" stroke-width="1.163976" stroke-linecap="butt" stroke-linejoin="round" stroke="rgb(0%, 0%, 0%)" stroke-opacity="1" stroke-miterlimit="10" d="M 231.351562 79.128906 L 231.351562 78.574219 "/>
<path fill="none" stroke-width="1.163976" stroke-linecap="butt" stroke-linejoin="round" stroke="rgb(0%, 0%, 0%)" stroke-opacity="1" stroke-miterlimit="10" d="M 231.351562 92.648438 L 231.351562 100.796875 "/>
<path fill-rule="nonzero" fill="rgb(98.039216%, 50.196078%, 44.705882%)" fill-opacity="0.4" stroke-width="1.163976" stroke-linecap="butt" stroke-linejoin="miter" stroke="rgb(0%, 0%, 0%)" stroke-opacity="1" stroke-miterlimit="10" d="M 211.039062 79.128906 L 211.039062 92.648438 L 251.664062 92.648438 L 251.664062 79.128906 Z M 211.039062 79.128906 "/>
<path fill="none" stroke-width="2.327953" stroke-linecap="butt" stroke-linejoin="miter" stroke="rgb(0%, 0%, 0%)" stroke-opacity="1" stroke-miterlimit="10" d="M 211.039062 86.722656 L 251.664062 86.722656 "/>
<path fill="none" stroke-width="1.163976" stroke-linecap="butt" stroke-linejoin="round" stroke="rgb(0%, 0%, 0%)" stroke-opacity="1" stroke-miterlimit="10" d="M 285.519531 70.054688 L 285.519531 58.574219 "/>
<path fill="none" stroke-width="1.163976" stroke-linecap="butt" stroke-linejoin="round" stroke="rgb(0%, 0%, 0%)" stroke-opacity="1" stroke-miterlimit="10" d="M 285.519531 95.984375 L 285.519531 120.058594 "/>
<path fill-rule="nonzero" fill="rgb(98.039216%, 50.196078%, 44.705882%)" fill-opacity="0.4" stroke-width="1.163976" stroke-linecap="butt" stroke-linejoin="miter" stroke="rgb(0%, 0%, 0%)" stroke-opacity="1" stroke-miterlimit="10" d="M 265.207031 70.054688 L 265.207031 95.984375 L 305.835938 95.984375 L 305.835938 70.054688 Z M 265.207031 70.054688 "/>
<path fill="none" stroke-width="2.327953" stroke-linecap="butt" stroke-linejoin="miter" stroke="rgb(0%, 0%, 0%)" stroke-opacity="1" stroke-miterlimit="10" d="M 265.207031 81.539062 L 305.835938 81.539062 "/>
<path fill-rule="nonzero" fill="rgb(0%, 0%, 100%)" fill-opacity="0.501961" stroke-width="0.773085" stroke-linecap="round" stroke-linejoin="round" stroke="rgb(0%, 0%, 50.196078%)" stroke-opacity="0.501961" stroke-miterlimit="10" d="M 75.976562 70.320312 C 75.976562 73.964844 70.507812 73.964844 70.507812 70.320312 C 70.507812 66.671875 75.976562 66.671875 75.976562 70.320312 "/>
<path fill-rule="nonzero" fill="rgb(0%, 0%, 100%)" fill-opacity="0.501961" stroke-width="0.773085" stroke-linecap="round" stroke-linejoin="round" stroke="rgb(0%, 0%, 50.196078%)" stroke-opacity="0.501961" stroke-miterlimit="10" d="M 230.394531 34.289062 C 230.394531 37.933594 224.925781 37.933594 224.925781 34.289062 C 224.925781 30.644531 230.394531 30.644531 230.394531 34.289062 "/>
<path fill-rule="nonzero" fill="rgb(0%, 0%, 100%)" fill-opacity="0.501961" stroke-width="0.773085" stroke-linecap="round" stroke-linejoin="round" stroke="rgb(0%, 0%, 50.196078%)" stroke-opacity="0.501961" stroke-miterlimit="10" d="M 130.125 53.101562 C 130.125 56.746094 124.65625 56.746094 124.65625 53.101562 C 124.65625 49.457031 130.125 49.457031 130.125 53.101562 "/>
<path fill-rule="nonzero" fill="rgb(0%, 0%, 100%)" fill-opacity="0.501961" stroke-width="0.773085" stroke-linecap="round" stroke-linejoin="round" stroke="rgb(0%, 0%, 50.196078%)" stroke-opacity="0.501961" stroke-miterlimit="10" d="M 231.082031 49.941406 C 231.082031 53.589844 225.613281 53.589844 225.613281 49.941406 C 225.613281 46.296875 231.082031 46.296875 231.082031 49.941406 "/>
<path fill-rule="nonzero" fill="rgb(0%, 0%, 100%)" fill-opacity="0.501961" stroke-width="0.773085" stroke-linecap="round" stroke-linejoin="round" stroke="rgb(0%, 0%, 50.196078%)" stroke-opacity="0.501961" stroke-miterlimit="10" d="M 128.296875 130.644531 C 128.296875 134.289062 122.828125 134.289062 122.828125 130.644531 C 122.828125 127 128.296875 127 128.296875 130.644531 "/>
<path fill-rule="nonzero" fill="rgb(0%, 0%, 100%)" fill-opacity="0.501961" stroke-width="0.773085" stroke-linecap="round" stroke-linejoin="round" stroke="rgb(0%, 0%, 50.196078%)" stroke-opacity="0.501961" stroke-miterlimit="10" d="M 129.769531 53.261719 C 129.769531 56.90625 124.300781 56.90625 124.300781 53.261719 C 124.300781 49.617188 129.769531 49.617188 129.769531 53.261719 "/>
<path fill-rule="nonzero" fill="rgb(0%, 0%, 100%)" fill-opacity="0.501961" stroke-width="0.773085" stroke-linecap="round" stroke-linejoin="round" stroke="rgb(0%, 0%, 50.196078%)" stroke-opacity="0.501961" stroke-miterlimit="10" d="M 75.972656 95.84375 C 75.972656 99.492188 70.507812 99.492188 70.507812 95.84375 C 70.507812 92.199219 75.972656 92.199219 75.972656 95.84375 "/>
<path fill-rule="nonzero" fill="rgb(0%, 0%, 100%)" fill-opacity="0.501961" stroke-width="0.773085" stroke-linecap="round" stroke-linejoin="round" stroke="rgb(0%, 0%, 50.196078%)" stroke-opacity="0.501961" stroke-miterlimit="10" d="M 292.042969 108.265625 C 292.042969 111.910156 286.574219 111.910156 286.574219 108.265625 C 286.574219 104.621094 292.042969 104.621094 292.042969 108.265625 "/>
<path fill-rule="nonzero" fill="rgb(0%, 0%, 100%)" fill-opacity="0.501961" stroke-width="0.773085" stroke-linecap="round" stroke-linejoin="round" stroke="rgb(0%, 0%, 50.196078%)" stroke-opacity="0.501961" stroke-miterlimit="10" d="M 68.949219 85.121094 C 68.949219 88.765625 63.480469 88.765625 63.480469 85.121094 C 63.480469 81.476562 68.949219 81.476562 68.949219 85.121094 "/>
<path fill-rule="nonzero" fill="rgb(0%, 0%, 100%)" fill-opacity="0.501961" stroke-width="0.773085" stroke-linecap="round" stroke-linejoin="round" stroke="rgb(0%, 0%, 50.196078%)" stroke-opacity="0.501961" stroke-miterlimit="10" d="M 129.234375 137.878906 C 129.234375 141.527344 123.765625 141.527344 123.765625 137.878906 C 123.765625 134.234375 129.234375 134.234375 129.234375 137.878906 "/>
<path fill-rule="nonzero" fill="rgb(0%, 0%, 100%)" fill-opacity="0.501961" stroke-width="0.773085" stroke-linecap="round" stroke-linejoin="round" stroke="rgb(0%, 0%, 50.196078%)" stroke-opacity="0.501961" stroke-miterlimit="10" d="M 126.597656 120.878906 C 126.597656 124.523438 121.128906 124.523438 121.128906 120.878906 C 121.128906 117.234375 126.597656 117.234375 126.597656 120.878906 "/>
<path fill-rule="nonzero" fill="rgb(0%, 0%, 100%)" fill-opacity="0.501961" stroke-width="0.773085" stroke-linecap="round" stroke-linejoin="round" stroke="rgb(0%, 0%, 50.196078%)" stroke-opacity="0.501961" stroke-miterlimit="10" d="M 123.152344 90.621094 C 123.152344 94.265625 117.683594 94.265625 117.683594 90.621094 C 117.683594 86.976562 123.152344 86.976562 123.152344 90.621094 "/>
<path fill-rule="nonzero" fill="rgb(0%, 0%, 100%)" fill-opacity="0.501961" stroke-width="0.773085" stroke-linecap="round" stroke-linejoin="round" stroke="rgb(0%, 0%, 50.196078%)" stroke-opacity="0.501961" stroke-miterlimit="10" d="M 238.035156 86.140625 C 238.035156 89.785156 232.570312 89.785156 232.570312 86.140625 C 232.570312 82.496094 238.035156 82.496094 238.035156 86.140625 "/>
<path fill-rule="nonzero" fill="rgb(0%, 0%, 100%)" fill-opacity="0.501961" stroke-width="0.773085" stroke-linecap="round" stroke-linejoin="round" stroke="rgb(0%, 0%, 50.196078%)" stroke-opacity="0.501961" stroke-miterlimit="10" d="M 128.242188 67.191406 C 128.242188 70.839844 122.773438 70.839844 122.773438 67.191406 C 122.773438 63.546875 128.242188 63.546875 128.242188 67.191406 "/>
<path fill-rule="nonzero" fill="rgb(0%, 0%, 100%)" fill-opacity="0.501961" stroke-width="0.773085" stroke-linecap="round" stroke-linejoin="round" stroke="rgb(0%, 0%, 50.196078%)" stroke-opacity="0.501961" stroke-miterlimit="10" d="M 229.796875 83.933594 C 229.796875 87.578125 224.328125 87.578125 224.328125 83.933594 C 224.328125 80.289062 229.796875 80.289062 229.796875 83.933594 "/>
<path fill-rule="nonzero" fill="rgb(0%, 0%, 100%)" fill-opacity="0.501961" stroke-width="0.773085" stroke-linecap="round" stroke-linejoin="round" stroke="rgb(0%, 0%, 50.196078%)" stroke-opacity="0.501961" stroke-miterlimit="10" d="M 233.628906 98.742188 C 233.628906 102.386719 228.160156 102.386719 228.160156 98.742188 C 228.160156 95.097656 233.628906 95.097656 233.628906 98.742188 "/>
<path fill-rule="nonzero" fill="rgb(0%, 0%, 100%)" fill-opacity="0.501961" stroke-width="0.773085" stroke-linecap="round" stroke-linejoin="round" stroke="rgb(0%, 0%, 50.196078%)" stroke-opacity="0.501961" stroke-miterlimit="10" d="M 228.859375 92.792969 C 228.859375 96.4375 223.394531 96.4375 223.394531 92.792969 C 223.394531 89.144531 228.859375 89.144531 228.859375 92.792969 "/>
<path fill-rule="nonzero" fill="rgb(0%, 0%, 100%)" fill-opacity="0.501961" stroke-width="0.773085" stroke-linecap="round" stroke-linejoin="round" stroke="rgb(0%, 0%, 50.196078%)" stroke-opacity="0.501961" stroke-miterlimit="10" d="M 66.734375 30.972656 C 66.734375 34.617188 61.265625 34.617188 61.265625 30.972656 C 61.265625 27.328125 66.734375 27.328125 66.734375 30.972656 "/>
<path fill-rule="nonzero" fill="rgb(0%, 0%, 100%)" fill-opacity="0.501961" stroke-width="0.773085" stroke-linecap="round" stroke-linejoin="round" stroke="rgb(0%, 0%, 50.196078%)" stroke-opacity="0.501961" stroke-miterlimit="10" d="M 123.0625 120.789062 C 123.0625 124.433594 117.59375 124.433594 117.59375 120.789062 C 117.59375 117.144531 123.0625 117.144531 123.0625 120.789062 "/>
<path fill-rule="nonzero" fill="rgb(0%, 0%, 100%)" fill-opacity="0.501961" stroke-width="0.773085" stroke-linecap="round" stroke-linejoin="round" stroke="rgb(0%, 0%, 50.196078%)" stroke-opacity="0.501961" stroke-miterlimit="10" d="M 238.855469 26.933594 C 238.855469 30.582031 233.390625 30.582031 233.390625 26.933594 C 233.390625 23.289062 238.855469 23.289062 238.855469 26.933594 "/>
<path fill-rule="nonzero" fill="rgb(0%, 0%, 100%)" fill-opacity="0.501961" stroke-width="0.773085" stroke-linecap="round" stroke-linejoin="round" stroke="rgb(0%, 0%, 50.196078%)" stroke-opacity="0.501961" stroke-miterlimit="10" d="M 127.257812 131.320312 C 127.257812 134.964844 121.789062 134.964844 121.789062 131.320312 C 121.789062 127.675781 127.257812 127.675781 127.257812 131.320312 "/>
<path fill-rule="nonzero" fill="rgb(0%, 0%, 100%)" fill-opacity="0.501961" stroke-width="0.773085" stroke-linecap="round" stroke-linejoin="round" stroke="rgb(0%, 0%, 50.196078%)" stroke-opacity="0.501961" stroke-miterlimit="10" d="M 177.671875 14.058594 C 177.671875 17.703125 172.203125 17.703125 172.203125 14.058594 C 172.203125 10.414062 177.671875 10.414062 177.671875 14.058594 "/>
<path fill-rule="nonzero" fill="rgb(0%, 0%, 100%)" fill-opacity="0.501961" stroke-width="0.773085" stroke-linecap="round" stroke-linejoin="round" stroke="rgb(0%, 0%, 50.196078%)" stroke-opacity="0.501961" stroke-miterlimit="10" d="M 128.355469 138.351562 C 128.355469 141.996094 122.890625 141.996094 122.890625 138.351562 C 122.890625 134.707031 128.355469 134.707031 128.355469 138.351562 "/>
<path fill-rule="nonzero" fill="rgb(0%, 0%, 100%)" fill-opacity="0.501961" stroke-width="0.773085" stroke-linecap="round" stroke-linejoin="round" stroke="rgb(0%, 0%, 50.196078%)" stroke-opacity="0.501961" stroke-miterlimit="10" d="M 127.613281 136.824219 C 127.613281 140.472656 122.144531 140.472656 122.144531 136.824219 C 122.144531 133.179688 127.613281 133.179688 127.613281 136.824219 "/>
<path fill-rule="nonzero" fill="rgb(0%, 0%, 100%)" fill-opacity="0.501961" stroke-width="0.773085" stroke-linecap="round" stroke-linejoin="round" stroke="rgb(0%, 0%, 50.196078%)" stroke-opacity="0.501961" stroke-miterlimit="10" d="M 238.597656 84.988281 C 238.597656 88.632812 233.128906 88.632812 233.128906 84.988281 C 233.128906 81.339844 238.597656 81.339844 238.597656 84.988281 "/>
<path fill-rule="nonzero" fill="rgb(0%, 0%, 100%)" fill-opacity="0.501961" stroke-width="0.773085" stroke-linecap="round" stroke-linejoin="round" stroke="rgb(0%, 0%, 50.196078%)" stroke-opacity="0.501961" stroke-miterlimit="10" d="M 231.484375 79.511719 C 231.484375 83.15625 226.015625 83.15625 226.015625 79.511719 C 226.015625 75.867188 231.484375 75.867188 231.484375 79.511719 "/>
<path fill-rule="nonzero" fill="rgb(0%, 0%, 100%)" fill-opacity="0.501961" stroke-width="0.773085" stroke-linecap="round" stroke-linejoin="round" stroke="rgb(0%, 0%, 50.196078%)" stroke-opacity="0.501961" stroke-miterlimit="10" d="M 127.789062 49.523438 C 127.789062 53.167969 122.320312 53.167969 122.320312 49.523438 C 122.320312 45.878906 127.789062 45.878906 127.789062 49.523438 "/>
<path fill-rule="nonzero" fill="rgb(0%, 0%, 100%)" fill-opacity="0.501961" stroke-width="0.773085" stroke-linecap="round" stroke-linejoin="round" stroke="rgb(0%, 0%, 50.196078%)" stroke-opacity="0.501961" stroke-miterlimit="10" d="M 67.226562 67.746094 C 67.226562 71.390625 61.757812 71.390625 61.757812 67.746094 C 61.757812 64.101562 67.226562 64.101562 67.226562 67.746094 "/>
<path fill-rule="nonzero" fill="rgb(0%, 0%, 100%)" fill-opacity="0.501961" stroke-width="0.773085" stroke-linecap="round" stroke-linejoin="round" stroke="rgb(0%, 0%, 50.196078%)" stroke-opacity="0.501961" stroke-miterlimit="10" d="M 233.828125 87.480469 C 233.828125 91.125 228.359375 91.125 228.359375 87.480469 C 228.359375 83.835938 233.828125 83.835938 233.828125 87.480469 "/>
<path fill-rule="nonzero" fill="rgb(0%, 0%, 100%)" fill-opacity="0.501961" stroke-width="0.773085" stroke-linecap="round" stroke-linejoin="round" stroke="rgb(0%, 0%, 50.196078%)" stroke-opacity="0.501961" stroke-miterlimit="10" d="M 126.65625 145.976562 C 126.65625 149.621094 121.1875 149.621094 121.1875 145.976562 C 121.1875 142.332031 126.65625 142.332031 126.65625 145.976562 "/>
<path fill-rule="nonzero" fill="rgb(0%, 0%, 100%)" fill-opacity="0.501961" stroke-width="0.773085" stroke-linecap="round" stroke-linejoin="round" stroke="rgb(0%, 0%, 50.196078%)" stroke-opacity="0.501961" stroke-miterlimit="10" d="M 70.261719 140.1875 C 70.261719 143.832031 64.792969 143.832031 64.792969 140.1875 C 64.792969 136.542969 70.261719 136.542969 70.261719 140.1875 "/>
<path fill-rule="nonzero" fill="rgb(0%, 0%, 100%)" fill-opacity="0.501961" stroke-width="0.773085" stroke-linecap="round" stroke-linejoin="round" stroke="rgb(0%, 0%, 50.196078%)" stroke-opacity="0.501961" stroke-miterlimit="10" d="M 68.355469 113.886719 C 68.355469 117.53125 62.890625 117.53125 62.890625 113.886719 C 62.890625 110.242188 68.355469 110.242188 68.355469 113.886719 "/>
<path fill-rule="nonzero" fill="rgb(0%, 0%, 100%)" fill-opacity="0.501961" stroke-width="0.773085" stroke-linecap="round" stroke-linejoin="round" stroke="rgb(0%, 0%, 50.196078%)" stroke-opacity="0.501961" stroke-miterlimit="10" d="M 121.195312 113.414062 C 121.195312 117.058594 115.726562 117.058594 115.726562 113.414062 C 115.726562 109.769531 121.195312 109.769531 121.195312 113.414062 "/>
<path fill-rule="nonzero" fill="rgb(0%, 0%, 100%)" fill-opacity="0.501961" stroke-width="0.773085" stroke-linecap="round" stroke-linejoin="round" stroke="rgb(0%, 0%, 50.196078%)" stroke-opacity="0.501961" stroke-miterlimit="10" d="M 238.441406 100.988281 C 238.441406 104.636719 232.976562 104.636719 232.976562 100.988281 C 232.976562 97.34375 238.441406 97.34375 238.441406 100.988281 "/>
<path fill-rule="nonzero" fill="rgb(0%, 0%, 100%)" fill-opacity="0.501961" stroke-width="0.773085" stroke-linecap="round" stroke-linejoin="round" stroke="rgb(0%, 0%, 50.196078%)" stroke-opacity="0.501961" stroke-miterlimit="10" d="M 124.5 89.882812 C 124.5 93.527344 119.03125 93.527344 119.03125 89.882812 C 119.03125 86.238281 124.5 86.238281 124.5 89.882812 "/>
<path fill-rule="nonzero" fill="rgb(0%, 0%, 100%)" fill-opacity="0.501961" stroke-width="0.773085" stroke-linecap="round" stroke-linejoin="round" stroke="rgb(0%, 0%, 50.196078%)" stroke-opacity="0.501961" stroke-miterlimit="10" d="M 126.46875 135.644531 C 126.46875 139.289062 121.003906 139.289062 121.003906 135.644531 C 121.003906 132 126.46875 132 126.46875 135.644531 "/>
<path fill-rule="nonzero" fill="rgb(0%, 0%, 100%)" fill-opacity="0.501961" stroke-width="0.773085" stroke-linecap="round" stroke-linejoin="round" stroke="rgb(0%, 0%, 50.196078%)" stroke-opacity="0.501961" stroke-miterlimit="10" d="M 76.910156 16.453125 C 76.910156 20.097656 71.445312 20.097656 71.445312 16.453125 C 71.445312 12.808594 76.910156 12.808594 76.910156 16.453125 "/>
<path fill-rule="nonzero" fill="rgb(0%, 0%, 100%)" fill-opacity="0.501961" stroke-width="0.773085" stroke-linecap="round" stroke-linejoin="round" stroke="rgb(0%, 0%, 50.196078%)" stroke-opacity="0.501961" stroke-miterlimit="10" d="M 235.199219 85.066406 C 235.199219 88.710938 229.730469 88.710938 229.730469 85.066406 C 229.730469 81.421875 235.199219 81.421875 235.199219 85.066406 "/>
<path fill-rule="nonzero" fill="rgb(0%, 0%, 100%)" fill-opacity="0.501961" stroke-width="0.773085" stroke-linecap="round" stroke-linejoin="round" stroke="rgb(0%, 0%, 50.196078%)" stroke-opacity="0.501961" stroke-miterlimit="10" d="M 128.511719 54.691406 C 128.511719 58.335938 123.046875 58.335938 123.046875 54.691406 C 123.046875 51.046875 128.511719 51.046875 128.511719 54.691406 "/>
<path fill-rule="nonzero" fill="rgb(0%, 0%, 100%)" fill-opacity="0.501961" stroke-width="0.773085" stroke-linecap="round" stroke-linejoin="round" stroke="rgb(0%, 0%, 50.196078%)" stroke-opacity="0.501961" stroke-miterlimit="10" d="M 121.59375 54.402344 C 121.59375 58.046875 116.128906 58.046875 116.128906 54.402344 C 116.128906 50.753906 121.59375 50.753906 121.59375 54.402344 "/>
<path fill-rule="nonzero" fill="rgb(0%, 0%, 100%)" fill-opacity="0.501961" stroke-width="0.773085" stroke-linecap="round" stroke-linejoin="round" stroke="rgb(0%, 0%, 50.196078%)" stroke-opacity="0.501961" stroke-miterlimit="10" d="M 129.996094 65.292969 C 129.996094 68.9375 124.527344 68.9375 124.527344 65.292969 C 124.527344 61.648438 129.996094 61.648438 129.996094 65.292969 "/>
<path fill-rule="nonzero" fill="rgb(0%, 0%, 100%)" fill-opacity="0.501961" stroke-width="0.773085" stroke-linecap="round" stroke-linejoin="round" stroke="rgb(0%, 0%, 50.196078%)" stroke-opacity="0.501961" stroke-miterlimit="10" d="M 128.847656 67.492188 C 128.847656 71.136719 123.378906 71.136719 123.378906 67.492188 C 123.378906 63.84375 128.847656 63.84375 128.847656 67.492188 "/>
<path fill-rule="nonzero" fill="rgb(0%, 0%, 100%)" fill-opacity="0.501961" stroke-width="0.773085" stroke-linecap="round" stroke-linejoin="round" stroke="rgb(0%, 0%, 50.196078%)" stroke-opacity="0.501961" stroke-miterlimit="10" d="M 179.851562 12.910156 C 179.851562 16.554688 174.382812 16.554688 174.382812 12.910156 C 174.382812 9.265625 179.851562 9.265625 179.851562 12.910156 "/>
<path fill-rule="nonzero" fill="rgb(0%, 0%, 100%)" fill-opacity="0.501961" stroke-width="0.773085" stroke-linecap="round" stroke-linejoin="round" stroke="rgb(0%, 0%, 50.196078%)" stroke-opacity="0.501961" stroke-miterlimit="10" d="M 124.351562 51.613281 C 124.351562 55.257812 118.882812 55.257812 118.882812 51.613281 C 118.882812 47.96875 124.351562 47.96875 124.351562 51.613281 "/>
<path fill-rule="nonzero" fill="rgb(0%, 0%, 100%)" fill-opacity="0.501961" stroke-width="0.773085" stroke-linecap="round" stroke-linejoin="round" stroke="rgb(0%, 0%, 50.196078%)" stroke-opacity="0.501961" stroke-miterlimit="10" d="M 76.171875 78.324219 C 76.171875 81.96875 70.703125 81.96875 70.703125 78.324219 C 70.703125 74.679688 76.171875 74.679688 76.171875 78.324219 "/>
<path fill-rule="nonzero" fill="rgb(0%, 0%, 100%)" fill-opacity="0.501961" stroke-width="0.773085" stroke-linecap="round" stroke-linejoin="round" stroke="rgb(0%, 0%, 50.196078%)" stroke-opacity="0.501961" stroke-miterlimit="10" d="M 123.515625 102.796875 C 123.515625 106.445312 118.046875 106.445312 118.046875 102.796875 C 118.046875 99.152344 123.515625 99.152344 123.515625 102.796875 "/>
<path fill-rule="nonzero" fill="rgb(0%, 0%, 100%)" fill-opacity="0.501961" stroke-width="0.773085" stroke-linecap="round" stroke-linejoin="round" stroke="rgb(0%, 0%, 50.196078%)" stroke-opacity="0.501961" stroke-miterlimit="10" d="M 70.84375 52.417969 C 70.84375 56.0625 65.375 56.0625 65.375 52.417969 C 65.375 48.773438 70.84375 48.773438 70.84375 52.417969 "/>
<path fill-rule="nonzero" fill="rgb(0%, 0%, 100%)" fill-opacity="0.501961" stroke-width="0.773085" stroke-linecap="round" stroke-linejoin="round" stroke="rgb(0%, 0%, 50.196078%)" stroke-opacity="0.501961" stroke-miterlimit="10" d="M 125.527344 97.820312 C 125.527344 101.464844 120.058594 101.464844 120.058594 97.820312 C 120.058594 94.175781 125.527344 94.175781 125.527344 97.820312 "/>
<path fill-rule="nonzero" fill="rgb(0%, 0%, 100%)" fill-opacity="0.501961" stroke-width="0.773085" stroke-linecap="round" stroke-linejoin="round" stroke="rgb(0%, 0%, 50.196078%)" stroke-opacity="0.501961" stroke-miterlimit="10" d="M 127.199219 132.144531 C 127.199219 135.789062 121.730469 135.789062 121.730469 132.144531 C 121.730469 128.5 127.199219 128.5 127.199219 132.144531 "/>
<path fill-rule="nonzero" fill="rgb(0%, 0%, 100%)" fill-opacity="0.501961" stroke-width="0.773085" stroke-linecap="round" stroke-linejoin="round" stroke="rgb(0%, 0%, 50.196078%)" stroke-opacity="0.501961" stroke-miterlimit="10" d="M 232.378906 88.074219 C 232.378906 91.71875 226.910156 91.71875 226.910156 88.074219 C 226.910156 84.425781 232.378906 84.425781 232.378906 88.074219 "/>
<path fill-rule="nonzero" fill="rgb(0%, 0%, 100%)" fill-opacity="0.501961" stroke-width="0.773085" stroke-linecap="round" stroke-linejoin="round" stroke="rgb(0%, 0%, 50.196078%)" stroke-opacity="0.501961" stroke-miterlimit="10" d="M 73.960938 43.058594 C 73.960938 46.703125 68.492188 46.703125 68.492188 43.058594 C 68.492188 39.410156 73.960938 39.410156 73.960938 43.058594 "/>
<path fill-rule="nonzero" fill="rgb(0%, 0%, 100%)" fill-opacity="0.501961" stroke-width="0.773085" stroke-linecap="round" stroke-linejoin="round" stroke="rgb(0%, 0%, 50.196078%)" stroke-opacity="0.501961" stroke-miterlimit="10" d="M 75.65625 82.949219 C 75.65625 86.59375 70.191406 86.59375 70.191406 82.949219 C 70.191406 79.304688 75.65625 79.304688 75.65625 82.949219 "/>
<path fill-rule="nonzero" fill="rgb(0%, 0%, 100%)" fill-opacity="0.501961" stroke-width="0.773085" stroke-linecap="round" stroke-linejoin="round" stroke="rgb(0%, 0%, 50.196078%)" stroke-opacity="0.501961" stroke-miterlimit="10" d="M 68.597656 59.945312 C 68.597656 63.589844 63.128906 63.589844 63.128906 59.945312 C 63.128906 56.296875 68.597656 56.296875 68.597656 59.945312 "/>
<path fill-rule="nonzero" fill="rgb(0%, 0%, 100%)" fill-opacity="0.501961" stroke-width="0.773085" stroke-linecap="round" stroke-linejoin="round" stroke="rgb(0%, 0%, 50.196078%)" stroke-opacity="0.501961" stroke-miterlimit="10" d="M 236.523438 90.5625 C 236.523438 94.207031 231.054688 94.207031 231.054688 90.5625 C 231.054688 86.917969 236.523438 86.917969 236.523438 90.5625 "/>
<path fill-rule="nonzero" fill="rgb(0%, 0%, 100%)" fill-opacity="0.501961" stroke-width="0.773085" stroke-linecap="round" stroke-linejoin="round" stroke="rgb(0%, 0%, 50.196078%)" stroke-opacity="0.501961" stroke-miterlimit="10" d="M 284.890625 83.558594 C 284.890625 87.203125 279.421875 87.203125 279.421875 83.558594 C 279.421875 79.914062 284.890625 79.914062 284.890625 83.558594 "/>
<path fill-rule="nonzero" fill="rgb(0%, 0%, 100%)" fill-opacity="0.501961" stroke-width="0.773085" stroke-linecap="round" stroke-linejoin="round" stroke="rgb(0%, 0%, 50.196078%)" stroke-opacity="0.501961" stroke-miterlimit="10" d="M 232.203125 78.417969 C 232.203125 82.0625 226.738281 82.0625 226.738281 78.417969 C 226.738281 74.773438 232.203125 74.773438 232.203125 78.417969 "/>
<path fill-rule="nonzero" fill="rgb(0%, 0%, 100%)" fill-opacity="0.501961" stroke-width="0.773085" stroke-linecap="round" stroke-linejoin="round" stroke="rgb(0%, 0%, 50.196078%)" stroke-opacity="0.501961" stroke-miterlimit="10" d="M 290.191406 75.140625 C 290.191406 78.785156 284.726562 78.785156 284.726562 75.140625 C 284.726562 71.492188 290.191406 71.492188 290.191406 75.140625 "/>
<path fill-rule="nonzero" fill="rgb(0%, 0%, 100%)" fill-opacity="0.501961" stroke-width="0.773085" stroke-linecap="round" stroke-linejoin="round" stroke="rgb(0%, 0%, 50.196078%)" stroke-opacity="0.501961" stroke-miterlimit="10" d="M 283.3125 58.828125 C 283.3125 62.472656 277.84375 62.472656 277.84375 58.828125 C 277.84375 55.179688 283.3125 55.179688 283.3125 58.828125 "/>
<path fill-rule="nonzero" fill="rgb(0%, 0%, 100%)" fill-opacity="0.501961" stroke-width="0.773085" stroke-linecap="round" stroke-linejoin="round" stroke="rgb(0%, 0%, 50.196078%)" stroke-opacity="0.501961" stroke-miterlimit="10" d="M 69.871094 134.265625 C 69.871094 137.910156 64.402344 137.910156 64.402344 134.265625 C 64.402344 130.621094 69.871094 130.621094 69.871094 134.265625 "/>
<path fill-rule="nonzero" fill="rgb(0%, 0%, 100%)" fill-opacity="0.501961" stroke-width="0.773085" stroke-linecap="round" stroke-linejoin="round" stroke="rgb(0%, 0%, 50.196078%)" stroke-opacity="0.501961" stroke-miterlimit="10" d="M 71.480469 118.742188 C 71.480469 122.386719 66.011719 122.386719 66.011719 118.742188 C 66.011719 115.097656 71.480469 115.097656 71.480469 118.742188 "/>
<path fill-rule="nonzero" fill="rgb(0%, 0%, 100%)" fill-opacity="0.501961" stroke-width="0.773085" stroke-linecap="round" stroke-linejoin="round" stroke="rgb(0%, 0%, 50.196078%)" stroke-opacity="0.501961" stroke-miterlimit="10" d="M 126.351562 77.710938 C 126.351562 81.355469 120.882812 81.355469 120.882812 77.710938 C 120.882812 74.066406 126.351562 74.066406 126.351562 77.710938 "/>
<path fill-rule="nonzero" fill="rgb(0%, 0%, 100%)" fill-opacity="0.501961" stroke-width="0.773085" stroke-linecap="round" stroke-linejoin="round" stroke="rgb(0%, 0%, 50.196078%)" stroke-opacity="0.501961" stroke-miterlimit="10" d="M 181.011719 26.246094 C 181.011719 29.890625 175.542969 29.890625 175.542969 26.246094 C 175.542969 22.601562 181.011719 22.601562 181.011719 26.246094 "/>
<path fill-rule="nonzero" fill="rgb(0%, 0%, 100%)" fill-opacity="0.501961" stroke-width="0.773085" stroke-linecap="round" stroke-linejoin="round" stroke="rgb(0%, 0%, 50.196078%)" stroke-opacity="0.501961" stroke-miterlimit="10" d="M 290.585938 120.125 C 290.585938 123.769531 285.117188 123.769531 285.117188 120.125 C 285.117188 116.480469 290.585938 116.480469 290.585938 120.125 "/>
<path fill-rule="nonzero" fill="rgb(0%, 0%, 100%)" fill-opacity="0.501961" stroke-width="0.773085" stroke-linecap="round" stroke-linejoin="round" stroke="rgb(0%, 0%, 50.196078%)" stroke-opacity="0.501961" stroke-miterlimit="10" d="M 123.996094 63.632812 C 123.996094 67.277344 118.527344 67.277344 118.527344 63.632812 C 118.527344 59.988281 123.996094 59.988281 123.996094 63.632812 "/>
<path fill-rule="nonzero" fill="rgb(0%, 0%, 100%)" fill-opacity="0.501961" stroke-width="0.773085" stroke-linecap="round" stroke-linejoin="round" stroke="rgb(0%, 0%, 50.196078%)" stroke-opacity="0.501961" stroke-miterlimit="10" d="M 234.695312 95.757812 C 234.695312 99.402344 229.226562 99.402344 229.226562 95.757812 C 229.226562 92.113281 234.695312 92.113281 234.695312 95.757812 "/>
<path fill-rule="nonzero" fill="rgb(0%, 0%, 100%)" fill-opacity="0.501961" stroke-width="0.773085" stroke-linecap="round" stroke-linejoin="round" stroke="rgb(0%, 0%, 50.196078%)" stroke-opacity="0.501961" stroke-miterlimit="10" d="M 233.175781 88.792969 C 233.175781 92.4375 227.707031 92.4375 227.707031 88.792969 C 227.707031 85.144531 233.175781 85.144531 233.175781 88.792969 "/>
<path fill-rule="nonzero" fill="rgb(0%, 0%, 100%)" fill-opacity="0.501961" stroke-width="0.773085" stroke-linecap="round" stroke-linejoin="round" stroke="rgb(0%, 0%, 50.196078%)" stroke-opacity="0.501961" stroke-miterlimit="10" d="M 175.046875 97.597656 C 175.046875 101.242188 169.578125 101.242188 169.578125 97.597656 C 169.578125 93.953125 175.046875 93.953125 175.046875 97.597656 "/>
<path fill-rule="nonzero" fill="rgb(0%, 0%, 100%)" fill-opacity="0.501961" stroke-width="0.773085" stroke-linecap="round" stroke-linejoin="round" stroke="rgb(0%, 0%, 50.196078%)" stroke-opacity="0.501961" stroke-miterlimit="10" d="M 121.859375 76.390625 C 121.859375 80.035156 116.390625 80.035156 116.390625 76.390625 C 116.390625 72.746094 121.859375 72.746094 121.859375 76.390625 "/>
<path fill-rule="nonzero" fill="rgb(0%, 0%, 100%)" fill-opacity="0.501961" stroke-width="0.773085" stroke-linecap="round" stroke-linejoin="round" stroke="rgb(0%, 0%, 50.196078%)" stroke-opacity="0.501961" stroke-miterlimit="10" d="M 283.863281 81.273438 C 283.863281 84.917969 278.394531 84.917969 278.394531 81.273438 C 278.394531 77.628906 283.863281 77.628906 283.863281 81.273438 "/>
<path fill-rule="nonzero" fill="rgb(0%, 0%, 100%)" fill-opacity="0.501961" stroke-width="0.773085" stroke-linecap="round" stroke-linejoin="round" stroke="rgb(0%, 0%, 50.196078%)" stroke-opacity="0.501961" stroke-miterlimit="10" d="M 127.84375 37.132812 C 127.84375 40.777344 122.375 40.777344 122.375 37.132812 C 122.375 33.484375 127.84375 33.484375 127.84375 37.132812 "/>
<path fill-rule="nonzero" fill="rgb(0%, 0%, 100%)" fill-opacity="0.501961" stroke-width="0.773085" stroke-linecap="round" stroke-linejoin="round" stroke="rgb(0%, 0%, 50.196078%)" stroke-opacity="0.501961" stroke-miterlimit="10" d="M 123.761719 57.902344 C 123.761719 61.550781 118.292969 61.550781 118.292969 57.902344 C 118.292969 54.257812 123.761719 54.257812 123.761719 57.902344 "/>
<path fill-rule="nonzero" fill="rgb(0%, 0%, 100%)" fill-opacity="0.501961" stroke-width="0.773085" stroke-linecap="round" stroke-linejoin="round" stroke="rgb(0%, 0%, 50.196078%)" stroke-opacity="0.501961" stroke-miterlimit="10" d="M 121.816406 42.171875 C 121.816406 45.816406 116.347656 45.816406 116.347656 42.171875 C 116.347656 38.527344 121.816406 38.527344 121.816406 42.171875 "/>
<path fill-rule="nonzero" fill="rgb(0%, 0%, 100%)" fill-opacity="0.501961" stroke-width="0.773085" stroke-linecap="round" stroke-linejoin="round" stroke="rgb(0%, 0%, 50.196078%)" stroke-opacity="0.501961" stroke-miterlimit="10" d="M 287.964844 65.457031 C 287.964844 69.105469 282.496094 69.105469 282.496094 65.457031 C 282.496094 61.8125 287.964844 61.8125 287.964844 65.457031 "/>
<path fill-rule="nonzero" fill="rgb(0%, 0%, 100%)" fill-opacity="0.501961" stroke-width="0.773085" stroke-linecap="round" stroke-linejoin="round" stroke="rgb(0%, 0%, 50.196078%)" stroke-opacity="0.501961" stroke-miterlimit="10" d="M 238.414062 92.707031 C 238.414062 96.351562 232.945312 96.351562 232.945312 92.707031 C 232.945312 89.0625 238.414062 89.0625 238.414062 92.707031 "/>
<path fill-rule="nonzero" fill="rgb(0%, 0%, 100%)" fill-opacity="0.501961" stroke-width="0.773085" stroke-linecap="round" stroke-linejoin="round" stroke="rgb(0%, 0%, 50.196078%)" stroke-opacity="0.501961" stroke-miterlimit="10" d="M 180.835938 96.261719 C 180.835938 99.90625 175.367188 99.90625 175.367188 96.261719 C 175.367188 92.613281 180.835938 92.613281 180.835938 96.261719 "/>
<path fill-rule="nonzero" fill="rgb(0%, 0%, 100%)" fill-opacity="0.501961" stroke-width="0.773085" stroke-linecap="round" stroke-linejoin="round" stroke="rgb(0%, 0%, 50.196078%)" stroke-opacity="0.501961" stroke-miterlimit="10" d="M 130.648438 42.867188 C 130.648438 46.511719 125.179688 46.511719 125.179688 42.867188 C 125.179688 39.21875 130.648438 39.21875 130.648438 42.867188 "/>
<path fill-rule="nonzero" fill="rgb(0%, 0%, 100%)" fill-opacity="0.501961" stroke-width="0.773085" stroke-linecap="round" stroke-linejoin="round" stroke="rgb(0%, 0%, 50.196078%)" stroke-opacity="0.501961" stroke-miterlimit="10" d="M 126.140625 127.324219 C 126.140625 130.96875 120.671875 130.96875 120.671875 127.324219 C 120.671875 123.679688 126.140625 123.679688 126.140625 127.324219 "/>
<path fill-rule="nonzero" fill="rgb(0%, 0%, 100%)" fill-opacity="0.501961" stroke-width="0.773085" stroke-linecap="round" stroke-linejoin="round" stroke="rgb(0%, 0%, 50.196078%)" stroke-opacity="0.501961" stroke-miterlimit="10" d="M 238.800781 44.347656 C 238.800781 47.992188 233.332031 47.992188 233.332031 44.347656 C 233.332031 40.703125 238.800781 40.703125 238.800781 44.347656 "/>
<path fill-rule="nonzero" fill="rgb(0%, 0%, 100%)" fill-opacity="0.501961" stroke-width="0.773085" stroke-linecap="round" stroke-linejoin="round" stroke="rgb(0%, 0%, 50.196078%)" stroke-opacity="0.501961" stroke-miterlimit="10" d="M 237.878906 93.964844 C 237.878906 97.609375 232.410156 97.609375 232.410156 93.964844 C 232.410156 90.320312 237.878906 90.320312 237.878906 93.964844 "/>
<path fill-rule="nonzero" fill="rgb(0%, 0%, 100%)" fill-opacity="0.501961" stroke-width="0.773085" stroke-linecap="round" stroke-linejoin="round" stroke="rgb(0%, 0%, 50.196078%)" stroke-opacity="0.501961" stroke-miterlimit="10" d="M 68.949219 121.382812 C 68.949219 125.027344 63.484375 125.027344 63.484375 121.382812 C 63.484375 117.738281 68.949219 117.738281 68.949219 121.382812 "/>
<path fill-rule="nonzero" fill="rgb(0%, 0%, 100%)" fill-opacity="0.501961" stroke-width="0.773085" stroke-linecap="round" stroke-linejoin="round" stroke="rgb(0%, 0%, 50.196078%)" stroke-opacity="0.501961" stroke-miterlimit="10" d="M 76.863281 113.253906 C 76.863281 116.902344 71.394531 116.902344 71.394531 113.253906 C 71.394531 109.609375 76.863281 109.609375 76.863281 113.253906 "/>
<path fill-rule="nonzero" fill="rgb(0%, 0%, 100%)" fill-opacity="0.501961" stroke-width="0.773085" stroke-linecap="round" stroke-linejoin="round" stroke="rgb(0%, 0%, 50.196078%)" stroke-opacity="0.501961" stroke-miterlimit="10" d="M 76.355469 67.304688 C 76.355469 70.949219 70.886719 70.949219 70.886719 67.304688 C 70.886719 63.660156 76.355469 63.660156 76.355469 67.304688 "/>
<path fill-rule="nonzero" fill="rgb(0%, 0%, 100%)" fill-opacity="0.501961" stroke-width="0.773085" stroke-linecap="round" stroke-linejoin="round" stroke="rgb(0%, 0%, 50.196078%)" stroke-opacity="0.501961" stroke-miterlimit="10" d="M 68.839844 87.6875 C 68.839844 91.332031 63.371094 91.332031 63.371094 87.6875 C 63.371094 84.039062 68.839844 84.039062 68.839844 87.6875 "/>
<g fill="rgb(30.196078%, 30.196078%, 30.196078%)" fill-opacity="1">
<use xlink:href="#glyph-0-1" x="25.964844" y="125.915039"/>
</g>
<g fill="rgb(30.196078%, 30.196078%, 30.196078%)" fill-opacity="1">
<use xlink:href="#glyph-0-2" x="20.964844" y="88.875977"/>
<use xlink:href="#glyph-0-3" x="25.964844" y="88.875977"/>
</g>
<g fill="rgb(30.196078%, 30.196078%, 30.196078%)" fill-opacity="1">
<use xlink:href="#glyph-0-2" x="20.964844" y="51.833008"/>
<use xlink:href="#glyph-0-1" x="25.964844" y="51.833008"/>
</g>
<g fill="rgb(30.196078%, 30.196078%, 30.196078%)" fill-opacity="1">
<use xlink:href="#glyph-0-4" x="20.964844" y="14.793945"/>
<use xlink:href="#glyph-0-3" x="25.964844" y="14.793945"/>
</g>
<path fill="none" stroke-width="1.163976" stroke-linecap="butt" stroke-linejoin="round" stroke="rgb(20%, 20%, 20%)" stroke-opacity="1" stroke-miterlimit="10" d="M 33.355469 123.023438 L 36.347656 123.023438 "/>
<path fill="none" stroke-width="1.163976" stroke-linecap="butt" stroke-linejoin="round" stroke="rgb(20%, 20%, 20%)" stroke-opacity="1" stroke-miterlimit="10" d="M 33.355469 85.984375 L 36.347656 85.984375 "/>
<path fill="none" stroke-width="1.163976" stroke-linecap="butt" stroke-linejoin="round" stroke="rgb(20%, 20%, 20%)" stroke-opacity="1" stroke-miterlimit="10" d="M 33.355469 48.941406 L 36.347656 48.941406 "/>
<path fill="none" stroke-width="1.163976" stroke-linecap="butt" stroke-linejoin="round" stroke="rgb(20%, 20%, 20%)" stroke-opacity="1" stroke-miterlimit="10" d="M 33.355469 11.902344 L 36.347656 11.902344 "/>
<path fill="none" stroke-width="1.163976" stroke-linecap="butt" stroke-linejoin="round" stroke="rgb(20%, 20%, 20%)" stroke-opacity="1" stroke-miterlimit="10" d="M 68.847656 155.644531 L 68.847656 152.652344 "/>
<path fill="none" stroke-width="1.163976" stroke-linecap="butt" stroke-linejoin="round" stroke="rgb(20%, 20%, 20%)" stroke-opacity="1" stroke-miterlimit="10" d="M 123.015625 155.644531 L 123.015625 152.652344 "/>
<path fill="none" stroke-width="1.163976" stroke-linecap="butt" stroke-linejoin="round" stroke="rgb(20%, 20%, 20%)" stroke-opacity="1" stroke-miterlimit="10" d="M 177.183594 155.644531 L 177.183594 152.652344 "/>
<path fill="none" stroke-width="1.163976" stroke-linecap="butt" stroke-linejoin="round" stroke="rgb(20%, 20%, 20%)" stroke-opacity="1" stroke-miterlimit="10" d="M 231.351562 155.644531 L 231.351562 152.652344 "/>
<path fill="none" stroke-width="1.163976" stroke-linecap="butt" stroke-linejoin="round" stroke="rgb(20%, 20%, 20%)" stroke-opacity="1" stroke-miterlimit="10" d="M 285.519531 155.644531 L 285.519531 152.652344 "/>
<g fill="rgb(30.196078%, 30.196078%, 30.196078%)" fill-opacity="1">
<use xlink:href="#glyph-0-5" x="58.847656" y="164.426758"/>
<use xlink:href="#glyph-0-6" x="63.847656" y="164.426758"/>
<use xlink:href="#glyph-0-7" x="68.847656" y="164.426758"/>
<use xlink:href="#glyph-0-8" x="71.847656" y="164.426758"/>
<use xlink:href="#glyph-0-9" x="76.847656" y="164.426758"/>
</g>
<g fill="rgb(30.196078%, 30.196078%, 30.196078%)" fill-opacity="1">
<use xlink:href="#glyph-0-10" x="113.015625" y="164.426758"/>
<use xlink:href="#glyph-0-11" x="118.015625" y="164.426758"/>
<use xlink:href="#glyph-0-7" x="123.015625" y="164.426758"/>
<use xlink:href="#glyph-0-12" x="126.015625" y="164.426758"/>
<use xlink:href="#glyph-0-9" x="131.015625" y="164.426758"/>
</g>
<g fill="rgb(30.196078%, 30.196078%, 30.196078%)" fill-opacity="1">
<use xlink:href="#glyph-0-9" x="163.683594" y="164.426758"/>
<use xlink:href="#glyph-0-8" x="165.683594" y="164.426758"/>
<use xlink:href="#glyph-0-13" x="170.683594" y="164.426758"/>
<use xlink:href="#glyph-0-11" x="175.683594" y="164.426758"/>
<use xlink:href="#glyph-0-5" x="180.683594" y="164.426758"/>
<use xlink:href="#glyph-0-14" x="185.683594" y="164.426758"/>
<use xlink:href="#glyph-0-9" x="188.683594" y="164.426758"/>
</g>
<g fill="rgb(30.196078%, 30.196078%, 30.196078%)" fill-opacity="1">
<use xlink:href="#glyph-0-15" x="221.351562" y="164.426758"/>
<use xlink:href="#glyph-0-16" x="226.351562" y="164.426758"/>
<use xlink:href="#glyph-0-8" x="234.351562" y="164.426758"/>
<use xlink:href="#glyph-0-9" x="239.351562" y="164.426758"/>
</g>
<g fill="rgb(30.196078%, 30.196078%, 30.196078%)" fill-opacity="1">
<use xlink:href="#glyph-0-17" x="279.019531" y="164.426758"/>
<use xlink:href="#glyph-0-18" x="286.019531" y="164.426758"/>
</g>
<g fill="rgb(0%, 0%, 0%)" fill-opacity="1">
<use xlink:href="#glyph-1-1" x="161.183594" y="179.263672"/>
<use xlink:href="#glyph-1-2" x="163.183594" y="179.263672"/>
<use xlink:href="#glyph-1-3" x="167.183594" y="179.263672"/>
<use xlink:href="#glyph-1-4" x="173.183594" y="179.263672"/>
<use xlink:href="#glyph-1-5" x="180.183594" y="179.263672"/>
<use xlink:href="#glyph-1-6" x="184.183594" y="179.263672"/>
<use xlink:href="#glyph-1-1" x="191.183594" y="179.263672"/>
</g>
<g fill="rgb(0%, 0%, 0%)" fill-opacity="1">
<use xlink:href="#glyph-2-1" x="14.216797" y="130.316406"/>
<use xlink:href="#glyph-2-2" x="14.216797" y="122.316406"/>
<use xlink:href="#glyph-2-3" x="14.216797" y="119.316406"/>
<use xlink:href="#glyph-2-3" x="14.216797" y="112.316406"/>
<use xlink:href="#glyph-2-4" x="14.216797" y="105.316406"/>
<use xlink:href="#glyph-2-5" x="14.216797" y="98.316406"/>
<use xlink:href="#glyph-2-6" x="14.216797" y="95.316406"/>
<use xlink:href="#glyph-2-7" x="14.216797" y="88.316406"/>
<use xlink:href="#glyph-2-8" x="14.216797" y="81.316406"/>
<use xlink:href="#glyph-2-9" x="14.216797" y="77.316406"/>
<use xlink:href="#glyph-2-10" x="14.216797" y="70.316406"/>
<use xlink:href="#glyph-2-11" x="14.216797" y="67.316406"/>
<use xlink:href="#glyph-2-12" x="14.216797" y="64.316406"/>
<use xlink:href="#glyph-2-13" x="14.216797" y="57.316406"/>
<use xlink:href="#glyph-2-5" x="14.216797" y="50.316406"/>
<use xlink:href="#glyph-2-14" x="14.216797" y="47.316406"/>
<use xlink:href="#glyph-2-15" x="14.216797" y="43.316406"/>
<use xlink:href="#glyph-2-8" x="14.216797" y="36.316406"/>
<use xlink:href="#glyph-2-16" x="14.216797" y="32.316406"/>
</g>
</svg>
