<?xml version="1.0" encoding="UTF-8"?>
<svg xmlns="http://www.w3.org/2000/svg" xmlns:xlink="http://www.w3.org/1999/xlink" width="324pt" height="189pt" viewBox="0 0 324 189">
<defs>
<clipPath id="clip-0">
<path clip-rule="nonzero" d="M 59.039062 59.039062 L 293.757812 59.039062 L 293.757812 115.558594 L 59.039062 115.558594 Z M 59.039062 59.039062 "/>
</clipPath>
</defs>
<rect x="-32.4" y="-18.9" width="388.8" height="226.8" fill="rgb(100%, 100%, 100%)" fill-opacity="1"/>
<g clip-path="url(#clip-0)">
<path fill-rule="nonzero" fill="rgb(100%, 100%, 100%)" fill-opacity="1" stroke-width="0.75" stroke-linecap="round" stroke-linejoin="round" stroke="rgb(100%, 100%, 100%)" stroke-opacity="1" stroke-miterlimit="10" d="M 59.039062 115.558594 L 293.757812 115.558594 L 293.757812 59.039062 L 59.039062 59.039062 Z M 59.039062 115.558594 "/>
</g>
<path fill="none" stroke-width="0.75" stroke-linecap="round" stroke-linejoin="round" stroke="rgb(0%, 0%, 0%)" stroke-opacity="1" stroke-miterlimit="10" d="M 189.519531 96.695312 L 189.484375 96.832031 L 189.480469 96.878906 L 189.46875 96.921875 L 189.398438 97.019531 L 189.390625 97.039062 L 189.382812 97.101562 L 189.378906 97.117188 L 189.363281 97.152344 L 189.351562 97.207031 L 189.144531 97.777344 L 189.007812 98.40625 L 189.003906 98.453125 L 189 98.476562 L 188.984375 98.527344 L 188.976562 98.550781 L 188.976562 98.578125 L 188.988281 98.617188 L 188.992188 98.640625 L 188.894531 99.175781 L 188.882812 99.214844 L 188.714844 99.464844 L 188.703125 99.5 L 188.695312 99.550781 L 188.675781 99.59375 L 188.640625 99.628906 L 188.597656 99.640625 L 188.605469 99.660156 L 188.609375 99.667969 L 188.621094 99.664062 L 188.636719 99.65625 L 188.652344 99.730469 L 188.632812 99.808594 L 188.597656 99.886719 L 188.582031 99.957031 L 188.554688 99.996094 L 188.386719 100.164062 L 188.359375 100.183594 L 188.296875 100.210938 L 188.269531 100.226562 L 188.25 100.253906 L 188.214844 100.3125 L 188.1875 100.347656 L 187.96875 100.523438 L 187.914062 100.480469 L 187.835938 100.492188 L 187.792969 100.539062 L 187.835938 100.597656 L 187.851562 100.578125 L 187.878906 100.558594 L 187.910156 100.539062 L 187.941406 100.539062 L 187.90625 100.605469 L 187.828125 100.667969 L 187.582031 100.792969 L 187.511719 100.808594 L 187.433594 100.804688 L 187.347656 100.789062 L 187.347656 100.808594 L 187.351562 100.820312 L 187.359375 100.828125 L 187.371094 100.835938 L 187.371094 100.847656 L 187.3125 100.882812 L 186.925781 101.304688 L 186.832031 101.382812 L 186.800781 101.398438 L 186.789062 101.40625 L 186.785156 101.417969 L 186.777344 101.457031 L 186.769531 101.464844 L 186.742188 101.480469 L 186.667969 101.582031 L 186.640625 101.605469 L 186.570312 101.648438 L 186.542969 101.671875 L 186.535156 101.691406 L 186.523438 101.738281 L 186.5 101.75 L 186.46875 101.78125 L 186.453125 101.820312 L 186.191406 102.160156 L 185.929688 102.652344 L 185.910156 102.738281 L 185.929688 102.820312 L 185.851562 102.820312 L 185.832031 102.839844 L 185.824219 102.894531 L 185.851562 102.878906 L 185.921875 102.859375 L 185.945312 102.835938 L 185.945312 102.851562 L 185.9375 102.882812 L 185.917969 102.90625 L 185.867188 102.964844 L 185.660156 103.144531 L 185.605469 103.210938 L 185.507812 103.371094 L 185.398438 103.613281 L 185.109375 104.09375 L 185.070312 104.179688 L 185.0625 104.210938 L 185.046875 104.242188 L 184.953125 104.335938 L 184.617188 104.925781 L 184.558594 105 L 184.527344 105.03125 L 184.5 105.042969 L 184.472656 105.066406 L 184.410156 105.191406 L 184.226562 105.421875 L 184.082031 105.601562 L 184.027344 105.636719 L 183.960938 105.765625 L 183.855469 105.882812 L 183.566406 106.136719 L 183.53125 106.15625 L 183.410156 106.1875 L 183.363281 106.207031 L 183.324219 106.238281 L 183.308594 106.273438 L 183.1875 106.414062 L 183.144531 106.429688 L 183.125 106.441406 L 183.113281 106.484375 L 183.097656 106.5 L 183.082031 106.511719 L 183.074219 106.515625 L 183.027344 106.527344 L 182.992188 106.554688 L 182.929688 106.621094 L 182.898438 106.636719 L 182.820312 106.664062 L 182.769531 106.699219 L 182.75 106.703125 L 182.730469 106.703125 L 182.710938 106.710938 L 182.703125 106.710938 L 182.679688 106.707031 L 182.671875 106.710938 L 182.660156 106.722656 L 182.660156 106.734375 L 182.667969 106.746094 L 182.671875 106.753906 L 182.632812 106.835938 L 182.574219 106.863281 L 182.5625 106.878906 L 182.554688 106.929688 L 182.53125 106.957031 L 182.46875 107.003906 L 182.402344 107.070312 L 182.371094 107.109375 L 182.359375 107.144531 L 182.355469 107.164062 L 182.320312 107.222656 L 182.296875 107.234375 L 182.292969 107.238281 L 182.289062 107.246094 L 182.28125 107.273438 L 182.277344 107.28125 L 182.148438 107.335938 L 182.128906 107.363281 L 182.121094 107.398438 L 182.097656 107.4375 L 182.046875 107.519531 L 181.800781 107.761719 L 181.597656 108.019531 L 181.492188 108.078125 L 181.472656 108.101562 L 181.207031 108.328125 L 181.164062 108.390625 L 181.144531 108.402344 L 181.113281 108.417969 L 181.09375 108.429688 L 181.023438 108.5 L 180.988281 108.546875 L 180.972656 108.585938 L 180.957031 108.609375 L 180.738281 108.769531 L 180.6875 108.792969 L 180.625 108.84375 L 180.589844 108.859375 L 180.585938 108.894531 L 180.539062 108.925781 L 180.441406 108.976562 L 180.347656 109.039062 L 180.289062 109.066406 L 180.179688 109.097656 L 180.128906 109.140625 L 180.089844 109.199219 L 180.074219 109.265625 L 180.058594 109.308594 L 180.015625 109.355469 L 179.8125 109.507812 L 179.75 109.53125 L 179.734375 109.546875 L 179.707031 109.582031 L 179.679688 109.597656 L 179.675781 109.605469 L 179.675781 109.625 L 179.667969 109.636719 L 179.570312 109.675781 L 179.535156 109.71875 L 179.511719 109.726562 L 179.472656 109.730469 L 179.375 109.765625 L 179.339844 109.785156 L 179.164062 109.957031 L 179.097656 110.007812 L 178.957031 110.054688 L 178.933594 110.074219 L 178.925781 110.078125 L 178.878906 110.140625 L 178.863281 110.148438 L 178.847656 110.152344 L 178.832031 110.148438 L 178.8125 110.140625 L 178.796875 110.195312 L 178.75 110.242188 L 178.640625 110.320312 L 178.59375 110.34375 L 178.585938 110.34375 L 178.570312 110.335938 L 178.566406 110.332031 L 178.558594 110.339844 L 178.550781 110.363281 L 178.339844 110.496094 L 178.320312 110.515625 L 178.171875 110.582031 L 178.125 110.617188 L 178.117188 110.632812 L 178.113281 110.648438 L 178.101562 110.667969 L 178.085938 110.679688 L 178.070312 110.683594 L 178.027344 110.691406 L 177.855469 110.777344 L 177.820312 110.785156 L 177.769531 110.789062 L 177.726562 110.800781 L 177.617188 110.890625 L 177.574219 110.898438 L 177.480469 110.910156 L 177.414062 110.945312 L 177.222656 111.019531 L 177.199219 111.023438 L 177.183594 111.03125 L 177.171875 111.074219 L 177.160156 111.082031 L 177.117188 111.085938 L 176.925781 111.175781 L 176.847656 111.195312 L 176.765625 111.199219 L 176.597656 111.175781 L 176.546875 111.175781 L 176.507812 111.191406 L 176.472656 111.199219 L 176.425781 111.179688 L 176.351562 111.140625 L 176.085938 111.09375 L 175.816406 111.078125 L 175.640625 111.101562 L 175.480469 111.148438 L 175.332031 111.214844 L 175.269531 111.261719 L 175.214844 111.320312 L 175.179688 111.390625 L 175.144531 111.511719 L 175.140625 111.5625 L 175.148438 111.585938 L 175.1875 111.601562 L 175.195312 111.621094 L 175.207031 111.632812 L 175.261719 111.671875 L 175.300781 111.726562 L 175.316406 111.746094 L 175.316406 111.761719 L 175.3125 111.769531 L 175.304688 111.773438 L 175.242188 111.757812 L 175.199219 111.769531 L 175.160156 111.792969 L 175.105469 111.804688 L 175.046875 111.796875 L 174.941406 111.769531 L 174.882812 111.757812 L 174.785156 111.769531 L 174.734375 111.769531 L 174.679688 111.742188 L 174.609375 111.730469 L 174.542969 111.6875 L 174.472656 111.660156 L 174.304688 111.617188 L 174.121094 111.617188 L 173.945312 111.636719 L 173.828125 111.667969 L 173.78125 111.691406 L 173.75 111.726562 L 173.777344 111.8125 L 173.753906 111.855469 L 173.722656 111.894531 L 173.699219 111.90625 L 173.605469 111.984375 L 173.59375 112.019531 L 173.601562 112.042969 L 173.617188 112.058594 L 173.636719 112.066406 L 173.644531 112.082031 L 173.640625 112.101562 L 173.605469 112.125 L 173.59375 112.140625 L 173.578125 112.140625 L 173.554688 112.109375 L 173.511719 112.097656 L 173.375 112.09375 L 173.265625 112.066406 L 173.222656 112.0625 L 173.097656 112.082031 L 173.058594 112.082031 L 172.886719 112.039062 L 172.800781 112 L 172.730469 111.941406 L 172.691406 111.929688 L 172.453125 111.902344 L 172.417969 111.886719 L 172.390625 111.867188 L 172.261719 111.816406 L 171.90625 111.789062 L 171.863281 111.78125 L 171.777344 111.75 L 171.566406 111.730469 L 171.214844 111.65625 L 171.121094 111.660156 L 170.800781 111.726562 L 170.757812 111.746094 L 170.722656 111.765625 L 170.691406 111.796875 L 170.671875 111.84375 L 170.683594 111.886719 L 170.71875 111.914062 L 170.765625 111.921875 L 170.765625 111.9375 L 170.078125 111.878906 L 170.066406 111.863281 L 170.054688 111.800781 L 170.050781 111.789062 L 169.992188 111.785156 L 169.96875 111.777344 L 169.949219 111.757812 L 169.957031 111.792969 L 169.972656 111.804688 L 169.992188 111.8125 L 170.011719 111.824219 L 170.03125 111.855469 L 170.03125 111.871094 L 170.019531 111.886719 L 170.007812 111.875 L 169.980469 111.867188 L 169.921875 111.863281 L 169.898438 111.867188 L 169.878906 111.875 L 169.859375 111.878906 L 169.828125 111.878906 L 169.667969 111.832031 L 169.605469 111.796875 L 169.582031 111.789062 L 169.558594 111.777344 L 169.542969 111.746094 L 169.539062 111.726562 L 169.539062 111.710938 L 169.550781 111.703125 L 169.582031 111.703125 L 169.550781 111.679688 L 169.507812 111.664062 L 169.417969 111.65625 L 169.4375 111.6875 L 169.464844 111.722656 L 169.496094 111.746094 L 169.527344 111.757812 L 169.492188 111.769531 L 169.445312 111.761719 L 169.21875 111.691406 L 169.179688 111.6875 L 169.128906 111.6875 L 169.089844 111.695312 L 169.058594 111.707031 L 168.953125 111.785156 L 168.875 111.824219 L 168.785156 111.839844 L 168.601562 111.824219 L 168.515625 111.824219 L 168.347656 111.863281 L 168.304688 111.878906 L 168.273438 111.902344 L 168.214844 111.960938 L 168.191406 112.003906 L 168.199219 112.039062 L 168.230469 112.066406 L 168.265625 112.082031 L 168.238281 112.105469 L 168.199219 112.117188 L 167.9375 112.152344 L 167.867188 112.179688 L 167.816406 112.230469 L 167.808594 112.265625 L 167.820312 112.335938 L 167.800781 112.359375 L 167.761719 112.421875 L 167.75 112.429688 L 167.632812 112.492188 L 167.550781 112.519531 L 167.46875 112.535156 L 167.382812 112.539062 L 167.171875 112.5 L 167.097656 112.460938 L 167.054688 112.449219 L 167.011719 112.457031 L 166.929688 112.488281 L 166.859375 112.5 L 166.84375 112.511719 L 166.835938 112.527344 L 166.8125 112.550781 L 166.679688 112.601562 L 166.59375 112.613281 L 166.507812 112.605469 L 166.183594 112.496094 L 166.105469 112.480469 L 165.910156 112.464844 L 165.816406 112.476562 L 165.738281 112.511719 L 165.75 112.511719 L 165.636719 112.539062 L 165.601562 112.554688 L 165.65625 112.5625 L 165.703125 112.597656 L 165.726562 112.640625 L 165.710938 112.6875 L 165.671875 112.699219 L 165.320312 112.640625 L 165.042969 112.675781 L 164.960938 112.710938 L 164.894531 112.761719 L 164.785156 112.890625 L 164.746094 112.925781 L 164.710938 112.9375 L 164.679688 112.945312 L 164.667969 112.957031 L 164.65625 112.976562 L 164.636719 112.996094 L 164.621094 113.003906 L 164.554688 113.027344 L 164.523438 113.046875 L 164.488281 113.078125 L 164.457031 113.113281 L 164.445312 113.152344 L 164.425781 113.144531 L 164.375 113.15625 L 164.296875 113.1875 L 164.148438 113.285156 L 164.09375 113.351562 L 164.121094 113.410156 L 164.121094 113.421875 L 164.085938 113.429688 L 164.035156 113.460938 L 164.003906 113.464844 L 163.972656 113.460938 L 163.941406 113.453125 L 163.914062 113.4375 L 163.789062 113.355469 L 163.757812 113.328125 L 163.722656 113.3125 L 163.40625 113.320312 L 163.378906 113.328125 L 163.34375 113.355469 L 163.316406 113.363281 L 163.296875 113.359375 L 163.28125 113.347656 L 163.273438 113.332031 L 163.265625 113.320312 L 163.164062 113.265625 L 163.011719 113.128906 L 162.910156 113.074219 L 162.878906 113.054688 L 162.847656 113.019531 L 162.8125 112.992188 L 162.765625 112.988281 L 162.71875 113 L 162.679688 113.027344 L 162.660156 113.015625 L 162.644531 113.011719 L 162.628906 113.015625 L 162.609375 113.027344 L 162.617188 113.003906 L 162.734375 112.859375 L 162.746094 112.835938 L 162.734375 112.777344 L 162.703125 112.707031 L 162.664062 112.644531 L 162.625 112.597656 L 162.597656 112.578125 L 162.570312 112.574219 L 162.433594 112.601562 L 162.3125 112.59375 L 162.285156 112.585938 L 162.257812 112.5625 L 162.222656 112.5 L 162.191406 112.480469 L 162.191406 112.464844 L 162.242188 112.457031 L 162.265625 112.425781 L 162.277344 112.382812 L 162.296875 112.332031 L 162.265625 112.351562 L 162.21875 112.421875 L 162.195312 112.4375 L 162.046875 112.429688 L 162.019531 112.429688 L 161.960938 112.449219 L 161.769531 112.476562 L 161.726562 112.503906 L 161.71875 112.519531 L 161.699219 112.523438 L 161.679688 112.519531 L 161.660156 112.511719 L 161.640625 112.484375 L 161.644531 112.464844 L 161.660156 112.4375 L 161.644531 112.367188 L 161.644531 112.347656 L 161.652344 112.324219 L 161.660156 112.316406 L 161.671875 112.308594 L 161.6875 112.289062 L 161.703125 112.246094 L 161.699219 112.214844 L 161.671875 112.140625 L 161.667969 112.097656 L 161.6875 112.078125 L 161.714844 112.0625 L 161.738281 112.023438 L 161.65625 111.910156 L 161.625 111.894531 L 161.507812 111.867188 L 161.320312 111.851562 L 161.140625 111.859375 L 161.109375 111.871094 L 161.09375 111.878906 L 161.019531 111.90625 L 160.988281 111.929688 L 160.96875 111.945312 L 160.953125 111.96875 L 160.921875 111.996094 L 160.914062 112.011719 L 160.910156 112.039062 L 160.914062 112.0625 L 160.925781 112.074219 L 160.9375 112.082031 L 160.953125 112.097656 L 160.980469 112.1875 L 160.980469 112.207031 L 160.984375 112.226562 L 160.964844 112.371094 L 160.972656 112.414062 L 161.007812 112.4375 L 160.96875 112.445312 L 160.921875 112.421875 L 160.875 112.382812 L 160.84375 112.347656 L 160.796875 112.261719 L 160.789062 112.238281 L 160.792969 112.222656 L 160.800781 112.195312 L 160.804688 112.179688 L 160.800781 112.171875 L 160.789062 112.164062 L 160.78125 112.160156 L 160.777344 112.15625 L 160.757812 112.101562 L 160.742188 112.078125 L 160.683594 112.058594 L 160.664062 112.039062 L 160.660156 112.011719 L 160.667969 111.980469 L 160.679688 111.964844 L 160.699219 111.957031 L 160.714844 111.945312 L 160.722656 111.914062 L 160.722656 111.886719 L 160.726562 111.863281 L 160.734375 111.839844 L 160.75 111.816406 L 160.71875 111.820312 L 160.707031 111.824219 L 160.691406 111.832031 L 160.664062 111.792969 L 160.664062 111.761719 L 160.679688 111.734375 L 160.707031 111.703125 L 160.734375 111.660156 L 160.757812 111.585938 L 160.777344 111.539062 L 160.839844 111.492188 L 160.917969 111.496094 L 160.980469 111.484375 L 161.007812 111.40625 L 161 111.363281 L 160.960938 111.308594 L 160.953125 111.28125 L 160.945312 111.238281 L 160.894531 111.046875 L 160.84375 110.953125 L 160.832031 110.914062 L 160.8125 110.902344 L 160.722656 110.804688 L 160.6875 110.785156 L 160.671875 110.769531 L 160.667969 110.75 L 160.667969 110.664062 L 160.660156 110.617188 L 160.648438 110.582031 L 160.597656 110.507812 L 160.542969 110.453125 L 160.328125 110.316406 L 160.347656 110.28125 L 160.335938 110.238281 L 160.285156 110.152344 L 160.261719 110.097656 L 160.210938 110.035156 L 160.207031 110.015625 L 160.1875 109.984375 L 160.097656 109.90625 L 160.0625 109.890625 L 160.023438 109.875 L 159.992188 109.839844 L 159.972656 109.800781 L 159.949219 109.769531 L 160 109.746094 L 160.027344 109.742188 L 160.050781 109.75 L 160.066406 109.773438 L 160.074219 109.796875 L 160.089844 109.816406 L 160.113281 109.832031 L 160.101562 109.855469 L 160.117188 109.871094 L 160.171875 109.910156 L 160.207031 109.957031 L 160.234375 109.984375 L 160.261719 109.992188 L 160.289062 109.976562 L 160.28125 109.953125 L 160.238281 109.910156 L 160.230469 109.894531 L 160.226562 109.855469 L 160.21875 109.84375 L 160.210938 109.835938 L 160.1875 109.835938 L 160.179688 109.832031 L 160.117188 109.769531 L 160.113281 109.75 L 160.117188 109.65625 L 160.113281 109.625 L 160.082031 109.582031 L 160.035156 109.5625 L 159.980469 109.554688 L 159.921875 109.566406 L 159.9375 109.597656 L 159.949219 109.609375 L 159.902344 109.625 L 159.863281 109.652344 L 159.84375 109.628906 L 159.832031 109.609375 L 159.828125 109.589844 L 159.824219 109.574219 L 159.816406 109.554688 L 159.804688 109.535156 L 159.796875 109.511719 L 159.8125 109.476562 L 159.800781 109.460938 L 159.777344 109.398438 L 159.761719 109.335938 L 159.769531 109.316406 L 159.789062 109.292969 L 159.800781 109.265625 L 159.792969 109.242188 L 159.746094 109.183594 L 159.734375 109.179688 L 159.726562 109.171875 L 159.726562 109.152344 L 159.765625 109.152344 L 159.769531 109.144531 L 159.777344 109.140625 L 159.808594 109.113281 L 159.816406 109.109375 L 159.835938 109.105469 L 159.835938 109.097656 L 159.839844 109.085938 L 159.847656 109.054688 L 159.84375 108.988281 L 159.851562 108.960938 L 159.878906 108.941406 L 159.925781 108.925781 L 159.972656 108.914062 L 160.003906 108.917969 L 159.988281 108.933594 L 160.011719 108.964844 L 160.113281 109.050781 L 160.199219 109.082031 L 160.273438 109.0625 L 160.339844 109.015625 L 160.578125 108.792969 L 160.625 108.710938 L 160.65625 108.632812 L 160.699219 108.457031 L 160.707031 108.371094 L 160.699219 108.222656 L 160.6875 108.1875 L 160.664062 108.140625 L 160.675781 108.105469 L 160.722656 108.046875 L 160.730469 107.960938 L 160.652344 107.679688 L 160.632812 107.449219 L 160.597656 107.359375 L 160.585938 107.3125 L 160.589844 107.21875 L 160.585938 107.171875 L 160.566406 107.128906 L 160.539062 107.097656 L 160.515625 107.0625 L 160.503906 107.03125 L 160.503906 106.972656 L 160.460938 106.824219 L 160.429688 106.753906 L 160.378906 106.679688 L 160.289062 106.570312 L 160.273438 106.539062 L 160.269531 106.523438 L 160.179688 106.398438 L 160.085938 106.308594 L 160.070312 106.273438 L 160.058594 106.234375 L 160.027344 106.203125 L 159.960938 106.148438 L 159.882812 106.035156 L 159.828125 105.996094 L 159.808594 105.941406 L 159.785156 105.839844 L 159.757812 105.8125 L 159.679688 105.753906 L 159.660156 105.730469 L 159.648438 105.703125 L 159.542969 105.535156 L 159.53125 105.53125 L 159.511719 105.476562 L 159.503906 105.464844 L 159.480469 105.425781 L 159.4375 105.332031 L 159.417969 105.292969 L 159.277344 105.113281 L 159.167969 104.90625 L 159.140625 104.796875 L 159.117188 104.722656 L 159 104.570312 L 158.949219 104.476562 L 158.957031 104.398438 L 158.90625 104.34375 L 158.796875 104.152344 L 158.777344 104.101562 L 158.742188 104.058594 L 158.613281 103.851562 L 158.605469 103.828125 L 158.597656 103.773438 L 158.582031 103.707031 L 158.574219 103.6875 L 158.570312 103.632812 L 158.464844 103.460938 L 158.4375 103.386719 L 158.429688 103.304688 L 158.382812 103.132812 L 158.261719 102.855469 L 158.246094 102.785156 L 158.242188 102.773438 L 158.234375 102.761719 L 158.226562 102.746094 L 158.21875 102.726562 L 158.21875 102.703125 L 158.167969 102.523438 L 158.179688 102.523438 L 158.167969 102.496094 L 158.167969 102.410156 L 158.117188 102.285156 L 158.117188 102.261719 L 158.09375 102.242188 L 158.078125 102.195312 L 158.070312 102.113281 L 158.011719 101.960938 L 157.996094 101.9375 L 157.921875 101.722656 L 157.914062 101.710938 L 157.875 101.671875 L 157.867188 101.648438 L 157.863281 101.640625 L 157.828125 101.597656 L 157.785156 101.46875 L 157.773438 101.449219 L 157.753906 101.429688 L 157.742188 101.410156 L 157.746094 101.359375 L 157.738281 101.339844 L 157.71875 101.308594 L 157.703125 101.257812 L 157.695312 101.207031 L 157.707031 101.171875 L 157.675781 101.125 L 157.550781 101.015625 L 157.53125 100.992188 L 157.5 100.90625 L 157.484375 100.878906 L 157.394531 100.757812 L 157.261719 100.648438 L 157.242188 100.601562 L 157.21875 100.527344 L 157.210938 100.449219 L 157.214844 100.40625 L 157.207031 100.390625 L 157.191406 100.355469 L 157.1875 100.339844 L 157.179688 100.328125 L 157.164062 100.324219 L 157.144531 100.320312 L 157.132812 100.316406 L 157.089844 100.226562 L 157.058594 100.203125 L 157.007812 100.152344 L 157.003906 100.140625 L 157.023438 100.125 L 157.035156 100.09375 L 157.042969 100.058594 L 157.039062 100.039062 L 157 100.0625 L 156.980469 100.097656 L 156.957031 100.117188 L 156.902344 100.109375 L 156.878906 100.097656 L 156.757812 100 L 156.699219 99.933594 L 156.667969 99.890625 L 156.453125 99.683594 L 156.421875 99.671875 L 156.40625 99.65625 L 156.285156 99.5 L 156.15625 99.359375 L 155.894531 99.175781 L 155.84375 99.125 L 155.742188 99 L 155.597656 98.890625 L 155.570312 98.859375 L 155.507812 98.765625 L 155.445312 98.699219 L 155.433594 98.683594 L 155.433594 98.660156 L 155.445312 98.613281 L 155.449219 98.59375 L 155.421875 98.527344 L 155.371094 98.457031 L 155.171875 98.265625 L 155.144531 98.226562 L 155.136719 98.175781 L 155.136719 98.0625 L 155.132812 98.046875 L 155.121094 98.019531 L 154.929688 97.726562 L 154.898438 97.65625 L 154.875 97.621094 L 154.84375 97.609375 L 154.824219 97.589844 L 154.765625 97.476562 L 154.6875 97.375 L 154.671875 97.351562 L 154.648438 97.179688 L 154.636719 97.160156 L 154.621094 97.144531 L 154.609375 97.125 L 154.605469 97.101562 L 154.621094 97.011719 L 154.59375 96.871094 L 154.605469 96.839844 L 154.566406 96.761719 L 154.554688 96.722656 L 154.550781 96.671875 L 154.550781 96.582031 L 154.542969 96.539062 L 154.511719 96.503906 L 154.496094 96.496094 L 154.460938 96.496094 L 154.441406 96.488281 L 154.425781 96.457031 L 154.410156 96.4375 L 154.402344 96.4375 L 154.398438 96.390625 L 154.382812 96.347656 L 154.320312 96.21875 L 154.308594 96.183594 L 154.320312 96.125 L 154.296875 96.082031 L 154.269531 96.039062 L 154.253906 96.003906 L 154.25 95.953125 L 154.253906 95.910156 L 154.269531 95.878906 L 154.300781 95.867188 L 154.320312 95.863281 L 154.339844 95.855469 L 154.355469 95.855469 L 154.359375 95.875 L 154.359375 95.960938 L 154.375 95.960938 L 154.382812 95.917969 L 154.421875 95.804688 L 154.421875 95.78125 L 154.410156 95.753906 L 154.371094 95.621094 L 154.34375 95.492188 L 154.296875 95.414062 L 154.230469 95.347656 L 154.15625 95.296875 L 154.039062 95.25 L 154.019531 95.230469 L 154.007812 95.0625 L 154.015625 94.898438 L 153.972656 94.839844 L 153.96875 94.824219 L 153.976562 94.800781 L 153.988281 94.800781 L 154.003906 94.804688 L 154.019531 94.796875 L 154.046875 94.726562 L 154.046875 94.636719 L 154.023438 94.542969 L 153.996094 94.472656 L 153.90625 94.328125 L 153.894531 94.257812 L 153.925781 94.175781 L 153.910156 94.175781 L 153.808594 94.058594 L 153.777344 94 L 153.769531 93.976562 L 153.769531 93.957031 L 153.777344 93.925781 L 153.777344 93.757812 L 153.785156 93.714844 L 153.84375 93.601562 L 153.847656 93.566406 L 153.847656 93.515625 L 153.839844 93.472656 L 153.796875 93.429688 L 153.785156 93.375 L 153.777344 93.277344 L 153.726562 93.148438 L 153.714844 93.046875 L 153.695312 92.96875 L 153.695312 92.925781 L 153.753906 92.765625 L 153.75 92.738281 L 153.789062 92.585938 L 153.796875 92.496094 L 153.777344 92.414062 L 153.75 92.359375 L 153.707031 92.277344 L 153.683594 92.191406 L 153.675781 92.019531 L 153.652344 91.9375 L 153.539062 91.722656 L 153.492188 91.65625 L 153.394531 91.5625 L 153.367188 91.496094 L 153.296875 91.417969 L 153.285156 91.363281 L 153.292969 91.34375 L 153.320312 91.308594 L 153.328125 91.296875 L 153.328125 91.210938 L 153.320312 91.167969 L 153.273438 91.089844 L 153.230469 90.980469 L 153.125 90.773438 L 153.082031 90.625 L 153.042969 90.550781 L 153.03125 90.453125 L 153.015625 90.421875 L 153.027344 90.378906 L 153.023438 90.308594 L 153.015625 90.234375 L 153 90.1875 L 153.015625 90.15625 L 153.027344 90.097656 L 153.042969 90.070312 L 153.054688 90.0625 L 153.074219 90.058594 L 153.089844 90.050781 L 153.097656 90.03125 L 153.125 89.980469 L 153.109375 89.953125 L 153.109375 89.832031 L 153.074219 89.730469 L 153.070312 89.691406 L 153.097656 89.382812 L 153.085938 89.304688 L 153.066406 89.246094 L 152.992188 89.050781 L 152.964844 88.953125 L 152.96875 88.933594 L 152.984375 88.914062 L 153.03125 88.828125 L 153.054688 88.804688 L 153.054688 88.847656 L 153.066406 88.867188 L 153.078125 88.855469 L 153.082031 88.808594 L 153.082031 88.726562 L 153.042969 88.476562 L 153.023438 88.398438 L 152.988281 88.34375 L 152.960938 88.285156 L 152.9375 88.214844 L 152.925781 88.140625 L 152.917969 88 L 152.921875 87.976562 L 152.929688 87.957031 L 152.957031 87.917969 L 152.960938 87.894531 L 152.960938 87.808594 L 152.96875 87.804688 L 152.980469 87.804688 L 152.984375 87.8125 L 152.972656 87.832031 L 152.984375 87.84375 L 152.992188 87.863281 L 153 87.875 L 152.988281 87.917969 L 152.984375 87.960938 L 153 87.984375 L 153.042969 87.960938 L 153.039062 87.988281 L 153.015625 88.050781 L 153.046875 88.023438 L 153.089844 87.9375 L 153.117188 87.917969 L 153.140625 87.898438 L 153.15625 87.847656 L 153.164062 87.75 L 153.152344 87.371094 L 153.113281 87.089844 L 153.066406 87.015625 L 153.046875 86.917969 L 152.972656 86.769531 L 152.933594 86.644531 L 152.871094 86.507812 L 152.859375 86.488281 L 152.730469 86.34375 L 152.6875 86.273438 L 152.6875 86.222656 L 152.683594 86.203125 L 152.378906 85.796875 L 152.226562 85.65625 L 152.210938 85.621094 L 152.046875 85.46875 L 152.011719 85.449219 L 152.011719 85.425781 L 152.019531 85.402344 L 152.023438 85.394531 L 152.035156 85.339844 L 152.035156 85.324219 L 152.03125 85.296875 L 152.023438 85.277344 L 151.863281 85.035156 L 151.832031 84.898438 L 151.769531 84.746094 L 151.566406 84.472656 L 151.445312 84.261719 L 151.367188 84.167969 L 151.316406 84.105469 L 151.140625 83.78125 L 151.058594 83.667969 L 151.03125 83.585938 L 151.003906 83.558594 L 150.949219 83.515625 L 150.910156 83.441406 L 150.890625 83.367188 L 150.867188 83.191406 L 150.816406 83 L 150.640625 82.65625 L 150.59375 82.46875 L 150.585938 82.378906 L 150.542969 82.203125 L 150.472656 82.023438 L 150.429688 81.945312 L 150.347656 81.921875 L 150.261719 81.859375 L 150.195312 81.742188 L 150.132812 81.476562 L 149.976562 81.171875 L 149.960938 81.109375 L 149.875 80.996094 L 149.730469 80.722656 L 149.714844 80.671875 L 149.691406 80.640625 L 149.640625 80.535156 L 149.625 80.511719 L 149.535156 80.347656 L 149.507812 80.28125 L 149.5 80.238281 L 149.484375 80.140625 L 149.464844 80.09375 L 149.398438 80.007812 L 149.359375 79.933594 L 149.261719 79.6875 L 149.222656 79.621094 L 149.164062 79.546875 L 149.089844 79.488281 L 149.070312 79.460938 L 149.046875 79.304688 L 149.03125 79.261719 L 148.707031 78.816406 L 148.484375 78.667969 L 148.386719 78.550781 L 148.375 78.539062 L 148.339844 78.492188 L 148.320312 78.480469 L 148.300781 78.464844 L 148.203125 78.402344 L 148.171875 78.289062 L 148.164062 78.25 L 148.136719 78.1875 L 148.136719 75.503906 L 148.195312 75.488281 L 148.289062 75.476562 L 148.3125 75.46875 L 148.328125 75.46875 L 148.347656 75.480469 L 148.414062 75.503906 L 148.4375 75.5 L 148.449219 75.488281 L 148.457031 75.484375 L 148.476562 75.488281 L 148.488281 75.5 L 148.496094 75.515625 L 148.496094 75.53125 L 148.503906 75.546875 L 148.515625 75.558594 L 148.535156 75.574219 L 148.558594 75.585938 L 148.597656 75.601562 L 148.613281 75.640625 L 148.621094 75.652344 L 148.761719 75.636719 L 148.890625 75.640625 L 148.917969 75.628906 L 148.945312 75.605469 L 148.96875 75.605469 L 149.015625 75.632812 L 149.050781 75.648438 L 149.167969 75.65625 L 149.238281 75.675781 L 149.261719 75.671875 L 149.3125 75.644531 L 149.398438 75.566406 L 149.449219 75.546875 L 149.5 75.542969 L 149.535156 75.519531 L 149.605469 75.460938 L 149.695312 75.414062 L 149.761719 75.394531 L 149.773438 75.375 L 149.789062 75.34375 L 149.808594 75.328125 L 149.824219 75.320312 L 149.859375 75.308594 L 149.875 75.296875 L 149.882812 75.277344 L 149.886719 75.253906 L 149.898438 75.230469 L 149.945312 75.21875 L 149.984375 75.199219 L 150.046875 75.183594 L 150.148438 75.121094 L 150.363281 75.082031 L 150.40625 75.066406 L 150.453125 75.0625 L 150.488281 75.089844 L 150.515625 75.078125 L 150.527344 75.089844 L 150.542969 75.109375 L 150.5625 75.121094 L 150.609375 75.128906 L 150.632812 75.128906 L 150.652344 75.121094 L 150.652344 75.136719 L 150.703125 75.113281 L 150.734375 75.105469 L 150.746094 75.113281 L 150.757812 75.113281 L 150.808594 75.101562 L 150.84375 75.089844 L 150.878906 75.105469 L 150.949219 75.15625 L 150.984375 75.164062 L 151.03125 75.171875 L 151.074219 75.191406 L 151.101562 75.21875 L 151.128906 75.304688 L 151.15625 75.332031 L 151.175781 75.367188 L 151.15625 75.429688 L 151.324219 75.527344 L 151.5 75.675781 L 151.6875 75.789062 L 151.875 75.894531 L 151.898438 75.917969 L 151.992188 76.046875 L 152.019531 76.070312 L 152.066406 76.078125 L 152.089844 76.074219 L 152.121094 76.050781 L 152.140625 76.046875 L 152.164062 76.050781 L 152.199219 76.0625 L 152.242188 76.066406 L 152.273438 76.078125 L 152.296875 76.078125 L 152.320312 76.070312 L 152.351562 76.050781 L 152.363281 76.046875 L 152.453125 76.0625 L 152.496094 76.054688 L 152.515625 76.011719 L 152.515625 76.003906 L 160.921875 76.003906 L 160.9375 76.007812 L 160.941406 76.019531 L 160.949219 76.039062 L 160.960938 76.046875 L 160.972656 76.058594 L 161.007812 76.140625 L 161.007812 76.160156 L 161.015625 76.167969 L 161.0625 76.179688 L 161.128906 76.320312 L 161.136719 76.34375 L 161.164062 76.355469 L 161.265625 76.445312 L 161.273438 76.460938 L 161.285156 76.5 L 161.292969 76.519531 L 161.3125 76.539062 L 161.347656 76.558594 L 161.367188 76.570312 L 161.480469 76.695312 L 161.523438 76.75 L 161.550781 76.773438 L 161.625 76.792969 L 161.804688 76.886719 L 162.0625 76.933594 L 162.230469 76.925781 L 162.296875 76.898438 L 162.339844 76.890625 L 162.363281 76.890625 L 162.421875 76.902344 L 162.511719 76.894531 L 162.542969 76.917969 L 162.855469 77.015625 L 163.195312 77.011719 L 163.308594 76.984375 L 163.355469 76.980469 L 163.394531 76.988281 L 163.414062 77.027344 L 163.433594 77.042969 L 163.472656 77.0625 L 163.519531 77.078125 L 163.550781 77.082031 L 163.558594 77.070312 L 163.582031 77.03125 L 163.597656 77.019531 L 163.910156 77.019531 L 163.984375 77.066406 L 164.054688 77.089844 L 164.074219 77.09375 L 164.1875 77.082031 L 164.242188 77.082031 L 164.269531 77.078125 L 164.296875 77.066406 L 164.3125 77.082031 L 164.339844 77.054688 L 164.386719 77.042969 L 164.441406 77.046875 L 164.488281 77.066406 L 164.554688 77.003906 L 164.578125 77.019531 L 164.605469 77.019531 L 164.671875 77.003906 L 164.695312 77.015625 L 164.773438 77.082031 L 164.824219 77.066406 L 164.871094 77.089844 L 164.917969 77.132812 L 164.957031 77.175781 L 164.976562 77.191406 L 165.042969 77.226562 L 165.101562 77.273438 L 165.125 77.285156 L 165.175781 77.273438 L 165.253906 77.265625 L 165.324219 77.273438 L 165.359375 77.292969 L 165.371094 77.3125 L 165.40625 77.324219 L 165.4375 77.332031 L 165.453125 77.320312 L 165.46875 77.304688 L 165.5 77.3125 L 165.5625 77.34375 L 165.601562 77.382812 L 165.65625 77.378906 L 165.714844 77.359375 L 165.777344 77.34375 L 165.804688 77.289062 L 165.960938 77.242188 L 165.988281 77.234375 L 166.171875 77.183594 L 166.203125 77.199219 L 166.238281 77.191406 L 166.273438 77.175781 L 166.308594 77.167969 L 166.335938 77.171875 L 166.417969 77.167969 L 166.449219 77.175781 L 166.539062 77.226562 L 166.652344 77.269531 L 166.710938 77.300781 L 166.742188 77.34375 L 166.753906 77.347656 L 166.792969 77.335938 L 166.933594 77.308594 L 167.433594 77.210938 L 167.929688 77.109375 L 168.429688 77.011719 L 168.925781 76.910156 L 169.332031 76.828125 L 169.734375 76.746094 L 170.140625 76.664062 L 170.546875 76.578125 L 170.792969 76.53125 L 170.863281 76.515625 L 170.898438 76.515625 L 170.957031 76.5 L 171.042969 76.484375 L 171.128906 76.464844 L 171.210938 76.445312 L 171.296875 76.429688 L 171.46875 76.390625 L 171.550781 76.375 L 171.636719 76.355469 L 171.722656 76.339844 L 171.808594 76.320312 L 171.890625 76.300781 L 171.976562 76.285156 L 172.148438 76.246094 L 172.230469 76.230469 L 172.316406 76.210938 L 172.375 76.199219 L 172.410156 76.195312 L 172.449219 76.203125 L 172.554688 76.207031 L 172.574219 76.21875 L 172.589844 76.210938 L 172.675781 76.1875 L 172.707031 76.179688 L 172.746094 76.1875 L 172.828125 76.21875 L 172.886719 76.230469 L 172.925781 76.25 L 172.976562 76.257812 L 172.992188 76.269531 L 173.003906 76.285156 L 173.023438 76.300781 L 173.054688 76.3125 L 173.070312 76.316406 L 173.089844 76.3125 L 173.109375 76.304688 L 173.140625 76.273438 L 173.164062 76.261719 L 173.171875 76.246094 L 173.1875 76.234375 L 173.207031 76.226562 L 173.296875 76.226562 L 173.464844 76.253906 L 173.476562 76.257812 L 173.484375 76.269531 L 173.5 76.277344 L 173.519531 76.285156 L 173.582031 76.28125 L 173.71875 76.308594 L 173.773438 76.335938 L 173.796875 76.375 L 173.835938 76.355469 L 173.863281 76.371094 L 173.863281 76.375 L 173.886719 76.40625 L 173.917969 76.433594 L 173.9375 76.433594 L 173.972656 76.421875 L 173.996094 76.417969 L 174 76.425781 L 173.988281 76.460938 L 173.988281 76.476562 L 174 76.492188 L 174.011719 76.5 L 174.023438 76.503906 L 174.046875 76.503906 L 174.089844 76.546875 L 174.097656 76.550781 L 174.113281 76.613281 L 174.117188 76.621094 L 174.136719 76.628906 L 174.148438 76.636719 L 174.160156 76.652344 L 174.164062 76.667969 L 174.179688 76.644531 L 174.195312 76.640625 L 174.226562 76.675781 L 174.230469 76.6875 L 174.230469 76.726562 L 174.242188 76.734375 L 174.261719 76.746094 L 174.273438 76.753906 L 174.300781 76.792969 L 174.3125 76.796875 L 174.347656 76.800781 L 174.375 76.808594 L 174.402344 76.824219 L 174.421875 76.847656 L 174.4375 76.875 L 174.449219 76.890625 L 174.488281 76.90625 L 174.546875 76.957031 L 174.585938 76.976562 L 174.605469 76.980469 L 174.667969 76.976562 L 174.734375 77 L 174.753906 77.003906 L 174.902344 77.003906 L 174.914062 77.007812 L 174.933594 77.019531 L 174.945312 77.019531 L 174.957031 77.015625 L 174.972656 76.996094 L 174.984375 76.992188 L 175.117188 76.964844 L 175.222656 76.917969 L 175.273438 76.910156 L 175.296875 76.929688 L 175.320312 76.953125 L 175.394531 76.972656 L 175.441406 76.996094 L 175.480469 77.019531 L 175.496094 77.042969 L 175.515625 77.078125 L 175.605469 77.117188 L 175.632812 77.152344 L 175.601562 77.164062 L 175.597656 77.195312 L 175.613281 77.230469 L 175.632812 77.257812 L 175.753906 77.316406 L 175.863281 77.316406 L 175.972656 77.257812 L 175.984375 77.269531 L 175.996094 77.246094 L 176.027344 77.238281 L 176.066406 77.234375 L 176.09375 77.226562 L 176.09375 77.21875 L 176.089844 77.191406 L 176.09375 77.183594 L 176.105469 77.179688 L 176.140625 77.171875 L 176.171875 77.152344 L 176.21875 77.140625 L 176.238281 77.132812 L 176.308594 77.074219 L 176.324219 77.066406 L 176.34375 77.074219 L 176.355469 77.089844 L 176.367188 77.109375 L 176.378906 77.125 L 176.398438 77.132812 L 176.488281 77.140625 L 176.507812 77.152344 L 176.523438 77.164062 L 176.535156 77.175781 L 176.550781 77.179688 L 176.625 77.167969 L 176.714844 77.1875 L 176.867188 77.273438 L 176.949219 77.300781 L 177.003906 77.308594 L 177.035156 77.324219 L 177.0625 77.34375 L 177.09375 77.382812 L 177.121094 77.40625 L 177.152344 77.421875 L 177.265625 77.460938 L 177.292969 77.464844 L 177.316406 77.457031 L 177.371094 77.402344 L 177.398438 77.386719 L 177.429688 77.378906 L 177.480469 77.375 L 177.664062 77.285156 L 177.714844 77.300781 L 177.785156 77.25 L 177.804688 77.242188 L 177.898438 77.238281 L 177.929688 77.226562 L 177.984375 77.199219 L 178.042969 77.140625 L 178.117188 77.0625 L 178.183594 76.980469 L 178.179688 76.929688 L 178.175781 76.875 L 178.179688 76.851562 L 178.199219 76.820312 L 178.722656 76.253906 L 178.925781 76.058594 L 179.03125 75.949219 L 179.085938 75.839844 L 179.125 75.667969 L 179.160156 75.59375 L 179.429688 75.171875 L 179.507812 75.082031 L 179.609375 75.015625 L 179.917969 74.878906 L 180.097656 74.796875 L 180.292969 74.628906 L 180.425781 74.539062 L 181.148438 74.242188 L 181.242188 74.222656 L 181.296875 74.222656 L 181.324219 74.21875 L 181.378906 74.164062 L 181.394531 74.125 L 181.476562 74.0625 L 181.503906 74.03125 L 181.515625 73.953125 L 181.523438 73.9375 L 181.570312 73.851562 L 181.570312 73.804688 L 181.539062 73.714844 L 181.53125 73.675781 L 181.539062 73.632812 L 181.585938 73.515625 L 181.550781 73.453125 L 181.5625 73.367188 L 181.585938 73.28125 L 181.597656 73.207031 L 181.59375 73.195312 L 181.585938 73.183594 L 181.574219 73.167969 L 181.570312 73.148438 L 181.578125 73.125 L 181.605469 73.082031 L 181.609375 73.066406 L 181.652344 73.007812 L 181.71875 72.941406 L 181.757812 72.921875 L 181.800781 72.914062 L 181.890625 72.914062 L 181.9375 72.902344 L 181.964844 72.878906 L 182.003906 72.792969 L 182.023438 72.769531 L 182.058594 72.742188 L 182.09375 72.71875 L 182.136719 72.707031 L 182.152344 72.695312 L 182.222656 72.617188 L 182.660156 72.40625 L 182.691406 72.398438 L 182.863281 72.382812 L 182.898438 72.359375 L 182.972656 72.292969 L 183.019531 72.28125 L 183.0625 72.285156 L 183.097656 72.296875 L 183.140625 72.300781 L 183.1875 72.296875 L 183.300781 72.253906 L 183.386719 72.242188 L 183.46875 72.203125 L 183.515625 72.191406 L 183.601562 72.199219 L 183.773438 72.25 L 183.859375 72.257812 L 183.9375 72.246094 L 184.015625 72.222656 L 184.09375 72.210938 L 184.175781 72.230469 L 184.226562 72.265625 L 184.25 72.273438 L 184.28125 72.265625 L 184.296875 72.253906 L 184.324219 72.226562 L 184.34375 72.222656 L 184.394531 72.230469 L 184.425781 72.242188 L 184.488281 72.273438 L 184.542969 72.269531 L 184.625 72.238281 L 184.652344 72.226562 L 184.65625 72.21875 L 184.632812 72.15625 L 184.621094 72.140625 L 184.566406 72.078125 L 184.5625 72.046875 L 184.574219 72 L 184.609375 71.925781 L 184.617188 71.902344 L 184.609375 71.882812 L 184.582031 71.839844 L 184.574219 71.816406 L 184.570312 71.675781 L 184.5625 71.632812 L 184.546875 71.589844 L 184.527344 71.554688 L 184.5 71.523438 L 184.472656 71.515625 L 184.410156 71.46875 L 184.359375 71.367188 L 184.285156 71.097656 L 184.277344 71.003906 L 184.277344 70.910156 L 184.261719 70.84375 L 184.261719 70.832031 L 184.296875 70.820312 L 184.46875 70.800781 L 184.617188 70.722656 L 184.800781 70.625 L 185.011719 70.542969 L 185.179688 70.476562 L 185.457031 70.371094 L 185.652344 70.324219 L 185.933594 70.257812 L 185.96875 70.253906 L 186.171875 70.199219 L 186.429688 70.136719 L 186.636719 70.082031 L 186.804688 70.015625 L 186.988281 69.914062 L 187.125 69.835938 L 187.410156 69.738281 L 187.671875 69.648438 L 187.871094 69.578125 L 188.019531 69.503906 L 188.09375 69.480469 L 188.253906 69.449219 L 188.4375 69.382812 L 188.648438 69.308594 L 188.949219 69.199219 L 189.28125 69.078125 L 189.621094 68.957031 L 189.871094 68.867188 L 190.046875 68.804688 L 190.1875 68.75 L 190.296875 68.816406 L 190.34375 68.851562 L 190.363281 68.914062 L 190.355469 69.019531 L 190.363281 69.058594 L 190.414062 69.144531 L 190.429688 69.164062 L 190.457031 69.183594 L 190.476562 69.191406 L 190.488281 69.207031 L 190.496094 69.214844 L 190.523438 69.273438 L 190.558594 69.324219 L 190.65625 69.539062 L 190.695312 69.589844 L 190.71875 69.613281 L 190.804688 69.652344 L 190.828125 69.675781 L 190.84375 69.703125 L 190.851562 69.730469 L 190.871094 69.757812 L 190.894531 69.773438 L 190.945312 69.800781 L 190.96875 69.820312 L 190.984375 69.847656 L 191.011719 69.929688 L 191.027344 69.964844 L 191.042969 69.992188 L 191.066406 70.015625 L 191.101562 70.027344 L 191.121094 70.011719 L 191.125 69.972656 L 191.125 69.898438 L 191.144531 69.835938 L 191.175781 69.789062 L 191.214844 69.773438 L 191.324219 69.859375 L 191.378906 69.867188 L 191.433594 69.84375 L 191.550781 69.769531 L 191.605469 69.753906 L 191.664062 69.757812 L 191.871094 69.785156 L 191.886719 69.773438 L 191.910156 69.71875 L 191.925781 69.699219 L 191.988281 69.667969 L 192.132812 69.664062 L 192.328125 69.589844 L 192.34375 69.589844 L 192.375 69.59375 L 192.390625 69.589844 L 192.421875 69.566406 L 192.433594 69.558594 L 192.453125 69.554688 L 192.507812 69.585938 L 192.523438 69.609375 L 192.550781 69.648438 L 192.617188 69.789062 L 192.664062 69.851562 L 192.765625 69.957031 L 192.796875 70.027344 L 192.800781 70.097656 L 192.773438 70.226562 L 192.792969 70.300781 L 192.824219 70.367188 L 192.847656 70.433594 L 192.859375 70.5 L 192.859375 70.660156 L 192.863281 70.695312 L 192.875 70.738281 L 192.894531 70.773438 L 192.914062 70.804688 L 192.929688 70.835938 L 192.925781 70.871094 L 192.910156 70.90625 L 192.871094 70.964844 L 192.859375 70.992188 L 192.863281 71.023438 L 192.875 71.050781 L 192.878906 71.074219 L 192.863281 71.097656 L 192.859375 71.136719 L 192.878906 71.300781 L 192.898438 71.453125 L 192.890625 71.507812 L 192.855469 71.566406 L 192.828125 71.585938 L 192.800781 71.601562 L 192.777344 71.617188 L 192.753906 71.648438 L 192.746094 71.675781 L 192.734375 71.730469 L 192.722656 71.757812 L 192.683594 71.78125 L 192.644531 71.847656 L 192.609375 71.867188 L 192.582031 71.90625 L 192.582031 71.976562 L 192.601562 72.105469 L 192.59375 72.191406 L 192.570312 72.261719 L 192.449219 72.441406 L 192.425781 72.453125 L 192.386719 72.46875 L 192.351562 72.484375 L 192.316406 72.511719 L 192.261719 72.578125 L 192.238281 72.628906 L 192.230469 72.707031 L 192.234375 72.78125 L 192.253906 72.84375 L 192.277344 72.863281 L 192.34375 72.898438 L 192.375 72.917969 L 192.539062 73.097656 L 192.574219 73.148438 L 192.582031 73.207031 L 192.542969 73.347656 L 192.535156 73.417969 L 192.617188 73.609375 L 192.65625 73.648438 L 192.722656 73.652344 L 192.8125 73.664062 L 192.855469 73.714844 L 192.910156 73.863281 L 192.933594 73.894531 L 192.957031 73.921875 L 193.019531 73.972656 L 193.035156 73.988281 L 193.046875 74.007812 L 193.070312 74.070312 L 193.082031 74.082031 L 193.097656 74.085938 L 193.222656 74.15625 L 193.246094 74.1875 L 193.285156 74.257812 L 193.304688 74.285156 L 193.394531 74.367188 L 193.410156 74.398438 L 193.425781 74.445312 L 193.445312 74.476562 L 193.476562 74.496094 L 193.511719 74.511719 L 193.542969 74.535156 L 193.550781 74.554688 L 193.558594 74.59375 L 193.566406 74.609375 L 193.578125 74.621094 L 193.609375 74.625 L 193.625 74.628906 L 193.652344 74.652344 L 193.667969 74.671875 L 193.703125 74.722656 L 193.761719 74.769531 L 193.820312 74.78125 L 193.878906 74.773438 L 193.945312 74.777344 L 193.988281 74.808594 L 194.007812 74.875 L 194.007812 74.953125 L 194 75.023438 L 193.980469 75.082031 L 193.933594 75.113281 L 193.886719 75.140625 L 193.839844 75.179688 L 193.828125 75.246094 L 193.890625 75.347656 L 193.882812 75.402344 L 193.914062 75.433594 L 194.019531 75.453125 L 194.21875 75.457031 L 194.332031 75.445312 L 194.347656 75.421875 L 194.359375 75.390625 L 194.363281 75.355469 L 194.359375 75.3125 L 194.34375 75.230469 L 194.347656 75.199219 L 194.367188 75.15625 L 194.378906 75.128906 L 194.367188 75.113281 L 194.300781 75.070312 L 194.292969 75.0625 L 194.292969 75.046875 L 194.320312 75.019531 L 194.316406 74.9375 L 194.320312 74.890625 L 194.367188 74.847656 L 194.359375 74.792969 L 194.320312 74.710938 L 194.3125 74.667969 L 194.304688 74.523438 L 194.300781 74.515625 L 194.25 74.460938 L 194.246094 74.453125 L 194.230469 74.449219 L 194.222656 74.441406 L 194.214844 74.429688 L 194.203125 74.410156 L 194.195312 74.398438 L 194.183594 74.390625 L 194.140625 74.375 L 194.121094 74.371094 L 194.097656 74.363281 L 194.089844 74.34375 L 194.078125 74.324219 L 194.046875 74.269531 L 194.015625 74.175781 L 194.039062 74.15625 L 194.179688 74.058594 L 194.207031 74.03125 L 194.21875 73.992188 L 194.214844 73.90625 L 194.222656 73.875 L 194.226562 73.867188 L 194.273438 73.808594 L 194.28125 73.785156 L 194.257812 73.726562 L 194.253906 73.703125 L 194.265625 73.601562 L 194.304688 73.523438 L 194.347656 73.46875 L 194.359375 73.453125 L 194.496094 73.320312 L 194.535156 73.296875 L 194.578125 73.285156 L 194.617188 73.285156 L 194.660156 73.296875 L 194.691406 73.320312 L 194.707031 73.355469 L 194.722656 73.371094 L 194.75 73.386719 L 194.773438 73.386719 L 194.789062 73.367188 L 194.792969 73.335938 L 194.804688 73.320312 L 194.851562 73.316406 L 195.039062 73.257812 L 195.0625 73.253906 L 195.097656 73.261719 L 195.117188 73.261719 L 195.136719 73.25 L 195.28125 73.144531 L 195.3125 73.109375 L 195.328125 73.0625 L 195.332031 73.03125 L 195.320312 72.964844 L 195.320312 72.929688 L 195.332031 72.875 L 195.355469 72.796875 L 195.386719 72.296875 L 195.402344 72.027344 L 195.414062 71.855469 L 195.421875 71.765625 L 195.363281 71.523438 L 195.316406 71.324219 L 195.308594 71.289062 L 195.308594 71.238281 L 195.320312 71.1875 L 195.417969 70.949219 L 195.472656 70.8125 L 195.546875 70.628906 L 195.503906 70.628906 L 195.480469 70.625 L 195.464844 70.605469 L 195.445312 70.15625 L 195.433594 70.117188 L 195.410156 70.085938 L 195.3125 69.984375 L 195.242188 69.886719 L 195.171875 69.792969 L 194.960938 69.515625 L 194.789062 69.285156 L 194.65625 69.015625 L 194.488281 68.800781 L 194.304688 68.574219 L 194.09375 68.304688 L 193.921875 68.085938 L 193.746094 67.917969 L 193.542969 67.722656 L 193.484375 67.683594 L 193.480469 67.679688 L 193.414062 67.65625 L 193.347656 67.644531 L 193.09375 67.648438 L 193.0625 67.640625 L 193.039062 67.628906 L 193.035156 67.621094 L 193.023438 67.585938 L 192.984375 67.507812 L 192.960938 67.476562 L 192.917969 67.433594 L 192.917969 67.429688 L 192.851562 67.273438 L 192.847656 67.097656 L 192.859375 66.914062 L 192.835938 66.699219 L 192.808594 66.441406 L 192.777344 66.140625 L 192.75 65.902344 L 192.640625 65.488281 L 192.523438 65.050781 L 192.476562 64.863281 L 192.472656 64.851562 L 192.480469 64.753906 L 192.523438 64.648438 L 192.738281 64.304688 L 192.886719 64.058594 L 192.96875 63.847656 L 192.984375 63.765625 L 192.988281 63.675781 L 192.976562 63.582031 L 192.972656 63.542969 L 192.992188 63.515625 L 193.0625 63.5 L 193.683594 63.507812 L 194.511719 63.515625 L 194.59375 63.511719 L 194.597656 63.523438 L 194.609375 63.539062 L 194.628906 63.546875 L 194.6875 63.546875 L 194.710938 63.535156 L 194.714844 63.535156 L 194.726562 63.53125 L 194.734375 63.523438 L 194.742188 63.527344 L 194.761719 63.539062 L 194.777344 63.570312 L 194.785156 63.582031 L 194.808594 63.589844 L 194.808594 63.554688 L 194.832031 63.550781 L 194.863281 63.566406 L 194.898438 63.574219 L 194.941406 63.546875 L 194.945312 63.546875 L 195.050781 63.515625 L 195.070312 63.503906 L 195.085938 63.460938 L 195.101562 63.429688 L 195.125 63.402344 L 195.148438 63.382812 L 195.132812 63.335938 L 195.167969 63.3125 L 195.269531 63.292969 L 195.304688 63.265625 L 195.367188 63.183594 L 195.394531 63.164062 L 195.472656 63.179688 L 195.53125 63.203125 L 195.542969 63.207031 L 195.617188 63.207031 L 195.644531 63.222656 L 195.679688 63.265625 L 195.660156 63.3125 L 195.675781 63.355469 L 195.714844 63.375 L 195.753906 63.363281 L 195.78125 63.359375 L 195.824219 63.378906 L 195.894531 63.429688 L 195.914062 63.4375 L 195.957031 63.449219 L 195.976562 63.457031 L 195.992188 63.472656 L 196.007812 63.484375 L 196.019531 63.496094 L 196.039062 63.5 L 196.070312 63.519531 L 196.082031 63.558594 L 196.085938 63.605469 L 196.097656 63.648438 L 196.085938 63.683594 L 196.09375 63.726562 L 196.109375 63.765625 L 196.132812 63.78125 L 196.214844 63.765625 L 196.238281 63.769531 L 196.269531 63.792969 L 196.289062 63.796875 L 196.320312 63.792969 L 196.390625 63.773438 L 196.453125 63.761719 L 196.46875 63.753906 L 196.476562 63.742188 L 196.488281 63.738281 L 196.71875 63.738281 L 196.734375 63.75 L 196.746094 63.800781 L 196.757812 63.8125 L 196.769531 63.816406 L 196.820312 63.84375 L 196.851562 63.847656 L 196.976562 63.824219 L 197.007812 63.8125 L 197.058594 63.808594 L 197.074219 63.796875 L 197.105469 63.765625 L 197.179688 63.738281 L 197.21875 63.707031 L 197.273438 63.621094 L 197.363281 63.507812 L 197.398438 63.496094 L 197.414062 63.503906 L 197.457031 63.507812 L 197.503906 63.542969 L 197.535156 63.546875 L 197.71875 63.53125 L 197.734375 63.523438 L 197.753906 63.507812 L 197.785156 63.488281 L 197.808594 63.554688 L 197.863281 63.625 L 197.929688 63.6875 L 198 63.722656 L 198.167969 63.765625 L 198.257812 63.773438 L 198.328125 63.765625 L 198.347656 63.757812 L 198.363281 63.746094 L 198.378906 63.738281 L 198.394531 63.738281 L 198.417969 63.75 L 198.453125 63.789062 L 198.46875 63.796875 L 198.570312 63.828125 L 198.613281 63.828125 L 198.652344 63.820312 L 198.664062 63.8125 L 198.683594 63.796875 L 198.691406 63.777344 L 198.703125 63.746094 L 198.71875 63.71875 L 198.742188 63.707031 L 198.785156 63.699219 L 198.855469 63.660156 L 198.898438 63.648438 L 198.960938 63.648438 L 199.003906 63.640625 L 199.042969 63.617188 L 199.128906 63.542969 L 199.273438 63.476562 L 199.316406 63.445312 L 199.339844 63.421875 L 199.355469 63.390625 L 199.351562 63.367188 L 199.339844 63.339844 L 199.332031 63.3125 L 199.34375 63.261719 L 199.390625 63.171875 L 199.386719 63.132812 L 199.40625 63.105469 L 199.4375 63.011719 L 199.441406 62.980469 L 199.457031 62.960938 L 199.582031 62.882812 L 199.613281 62.875 L 199.695312 62.871094 L 199.710938 62.867188 L 199.730469 62.84375 L 199.84375 62.824219 L 199.902344 62.824219 L 199.902344 62.820312 L 199.910156 62.816406 L 199.921875 62.8125 L 199.933594 62.8125 L 199.9375 62.816406 L 199.945312 62.835938 L 199.953125 62.839844 L 199.972656 62.847656 L 200.011719 62.878906 L 200.035156 62.882812 L 200.058594 62.878906 L 200.101562 62.859375 L 200.121094 62.855469 L 200.210938 62.871094 L 200.285156 62.921875 L 200.394531 63.046875 L 200.464844 63.082031 L 200.621094 63.125 L 200.679688 63.164062 L 200.730469 63.097656 L 200.925781 62.957031 L 200.96875 62.894531 L 201 62.867188 L 201.058594 62.851562 L 201.101562 62.828125 L 201.121094 62.824219 L 201.144531 62.828125 L 201.1875 62.839844 L 201.210938 62.839844 L 201.246094 62.820312 L 201.324219 62.738281 L 201.351562 62.722656 L 201.394531 62.710938 L 201.429688 62.683594 L 201.480469 62.636719 L 201.546875 62.617188 L 201.808594 62.617188 L 201.875 62.605469 L 201.9375 62.574219 L 201.984375 62.585938 L 202.066406 62.632812 L 202.105469 62.648438 L 202.160156 62.648438 L 202.207031 62.632812 L 202.253906 62.605469 L 202.644531 62.273438 L 202.675781 62.253906 L 202.710938 62.242188 L 202.863281 62.230469 L 203.195312 62.152344 L 203.246094 62.128906 L 203.445312 61.984375 L 203.648438 61.890625 L 203.6875 61.867188 L 203.933594 61.660156 L 203.988281 61.640625 L 204.011719 61.613281 L 204.050781 61.5625 L 204.167969 61.4375 L 204.242188 61.378906 L 204.371094 61.332031 L 204.441406 61.277344 L 204.503906 61.207031 L 204.535156 61.144531 L 204.570312 61.132812 L 204.601562 61.140625 L 204.613281 61.164062 L 204.59375 61.191406 L 204.628906 61.199219 L 204.660156 61.171875 L 204.660156 61.738281 L 204.632812 61.761719 L 204.644531 61.839844 L 204.660156 61.828125 L 204.660156 62.160156 L 204.652344 62.179688 L 204.660156 62.207031 L 204.660156 62.695312 L 204.648438 62.714844 L 204.519531 62.816406 L 204.503906 62.847656 L 204.472656 62.921875 L 204.457031 62.941406 L 204.433594 62.953125 L 204.386719 62.953125 L 204.363281 62.957031 L 204.382812 62.988281 L 204.398438 63.027344 L 204.414062 63.046875 L 204.429688 63 L 204.460938 63.019531 L 204.492188 63.050781 L 204.519531 63.085938 L 204.535156 63.117188 L 204.59375 63.101562 L 204.605469 63.171875 L 204.59375 63.242188 L 204.578125 63.324219 L 204.558594 63.390625 L 204.542969 63.421875 L 204.519531 63.449219 L 204.507812 63.484375 L 204.53125 63.519531 L 204.5625 63.546875 L 204.578125 63.574219 L 204.566406 63.597656 L 204.523438 63.652344 L 204.519531 63.671875 L 204.539062 63.703125 L 204.546875 63.726562 L 204.550781 63.796875 L 204.5625 63.839844 L 204.597656 63.878906 L 204.605469 63.890625 L 204.605469 63.902344 L 204.609375 64.007812 L 204.621094 64.042969 L 204.644531 64.078125 L 204.660156 64.066406 L 204.660156 64.121094 L 204.648438 64.136719 L 204.632812 64.199219 L 204.648438 64.261719 L 204.660156 64.296875 L 204.660156 64.953125 L 204.644531 64.960938 L 204.617188 64.953125 L 204.589844 64.9375 L 204.570312 64.945312 L 204.566406 64.988281 L 204.613281 64.976562 L 204.65625 65.011719 L 204.660156 65.019531 L 204.660156 65.40625 L 204.621094 65.464844 L 204.617188 65.5 L 204.644531 65.535156 L 204.660156 65.542969 L 204.660156 66.316406 L 204.640625 66.3125 L 204.628906 66.316406 L 204.574219 66.347656 L 204.53125 66.378906 L 204.5 66.414062 L 204.484375 66.449219 L 204.488281 66.488281 L 204.5 66.511719 L 204.597656 66.609375 L 204.628906 66.621094 L 204.660156 66.609375 L 204.660156 66.605469 L 204.660156 72 L 204.652344 72.054688 L 204.625 72.09375 L 204.542969 72.152344 L 204.515625 72.191406 L 204.390625 72.40625 L 203.996094 72.835938 L 203.914062 72.890625 L 203.898438 72.910156 L 203.894531 72.933594 L 203.886719 72.960938 L 203.867188 72.96875 L 203.847656 72.972656 L 203.820312 72.980469 L 203.800781 72.996094 L 203.789062 73.015625 L 203.8125 73.039062 L 203.855469 73.015625 L 203.925781 72.941406 L 203.9375 72.988281 L 203.921875 73.027344 L 203.898438 73.0625 L 203.886719 73.101562 L 203.878906 73.15625 L 203.855469 73.191406 L 203.789062 73.25 L 203.707031 73.417969 L 203.65625 73.496094 L 203.585938 73.53125 L 203.460938 73.535156 L 203.421875 73.546875 L 203.300781 73.613281 L 203.242188 73.667969 L 203.234375 73.675781 L 203.238281 73.695312 L 203.253906 73.703125 L 203.273438 73.707031 L 203.277344 73.730469 L 203.273438 73.785156 L 203.273438 73.808594 L 203.289062 73.855469 L 203.3125 73.894531 L 203.347656 73.921875 L 203.382812 73.941406 L 203.292969 74.003906 L 203.261719 74.015625 L 203.257812 74 L 203.25 73.972656 L 203.246094 73.957031 L 203.207031 73.972656 L 203.167969 73.972656 L 203.175781 73.980469 L 203.195312 74.003906 L 203.207031 74.015625 L 203.152344 74.035156 L 203.132812 74.050781 L 203.113281 74.074219 L 203.113281 74.078125 L 203.117188 74.09375 L 203.113281 74.109375 L 203.105469 74.125 L 203.070312 74.164062 L 203.03125 74.191406 L 202.949219 74.242188 L 202.890625 74.292969 L 202.8125 74.316406 L 202.792969 74.332031 L 202.742188 74.386719 L 202.394531 74.574219 L 202.09375 74.773438 L 202.058594 74.804688 L 202.007812 74.882812 L 201.980469 74.902344 L 201.941406 74.882812 L 201.941406 74.925781 L 201.921875 74.957031 L 201.886719 74.976562 L 201.847656 74.988281 L 201.882812 75 L 201.910156 74.992188 L 201.929688 74.992188 L 201.929688 75.03125 L 201.917969 75.070312 L 201.894531 75.105469 L 201.867188 75.132812 L 201.835938 75.148438 L 201.761719 75.15625 L 201.695312 75.152344 L 201.628906 75.160156 L 201.511719 75.242188 L 201.441406 75.265625 L 201.128906 75.296875 L 201.097656 75.285156 L 201.050781 75.234375 L 201.019531 75.222656 L 201.0625 75.285156 L 201.027344 75.332031 L 200.953125 75.359375 L 200.882812 75.371094 L 200.894531 75.332031 L 200.800781 75.429688 L 200.769531 75.429688 L 200.746094 75.414062 L 200.734375 75.398438 L 200.71875 75.394531 L 200.703125 75.40625 L 200.695312 75.421875 L 200.695312 75.441406 L 200.707031 75.460938 L 200.144531 75.691406 L 200.121094 75.710938 L 200.074219 75.765625 L 200.046875 75.785156 L 200.011719 75.785156 L 199.976562 75.734375 L 199.972656 75.589844 L 199.945312 75.546875 L 199.957031 75.59375 L 199.933594 75.601562 L 199.910156 75.601562 L 199.863281 75.578125 L 199.890625 75.621094 L 199.9375 75.671875 L 199.960938 75.71875 L 199.917969 75.753906 L 199.957031 75.785156 L 199.910156 75.820312 L 199.78125 75.871094 L 199.523438 75.929688 L 199.414062 75.992188 L 199.15625 76.175781 L 199.136719 76.179688 L 199.140625 76.148438 L 199.09375 76.171875 L 199.019531 76.238281 L 198.941406 76.292969 L 198.871094 76.285156 L 198.824219 76.339844 L 198.566406 76.496094 L 198.515625 76.554688 L 198.484375 76.574219 L 198.457031 76.582031 L 198.4375 76.566406 L 198.402344 76.613281 L 198.382812 76.632812 L 198.355469 76.636719 L 198.300781 76.640625 L 198.28125 76.652344 L 198.273438 76.679688 L 198.25 76.714844 L 198.199219 76.75 L 198.140625 76.769531 L 198.097656 76.753906 L 198.085938 76.835938 L 198.03125 76.910156 L 197.890625 77.035156 L 197.746094 77.285156 L 197.6875 77.34375 L 197.6875 77.328125 L 197.675781 77.285156 L 197.660156 77.300781 L 197.644531 77.273438 L 197.625 77.25 L 197.605469 77.234375 L 197.578125 77.222656 L 197.550781 77.199219 L 197.542969 77.171875 L 197.546875 77.140625 L 197.539062 77.109375 L 197.496094 77.0625 L 197.441406 77.039062 L 197.386719 77.054688 L 197.363281 77.109375 L 197.425781 77.066406 L 197.46875 77.101562 L 197.496094 77.171875 L 197.511719 77.242188 L 197.523438 77.320312 L 197.535156 77.347656 L 197.601562 77.363281 L 197.625 77.378906 L 197.648438 77.398438 L 197.675781 77.417969 L 197.613281 77.535156 L 197.585938 77.574219 L 197.535156 77.628906 L 197.519531 77.660156 L 197.511719 77.699219 L 197.496094 77.722656 L 197.460938 77.71875 L 197.414062 77.703125 L 197.375 77.699219 L 197.347656 77.71875 L 197.324219 77.75 L 197.292969 77.816406 L 197.332031 77.800781 L 197.390625 77.757812 L 197.417969 77.742188 L 197.394531 77.789062 L 197.257812 77.960938 L 197.175781 78.03125 L 196.988281 78.257812 L 196.898438 78.347656 L 196.832031 78.363281 L 196.816406 78.449219 L 196.804688 78.480469 L 196.792969 78.46875 L 196.75 78.449219 L 196.757812 78.492188 L 196.765625 78.507812 L 196.738281 78.503906 L 196.703125 78.503906 L 196.675781 78.511719 L 196.675781 78.53125 L 196.6875 78.554688 L 196.679688 78.582031 L 196.640625 78.625 L 196.566406 78.796875 L 196.535156 78.847656 L 196.539062 78.816406 L 196.535156 78.796875 L 196.523438 78.792969 L 196.507812 78.800781 L 196.5 78.820312 L 196.492188 78.867188 L 196.476562 78.910156 L 196.492188 78.917969 L 196.511719 78.90625 L 196.507812 78.890625 L 196.515625 78.894531 L 196.527344 78.902344 L 196.535156 78.90625 L 196.535156 78.933594 L 196.5625 78.984375 L 196.546875 79.003906 L 196.511719 79.015625 L 196.484375 79.03125 L 196.449219 79.046875 L 196.402344 79.03125 L 196.359375 79.007812 L 196.324219 78.992188 L 196.277344 78.945312 L 196.210938 78.808594 L 196.207031 78.875 L 196.25 79.023438 L 196.261719 79.101562 L 196.234375 79.171875 L 196.25 79.175781 L 196.261719 79.1875 L 196.269531 79.203125 L 196.273438 79.222656 L 196.265625 79.230469 L 196.25 79.226562 L 196.222656 79.214844 L 196.15625 79.226562 L 196.097656 79.246094 L 196.027344 79.253906 L 196 79.222656 L 195.988281 79.097656 L 195.992188 79.082031 L 196 79.0625 L 196 79.046875 L 195.984375 79.039062 L 195.964844 79.039062 L 195.953125 79.050781 L 195.894531 79.117188 L 195.796875 79.261719 L 195.757812 79.296875 L 195.691406 79.304688 L 195.703125 79.261719 L 195.695312 79.238281 L 195.675781 79.234375 L 195.652344 79.257812 L 195.640625 79.289062 L 195.632812 79.328125 L 195.621094 79.367188 L 195.597656 79.390625 L 195.554688 79.402344 L 195.53125 79.382812 L 195.511719 79.359375 L 195.484375 79.347656 L 195.46875 79.351562 L 195.449219 79.363281 L 195.4375 79.378906 L 195.433594 79.398438 L 195.441406 79.421875 L 195.453125 79.417969 L 195.472656 79.40625 L 195.484375 79.40625 L 195.472656 79.441406 L 195.1875 79.644531 L 195.171875 79.664062 L 195.140625 79.710938 L 195.121094 79.730469 L 195.09375 79.722656 L 195.066406 79.75 L 195.023438 79.832031 L 195.039062 79.824219 L 195.050781 79.820312 L 195.078125 79.816406 L 195.078125 79.832031 L 195.023438 79.863281 L 194.972656 79.90625 L 194.875 80.007812 L 194.914062 80.007812 L 194.898438 80.039062 L 194.808594 80.144531 L 194.796875 80.152344 L 194.773438 80.15625 L 194.753906 80.164062 L 194.75 80.183594 L 194.742188 80.203125 L 194.730469 80.222656 L 194.628906 80.363281 L 194.425781 80.585938 L 194.195312 80.777344 L 194.003906 80.980469 L 193.9375 81.011719 L 193.886719 81.027344 L 193.777344 81.140625 L 193.71875 81.1875 L 193.699219 81.164062 L 193.679688 81.183594 L 193.625 81.25 L 193.515625 81.320312 L 193.453125 81.296875 L 193.4375 81.28125 L 193.421875 81.25 L 193.410156 81.1875 L 193.402344 81.15625 L 193.371094 81.132812 L 193.289062 81.054688 L 193.191406 81.019531 L 193.171875 81.003906 L 193.09375 80.882812 L 193.074219 80.863281 L 193.046875 80.847656 L 193.03125 80.816406 L 193.023438 80.777344 L 193.011719 80.746094 L 192.992188 80.734375 L 192.960938 80.71875 L 192.925781 80.707031 L 192.898438 80.703125 L 192.867188 80.71875 L 192.847656 80.777344 L 192.824219 80.789062 L 192.824219 80.804688 L 192.851562 80.804688 L 192.890625 80.769531 L 192.925781 80.761719 L 192.960938 80.765625 L 192.988281 80.78125 L 193.007812 80.804688 L 193.019531 80.871094 L 193.039062 80.90625 L 193.144531 81.0625 L 193.15625 81.070312 L 193.175781 81.078125 L 193.210938 81.085938 L 193.226562 81.09375 L 193.242188 81.109375 L 193.257812 81.144531 L 193.304688 81.199219 L 193.3125 81.21875 L 193.304688 81.273438 L 193.273438 81.332031 L 193.226562 81.371094 L 193.175781 81.367188 L 193.183594 81.402344 L 193.199219 81.402344 L 193.222656 81.386719 L 193.246094 81.378906 L 193.28125 81.390625 L 193.289062 81.40625 L 193.273438 81.46875 L 193.273438 81.503906 L 193.285156 81.574219 L 193.289062 81.601562 L 193.285156 81.617188 L 193.28125 81.628906 L 193.265625 81.652344 L 193.253906 81.671875 L 193.257812 81.691406 L 193.265625 81.707031 L 193.273438 81.726562 L 193.269531 81.773438 L 193.273438 81.792969 L 193.277344 81.808594 L 193.296875 81.839844 L 193.300781 81.875 L 193.3125 81.90625 L 193.3125 81.925781 L 193.308594 81.941406 L 193.292969 81.960938 L 193.289062 81.976562 L 193.269531 82.003906 L 193.230469 81.992188 L 193.171875 81.953125 L 193.136719 81.960938 L 193.109375 81.976562 L 193.085938 81.972656 L 193.070312 81.941406 L 193.074219 81.957031 L 193.070312 81.96875 L 193.070312 81.984375 L 193.101562 82.019531 L 193.246094 82.101562 L 193.246094 82.113281 L 193.226562 82.132812 L 193.214844 82.160156 L 193.199219 82.1875 L 193.179688 82.261719 L 193.171875 82.285156 L 193.128906 82.328125 L 193.117188 82.359375 L 193.164062 82.394531 L 193.15625 82.417969 L 193.125 82.441406 L 193.097656 82.449219 L 193.074219 82.445312 L 193.039062 82.421875 L 193.046875 82.453125 L 193.058594 82.488281 L 193.070312 82.515625 L 193.089844 82.535156 L 193.113281 82.554688 L 193.15625 82.5625 L 193.175781 82.574219 L 193.183594 82.585938 L 193.191406 82.617188 L 193.195312 82.65625 L 193.183594 82.683594 L 193.105469 82.75 L 193.097656 82.777344 L 193.164062 82.742188 L 193.207031 82.730469 L 193.238281 82.742188 L 193.242188 82.796875 L 193.257812 82.820312 L 193.289062 82.792969 L 193.304688 82.839844 L 193.332031 82.859375 L 193.363281 82.875 L 193.402344 82.902344 L 193.421875 82.929688 L 193.4375 82.957031 L 193.445312 82.992188 L 193.449219 83.035156 L 193.460938 83.054688 L 193.515625 83.015625 L 193.542969 83.03125 L 193.539062 83.0625 L 193.515625 83.085938 L 193.492188 83.105469 L 193.5 83.148438 L 193.511719 83.128906 L 193.527344 83.117188 L 193.546875 83.109375 L 193.570312 83.101562 L 193.664062 83.109375 L 193.675781 83.128906 L 193.742188 83.183594 L 193.75 83.203125 L 193.75 83.234375 L 193.746094 83.292969 L 193.769531 83.28125 L 193.785156 83.28125 L 193.796875 83.296875 L 193.800781 83.320312 L 193.792969 83.335938 L 193.765625 83.367188 L 193.761719 83.390625 L 193.773438 83.425781 L 193.832031 83.484375 L 193.855469 83.515625 L 193.84375 83.539062 L 193.832031 83.570312 L 193.828125 83.597656 L 193.828125 83.632812 L 193.882812 83.585938 L 193.910156 83.578125 L 193.953125 83.601562 L 193.964844 83.613281 L 193.96875 83.621094 L 193.96875 83.628906 L 193.976562 83.648438 L 193.976562 83.664062 L 193.96875 83.675781 L 193.96875 83.6875 L 193.992188 83.691406 L 193.96875 83.761719 L 193.953125 83.78125 L 193.929688 83.765625 L 193.90625 83.765625 L 193.890625 83.777344 L 193.882812 83.800781 L 193.890625 83.816406 L 193.902344 83.820312 L 193.917969 83.820312 L 193.925781 83.824219 L 193.925781 83.835938 L 193.921875 83.855469 L 193.925781 83.914062 L 193.910156 83.945312 L 193.882812 83.964844 L 193.847656 83.972656 L 193.835938 83.964844 L 193.820312 83.949219 L 193.804688 83.945312 L 193.789062 83.972656 L 193.785156 84.003906 L 193.796875 84.015625 L 193.816406 84.027344 L 193.847656 84.046875 L 193.855469 84.046875 L 193.863281 84.050781 L 193.867188 84.058594 L 193.871094 84.070312 L 193.867188 84.082031 L 193.859375 84.09375 L 193.855469 84.089844 L 193.859375 84.113281 L 193.859375 84.132812 L 193.863281 84.148438 L 193.882812 84.164062 L 193.871094 84.1875 L 193.886719 84.199219 L 193.90625 84.207031 L 193.925781 84.222656 L 193.929688 84.253906 L 193.914062 84.265625 L 193.890625 84.269531 L 193.867188 84.28125 L 193.847656 84.308594 L 193.855469 84.316406 L 193.878906 84.320312 L 193.898438 84.339844 L 193.902344 84.363281 L 193.898438 84.457031 L 193.945312 84.402344 L 194.003906 84.148438 L 194.007812 84.183594 L 193.996094 84.324219 L 193.976562 84.386719 L 193.992188 84.574219 L 194.054688 84.738281 L 194.175781 84.949219 L 194.203125 84.984375 L 194.230469 85 L 194.292969 85.148438 L 194.296875 85.238281 L 194.285156 85.425781 L 194.304688 85.519531 L 194.363281 85.652344 L 194.371094 85.6875 L 194.382812 85.824219 L 194.402344 85.925781 L 194.417969 86.105469 L 194.359375 86.65625 L 194.359375 86.746094 L 194.371094 86.800781 L 194.398438 86.824219 L 194.433594 86.839844 L 194.46875 86.859375 L 194.507812 86.929688 L 194.535156 86.960938 L 194.546875 86.9375 L 194.542969 86.84375 L 194.558594 86.8125 L 194.601562 86.785156 L 194.554688 86.707031 L 194.53125 86.601562 L 194.527344 86.496094 L 194.5625 86.417969 L 194.554688 86.398438 L 194.554688 86.382812 L 194.5625 86.367188 L 194.578125 86.355469 L 194.601562 86.421875 L 194.617188 86.433594 L 194.644531 86.398438 L 194.59375 86.308594 L 194.578125 86.296875 L 194.585938 86.273438 L 194.628906 86.210938 L 194.632812 86.199219 L 194.628906 86.183594 L 194.628906 86.167969 L 194.644531 86.160156 L 194.65625 86.15625 L 194.667969 86.148438 L 194.671875 86.144531 L 194.679688 86.117188 L 194.699219 86.109375 L 194.722656 86.113281 L 194.738281 86.121094 L 194.746094 86.140625 L 194.746094 86.164062 L 194.738281 86.21875 L 194.78125 86.578125 L 194.796875 86.542969 L 194.804688 86.503906 L 194.8125 86.386719 L 194.828125 86.332031 L 194.832031 86.296875 L 194.847656 86.296875 L 194.820312 86.5625 L 194.820312 86.605469 L 194.832031 86.746094 L 194.828125 86.792969 L 194.730469 87.125 L 194.722656 87.394531 L 194.785156 87.863281 L 194.820312 87.949219 L 194.839844 87.921875 L 194.84375 87.910156 L 194.847656 87.890625 L 194.882812 87.90625 L 194.914062 87.90625 L 194.929688 87.894531 L 194.914062 87.875 L 194.914062 87.859375 L 194.957031 87.878906 L 194.945312 87.941406 L 194.875 88.089844 L 194.828125 88.152344 L 194.753906 88.34375 L 194.714844 88.40625 L 194.703125 88.441406 L 194.699219 88.484375 L 194.703125 88.53125 L 194.722656 88.609375 L 194.722656 88.652344 L 194.710938 88.742188 L 194.59375 89.09375 L 194.5625 89.375 L 194.5625 89.558594 L 194.558594 89.601562 L 194.546875 89.648438 L 194.527344 89.667969 L 194.507812 89.625 L 194.507812 89.585938 L 194.519531 89.546875 L 194.511719 89.519531 L 194.460938 89.507812 L 194.429688 89.515625 L 194.433594 89.53125 L 194.457031 89.546875 L 194.46875 89.550781 L 194.480469 89.601562 L 194.480469 89.625 L 194.476562 89.667969 L 194.460938 89.75 L 194.453125 89.796875 L 194.457031 89.867188 L 194.449219 89.914062 L 194.433594 89.945312 L 194.425781 89.964844 L 194.429688 89.980469 L 194.4375 90.019531 L 194.441406 90.046875 L 194.4375 90.070312 L 194.417969 90.109375 L 194.414062 90.132812 L 194.429688 90.132812 L 194.523438 90.023438 L 194.492188 89.949219 L 194.488281 89.910156 L 194.507812 89.875 L 194.535156 89.871094 L 194.566406 89.886719 L 194.617188 89.933594 L 194.65625 89.953125 L 194.679688 89.953125 L 194.691406 89.933594 L 194.707031 89.785156 L 194.699219 89.757812 L 194.699219 89.742188 L 194.777344 89.761719 L 194.800781 89.789062 L 194.808594 89.882812 L 194.816406 89.898438 L 194.828125 89.90625 L 194.832031 89.917969 L 194.71875 90.289062 L 194.710938 90.332031 L 194.714844 90.359375 L 194.734375 90.40625 L 194.738281 90.429688 L 194.734375 90.449219 L 194.71875 90.464844 L 194.703125 90.476562 L 194.699219 90.484375 L 194.6875 90.527344 L 194.664062 90.570312 L 194.355469 91.019531 L 194.132812 91.261719 L 194.128906 91.28125 L 194.125 91.3125 L 194.121094 91.332031 L 194.113281 91.351562 L 193.964844 91.496094 L 193.382812 91.804688 L 193.058594 91.957031 L 192.726562 92.039062 L 192.722656 92.042969 L 192.464844 92.152344 L 192.410156 92.167969 L 192.191406 92.257812 L 192.082031 92.277344 L 191.640625 92.4375 L 191.234375 92.585938 L 190.949219 92.734375 L 190.707031 92.816406 L 190.417969 92.976562 L 190.335938 92.996094 L 190.335938 92.984375 L 190.371094 92.96875 L 190.402344 92.945312 L 190.429688 92.921875 L 190.445312 92.894531 L 190.421875 92.902344 L 190.339844 92.941406 L 190.320312 92.960938 L 190.296875 92.980469 L 190.25 92.984375 L 190.210938 93 L 190.226562 93.042969 L 190.238281 93.035156 L 190.265625 93.027344 L 190.238281 93.074219 L 190.191406 93.101562 L 190.089844 93.144531 L 190.050781 93.175781 L 189.535156 93.527344 L 189.480469 93.589844 L 189.375 93.734375 L 189.328125 93.824219 L 189.292969 93.960938 L 189.265625 94.007812 L 189.28125 94.117188 L 189.269531 94.132812 L 189.273438 94.121094 L 189.269531 94.105469 L 189.261719 94.085938 L 189.25 94.085938 L 189.234375 94.105469 L 189.214844 94.117188 L 189.199219 94.128906 L 189.195312 94.152344 L 189.1875 94.214844 L 189.179688 94.238281 L 189.167969 94.261719 L 189.074219 94.351562 L 189.058594 94.375 L 189.046875 94.386719 L 188.996094 94.429688 L 188.976562 94.441406 L 188.953125 94.445312 L 188.9375 94.4375 L 188.894531 94.414062 L 188.863281 94.402344 L 188.828125 94.402344 L 188.796875 94.410156 L 188.765625 94.433594 L 188.75 94.476562 L 188.757812 94.515625 L 188.777344 94.539062 L 188.800781 94.527344 L 188.796875 94.519531 L 188.800781 94.449219 L 188.8125 94.441406 L 188.84375 94.445312 L 188.871094 94.457031 L 188.890625 94.464844 L 188.898438 94.480469 L 188.914062 94.515625 L 188.921875 94.527344 L 188.941406 94.539062 L 188.984375 94.558594 L 189.003906 94.574219 L 189.019531 94.597656 L 189.035156 94.648438 L 189.050781 94.671875 L 189.066406 94.6875 L 189.082031 94.695312 L 189.09375 94.710938 L 189.105469 94.773438 L 189.140625 94.867188 L 189.152344 94.914062 L 189.1875 94.882812 L 189.238281 94.890625 L 189.289062 94.921875 L 189.316406 94.941406 L 189.359375 94.992188 L 189.386719 95.042969 L 189.414062 95.085938 L 189.453125 95.117188 L 189.476562 95.128906 L 189.496094 95.121094 L 189.519531 95.109375 L 189.546875 95.105469 L 189.53125 95.035156 L 189.527344 94.980469 L 189.539062 94.921875 L 189.558594 94.855469 L 189.578125 94.753906 L 189.59375 94.730469 L 189.617188 94.710938 L 189.695312 94.679688 L 189.699219 94.734375 L 189.648438 95.082031 L 189.625 95.679688 L 189.597656 95.839844 L 189.578125 95.890625 L 189.574219 95.914062 L 189.585938 96.003906 L 189.574219 96.171875 L 189.570312 96.195312 L 189.546875 96.253906 L 189.550781 96.273438 L 189.570312 96.304688 L 189.574219 96.328125 L 189.550781 96.414062 Z M 193.097656 64.675781 L 193.136719 64.691406 L 193.183594 64.683594 L 193.222656 64.65625 L 193.253906 64.617188 L 193.277344 64.5625 L 193.28125 64.511719 L 193.265625 64.464844 L 193.234375 64.445312 L 193.191406 64.425781 L 193.148438 64.425781 L 193.121094 64.445312 L 193.085938 64.535156 L 193.070312 64.585938 L 193.070312 64.632812 Z M 192.953125 64.578125 L 192.984375 64.578125 L 193.023438 64.535156 L 193.042969 64.460938 L 193.015625 64.394531 L 192.957031 64.359375 L 192.886719 64.375 L 192.882812 64.378906 L 192.84375 64.410156 L 192.847656 64.449219 L 192.902344 64.511719 L 192.929688 64.550781 Z M 192.953125 64.578125 "/>
<path fill="none" stroke-width="0.75" stroke-linecap="round" stroke-linejoin="round" stroke="rgb(0%, 0%, 0%)" stroke-opacity="1" stroke-miterlimit="10" d="M 204.65625 66.511719 L 204.644531 66.476562 L 204.660156 66.460938 L 204.660156 66.519531 Z M 204.65625 66.511719 "/>
<path fill="none" stroke-width="0.75" stroke-linecap="round" stroke-linejoin="round" stroke="rgb(0%, 0%, 0%)" stroke-opacity="1" stroke-miterlimit="10" d="M 189.75 94.464844 L 189.738281 94.527344 L 189.714844 94.589844 L 189.710938 94.605469 L 189.691406 94.621094 L 189.6875 94.625 L 189.679688 94.617188 L 189.65625 94.605469 L 189.648438 94.59375 L 189.648438 94.578125 L 189.640625 94.570312 L 189.617188 94.574219 L 189.617188 94.582031 L 189.601562 94.632812 L 189.578125 94.570312 L 189.625 94.511719 L 189.695312 94.46875 L 189.753906 94.441406 Z M 189.75 94.464844 "/>
<path fill="none" stroke-width="0.75" stroke-linecap="round" stroke-linejoin="round" stroke="rgb(0%, 0%, 0%)" stroke-opacity="1" stroke-miterlimit="10" d="M 194.738281 84.988281 L 194.726562 85.144531 L 194.65625 85.441406 L 194.617188 85.445312 L 194.601562 85.417969 L 194.601562 85.375 L 194.621094 85.210938 L 194.683594 84.945312 L 194.707031 84.902344 L 194.726562 84.902344 L 194.734375 84.9375 Z M 194.738281 84.988281 "/>
<path fill="none" stroke-width="0.75" stroke-linecap="round" stroke-linejoin="round" stroke="rgb(0%, 0%, 0%)" stroke-opacity="1" stroke-miterlimit="10" d="M 203.484375 73.832031 L 203.488281 73.871094 L 203.476562 73.898438 L 203.429688 73.914062 L 203.386719 73.898438 L 203.335938 73.859375 L 203.308594 73.785156 L 203.316406 73.703125 L 203.335938 73.664062 L 203.394531 73.636719 L 203.492188 73.613281 L 203.558594 73.621094 L 203.5625 73.667969 L 203.554688 73.710938 L 203.5 73.769531 Z M 203.484375 73.832031 "/>
</svg>
