<?xml version="1.0" encoding="UTF-8"?>
<svg xmlns="http://www.w3.org/2000/svg" xmlns:xlink="http://www.w3.org/1999/xlink" width="432pt" height="288pt" viewBox="0 0 432 288" version="1.1">
<defs>
<g>
<symbol overflow="visible" id="glyph0-0">
<path style="stroke:none;" d="M 0.390625 0 L 0.390625 -8.609375 L 7.21875 -8.609375 L 7.21875 0 Z M 6.140625 -1.078125 L 6.140625 -7.53125 L 1.46875 -7.53125 L 1.46875 -1.078125 Z M 6.140625 -1.078125 "/>
</symbol>
<symbol overflow="visible" id="glyph0-1">
<path style="stroke:none;" d="M 3.25 -8.390625 C 4.332031 -8.390625 5.117188 -7.941406 5.609375 -7.046875 C 5.984375 -6.359375 6.171875 -5.410156 6.171875 -4.203125 C 6.171875 -3.066406 6 -2.125 5.65625 -1.375 C 5.164062 -0.300781 4.359375 0.234375 3.234375 0.234375 C 2.234375 0.234375 1.484375 -0.203125 0.984375 -1.078125 C 0.578125 -1.816406 0.375 -2.800781 0.375 -4.03125 C 0.375 -4.976562 0.5 -5.796875 0.75 -6.484375 C 1.207031 -7.753906 2.039062 -8.390625 3.25 -8.390625 Z M 3.234375 -0.734375 C 3.785156 -0.734375 4.222656 -0.972656 4.546875 -1.453125 C 4.867188 -1.941406 5.03125 -2.847656 5.03125 -4.171875 C 5.03125 -5.117188 4.910156 -5.898438 4.671875 -6.515625 C 4.441406 -7.128906 3.988281 -7.4375 3.3125 -7.4375 C 2.6875 -7.4375 2.226562 -7.144531 1.9375 -6.5625 C 1.65625 -5.976562 1.515625 -5.117188 1.515625 -3.984375 C 1.515625 -3.128906 1.609375 -2.441406 1.796875 -1.921875 C 2.078125 -1.128906 2.554688 -0.734375 3.234375 -0.734375 Z M 3.234375 -0.734375 "/>
</symbol>
<symbol overflow="visible" id="glyph0-2">
<path style="stroke:none;" d="M 1.484375 -2.140625 C 1.554688 -1.535156 1.835938 -1.117188 2.328125 -0.890625 C 2.578125 -0.773438 2.863281 -0.71875 3.1875 -0.71875 C 3.8125 -0.71875 4.273438 -0.914062 4.578125 -1.3125 C 4.878906 -1.707031 5.03125 -2.148438 5.03125 -2.640625 C 5.03125 -3.222656 4.847656 -3.675781 4.484375 -4 C 4.128906 -4.320312 3.703125 -4.484375 3.203125 -4.484375 C 2.835938 -4.484375 2.523438 -4.410156 2.265625 -4.265625 C 2.003906 -4.128906 1.785156 -3.9375 1.609375 -3.6875 L 0.6875 -3.734375 L 1.328125 -8.25 L 5.6875 -8.25 L 5.6875 -7.234375 L 2.125 -7.234375 L 1.765625 -4.90625 C 1.960938 -5.050781 2.148438 -5.160156 2.328125 -5.234375 C 2.640625 -5.359375 3 -5.421875 3.40625 -5.421875 C 4.175781 -5.421875 4.828125 -5.171875 5.359375 -4.671875 C 5.898438 -4.179688 6.171875 -3.554688 6.171875 -2.796875 C 6.171875 -2.003906 5.921875 -1.300781 5.421875 -0.6875 C 4.929688 -0.0820312 4.148438 0.21875 3.078125 0.21875 C 2.398438 0.21875 1.796875 0.0234375 1.265625 -0.359375 C 0.742188 -0.742188 0.453125 -1.335938 0.390625 -2.140625 Z M 1.484375 -2.140625 "/>
</symbol>
<symbol overflow="visible" id="glyph0-3">
<path style="stroke:none;" d="M 1.15625 -5.9375 L 1.15625 -6.75 C 1.914062 -6.820312 2.441406 -6.945312 2.734375 -7.125 C 3.035156 -7.300781 3.265625 -7.710938 3.421875 -8.359375 L 4.25 -8.359375 L 4.25 0 L 3.125 0 L 3.125 -5.9375 Z M 1.15625 -5.9375 "/>
</symbol>
<symbol overflow="visible" id="glyph0-4">
<path style="stroke:none;" d="M 0.375 0 C 0.414062 -0.71875 0.566406 -1.34375 0.828125 -1.875 C 1.085938 -2.414062 1.59375 -2.90625 2.34375 -3.34375 L 3.46875 -4 C 3.96875 -4.289062 4.320312 -4.539062 4.53125 -4.75 C 4.851562 -5.070312 5.015625 -5.441406 5.015625 -5.859375 C 5.015625 -6.347656 4.863281 -6.734375 4.5625 -7.015625 C 4.269531 -7.304688 3.882812 -7.453125 3.40625 -7.453125 C 2.675781 -7.453125 2.175781 -7.179688 1.90625 -6.640625 C 1.75 -6.335938 1.664062 -5.929688 1.65625 -5.421875 L 0.578125 -5.421875 C 0.585938 -6.148438 0.722656 -6.742188 0.984375 -7.203125 C 1.441406 -8.015625 2.25 -8.421875 3.40625 -8.421875 C 4.363281 -8.421875 5.0625 -8.160156 5.5 -7.640625 C 5.945312 -7.117188 6.171875 -6.539062 6.171875 -5.90625 C 6.171875 -5.238281 5.9375 -4.664062 5.46875 -4.1875 C 5.195312 -3.90625 4.707031 -3.566406 4 -3.171875 L 3.1875 -2.734375 C 2.8125 -2.523438 2.515625 -2.320312 2.296875 -2.125 C 1.898438 -1.789062 1.648438 -1.414062 1.546875 -1 L 6.140625 -1 L 6.140625 0 Z M 0.375 0 "/>
</symbol>
<symbol overflow="visible" id="glyph0-5">
<path style="stroke:none;" d="M 3.125 0.234375 C 2.125 0.234375 1.398438 -0.0351562 0.953125 -0.578125 C 0.503906 -1.128906 0.28125 -1.796875 0.28125 -2.578125 L 1.390625 -2.578125 C 1.429688 -2.035156 1.53125 -1.640625 1.6875 -1.390625 C 1.96875 -0.953125 2.460938 -0.734375 3.171875 -0.734375 C 3.734375 -0.734375 4.179688 -0.878906 4.515625 -1.171875 C 4.847656 -1.472656 5.015625 -1.859375 5.015625 -2.328125 C 5.015625 -2.898438 4.835938 -3.300781 4.484375 -3.53125 C 4.128906 -3.769531 3.640625 -3.890625 3.015625 -3.890625 C 2.941406 -3.890625 2.867188 -3.882812 2.796875 -3.875 C 2.722656 -3.875 2.648438 -3.875 2.578125 -3.875 L 2.578125 -4.8125 C 2.691406 -4.789062 2.785156 -4.78125 2.859375 -4.78125 C 2.929688 -4.78125 3.007812 -4.78125 3.09375 -4.78125 C 3.488281 -4.78125 3.8125 -4.84375 4.0625 -4.96875 C 4.507812 -5.1875 4.734375 -5.578125 4.734375 -6.140625 C 4.734375 -6.554688 4.582031 -6.875 4.28125 -7.09375 C 3.988281 -7.320312 3.644531 -7.4375 3.25 -7.4375 C 2.550781 -7.4375 2.066406 -7.203125 1.796875 -6.734375 C 1.648438 -6.484375 1.566406 -6.117188 1.546875 -5.640625 L 0.5 -5.640625 C 0.5 -6.265625 0.625 -6.796875 0.875 -7.234375 C 1.300781 -8.015625 2.054688 -8.40625 3.140625 -8.40625 C 3.992188 -8.40625 4.65625 -8.210938 5.125 -7.828125 C 5.59375 -7.453125 5.828125 -6.898438 5.828125 -6.171875 C 5.828125 -5.660156 5.691406 -5.242188 5.421875 -4.921875 C 5.242188 -4.722656 5.019531 -4.566406 4.75 -4.453125 C 5.1875 -4.328125 5.53125 -4.09375 5.78125 -3.75 C 6.03125 -3.40625 6.15625 -2.984375 6.15625 -2.484375 C 6.15625 -1.679688 5.890625 -1.023438 5.359375 -0.515625 C 4.835938 -0.015625 4.09375 0.234375 3.125 0.234375 Z M 3.125 0.234375 "/>
</symbol>
<symbol overflow="visible" id="glyph0-6">
<path style="stroke:none;" d="M 1.03125 -8.609375 L 7 -8.609375 L 7 -7.546875 L 2.1875 -7.546875 L 2.1875 -4.9375 L 6.421875 -4.9375 L 6.421875 -3.921875 L 2.1875 -3.921875 L 2.1875 0 L 1.03125 0 Z M 1.03125 -8.609375 "/>
</symbol>
<symbol overflow="visible" id="glyph0-7">
<path style="stroke:none;" d="M 0.796875 -6.28125 L 1.8125 -6.28125 L 1.8125 -5.1875 C 1.882812 -5.40625 2.082031 -5.664062 2.40625 -5.96875 C 2.726562 -6.269531 3.097656 -6.421875 3.515625 -6.421875 C 3.535156 -6.421875 3.566406 -6.414062 3.609375 -6.40625 C 3.660156 -6.40625 3.742188 -6.398438 3.859375 -6.390625 L 3.859375 -5.28125 C 3.796875 -5.289062 3.738281 -5.296875 3.6875 -5.296875 C 3.632812 -5.296875 3.578125 -5.296875 3.515625 -5.296875 C 2.984375 -5.296875 2.570312 -5.125 2.28125 -4.78125 C 2 -4.445312 1.859375 -4.054688 1.859375 -3.609375 L 1.859375 0 L 0.796875 0 Z M 0.796875 -6.28125 "/>
</symbol>
<symbol overflow="visible" id="glyph0-8">
<path style="stroke:none;" d="M 3.390625 -6.421875 C 3.835938 -6.421875 4.269531 -6.316406 4.6875 -6.109375 C 5.101562 -5.898438 5.421875 -5.628906 5.640625 -5.296875 C 5.847656 -4.972656 5.988281 -4.601562 6.0625 -4.1875 C 6.125 -3.894531 6.15625 -3.429688 6.15625 -2.796875 L 1.546875 -2.796875 C 1.566406 -2.160156 1.71875 -1.648438 2 -1.265625 C 2.28125 -0.878906 2.71875 -0.6875 3.3125 -0.6875 C 3.863281 -0.6875 4.300781 -0.867188 4.625 -1.234375 C 4.8125 -1.441406 4.945312 -1.6875 5.03125 -1.96875 L 6.0625 -1.96875 C 6.039062 -1.738281 5.953125 -1.484375 5.796875 -1.203125 C 5.640625 -0.921875 5.46875 -0.6875 5.28125 -0.5 C 4.957031 -0.1875 4.554688 0.0195312 4.078125 0.125 C 3.828125 0.1875 3.539062 0.21875 3.21875 0.21875 C 2.4375 0.21875 1.773438 -0.0625 1.234375 -0.625 C 0.691406 -1.195312 0.421875 -1.992188 0.421875 -3.015625 C 0.421875 -4.023438 0.691406 -4.84375 1.234375 -5.46875 C 1.785156 -6.101562 2.503906 -6.421875 3.390625 -6.421875 Z M 5.0625 -3.640625 C 5.019531 -4.097656 4.921875 -4.460938 4.765625 -4.734375 C 4.484375 -5.242188 4.003906 -5.5 3.328125 -5.5 C 2.835938 -5.5 2.425781 -5.320312 2.09375 -4.96875 C 1.769531 -4.625 1.597656 -4.179688 1.578125 -3.640625 Z M 3.28125 -6.421875 Z M 3.28125 -6.421875 "/>
</symbol>
<symbol overflow="visible" id="glyph0-9">
<path style="stroke:none;" d="M 1.453125 -3.046875 C 1.453125 -2.503906 1.53125 -2.050781 1.6875 -1.6875 C 1.957031 -1.03125 2.4375 -0.703125 3.125 -0.703125 C 3.863281 -0.703125 4.367188 -1.046875 4.640625 -1.734375 C 4.796875 -2.117188 4.875 -2.601562 4.875 -3.1875 C 4.875 -3.738281 4.789062 -4.191406 4.625 -4.546875 C 4.34375 -5.171875 3.84375 -5.484375 3.125 -5.484375 C 2.664062 -5.484375 2.269531 -5.285156 1.9375 -4.890625 C 1.613281 -4.492188 1.453125 -3.878906 1.453125 -3.046875 Z M 3.015625 -6.421875 C 3.535156 -6.421875 3.972656 -6.289062 4.328125 -6.03125 C 4.523438 -5.882812 4.710938 -5.675781 4.890625 -5.40625 L 4.890625 -6.28125 L 5.890625 -6.28125 L 5.890625 2.5 L 4.828125 2.5 L 4.828125 -0.71875 C 4.648438 -0.4375 4.40625 -0.210938 4.09375 -0.046875 C 3.789062 0.117188 3.40625 0.203125 2.9375 0.203125 C 2.269531 0.203125 1.671875 -0.0546875 1.140625 -0.578125 C 0.617188 -1.109375 0.359375 -1.910156 0.359375 -2.984375 C 0.359375 -3.984375 0.601562 -4.804688 1.09375 -5.453125 C 1.582031 -6.097656 2.222656 -6.421875 3.015625 -6.421875 Z M 3.015625 -6.421875 "/>
</symbol>
<symbol overflow="visible" id="glyph0-10">
<path style="stroke:none;" d="M 1.828125 -6.28125 L 1.828125 -2.109375 C 1.828125 -1.785156 1.878906 -1.523438 1.984375 -1.328125 C 2.171875 -0.953125 2.519531 -0.765625 3.03125 -0.765625 C 3.757812 -0.765625 4.257812 -1.09375 4.53125 -1.75 C 4.675781 -2.101562 4.75 -2.582031 4.75 -3.1875 L 4.75 -6.28125 L 5.796875 -6.28125 L 5.796875 0 L 4.8125 0 L 4.8125 -0.921875 C 4.675781 -0.679688 4.507812 -0.484375 4.3125 -0.328125 C 3.90625 0.00390625 3.414062 0.171875 2.84375 0.171875 C 1.945312 0.171875 1.335938 -0.128906 1.015625 -0.734375 C 0.835938 -1.046875 0.75 -1.472656 0.75 -2.015625 L 0.75 -6.28125 Z M 3.28125 -6.421875 Z M 3.28125 -6.421875 "/>
</symbol>
<symbol overflow="visible" id="glyph0-11">
<path style="stroke:none;" d="M 0.78125 -6.28125 L 1.78125 -6.28125 L 1.78125 -5.390625 C 2.070312 -5.753906 2.382812 -6.015625 2.71875 -6.171875 C 3.050781 -6.335938 3.421875 -6.421875 3.828125 -6.421875 C 4.710938 -6.421875 5.3125 -6.109375 5.625 -5.484375 C 5.800781 -5.140625 5.890625 -4.65625 5.890625 -4.03125 L 5.890625 0 L 4.8125 0 L 4.8125 -3.953125 C 4.8125 -4.335938 4.753906 -4.644531 4.640625 -4.875 C 4.453125 -5.269531 4.113281 -5.46875 3.625 -5.46875 C 3.375 -5.46875 3.171875 -5.441406 3.015625 -5.390625 C 2.722656 -5.304688 2.46875 -5.132812 2.25 -4.875 C 2.070312 -4.664062 1.957031 -4.453125 1.90625 -4.234375 C 1.851562 -4.015625 1.828125 -3.695312 1.828125 -3.28125 L 1.828125 0 L 0.78125 0 Z M 3.25 -6.421875 Z M 3.25 -6.421875 "/>
</symbol>
<symbol overflow="visible" id="glyph0-12">
<path style="stroke:none;" d="M 3.1875 -6.453125 C 3.894531 -6.453125 4.46875 -6.28125 4.90625 -5.9375 C 5.351562 -5.59375 5.625 -5.003906 5.71875 -4.171875 L 4.6875 -4.171875 C 4.625 -4.554688 4.484375 -4.875 4.265625 -5.125 C 4.046875 -5.382812 3.6875 -5.515625 3.1875 -5.515625 C 2.519531 -5.515625 2.039062 -5.1875 1.75 -4.53125 C 1.5625 -4.101562 1.46875 -3.578125 1.46875 -2.953125 C 1.46875 -2.328125 1.597656 -1.796875 1.859375 -1.359375 C 2.128906 -0.929688 2.550781 -0.71875 3.125 -0.71875 C 3.5625 -0.71875 3.90625 -0.851562 4.15625 -1.125 C 4.414062 -1.394531 4.59375 -1.757812 4.6875 -2.21875 L 5.71875 -2.21875 C 5.601562 -1.382812 5.3125 -0.773438 4.84375 -0.390625 C 4.375 -0.00390625 3.773438 0.1875 3.046875 0.1875 C 2.222656 0.1875 1.566406 -0.113281 1.078125 -0.71875 C 0.585938 -1.320312 0.34375 -2.070312 0.34375 -2.96875 C 0.34375 -4.070312 0.609375 -4.925781 1.140625 -5.53125 C 1.679688 -6.144531 2.363281 -6.453125 3.1875 -6.453125 Z M 3.03125 -6.421875 Z M 3.03125 -6.421875 "/>
</symbol>
<symbol overflow="visible" id="glyph0-13">
<path style="stroke:none;" d="M 4.6875 -6.28125 L 5.859375 -6.28125 C 5.710938 -5.875 5.382812 -4.953125 4.875 -3.515625 C 4.488281 -2.441406 4.164062 -1.566406 3.90625 -0.890625 C 3.300781 0.710938 2.875 1.691406 2.625 2.046875 C 2.375 2.398438 1.941406 2.578125 1.328125 2.578125 C 1.179688 2.578125 1.066406 2.566406 0.984375 2.546875 C 0.910156 2.535156 0.8125 2.515625 0.6875 2.484375 L 0.6875 1.53125 C 0.875 1.582031 1.007812 1.613281 1.09375 1.625 C 1.175781 1.632812 1.25 1.640625 1.3125 1.640625 C 1.5 1.640625 1.640625 1.609375 1.734375 1.546875 C 1.828125 1.484375 1.90625 1.40625 1.96875 1.3125 C 1.988281 1.28125 2.054688 1.117188 2.171875 0.828125 C 2.296875 0.535156 2.382812 0.320312 2.4375 0.1875 L 0.125 -6.28125 L 1.3125 -6.28125 L 3 -1.171875 Z M 3 -6.421875 Z M 3 -6.421875 "/>
</symbol>
<symbol overflow="visible" id="glyph1-0">
<path style="stroke:none;" d="M 0 -0.390625 L -8.609375 -0.390625 L -8.609375 -7.21875 L 0 -7.21875 Z M -1.078125 -6.140625 L -7.53125 -6.140625 L -7.53125 -1.46875 L -1.078125 -1.46875 Z M -1.078125 -6.140625 "/>
</symbol>
<symbol overflow="visible" id="glyph1-1">
<path style="stroke:none;" d="M -8.390625 -3.25 C -8.390625 -4.332031 -7.941406 -5.117188 -7.046875 -5.609375 C -6.359375 -5.984375 -5.410156 -6.171875 -4.203125 -6.171875 C -3.066406 -6.171875 -2.125 -6 -1.375 -5.65625 C -0.300781 -5.164062 0.234375 -4.359375 0.234375 -3.234375 C 0.234375 -2.234375 -0.203125 -1.484375 -1.078125 -0.984375 C -1.816406 -0.578125 -2.800781 -0.375 -4.03125 -0.375 C -4.976562 -0.375 -5.796875 -0.5 -6.484375 -0.75 C -7.753906 -1.207031 -8.390625 -2.039062 -8.390625 -3.25 Z M -0.734375 -3.234375 C -0.734375 -3.785156 -0.972656 -4.222656 -1.453125 -4.546875 C -1.941406 -4.867188 -2.847656 -5.03125 -4.171875 -5.03125 C -5.117188 -5.03125 -5.898438 -4.910156 -6.515625 -4.671875 C -7.128906 -4.441406 -7.4375 -3.988281 -7.4375 -3.3125 C -7.4375 -2.6875 -7.144531 -2.226562 -6.5625 -1.9375 C -5.976562 -1.65625 -5.117188 -1.515625 -3.984375 -1.515625 C -3.128906 -1.515625 -2.441406 -1.609375 -1.921875 -1.796875 C -1.128906 -2.078125 -0.734375 -2.554688 -0.734375 -3.234375 Z M -0.734375 -3.234375 "/>
</symbol>
<symbol overflow="visible" id="glyph1-2">
<path style="stroke:none;" d="M -2.140625 -1.484375 C -1.535156 -1.554688 -1.117188 -1.835938 -0.890625 -2.328125 C -0.773438 -2.578125 -0.71875 -2.863281 -0.71875 -3.1875 C -0.71875 -3.8125 -0.914062 -4.273438 -1.3125 -4.578125 C -1.707031 -4.878906 -2.148438 -5.03125 -2.640625 -5.03125 C -3.222656 -5.03125 -3.675781 -4.847656 -4 -4.484375 C -4.320312 -4.128906 -4.484375 -3.703125 -4.484375 -3.203125 C -4.484375 -2.835938 -4.410156 -2.523438 -4.265625 -2.265625 C -4.128906 -2.003906 -3.9375 -1.785156 -3.6875 -1.609375 L -3.734375 -0.6875 L -8.25 -1.328125 L -8.25 -5.6875 L -7.234375 -5.6875 L -7.234375 -2.125 L -4.90625 -1.765625 C -5.050781 -1.960938 -5.160156 -2.148438 -5.234375 -2.328125 C -5.359375 -2.640625 -5.421875 -3 -5.421875 -3.40625 C -5.421875 -4.175781 -5.171875 -4.828125 -4.671875 -5.359375 C -4.179688 -5.898438 -3.554688 -6.171875 -2.796875 -6.171875 C -2.003906 -6.171875 -1.300781 -5.921875 -0.6875 -5.421875 C -0.0820312 -4.929688 0.21875 -4.148438 0.21875 -3.078125 C 0.21875 -2.398438 0.0234375 -1.796875 -0.359375 -1.265625 C -0.742188 -0.742188 -1.335938 -0.453125 -2.140625 -0.390625 Z M -2.140625 -1.484375 "/>
</symbol>
<symbol overflow="visible" id="glyph1-3">
<path style="stroke:none;" d="M -5.9375 -1.15625 L -6.75 -1.15625 C -6.820312 -1.914062 -6.945312 -2.441406 -7.125 -2.734375 C -7.300781 -3.035156 -7.710938 -3.265625 -8.359375 -3.421875 L -8.359375 -4.25 L 0 -4.25 L 0 -3.125 L -5.9375 -3.125 Z M -5.9375 -1.15625 "/>
</symbol>
<symbol overflow="visible" id="glyph1-4">
<path style="stroke:none;" d="M 0 -0.375 C -0.71875 -0.414062 -1.34375 -0.566406 -1.875 -0.828125 C -2.414062 -1.085938 -2.90625 -1.59375 -3.34375 -2.34375 L -4 -3.46875 C -4.289062 -3.96875 -4.539062 -4.320312 -4.75 -4.53125 C -5.070312 -4.851562 -5.441406 -5.015625 -5.859375 -5.015625 C -6.347656 -5.015625 -6.734375 -4.863281 -7.015625 -4.5625 C -7.304688 -4.269531 -7.453125 -3.882812 -7.453125 -3.40625 C -7.453125 -2.675781 -7.179688 -2.175781 -6.640625 -1.90625 C -6.335938 -1.75 -5.929688 -1.664062 -5.421875 -1.65625 L -5.421875 -0.578125 C -6.148438 -0.585938 -6.742188 -0.722656 -7.203125 -0.984375 C -8.015625 -1.441406 -8.421875 -2.25 -8.421875 -3.40625 C -8.421875 -4.363281 -8.160156 -5.0625 -7.640625 -5.5 C -7.117188 -5.945312 -6.539062 -6.171875 -5.90625 -6.171875 C -5.238281 -6.171875 -4.664062 -5.9375 -4.1875 -5.46875 C -3.90625 -5.195312 -3.566406 -4.707031 -3.171875 -4 L -2.734375 -3.1875 C -2.523438 -2.8125 -2.320312 -2.515625 -2.125 -2.296875 C -1.789062 -1.898438 -1.414062 -1.648438 -1 -1.546875 L -1 -6.140625 L 0 -6.140625 Z M 0 -0.375 "/>
</symbol>
<symbol overflow="visible" id="glyph1-5">
<path style="stroke:none;" d="M -2.78125 -1.671875 C -2.289062 -1.703125 -1.894531 -1.816406 -1.59375 -2.015625 C -1.019531 -2.410156 -0.734375 -3.09375 -0.734375 -4.0625 C -0.734375 -4.5 -0.796875 -4.898438 -0.921875 -5.265625 C -1.160156 -5.960938 -1.59375 -6.3125 -2.21875 -6.3125 C -2.6875 -6.3125 -3.019531 -6.160156 -3.21875 -5.859375 C -3.414062 -5.566406 -3.585938 -5.101562 -3.734375 -4.46875 L -4 -3.3125 C -4.164062 -2.539062 -4.351562 -2 -4.5625 -1.6875 C -4.925781 -1.144531 -5.460938 -0.875 -6.171875 -0.875 C -6.953125 -0.875 -7.585938 -1.140625 -8.078125 -1.671875 C -8.578125 -2.203125 -8.828125 -2.957031 -8.828125 -3.9375 C -8.828125 -4.84375 -8.609375 -5.609375 -8.171875 -6.234375 C -7.734375 -6.867188 -7.035156 -7.1875 -6.078125 -7.1875 L -6.078125 -6.09375 C -6.546875 -6.03125 -6.898438 -5.90625 -7.140625 -5.71875 C -7.585938 -5.363281 -7.8125 -4.757812 -7.8125 -3.90625 C -7.8125 -3.21875 -7.664062 -2.722656 -7.375 -2.421875 C -7.09375 -2.117188 -6.757812 -1.96875 -6.375 -1.96875 C -5.957031 -1.96875 -5.648438 -2.144531 -5.453125 -2.5 C -5.328125 -2.726562 -5.171875 -3.25 -4.984375 -4.0625 L -4.703125 -5.28125 C -4.566406 -5.851562 -4.382812 -6.300781 -4.15625 -6.625 C -3.757812 -7.164062 -3.175781 -7.4375 -2.40625 -7.4375 C -1.457031 -7.4375 -0.773438 -7.085938 -0.359375 -6.390625 C 0.046875 -5.703125 0.25 -4.898438 0.25 -3.984375 C 0.25 -2.910156 -0.0195312 -2.070312 -0.5625 -1.46875 C -1.113281 -0.863281 -1.851562 -0.566406 -2.78125 -0.578125 Z M -8.84375 -4.03125 Z M -8.84375 -4.03125 "/>
</symbol>
<symbol overflow="visible" id="glyph1-6">
<path style="stroke:none;" d="M -0.703125 -3.421875 C -0.703125 -3.910156 -0.910156 -4.316406 -1.328125 -4.640625 C -1.742188 -4.972656 -2.359375 -5.140625 -3.171875 -5.140625 C -3.671875 -5.140625 -4.101562 -5.066406 -4.46875 -4.921875 C -5.15625 -4.648438 -5.5 -4.148438 -5.5 -3.421875 C -5.5 -2.691406 -5.132812 -2.191406 -4.40625 -1.921875 C -4.019531 -1.773438 -3.523438 -1.703125 -2.921875 -1.703125 C -2.429688 -1.703125 -2.019531 -1.773438 -1.6875 -1.921875 C -1.03125 -2.191406 -0.703125 -2.691406 -0.703125 -3.421875 Z M -6.25 -0.6875 L -6.25 -1.71875 L -5.421875 -1.71875 C -5.703125 -1.925781 -5.921875 -2.15625 -6.078125 -2.40625 C -6.304688 -2.757812 -6.421875 -3.175781 -6.421875 -3.65625 C -6.421875 -4.375 -6.148438 -4.976562 -5.609375 -5.46875 C -5.066406 -5.96875 -4.289062 -6.21875 -3.28125 -6.21875 C -1.90625 -6.21875 -0.925781 -5.859375 -0.34375 -5.140625 C 0.03125 -4.691406 0.21875 -4.164062 0.21875 -3.5625 C 0.21875 -3.09375 0.113281 -2.695312 -0.09375 -2.375 C -0.21875 -2.1875 -0.421875 -1.976562 -0.703125 -1.75 L 2.5 -1.75 L 2.5 -0.6875 Z M -6.25 -0.6875 "/>
</symbol>
<symbol overflow="visible" id="glyph1-7">
<path style="stroke:none;" d="M -6.421875 -3.390625 C -6.421875 -3.835938 -6.316406 -4.269531 -6.109375 -4.6875 C -5.898438 -5.101562 -5.628906 -5.421875 -5.296875 -5.640625 C -4.972656 -5.847656 -4.601562 -5.988281 -4.1875 -6.0625 C -3.894531 -6.125 -3.429688 -6.15625 -2.796875 -6.15625 L -2.796875 -1.546875 C -2.160156 -1.566406 -1.648438 -1.71875 -1.265625 -2 C -0.878906 -2.28125 -0.6875 -2.71875 -0.6875 -3.3125 C -0.6875 -3.863281 -0.867188 -4.300781 -1.234375 -4.625 C -1.441406 -4.8125 -1.6875 -4.945312 -1.96875 -5.03125 L -1.96875 -6.0625 C -1.738281 -6.039062 -1.484375 -5.953125 -1.203125 -5.796875 C -0.921875 -5.640625 -0.6875 -5.46875 -0.5 -5.28125 C -0.1875 -4.957031 0.0195312 -4.554688 0.125 -4.078125 C 0.1875 -3.828125 0.21875 -3.539062 0.21875 -3.21875 C 0.21875 -2.4375 -0.0625 -1.773438 -0.625 -1.234375 C -1.195312 -0.691406 -1.992188 -0.421875 -3.015625 -0.421875 C -4.023438 -0.421875 -4.84375 -0.691406 -5.46875 -1.234375 C -6.101562 -1.785156 -6.421875 -2.503906 -6.421875 -3.390625 Z M -3.640625 -5.0625 C -4.097656 -5.019531 -4.460938 -4.921875 -4.734375 -4.765625 C -5.242188 -4.484375 -5.5 -4.003906 -5.5 -3.328125 C -5.5 -2.835938 -5.320312 -2.425781 -4.96875 -2.09375 C -4.625 -1.769531 -4.179688 -1.597656 -3.640625 -1.578125 Z M -6.421875 -3.28125 Z M -6.421875 -3.28125 "/>
</symbol>
<symbol overflow="visible" id="glyph1-8">
<path style="stroke:none;" d="M -6.453125 -3.1875 C -6.453125 -3.894531 -6.28125 -4.46875 -5.9375 -4.90625 C -5.59375 -5.351562 -5.003906 -5.625 -4.171875 -5.71875 L -4.171875 -4.6875 C -4.554688 -4.625 -4.875 -4.484375 -5.125 -4.265625 C -5.382812 -4.046875 -5.515625 -3.6875 -5.515625 -3.1875 C -5.515625 -2.519531 -5.1875 -2.039062 -4.53125 -1.75 C -4.101562 -1.5625 -3.578125 -1.46875 -2.953125 -1.46875 C -2.328125 -1.46875 -1.796875 -1.597656 -1.359375 -1.859375 C -0.929688 -2.128906 -0.71875 -2.550781 -0.71875 -3.125 C -0.71875 -3.5625 -0.851562 -3.90625 -1.125 -4.15625 C -1.394531 -4.414062 -1.757812 -4.59375 -2.21875 -4.6875 L -2.21875 -5.71875 C -1.382812 -5.601562 -0.773438 -5.3125 -0.390625 -4.84375 C -0.00390625 -4.375 0.1875 -3.773438 0.1875 -3.046875 C 0.1875 -2.222656 -0.113281 -1.566406 -0.71875 -1.078125 C -1.320312 -0.585938 -2.070312 -0.34375 -2.96875 -0.34375 C -4.070312 -0.34375 -4.925781 -0.609375 -5.53125 -1.140625 C -6.144531 -1.679688 -6.453125 -2.363281 -6.453125 -3.1875 Z M -6.421875 -3.03125 Z M -6.421875 -3.03125 "/>
</symbol>
<symbol overflow="visible" id="glyph1-9">
<path style="stroke:none;" d="M -6.25 -0.78125 L -6.25 -1.84375 L 0 -1.84375 L 0 -0.78125 Z M -8.609375 -0.78125 L -8.609375 -1.84375 L -7.40625 -1.84375 L -7.40625 -0.78125 Z M -8.609375 -0.78125 "/>
</symbol>
<symbol overflow="visible" id="glyph1-10">
<path style="stroke:none;" d="M -1.96875 -1.40625 C -1.613281 -1.4375 -1.34375 -1.523438 -1.15625 -1.671875 C -0.820312 -1.929688 -0.65625 -2.390625 -0.65625 -3.046875 C -0.65625 -3.441406 -0.738281 -3.785156 -0.90625 -4.078125 C -1.070312 -4.378906 -1.332031 -4.53125 -1.6875 -4.53125 C -1.957031 -4.53125 -2.164062 -4.410156 -2.3125 -4.171875 C -2.394531 -4.015625 -2.492188 -3.710938 -2.609375 -3.265625 L -2.8125 -2.421875 C -2.945312 -1.890625 -3.097656 -1.5 -3.265625 -1.25 C -3.546875 -0.789062 -3.941406 -0.5625 -4.453125 -0.5625 C -5.046875 -0.5625 -5.523438 -0.773438 -5.890625 -1.203125 C -6.253906 -1.628906 -6.4375 -2.207031 -6.4375 -2.9375 C -6.4375 -3.875 -6.160156 -4.550781 -5.609375 -4.96875 C -5.253906 -5.238281 -4.875 -5.367188 -4.46875 -5.359375 L -4.46875 -4.359375 C -4.707031 -4.335938 -4.925781 -4.253906 -5.125 -4.109375 C -5.394531 -3.867188 -5.53125 -3.445312 -5.53125 -2.84375 C -5.53125 -2.445312 -5.453125 -2.144531 -5.296875 -1.9375 C -5.148438 -1.738281 -4.953125 -1.640625 -4.703125 -1.640625 C -4.429688 -1.640625 -4.210938 -1.773438 -4.046875 -2.046875 C -3.953125 -2.203125 -3.867188 -2.429688 -3.796875 -2.734375 L -3.625 -3.421875 C -3.4375 -4.179688 -3.257812 -4.691406 -3.09375 -4.953125 C -2.820312 -5.359375 -2.394531 -5.5625 -1.8125 -5.5625 C -1.257812 -5.5625 -0.78125 -5.347656 -0.375 -4.921875 C 0.03125 -4.503906 0.234375 -3.863281 0.234375 -3 C 0.234375 -2.0625 0.0234375 -1.394531 -0.390625 -1 C -0.816406 -0.613281 -1.34375 -0.410156 -1.96875 -0.390625 Z M -6.421875 -2.953125 Z M -6.421875 -2.953125 "/>
</symbol>
</g>
<clipPath id="clip1">
  <path d="M 75 59.039062 L 386 59.039062 L 386 210 L 75 210 Z M 75 59.039062 "/>
</clipPath>
</defs>
<g id="surface129">
<rect x="0" y="0" width="432" height="288" style="fill:rgb(100%,100%,100%);fill-opacity:1;stroke:none;"/>
<path style="fill:none;stroke-width:0.75;stroke-linecap:round;stroke-linejoin:round;stroke:rgb(0%,0%,0%);stroke-opacity:1;stroke-miterlimit:10;" d="M 67.324219 214.558594 L 375.84375 214.558594 "/>
<path style="fill:none;stroke-width:0.75;stroke-linecap:round;stroke-linejoin:round;stroke:rgb(0%,0%,0%);stroke-opacity:1;stroke-miterlimit:10;" d="M 67.324219 214.558594 L 67.324219 221.761719 "/>
<path style="fill:none;stroke-width:0.75;stroke-linecap:round;stroke-linejoin:round;stroke:rgb(0%,0%,0%);stroke-opacity:1;stroke-miterlimit:10;" d="M 111.398438 214.558594 L 111.398438 221.761719 "/>
<path style="fill:none;stroke-width:0.75;stroke-linecap:round;stroke-linejoin:round;stroke:rgb(0%,0%,0%);stroke-opacity:1;stroke-miterlimit:10;" d="M 155.472656 214.558594 L 155.472656 221.761719 "/>
<path style="fill:none;stroke-width:0.75;stroke-linecap:round;stroke-linejoin:round;stroke:rgb(0%,0%,0%);stroke-opacity:1;stroke-miterlimit:10;" d="M 199.546875 214.558594 L 199.546875 221.761719 "/>
<path style="fill:none;stroke-width:0.75;stroke-linecap:round;stroke-linejoin:round;stroke:rgb(0%,0%,0%);stroke-opacity:1;stroke-miterlimit:10;" d="M 243.621094 214.558594 L 243.621094 221.761719 "/>
<path style="fill:none;stroke-width:0.75;stroke-linecap:round;stroke-linejoin:round;stroke:rgb(0%,0%,0%);stroke-opacity:1;stroke-miterlimit:10;" d="M 287.695312 214.558594 L 287.695312 221.761719 "/>
<path style="fill:none;stroke-width:0.75;stroke-linecap:round;stroke-linejoin:round;stroke:rgb(0%,0%,0%);stroke-opacity:1;stroke-miterlimit:10;" d="M 331.769531 214.558594 L 331.769531 221.761719 "/>
<path style="fill:none;stroke-width:0.75;stroke-linecap:round;stroke-linejoin:round;stroke:rgb(0%,0%,0%);stroke-opacity:1;stroke-miterlimit:10;" d="M 375.84375 214.558594 L 375.84375 221.761719 "/>
<g style="fill:rgb(0%,0%,0%);fill-opacity:1;">
  <use xlink:href="#glyph0-1" x="63.988281" y="240.480469"/>
</g>
<g style="fill:rgb(0%,0%,0%);fill-opacity:1;">
  <use xlink:href="#glyph0-2" x="108.0625" y="240.480469"/>
</g>
<g style="fill:rgb(0%,0%,0%);fill-opacity:1;">
  <use xlink:href="#glyph0-3" x="148.800781" y="240.480469"/>
  <use xlink:href="#glyph0-1" x="155.474609" y="240.480469"/>
</g>
<g style="fill:rgb(0%,0%,0%);fill-opacity:1;">
  <use xlink:href="#glyph0-3" x="192.875" y="240.480469"/>
  <use xlink:href="#glyph0-2" x="199.548828" y="240.480469"/>
</g>
<g style="fill:rgb(0%,0%,0%);fill-opacity:1;">
  <use xlink:href="#glyph0-4" x="236.949219" y="240.480469"/>
  <use xlink:href="#glyph0-1" x="243.623047" y="240.480469"/>
</g>
<g style="fill:rgb(0%,0%,0%);fill-opacity:1;">
  <use xlink:href="#glyph0-4" x="281.023438" y="240.480469"/>
  <use xlink:href="#glyph0-2" x="287.697266" y="240.480469"/>
</g>
<g style="fill:rgb(0%,0%,0%);fill-opacity:1;">
  <use xlink:href="#glyph0-5" x="325.097656" y="240.480469"/>
  <use xlink:href="#glyph0-1" x="331.771484" y="240.480469"/>
</g>
<g style="fill:rgb(0%,0%,0%);fill-opacity:1;">
  <use xlink:href="#glyph0-5" x="369.171875" y="240.480469"/>
  <use xlink:href="#glyph0-2" x="375.845703" y="240.480469"/>
</g>
<path style="fill:none;stroke-width:0.75;stroke-linecap:round;stroke-linejoin:round;stroke:rgb(0%,0%,0%);stroke-opacity:1;stroke-miterlimit:10;" d="M 59.039062 208.800781 L 59.039062 80.230469 "/>
<path style="fill:none;stroke-width:0.75;stroke-linecap:round;stroke-linejoin:round;stroke:rgb(0%,0%,0%);stroke-opacity:1;stroke-miterlimit:10;" d="M 59.039062 208.800781 L 51.839844 208.800781 "/>
<path style="fill:none;stroke-width:0.75;stroke-linecap:round;stroke-linejoin:round;stroke:rgb(0%,0%,0%);stroke-opacity:1;stroke-miterlimit:10;" d="M 59.039062 183.085938 L 51.839844 183.085938 "/>
<path style="fill:none;stroke-width:0.75;stroke-linecap:round;stroke-linejoin:round;stroke:rgb(0%,0%,0%);stroke-opacity:1;stroke-miterlimit:10;" d="M 59.039062 157.371094 L 51.839844 157.371094 "/>
<path style="fill:none;stroke-width:0.75;stroke-linecap:round;stroke-linejoin:round;stroke:rgb(0%,0%,0%);stroke-opacity:1;stroke-miterlimit:10;" d="M 59.039062 131.65625 L 51.839844 131.65625 "/>
<path style="fill:none;stroke-width:0.75;stroke-linecap:round;stroke-linejoin:round;stroke:rgb(0%,0%,0%);stroke-opacity:1;stroke-miterlimit:10;" d="M 59.039062 105.941406 L 51.839844 105.941406 "/>
<path style="fill:none;stroke-width:0.75;stroke-linecap:round;stroke-linejoin:round;stroke:rgb(0%,0%,0%);stroke-opacity:1;stroke-miterlimit:10;" d="M 59.039062 80.230469 L 51.839844 80.230469 "/>
<g style="fill:rgb(0%,0%,0%);fill-opacity:1;">
  <use xlink:href="#glyph1-1" x="41.761719" y="212.136719"/>
</g>
<g style="fill:rgb(0%,0%,0%);fill-opacity:1;">
  <use xlink:href="#glyph1-2" x="41.761719" y="186.421875"/>
</g>
<g style="fill:rgb(0%,0%,0%);fill-opacity:1;">
  <use xlink:href="#glyph1-3" x="41.761719" y="164.042969"/>
  <use xlink:href="#glyph1-1" x="41.761719" y="157.369141"/>
</g>
<g style="fill:rgb(0%,0%,0%);fill-opacity:1;">
  <use xlink:href="#glyph1-3" x="41.761719" y="138.328125"/>
  <use xlink:href="#glyph1-2" x="41.761719" y="131.654297"/>
</g>
<g style="fill:rgb(0%,0%,0%);fill-opacity:1;">
  <use xlink:href="#glyph1-4" x="41.761719" y="112.613281"/>
  <use xlink:href="#glyph1-1" x="41.761719" y="105.939453"/>
</g>
<g style="fill:rgb(0%,0%,0%);fill-opacity:1;">
  <use xlink:href="#glyph1-4" x="41.761719" y="86.902344"/>
  <use xlink:href="#glyph1-2" x="41.761719" y="80.228516"/>
</g>
<path style="fill:none;stroke-width:0.75;stroke-linecap:round;stroke-linejoin:round;stroke:rgb(0%,0%,0%);stroke-opacity:1;stroke-miterlimit:10;" d="M 59.039062 214.558594 L 401.761719 214.558594 L 401.761719 59.039062 L 59.039062 59.039062 Z M 59.039062 214.558594 "/>
<g style="fill:rgb(0%,0%,0%);fill-opacity:1;">
  <use xlink:href="#glyph0-6" x="202.050781" y="269.28125"/>
  <use xlink:href="#glyph0-7" x="209.380859" y="269.28125"/>
  <use xlink:href="#glyph0-8" x="213.376953" y="269.28125"/>
  <use xlink:href="#glyph0-9" x="220.050781" y="269.28125"/>
  <use xlink:href="#glyph0-10" x="226.724609" y="269.28125"/>
  <use xlink:href="#glyph0-8" x="233.398438" y="269.28125"/>
  <use xlink:href="#glyph0-11" x="240.072266" y="269.28125"/>
  <use xlink:href="#glyph0-12" x="246.746094" y="269.28125"/>
  <use xlink:href="#glyph0-13" x="252.746094" y="269.28125"/>
</g>
<g style="fill:rgb(0%,0%,0%);fill-opacity:1;">
  <use xlink:href="#glyph1-5" x="12.960938" y="158.144531"/>
  <use xlink:href="#glyph1-6" x="12.960938" y="150.140625"/>
  <use xlink:href="#glyph1-7" x="12.960938" y="143.466797"/>
  <use xlink:href="#glyph1-8" x="12.960938" y="136.792969"/>
  <use xlink:href="#glyph1-9" x="12.960938" y="130.792969"/>
  <use xlink:href="#glyph1-7" x="12.960938" y="128.126953"/>
  <use xlink:href="#glyph1-10" x="12.960938" y="121.453125"/>
</g>
<path style="fill-rule:nonzero;fill:rgb(52.941176%,80.784314%,92.156863%);fill-opacity:1;stroke-width:0.75;stroke-linecap:round;stroke-linejoin:round;stroke:rgb(0%,0%,0%);stroke-opacity:1;stroke-miterlimit:10;" d="M 71.734375 208.800781 L 80.550781 208.800781 L 80.550781 64.800781 L 71.734375 64.800781 Z M 71.734375 208.800781 "/>
<path style="fill-rule:nonzero;fill:rgb(52.941176%,80.784314%,92.156863%);fill-opacity:1;stroke-width:0.75;stroke-linecap:round;stroke-linejoin:round;stroke:rgb(0%,0%,0%);stroke-opacity:1;stroke-miterlimit:10;" d="M 80.546875 208.800781 L 89.363281 208.800781 L 89.363281 126.515625 L 80.546875 126.515625 Z M 80.546875 208.800781 "/>
<path style="fill-rule:nonzero;fill:rgb(52.941176%,80.784314%,92.156863%);fill-opacity:1;stroke-width:0.75;stroke-linecap:round;stroke-linejoin:round;stroke:rgb(0%,0%,0%);stroke-opacity:1;stroke-miterlimit:10;" d="M 89.363281 208.800781 L 98.179688 208.800781 L 98.179688 126.515625 L 89.363281 126.515625 Z M 89.363281 208.800781 "/>
<path style="fill-rule:nonzero;fill:rgb(52.941176%,80.784314%,92.156863%);fill-opacity:1;stroke-width:0.75;stroke-linecap:round;stroke-linejoin:round;stroke:rgb(0%,0%,0%);stroke-opacity:1;stroke-miterlimit:10;" d="M 98.179688 208.800781 L 106.996094 208.800781 L 106.996094 183.085938 L 98.179688 183.085938 Z M 98.179688 208.800781 "/>
<path style="fill-rule:nonzero;fill:rgb(52.941176%,80.784314%,92.156863%);fill-opacity:1;stroke-width:0.75;stroke-linecap:round;stroke-linejoin:round;stroke:rgb(0%,0%,0%);stroke-opacity:1;stroke-miterlimit:10;" d="M 106.992188 208.800781 L 115.808594 208.800781 L 115.808594 193.371094 L 106.992188 193.371094 Z M 106.992188 208.800781 "/>
<path style="fill-rule:nonzero;fill:rgb(52.941176%,80.784314%,92.156863%);fill-opacity:1;stroke-width:0.75;stroke-linecap:round;stroke-linejoin:round;stroke:rgb(0%,0%,0%);stroke-opacity:1;stroke-miterlimit:10;" d="M 115.808594 208.800781 L 124.625 208.800781 L 124.625 198.515625 L 115.808594 198.515625 Z M 115.808594 208.800781 "/>
<path style="fill-rule:nonzero;fill:rgb(52.941176%,80.784314%,92.156863%);fill-opacity:1;stroke-width:0.75;stroke-linecap:round;stroke-linejoin:round;stroke:rgb(0%,0%,0%);stroke-opacity:1;stroke-miterlimit:10;" d="M 124.621094 208.800781 L 133.4375 208.800781 L 133.4375 188.230469 L 124.621094 188.230469 Z M 124.621094 208.800781 "/>
<path style="fill-rule:nonzero;fill:rgb(52.941176%,80.784314%,92.156863%);fill-opacity:1;stroke-width:0.75;stroke-linecap:round;stroke-linejoin:round;stroke:rgb(0%,0%,0%);stroke-opacity:1;stroke-miterlimit:10;" d="M 133.4375 208.800781 L 142.253906 208.800781 L 142.253906 203.65625 L 133.4375 203.65625 Z M 133.4375 208.800781 "/>
<path style="fill-rule:nonzero;fill:rgb(52.941176%,80.784314%,92.156863%);fill-opacity:1;stroke-width:0.75;stroke-linecap:round;stroke-linejoin:round;stroke:rgb(0%,0%,0%);stroke-opacity:1;stroke-miterlimit:10;" d="M 159.882812 208.800781 L 168.699219 208.800781 L 168.699219 203.65625 L 159.882812 203.65625 Z M 159.882812 208.800781 "/>
<path style="fill-rule:nonzero;fill:rgb(52.941176%,80.784314%,92.156863%);fill-opacity:1;stroke-width:0.75;stroke-linecap:round;stroke-linejoin:round;stroke:rgb(0%,0%,0%);stroke-opacity:1;stroke-miterlimit:10;" d="M 195.140625 208.800781 L 203.957031 208.800781 L 203.957031 203.65625 L 195.140625 203.65625 Z M 195.140625 208.800781 "/>
<path style="fill-rule:nonzero;fill:rgb(52.941176%,80.784314%,92.156863%);fill-opacity:1;stroke-width:0.75;stroke-linecap:round;stroke-linejoin:round;stroke:rgb(0%,0%,0%);stroke-opacity:1;stroke-miterlimit:10;" d="M 203.957031 208.800781 L 212.773438 208.800781 L 212.773438 203.65625 L 203.957031 203.65625 Z M 203.957031 208.800781 "/>
<path style="fill-rule:nonzero;fill:rgb(52.941176%,80.784314%,92.156863%);fill-opacity:1;stroke-width:0.75;stroke-linecap:round;stroke-linejoin:round;stroke:rgb(0%,0%,0%);stroke-opacity:1;stroke-miterlimit:10;" d="M 212.769531 208.800781 L 221.585938 208.800781 L 221.585938 203.65625 L 212.769531 203.65625 Z M 212.769531 208.800781 "/>
<path style="fill-rule:nonzero;fill:rgb(52.941176%,80.784314%,92.156863%);fill-opacity:1;stroke-width:0.75;stroke-linecap:round;stroke-linejoin:round;stroke:rgb(0%,0%,0%);stroke-opacity:1;stroke-miterlimit:10;" d="M 221.585938 208.800781 L 230.402344 208.800781 L 230.402344 203.65625 L 221.585938 203.65625 Z M 221.585938 208.800781 "/>
<path style="fill-rule:nonzero;fill:rgb(52.941176%,80.784314%,92.156863%);fill-opacity:1;stroke-width:0.75;stroke-linecap:round;stroke-linejoin:round;stroke:rgb(0%,0%,0%);stroke-opacity:1;stroke-miterlimit:10;" d="M 239.214844 208.800781 L 248.03125 208.800781 L 248.03125 203.65625 L 239.214844 203.65625 Z M 239.214844 208.800781 "/>
<path style="fill-rule:nonzero;fill:rgb(52.941176%,80.784314%,92.156863%);fill-opacity:1;stroke-width:0.75;stroke-linecap:round;stroke-linejoin:round;stroke:rgb(0%,0%,0%);stroke-opacity:1;stroke-miterlimit:10;" d="M 256.84375 208.800781 L 265.660156 208.800781 L 265.660156 198.515625 L 256.84375 198.515625 Z M 256.84375 208.800781 "/>
<path style="fill-rule:nonzero;fill:rgb(52.941176%,80.784314%,92.156863%);fill-opacity:1;stroke-width:0.75;stroke-linecap:round;stroke-linejoin:round;stroke:rgb(0%,0%,0%);stroke-opacity:1;stroke-miterlimit:10;" d="M 318.546875 208.800781 L 327.363281 208.800781 L 327.363281 203.65625 L 318.546875 203.65625 Z M 318.546875 208.800781 "/>
<path style="fill-rule:nonzero;fill:rgb(52.941176%,80.784314%,92.156863%);fill-opacity:1;stroke-width:0.75;stroke-linecap:round;stroke-linejoin:round;stroke:rgb(0%,0%,0%);stroke-opacity:1;stroke-miterlimit:10;" d="M 353.808594 208.800781 L 362.625 208.800781 L 362.625 203.65625 L 353.808594 203.65625 Z M 353.808594 208.800781 "/>
<path style="fill-rule:nonzero;fill:rgb(52.941176%,80.784314%,92.156863%);fill-opacity:1;stroke-width:0.75;stroke-linecap:round;stroke-linejoin:round;stroke:rgb(0%,0%,0%);stroke-opacity:1;stroke-miterlimit:10;" d="M 380.25 208.800781 L 389.066406 208.800781 L 389.066406 203.65625 L 380.25 203.65625 Z M 380.25 208.800781 "/>
<g clip-path="url(#clip1)" clip-rule="nonzero">
<path style="fill:none;stroke-width:1.5;stroke-linecap:round;stroke-linejoin:round;stroke:rgb(100%,0%,0%);stroke-opacity:1;stroke-miterlimit:10;" d="M 76.140625 54.175781 L 79.226562 97.132812 L 82.3125 122.34375 L 85.394531 138.902344 L 88.480469 150.589844 L 91.566406 159.273438 L 94.652344 165.964844 L 97.738281 171.273438 L 100.820312 175.582031 L 103.90625 179.148438 L 106.992188 182.136719 L 110.078125 184.683594 L 113.164062 186.867188 L 116.25 188.765625 L 119.332031 190.425781 L 122.417969 191.890625 L 125.503906 193.1875 L 128.589844 194.347656 L 131.675781 195.382812 L 134.757812 196.316406 L 137.84375 197.164062 L 140.929688 197.929688 L 144.015625 198.628906 L 147.101562 199.265625 L 150.183594 199.851562 L 153.269531 200.390625 L 156.355469 200.882812 L 159.441406 201.339844 L 162.527344 201.761719 L 165.609375 202.15625 L 168.695312 202.519531 L 171.78125 202.855469 L 174.867188 203.171875 L 177.953125 203.464844 L 181.035156 203.742188 L 184.121094 203.996094 L 187.207031 204.238281 L 190.292969 204.464844 L 193.378906 204.675781 L 196.464844 204.875 L 199.546875 205.0625 L 202.632812 205.238281 L 205.71875 205.40625 L 208.804688 205.5625 L 211.890625 205.710938 L 214.972656 205.851562 L 218.058594 205.984375 L 221.144531 206.109375 L 224.230469 206.230469 L 227.316406 206.34375 L 230.398438 206.449219 L 233.484375 206.550781 L 236.570312 206.648438 L 239.65625 206.738281 L 242.742188 206.824219 L 245.824219 206.910156 L 248.910156 206.988281 L 251.996094 207.0625 L 258.167969 207.203125 L 261.25 207.265625 L 264.335938 207.328125 L 267.421875 207.386719 L 273.59375 207.496094 L 276.679688 207.546875 L 279.761719 207.597656 L 282.847656 207.644531 L 292.105469 207.773438 L 295.1875 207.8125 L 298.273438 207.851562 L 304.445312 207.921875 L 307.53125 207.953125 L 310.613281 207.984375 L 313.699219 208.015625 L 316.785156 208.042969 L 319.871094 208.074219 L 322.957031 208.097656 L 326.039062 208.125 L 338.382812 208.21875 L 341.464844 208.238281 L 353.808594 208.316406 L 356.894531 208.332031 L 359.976562 208.347656 L 372.320312 208.410156 L 375.402344 208.421875 L 378.488281 208.433594 L 381.574219 208.449219 L 384.660156 208.460938 "/>
</g>
</g>
</svg>
