<?xml version="1.0" encoding="UTF-8"?>
<svg xmlns="http://www.w3.org/2000/svg" xmlns:xlink="http://www.w3.org/1999/xlink" width="432" height="288" viewBox="0 0 432 288">
<defs>
<clipPath id="clip-0">
<path clip-rule="nonzero" d="M 59.039062 59.039062 L 401.757812 59.039062 L 401.757812 214.558594 L 59.039062 214.558594 Z M 59.039062 59.039062 "/>
</clipPath>
</defs>
<rect x="-43.2" y="-28.8" width="518.4" height="345.6" fill="rgb(100%, 100%, 100%)" fill-opacity="1"/>
<g clip-path="url(#clip-0)">
<path fill-rule="nonzero" fill="rgb(100%, 100%, 100%)" fill-opacity="1" stroke-width="0.75" stroke-linecap="round" stroke-linejoin="round" stroke="rgb(100%, 100%, 100%)" stroke-opacity="1" stroke-miterlimit="10" d="M 59.039062 214.558594 L 401.757812 214.558594 L 401.757812 59.039062 L 59.039062 59.039062 Z M 59.039062 214.558594 "/>
</g>
<path fill="none" stroke-width="0.75" stroke-linecap="round" stroke-linejoin="round" stroke="rgb(0%, 0%, 0%)" stroke-opacity="1" stroke-miterlimit="10" d="M 266.5 162.652344 L 266.402344 163.027344 L 266.386719 163.15625 L 266.359375 163.28125 L 266.164062 163.542969 L 266.148438 163.59375 L 266.128906 163.765625 L 266.117188 163.816406 L 266.066406 163.90625 L 266.039062 164.0625 L 265.46875 165.628906 L 265.09375 167.359375 L 265.085938 167.492188 L 265.074219 167.554688 L 265.023438 167.691406 L 265.007812 167.757812 L 265.003906 167.828125 L 265.035156 167.941406 L 265.042969 168.003906 L 264.78125 169.476562 L 264.746094 169.585938 L 264.289062 170.273438 L 264.257812 170.371094 L 264.238281 170.503906 L 264.175781 170.628906 L 264.082031 170.71875 L 263.960938 170.753906 L 263.980469 170.8125 L 264 170.828125 L 264.027344 170.820312 L 264.070312 170.796875 L 264.117188 171 L 264.054688 171.21875 L 263.964844 171.433594 L 263.917969 171.625 L 263.847656 171.730469 L 263.378906 172.191406 L 263.308594 172.246094 L 263.132812 172.328125 L 263.0625 172.375 L 263.007812 172.4375 L 262.90625 172.609375 L 262.835938 172.695312 L 262.234375 173.1875 L 262.085938 173.070312 L 261.871094 173.101562 L 261.746094 173.230469 L 261.867188 173.390625 L 261.910156 173.339844 L 261.984375 173.277344 L 262.070312 173.234375 L 262.160156 173.226562 L 262.058594 173.414062 L 261.84375 173.585938 L 261.167969 173.929688 L 260.972656 173.96875 L 260.761719 173.960938 L 260.519531 173.914062 L 260.527344 173.964844 L 260.535156 174 L 260.554688 174.023438 L 260.59375 174.039062 L 260.59375 174.078125 L 260.425781 174.175781 L 259.363281 175.332031 L 259.105469 175.550781 L 259.019531 175.589844 L 258.988281 175.613281 L 258.972656 175.648438 L 258.953125 175.753906 L 258.929688 175.777344 L 258.859375 175.824219 L 258.652344 176.101562 L 258.574219 176.167969 L 258.386719 176.277344 L 258.3125 176.339844 L 258.285156 176.398438 L 258.257812 176.523438 L 258.1875 176.5625 L 258.144531 176.601562 L 258.101562 176.644531 L 258.058594 176.75 L 257.339844 177.6875 L 256.625 179.042969 L 256.570312 179.28125 L 256.625 179.507812 L 256.40625 179.507812 L 256.355469 179.554688 L 256.328125 179.710938 L 256.410156 179.667969 L 256.597656 179.609375 L 256.667969 179.546875 L 256.667969 179.589844 L 256.65625 179.628906 L 256.640625 179.671875 L 256.59375 179.746094 L 256.453125 179.90625 L 255.882812 180.398438 L 255.726562 180.582031 L 255.460938 181.015625 L 255.15625 181.691406 L 254.367188 183.003906 L 254.253906 183.246094 L 254.234375 183.335938 L 254.191406 183.417969 L 253.933594 183.679688 L 253.003906 185.296875 L 252.851562 185.503906 L 252.765625 185.589844 L 252.6875 185.621094 L 252.613281 185.683594 L 252.441406 186.03125 L 251.933594 186.660156 L 251.539062 187.15625 L 251.382812 187.257812 L 251.207031 187.613281 L 250.917969 187.929688 L 250.121094 188.632812 L 250.023438 188.683594 L 249.6875 188.769531 L 249.5625 188.824219 L 249.457031 188.90625 L 249.410156 189.007812 L 249.078125 189.390625 L 248.957031 189.441406 L 248.90625 189.472656 L 248.871094 189.585938 L 248.832031 189.632812 L 248.789062 189.664062 L 248.761719 189.679688 L 248.636719 189.707031 L 248.539062 189.78125 L 248.363281 189.960938 L 248.277344 190.007812 L 248.0625 190.082031 L 247.921875 190.175781 L 247.875 190.1875 L 247.824219 190.191406 L 247.765625 190.207031 L 247.738281 190.210938 L 247.679688 190.199219 L 247.652344 190.207031 L 247.621094 190.246094 L 247.628906 190.277344 L 247.648438 190.304688 L 247.652344 190.328125 L 247.546875 190.550781 L 247.386719 190.632812 L 247.355469 190.667969 L 247.332031 190.816406 L 247.273438 190.894531 L 247.09375 191.015625 L 246.917969 191.195312 L 246.832031 191.308594 L 246.796875 191.402344 L 246.78125 191.457031 L 246.683594 191.621094 L 246.625 191.652344 L 246.609375 191.664062 L 246.601562 191.6875 L 246.582031 191.757812 L 246.574219 191.78125 L 246.214844 191.933594 L 246.160156 192.007812 L 246.136719 192.105469 L 246.082031 192.214844 L 245.933594 192.429688 L 245.261719 193.097656 L 244.699219 193.8125 L 244.410156 193.976562 L 244.363281 194.035156 L 243.628906 194.660156 L 243.503906 194.828125 L 243.457031 194.867188 L 243.367188 194.90625 L 243.316406 194.941406 L 243.117188 195.136719 L 243.019531 195.257812 L 242.980469 195.367188 L 242.945312 195.4375 L 242.335938 195.875 L 242.199219 195.941406 L 242.019531 196.082031 L 241.933594 196.125 L 241.914062 196.21875 L 241.789062 196.308594 L 241.519531 196.441406 L 241.261719 196.613281 L 241.101562 196.695312 L 240.796875 196.777344 L 240.660156 196.894531 L 240.554688 197.058594 L 240.515625 197.234375 L 240.464844 197.359375 L 240.34375 197.484375 L 239.785156 197.910156 L 239.621094 197.964844 L 239.570312 198.011719 L 239.5 198.109375 L 239.425781 198.148438 L 239.417969 198.171875 L 239.414062 198.199219 L 239.410156 198.234375 L 239.390625 198.261719 L 239.128906 198.371094 L 239.023438 198.484375 L 238.960938 198.507812 L 238.855469 198.523438 L 238.585938 198.617188 L 238.492188 198.671875 L 238.003906 199.140625 L 237.820312 199.28125 L 237.4375 199.414062 L 237.375 199.464844 L 237.347656 199.472656 L 237.222656 199.644531 L 237.179688 199.664062 L 237.136719 199.675781 L 237.09375 199.671875 L 237.035156 199.644531 L 236.996094 199.792969 L 236.863281 199.921875 L 236.566406 200.140625 L 236.433594 200.210938 L 236.414062 200.210938 L 236.390625 200.199219 L 236.371094 200.179688 L 236.359375 200.175781 L 236.34375 200.191406 L 236.320312 200.257812 L 235.738281 200.621094 L 235.6875 200.679688 L 235.273438 200.863281 L 235.1875 200.921875 L 235.148438 200.964844 L 235.128906 201.003906 L 235.117188 201.050781 L 235.085938 201.097656 L 235.042969 201.132812 L 234.992188 201.148438 L 234.882812 201.164062 L 234.410156 201.398438 L 234.304688 201.421875 L 234.171875 201.429688 L 234.050781 201.464844 L 233.746094 201.707031 L 233.636719 201.738281 L 233.371094 201.765625 L 233.191406 201.863281 L 232.667969 202.070312 L 232.601562 202.074219 L 232.558594 202.101562 L 232.523438 202.210938 L 232.488281 202.238281 L 232.371094 202.253906 L 231.847656 202.492188 L 231.632812 202.546875 L 231.410156 202.554688 L 230.945312 202.496094 L 230.800781 202.5 L 230.695312 202.542969 L 230.601562 202.558594 L 230.472656 202.507812 L 230.265625 202.398438 L 229.539062 202.265625 L 228.792969 202.230469 L 228.3125 202.296875 L 227.863281 202.421875 L 227.460938 202.605469 L 227.285156 202.730469 L 227.140625 202.890625 L 227.039062 203.082031 L 226.949219 203.414062 L 226.933594 203.554688 L 226.957031 203.621094 L 227.066406 203.667969 L 227.089844 203.71875 L 227.117188 203.753906 L 227.273438 203.859375 L 227.375 204.007812 L 227.421875 204.0625 L 227.414062 204.109375 L 227.402344 204.128906 L 227.386719 204.144531 L 227.214844 204.097656 L 227.09375 204.132812 L 226.984375 204.195312 L 226.84375 204.226562 L 226.671875 204.207031 L 226.382812 204.125 L 226.226562 204.101562 L 225.953125 204.132812 L 225.820312 204.132812 L 225.671875 204.054688 L 225.476562 204.023438 L 225.292969 203.898438 L 225.09375 203.828125 L 224.628906 203.714844 L 224.128906 203.707031 L 223.640625 203.769531 L 223.320312 203.851562 L 223.191406 203.914062 L 223.105469 204.007812 L 223.183594 204.25 L 223.121094 204.367188 L 223.027344 204.46875 L 222.972656 204.507812 L 222.710938 204.722656 L 222.671875 204.8125 L 222.695312 204.882812 L 222.746094 204.921875 L 222.796875 204.953125 L 222.820312 204.996094 L 222.804688 205.046875 L 222.710938 205.109375 L 222.671875 205.15625 L 222.636719 205.15625 L 222.566406 205.066406 L 222.453125 205.03125 L 222.078125 205.023438 L 221.777344 204.949219 L 221.652344 204.933594 L 221.308594 204.996094 L 221.203125 204.984375 L 220.734375 204.871094 L 220.496094 204.761719 L 220.304688 204.605469 L 220.199219 204.570312 L 219.535156 204.496094 L 219.441406 204.449219 L 219.363281 204.398438 L 219.011719 204.265625 L 218.035156 204.183594 L 217.917969 204.15625 L 217.683594 204.078125 L 217.101562 204.023438 L 216.132812 203.820312 L 215.875 203.828125 L 214.996094 204.011719 L 214.878906 204.0625 L 214.777344 204.125 L 214.6875 204.203125 L 214.636719 204.332031 L 214.671875 204.453125 L 214.769531 204.53125 L 214.894531 204.550781 L 214.894531 204.589844 L 213.007812 204.429688 L 212.976562 204.390625 L 212.945312 204.222656 L 212.929688 204.183594 L 212.765625 204.171875 L 212.699219 204.148438 L 212.652344 204.101562 L 212.671875 204.191406 L 212.714844 204.226562 L 212.765625 204.246094 L 212.820312 204.285156 L 212.875 204.367188 L 212.875 204.410156 L 212.839844 204.449219 L 212.808594 204.417969 L 212.730469 204.398438 L 212.578125 204.386719 L 212.507812 204.398438 L 212.457031 204.421875 L 212.398438 204.4375 L 212.316406 204.429688 L 211.878906 204.304688 L 211.703125 204.207031 L 211.636719 204.1875 L 211.574219 204.148438 L 211.527344 204.0625 L 211.515625 204.007812 L 211.519531 203.964844 L 211.558594 203.941406 L 211.640625 203.945312 L 211.554688 203.878906 L 211.433594 203.84375 L 211.191406 203.820312 L 211.246094 203.910156 L 211.316406 203.996094 L 211.402344 204.066406 L 211.492188 204.101562 L 211.390625 204.132812 L 211.257812 204.109375 L 210.644531 203.914062 L 210.535156 203.898438 L 210.390625 203.90625 L 210.285156 203.921875 L 210.195312 203.960938 L 209.914062 204.171875 L 209.691406 204.277344 L 209.445312 204.328125 L 208.9375 204.277344 L 208.707031 204.28125 L 208.238281 204.386719 L 208.128906 204.429688 L 208.042969 204.492188 L 207.882812 204.652344 L 207.8125 204.777344 L 207.835938 204.871094 L 207.914062 204.941406 L 208.011719 204.996094 L 207.9375 205.050781 L 207.828125 205.085938 L 207.121094 205.183594 L 206.917969 205.261719 L 206.78125 205.398438 L 206.761719 205.496094 L 206.792969 205.6875 L 206.738281 205.753906 L 206.632812 205.925781 L 206.597656 205.949219 L 206.277344 206.121094 L 206.054688 206.195312 L 205.820312 206.234375 L 205.585938 206.25 L 205.007812 206.144531 L 204.804688 206.03125 L 204.683594 206.003906 L 204.566406 206.023438 L 204.335938 206.109375 L 204.144531 206.140625 L 204.105469 206.175781 L 204.082031 206.214844 L 204.054688 206.25 L 204.015625 206.273438 L 203.652344 206.417969 L 203.417969 206.449219 L 203.183594 206.433594 L 202.285156 206.132812 L 202.066406 206.089844 L 201.539062 206.046875 L 201.277344 206.070312 L 201.058594 206.167969 L 201.101562 206.167969 L 200.789062 206.246094 L 200.6875 206.292969 L 200.835938 206.316406 L 200.964844 206.40625 L 201.03125 206.527344 L 200.984375 206.652344 L 200.882812 206.6875 L 199.917969 206.53125 L 199.15625 206.625 L 198.925781 206.722656 L 198.738281 206.855469 L 198.4375 207.21875 L 198.335938 207.308594 L 198.234375 207.347656 L 198.15625 207.363281 L 198.117188 207.398438 L 198.085938 207.453125 L 198.03125 207.507812 L 197.984375 207.53125 L 197.808594 207.59375 L 197.71875 207.648438 L 197.621094 207.730469 L 197.539062 207.828125 L 197.507812 207.929688 L 197.449219 207.914062 L 197.316406 207.945312 L 197.09375 208.03125 L 196.6875 208.296875 L 196.535156 208.484375 L 196.609375 208.640625 L 196.609375 208.679688 L 196.519531 208.699219 L 196.378906 208.78125 L 196.289062 208.800781 L 196.203125 208.789062 L 196.117188 208.761719 L 196.039062 208.722656 L 195.695312 208.492188 L 195.617188 208.417969 L 195.519531 208.371094 L 194.644531 208.394531 L 194.566406 208.414062 L 194.476562 208.496094 L 194.398438 208.515625 L 194.339844 208.503906 L 194.304688 208.46875 L 194.28125 208.425781 L 194.253906 208.394531 L 193.980469 208.246094 L 193.5625 207.867188 L 193.28125 207.722656 L 193.199219 207.664062 L 193.113281 207.570312 L 193.011719 207.5 L 192.878906 207.484375 L 192.75 207.515625 L 192.644531 207.59375 L 192.597656 207.5625 L 192.550781 207.550781 L 192.503906 207.5625 L 192.457031 207.59375 L 192.476562 207.527344 L 192.800781 207.125 L 192.828125 207.058594 L 192.800781 206.898438 L 192.714844 206.710938 L 192.601562 206.535156 L 192.496094 206.410156 L 192.421875 206.359375 L 192.351562 206.34375 L 191.96875 206.414062 L 191.636719 206.394531 L 191.5625 206.375 L 191.488281 206.308594 L 191.386719 206.140625 L 191.300781 206.089844 L 191.300781 206.046875 L 191.441406 206.023438 L 191.507812 205.9375 L 191.542969 205.816406 L 191.597656 205.679688 L 191.503906 205.730469 L 191.375 205.925781 L 191.316406 205.964844 L 190.902344 205.941406 L 190.832031 205.945312 L 190.671875 206 L 190.140625 206.078125 L 190.027344 206.148438 L 190.003906 206.195312 L 189.953125 206.210938 L 189.890625 206.195312 L 189.839844 206.167969 L 189.789062 206.097656 L 189.796875 206.039062 L 189.839844 205.964844 L 189.804688 205.769531 L 189.800781 205.726562 L 189.820312 205.660156 L 189.84375 205.632812 L 189.875 205.609375 L 189.914062 205.558594 L 189.960938 205.445312 L 189.953125 205.355469 L 189.875 205.15625 L 189.867188 205.035156 L 189.914062 204.980469 L 189.988281 204.929688 L 190.0625 204.828125 L 189.832031 204.515625 L 189.746094 204.46875 L 189.421875 204.398438 L 188.910156 204.355469 L 188.40625 204.375 L 188.328125 204.40625 L 188.28125 204.4375 L 188.082031 204.507812 L 187.988281 204.570312 L 187.945312 204.613281 L 187.894531 204.675781 L 187.8125 204.75 L 187.789062 204.792969 L 187.78125 204.871094 L 187.792969 204.933594 L 187.820312 204.964844 L 187.859375 204.992188 L 187.894531 205.03125 L 187.96875 205.277344 L 187.976562 205.335938 L 187.980469 205.390625 L 187.929688 205.78125 L 187.953125 205.902344 L 188.046875 205.964844 L 187.945312 205.992188 L 187.808594 205.929688 L 187.679688 205.824219 L 187.59375 205.726562 L 187.464844 205.488281 L 187.445312 205.417969 L 187.453125 205.382812 L 187.476562 205.300781 L 187.484375 205.253906 L 187.472656 205.234375 L 187.449219 205.21875 L 187.421875 205.207031 L 187.410156 205.195312 L 187.355469 205.039062 L 187.3125 204.976562 L 187.15625 204.929688 L 187.105469 204.871094 L 187.089844 204.796875 L 187.109375 204.710938 L 187.148438 204.664062 L 187.199219 204.648438 L 187.242188 204.617188 L 187.257812 204.53125 L 187.261719 204.449219 L 187.273438 204.386719 L 187.296875 204.328125 L 187.335938 204.265625 L 187.253906 204.273438 L 187.222656 204.285156 L 187.179688 204.308594 L 187.105469 204.199219 L 187.097656 204.113281 L 187.140625 204.035156 L 187.222656 203.945312 L 187.296875 203.835938 L 187.355469 203.625 L 187.410156 203.496094 L 187.585938 203.367188 L 187.796875 203.371094 L 187.972656 203.347656 L 188.046875 203.128906 L 188.023438 203.015625 L 187.917969 202.863281 L 187.894531 202.785156 L 187.878906 202.671875 L 187.734375 202.144531 L 187.589844 201.886719 L 187.5625 201.773438 L 187.511719 201.75 L 187.257812 201.472656 L 187.167969 201.417969 L 187.125 201.382812 L 187.109375 201.328125 L 187.109375 201.085938 L 187.09375 200.960938 L 187.054688 200.859375 L 186.921875 200.660156 L 186.765625 200.507812 L 186.175781 200.132812 L 186.230469 200.03125 L 186.199219 199.914062 L 186.058594 199.683594 L 185.988281 199.527344 L 185.855469 199.363281 L 185.839844 199.300781 L 185.789062 199.222656 L 185.539062 199.003906 L 185.445312 198.957031 L 185.332031 198.914062 L 185.257812 198.820312 L 185.195312 198.710938 L 185.132812 198.628906 L 185.273438 198.566406 L 185.351562 198.546875 L 185.410156 198.570312 L 185.453125 198.636719 L 185.484375 198.699219 L 185.519531 198.757812 L 185.582031 198.796875 L 185.558594 198.859375 L 185.597656 198.910156 L 185.746094 199.019531 L 185.847656 199.148438 L 185.917969 199.214844 L 185.988281 199.238281 L 186.074219 199.195312 L 186.050781 199.128906 L 185.933594 199.019531 L 185.90625 198.96875 L 185.894531 198.867188 L 185.878906 198.828125 L 185.855469 198.8125 L 185.792969 198.808594 L 185.765625 198.796875 L 185.644531 198.6875 L 185.601562 198.628906 L 185.582031 198.570312 L 185.597656 198.3125 L 185.582031 198.226562 L 185.503906 198.113281 L 185.375 198.054688 L 185.21875 198.039062 L 185.054688 198.066406 L 185.105469 198.15625 L 185.132812 198.1875 L 185.066406 198.203125 L 185.007812 198.230469 L 184.902344 198.308594 L 184.84375 198.246094 L 184.808594 198.183594 L 184.796875 198.128906 L 184.792969 198.085938 L 184.773438 198.035156 L 184.734375 197.984375 L 184.714844 197.917969 L 184.753906 197.824219 L 184.726562 197.78125 L 184.660156 197.609375 L 184.628906 197.476562 L 184.625 197.429688 L 184.640625 197.378906 L 184.699219 197.316406 L 184.730469 197.242188 L 184.699219 197.175781 L 184.574219 197.019531 L 184.542969 197.003906 L 184.523438 196.980469 L 184.527344 196.929688 L 184.546875 196.921875 L 184.585938 196.929688 L 184.625 196.933594 L 184.640625 196.910156 L 184.660156 196.894531 L 184.742188 196.824219 L 184.773438 196.808594 L 184.816406 196.800781 L 184.828125 196.78125 L 184.828125 196.75 L 184.847656 196.707031 L 184.851562 196.660156 L 184.847656 196.480469 L 184.863281 196.40625 L 184.941406 196.351562 L 185.070312 196.300781 L 185.199219 196.273438 L 185.28125 196.28125 L 185.242188 196.324219 L 185.304688 196.414062 L 185.582031 196.648438 L 185.816406 196.734375 L 186.027344 196.683594 L 186.207031 196.554688 L 186.867188 195.941406 L 186.996094 195.710938 L 187.074219 195.5 L 187.203125 195.019531 L 187.222656 194.785156 L 187.195312 194.371094 L 187.164062 194.277344 L 187.101562 194.144531 L 187.128906 194.050781 L 187.257812 193.890625 L 187.285156 193.652344 L 187.074219 192.878906 L 187.011719 192.246094 L 186.914062 191.992188 L 186.882812 191.863281 L 186.898438 191.605469 L 186.890625 191.480469 L 186.828125 191.359375 L 186.757812 191.277344 L 186.699219 191.175781 L 186.664062 191.097656 L 186.660156 191.042969 L 186.664062 190.996094 L 186.660156 190.933594 L 186.542969 190.519531 L 186.453125 190.324219 L 186.320312 190.121094 L 186.066406 189.820312 L 186.027344 189.738281 L 186.015625 189.691406 L 185.765625 189.355469 L 185.503906 189.101562 L 185.464844 189.007812 L 185.429688 188.902344 L 185.347656 188.808594 L 185.167969 188.660156 L 184.953125 188.351562 L 184.796875 188.238281 L 184.746094 188.09375 L 184.679688 187.8125 L 184.609375 187.738281 L 184.386719 187.574219 L 184.339844 187.511719 L 184.3125 187.433594 L 184.015625 186.980469 L 183.988281 186.960938 L 183.933594 186.816406 L 183.910156 186.777344 L 183.839844 186.675781 L 183.726562 186.414062 L 183.667969 186.3125 L 183.289062 185.808594 L 182.988281 185.242188 L 182.957031 185.160156 L 182.914062 184.941406 L 182.847656 184.734375 L 182.527344 184.324219 L 182.378906 184.066406 L 182.398438 183.84375 L 182.265625 183.699219 L 181.960938 183.167969 L 181.910156 183.03125 L 181.808594 182.914062 L 181.460938 182.34375 L 181.4375 182.285156 L 181.417969 182.128906 L 181.371094 181.941406 L 181.347656 181.894531 L 181.335938 181.738281 L 181.050781 181.265625 L 180.976562 181.066406 L 180.957031 180.835938 L 180.828125 180.363281 L 180.488281 179.605469 L 180.453125 179.40625 L 180.441406 179.375 L 180.414062 179.347656 L 180.390625 179.304688 L 180.375 179.242188 L 180.371094 179.179688 L 180.226562 178.695312 L 180.261719 178.695312 L 180.234375 178.617188 L 180.238281 178.457031 L 180.226562 178.375 L 180.09375 178.035156 L 180.097656 177.96875 L 180.023438 177.914062 L 179.988281 177.785156 L 179.964844 177.5625 L 179.800781 177.140625 L 179.761719 177.074219 L 179.5625 176.488281 L 179.539062 176.453125 L 179.433594 176.34375 L 179.410156 176.285156 L 179.394531 176.257812 L 179.292969 176.140625 L 179.179688 175.785156 L 179.148438 175.730469 L 179.089844 175.675781 L 179.066406 175.625 L 179.070312 175.488281 L 179.050781 175.433594 L 179 175.34375 L 178.953125 175.207031 L 178.933594 175.066406 L 178.960938 174.972656 L 178.878906 174.835938 L 178.53125 174.542969 L 178.480469 174.46875 L 178.394531 174.242188 L 178.351562 174.160156 L 178.109375 173.835938 L 177.738281 173.53125 L 177.679688 173.402344 L 177.625 173.195312 L 177.597656 172.984375 L 177.613281 172.863281 L 177.589844 172.824219 L 177.542969 172.722656 L 177.535156 172.675781 L 177.515625 172.644531 L 177.46875 172.636719 L 177.417969 172.632812 L 177.382812 172.621094 L 177.265625 172.371094 L 177.175781 172.300781 L 177.039062 172.160156 L 177.027344 172.128906 L 177.085938 172.089844 L 177.121094 172.003906 L 177.132812 171.910156 L 177.121094 171.847656 L 177.019531 171.921875 L 176.964844 172.011719 L 176.898438 172.070312 L 176.753906 172.050781 L 176.691406 172.011719 L 176.355469 171.75 L 176.1875 171.5625 L 176.105469 171.445312 L 175.519531 170.878906 L 175.421875 170.839844 L 175.378906 170.800781 L 175.050781 170.375 L 174.703125 169.980469 L 173.980469 169.472656 L 173.832031 169.335938 L 173.554688 168.988281 L 173.164062 168.6875 L 173.085938 168.605469 L 172.917969 168.34375 L 172.742188 168.164062 L 172.710938 168.125 L 172.707031 168.054688 L 172.742188 167.933594 L 172.75 167.878906 L 172.679688 167.691406 L 172.53125 167.496094 L 171.988281 166.96875 L 171.917969 166.867188 L 171.890625 166.722656 L 171.894531 166.417969 L 171.882812 166.371094 L 171.847656 166.296875 L 171.328125 165.484375 L 171.238281 165.296875 L 171.171875 165.203125 L 171.082031 165.160156 L 171.035156 165.109375 L 170.875 164.796875 L 170.652344 164.519531 L 170.617188 164.453125 L 170.542969 163.988281 L 170.515625 163.929688 L 170.476562 163.886719 L 170.445312 163.839844 L 170.433594 163.765625 L 170.46875 163.523438 L 170.394531 163.140625 L 170.433594 163.054688 L 170.324219 162.835938 L 170.292969 162.722656 L 170.28125 162.589844 L 170.285156 162.34375 L 170.253906 162.226562 L 170.167969 162.121094 L 170.128906 162.109375 L 170.03125 162.101562 L 169.980469 162.082031 L 169.96875 162.054688 L 169.933594 161.992188 L 169.894531 161.941406 L 169.875 161.941406 L 169.859375 161.808594 L 169.820312 161.699219 L 169.644531 161.34375 L 169.617188 161.242188 L 169.640625 161.082031 L 169.582031 160.964844 L 169.507812 160.847656 L 169.460938 160.746094 L 169.449219 160.609375 L 169.460938 160.492188 L 169.507812 160.40625 L 169.589844 160.375 L 169.644531 160.363281 L 169.699219 160.339844 L 169.742188 160.34375 L 169.757812 160.398438 L 169.757812 160.625 L 169.796875 160.625 L 169.816406 160.507812 L 169.925781 160.199219 L 169.925781 160.136719 L 169.890625 160.058594 L 169.78125 159.699219 L 169.710938 159.339844 L 169.582031 159.121094 L 169.402344 158.941406 L 169.195312 158.800781 L 168.871094 158.671875 L 168.824219 158.617188 L 168.78125 158.15625 L 168.804688 157.707031 L 168.691406 157.546875 L 168.675781 157.503906 L 168.695312 157.4375 L 168.730469 157.433594 L 168.769531 157.449219 L 168.824219 157.425781 L 168.898438 157.238281 L 168.890625 156.984375 L 168.832031 156.730469 L 168.75 156.53125 L 168.503906 156.132812 L 168.472656 155.941406 L 168.5625 155.722656 L 168.523438 155.722656 L 168.242188 155.394531 L 168.148438 155.238281 L 168.136719 155.167969 L 168.136719 155.117188 L 168.148438 155.035156 L 168.148438 154.566406 L 168.171875 154.445312 L 168.335938 154.140625 L 168.351562 154.042969 L 168.347656 153.90625 L 168.328125 153.789062 L 168.207031 153.671875 L 168.171875 153.519531 L 168.148438 153.253906 L 168.015625 152.890625 L 167.984375 152.613281 L 167.929688 152.394531 L 167.921875 152.277344 L 168.089844 151.835938 L 168.074219 151.765625 L 168.1875 151.34375 L 168.207031 151.101562 L 168.152344 150.875 L 168.074219 150.722656 L 167.964844 150.492188 L 167.894531 150.261719 L 167.878906 149.789062 L 167.808594 149.558594 L 167.496094 148.96875 L 167.367188 148.789062 L 167.097656 148.527344 L 167.019531 148.351562 L 166.835938 148.136719 L 166.800781 147.984375 L 166.820312 147.921875 L 166.898438 147.835938 L 166.917969 147.800781 L 166.917969 147.558594 L 166.890625 147.445312 L 166.769531 147.222656 L 166.648438 146.925781 L 166.355469 146.355469 L 166.242188 145.945312 L 166.132812 145.75 L 166.097656 145.480469 L 166.054688 145.390625 L 166.082031 145.273438 L 166.082031 145.074219 L 166.058594 144.871094 L 166.015625 144.742188 L 166.054688 144.660156 L 166.089844 144.496094 L 166.128906 144.417969 L 166.164062 144.402344 L 166.214844 144.394531 L 166.257812 144.371094 L 166.28125 144.316406 L 166.355469 144.171875 L 166.3125 144.101562 L 166.316406 143.769531 L 166.222656 143.484375 L 166.203125 143.382812 L 166.28125 142.53125 L 166.253906 142.316406 L 166.191406 142.15625 L 165.988281 141.617188 L 165.917969 141.351562 L 165.925781 141.292969 L 165.96875 141.242188 L 166.101562 141 L 166.167969 140.933594 L 166.167969 141.058594 L 166.191406 141.113281 L 166.226562 141.082031 L 166.242188 140.953125 L 166.234375 140.722656 L 166.132812 140.035156 L 166.074219 139.828125 L 165.980469 139.671875 L 165.902344 139.507812 L 165.84375 139.316406 L 165.808594 139.109375 L 165.789062 138.722656 L 165.792969 138.667969 L 165.820312 138.609375 L 165.890625 138.496094 L 165.90625 138.441406 L 165.90625 138.195312 L 165.925781 138.1875 L 165.957031 138.1875 L 165.972656 138.207031 L 165.941406 138.257812 L 165.964844 138.296875 L 165.996094 138.351562 L 166.015625 138.378906 L 165.984375 138.496094 L 165.972656 138.617188 L 166.015625 138.679688 L 166.128906 138.621094 L 166.121094 138.691406 L 166.054688 138.867188 L 166.136719 138.789062 L 166.261719 138.550781 L 166.335938 138.5 L 166.398438 138.445312 L 166.4375 138.304688 L 166.464844 138.035156 L 166.429688 137 L 166.324219 136.222656 L 166.195312 136.011719 L 166.136719 135.75 L 165.941406 135.339844 L 165.835938 134.992188 L 165.660156 134.617188 L 165.625 134.570312 L 165.269531 134.167969 L 165.15625 133.972656 L 165.152344 133.832031 L 165.140625 133.777344 L 164.296875 132.667969 L 163.886719 132.28125 L 163.84375 132.183594 L 163.394531 131.757812 L 163.289062 131.707031 L 163.289062 131.644531 L 163.3125 131.582031 L 163.324219 131.554688 L 163.359375 131.40625 L 163.363281 131.367188 L 163.347656 131.292969 L 163.320312 131.238281 L 162.882812 130.570312 L 162.800781 130.191406 L 162.632812 129.769531 L 162.070312 129.023438 L 161.730469 128.445312 L 161.519531 128.179688 L 161.382812 128.003906 L 160.894531 127.117188 L 160.667969 126.804688 L 160.597656 126.585938 L 160.519531 126.503906 L 160.371094 126.382812 L 160.261719 126.179688 L 160.207031 125.984375 L 160.148438 125.496094 L 160 124.96875 L 159.527344 124.027344 L 159.398438 123.503906 L 159.367188 123.253906 L 159.253906 122.773438 L 159.0625 122.277344 L 158.9375 122.070312 L 158.71875 122 L 158.480469 121.832031 L 158.296875 121.507812 L 158.121094 120.777344 L 157.699219 119.941406 L 157.648438 119.769531 L 157.414062 119.453125 L 157.015625 118.703125 L 156.96875 118.566406 L 156.910156 118.476562 L 156.769531 118.183594 L 156.722656 118.117188 L 156.480469 117.671875 L 156.40625 117.484375 L 156.378906 117.371094 L 156.34375 117.101562 L 156.28125 116.972656 L 156.105469 116.738281 L 155.996094 116.53125 L 155.730469 115.847656 L 155.617188 115.667969 L 155.453125 115.464844 L 155.257812 115.308594 L 155.203125 115.230469 L 155.136719 114.804688 L 155.089844 114.679688 L 154.199219 113.457031 L 153.589844 113.042969 L 153.320312 112.730469 L 153.289062 112.699219 L 153.191406 112.558594 L 153.136719 112.527344 L 153.082031 112.492188 L 152.808594 112.320312 L 152.722656 112.007812 L 152.703125 111.898438 L 152.636719 111.722656 L 152.636719 104.347656 L 152.792969 104.300781 L 153.046875 104.261719 L 153.085938 104.253906 L 153.117188 104.242188 L 153.15625 104.242188 L 153.210938 104.28125 L 153.398438 104.339844 L 153.460938 104.328125 L 153.488281 104.300781 L 153.515625 104.28125 L 153.566406 104.300781 L 153.601562 104.332031 L 153.625 104.417969 L 153.644531 104.464844 L 153.675781 104.496094 L 153.730469 104.539062 L 153.789062 104.570312 L 153.847656 104.585938 L 153.898438 104.613281 L 153.925781 104.667969 L 153.941406 104.722656 L 153.960938 104.746094 L 154.351562 104.707031 L 154.707031 104.722656 L 154.785156 104.6875 L 154.859375 104.625 L 154.914062 104.621094 L 155.046875 104.699219 L 155.148438 104.738281 L 155.46875 104.765625 L 155.660156 104.8125 L 155.730469 104.804688 L 155.863281 104.734375 L 156.105469 104.511719 L 156.242188 104.464844 L 156.378906 104.445312 L 156.480469 104.390625 L 156.671875 104.21875 L 156.914062 104.097656 L 157.101562 104.039062 L 157.136719 103.988281 L 157.179688 103.902344 L 157.230469 103.855469 L 157.273438 103.835938 L 157.371094 103.804688 L 157.417969 103.773438 L 157.441406 103.71875 L 157.449219 103.652344 L 157.476562 103.59375 L 157.605469 103.558594 L 157.714844 103.503906 L 157.882812 103.460938 L 158.171875 103.289062 L 158.757812 103.179688 L 158.882812 103.136719 L 159 103.128906 L 159.101562 103.207031 L 159.171875 103.164062 L 159.214844 103.199219 L 159.25 103.257812 L 159.308594 103.289062 L 159.429688 103.308594 L 159.496094 103.308594 L 159.550781 103.289062 L 159.550781 103.332031 L 159.691406 103.261719 L 159.777344 103.242188 L 159.8125 103.265625 L 159.847656 103.269531 L 159.980469 103.234375 L 160.078125 103.207031 L 160.175781 103.242188 L 160.371094 103.382812 L 160.46875 103.414062 L 160.597656 103.429688 L 160.710938 103.480469 L 160.792969 103.558594 L 160.863281 103.792969 L 160.941406 103.871094 L 160.988281 103.96875 L 160.9375 104.140625 L 161.402344 104.40625 L 161.878906 104.816406 L 162.40625 105.121094 L 162.917969 105.417969 L 162.988281 105.480469 L 163.238281 105.832031 L 163.316406 105.894531 L 163.445312 105.921875 L 163.511719 105.910156 L 163.597656 105.851562 L 163.648438 105.835938 L 163.707031 105.84375 L 163.808594 105.878906 L 163.925781 105.894531 L 164.015625 105.921875 L 164.082031 105.921875 L 164.140625 105.90625 L 164.226562 105.851562 L 164.261719 105.835938 L 164.503906 105.878906 L 164.625 105.859375 L 164.675781 105.742188 L 164.679688 105.710938 L 164.742188 105.714844 L 179.117188 105.714844 L 180.519531 105.71875 L 187.8125 105.71875 L 187.855469 105.722656 L 187.863281 105.757812 L 187.882812 105.816406 L 187.917969 105.835938 L 187.953125 105.867188 L 188.042969 106.089844 L 188.050781 106.152344 L 188.066406 106.164062 L 188.199219 106.203125 L 188.386719 106.582031 L 188.402344 106.648438 L 188.476562 106.691406 L 188.761719 106.933594 L 188.777344 106.980469 L 188.804688 107.082031 L 188.835938 107.136719 L 188.886719 107.191406 L 188.988281 107.242188 L 189.039062 107.28125 L 189.351562 107.621094 L 189.460938 107.773438 L 189.535156 107.839844 L 189.75 107.890625 L 190.234375 108.144531 L 190.949219 108.28125 L 191.410156 108.257812 L 191.597656 108.179688 L 191.714844 108.152344 L 191.773438 108.15625 L 191.9375 108.191406 L 192.179688 108.171875 L 192.265625 108.230469 L 193.132812 108.5 L 194.070312 108.488281 L 194.382812 108.414062 L 194.507812 108.402344 L 194.617188 108.429688 L 194.667969 108.539062 L 194.71875 108.578125 L 194.832031 108.632812 L 194.957031 108.675781 L 195.042969 108.683594 L 195.070312 108.652344 L 195.132812 108.542969 L 195.167969 108.515625 L 196.03125 108.515625 L 196.234375 108.636719 L 196.425781 108.707031 L 196.480469 108.714844 L 196.796875 108.683594 L 196.945312 108.683594 L 197.019531 108.671875 L 197.09375 108.636719 L 197.136719 108.683594 L 197.214844 108.609375 L 197.347656 108.574219 L 197.492188 108.582031 L 197.621094 108.636719 L 197.8125 108.472656 L 197.871094 108.511719 L 197.945312 108.507812 L 198.128906 108.472656 L 198.191406 108.496094 L 198.402344 108.683594 L 198.542969 108.644531 L 198.679688 108.707031 L 198.804688 108.820312 L 198.910156 108.941406 L 198.964844 108.988281 L 199.152344 109.085938 L 199.308594 109.207031 L 199.378906 109.242188 L 199.515625 109.207031 L 199.730469 109.195312 L 199.929688 109.214844 L 200.015625 109.265625 L 200.054688 109.3125 L 200.144531 109.355469 L 200.234375 109.371094 L 200.277344 109.34375 L 200.316406 109.292969 L 200.410156 109.320312 L 200.574219 109.40625 L 200.691406 109.515625 L 200.832031 109.503906 L 200.996094 109.441406 L 201.175781 109.40625 L 201.25 109.25 L 201.675781 109.128906 L 201.753906 109.105469 L 202.257812 108.964844 L 202.347656 109.007812 L 202.4375 108.984375 L 202.53125 108.9375 L 202.628906 108.921875 L 202.710938 108.9375 L 202.933594 108.921875 L 203.019531 108.945312 L 203.265625 109.085938 L 203.578125 109.199219 L 203.742188 109.285156 L 203.828125 109.40625 L 203.859375 109.417969 L 203.964844 109.386719 L 204.355469 109.308594 L 205.726562 109.035156 L 207.09375 108.761719 L 209.835938 108.214844 L 210.949219 107.988281 L 212.0625 107.757812 L 213.175781 107.53125 L 214.289062 107.300781 L 214.746094 107.210938 L 214.96875 107.164062 L 215.160156 107.125 L 215.261719 107.121094 L 215.425781 107.085938 L 215.660156 107.035156 L 215.894531 106.988281 L 216.128906 106.9375 L 216.359375 106.886719 L 216.828125 106.785156 L 217.058594 106.738281 L 217.761719 106.585938 L 217.996094 106.539062 L 218.230469 106.488281 L 218.460938 106.4375 L 218.929688 106.335938 L 219.164062 106.289062 L 219.324219 106.253906 L 219.425781 106.246094 L 219.527344 106.261719 L 219.816406 106.273438 L 219.875 106.308594 L 219.917969 106.285156 L 220.148438 106.21875 L 220.242188 106.203125 L 220.34375 106.222656 L 220.574219 106.308594 L 220.738281 106.34375 L 220.839844 106.394531 L 220.980469 106.421875 L 221.023438 106.453125 L 221.054688 106.496094 L 221.105469 106.53125 L 221.191406 106.566406 L 221.238281 106.574219 L 221.289062 106.570312 L 221.347656 106.542969 L 221.429688 106.464844 L 221.492188 106.429688 L 221.519531 106.386719 L 221.558594 106.347656 L 221.609375 106.328125 L 221.855469 106.328125 L 222.320312 106.40625 L 222.351562 106.417969 L 222.378906 106.445312 L 222.414062 106.472656 L 222.472656 106.488281 L 222.648438 106.480469 L 223.023438 106.558594 L 223.167969 106.628906 L 223.238281 106.734375 L 223.347656 106.679688 L 223.414062 106.730469 L 223.421875 106.734375 L 223.484375 106.828125 L 223.570312 106.894531 L 223.621094 106.898438 L 223.722656 106.863281 L 223.78125 106.855469 L 223.800781 106.875 L 223.761719 106.976562 L 223.761719 107.015625 L 223.796875 107.0625 L 223.824219 107.082031 L 223.867188 107.09375 L 223.929688 107.09375 L 223.945312 107.117188 L 224.042969 107.207031 L 224.0625 107.21875 L 224.105469 107.390625 L 224.117188 107.421875 L 224.167969 107.433594 L 224.207031 107.464844 L 224.234375 107.503906 L 224.246094 107.542969 L 224.296875 107.476562 L 224.335938 107.476562 L 224.414062 107.5625 L 224.433594 107.597656 L 224.425781 107.671875 L 224.433594 107.707031 L 224.457031 107.730469 L 224.519531 107.765625 L 224.550781 107.785156 L 224.621094 107.882812 L 224.660156 107.902344 L 224.753906 107.90625 L 224.828125 107.925781 L 224.902344 107.972656 L 224.960938 108.039062 L 224.996094 108.113281 L 225.035156 108.152344 L 225.136719 108.203125 L 225.300781 108.339844 L 225.410156 108.390625 L 225.460938 108.398438 L 225.632812 108.390625 L 225.8125 108.460938 L 225.871094 108.472656 L 226.28125 108.472656 L 226.3125 108.480469 L 226.363281 108.511719 L 226.398438 108.515625 L 226.429688 108.503906 L 226.476562 108.449219 L 226.507812 108.4375 L 226.875 108.363281 L 227.164062 108.230469 L 227.296875 108.214844 L 227.367188 108.261719 L 227.433594 108.324219 L 227.636719 108.382812 L 227.757812 108.441406 L 227.867188 108.515625 L 227.914062 108.578125 L 227.96875 108.667969 L 228.214844 108.777344 L 228.292969 108.878906 L 228.203125 108.914062 L 228.195312 108.996094 L 228.234375 109.09375 L 228.292969 109.164062 L 228.625 109.324219 L 228.855469 109.335938 L 228.917969 109.324219 L 229.21875 109.164062 L 229.257812 109.203125 L 229.289062 109.132812 L 229.375 109.113281 L 229.480469 109.109375 L 229.554688 109.085938 L 229.558594 109.0625 L 229.550781 108.988281 L 229.554688 108.964844 L 229.589844 108.953125 L 229.683594 108.925781 L 229.773438 108.875 L 229.902344 108.847656 L 229.949219 108.820312 L 230.144531 108.664062 L 230.191406 108.636719 L 230.242188 108.660156 L 230.28125 108.707031 L 230.3125 108.761719 L 230.339844 108.800781 L 230.390625 108.820312 L 230.640625 108.847656 L 230.695312 108.875 L 230.738281 108.90625 L 230.773438 108.941406 L 230.8125 108.953125 L 231.015625 108.921875 L 231.265625 108.96875 L 231.683594 109.207031 L 231.914062 109.285156 L 232.058594 109.308594 L 232.148438 109.347656 L 232.21875 109.410156 L 232.304688 109.507812 L 232.378906 109.574219 L 232.46875 109.621094 L 232.777344 109.726562 L 232.855469 109.742188 L 232.921875 109.71875 L 233.078125 109.570312 L 233.148438 109.527344 L 233.234375 109.503906 L 233.367188 109.484375 L 233.882812 109.238281 L 234.011719 109.285156 L 234.210938 109.148438 L 234.269531 109.121094 L 234.527344 109.109375 L 234.609375 109.085938 L 234.757812 109 L 234.917969 108.839844 L 235.121094 108.632812 L 235.304688 108.398438 L 235.292969 108.261719 L 235.285156 108.113281 L 235.292969 108.054688 L 235.351562 107.96875 L 236.796875 106.402344 L 237.355469 105.871094 L 237.644531 105.566406 L 237.792969 105.269531 L 237.902344 104.796875 L 237.992188 104.589844 L 238.734375 103.425781 L 238.949219 103.179688 L 239.234375 103.003906 L 240.074219 102.621094 L 240.570312 102.398438 L 241.109375 101.929688 L 241.480469 101.683594 L 243.460938 100.867188 L 243.71875 100.816406 L 243.871094 100.816406 L 243.949219 100.804688 L 243.996094 100.761719 L 244.105469 100.652344 L 244.148438 100.550781 L 244.363281 100.378906 L 244.4375 100.289062 L 244.476562 100.074219 L 244.496094 100.027344 L 244.628906 99.800781 L 244.628906 99.664062 L 244.535156 99.417969 L 244.515625 99.316406 L 244.535156 99.1875 L 244.664062 98.871094 L 244.574219 98.703125 L 244.601562 98.46875 L 244.671875 98.222656 L 244.703125 98.019531 L 244.691406 97.992188 L 244.664062 97.957031 L 244.640625 97.917969 L 244.628906 97.863281 L 244.644531 97.796875 L 244.71875 97.675781 L 244.738281 97.636719 L 244.855469 97.476562 L 245.039062 97.289062 L 245.117188 97.253906 L 245.140625 97.242188 L 245.257812 97.21875 L 245.503906 97.214844 L 245.636719 97.1875 L 245.707031 97.117188 L 245.824219 96.886719 L 245.878906 96.824219 L 245.964844 96.742188 L 246.070312 96.671875 L 246.179688 96.644531 L 246.230469 96.609375 L 246.425781 96.398438 L 247.628906 95.816406 L 247.710938 95.796875 L 248.183594 95.753906 L 248.277344 95.6875 L 248.480469 95.507812 L 248.613281 95.46875 L 248.726562 95.484375 L 248.835938 95.515625 L 248.945312 95.535156 L 249.078125 95.515625 L 249.390625 95.402344 L 249.628906 95.363281 L 249.851562 95.257812 L 249.976562 95.226562 L 250.21875 95.25 L 250.6875 95.386719 L 250.921875 95.414062 L 251.136719 95.378906 L 251.355469 95.3125 L 251.574219 95.28125 L 251.792969 95.328125 L 251.929688 95.429688 L 251.996094 95.453125 L 252.082031 95.433594 L 252.125 95.402344 L 252.207031 95.328125 L 252.253906 95.308594 L 252.394531 95.332031 L 252.480469 95.371094 L 252.65625 95.449219 L 252.8125 95.445312 L 253.027344 95.351562 L 253.105469 95.320312 L 253.117188 95.304688 L 253.054688 95.128906 L 253.023438 95.085938 L 252.871094 94.910156 L 252.859375 94.828125 L 252.894531 94.699219 L 252.992188 94.492188 L 253.007812 94.433594 L 252.992188 94.378906 L 252.910156 94.261719 L 252.894531 94.191406 L 252.878906 93.808594 L 252.855469 93.6875 L 252.816406 93.578125 L 252.761719 93.472656 L 252.691406 93.394531 L 252.613281 93.363281 L 252.4375 93.242188 L 252.300781 92.960938 L 252.097656 92.21875 L 252.070312 91.964844 L 252.070312 91.699219 L 252.03125 91.523438 L 252.035156 91.484375 L 252.035156 91.480469 L 252.125 91.457031 L 252.601562 91.398438 L 253.007812 91.183594 L 253.515625 90.917969 L 254.09375 90.695312 L 254.558594 90.515625 L 255.316406 90.222656 L 255.859375 90.089844 L 256.628906 89.902344 L 256.726562 89.894531 L 257.292969 89.75 L 257.996094 89.570312 L 258.5625 89.425781 L 259.03125 89.242188 L 259.539062 88.960938 L 259.914062 88.75 L 260.695312 88.480469 L 261.414062 88.226562 L 261.960938 88.035156 L 262.371094 87.835938 L 262.582031 87.769531 L 263.019531 87.683594 L 263.527344 87.5 L 264.101562 87.292969 L 264.925781 86.996094 L 265.84375 86.664062 L 266.785156 86.324219 L 267.46875 86.074219 L 267.945312 85.902344 L 268.34375 85.761719 L 268.644531 85.9375 L 268.765625 86.039062 L 268.824219 86.207031 L 268.796875 86.5 L 268.820312 86.605469 L 268.957031 86.84375 L 269.003906 86.898438 L 269.082031 86.953125 L 269.128906 86.972656 L 269.167969 87.011719 L 269.183594 87.042969 L 269.261719 87.195312 L 269.355469 87.339844 L 269.632812 87.929688 L 269.730469 88.070312 L 269.800781 88.128906 L 270.03125 88.238281 L 270.105469 88.304688 L 270.140625 88.375 L 270.167969 88.449219 L 270.214844 88.527344 L 270.277344 88.578125 L 270.425781 88.652344 L 270.488281 88.703125 L 270.535156 88.777344 L 270.609375 89 L 270.644531 89.097656 L 270.691406 89.175781 L 270.753906 89.238281 L 270.851562 89.269531 L 270.90625 89.226562 L 270.921875 89.121094 L 270.921875 88.917969 L 270.96875 88.746094 L 271.050781 88.613281 L 271.167969 88.574219 L 271.460938 88.8125 L 271.613281 88.828125 L 271.769531 88.769531 L 272.085938 88.566406 L 272.238281 88.523438 L 272.394531 88.527344 L 272.96875 88.605469 L 273.011719 88.578125 L 273.078125 88.429688 L 273.117188 88.367188 L 273.292969 88.289062 L 273.6875 88.277344 L 274.226562 88.074219 L 274.269531 88.066406 L 274.355469 88.078125 L 274.402344 88.070312 L 274.480469 88.007812 L 274.523438 87.976562 L 274.570312 87.96875 L 274.722656 88.054688 L 274.769531 88.125 L 274.84375 88.234375 L 275.019531 88.621094 L 275.148438 88.785156 L 275.429688 89.082031 L 275.519531 89.269531 L 275.527344 89.46875 L 275.453125 89.820312 L 275.503906 90.023438 L 275.597656 90.214844 L 275.65625 90.386719 L 275.6875 90.574219 L 275.6875 91.011719 L 275.699219 91.109375 L 275.734375 91.226562 L 275.78125 91.320312 L 275.839844 91.410156 L 275.882812 91.5 L 275.871094 91.601562 L 275.832031 91.6875 L 275.71875 91.851562 L 275.6875 91.933594 L 275.699219 92.015625 L 275.734375 92.089844 L 275.75 92.15625 L 275.699219 92.222656 L 275.683594 92.324219 L 275.742188 92.777344 L 275.796875 93.195312 L 275.777344 93.351562 L 275.675781 93.503906 L 275.605469 93.5625 L 275.53125 93.601562 L 275.464844 93.648438 L 275.402344 93.738281 L 275.378906 93.808594 L 275.351562 93.960938 L 275.316406 94.03125 L 275.203125 94.105469 L 275.097656 94.285156 L 275 94.339844 L 274.929688 94.4375 L 274.929688 94.636719 L 274.980469 94.992188 L 274.960938 95.230469 L 274.898438 95.417969 L 274.5625 95.910156 L 274.558594 95.914062 L 274.5 95.949219 L 274.386719 95.988281 L 274.292969 96.035156 L 274.195312 96.113281 L 274.042969 96.289062 L 273.984375 96.4375 L 273.957031 96.644531 L 273.964844 96.855469 L 274.023438 97.019531 L 274.09375 97.082031 L 274.273438 97.171875 L 274.355469 97.222656 L 274.808594 97.722656 L 274.902344 97.859375 L 274.925781 98.023438 L 274.816406 98.40625 L 274.796875 98.609375 L 275.019531 99.125 L 275.128906 99.238281 L 275.316406 99.246094 L 275.558594 99.285156 L 275.679688 99.414062 L 275.832031 99.824219 L 275.890625 99.917969 L 275.957031 99.988281 L 276.136719 100.125 L 276.171875 100.167969 L 276.199219 100.222656 L 276.265625 100.398438 L 276.300781 100.425781 L 276.34375 100.441406 L 276.6875 100.632812 L 276.757812 100.714844 L 276.855469 100.914062 L 276.910156 100.992188 L 277.164062 101.21875 L 277.210938 101.296875 L 277.25 101.425781 L 277.300781 101.515625 L 277.386719 101.570312 L 277.480469 101.609375 L 277.53125 101.648438 L 277.570312 101.679688 L 277.59375 101.726562 L 277.609375 101.839844 L 277.632812 101.886719 L 277.671875 101.90625 L 277.753906 101.921875 L 277.792969 101.9375 L 277.867188 101.996094 L 277.914062 102.046875 L 278.015625 102.1875 L 278.175781 102.320312 L 278.332031 102.347656 L 278.492188 102.332031 L 278.671875 102.335938 L 278.796875 102.433594 L 278.847656 102.617188 L 278.847656 102.832031 L 278.832031 103.019531 L 278.769531 103.183594 L 278.648438 103.273438 L 278.511719 103.34375 L 278.394531 103.445312 L 278.351562 103.628906 L 278.527344 103.914062 L 278.511719 104.066406 L 278.59375 104.152344 L 278.882812 104.199219 L 279.429688 104.21875 L 279.742188 104.183594 L 279.785156 104.117188 L 279.816406 104.035156 L 279.828125 103.9375 L 279.820312 103.816406 L 279.773438 103.59375 L 279.78125 103.5 L 279.839844 103.390625 L 279.867188 103.3125 L 279.832031 103.261719 L 279.65625 103.152344 L 279.632812 103.125 L 279.628906 103.089844 L 279.65625 103.058594 L 279.6875 103.03125 L 279.707031 103.003906 L 279.695312 102.78125 L 279.707031 102.65625 L 279.84375 102.535156 L 279.816406 102.386719 L 279.707031 102.15625 L 279.683594 102.039062 L 279.667969 101.648438 L 279.652344 101.617188 L 279.519531 101.46875 L 279.503906 101.457031 L 279.457031 101.433594 L 279.441406 101.421875 L 279.421875 101.390625 L 279.390625 101.328125 L 279.367188 101.300781 L 279.332031 101.28125 L 279.210938 101.234375 L 279.164062 101.222656 L 279.101562 101.203125 L 279.070312 101.152344 L 279.046875 101.09375 L 278.960938 100.945312 L 278.871094 100.683594 L 278.941406 100.632812 L 279.320312 100.367188 L 279.394531 100.285156 L 279.425781 100.179688 L 279.421875 99.945312 L 279.453125 99.835938 L 279.582031 99.671875 L 279.601562 99.613281 L 279.539062 99.445312 L 279.523438 99.382812 L 279.5625 99.109375 L 279.664062 98.886719 L 279.78125 98.738281 L 279.816406 98.699219 L 280.195312 98.339844 L 280.296875 98.265625 L 280.421875 98.230469 L 280.527344 98.238281 L 280.640625 98.269531 L 280.730469 98.332031 L 280.769531 98.433594 L 280.816406 98.480469 L 280.890625 98.515625 L 280.957031 98.519531 L 280.992188 98.464844 L 281.011719 98.371094 L 281.039062 98.335938 L 281.167969 98.324219 L 281.691406 98.160156 L 281.746094 98.15625 L 281.847656 98.175781 L 281.898438 98.171875 L 281.957031 98.140625 L 282.351562 97.851562 L 282.433594 97.753906 L 282.488281 97.628906 L 282.492188 97.535156 L 282.460938 97.355469 L 282.460938 97.261719 L 282.496094 97.109375 L 282.554688 96.890625 L 282.609375 96.039062 L 282.640625 95.515625 L 282.691406 94.777344 L 282.722656 94.308594 L 282.722656 94.300781 L 282.738281 94.058594 L 282.582031 93.394531 L 282.453125 92.84375 L 282.429688 92.746094 L 282.429688 92.609375 L 282.464844 92.460938 L 282.730469 91.808594 L 282.878906 91.433594 L 283.085938 90.921875 L 282.96875 90.925781 L 282.898438 90.914062 L 282.859375 90.863281 L 282.804688 89.625 L 282.773438 89.523438 L 282.710938 89.4375 L 282.445312 89.15625 L 282.246094 88.890625 L 282.050781 88.628906 L 281.476562 87.863281 L 281.003906 87.234375 L 280.636719 86.488281 L 280.167969 85.898438 L 279.671875 85.269531 L 279.085938 84.53125 L 278.609375 83.929688 L 278.132812 83.46875 L 277.574219 82.925781 L 277.40625 82.820312 L 277.402344 82.816406 L 277.21875 82.746094 L 277.035156 82.714844 L 276.335938 82.726562 L 276.246094 82.710938 L 276.1875 82.675781 L 276.171875 82.652344 L 276.167969 82.617188 L 276.140625 82.550781 L 276.03125 82.34375 L 275.964844 82.25 L 275.875 82.152344 L 275.855469 82.132812 L 275.847656 82.121094 L 275.667969 81.691406 L 275.65625 81.207031 L 275.691406 80.707031 L 275.628906 80.117188 L 275.550781 79.410156 L 275.460938 78.578125 L 275.390625 77.917969 L 275.089844 76.78125 L 274.769531 75.574219 L 274.632812 75.066406 L 274.625 75.03125 L 274.652344 74.765625 L 274.765625 74.46875 L 275.355469 73.523438 L 275.769531 72.851562 L 275.992188 72.273438 L 276.03125 72.039062 L 276.042969 71.800781 L 276.007812 71.542969 L 276.007812 71.433594 L 276.058594 71.359375 L 276.246094 71.308594 L 277.957031 71.332031 L 280.234375 71.355469 L 280.460938 71.347656 L 280.472656 71.382812 L 280.507812 71.417969 L 280.558594 71.4375 L 280.691406 71.445312 L 280.714844 71.441406 L 280.789062 71.410156 L 280.789062 71.40625 L 280.824219 71.394531 L 280.847656 71.378906 L 280.871094 71.382812 L 280.921875 71.421875 L 280.949219 71.46875 L 280.964844 71.507812 L 280.988281 71.542969 L 281.050781 71.5625 L 281.058594 71.460938 L 281.117188 71.457031 L 281.207031 71.492188 L 281.296875 71.519531 L 281.421875 71.441406 L 281.429688 71.441406 L 281.722656 71.359375 L 281.777344 71.320312 L 281.816406 71.199219 L 281.863281 71.117188 L 281.921875 71.039062 L 281.988281 70.992188 L 281.945312 70.863281 L 282.046875 70.800781 L 282.320312 70.746094 L 282.417969 70.667969 L 282.585938 70.4375 L 282.660156 70.382812 L 282.882812 70.429688 L 283.039062 70.5 L 283.074219 70.507812 L 283.277344 70.507812 L 283.351562 70.546875 L 283.445312 70.667969 L 283.394531 70.800781 L 283.441406 70.910156 L 283.542969 70.96875 L 283.648438 70.933594 L 283.730469 70.929688 L 283.84375 70.984375 L 284.042969 71.113281 L 284.09375 71.136719 L 284.214844 71.171875 L 284.269531 71.195312 L 284.3125 71.234375 L 284.351562 71.273438 L 284.386719 71.304688 L 284.4375 71.316406 L 284.523438 71.363281 L 284.554688 71.472656 L 284.566406 71.605469 L 284.605469 71.722656 L 284.570312 71.8125 L 284.585938 71.933594 L 284.632812 72.042969 L 284.695312 72.085938 L 284.921875 72.046875 L 284.988281 72.058594 L 285.070312 72.113281 L 285.128906 72.132812 L 285.207031 72.121094 L 285.40625 72.0625 L 285.578125 72.035156 L 285.617188 72.007812 L 285.644531 71.980469 L 285.671875 71.964844 L 286.308594 71.964844 L 286.351562 71.996094 L 286.382812 72.136719 L 286.417969 72.167969 L 286.449219 72.179688 L 286.585938 72.253906 L 286.679688 72.265625 L 287.023438 72.207031 L 287.101562 72.175781 L 287.25 72.15625 L 287.289062 72.132812 L 287.316406 72.09375 L 287.371094 72.046875 L 287.574219 71.964844 L 287.636719 71.929688 L 287.683594 71.878906 L 287.835938 71.644531 L 288.082031 71.332031 L 288.175781 71.296875 L 288.226562 71.328125 L 288.335938 71.335938 L 288.46875 71.429688 L 288.550781 71.445312 L 289.054688 71.398438 L 289.105469 71.371094 L 289.15625 71.332031 L 289.242188 71.28125 L 289.308594 71.460938 L 289.457031 71.660156 L 289.644531 71.832031 L 289.835938 71.929688 L 290.300781 72.042969 L 290.539062 72.070312 L 290.734375 72.046875 L 290.789062 72.019531 L 290.832031 71.992188 L 290.875 71.96875 L 290.925781 71.964844 L 290.988281 71.996094 L 291.085938 72.105469 L 291.128906 72.132812 L 291.398438 72.210938 L 291.523438 72.210938 L 291.628906 72.195312 L 291.664062 72.171875 L 291.710938 72.132812 L 291.742188 72.074219 L 291.773438 71.992188 L 291.8125 71.917969 L 291.878906 71.886719 L 291.992188 71.859375 L 292.191406 71.75 L 292.308594 71.722656 L 292.484375 71.722656 L 292.597656 71.699219 L 292.699219 71.636719 L 292.945312 71.429688 L 293.339844 71.246094 L 293.453125 71.160156 L 293.523438 71.09375 L 293.566406 71.015625 L 293.558594 70.941406 L 293.523438 70.871094 L 293.503906 70.792969 L 293.53125 70.660156 L 293.664062 70.410156 L 293.652344 70.304688 L 293.707031 70.230469 L 293.789062 69.964844 L 293.804688 69.878906 L 293.839844 69.828125 L 294.183594 69.617188 L 294.273438 69.59375 L 294.496094 69.582031 L 294.542969 69.566406 L 294.597656 69.507812 L 294.90625 69.453125 L 295.03125 69.457031 L 295.074219 69.457031 L 295.074219 69.445312 L 295.089844 69.429688 L 295.117188 69.414062 L 295.152344 69.414062 L 295.160156 69.429688 L 295.191406 69.484375 L 295.207031 69.496094 L 295.261719 69.515625 L 295.367188 69.597656 L 295.433594 69.617188 L 295.496094 69.605469 L 295.617188 69.550781 L 295.671875 69.535156 L 295.921875 69.578125 L 296.117188 69.722656 L 296.417969 70.0625 L 296.613281 70.167969 L 297.046875 70.28125 L 297.203125 70.382812 L 297.207031 70.382812 L 297.34375 70.203125 L 297.882812 69.816406 L 298.003906 69.648438 L 298.09375 69.570312 L 298.253906 69.523438 L 298.363281 69.46875 L 298.425781 69.457031 L 298.488281 69.464844 L 298.609375 69.492188 L 298.667969 69.496094 L 298.769531 69.441406 L 298.984375 69.21875 L 299.058594 69.167969 L 299.171875 69.140625 L 299.265625 69.066406 L 299.414062 68.929688 L 299.597656 68.886719 L 300.3125 68.886719 L 300.5 68.847656 L 300.667969 68.765625 L 300.796875 68.792969 L 301.019531 68.921875 L 301.132812 68.96875 L 301.277344 68.96875 L 301.414062 68.925781 L 301.542969 68.851562 L 302.613281 67.933594 L 302.699219 67.882812 L 302.792969 67.851562 L 303.214844 67.816406 L 304.128906 67.601562 L 304.265625 67.539062 L 304.8125 67.136719 L 305.375 66.882812 L 305.480469 66.824219 L 306.164062 66.253906 L 306.316406 66.191406 L 306.378906 66.125 L 306.480469 65.980469 L 306.804688 65.640625 L 307.011719 65.472656 L 307.363281 65.34375 L 307.558594 65.191406 L 307.734375 65.003906 L 307.820312 64.835938 L 307.914062 64.800781 L 307.996094 64.820312 L 308.03125 64.878906 L 307.972656 64.957031 L 308.074219 64.984375 L 308.164062 64.902344 L 308.164062 65.273438 L 308.160156 65.28125 L 308.164062 65.292969 L 308.164062 66.464844 L 308.085938 66.535156 L 308.121094 66.738281 L 308.164062 66.707031 L 308.164062 67.625 L 308.144531 67.679688 L 308.164062 67.757812 L 308.164062 68.0625 L 308.15625 68.101562 L 308.164062 68.113281 L 308.164062 68.753906 L 308.160156 68.765625 L 308.15625 68.839844 L 308.164062 68.875 L 308.164062 69.101562 L 308.132812 69.152344 L 307.769531 69.433594 L 307.730469 69.511719 L 307.648438 69.71875 L 307.605469 69.777344 L 307.535156 69.804688 L 307.402344 69.804688 L 307.339844 69.816406 L 307.394531 69.902344 L 307.441406 70.015625 L 307.484375 70.058594 L 307.527344 69.9375 L 307.609375 69.992188 L 307.695312 70.078125 L 307.769531 70.175781 L 307.820312 70.257812 L 307.976562 70.21875 L 308.007812 70.402344 L 307.972656 70.601562 L 307.9375 70.832031 L 307.878906 71.015625 L 307.835938 71.097656 L 307.769531 71.175781 L 307.746094 71.269531 L 307.808594 71.363281 L 307.894531 71.445312 L 307.9375 71.519531 L 307.902344 71.585938 L 307.78125 71.734375 L 307.769531 71.785156 L 307.828125 71.871094 L 307.847656 71.9375 L 307.859375 72.128906 L 307.886719 72.246094 L 307.988281 72.351562 L 308.003906 72.382812 L 308.011719 72.417969 L 308.023438 72.707031 L 308.054688 72.808594 L 308.121094 72.902344 L 308.164062 72.875 L 308.164062 73.019531 L 308.125 73.0625 L 308.089844 73.234375 L 308.125 73.410156 L 308.164062 73.5 L 308.164062 74.554688 L 308.160156 74.601562 L 308.164062 74.628906 L 308.164062 75.304688 L 308.121094 75.332031 L 308.042969 75.304688 L 307.964844 75.273438 L 307.910156 75.289062 L 307.898438 75.410156 L 308.03125 75.378906 L 308.152344 75.472656 L 308.164062 75.496094 L 308.164062 76.554688 L 308.058594 76.714844 L 308.046875 76.816406 L 308.121094 76.910156 L 308.164062 76.929688 L 308.164062 79.0625 L 308.160156 79.058594 L 308.113281 79.054688 L 308.078125 79.0625 L 307.921875 79.152344 L 307.808594 79.234375 L 307.71875 79.332031 L 307.679688 79.421875 L 307.6875 79.535156 L 307.714844 79.597656 L 307.992188 79.867188 L 308.074219 79.894531 L 308.160156 79.863281 L 308.164062 79.855469 L 308.164062 94.699219 L 308.160156 94.699219 L 308.144531 94.851562 L 308.058594 94.957031 L 307.839844 95.125 L 307.761719 95.226562 L 307.421875 95.820312 L 306.335938 97.007812 L 306.101562 97.148438 L 306.070312 97.199219 L 306.058594 97.273438 L 306.035156 97.339844 L 305.972656 97.371094 L 305.921875 97.378906 L 305.851562 97.402344 L 305.789062 97.441406 L 305.769531 97.496094 L 305.828125 97.5625 L 305.945312 97.492188 L 306.140625 97.289062 L 306.171875 97.425781 L 306.128906 97.527344 L 306.066406 97.625 L 306.03125 97.738281 L 306.007812 97.882812 L 305.945312 97.976562 L 305.769531 98.144531 L 305.542969 98.597656 L 305.394531 98.820312 L 305.207031 98.914062 L 304.855469 98.921875 L 304.753906 98.953125 L 304.417969 99.144531 L 304.253906 99.289062 L 304.242188 99.316406 L 304.25 99.367188 L 304.285156 99.386719 L 304.347656 99.398438 L 304.351562 99.464844 L 304.34375 99.613281 L 304.347656 99.683594 L 304.386719 99.804688 L 304.457031 99.910156 L 304.546875 99.992188 L 304.648438 100.046875 L 304.402344 100.210938 L 304.3125 100.246094 L 304.304688 100.207031 L 304.277344 100.128906 L 304.269531 100.085938 L 304.21875 100.113281 L 304.164062 100.125 L 304.109375 100.132812 L 304.050781 100.125 L 304.078125 100.152344 L 304.128906 100.21875 L 304.160156 100.246094 L 304.011719 100.300781 L 303.957031 100.339844 L 303.898438 100.410156 L 303.90625 100.417969 L 303.910156 100.457031 L 303.90625 100.503906 L 303.882812 100.550781 L 303.789062 100.652344 L 303.679688 100.734375 L 303.457031 100.867188 L 303.296875 101.003906 L 303.074219 101.078125 L 303.023438 101.117188 L 302.886719 101.265625 L 301.921875 101.785156 L 301.09375 102.335938 L 301.003906 102.417969 L 300.859375 102.636719 L 300.785156 102.6875 L 300.683594 102.636719 L 300.683594 102.757812 L 300.621094 102.835938 L 300.527344 102.886719 L 300.417969 102.917969 L 300.515625 102.957031 L 300.597656 102.929688 L 300.648438 102.929688 L 300.648438 103.042969 L 300.613281 103.152344 L 300.550781 103.246094 L 300.472656 103.324219 L 300.386719 103.367188 L 300.191406 103.390625 L 300 103.378906 L 299.816406 103.394531 L 299.503906 103.617188 L 299.300781 103.6875 L 298.441406 103.769531 L 298.359375 103.738281 L 298.230469 103.597656 L 298.140625 103.570312 L 298.257812 103.738281 L 298.160156 103.863281 L 297.960938 103.945312 L 297.769531 103.976562 L 297.796875 103.867188 L 297.539062 104.136719 L 297.453125 104.136719 L 297.394531 104.09375 L 297.351562 104.046875 L 297.316406 104.035156 L 297.273438 104.074219 L 297.253906 104.121094 L 297.253906 104.167969 L 297.28125 104.21875 L 295.738281 104.859375 L 295.667969 104.914062 L 295.542969 105.0625 L 295.464844 105.117188 L 295.371094 105.113281 L 295.273438 104.976562 L 295.265625 104.578125 L 295.1875 104.464844 L 295.222656 104.585938 L 295.160156 104.613281 L 295.089844 104.605469 L 295.023438 104.582031 L 294.960938 104.546875 L 295.039062 104.667969 L 295.167969 104.804688 L 295.230469 104.933594 L 295.113281 105.035156 L 295.21875 105.109375 L 295.09375 105.214844 L 294.738281 105.355469 L 294.023438 105.519531 L 293.722656 105.6875 L 293.019531 106.1875 L 292.964844 106.195312 L 292.976562 106.121094 L 292.839844 106.179688 L 292.640625 106.363281 L 292.421875 106.515625 L 292.234375 106.488281 L 292.097656 106.644531 L 291.398438 107.078125 L 291.25 107.230469 L 291.167969 107.289062 L 291.089844 107.3125 L 291.035156 107.261719 L 290.941406 107.398438 L 290.886719 107.445312 L 290.808594 107.464844 L 290.664062 107.46875 L 290.609375 107.5 L 290.585938 107.582031 L 290.527344 107.679688 L 290.386719 107.773438 L 290.222656 107.824219 L 290.097656 107.785156 L 290.074219 108.003906 L 289.917969 108.210938 L 289.535156 108.558594 L 289.136719 109.246094 L 288.976562 109.40625 L 288.976562 109.359375 L 288.941406 109.242188 L 288.902344 109.285156 L 288.855469 109.207031 L 288.804688 109.152344 L 288.75 109.105469 L 288.679688 109.066406 L 288.601562 109.003906 L 288.582031 108.933594 L 288.582031 108.851562 L 288.566406 108.757812 L 288.453125 108.628906 L 288.296875 108.570312 L 288.152344 108.609375 L 288.082031 108.757812 L 288.253906 108.640625 L 288.375 108.734375 L 288.449219 108.933594 L 288.492188 109.121094 L 288.519531 109.339844 L 288.558594 109.417969 L 288.742188 109.460938 L 288.804688 109.503906 L 288.867188 109.558594 L 288.941406 109.605469 L 288.773438 109.933594 L 288.699219 110.035156 L 288.558594 110.1875 L 288.511719 110.269531 L 288.492188 110.378906 L 288.449219 110.449219 L 288.347656 110.433594 L 288.222656 110.390625 L 288.117188 110.378906 L 288.035156 110.4375 L 287.980469 110.523438 L 287.894531 110.703125 L 287.996094 110.664062 L 288.15625 110.542969 L 288.234375 110.5 L 288.167969 110.625 L 287.789062 111.105469 L 287.566406 111.300781 L 287.054688 111.917969 L 286.800781 112.164062 L 286.621094 112.203125 L 286.582031 112.441406 L 286.546875 112.527344 L 286.511719 112.5 L 286.398438 112.449219 L 286.414062 112.5625 L 286.433594 112.605469 L 286.363281 112.597656 L 286.261719 112.601562 L 286.1875 112.621094 L 286.191406 112.667969 L 286.222656 112.738281 L 286.195312 112.808594 L 286.097656 112.933594 L 285.886719 113.402344 L 285.800781 113.539062 L 285.808594 113.460938 L 285.800781 113.40625 L 285.769531 113.390625 L 285.726562 113.417969 L 285.703125 113.460938 L 285.6875 113.589844 L 285.640625 113.71875 L 285.683594 113.734375 L 285.734375 113.710938 L 285.726562 113.664062 L 285.746094 113.675781 L 285.785156 113.691406 L 285.800781 113.703125 L 285.808594 113.722656 L 285.808594 113.777344 L 285.878906 113.914062 L 285.832031 113.972656 L 285.738281 114.007812 L 285.667969 114.046875 L 285.566406 114.085938 L 285.441406 114.046875 L 285.320312 113.980469 L 285.21875 113.945312 L 285.09375 113.816406 L 284.90625 113.433594 L 284.898438 113.617188 L 285.019531 114.027344 L 285.050781 114.242188 L 284.972656 114.433594 L 285.019531 114.449219 L 285.054688 114.476562 L 285.078125 114.519531 L 285.085938 114.574219 L 285.0625 114.597656 L 285.015625 114.589844 L 284.941406 114.554688 L 284.761719 114.582031 L 284.601562 114.632812 L 284.410156 114.65625 L 284.328125 114.570312 L 284.300781 114.230469 L 284.3125 114.1875 L 284.332031 114.132812 L 284.332031 114.085938 L 284.28125 114.066406 L 284.230469 114.074219 L 284.199219 114.097656 L 284.035156 114.285156 L 283.773438 114.6875 L 283.660156 114.777344 L 283.480469 114.800781 L 283.511719 114.679688 L 283.492188 114.617188 L 283.4375 114.613281 L 283.371094 114.675781 L 283.339844 114.761719 L 283.316406 114.867188 L 283.285156 114.96875 L 283.21875 115.039062 L 283.101562 115.066406 L 283.039062 115.015625 L 282.988281 114.945312 L 282.917969 114.914062 L 282.863281 114.925781 L 282.816406 114.957031 L 282.785156 115.003906 L 282.773438 115.058594 L 282.789062 115.117188 L 282.832031 115.105469 L 282.882812 115.078125 L 282.917969 115.082031 L 282.882812 115.175781 L 282.097656 115.730469 L 282.046875 115.789062 L 281.964844 115.917969 L 281.910156 115.96875 L 281.839844 115.953125 L 281.765625 116.03125 L 281.648438 116.253906 L 281.6875 116.230469 L 281.71875 116.222656 L 281.796875 116.210938 L 281.796875 116.253906 L 281.644531 116.339844 L 281.5 116.460938 L 281.234375 116.738281 L 281.347656 116.738281 L 281.300781 116.820312 L 281.058594 117.109375 L 281.015625 117.136719 L 280.953125 117.148438 L 280.90625 117.167969 L 280.886719 117.214844 L 280.871094 117.273438 L 280.839844 117.328125 L 280.558594 117.714844 L 280.003906 118.324219 L 279.363281 118.851562 L 278.84375 119.414062 L 278.652344 119.5 L 278.515625 119.535156 L 278.21875 119.851562 L 278.054688 119.984375 L 278.003906 119.921875 L 277.941406 119.964844 L 277.792969 120.148438 L 277.496094 120.347656 L 277.324219 120.28125 L 277.277344 120.238281 L 277.238281 120.148438 L 277.207031 119.976562 L 277.183594 119.894531 L 277.144531 119.863281 L 277.097656 119.832031 L 276.867188 119.617188 L 276.605469 119.519531 L 276.542969 119.476562 L 276.328125 119.140625 L 276.285156 119.089844 L 276.203125 119.050781 L 276.164062 118.960938 L 276.144531 118.851562 L 276.113281 118.769531 L 276.058594 118.730469 L 275.972656 118.691406 L 275.878906 118.660156 L 275.796875 118.648438 L 275.710938 118.6875 L 275.65625 118.851562 L 275.585938 118.886719 L 275.585938 118.933594 L 275.671875 118.925781 L 275.777344 118.832031 L 275.871094 118.808594 L 275.964844 118.820312 L 276.042969 118.859375 L 276.09375 118.929688 L 276.132812 119.113281 L 276.179688 119.203125 L 276.46875 119.636719 L 276.503906 119.660156 L 276.558594 119.679688 L 276.65625 119.699219 L 276.703125 119.71875 L 276.738281 119.765625 L 276.785156 119.863281 L 276.914062 120.011719 L 276.9375 120.0625 L 276.910156 120.21875 L 276.828125 120.382812 L 276.703125 120.488281 L 276.5625 120.46875 L 276.578125 120.570312 L 276.628906 120.570312 L 276.695312 120.53125 L 276.75 120.507812 L 276.847656 120.539062 L 276.867188 120.585938 L 276.824219 120.753906 L 276.828125 120.847656 L 276.863281 121.039062 L 276.867188 121.117188 L 276.863281 121.164062 L 276.851562 121.195312 L 276.835938 121.226562 L 276.804688 121.257812 L 276.78125 121.316406 L 276.789062 121.367188 L 276.8125 121.414062 L 276.824219 121.460938 L 276.816406 121.589844 L 276.824219 121.648438 L 276.839844 121.691406 L 276.886719 121.78125 L 276.90625 121.867188 L 276.933594 121.957031 L 276.9375 122.007812 L 276.921875 122.054688 L 276.878906 122.113281 L 276.867188 122.152344 L 276.820312 122.222656 L 276.714844 122.191406 L 276.542969 122.089844 L 276.453125 122.113281 L 276.378906 122.148438 L 276.316406 122.144531 L 276.269531 122.054688 L 276.273438 122.097656 L 276.273438 122.128906 L 276.269531 122.171875 L 276.351562 122.273438 L 276.75 122.496094 L 276.75 122.53125 L 276.703125 122.582031 L 276.664062 122.652344 L 276.628906 122.734375 L 276.570312 122.933594 L 276.542969 122.996094 L 276.433594 123.121094 L 276.402344 123.207031 L 276.53125 123.300781 L 276.507812 123.363281 L 276.421875 123.425781 L 276.351562 123.453125 L 276.277344 123.441406 L 276.1875 123.382812 L 276.207031 123.46875 L 276.234375 123.554688 L 276.273438 123.632812 L 276.320312 123.691406 L 276.390625 123.742188 L 276.507812 123.765625 L 276.5625 123.792969 L 276.578125 123.832031 L 276.601562 123.917969 L 276.609375 124.015625 L 276.582031 124.097656 L 276.367188 124.285156 L 276.339844 124.355469 L 276.53125 124.253906 L 276.644531 124.226562 L 276.730469 124.257812 L 276.746094 124.410156 L 276.785156 124.46875 L 276.867188 124.402344 L 276.914062 124.523438 L 276.984375 124.578125 L 277.078125 124.621094 L 277.179688 124.703125 L 277.238281 124.777344 L 277.277344 124.851562 L 277.304688 124.945312 L 277.3125 125.070312 L 277.339844 125.125 L 277.496094 125.007812 L 277.570312 125.050781 L 277.5625 125.144531 L 277.492188 125.199219 L 277.429688 125.261719 L 277.453125 125.375 L 277.484375 125.324219 L 277.527344 125.289062 L 277.582031 125.265625 L 277.648438 125.253906 L 277.90625 125.273438 L 277.9375 125.320312 L 278.113281 125.472656 L 278.136719 125.53125 L 278.140625 125.617188 L 278.132812 125.773438 L 278.191406 125.738281 L 278.238281 125.742188 L 278.269531 125.78125 L 278.28125 125.855469 L 278.261719 125.894531 L 278.1875 125.976562 L 278.167969 126.039062 L 278.203125 126.140625 L 278.371094 126.300781 L 278.433594 126.382812 L 278.394531 126.453125 L 278.367188 126.53125 L 278.351562 126.617188 L 278.355469 126.707031 L 278.507812 126.578125 L 278.585938 126.558594 L 278.695312 126.625 L 278.742188 126.671875 L 278.746094 126.695312 L 278.769531 126.75 L 278.765625 126.789062 L 278.765625 126.792969 L 278.738281 126.828125 L 278.738281 126.859375 L 278.804688 126.871094 L 278.769531 127 L 278.738281 127.0625 L 278.695312 127.117188 L 278.632812 127.078125 L 278.574219 127.070312 L 278.527344 127.101562 L 278.507812 127.175781 L 278.523438 127.21875 L 278.5625 127.230469 L 278.597656 127.226562 L 278.621094 127.234375 L 278.625 127.269531 L 278.617188 127.316406 L 278.617188 127.484375 L 278.582031 127.574219 L 278.507812 127.625 L 278.414062 127.640625 L 278.375 127.617188 L 278.332031 127.578125 L 278.285156 127.570312 L 278.246094 127.640625 L 278.238281 127.726562 L 278.273438 127.765625 L 278.324219 127.789062 L 278.40625 127.847656 L 278.445312 127.855469 L 278.464844 127.882812 L 278.46875 127.914062 L 278.460938 127.949219 L 278.445312 127.972656 L 278.433594 127.96875 L 278.441406 128.035156 L 278.441406 128.089844 L 278.453125 128.128906 L 278.507812 128.171875 L 278.472656 128.242188 L 278.511719 128.273438 L 278.574219 128.292969 L 278.621094 128.332031 L 278.632812 128.414062 L 278.59375 128.445312 L 278.53125 128.460938 L 278.464844 128.492188 L 278.410156 128.566406 L 278.429688 128.589844 L 278.488281 128.605469 L 278.542969 128.65625 L 278.558594 128.722656 L 278.542969 128.972656 L 278.679688 128.828125 L 278.84375 128.125 L 278.851562 128.230469 L 278.8125 128.613281 L 278.761719 128.78125 L 278.804688 129.300781 L 278.976562 129.753906 L 279.308594 130.332031 L 279.386719 130.433594 L 279.460938 130.476562 L 279.628906 130.878906 L 279.640625 131.132812 L 279.617188 131.644531 L 279.667969 131.898438 L 279.828125 132.261719 L 279.851562 132.359375 L 279.878906 132.734375 L 279.933594 133.015625 L 279.984375 133.511719 L 279.820312 135.027344 L 279.820312 135.28125 L 279.851562 135.425781 L 279.925781 135.496094 L 280.023438 135.535156 L 280.117188 135.585938 L 280.222656 135.777344 L 280.300781 135.867188 L 280.335938 135.804688 L 280.320312 135.546875 L 280.359375 135.457031 L 280.484375 135.382812 L 280.359375 135.167969 L 280.285156 134.878906 L 280.285156 134.589844 L 280.378906 134.371094 L 280.355469 134.316406 L 280.359375 134.273438 L 280.378906 134.234375 L 280.414062 134.203125 L 280.476562 134.378906 L 280.527344 134.417969 L 280.601562 134.324219 L 280.464844 134.074219 L 280.414062 134.042969 L 280.441406 133.972656 L 280.558594 133.800781 L 280.566406 133.765625 L 280.558594 133.726562 L 280.558594 133.691406 L 280.582031 133.675781 L 280.605469 133.667969 L 280.636719 133.652344 L 280.664062 133.632812 L 280.675781 133.617188 L 280.699219 133.550781 L 280.753906 133.523438 L 280.820312 133.53125 L 280.863281 133.554688 L 280.882812 133.609375 L 280.882812 133.679688 L 280.863281 133.820312 L 280.972656 134.816406 L 281.015625 134.714844 L 281.039062 134.613281 L 281.058594 134.285156 L 281.105469 134.140625 L 281.121094 134.042969 L 281.160156 134.042969 L 281.085938 134.773438 L 281.085938 134.890625 L 281.121094 135.28125 L 281.109375 135.40625 L 280.839844 136.324219 L 280.820312 137.0625 L 280.992188 138.351562 L 281.085938 138.582031 L 281.140625 138.507812 L 281.152344 138.472656 L 281.160156 138.421875 L 281.253906 138.464844 L 281.34375 138.464844 L 281.386719 138.433594 L 281.347656 138.378906 L 281.347656 138.339844 L 281.457031 138.390625 L 281.429688 138.5625 L 281.230469 138.96875 L 281.109375 139.144531 L 280.898438 139.671875 L 280.800781 139.847656 L 280.761719 139.941406 L 280.746094 140.0625 L 280.757812 140.183594 L 280.8125 140.402344 L 280.820312 140.523438 L 280.78125 140.773438 L 280.464844 141.738281 L 280.378906 142.507812 L 280.378906 143.019531 L 280.363281 143.136719 L 280.328125 143.265625 L 280.28125 143.320312 L 280.226562 143.199219 L 280.230469 143.085938 L 280.253906 142.980469 L 280.234375 142.902344 L 280.097656 142.871094 L 280.007812 142.894531 L 280.023438 142.941406 L 280.085938 142.984375 L 280.117188 142.996094 L 280.148438 143.132812 L 280.152344 143.199219 L 280.140625 143.3125 L 280.089844 143.542969 L 280.078125 143.664062 L 280.089844 143.859375 L 280.078125 143.933594 L 280.0625 143.992188 L 280.019531 144.074219 L 280.003906 144.136719 L 280.007812 144.171875 L 280.03125 144.285156 L 280.039062 144.355469 L 280.027344 144.421875 L 279.976562 144.535156 L 279.964844 144.597656 L 280.011719 144.59375 L 280.265625 144.292969 L 280.179688 144.089844 L 280.167969 143.980469 L 280.226562 143.890625 L 280.304688 143.875 L 280.382812 143.921875 L 280.527344 144.050781 L 280.628906 144.101562 L 280.695312 144.101562 L 280.730469 144.046875 L 280.769531 143.632812 L 280.746094 143.566406 L 280.746094 143.523438 L 280.96875 143.578125 L 281.027344 143.644531 L 281.054688 143.90625 L 281.070312 143.953125 L 281.105469 143.96875 L 281.113281 144 L 280.800781 145.023438 L 280.789062 145.144531 L 280.800781 145.222656 L 280.851562 145.34375 L 280.863281 145.410156 L 280.84375 145.460938 L 280.804688 145.503906 L 280.765625 145.535156 L 280.746094 145.566406 L 280.71875 145.683594 L 280.652344 145.792969 L 279.8125 147.03125 L 279.195312 147.699219 L 279.179688 147.757812 L 279.175781 147.835938 L 279.164062 147.894531 L 279.136719 147.949219 L 278.730469 148.34375 L 277.125 149.191406 L 276.234375 149.613281 L 275.328125 149.84375 L 275.3125 149.847656 L 274.601562 150.148438 L 274.457031 150.191406 L 273.851562 150.441406 L 273.546875 150.492188 L 272.332031 150.9375 L 271.214844 151.34375 L 270.429688 151.753906 L 269.773438 151.984375 L 268.96875 152.417969 L 268.75 152.476562 L 268.75 152.4375 L 268.835938 152.398438 L 268.929688 152.335938 L 269.003906 152.265625 L 269.050781 152.191406 L 268.976562 152.214844 L 268.757812 152.324219 L 268.707031 152.378906 L 268.640625 152.425781 L 268.507812 152.441406 L 268.40625 152.480469 L 268.445312 152.601562 L 268.476562 152.582031 L 268.554688 152.554688 L 268.476562 152.683594 L 268.351562 152.765625 L 268.070312 152.886719 L 267.957031 152.964844 L 266.542969 153.9375 L 266.386719 154.109375 L 266.101562 154.507812 L 265.976562 154.753906 L 265.878906 155.132812 L 265.800781 155.257812 L 265.84375 155.554688 L 265.816406 155.605469 L 265.820312 155.570312 L 265.808594 155.53125 L 265.789062 155.476562 L 265.753906 155.476562 L 265.714844 155.523438 L 265.664062 155.558594 L 265.621094 155.59375 L 265.601562 155.65625 L 265.597656 155.742188 L 265.582031 155.820312 L 265.558594 155.894531 L 265.527344 155.960938 L 265.269531 156.203125 L 265.230469 156.269531 L 265.199219 156.304688 L 265.054688 156.421875 L 265.007812 156.453125 L 264.941406 156.457031 L 264.894531 156.441406 L 264.78125 156.371094 L 264.691406 156.34375 L 264.597656 156.339844 L 264.507812 156.367188 L 264.425781 156.429688 L 264.378906 156.542969 L 264.402344 156.652344 L 264.460938 156.71875 L 264.519531 156.691406 L 264.511719 156.664062 L 264.519531 156.46875 L 264.554688 156.449219 L 264.636719 156.460938 L 264.71875 156.488281 L 264.765625 156.511719 L 264.792969 156.554688 L 264.832031 156.652344 L 264.855469 156.691406 L 264.910156 156.722656 L 265.027344 156.769531 L 265.085938 156.816406 L 265.121094 156.878906 L 265.171875 157.015625 L 265.210938 157.082031 L 265.257812 157.125 L 265.300781 157.152344 L 265.328125 157.1875 L 265.363281 157.367188 L 265.460938 157.621094 L 265.496094 157.746094 L 265.589844 157.660156 L 265.726562 157.691406 L 265.859375 157.769531 L 265.941406 157.828125 L 266.058594 157.96875 L 266.128906 158.105469 L 266.207031 158.222656 L 266.3125 158.3125 L 266.375 158.34375 L 266.433594 158.316406 L 266.496094 158.285156 L 266.578125 158.277344 L 266.527344 158.089844 L 266.519531 157.933594 L 266.550781 157.777344 L 266.613281 157.585938 L 266.660156 157.3125 L 266.707031 157.242188 L 266.773438 157.195312 L 266.988281 157.101562 L 266.992188 157.261719 L 266.851562 158.207031 L 266.789062 159.851562 L 266.714844 160.300781 L 266.664062 160.433594 L 266.652344 160.503906 L 266.6875 160.746094 L 266.652344 161.214844 L 266.640625 161.273438 L 266.578125 161.4375 L 266.585938 161.496094 L 266.636719 161.582031 L 266.652344 161.636719 L 266.585938 161.878906 Z M 276.34375 74.550781 L 276.453125 74.589844 L 276.578125 74.566406 L 276.691406 74.496094 L 276.777344 74.386719 L 276.835938 74.242188 L 276.851562 74.089844 L 276.808594 73.972656 L 276.722656 73.910156 L 276.597656 73.863281 L 276.480469 73.855469 L 276.410156 73.910156 L 276.308594 74.164062 L 276.273438 74.304688 L 276.273438 74.429688 Z M 275.945312 74.277344 L 276.027344 74.28125 L 276.140625 74.164062 L 276.191406 73.957031 L 276.117188 73.777344 L 275.957031 73.679688 L 275.761719 73.722656 L 275.757812 73.726562 L 275.648438 73.820312 L 275.664062 73.921875 L 275.808594 74.09375 L 275.878906 74.199219 Z M 275.945312 74.277344 "/>
<path fill="none" stroke-width="0.75" stroke-linecap="round" stroke-linejoin="round" stroke="rgb(0%, 0%, 0%)" stroke-opacity="1" stroke-miterlimit="10" d="M 308.144531 79.59375 L 308.121094 79.5 L 308.164062 79.460938 L 308.164062 79.621094 Z M 308.144531 79.59375 "/>
<path fill="none" stroke-width="0.75" stroke-linecap="round" stroke-linejoin="round" stroke="rgb(0%, 0%, 0%)" stroke-opacity="1" stroke-miterlimit="10" d="M 267.136719 156.519531 L 267.101562 156.691406 L 267.042969 156.859375 L 267.023438 156.894531 L 266.972656 156.949219 L 266.960938 156.953125 L 266.941406 156.929688 L 266.878906 156.894531 L 266.859375 156.867188 L 266.855469 156.828125 L 266.835938 156.800781 L 266.765625 156.816406 L 266.765625 156.839844 L 266.726562 156.976562 L 266.664062 156.804688 L 266.789062 156.644531 L 266.988281 156.519531 L 267.140625 156.453125 Z M 267.136719 156.519531 "/>
<path fill="none" stroke-width="0.75" stroke-linecap="round" stroke-linejoin="round" stroke="rgb(0%, 0%, 0%)" stroke-opacity="1" stroke-miterlimit="10" d="M 280.863281 130.4375 L 280.828125 130.867188 L 280.636719 131.691406 L 280.523438 131.699219 L 280.480469 131.617188 L 280.476562 131.5 L 280.539062 131.050781 L 280.710938 130.316406 L 280.773438 130.203125 L 280.824219 130.207031 L 280.855469 130.296875 Z M 280.863281 130.4375 "/>
<path fill="none" stroke-width="0.75" stroke-linecap="round" stroke-linejoin="round" stroke="rgb(0%, 0%, 0%)" stroke-opacity="1" stroke-miterlimit="10" d="M 304.929688 99.742188 L 304.9375 99.84375 L 304.910156 99.929688 L 304.773438 99.96875 L 304.652344 99.929688 L 304.523438 99.8125 L 304.441406 99.609375 L 304.460938 99.382812 L 304.519531 99.277344 L 304.675781 99.199219 L 304.941406 99.136719 L 305.128906 99.15625 L 305.144531 99.292969 L 305.117188 99.410156 L 304.972656 99.570312 Z M 304.929688 99.742188 "/>
</svg>
