<?xml version="1.0" encoding="UTF-8"?>
<svg xmlns="http://www.w3.org/2000/svg" xmlns:xlink="http://www.w3.org/1999/xlink" width="288pt" height="216pt" viewBox="0 0 288 216">
<defs>
<g>
<g id="glyph-0-0">
<path d="M 0.203125 0 L 0.203125 -4.59375 L 3.859375 -4.59375 L 3.859375 0 Z M 3.28125 -0.578125 L 3.28125 -4.015625 L 0.78125 -4.015625 L 0.78125 -0.578125 Z M 3.28125 -0.578125 "/>
</g>
<g id="glyph-0-1">
<path d="M 0.203125 0 C 0.222656 -0.382812 0.300781 -0.71875 0.4375 -1 C 0.570312 -1.289062 0.84375 -1.550781 1.25 -1.78125 L 1.859375 -2.140625 C 2.117188 -2.296875 2.304688 -2.425781 2.421875 -2.53125 C 2.585938 -2.707031 2.671875 -2.90625 2.671875 -3.125 C 2.671875 -3.382812 2.59375 -3.59375 2.4375 -3.75 C 2.28125 -3.90625 2.070312 -3.984375 1.8125 -3.984375 C 1.425781 -3.984375 1.160156 -3.835938 1.015625 -3.546875 C 0.929688 -3.390625 0.882812 -3.171875 0.875 -2.890625 L 0.3125 -2.890625 C 0.3125 -3.273438 0.382812 -3.59375 0.53125 -3.84375 C 0.769531 -4.28125 1.195312 -4.5 1.8125 -4.5 C 2.332031 -4.5 2.707031 -4.359375 2.9375 -4.078125 C 3.175781 -3.796875 3.296875 -3.488281 3.296875 -3.15625 C 3.296875 -2.789062 3.171875 -2.484375 2.921875 -2.234375 C 2.773438 -2.085938 2.515625 -1.910156 2.140625 -1.703125 L 1.703125 -1.453125 C 1.492188 -1.335938 1.332031 -1.234375 1.21875 -1.140625 C 1.007812 -0.953125 0.878906 -0.75 0.828125 -0.53125 L 3.28125 -0.53125 L 3.28125 0 Z M 0.203125 0 "/>
</g>
<g id="glyph-0-2">
<path d="M 1.671875 0.125 C 1.140625 0.125 0.753906 -0.0195312 0.515625 -0.3125 C 0.273438 -0.601562 0.15625 -0.957031 0.15625 -1.375 L 0.734375 -1.375 C 0.765625 -1.082031 0.820312 -0.875 0.90625 -0.75 C 1.050781 -0.507812 1.316406 -0.390625 1.703125 -0.390625 C 1.992188 -0.390625 2.226562 -0.46875 2.40625 -0.625 C 2.582031 -0.78125 2.671875 -0.984375 2.671875 -1.234375 C 2.671875 -1.546875 2.578125 -1.765625 2.390625 -1.890625 C 2.203125 -2.015625 1.941406 -2.078125 1.609375 -2.078125 C 1.566406 -2.078125 1.523438 -2.078125 1.484375 -2.078125 C 1.453125 -2.078125 1.414062 -2.070312 1.375 -2.0625 L 1.375 -2.5625 C 1.4375 -2.5625 1.484375 -2.554688 1.515625 -2.546875 C 1.554688 -2.546875 1.601562 -2.546875 1.65625 -2.546875 C 1.863281 -2.546875 2.035156 -2.582031 2.171875 -2.65625 C 2.410156 -2.769531 2.53125 -2.976562 2.53125 -3.28125 C 2.53125 -3.5 2.445312 -3.664062 2.28125 -3.78125 C 2.125 -3.90625 1.941406 -3.96875 1.734375 -3.96875 C 1.359375 -3.96875 1.097656 -3.84375 0.953125 -3.59375 C 0.878906 -3.457031 0.835938 -3.265625 0.828125 -3.015625 L 0.265625 -3.015625 C 0.265625 -3.347656 0.332031 -3.628906 0.46875 -3.859375 C 0.695312 -4.273438 1.097656 -4.484375 1.671875 -4.484375 C 2.128906 -4.484375 2.484375 -4.378906 2.734375 -4.171875 C 2.984375 -3.972656 3.109375 -3.679688 3.109375 -3.296875 C 3.109375 -3.023438 3.035156 -2.800781 2.890625 -2.625 C 2.796875 -2.519531 2.675781 -2.4375 2.53125 -2.375 C 2.769531 -2.3125 2.953125 -2.1875 3.078125 -2 C 3.210938 -1.820312 3.28125 -1.597656 3.28125 -1.328125 C 3.28125 -0.898438 3.140625 -0.550781 2.859375 -0.28125 C 2.578125 -0.0078125 2.179688 0.125 1.671875 0.125 Z M 1.671875 0.125 "/>
</g>
<g id="glyph-0-3">
<path d="M 2.125 -1.578125 L 2.125 -3.609375 L 0.6875 -1.578125 Z M 2.125 0 L 2.125 -1.09375 L 0.15625 -1.09375 L 0.15625 -1.640625 L 2.21875 -4.484375 L 2.6875 -4.484375 L 2.6875 -1.578125 L 3.34375 -1.578125 L 3.34375 -1.09375 L 2.6875 -1.09375 L 2.6875 0 Z M 2.125 0 "/>
</g>
<g id="glyph-0-4">
<path d="M 0.796875 -1.140625 C 0.828125 -0.816406 0.972656 -0.59375 1.234375 -0.46875 C 1.367188 -0.40625 1.523438 -0.375 1.703125 -0.375 C 2.035156 -0.375 2.28125 -0.476562 2.4375 -0.6875 C 2.601562 -0.90625 2.6875 -1.144531 2.6875 -1.40625 C 2.6875 -1.71875 2.585938 -1.957031 2.390625 -2.125 C 2.203125 -2.300781 1.976562 -2.390625 1.71875 -2.390625 C 1.519531 -2.390625 1.347656 -2.351562 1.203125 -2.28125 C 1.066406 -2.207031 0.953125 -2.101562 0.859375 -1.96875 L 0.375 -2 L 0.703125 -4.40625 L 3.03125 -4.40625 L 3.03125 -3.859375 L 1.125 -3.859375 L 0.9375 -2.609375 C 1.039062 -2.691406 1.140625 -2.753906 1.234375 -2.796875 C 1.398438 -2.859375 1.59375 -2.890625 1.8125 -2.890625 C 2.226562 -2.890625 2.578125 -2.757812 2.859375 -2.5 C 3.148438 -2.238281 3.296875 -1.898438 3.296875 -1.484375 C 3.296875 -1.066406 3.160156 -0.695312 2.890625 -0.375 C 2.628906 -0.0507812 2.210938 0.109375 1.640625 0.109375 C 1.273438 0.109375 0.953125 0.0078125 0.671875 -0.1875 C 0.390625 -0.394531 0.234375 -0.710938 0.203125 -1.140625 Z M 0.796875 -1.140625 "/>
</g>
<g id="glyph-0-5">
<path d="M 0.609375 -3.171875 L 0.609375 -3.609375 C 1.015625 -3.640625 1.296875 -3.703125 1.453125 -3.796875 C 1.617188 -3.890625 1.742188 -4.109375 1.828125 -4.453125 L 2.265625 -4.453125 L 2.265625 0 L 1.671875 0 L 1.671875 -3.171875 Z M 0.609375 -3.171875 "/>
</g>
<g id="glyph-0-6">
<path d="M 1.734375 -4.484375 C 2.316406 -4.484375 2.734375 -4.242188 2.984375 -3.765625 C 3.191406 -3.390625 3.296875 -2.882812 3.296875 -2.25 C 3.296875 -1.632812 3.203125 -1.128906 3.015625 -0.734375 C 2.753906 -0.160156 2.328125 0.125 1.734375 0.125 C 1.191406 0.125 0.789062 -0.109375 0.53125 -0.578125 C 0.3125 -0.960938 0.203125 -1.488281 0.203125 -2.15625 C 0.203125 -2.65625 0.265625 -3.085938 0.390625 -3.453125 C 0.640625 -4.140625 1.085938 -4.484375 1.734375 -4.484375 Z M 1.734375 -0.390625 C 2.023438 -0.390625 2.253906 -0.519531 2.421875 -0.78125 C 2.597656 -1.039062 2.6875 -1.519531 2.6875 -2.21875 C 2.6875 -2.726562 2.625 -3.144531 2.5 -3.46875 C 2.375 -3.800781 2.128906 -3.96875 1.765625 -3.96875 C 1.429688 -3.96875 1.1875 -3.8125 1.03125 -3.5 C 0.882812 -3.1875 0.8125 -2.726562 0.8125 -2.125 C 0.8125 -1.664062 0.859375 -1.300781 0.953125 -1.03125 C 1.109375 -0.601562 1.367188 -0.390625 1.734375 -0.390625 Z M 1.734375 -0.390625 "/>
</g>
<g id="glyph-1-0">
<path d="M 0.265625 0 L 0.265625 -5.734375 L 4.8125 -5.734375 L 4.8125 0 Z M 4.09375 -0.71875 L 4.09375 -5.015625 L 0.984375 -5.015625 L 0.984375 -0.71875 Z M 4.09375 -0.71875 "/>
</g>
<g id="glyph-1-1">
<path d="M 3.5625 -2.359375 L 2.6875 -4.890625 L 1.765625 -2.359375 Z M 2.28125 -5.734375 L 3.15625 -5.734375 L 5.234375 0 L 4.390625 0 L 3.8125 -1.71875 L 1.53125 -1.71875 L 0.921875 0 L 0.125 0 Z M 2.28125 -5.734375 "/>
</g>
<g id="glyph-1-2">
<path d="M 2 -4.265625 C 2.320312 -4.265625 2.609375 -4.179688 2.859375 -4.015625 C 2.984375 -3.921875 3.117188 -3.789062 3.265625 -3.625 L 3.265625 -4.140625 L 3.90625 -4.140625 L 3.90625 -0.34375 C 3.90625 0.183594 3.828125 0.609375 3.671875 0.921875 C 3.378906 1.484375 2.828125 1.765625 2.015625 1.765625 C 1.566406 1.765625 1.1875 1.664062 0.875 1.46875 C 0.570312 1.269531 0.40625 0.953125 0.375 0.515625 L 1.078125 0.515625 C 1.117188 0.703125 1.1875 0.847656 1.28125 0.953125 C 1.445312 1.109375 1.695312 1.1875 2.03125 1.1875 C 2.570312 1.1875 2.925781 1 3.09375 0.625 C 3.195312 0.394531 3.242188 -0.00390625 3.234375 -0.578125 C 3.085938 -0.367188 2.914062 -0.210938 2.71875 -0.109375 C 2.519531 -0.00390625 2.257812 0.046875 1.9375 0.046875 C 1.488281 0.046875 1.09375 -0.113281 0.75 -0.4375 C 0.40625 -0.757812 0.234375 -1.289062 0.234375 -2.03125 C 0.234375 -2.726562 0.40625 -3.273438 0.75 -3.671875 C 1.09375 -4.066406 1.507812 -4.265625 2 -4.265625 Z M 3.265625 -2.109375 C 3.265625 -2.628906 3.15625 -3.015625 2.9375 -3.265625 C 2.726562 -3.515625 2.457031 -3.640625 2.125 -3.640625 C 1.625 -3.640625 1.285156 -3.40625 1.109375 -2.9375 C 1.015625 -2.695312 0.96875 -2.375 0.96875 -1.96875 C 0.96875 -1.5 1.0625 -1.140625 1.25 -0.890625 C 1.4375 -0.648438 1.691406 -0.53125 2.015625 -0.53125 C 2.523438 -0.53125 2.882812 -0.753906 3.09375 -1.203125 C 3.207031 -1.460938 3.265625 -1.765625 3.265625 -2.109375 Z M 2.078125 -4.28125 Z M 2.078125 -4.28125 "/>
</g>
<g id="glyph-1-3">
<path d="M 2.265625 -4.28125 C 2.554688 -4.28125 2.84375 -4.207031 3.125 -4.0625 C 3.40625 -3.925781 3.617188 -3.75 3.765625 -3.53125 C 3.898438 -3.320312 3.992188 -3.078125 4.046875 -2.796875 C 4.085938 -2.597656 4.109375 -2.289062 4.109375 -1.875 L 1.03125 -1.875 C 1.050781 -1.445312 1.15625 -1.101562 1.34375 -0.84375 C 1.53125 -0.59375 1.816406 -0.46875 2.203125 -0.46875 C 2.578125 -0.46875 2.875 -0.585938 3.09375 -0.828125 C 3.21875 -0.960938 3.304688 -1.125 3.359375 -1.3125 L 4.046875 -1.3125 C 4.023438 -1.15625 3.960938 -0.984375 3.859375 -0.796875 C 3.753906 -0.609375 3.640625 -0.457031 3.515625 -0.34375 C 3.304688 -0.132812 3.039062 0.0078125 2.71875 0.09375 C 2.550781 0.132812 2.363281 0.15625 2.15625 0.15625 C 1.632812 0.15625 1.191406 -0.03125 0.828125 -0.40625 C 0.460938 -0.789062 0.28125 -1.328125 0.28125 -2.015625 C 0.28125 -2.679688 0.460938 -3.222656 0.828125 -3.640625 C 1.191406 -4.066406 1.671875 -4.28125 2.265625 -4.28125 Z M 3.375 -2.421875 C 3.351562 -2.734375 3.289062 -2.976562 3.1875 -3.15625 C 2.988281 -3.5 2.664062 -3.671875 2.21875 -3.671875 C 1.894531 -3.671875 1.625 -3.550781 1.40625 -3.3125 C 1.1875 -3.082031 1.070312 -2.785156 1.0625 -2.421875 Z M 2.1875 -4.28125 Z M 2.1875 -4.28125 "/>
</g>
<g id="glyph-1-4">
</g>
<g id="glyph-1-5">
<path d="M 2.375 -5.828125 C 1.957031 -5.035156 1.691406 -4.453125 1.578125 -4.078125 C 1.390625 -3.503906 1.296875 -2.847656 1.296875 -2.109375 C 1.296875 -1.347656 1.398438 -0.65625 1.609375 -0.03125 C 1.742188 0.351562 2 0.910156 2.375 1.640625 L 1.90625 1.640625 C 1.53125 1.046875 1.296875 0.664062 1.203125 0.5 C 1.109375 0.332031 1.007812 0.105469 0.90625 -0.171875 C 0.757812 -0.554688 0.65625 -0.96875 0.59375 -1.40625 C 0.570312 -1.632812 0.5625 -1.851562 0.5625 -2.0625 C 0.5625 -2.832031 0.679688 -3.515625 0.921875 -4.109375 C 1.078125 -4.492188 1.394531 -5.066406 1.875 -5.828125 Z M 2.375 -5.828125 "/>
</g>
<g id="glyph-1-6">
<path d="M 0.96875 -2.046875 C 0.96875 -1.597656 1.0625 -1.222656 1.25 -0.921875 C 1.4375 -0.617188 1.738281 -0.46875 2.15625 -0.46875 C 2.488281 -0.46875 2.757812 -0.609375 2.96875 -0.890625 C 3.175781 -1.171875 3.28125 -1.570312 3.28125 -2.09375 C 3.28125 -2.625 3.171875 -3.015625 2.953125 -3.265625 C 2.734375 -3.515625 2.46875 -3.640625 2.15625 -3.640625 C 1.800781 -3.640625 1.515625 -3.503906 1.296875 -3.234375 C 1.078125 -2.960938 0.96875 -2.566406 0.96875 -2.046875 Z M 2.015625 -4.265625 C 2.335938 -4.265625 2.609375 -4.195312 2.828125 -4.0625 C 2.953125 -3.976562 3.09375 -3.835938 3.25 -3.640625 L 3.25 -5.765625 L 3.921875 -5.765625 L 3.921875 0 L 3.296875 0 L 3.296875 -0.578125 C 3.128906 -0.328125 2.929688 -0.140625 2.703125 -0.015625 C 2.484375 0.0976562 2.226562 0.15625 1.9375 0.15625 C 1.476562 0.15625 1.078125 -0.0390625 0.734375 -0.4375 C 0.390625 -0.832031 0.21875 -1.351562 0.21875 -2 C 0.21875 -2.613281 0.375 -3.144531 0.6875 -3.59375 C 1 -4.039062 1.441406 -4.265625 2.015625 -4.265625 Z M 2.015625 -4.265625 "/>
</g>
<g id="glyph-1-7">
<path d="M 1.0625 -1.109375 C 1.0625 -0.910156 1.132812 -0.75 1.28125 -0.625 C 1.425781 -0.507812 1.601562 -0.453125 1.8125 -0.453125 C 2.050781 -0.453125 2.289062 -0.507812 2.53125 -0.625 C 2.914062 -0.820312 3.109375 -1.132812 3.109375 -1.5625 L 3.109375 -2.125 C 3.023438 -2.070312 2.914062 -2.023438 2.78125 -1.984375 C 2.644531 -1.953125 2.507812 -1.929688 2.375 -1.921875 L 1.953125 -1.859375 C 1.703125 -1.828125 1.507812 -1.773438 1.375 -1.703125 C 1.164062 -1.578125 1.0625 -1.378906 1.0625 -1.109375 Z M 2.765625 -2.53125 C 2.921875 -2.550781 3.023438 -2.617188 3.078125 -2.734375 C 3.109375 -2.796875 3.125 -2.890625 3.125 -3.015625 C 3.125 -3.253906 3.039062 -3.425781 2.875 -3.53125 C 2.707031 -3.632812 2.460938 -3.6875 2.140625 -3.6875 C 1.773438 -3.6875 1.515625 -3.585938 1.359375 -3.390625 C 1.273438 -3.285156 1.21875 -3.125 1.1875 -2.90625 L 0.53125 -2.90625 C 0.550781 -3.425781 0.71875 -3.785156 1.03125 -3.984375 C 1.351562 -4.179688 1.726562 -4.28125 2.15625 -4.28125 C 2.644531 -4.28125 3.046875 -4.1875 3.359375 -4 C 3.660156 -3.8125 3.8125 -3.519531 3.8125 -3.125 L 3.8125 -0.71875 C 3.8125 -0.644531 3.828125 -0.585938 3.859375 -0.546875 C 3.890625 -0.503906 3.953125 -0.484375 4.046875 -0.484375 C 4.078125 -0.484375 4.113281 -0.484375 4.15625 -0.484375 C 4.195312 -0.484375 4.238281 -0.488281 4.28125 -0.5 L 4.28125 0.015625 C 4.164062 0.046875 4.078125 0.0664062 4.015625 0.078125 C 3.960938 0.0859375 3.890625 0.09375 3.796875 0.09375 C 3.554688 0.09375 3.378906 0.00390625 3.265625 -0.171875 C 3.210938 -0.265625 3.171875 -0.394531 3.140625 -0.5625 C 3.003906 -0.375 2.800781 -0.207031 2.53125 -0.0625 C 2.257812 0.0703125 1.960938 0.140625 1.640625 0.140625 C 1.253906 0.140625 0.9375 0.0234375 0.6875 -0.203125 C 0.445312 -0.441406 0.328125 -0.738281 0.328125 -1.09375 C 0.328125 -1.488281 0.445312 -1.789062 0.6875 -2 C 0.925781 -2.21875 1.242188 -2.347656 1.640625 -2.390625 Z M 2.171875 -4.28125 Z M 2.171875 -4.28125 "/>
</g>
<g id="glyph-1-8">
<path d="M 3.125 -4.1875 L 3.90625 -4.1875 C 3.8125 -3.914062 3.59375 -3.300781 3.25 -2.34375 C 2.988281 -1.625 2.773438 -1.039062 2.609375 -0.59375 C 2.203125 0.476562 1.914062 1.128906 1.75 1.359375 C 1.582031 1.597656 1.296875 1.71875 0.890625 1.71875 C 0.785156 1.71875 0.707031 1.710938 0.65625 1.703125 C 0.601562 1.691406 0.539062 1.675781 0.46875 1.65625 L 0.46875 1.015625 C 0.582031 1.054688 0.664062 1.078125 0.71875 1.078125 C 0.78125 1.085938 0.832031 1.09375 0.875 1.09375 C 1 1.09375 1.09375 1.070312 1.15625 1.03125 C 1.21875 0.988281 1.269531 0.9375 1.3125 0.875 C 1.320312 0.851562 1.367188 0.742188 1.453125 0.546875 C 1.535156 0.359375 1.59375 0.21875 1.625 0.125 L 0.078125 -4.1875 L 0.875 -4.1875 L 2 -0.78125 Z M 2 -4.28125 Z M 2 -4.28125 "/>
</g>
<g id="glyph-1-9">
<path d="M 0.9375 -1.3125 C 0.957031 -1.082031 1.015625 -0.90625 1.109375 -0.78125 C 1.285156 -0.550781 1.59375 -0.4375 2.03125 -0.4375 C 2.289062 -0.4375 2.519531 -0.492188 2.71875 -0.609375 C 2.914062 -0.722656 3.015625 -0.894531 3.015625 -1.125 C 3.015625 -1.3125 2.9375 -1.453125 2.78125 -1.546875 C 2.675781 -1.597656 2.472656 -1.660156 2.171875 -1.734375 L 1.625 -1.875 C 1.257812 -1.96875 0.992188 -2.066406 0.828125 -2.171875 C 0.523438 -2.367188 0.375 -2.632812 0.375 -2.96875 C 0.375 -3.363281 0.515625 -3.679688 0.796875 -3.921875 C 1.085938 -4.171875 1.472656 -4.296875 1.953125 -4.296875 C 2.585938 -4.296875 3.039062 -4.109375 3.3125 -3.734375 C 3.488281 -3.503906 3.578125 -3.253906 3.578125 -2.984375 L 2.90625 -2.984375 C 2.894531 -3.140625 2.835938 -3.285156 2.734375 -3.421875 C 2.578125 -3.597656 2.300781 -3.6875 1.90625 -3.6875 C 1.632812 -3.6875 1.429688 -3.632812 1.296875 -3.53125 C 1.160156 -3.4375 1.09375 -3.304688 1.09375 -3.140625 C 1.09375 -2.953125 1.179688 -2.804688 1.359375 -2.703125 C 1.460938 -2.640625 1.617188 -2.582031 1.828125 -2.53125 L 2.28125 -2.421875 C 2.789062 -2.296875 3.128906 -2.175781 3.296875 -2.0625 C 3.578125 -1.882812 3.71875 -1.601562 3.71875 -1.21875 C 3.71875 -0.84375 3.570312 -0.519531 3.28125 -0.25 C 3 0.0195312 2.570312 0.15625 2 0.15625 C 1.375 0.15625 0.929688 0.0117188 0.671875 -0.265625 C 0.410156 -0.546875 0.273438 -0.894531 0.265625 -1.3125 Z M 1.96875 -4.28125 Z M 1.96875 -4.28125 "/>
</g>
<g id="glyph-1-10">
<path d="M 0.28125 1.640625 C 0.695312 0.828125 0.960938 0.230469 1.078125 -0.140625 C 1.265625 -0.691406 1.359375 -1.347656 1.359375 -2.109375 C 1.359375 -2.859375 1.25 -3.546875 1.03125 -4.171875 C 0.90625 -4.554688 0.648438 -5.109375 0.265625 -5.828125 L 0.734375 -5.828125 C 1.140625 -5.191406 1.382812 -4.796875 1.46875 -4.640625 C 1.550781 -4.492188 1.644531 -4.289062 1.75 -4.03125 C 1.875 -3.707031 1.960938 -3.382812 2.015625 -3.0625 C 2.066406 -2.75 2.09375 -2.441406 2.09375 -2.140625 C 2.09375 -1.367188 1.96875 -0.679688 1.71875 -0.078125 C 1.570312 0.304688 1.253906 0.878906 0.765625 1.640625 Z M 0.28125 1.640625 "/>
</g>
<g id="glyph-2-0">
<path d="M 0 -0.265625 L -5.734375 -0.265625 L -5.734375 -4.8125 L 0 -4.8125 Z M -0.71875 -4.09375 L -5.015625 -4.09375 L -5.015625 -0.984375 L -0.71875 -0.984375 Z M -0.71875 -4.09375 "/>
</g>
<g id="glyph-2-1">
<path d="M -5.734375 -0.984375 L -1.078125 -2.078125 L -5.734375 -3.375 L -5.734375 -4.21875 L -1.078125 -5.515625 L -5.734375 -6.59375 L -5.734375 -7.4375 L 0 -5.9375 L 0 -5.125 L -4.765625 -3.796875 L 0 -2.46875 L 0 -1.640625 L -5.734375 -0.140625 Z M -5.734375 -0.984375 "/>
</g>
<g id="glyph-2-2">
<path d="M -4.171875 -0.515625 L -4.171875 -1.234375 L 0 -1.234375 L 0 -0.515625 Z M -5.734375 -0.515625 L -5.734375 -1.234375 L -4.9375 -1.234375 L -4.9375 -0.515625 Z M -5.734375 -0.515625 "/>
</g>
<g id="glyph-2-3">
<path d="M -4.1875 -0.515625 L -4.1875 -1.1875 L -3.59375 -1.1875 C -3.832031 -1.382812 -4.003906 -1.59375 -4.109375 -1.8125 C -4.222656 -2.03125 -4.28125 -2.273438 -4.28125 -2.546875 C -4.28125 -3.140625 -4.070312 -3.539062 -3.65625 -3.75 C -3.425781 -3.863281 -3.101562 -3.921875 -2.6875 -3.921875 L 0 -3.921875 L 0 -3.21875 L -2.640625 -3.21875 C -2.890625 -3.21875 -3.09375 -3.175781 -3.25 -3.09375 C -3.507812 -2.96875 -3.640625 -2.742188 -3.640625 -2.421875 C -3.640625 -2.253906 -3.625 -2.117188 -3.59375 -2.015625 C -3.539062 -1.816406 -3.425781 -1.644531 -3.25 -1.5 C -3.113281 -1.382812 -2.972656 -1.304688 -2.828125 -1.265625 C -2.679688 -1.234375 -2.46875 -1.21875 -2.1875 -1.21875 L 0 -1.21875 L 0 -0.515625 Z M -4.28125 -2.171875 Z M -4.28125 -2.171875 "/>
</g>
<g id="glyph-2-4">
<path d="M -4.265625 -2 C -4.265625 -2.320312 -4.179688 -2.609375 -4.015625 -2.859375 C -3.921875 -2.984375 -3.789062 -3.117188 -3.625 -3.265625 L -4.140625 -3.265625 L -4.140625 -3.90625 L -0.34375 -3.90625 C 0.183594 -3.90625 0.609375 -3.828125 0.921875 -3.671875 C 1.484375 -3.378906 1.765625 -2.828125 1.765625 -2.015625 C 1.765625 -1.566406 1.664062 -1.1875 1.46875 -0.875 C 1.269531 -0.570312 0.953125 -0.40625 0.515625 -0.375 L 0.515625 -1.078125 C 0.703125 -1.117188 0.847656 -1.1875 0.953125 -1.28125 C 1.109375 -1.445312 1.1875 -1.695312 1.1875 -2.03125 C 1.1875 -2.570312 1 -2.925781 0.625 -3.09375 C 0.394531 -3.195312 -0.00390625 -3.242188 -0.578125 -3.234375 C -0.367188 -3.085938 -0.210938 -2.914062 -0.109375 -2.71875 C -0.00390625 -2.519531 0.046875 -2.257812 0.046875 -1.9375 C 0.046875 -1.488281 -0.113281 -1.09375 -0.4375 -0.75 C -0.757812 -0.40625 -1.289062 -0.234375 -2.03125 -0.234375 C -2.726562 -0.234375 -3.273438 -0.40625 -3.671875 -0.75 C -4.066406 -1.09375 -4.265625 -1.507812 -4.265625 -2 Z M -2.109375 -3.265625 C -2.628906 -3.265625 -3.015625 -3.15625 -3.265625 -2.9375 C -3.515625 -2.726562 -3.640625 -2.457031 -3.640625 -2.125 C -3.640625 -1.625 -3.40625 -1.285156 -2.9375 -1.109375 C -2.695312 -1.015625 -2.375 -0.96875 -1.96875 -0.96875 C -1.5 -0.96875 -1.140625 -1.0625 -0.890625 -1.25 C -0.648438 -1.4375 -0.53125 -1.691406 -0.53125 -2.015625 C -0.53125 -2.523438 -0.753906 -2.882812 -1.203125 -3.09375 C -1.460938 -3.207031 -1.765625 -3.265625 -2.109375 -3.265625 Z M -4.28125 -2.078125 Z M -4.28125 -2.078125 "/>
</g>
<g id="glyph-2-5">
</g>
<g id="glyph-2-6">
<path d="M -5.734375 -0.53125 L -5.734375 -1.234375 L 0 -1.234375 L 0 -0.53125 Z M -5.734375 -0.53125 "/>
</g>
<g id="glyph-2-7">
<path d="M -4.28125 -2.265625 C -4.28125 -2.554688 -4.207031 -2.84375 -4.0625 -3.125 C -3.925781 -3.40625 -3.75 -3.617188 -3.53125 -3.765625 C -3.320312 -3.898438 -3.078125 -3.992188 -2.796875 -4.046875 C -2.597656 -4.085938 -2.289062 -4.109375 -1.875 -4.109375 L -1.875 -1.03125 C -1.445312 -1.050781 -1.101562 -1.15625 -0.84375 -1.34375 C -0.59375 -1.53125 -0.46875 -1.816406 -0.46875 -2.203125 C -0.46875 -2.578125 -0.585938 -2.875 -0.828125 -3.09375 C -0.960938 -3.21875 -1.125 -3.304688 -1.3125 -3.359375 L -1.3125 -4.046875 C -1.15625 -4.023438 -0.984375 -3.960938 -0.796875 -3.859375 C -0.609375 -3.753906 -0.457031 -3.640625 -0.34375 -3.515625 C -0.132812 -3.304688 0.0078125 -3.039062 0.09375 -2.71875 C 0.132812 -2.550781 0.15625 -2.363281 0.15625 -2.15625 C 0.15625 -1.632812 -0.03125 -1.191406 -0.40625 -0.828125 C -0.789062 -0.460938 -1.328125 -0.28125 -2.015625 -0.28125 C -2.679688 -0.28125 -3.222656 -0.460938 -3.640625 -0.828125 C -4.066406 -1.191406 -4.28125 -1.671875 -4.28125 -2.265625 Z M -2.421875 -3.375 C -2.734375 -3.351562 -2.976562 -3.289062 -3.15625 -3.1875 C -3.5 -2.988281 -3.671875 -2.664062 -3.671875 -2.21875 C -3.671875 -1.894531 -3.550781 -1.625 -3.3125 -1.40625 C -3.082031 -1.1875 -2.785156 -1.070312 -2.421875 -1.0625 Z M -4.28125 -2.1875 Z M -4.28125 -2.1875 "/>
</g>
<g id="glyph-2-8">
<path d="M -5.359375 -0.65625 L -5.359375 -1.375 L -4.1875 -1.375 L -4.1875 -2.03125 L -3.609375 -2.03125 L -3.609375 -1.375 L -0.875 -1.375 C -0.726562 -1.375 -0.632812 -1.421875 -0.59375 -1.515625 C -0.5625 -1.566406 -0.546875 -1.660156 -0.546875 -1.796875 C -0.546875 -1.828125 -0.546875 -1.859375 -0.546875 -1.890625 C -0.546875 -1.929688 -0.550781 -1.976562 -0.5625 -2.03125 L 0 -2.03125 C 0.0195312 -1.957031 0.0351562 -1.875 0.046875 -1.78125 C 0.0546875 -1.695312 0.0625 -1.601562 0.0625 -1.5 C 0.0625 -1.175781 -0.0195312 -0.953125 -0.1875 -0.828125 C -0.351562 -0.710938 -0.570312 -0.65625 -0.84375 -0.65625 L -3.609375 -0.65625 L -3.609375 -0.09375 L -4.1875 -0.09375 L -4.1875 -0.65625 Z M -5.359375 -0.65625 "/>
</g>
<g id="glyph-2-9">
<path d="M -5.765625 -0.515625 L -5.765625 -1.21875 L -3.625 -1.21875 C -3.832031 -1.382812 -3.976562 -1.535156 -4.0625 -1.671875 C -4.207031 -1.898438 -4.28125 -2.179688 -4.28125 -2.515625 C -4.28125 -3.117188 -4.070312 -3.53125 -3.65625 -3.75 C -3.414062 -3.863281 -3.09375 -3.921875 -2.6875 -3.921875 L 0 -3.921875 L 0 -3.203125 L -2.640625 -3.203125 C -2.941406 -3.203125 -3.164062 -3.164062 -3.3125 -3.09375 C -3.539062 -2.957031 -3.65625 -2.71875 -3.65625 -2.375 C -3.65625 -2.082031 -3.554688 -1.816406 -3.359375 -1.578125 C -3.160156 -1.335938 -2.78125 -1.21875 -2.21875 -1.21875 L 0 -1.21875 L 0 -0.515625 Z M -5.765625 -0.515625 "/>
</g>
<g id="glyph-2-10">
<path d="M -5.828125 -2.375 C -5.035156 -1.957031 -4.453125 -1.691406 -4.078125 -1.578125 C -3.503906 -1.390625 -2.847656 -1.296875 -2.109375 -1.296875 C -1.347656 -1.296875 -0.65625 -1.398438 -0.03125 -1.609375 C 0.351562 -1.742188 0.910156 -2 1.640625 -2.375 L 1.640625 -1.90625 C 1.046875 -1.53125 0.664062 -1.296875 0.5 -1.203125 C 0.332031 -1.109375 0.105469 -1.007812 -0.171875 -0.90625 C -0.554688 -0.757812 -0.96875 -0.65625 -1.40625 -0.59375 C -1.632812 -0.570312 -1.851562 -0.5625 -2.0625 -0.5625 C -2.832031 -0.5625 -3.515625 -0.679688 -4.109375 -0.921875 C -4.492188 -1.078125 -5.066406 -1.394531 -5.828125 -1.875 Z M -5.828125 -2.375 "/>
</g>
<g id="glyph-2-11">
<path d="M -4.3125 -2.125 C -4.3125 -2.601562 -4.195312 -2.988281 -3.96875 -3.28125 C -3.738281 -3.570312 -3.34375 -3.75 -2.78125 -3.8125 L -2.78125 -3.125 C -3.039062 -3.082031 -3.253906 -2.988281 -3.421875 -2.84375 C -3.585938 -2.695312 -3.671875 -2.457031 -3.671875 -2.125 C -3.671875 -1.675781 -3.453125 -1.359375 -3.015625 -1.171875 C -2.734375 -1.046875 -2.382812 -0.984375 -1.96875 -0.984375 C -1.550781 -0.984375 -1.195312 -1.070312 -0.90625 -1.25 C -0.625 -1.425781 -0.484375 -1.703125 -0.484375 -2.078125 C -0.484375 -2.367188 -0.570312 -2.597656 -0.75 -2.765625 C -0.925781 -2.941406 -1.171875 -3.0625 -1.484375 -3.125 L -1.484375 -3.8125 C -0.929688 -3.738281 -0.523438 -3.546875 -0.265625 -3.234375 C -0.00390625 -2.921875 0.125 -2.519531 0.125 -2.03125 C 0.125 -1.476562 -0.0703125 -1.039062 -0.46875 -0.71875 C -0.875 -0.394531 -1.378906 -0.234375 -1.984375 -0.234375 C -2.710938 -0.234375 -3.28125 -0.410156 -3.6875 -0.765625 C -4.101562 -1.117188 -4.3125 -1.570312 -4.3125 -2.125 Z M -4.28125 -2.015625 Z M -4.28125 -2.015625 "/>
</g>
<g id="glyph-2-12">
<path d="M -4.1875 -0.515625 L -4.1875 -1.21875 L -3.59375 -1.21875 C -3.800781 -1.382812 -3.953125 -1.535156 -4.046875 -1.671875 C -4.203125 -1.898438 -4.28125 -2.160156 -4.28125 -2.453125 C -4.28125 -2.785156 -4.195312 -3.054688 -4.03125 -3.265625 C -3.9375 -3.378906 -3.800781 -3.484375 -3.625 -3.578125 C -3.84375 -3.734375 -4.003906 -3.914062 -4.109375 -4.125 C -4.222656 -4.332031 -4.28125 -4.566406 -4.28125 -4.828125 C -4.28125 -5.390625 -4.078125 -5.773438 -3.671875 -5.984375 C -3.453125 -6.085938 -3.15625 -6.140625 -2.78125 -6.140625 L 0 -6.140625 L 0 -5.421875 L -2.90625 -5.421875 C -3.1875 -5.421875 -3.378906 -5.347656 -3.484375 -5.203125 C -3.585938 -5.066406 -3.640625 -4.898438 -3.640625 -4.703125 C -3.640625 -4.421875 -3.546875 -4.179688 -3.359375 -3.984375 C -3.171875 -3.785156 -2.863281 -3.6875 -2.4375 -3.6875 L 0 -3.6875 L 0 -2.96875 L -2.734375 -2.96875 C -3.015625 -2.96875 -3.222656 -2.9375 -3.359375 -2.875 C -3.546875 -2.757812 -3.640625 -2.554688 -3.640625 -2.265625 C -3.640625 -2.003906 -3.535156 -1.765625 -3.328125 -1.546875 C -3.128906 -1.328125 -2.757812 -1.21875 -2.21875 -1.21875 L 0 -1.21875 L 0 -0.515625 Z M -4.1875 -0.515625 "/>
</g>
<g id="glyph-2-13">
<path d="M 1.640625 -0.28125 C 0.828125 -0.695312 0.230469 -0.960938 -0.140625 -1.078125 C -0.691406 -1.265625 -1.347656 -1.359375 -2.109375 -1.359375 C -2.859375 -1.359375 -3.546875 -1.25 -4.171875 -1.03125 C -4.554688 -0.90625 -5.109375 -0.648438 -5.828125 -0.265625 L -5.828125 -0.734375 C -5.191406 -1.140625 -4.796875 -1.382812 -4.640625 -1.46875 C -4.492188 -1.550781 -4.289062 -1.644531 -4.03125 -1.75 C -3.707031 -1.875 -3.382812 -1.960938 -3.0625 -2.015625 C -2.75 -2.066406 -2.441406 -2.09375 -2.140625 -2.09375 C -1.367188 -2.09375 -0.679688 -1.96875 -0.078125 -1.71875 C 0.304688 -1.570312 0.878906 -1.253906 1.640625 -0.765625 Z M 1.640625 -0.28125 "/>
</g>
</g>
<clipPath id="clip-0">
<path clip-rule="nonzero" d="M 21.5625 3.984375 L 284.011719 3.984375 L 284.011719 191.433594 L 21.5625 191.433594 Z M 21.5625 3.984375 "/>
</clipPath>
<clipPath id="clip-1">
<path clip-rule="nonzero" d="M 21.5625 173 L 284.011719 173 L 284.011719 175 L 21.5625 175 Z M 21.5625 173 "/>
</clipPath>
<clipPath id="clip-2">
<path clip-rule="nonzero" d="M 21.5625 133 L 284.011719 133 L 284.011719 135 L 21.5625 135 Z M 21.5625 133 "/>
</clipPath>
<clipPath id="clip-3">
<path clip-rule="nonzero" d="M 21.5625 94 L 284.011719 94 L 284.011719 95 L 21.5625 95 Z M 21.5625 94 "/>
</clipPath>
<clipPath id="clip-4">
<path clip-rule="nonzero" d="M 21.5625 54 L 284.011719 54 L 284.011719 55 L 21.5625 55 Z M 21.5625 54 "/>
</clipPath>
<clipPath id="clip-5">
<path clip-rule="nonzero" d="M 21.5625 14 L 284.011719 14 L 284.011719 15 L 21.5625 15 Z M 21.5625 14 "/>
</clipPath>
<clipPath id="clip-6">
<path clip-rule="nonzero" d="M 24 3.984375 L 26 3.984375 L 26 191.433594 L 24 191.433594 Z M 24 3.984375 "/>
</clipPath>
<clipPath id="clip-7">
<path clip-rule="nonzero" d="M 109 3.984375 L 111 3.984375 L 111 191.433594 L 109 191.433594 Z M 109 3.984375 "/>
</clipPath>
<clipPath id="clip-8">
<path clip-rule="nonzero" d="M 195 3.984375 L 196 3.984375 L 196 191.433594 L 195 191.433594 Z M 195 3.984375 "/>
</clipPath>
<clipPath id="clip-9">
<path clip-rule="nonzero" d="M 280 3.984375 L 281 3.984375 L 281 191.433594 L 280 191.433594 Z M 280 3.984375 "/>
</clipPath>
<clipPath id="clip-10">
<path clip-rule="nonzero" d="M 21.5625 153 L 284.011719 153 L 284.011719 155 L 21.5625 155 Z M 21.5625 153 "/>
</clipPath>
<clipPath id="clip-11">
<path clip-rule="nonzero" d="M 21.5625 113 L 284.011719 113 L 284.011719 115 L 21.5625 115 Z M 21.5625 113 "/>
</clipPath>
<clipPath id="clip-12">
<path clip-rule="nonzero" d="M 21.5625 74 L 284.011719 74 L 284.011719 75 L 21.5625 75 Z M 21.5625 74 "/>
</clipPath>
<clipPath id="clip-13">
<path clip-rule="nonzero" d="M 21.5625 34 L 284.011719 34 L 284.011719 35 L 21.5625 35 Z M 21.5625 34 "/>
</clipPath>
<clipPath id="clip-14">
<path clip-rule="nonzero" d="M 67 3.984375 L 68 3.984375 L 68 191.433594 L 67 191.433594 Z M 67 3.984375 "/>
</clipPath>
<clipPath id="clip-15">
<path clip-rule="nonzero" d="M 152 3.984375 L 154 3.984375 L 154 191.433594 L 152 191.433594 Z M 152 3.984375 "/>
</clipPath>
<clipPath id="clip-16">
<path clip-rule="nonzero" d="M 237 3.984375 L 239 3.984375 L 239 191.433594 L 237 191.433594 Z M 237 3.984375 "/>
</clipPath>
</defs>
<rect x="-28.8" y="-21.6" width="345.6" height="259.2" fill="rgb(100%, 100%, 100%)" fill-opacity="1"/>
<rect x="-28.8" y="-21.6" width="345.6" height="259.2" fill="rgb(100%, 100%, 100%)" fill-opacity="1"/>
<path fill="none" stroke-width="0.775984" stroke-linecap="round" stroke-linejoin="round" stroke="rgb(100%, 100%, 100%)" stroke-opacity="1" stroke-miterlimit="10" d="M 0 216 L 288 216 L 288 0 L 0 0 Z M 0 216 "/>
<g clip-path="url(#clip-0)">
<path fill-rule="nonzero" fill="rgb(92.156863%, 92.156863%, 92.156863%)" fill-opacity="1" d="M 21.5625 191.4375 L 284.011719 191.4375 L 284.011719 3.988281 L 21.5625 3.988281 Z M 21.5625 191.4375 "/>
</g>
<g clip-path="url(#clip-1)">
<path fill="none" stroke-width="0.387992" stroke-linecap="butt" stroke-linejoin="round" stroke="rgb(100%, 100%, 100%)" stroke-opacity="1" stroke-miterlimit="10" d="M 21.5625 174.023438 L 284.015625 174.023438 "/>
</g>
<g clip-path="url(#clip-2)">
<path fill="none" stroke-width="0.387992" stroke-linecap="butt" stroke-linejoin="round" stroke="rgb(100%, 100%, 100%)" stroke-opacity="1" stroke-miterlimit="10" d="M 21.5625 134.179688 L 284.015625 134.179688 "/>
</g>
<g clip-path="url(#clip-3)">
<path fill="none" stroke-width="0.387992" stroke-linecap="butt" stroke-linejoin="round" stroke="rgb(100%, 100%, 100%)" stroke-opacity="1" stroke-miterlimit="10" d="M 21.5625 94.339844 L 284.015625 94.339844 "/>
</g>
<g clip-path="url(#clip-4)">
<path fill="none" stroke-width="0.387992" stroke-linecap="butt" stroke-linejoin="round" stroke="rgb(100%, 100%, 100%)" stroke-opacity="1" stroke-miterlimit="10" d="M 21.5625 54.496094 L 284.015625 54.496094 "/>
</g>
<g clip-path="url(#clip-5)">
<path fill="none" stroke-width="0.387992" stroke-linecap="butt" stroke-linejoin="round" stroke="rgb(100%, 100%, 100%)" stroke-opacity="1" stroke-miterlimit="10" d="M 21.5625 14.65625 L 284.015625 14.65625 "/>
</g>
<g clip-path="url(#clip-6)">
<path fill="none" stroke-width="0.387992" stroke-linecap="butt" stroke-linejoin="round" stroke="rgb(100%, 100%, 100%)" stroke-opacity="1" stroke-miterlimit="10" d="M 24.972656 191.4375 L 24.972656 3.984375 "/>
</g>
<g clip-path="url(#clip-7)">
<path fill="none" stroke-width="0.387992" stroke-linecap="butt" stroke-linejoin="round" stroke="rgb(100%, 100%, 100%)" stroke-opacity="1" stroke-miterlimit="10" d="M 110.183594 191.4375 L 110.183594 3.984375 "/>
</g>
<g clip-path="url(#clip-8)">
<path fill="none" stroke-width="0.387992" stroke-linecap="butt" stroke-linejoin="round" stroke="rgb(100%, 100%, 100%)" stroke-opacity="1" stroke-miterlimit="10" d="M 195.394531 191.4375 L 195.394531 3.984375 "/>
</g>
<g clip-path="url(#clip-9)">
<path fill="none" stroke-width="0.387992" stroke-linecap="butt" stroke-linejoin="round" stroke="rgb(100%, 100%, 100%)" stroke-opacity="1" stroke-miterlimit="10" d="M 280.605469 191.4375 L 280.605469 3.984375 "/>
</g>
<g clip-path="url(#clip-10)">
<path fill="none" stroke-width="0.775984" stroke-linecap="butt" stroke-linejoin="round" stroke="rgb(100%, 100%, 100%)" stroke-opacity="1" stroke-miterlimit="10" d="M 21.5625 154.101562 L 284.015625 154.101562 "/>
</g>
<g clip-path="url(#clip-11)">
<path fill="none" stroke-width="0.775984" stroke-linecap="butt" stroke-linejoin="round" stroke="rgb(100%, 100%, 100%)" stroke-opacity="1" stroke-miterlimit="10" d="M 21.5625 114.261719 L 284.015625 114.261719 "/>
</g>
<g clip-path="url(#clip-12)">
<path fill="none" stroke-width="0.775984" stroke-linecap="butt" stroke-linejoin="round" stroke="rgb(100%, 100%, 100%)" stroke-opacity="1" stroke-miterlimit="10" d="M 21.5625 74.417969 L 284.015625 74.417969 "/>
</g>
<g clip-path="url(#clip-13)">
<path fill="none" stroke-width="0.775984" stroke-linecap="butt" stroke-linejoin="round" stroke="rgb(100%, 100%, 100%)" stroke-opacity="1" stroke-miterlimit="10" d="M 21.5625 34.578125 L 284.015625 34.578125 "/>
</g>
<g clip-path="url(#clip-14)">
<path fill="none" stroke-width="0.775984" stroke-linecap="butt" stroke-linejoin="round" stroke="rgb(100%, 100%, 100%)" stroke-opacity="1" stroke-miterlimit="10" d="M 67.578125 191.4375 L 67.578125 3.984375 "/>
</g>
<g clip-path="url(#clip-15)">
<path fill="none" stroke-width="0.775984" stroke-linecap="butt" stroke-linejoin="round" stroke="rgb(100%, 100%, 100%)" stroke-opacity="1" stroke-miterlimit="10" d="M 152.789062 191.4375 L 152.789062 3.984375 "/>
</g>
<g clip-path="url(#clip-16)">
<path fill="none" stroke-width="0.775984" stroke-linecap="butt" stroke-linejoin="round" stroke="rgb(100%, 100%, 100%)" stroke-opacity="1" stroke-miterlimit="10" d="M 238 191.4375 L 238 3.984375 "/>
</g>
<path fill-rule="nonzero" fill="rgb(11.764706%, 56.470588%, 100%)" fill-opacity="0.4" d="M 33.492188 163.234375 L 36.515625 161.503906 L 45.574219 156.300781 L 48.59375 154.5625 L 54.632812 151.078125 L 57.65625 149.335938 L 63.695312 145.84375 L 66.714844 144.09375 L 72.753906 140.585938 L 75.777344 138.828125 L 78.796875 137.066406 L 84.835938 133.535156 L 87.855469 131.765625 L 90.875 129.992188 L 93.898438 128.210938 L 96.917969 126.429688 L 99.9375 124.644531 L 105.976562 121.058594 L 112.015625 117.449219 L 115.039062 115.636719 L 118.058594 113.820312 L 121.078125 111.996094 L 124.097656 110.164062 L 127.117188 108.324219 L 130.136719 106.480469 L 133.160156 104.628906 L 136.179688 102.769531 L 139.199219 100.902344 L 142.21875 99.027344 L 145.238281 97.144531 L 148.257812 95.25 L 151.28125 93.351562 L 154.300781 91.445312 L 157.320312 89.527344 L 160.339844 87.601562 L 163.359375 85.671875 L 166.378906 83.730469 L 169.398438 81.78125 L 172.421875 79.824219 L 175.441406 77.859375 L 178.460938 75.890625 L 181.480469 73.910156 L 184.5 71.925781 L 187.519531 69.933594 L 190.542969 67.9375 L 193.5625 65.933594 L 196.582031 63.925781 L 199.601562 61.910156 L 202.621094 59.890625 L 205.640625 57.863281 L 208.664062 55.835938 L 211.683594 53.800781 L 217.722656 49.722656 L 223.761719 45.628906 L 226.78125 43.574219 L 229.804688 41.519531 L 235.84375 37.402344 L 244.902344 31.203125 L 247.925781 29.132812 L 250.945312 27.0625 L 253.964844 24.984375 L 256.984375 22.910156 L 263.023438 18.753906 L 266.046875 16.671875 L 269.066406 14.589844 L 272.085938 12.503906 L 272.085938 32.183594 L 266.046875 35.652344 L 263.023438 37.386719 L 260.003906 39.121094 L 256.984375 40.859375 L 253.964844 42.601562 L 250.945312 44.339844 L 247.925781 46.085938 L 244.902344 47.832031 L 241.882812 49.578125 L 238.863281 51.328125 L 232.824219 54.835938 L 229.804688 56.59375 L 226.78125 58.355469 L 223.761719 60.117188 L 217.722656 63.65625 L 214.703125 65.429688 L 211.683594 67.207031 L 208.664062 68.992188 L 205.640625 70.777344 L 202.621094 72.566406 L 199.601562 74.363281 L 196.582031 76.164062 L 193.5625 77.972656 L 190.542969 79.785156 L 187.519531 81.601562 L 184.5 83.425781 L 181.480469 85.257812 L 178.460938 87.09375 L 175.441406 88.941406 L 172.421875 90.792969 L 169.398438 92.652344 L 166.378906 94.519531 L 163.359375 96.394531 L 160.339844 98.277344 L 157.320312 100.167969 L 154.300781 102.070312 L 151.28125 103.976562 L 148.257812 105.894531 L 145.238281 107.816406 L 142.21875 109.75 L 139.199219 111.691406 L 136.179688 113.640625 L 133.160156 115.597656 L 130.136719 117.558594 L 127.117188 119.53125 L 124.097656 121.507812 L 118.058594 125.484375 L 115.039062 127.484375 L 112.015625 129.488281 L 108.996094 131.496094 L 105.976562 133.511719 L 102.957031 135.53125 L 99.9375 137.554688 L 96.917969 139.585938 L 93.898438 141.621094 L 90.875 143.65625 L 87.855469 145.699219 L 81.816406 149.792969 L 75.777344 153.902344 L 72.753906 155.960938 L 69.734375 158.019531 L 66.714844 160.082031 L 63.695312 162.148438 L 57.65625 166.289062 L 54.632812 168.359375 L 51.613281 170.433594 L 42.554688 176.667969 L 36.515625 180.832031 L 33.492188 182.914062 Z M 33.492188 163.234375 "/>
<path fill="none" stroke-width="0.853583" stroke-linecap="butt" stroke-linejoin="round" stroke="rgb(0%, 0%, 0%)" stroke-opacity="1" stroke-miterlimit="10" d="M 33.492188 173.074219 L 36.515625 171.167969 L 39.535156 169.261719 L 42.554688 167.351562 L 45.574219 165.445312 L 48.59375 163.535156 L 51.613281 161.628906 L 54.632812 159.71875 L 57.65625 157.8125 L 60.675781 155.902344 L 66.714844 152.089844 L 69.734375 150.179688 L 72.753906 148.273438 L 75.777344 146.363281 L 78.796875 144.457031 L 81.816406 142.546875 L 84.835938 140.640625 L 87.855469 138.730469 L 90.875 136.824219 L 93.898438 134.917969 L 96.917969 133.007812 L 99.9375 131.101562 L 102.957031 129.191406 L 105.976562 127.285156 L 108.996094 125.375 L 112.015625 123.46875 L 115.039062 121.558594 L 121.078125 117.746094 L 124.097656 115.835938 L 127.117188 113.929688 L 130.136719 112.019531 L 133.160156 110.113281 L 136.179688 108.203125 L 139.199219 106.296875 L 142.21875 104.386719 L 148.257812 100.574219 L 151.28125 98.664062 L 154.300781 96.757812 L 157.320312 94.847656 L 160.339844 92.941406 L 163.359375 91.03125 L 166.378906 89.125 L 169.398438 87.214844 L 172.421875 85.308594 L 175.441406 83.402344 L 178.460938 81.492188 L 181.480469 79.585938 L 184.5 77.675781 L 187.519531 75.769531 L 190.542969 73.859375 L 193.5625 71.953125 L 196.582031 70.042969 L 202.621094 66.230469 L 205.640625 64.320312 L 208.664062 62.414062 L 211.683594 60.503906 L 214.703125 58.597656 L 217.722656 56.6875 L 220.742188 54.78125 L 223.761719 52.871094 L 226.78125 50.964844 L 229.804688 49.058594 L 232.824219 47.148438 L 235.84375 45.242188 L 238.863281 43.332031 L 241.882812 41.425781 L 244.902344 39.515625 L 247.925781 37.609375 L 250.945312 35.699219 L 256.984375 31.886719 L 260.003906 29.976562 L 263.023438 28.070312 L 266.046875 26.160156 L 269.066406 24.253906 L 272.085938 22.34375 "/>
<path fill="none" stroke-width="0.51539" stroke-linecap="round" stroke-linejoin="round" stroke="rgb(80.392157%, 36.078431%, 36.078431%)" stroke-opacity="1" stroke-miterlimit="10" d="M 34.914062 178.007812 C 34.914062 179.902344 32.070312 179.902344 32.070312 178.007812 C 32.070312 176.113281 34.914062 176.113281 34.914062 178.007812 "/>
<path fill="none" stroke-width="0.51539" stroke-linecap="round" stroke-linejoin="round" stroke="rgb(80.392157%, 36.078431%, 36.078431%)" stroke-opacity="1" stroke-miterlimit="10" d="M 51.957031 174.023438 C 51.957031 175.917969 49.113281 175.917969 49.113281 174.023438 C 49.113281 172.128906 51.957031 172.128906 51.957031 174.023438 "/>
<path fill="none" stroke-width="0.51539" stroke-linecap="round" stroke-linejoin="round" stroke="rgb(80.392157%, 36.078431%, 36.078431%)" stroke-opacity="1" stroke-miterlimit="10" d="M 69 146.132812 C 69 148.03125 66.15625 148.03125 66.15625 146.132812 C 66.15625 144.238281 69 144.238281 69 146.132812 "/>
<path fill="none" stroke-width="0.51539" stroke-linecap="round" stroke-linejoin="round" stroke="rgb(80.392157%, 36.078431%, 36.078431%)" stroke-opacity="1" stroke-miterlimit="10" d="M 86.042969 138.164062 C 86.042969 140.0625 83.199219 140.0625 83.199219 138.164062 C 83.199219 136.269531 86.042969 136.269531 86.042969 138.164062 "/>
<path fill="none" stroke-width="0.51539" stroke-linecap="round" stroke-linejoin="round" stroke="rgb(80.392157%, 36.078431%, 36.078431%)" stroke-opacity="1" stroke-miterlimit="10" d="M 120.125 110.277344 C 120.125 112.171875 117.285156 112.171875 117.285156 110.277344 C 117.285156 108.378906 120.125 108.378906 120.125 110.277344 "/>
<path fill="none" stroke-width="0.51539" stroke-linecap="round" stroke-linejoin="round" stroke="rgb(80.392157%, 36.078431%, 36.078431%)" stroke-opacity="1" stroke-miterlimit="10" d="M 137.167969 106.292969 C 137.167969 108.1875 134.324219 108.1875 134.324219 106.292969 C 134.324219 104.394531 137.167969 104.394531 137.167969 106.292969 "/>
<path fill="none" stroke-width="0.51539" stroke-linecap="round" stroke-linejoin="round" stroke="rgb(80.392157%, 36.078431%, 36.078431%)" stroke-opacity="1" stroke-miterlimit="10" d="M 154.210938 106.292969 C 154.210938 108.1875 151.367188 108.1875 151.367188 106.292969 C 151.367188 104.394531 154.210938 104.394531 154.210938 106.292969 "/>
<path fill="none" stroke-width="0.51539" stroke-linecap="round" stroke-linejoin="round" stroke="rgb(80.392157%, 36.078431%, 36.078431%)" stroke-opacity="1" stroke-miterlimit="10" d="M 171.253906 78.402344 C 171.253906 80.296875 168.410156 80.296875 168.410156 78.402344 C 168.410156 76.507812 171.253906 76.507812 171.253906 78.402344 "/>
<path fill="none" stroke-width="0.51539" stroke-linecap="round" stroke-linejoin="round" stroke="rgb(80.392157%, 36.078431%, 36.078431%)" stroke-opacity="1" stroke-miterlimit="10" d="M 188.296875 70.433594 C 188.296875 72.328125 185.453125 72.328125 185.453125 70.433594 C 185.453125 68.539062 188.296875 68.539062 188.296875 70.433594 "/>
<path fill="none" stroke-width="0.51539" stroke-linecap="round" stroke-linejoin="round" stroke="rgb(80.392157%, 36.078431%, 36.078431%)" stroke-opacity="1" stroke-miterlimit="10" d="M 222.378906 46.527344 C 222.378906 48.425781 219.535156 48.425781 219.535156 46.527344 C 219.535156 44.632812 222.378906 44.632812 222.378906 46.527344 "/>
<path fill="none" stroke-width="0.51539" stroke-linecap="round" stroke-linejoin="round" stroke="rgb(80.392157%, 36.078431%, 36.078431%)" stroke-opacity="1" stroke-miterlimit="10" d="M 239.421875 54.496094 C 239.421875 56.394531 236.578125 56.394531 236.578125 54.496094 C 236.578125 52.601562 239.421875 52.601562 239.421875 54.496094 "/>
<path fill="none" stroke-width="0.51539" stroke-linecap="round" stroke-linejoin="round" stroke="rgb(80.392157%, 36.078431%, 36.078431%)" stroke-opacity="1" stroke-miterlimit="10" d="M 256.464844 26.609375 C 256.464844 28.503906 253.621094 28.503906 253.621094 26.609375 C 253.621094 24.710938 256.464844 24.710938 256.464844 26.609375 "/>
<path fill="none" stroke-width="0.51539" stroke-linecap="round" stroke-linejoin="round" stroke="rgb(80.392157%, 36.078431%, 36.078431%)" stroke-opacity="1" stroke-miterlimit="10" d="M 273.507812 34.578125 C 273.507812 36.472656 270.664062 36.472656 270.664062 34.578125 C 270.664062 32.679688 273.507812 32.679688 273.507812 34.578125 "/>
<g fill="rgb(30.196078%, 30.196078%, 30.196078%)" fill-opacity="1">
<use xlink:href="#glyph-0-1" x="13.976562" y="156.529297"/>
</g>
<g fill="rgb(30.196078%, 30.196078%, 30.196078%)" fill-opacity="1">
<use xlink:href="#glyph-0-2" x="13.976562" y="116.689453"/>
</g>
<g fill="rgb(30.196078%, 30.196078%, 30.196078%)" fill-opacity="1">
<use xlink:href="#glyph-0-3" x="13.976562" y="76.845703"/>
</g>
<g fill="rgb(30.196078%, 30.196078%, 30.196078%)" fill-opacity="1">
<use xlink:href="#glyph-0-4" x="13.976562" y="37.005859"/>
</g>
<path fill="none" stroke-width="0.775984" stroke-linecap="butt" stroke-linejoin="round" stroke="rgb(20%, 20%, 20%)" stroke-opacity="1" stroke-miterlimit="10" d="M 19.570312 154.101562 L 21.5625 154.101562 "/>
<path fill="none" stroke-width="0.775984" stroke-linecap="butt" stroke-linejoin="round" stroke="rgb(20%, 20%, 20%)" stroke-opacity="1" stroke-miterlimit="10" d="M 19.570312 114.261719 L 21.5625 114.261719 "/>
<path fill="none" stroke-width="0.775984" stroke-linecap="butt" stroke-linejoin="round" stroke="rgb(20%, 20%, 20%)" stroke-opacity="1" stroke-miterlimit="10" d="M 19.570312 74.417969 L 21.5625 74.417969 "/>
<path fill="none" stroke-width="0.775984" stroke-linecap="butt" stroke-linejoin="round" stroke="rgb(20%, 20%, 20%)" stroke-opacity="1" stroke-miterlimit="10" d="M 19.570312 34.578125 L 21.5625 34.578125 "/>
<path fill="none" stroke-width="0.775984" stroke-linecap="butt" stroke-linejoin="round" stroke="rgb(20%, 20%, 20%)" stroke-opacity="1" stroke-miterlimit="10" d="M 67.578125 193.429688 L 67.578125 191.4375 "/>
<path fill="none" stroke-width="0.775984" stroke-linecap="butt" stroke-linejoin="round" stroke="rgb(20%, 20%, 20%)" stroke-opacity="1" stroke-miterlimit="10" d="M 152.789062 193.429688 L 152.789062 191.4375 "/>
<path fill="none" stroke-width="0.775984" stroke-linecap="butt" stroke-linejoin="round" stroke="rgb(20%, 20%, 20%)" stroke-opacity="1" stroke-miterlimit="10" d="M 238 193.429688 L 238 191.4375 "/>
<g fill="rgb(30.196078%, 30.196078%, 30.196078%)" fill-opacity="1">
<use xlink:href="#glyph-0-4" x="65.578125" y="199.951172"/>
</g>
<g fill="rgb(30.196078%, 30.196078%, 30.196078%)" fill-opacity="1">
<use xlink:href="#glyph-0-5" x="148.789062" y="199.951172"/>
<use xlink:href="#glyph-0-6" x="152.789062" y="199.951172"/>
</g>
<g fill="rgb(30.196078%, 30.196078%, 30.196078%)" fill-opacity="1">
<use xlink:href="#glyph-0-5" x="234" y="199.951172"/>
<use xlink:href="#glyph-0-4" x="238" y="199.951172"/>
</g>
<g fill="rgb(0%, 0%, 0%)" fill-opacity="1">
<use xlink:href="#glyph-1-1" x="134.289062" y="209.175781"/>
<use xlink:href="#glyph-1-2" x="139.289062" y="209.175781"/>
<use xlink:href="#glyph-1-3" x="143.289062" y="209.175781"/>
<use xlink:href="#glyph-1-4" x="147.289062" y="209.175781"/>
<use xlink:href="#glyph-1-5" x="149.289062" y="209.175781"/>
<use xlink:href="#glyph-1-6" x="152.289062" y="209.175781"/>
<use xlink:href="#glyph-1-7" x="156.289062" y="209.175781"/>
<use xlink:href="#glyph-1-8" x="160.289062" y="209.175781"/>
<use xlink:href="#glyph-1-9" x="164.289062" y="209.175781"/>
<use xlink:href="#glyph-1-10" x="168.289062" y="209.175781"/>
</g>
<g fill="rgb(0%, 0%, 0%)" fill-opacity="1">
<use xlink:href="#glyph-2-1" x="9.144531" y="127.210938"/>
<use xlink:href="#glyph-2-2" x="9.144531" y="119.210938"/>
<use xlink:href="#glyph-2-3" x="9.144531" y="117.210938"/>
<use xlink:href="#glyph-2-4" x="9.144531" y="113.210938"/>
<use xlink:href="#glyph-2-5" x="9.144531" y="109.210938"/>
<use xlink:href="#glyph-2-6" x="9.144531" y="107.210938"/>
<use xlink:href="#glyph-2-7" x="9.144531" y="105.210938"/>
<use xlink:href="#glyph-2-3" x="9.144531" y="101.210938"/>
<use xlink:href="#glyph-2-4" x="9.144531" y="97.210938"/>
<use xlink:href="#glyph-2-8" x="9.144531" y="93.210938"/>
<use xlink:href="#glyph-2-9" x="9.144531" y="91.210938"/>
<use xlink:href="#glyph-2-5" x="9.144531" y="87.210938"/>
<use xlink:href="#glyph-2-10" x="9.144531" y="85.210938"/>
<use xlink:href="#glyph-2-11" x="9.144531" y="82.210938"/>
<use xlink:href="#glyph-2-12" x="9.144531" y="78.210938"/>
<use xlink:href="#glyph-2-13" x="9.144531" y="71.210938"/>
</g>
</svg>
