<?xml version="1.0" encoding="UTF-8"?>
<svg xmlns="http://www.w3.org/2000/svg" xmlns:xlink="http://www.w3.org/1999/xlink" width="324pt" height="189pt" viewBox="0 0 324 189">
<defs>
<g>
<g id="glyph-0-0">
<path d="M 0.28125 0 L 0.28125 -6.3125 L 5.296875 -6.3125 L 5.296875 0 Z M 4.5 -0.796875 L 4.5 -5.515625 L 1.078125 -5.515625 L 1.078125 -0.796875 Z M 4.5 -0.796875 "/>
</g>
<g id="glyph-0-1">
<path d="M 2.375 -6.15625 C 3.175781 -6.15625 3.753906 -5.828125 4.109375 -5.171875 C 4.378906 -4.660156 4.515625 -3.960938 4.515625 -3.078125 C 4.515625 -2.242188 4.390625 -1.554688 4.140625 -1.015625 C 3.785156 -0.222656 3.195312 0.171875 2.375 0.171875 C 1.632812 0.171875 1.082031 -0.148438 0.71875 -0.796875 C 0.425781 -1.328125 0.28125 -2.046875 0.28125 -2.953125 C 0.28125 -3.648438 0.367188 -4.25 0.546875 -4.75 C 0.878906 -5.6875 1.488281 -6.15625 2.375 -6.15625 Z M 2.375 -0.53125 C 2.769531 -0.53125 3.085938 -0.707031 3.328125 -1.0625 C 3.566406 -1.425781 3.6875 -2.085938 3.6875 -3.046875 C 3.6875 -3.753906 3.597656 -4.332031 3.421875 -4.78125 C 3.253906 -5.226562 2.921875 -5.453125 2.421875 -5.453125 C 1.972656 -5.453125 1.640625 -5.238281 1.421875 -4.8125 C 1.210938 -4.382812 1.109375 -3.753906 1.109375 -2.921875 C 1.109375 -2.296875 1.175781 -1.789062 1.3125 -1.40625 C 1.519531 -0.820312 1.875 -0.53125 2.375 -0.53125 Z M 2.375 -0.53125 "/>
</g>
<g id="glyph-0-2">
<path d="M 0.84375 -4.359375 L 0.84375 -4.953125 C 1.394531 -5.003906 1.78125 -5.09375 2 -5.21875 C 2.226562 -5.34375 2.394531 -5.644531 2.5 -6.125 L 3.109375 -6.125 L 3.109375 0 L 2.296875 0 L 2.296875 -4.359375 Z M 0.84375 -4.359375 "/>
</g>
<g id="glyph-0-3">
<path d="M 0.28125 0 C 0.300781 -0.53125 0.40625 -0.988281 0.59375 -1.375 C 0.789062 -1.769531 1.164062 -2.128906 1.71875 -2.453125 L 2.546875 -2.921875 C 2.910156 -3.140625 3.164062 -3.328125 3.3125 -3.484375 C 3.550781 -3.710938 3.671875 -3.984375 3.671875 -4.296875 C 3.671875 -4.648438 3.5625 -4.929688 3.34375 -5.140625 C 3.132812 -5.359375 2.847656 -5.46875 2.484375 -5.46875 C 1.960938 -5.46875 1.597656 -5.265625 1.390625 -4.859375 C 1.285156 -4.648438 1.226562 -4.351562 1.21875 -3.96875 L 0.421875 -3.96875 C 0.429688 -4.5 0.53125 -4.9375 0.71875 -5.28125 C 1.050781 -5.875 1.644531 -6.171875 2.5 -6.171875 C 3.195312 -6.171875 3.707031 -5.976562 4.03125 -5.59375 C 4.363281 -5.21875 4.53125 -4.796875 4.53125 -4.328125 C 4.53125 -3.835938 4.351562 -3.414062 4 -3.0625 C 3.800781 -2.863281 3.441406 -2.617188 2.921875 -2.328125 L 2.34375 -2 C 2.0625 -1.84375 1.835938 -1.695312 1.671875 -1.5625 C 1.390625 -1.3125 1.210938 -1.035156 1.140625 -0.734375 L 4.5 -0.734375 L 4.5 0 Z M 0.28125 0 "/>
</g>
<g id="glyph-0-4">
<path d="M 2.28125 0.171875 C 1.550781 0.171875 1.019531 -0.0234375 0.6875 -0.421875 C 0.363281 -0.828125 0.203125 -1.316406 0.203125 -1.890625 L 1.015625 -1.890625 C 1.046875 -1.492188 1.117188 -1.203125 1.234375 -1.015625 C 1.441406 -0.691406 1.804688 -0.53125 2.328125 -0.53125 C 2.734375 -0.53125 3.054688 -0.640625 3.296875 -0.859375 C 3.546875 -1.078125 3.671875 -1.359375 3.671875 -1.703125 C 3.671875 -2.128906 3.539062 -2.425781 3.28125 -2.59375 C 3.03125 -2.757812 2.671875 -2.84375 2.203125 -2.84375 C 2.148438 -2.84375 2.097656 -2.84375 2.046875 -2.84375 C 1.992188 -2.84375 1.941406 -2.84375 1.890625 -2.84375 L 1.890625 -3.515625 C 1.972656 -3.515625 2.039062 -3.507812 2.09375 -3.5 C 2.144531 -3.5 2.203125 -3.5 2.265625 -3.5 C 2.554688 -3.5 2.796875 -3.546875 2.984375 -3.640625 C 3.304688 -3.796875 3.46875 -4.082031 3.46875 -4.5 C 3.46875 -4.800781 3.359375 -5.035156 3.140625 -5.203125 C 2.921875 -5.367188 2.671875 -5.453125 2.390625 -5.453125 C 1.867188 -5.453125 1.507812 -5.28125 1.3125 -4.9375 C 1.207031 -4.75 1.144531 -4.476562 1.125 -4.125 L 0.359375 -4.125 C 0.359375 -4.582031 0.453125 -4.972656 0.640625 -5.296875 C 0.953125 -5.867188 1.503906 -6.15625 2.296875 -6.15625 C 2.929688 -6.15625 3.421875 -6.015625 3.765625 -5.734375 C 4.109375 -5.460938 4.28125 -5.0625 4.28125 -4.53125 C 4.28125 -4.144531 4.175781 -3.835938 3.96875 -3.609375 C 3.84375 -3.460938 3.679688 -3.347656 3.484375 -3.265625 C 3.804688 -3.171875 4.054688 -3 4.234375 -2.75 C 4.421875 -2.5 4.515625 -2.191406 4.515625 -1.828125 C 4.515625 -1.234375 4.316406 -0.75 3.921875 -0.375 C 3.535156 -0.0078125 2.988281 0.171875 2.28125 0.171875 Z M 2.28125 0.171875 "/>
</g>
<g id="glyph-0-5">
<path d="M 2.90625 -2.171875 L 2.90625 -4.96875 L 0.9375 -2.171875 Z M 2.921875 0 L 2.921875 -1.5 L 0.21875 -1.5 L 0.21875 -2.265625 L 3.046875 -6.171875 L 3.6875 -6.171875 L 3.6875 -2.171875 L 4.59375 -2.171875 L 4.59375 -1.5 L 3.6875 -1.5 L 3.6875 0 Z M 2.921875 0 "/>
</g>
<g id="glyph-0-6">
<path d="M 1.09375 -1.5625 C 1.132812 -1.125 1.335938 -0.820312 1.703125 -0.65625 C 1.878906 -0.570312 2.09375 -0.53125 2.34375 -0.53125 C 2.800781 -0.53125 3.140625 -0.675781 3.359375 -0.96875 C 3.578125 -1.257812 3.6875 -1.582031 3.6875 -1.9375 C 3.6875 -2.363281 3.554688 -2.691406 3.296875 -2.921875 C 3.035156 -3.160156 2.71875 -3.28125 2.34375 -3.28125 C 2.082031 -3.28125 1.851562 -3.226562 1.65625 -3.125 C 1.46875 -3.019531 1.304688 -2.878906 1.171875 -2.703125 L 0.5 -2.734375 L 0.96875 -6.046875 L 4.171875 -6.046875 L 4.171875 -5.296875 L 1.5625 -5.296875 L 1.296875 -3.59375 C 1.429688 -3.695312 1.566406 -3.773438 1.703125 -3.828125 C 1.929688 -3.929688 2.195312 -3.984375 2.5 -3.984375 C 3.0625 -3.984375 3.535156 -3.800781 3.921875 -3.4375 C 4.316406 -3.070312 4.515625 -2.609375 4.515625 -2.046875 C 4.515625 -1.460938 4.332031 -0.945312 3.96875 -0.5 C 3.613281 -0.0625 3.046875 0.15625 2.265625 0.15625 C 1.753906 0.15625 1.304688 0.0117188 0.921875 -0.265625 C 0.546875 -0.546875 0.332031 -0.976562 0.28125 -1.5625 Z M 1.09375 -1.5625 "/>
</g>
<g id="glyph-1-0">
<path d="M 0.359375 0 L 0.359375 -7.890625 L 6.625 -7.890625 L 6.625 0 Z M 5.625 -0.984375 L 5.625 -6.90625 L 1.34375 -6.90625 L 1.34375 -0.984375 Z M 5.625 -0.984375 "/>
</g>
<g id="glyph-1-1">
<path d="M 1.53125 -2.546875 C 1.5625 -2.097656 1.671875 -1.734375 1.859375 -1.453125 C 2.210938 -0.929688 2.835938 -0.671875 3.734375 -0.671875 C 4.128906 -0.671875 4.492188 -0.726562 4.828125 -0.84375 C 5.460938 -1.0625 5.78125 -1.457031 5.78125 -2.03125 C 5.78125 -2.46875 5.644531 -2.773438 5.375 -2.953125 C 5.101562 -3.128906 4.675781 -3.285156 4.09375 -3.421875 L 3.03125 -3.65625 C 2.332031 -3.820312 1.835938 -4 1.546875 -4.1875 C 1.046875 -4.507812 0.796875 -5 0.796875 -5.65625 C 0.796875 -6.363281 1.039062 -6.945312 1.53125 -7.40625 C 2.019531 -7.863281 2.710938 -8.09375 3.609375 -8.09375 C 4.441406 -8.09375 5.144531 -7.890625 5.71875 -7.484375 C 6.300781 -7.085938 6.59375 -6.453125 6.59375 -5.578125 L 5.59375 -5.578125 C 5.53125 -5.992188 5.414062 -6.316406 5.25 -6.546875 C 4.914062 -6.960938 4.359375 -7.171875 3.578125 -7.171875 C 2.953125 -7.171875 2.5 -7.035156 2.21875 -6.765625 C 1.945312 -6.503906 1.8125 -6.195312 1.8125 -5.84375 C 1.8125 -5.457031 1.972656 -5.175781 2.296875 -5 C 2.503906 -4.882812 2.984375 -4.738281 3.734375 -4.5625 L 4.828125 -4.3125 C 5.367188 -4.1875 5.78125 -4.019531 6.0625 -3.8125 C 6.570312 -3.445312 6.828125 -2.910156 6.828125 -2.203125 C 6.828125 -1.328125 6.507812 -0.703125 5.875 -0.328125 C 5.238281 0.0429688 4.5 0.234375 3.65625 0.234375 C 2.675781 0.234375 1.90625 -0.015625 1.34375 -0.515625 C 0.789062 -1.015625 0.519531 -1.691406 0.53125 -2.546875 Z M 3.703125 -8.109375 Z M 3.703125 -8.109375 "/>
</g>
<g id="glyph-1-2">
<path d="M 1.671875 -5.75 L 1.671875 -1.9375 C 1.671875 -1.644531 1.71875 -1.40625 1.8125 -1.21875 C 1.988281 -0.875 2.3125 -0.703125 2.78125 -0.703125 C 3.445312 -0.703125 3.90625 -1 4.15625 -1.59375 C 4.28125 -1.914062 4.34375 -2.359375 4.34375 -2.921875 L 4.34375 -5.75 L 5.3125 -5.75 L 5.3125 0 L 4.40625 0 L 4.421875 -0.84375 C 4.296875 -0.625 4.140625 -0.441406 3.953125 -0.296875 C 3.578125 0.00390625 3.128906 0.15625 2.609375 0.15625 C 1.785156 0.15625 1.222656 -0.117188 0.921875 -0.671875 C 0.765625 -0.960938 0.6875 -1.351562 0.6875 -1.84375 L 0.6875 -5.75 Z M 3 -5.890625 Z M 3 -5.890625 "/>
</g>
<g id="glyph-1-3">
<path d="M 0.640625 -7.921875 L 1.578125 -7.921875 L 1.578125 -5.046875 C 1.785156 -5.328125 2.035156 -5.539062 2.328125 -5.6875 C 2.617188 -5.832031 2.9375 -5.90625 3.28125 -5.90625 C 4 -5.90625 4.582031 -5.65625 5.03125 -5.15625 C 5.476562 -4.664062 5.703125 -3.941406 5.703125 -2.984375 C 5.703125 -2.078125 5.476562 -1.320312 5.03125 -0.71875 C 4.59375 -0.113281 3.984375 0.1875 3.203125 0.1875 C 2.765625 0.1875 2.394531 0.0742188 2.09375 -0.140625 C 1.914062 -0.265625 1.726562 -0.460938 1.53125 -0.734375 L 1.53125 0 L 0.640625 0 Z M 3.140625 -0.671875 C 3.671875 -0.671875 4.0625 -0.878906 4.3125 -1.296875 C 4.570312 -1.710938 4.703125 -2.257812 4.703125 -2.9375 C 4.703125 -3.539062 4.570312 -4.039062 4.3125 -4.4375 C 4.0625 -4.832031 3.679688 -5.03125 3.171875 -5.03125 C 2.734375 -5.03125 2.347656 -4.867188 2.015625 -4.546875 C 1.679688 -4.222656 1.515625 -3.6875 1.515625 -2.9375 C 1.515625 -2.394531 1.582031 -1.957031 1.71875 -1.625 C 1.976562 -0.988281 2.453125 -0.671875 3.140625 -0.671875 Z M 3.140625 -0.671875 "/>
</g>
<g id="glyph-1-4">
<path d="M 1.28125 -1.8125 C 1.3125 -1.488281 1.394531 -1.238281 1.53125 -1.0625 C 1.769531 -0.75 2.191406 -0.59375 2.796875 -0.59375 C 3.148438 -0.59375 3.460938 -0.671875 3.734375 -0.828125 C 4.003906 -0.984375 4.140625 -1.222656 4.140625 -1.546875 C 4.140625 -1.796875 4.03125 -1.984375 3.8125 -2.109375 C 3.675781 -2.191406 3.398438 -2.285156 2.984375 -2.390625 L 2.21875 -2.578125 C 1.726562 -2.703125 1.367188 -2.835938 1.140625 -2.984375 C 0.722656 -3.253906 0.515625 -3.617188 0.515625 -4.078125 C 0.515625 -4.617188 0.707031 -5.054688 1.09375 -5.390625 C 1.488281 -5.734375 2.019531 -5.90625 2.6875 -5.90625 C 3.550781 -5.90625 4.175781 -5.648438 4.5625 -5.140625 C 4.800781 -4.816406 4.914062 -4.46875 4.90625 -4.09375 L 4 -4.09375 C 3.976562 -4.3125 3.898438 -4.507812 3.765625 -4.6875 C 3.546875 -4.945312 3.160156 -5.078125 2.609375 -5.078125 C 2.242188 -5.078125 1.96875 -5.003906 1.78125 -4.859375 C 1.59375 -4.722656 1.5 -4.539062 1.5 -4.3125 C 1.5 -4.0625 1.625 -3.863281 1.875 -3.71875 C 2.007812 -3.625 2.21875 -3.539062 2.5 -3.46875 L 3.140625 -3.3125 C 3.835938 -3.144531 4.300781 -2.984375 4.53125 -2.828125 C 4.914062 -2.578125 5.109375 -2.191406 5.109375 -1.671875 C 5.109375 -1.148438 4.910156 -0.703125 4.515625 -0.328125 C 4.128906 0.0351562 3.539062 0.21875 2.75 0.21875 C 1.894531 0.21875 1.285156 0.0234375 0.921875 -0.359375 C 0.566406 -0.753906 0.378906 -1.238281 0.359375 -1.8125 Z M 2.71875 -5.890625 Z M 2.71875 -5.890625 "/>
</g>
<g id="glyph-1-5">
<path d="M 0.90625 -7.359375 L 1.875 -7.359375 L 1.875 -5.75 L 2.796875 -5.75 L 2.796875 -4.96875 L 1.875 -4.96875 L 1.875 -1.203125 C 1.875 -1.003906 1.941406 -0.875 2.078125 -0.8125 C 2.160156 -0.769531 2.285156 -0.75 2.453125 -0.75 C 2.503906 -0.75 2.554688 -0.75 2.609375 -0.75 C 2.660156 -0.75 2.722656 -0.753906 2.796875 -0.765625 L 2.796875 0 C 2.679688 0.03125 2.5625 0.0507812 2.4375 0.0625 C 2.320312 0.0820312 2.195312 0.09375 2.0625 0.09375 C 1.613281 0.09375 1.304688 -0.0195312 1.140625 -0.25 C 0.984375 -0.488281 0.90625 -0.789062 0.90625 -1.15625 L 0.90625 -4.96875 L 0.125 -4.96875 L 0.125 -5.75 L 0.90625 -5.75 Z M 0.90625 -7.359375 "/>
</g>
<g id="glyph-1-6">
<path d="M 0.734375 -5.75 L 1.65625 -5.75 L 1.65625 -4.765625 C 1.726562 -4.953125 1.910156 -5.179688 2.203125 -5.453125 C 2.492188 -5.734375 2.832031 -5.875 3.21875 -5.875 C 3.238281 -5.875 3.269531 -5.875 3.3125 -5.875 C 3.351562 -5.875 3.425781 -5.867188 3.53125 -5.859375 L 3.53125 -4.828125 C 3.476562 -4.835938 3.425781 -4.84375 3.375 -4.84375 C 3.320312 -4.851562 3.269531 -4.859375 3.21875 -4.859375 C 2.726562 -4.859375 2.351562 -4.703125 2.09375 -4.390625 C 1.832031 -4.078125 1.703125 -3.71875 1.703125 -3.3125 L 1.703125 0 L 0.734375 0 Z M 0.734375 -5.75 "/>
</g>
<g id="glyph-1-7">
<path d="M 1.453125 -1.53125 C 1.453125 -1.25 1.550781 -1.023438 1.75 -0.859375 C 1.957031 -0.703125 2.203125 -0.625 2.484375 -0.625 C 2.816406 -0.625 3.144531 -0.703125 3.46875 -0.859375 C 4.007812 -1.117188 4.28125 -1.550781 4.28125 -2.15625 L 4.28125 -2.921875 C 4.15625 -2.847656 4 -2.785156 3.8125 -2.734375 C 3.632812 -2.691406 3.453125 -2.65625 3.265625 -2.625 L 2.6875 -2.5625 C 2.332031 -2.507812 2.066406 -2.4375 1.890625 -2.34375 C 1.597656 -2.164062 1.453125 -1.894531 1.453125 -1.53125 Z M 3.796875 -3.484375 C 4.015625 -3.515625 4.160156 -3.609375 4.234375 -3.765625 C 4.273438 -3.847656 4.296875 -3.972656 4.296875 -4.140625 C 4.296875 -4.460938 4.175781 -4.695312 3.9375 -4.84375 C 3.707031 -5 3.375 -5.078125 2.9375 -5.078125 C 2.4375 -5.078125 2.082031 -4.941406 1.875 -4.671875 C 1.75 -4.515625 1.671875 -4.289062 1.640625 -4 L 0.734375 -4 C 0.753906 -4.707031 0.984375 -5.195312 1.421875 -5.46875 C 1.867188 -5.75 2.382812 -5.890625 2.96875 -5.890625 C 3.644531 -5.890625 4.191406 -5.757812 4.609375 -5.5 C 5.035156 -5.25 5.25 -4.847656 5.25 -4.296875 L 5.25 -0.984375 C 5.25 -0.890625 5.265625 -0.8125 5.296875 -0.75 C 5.335938 -0.6875 5.425781 -0.65625 5.5625 -0.65625 C 5.601562 -0.65625 5.648438 -0.65625 5.703125 -0.65625 C 5.765625 -0.664062 5.820312 -0.675781 5.875 -0.6875 L 5.875 0.03125 C 5.726562 0.0703125 5.613281 0.0976562 5.53125 0.109375 C 5.457031 0.117188 5.351562 0.125 5.21875 0.125 C 4.882812 0.125 4.640625 0.00390625 4.484375 -0.234375 C 4.410156 -0.359375 4.359375 -0.535156 4.328125 -0.765625 C 4.128906 -0.503906 3.84375 -0.28125 3.46875 -0.09375 C 3.101562 0.0898438 2.695312 0.1875 2.25 0.1875 C 1.71875 0.1875 1.28125 0.0234375 0.9375 -0.296875 C 0.601562 -0.617188 0.4375 -1.023438 0.4375 -1.515625 C 0.4375 -2.046875 0.601562 -2.457031 0.9375 -2.75 C 1.269531 -3.039062 1.707031 -3.222656 2.25 -3.296875 Z M 2.984375 -5.890625 Z M 2.984375 -5.890625 "/>
</g>
<g id="glyph-1-8">
<path d="M 3.109375 -5.875 C 3.515625 -5.875 3.90625 -5.78125 4.28125 -5.59375 C 4.664062 -5.40625 4.960938 -5.15625 5.171875 -4.84375 C 5.359375 -4.5625 5.484375 -4.222656 5.546875 -3.828125 C 5.609375 -3.566406 5.640625 -3.144531 5.640625 -2.5625 L 1.421875 -2.5625 C 1.441406 -1.976562 1.578125 -1.507812 1.828125 -1.15625 C 2.085938 -0.8125 2.488281 -0.640625 3.03125 -0.640625 C 3.539062 -0.640625 3.945312 -0.804688 4.25 -1.140625 C 4.414062 -1.328125 4.535156 -1.550781 4.609375 -1.8125 L 5.5625 -1.8125 C 5.53125 -1.59375 5.441406 -1.351562 5.296875 -1.09375 C 5.160156 -0.832031 5.003906 -0.625 4.828125 -0.46875 C 4.535156 -0.175781 4.175781 0.0195312 3.75 0.125 C 3.507812 0.175781 3.242188 0.203125 2.953125 0.203125 C 2.234375 0.203125 1.625 -0.0546875 1.125 -0.578125 C 0.632812 -1.097656 0.390625 -1.828125 0.390625 -2.765625 C 0.390625 -3.691406 0.640625 -4.441406 1.140625 -5.015625 C 1.640625 -5.585938 2.296875 -5.875 3.109375 -5.875 Z M 4.640625 -3.328125 C 4.609375 -3.753906 4.519531 -4.09375 4.375 -4.34375 C 4.101562 -4.800781 3.660156 -5.03125 3.046875 -5.03125 C 2.597656 -5.03125 2.222656 -4.867188 1.921875 -4.546875 C 1.628906 -4.234375 1.472656 -3.828125 1.453125 -3.328125 Z M 3.015625 -5.890625 Z M 3.015625 -5.890625 "/>
</g>
<g id="glyph-1-9">
</g>
<g id="glyph-1-10">
<path d="M 2.921875 -5.921875 C 3.578125 -5.921875 4.109375 -5.757812 4.515625 -5.4375 C 4.921875 -5.125 5.164062 -4.582031 5.25 -3.8125 L 4.296875 -3.8125 C 4.242188 -4.164062 4.113281 -4.457031 3.90625 -4.6875 C 3.707031 -4.925781 3.378906 -5.046875 2.921875 -5.046875 C 2.304688 -5.046875 1.867188 -4.75 1.609375 -4.15625 C 1.429688 -3.757812 1.34375 -3.273438 1.34375 -2.703125 C 1.34375 -2.128906 1.460938 -1.644531 1.703125 -1.25 C 1.953125 -0.851562 2.335938 -0.65625 2.859375 -0.65625 C 3.265625 -0.65625 3.582031 -0.773438 3.8125 -1.015625 C 4.050781 -1.265625 4.210938 -1.601562 4.296875 -2.03125 L 5.25 -2.03125 C 5.132812 -1.269531 4.863281 -0.710938 4.4375 -0.359375 C 4.007812 -0.00390625 3.457031 0.171875 2.78125 0.171875 C 2.03125 0.171875 1.429688 -0.101562 0.984375 -0.65625 C 0.535156 -1.207031 0.3125 -1.894531 0.3125 -2.71875 C 0.3125 -3.726562 0.554688 -4.515625 1.046875 -5.078125 C 1.535156 -5.640625 2.160156 -5.921875 2.921875 -5.921875 Z M 2.78125 -5.890625 Z M 2.78125 -5.890625 "/>
</g>
<g id="glyph-1-11">
<path d="M 2.984375 -0.625 C 3.628906 -0.625 4.070312 -0.863281 4.3125 -1.34375 C 4.550781 -1.832031 4.671875 -2.375 4.671875 -2.96875 C 4.671875 -3.507812 4.582031 -3.945312 4.40625 -4.28125 C 4.132812 -4.8125 3.664062 -5.078125 3 -5.078125 C 2.40625 -5.078125 1.972656 -4.847656 1.703125 -4.390625 C 1.441406 -3.941406 1.3125 -3.398438 1.3125 -2.765625 C 1.3125 -2.148438 1.441406 -1.640625 1.703125 -1.234375 C 1.972656 -0.828125 2.398438 -0.625 2.984375 -0.625 Z M 3.03125 -5.921875 C 3.769531 -5.921875 4.394531 -5.671875 4.90625 -5.171875 C 5.414062 -4.679688 5.671875 -3.957031 5.671875 -3 C 5.671875 -2.070312 5.445312 -1.304688 5 -0.703125 C 4.550781 -0.0976562 3.851562 0.203125 2.90625 0.203125 C 2.113281 0.203125 1.484375 -0.0625 1.015625 -0.59375 C 0.546875 -1.125 0.3125 -1.84375 0.3125 -2.75 C 0.3125 -3.71875 0.554688 -4.488281 1.046875 -5.0625 C 1.535156 -5.632812 2.195312 -5.921875 3.03125 -5.921875 Z M 3 -5.890625 Z M 3 -5.890625 "/>
</g>
<g id="glyph-1-12">
<path d="M 0.703125 -5.75 L 1.625 -5.75 L 1.625 -4.9375 C 1.894531 -5.269531 2.179688 -5.507812 2.484375 -5.65625 C 2.796875 -5.800781 3.132812 -5.875 3.5 -5.875 C 4.320312 -5.875 4.875 -5.59375 5.15625 -5.03125 C 5.3125 -4.71875 5.390625 -4.269531 5.390625 -3.6875 L 5.390625 0 L 4.421875 0 L 4.421875 -3.625 C 4.421875 -3.976562 4.367188 -4.257812 4.265625 -4.46875 C 4.085938 -4.832031 3.773438 -5.015625 3.328125 -5.015625 C 3.097656 -5.015625 2.910156 -4.988281 2.765625 -4.9375 C 2.492188 -4.863281 2.257812 -4.707031 2.0625 -4.46875 C 1.90625 -4.28125 1.800781 -4.082031 1.75 -3.875 C 1.695312 -3.675781 1.671875 -3.390625 1.671875 -3.015625 L 1.671875 0 L 0.703125 0 Z M 2.984375 -5.890625 Z M 2.984375 -5.890625 "/>
</g>
<g id="glyph-1-13">
<path d="M 0.703125 -5.71875 L 1.6875 -5.71875 L 1.6875 0 L 0.703125 0 Z M 0.703125 -7.890625 L 1.6875 -7.890625 L 1.6875 -6.796875 L 0.703125 -6.796875 Z M 0.703125 -7.890625 "/>
</g>
<g id="glyph-1-14">
<path d="M 0.90625 1.125 C 1.15625 1.082031 1.332031 0.910156 1.4375 0.609375 C 1.488281 0.441406 1.515625 0.285156 1.515625 0.140625 C 1.515625 0.109375 1.515625 0.0820312 1.515625 0.0625 C 1.515625 0.0390625 1.507812 0.0195312 1.5 0 L 0.90625 0 L 0.90625 -1.171875 L 2.0625 -1.171875 L 2.0625 -0.09375 C 2.0625 0.332031 1.972656 0.707031 1.796875 1.03125 C 1.628906 1.351562 1.332031 1.554688 0.90625 1.640625 Z M 0.90625 1.125 "/>
</g>
<g id="glyph-2-0">
<path d="M 0 -0.359375 L -7.890625 -0.359375 L -7.890625 -6.625 L 0 -6.625 Z M -0.984375 -5.625 L -6.90625 -5.625 L -6.90625 -1.34375 L -0.984375 -1.34375 Z M -0.984375 -5.625 "/>
</g>
<g id="glyph-2-1">
<path d="M -7.890625 -2 L -3.015625 -2 C -2.441406 -2 -1.960938 -2.109375 -1.578125 -2.328125 C -1.003906 -2.640625 -0.71875 -3.175781 -0.71875 -3.9375 C -0.71875 -4.84375 -1.03125 -5.457031 -1.65625 -5.78125 C -1.988281 -5.957031 -2.441406 -6.046875 -3.015625 -6.046875 L -7.890625 -6.046875 L -7.890625 -7.125 L -3.453125 -7.125 C -2.484375 -7.125 -1.738281 -6.992188 -1.21875 -6.734375 C -0.269531 -6.253906 0.203125 -5.347656 0.203125 -4.015625 C 0.203125 -2.679688 -0.269531 -1.78125 -1.21875 -1.3125 C -1.738281 -1.039062 -2.484375 -0.90625 -3.453125 -0.90625 L -7.890625 -0.90625 Z M -7.890625 -4.015625 Z M -7.890625 -4.015625 "/>
</g>
<g id="glyph-2-2">
<path d="M -0.65625 -3.140625 C -0.65625 -3.585938 -0.84375 -3.957031 -1.21875 -4.25 C -1.59375 -4.550781 -2.15625 -4.703125 -2.90625 -4.703125 C -3.363281 -4.703125 -3.757812 -4.640625 -4.09375 -4.515625 C -4.726562 -4.265625 -5.046875 -3.804688 -5.046875 -3.140625 C -5.046875 -2.460938 -4.710938 -2.003906 -4.046875 -1.765625 C -3.679688 -1.628906 -3.222656 -1.5625 -2.671875 -1.5625 C -2.234375 -1.5625 -1.859375 -1.628906 -1.546875 -1.765625 C -0.953125 -2.015625 -0.65625 -2.472656 -0.65625 -3.140625 Z M -5.71875 -0.640625 L -5.71875 -1.578125 L -4.96875 -1.578125 C -5.226562 -1.765625 -5.425781 -1.972656 -5.5625 -2.203125 C -5.78125 -2.535156 -5.890625 -2.921875 -5.890625 -3.359375 C -5.890625 -4.003906 -5.640625 -4.554688 -5.140625 -5.015625 C -4.640625 -5.472656 -3.925781 -5.703125 -3 -5.703125 C -1.75 -5.703125 -0.851562 -5.375 -0.3125 -4.71875 C 0.0195312 -4.300781 0.1875 -3.816406 0.1875 -3.265625 C 0.1875 -2.828125 0.0898438 -2.460938 -0.09375 -2.171875 C -0.195312 -2.003906 -0.378906 -1.8125 -0.640625 -1.59375 L 2.296875 -1.59375 L 2.296875 -0.640625 Z M -5.71875 -0.640625 "/>
</g>
<g id="glyph-2-3">
<path d="M -7.359375 -0.90625 L -7.359375 -1.875 L -5.75 -1.875 L -5.75 -2.796875 L -4.96875 -2.796875 L -4.96875 -1.875 L -1.203125 -1.875 C -1.003906 -1.875 -0.875 -1.941406 -0.8125 -2.078125 C -0.769531 -2.160156 -0.75 -2.285156 -0.75 -2.453125 C -0.75 -2.503906 -0.75 -2.554688 -0.75 -2.609375 C -0.75 -2.660156 -0.753906 -2.722656 -0.765625 -2.796875 L 0 -2.796875 C 0.03125 -2.679688 0.0507812 -2.5625 0.0625 -2.4375 C 0.0820312 -2.320312 0.09375 -2.195312 0.09375 -2.0625 C 0.09375 -1.613281 -0.0195312 -1.304688 -0.25 -1.140625 C -0.488281 -0.984375 -0.789062 -0.90625 -1.15625 -0.90625 L -4.96875 -0.90625 L -4.96875 -0.125 L -5.75 -0.125 L -5.75 -0.90625 Z M -7.359375 -0.90625 "/>
</g>
<g id="glyph-2-4">
<path d="M -1.53125 -1.453125 C -1.25 -1.453125 -1.023438 -1.550781 -0.859375 -1.75 C -0.703125 -1.957031 -0.625 -2.203125 -0.625 -2.484375 C -0.625 -2.816406 -0.703125 -3.144531 -0.859375 -3.46875 C -1.117188 -4.007812 -1.550781 -4.28125 -2.15625 -4.28125 L -2.921875 -4.28125 C -2.847656 -4.15625 -2.785156 -4 -2.734375 -3.8125 C -2.691406 -3.632812 -2.65625 -3.453125 -2.625 -3.265625 L -2.5625 -2.6875 C -2.507812 -2.332031 -2.4375 -2.066406 -2.34375 -1.890625 C -2.164062 -1.597656 -1.894531 -1.453125 -1.53125 -1.453125 Z M -3.484375 -3.796875 C -3.515625 -4.015625 -3.609375 -4.160156 -3.765625 -4.234375 C -3.847656 -4.273438 -3.972656 -4.296875 -4.140625 -4.296875 C -4.460938 -4.296875 -4.695312 -4.175781 -4.84375 -3.9375 C -5 -3.707031 -5.078125 -3.375 -5.078125 -2.9375 C -5.078125 -2.4375 -4.941406 -2.082031 -4.671875 -1.875 C -4.515625 -1.75 -4.289062 -1.671875 -4 -1.640625 L -4 -0.734375 C -4.707031 -0.753906 -5.195312 -0.984375 -5.46875 -1.421875 C -5.75 -1.867188 -5.890625 -2.382812 -5.890625 -2.96875 C -5.890625 -3.644531 -5.757812 -4.191406 -5.5 -4.609375 C -5.25 -5.035156 -4.847656 -5.25 -4.296875 -5.25 L -0.984375 -5.25 C -0.890625 -5.25 -0.8125 -5.265625 -0.75 -5.296875 C -0.6875 -5.335938 -0.65625 -5.425781 -0.65625 -5.5625 C -0.65625 -5.601562 -0.65625 -5.648438 -0.65625 -5.703125 C -0.664062 -5.765625 -0.675781 -5.820312 -0.6875 -5.875 L 0.03125 -5.875 C 0.0703125 -5.726562 0.0976562 -5.613281 0.109375 -5.53125 C 0.117188 -5.457031 0.125 -5.351562 0.125 -5.21875 C 0.125 -4.882812 0.00390625 -4.640625 -0.234375 -4.484375 C -0.359375 -4.410156 -0.535156 -4.359375 -0.765625 -4.328125 C -0.503906 -4.128906 -0.28125 -3.84375 -0.09375 -3.46875 C 0.0898438 -3.101562 0.1875 -2.695312 0.1875 -2.25 C 0.1875 -1.71875 0.0234375 -1.28125 -0.296875 -0.9375 C -0.617188 -0.601562 -1.023438 -0.4375 -1.515625 -0.4375 C -2.046875 -0.4375 -2.457031 -0.601562 -2.75 -0.9375 C -3.039062 -1.269531 -3.222656 -1.707031 -3.296875 -2.25 Z M -5.890625 -2.984375 Z M -5.890625 -2.984375 "/>
</g>
<g id="glyph-2-5">
<path d="M -7.890625 -0.6875 L -7.890625 -1.609375 L -3.3125 -1.609375 L -5.75 -4.09375 L -5.75 -5.328125 L -3.59375 -3.125 L 0 -5.453125 L 0 -4.21875 L -2.90625 -2.421875 L -2.15625 -1.609375 L 0 -1.609375 L 0 -0.6875 Z M -7.890625 -0.6875 "/>
</g>
<g id="glyph-2-6">
<path d="M -5.875 -3.109375 C -5.875 -3.515625 -5.78125 -3.90625 -5.59375 -4.28125 C -5.40625 -4.664062 -5.15625 -4.960938 -4.84375 -5.171875 C -4.5625 -5.359375 -4.222656 -5.484375 -3.828125 -5.546875 C -3.566406 -5.609375 -3.144531 -5.640625 -2.5625 -5.640625 L -2.5625 -1.421875 C -1.976562 -1.441406 -1.507812 -1.578125 -1.15625 -1.828125 C -0.8125 -2.085938 -0.640625 -2.488281 -0.640625 -3.03125 C -0.640625 -3.539062 -0.804688 -3.945312 -1.140625 -4.25 C -1.328125 -4.414062 -1.550781 -4.535156 -1.8125 -4.609375 L -1.8125 -5.5625 C -1.59375 -5.53125 -1.351562 -5.441406 -1.09375 -5.296875 C -0.832031 -5.160156 -0.625 -5.003906 -0.46875 -4.828125 C -0.175781 -4.535156 0.0195312 -4.175781 0.125 -3.75 C 0.175781 -3.507812 0.203125 -3.242188 0.203125 -2.953125 C 0.203125 -2.234375 -0.0546875 -1.625 -0.578125 -1.125 C -1.097656 -0.632812 -1.828125 -0.390625 -2.765625 -0.390625 C -3.691406 -0.390625 -4.441406 -0.640625 -5.015625 -1.140625 C -5.585938 -1.640625 -5.875 -2.296875 -5.875 -3.109375 Z M -3.328125 -4.640625 C -3.753906 -4.609375 -4.09375 -4.519531 -4.34375 -4.375 C -4.800781 -4.101562 -5.03125 -3.660156 -5.03125 -3.046875 C -5.03125 -2.597656 -4.867188 -2.222656 -4.546875 -1.921875 C -4.234375 -1.628906 -3.828125 -1.472656 -3.328125 -1.453125 Z M -5.890625 -3.015625 Z M -5.890625 -3.015625 "/>
</g>
<g id="glyph-2-7">
</g>
<g id="glyph-2-8">
<path d="M -5.75 -0.734375 L -5.75 -1.65625 L -4.765625 -1.65625 C -4.953125 -1.726562 -5.179688 -1.910156 -5.453125 -2.203125 C -5.734375 -2.492188 -5.875 -2.832031 -5.875 -3.21875 C -5.875 -3.238281 -5.875 -3.269531 -5.875 -3.3125 C -5.875 -3.351562 -5.867188 -3.425781 -5.859375 -3.53125 L -4.828125 -3.53125 C -4.835938 -3.476562 -4.84375 -3.425781 -4.84375 -3.375 C -4.851562 -3.320312 -4.859375 -3.269531 -4.859375 -3.21875 C -4.859375 -2.726562 -4.703125 -2.351562 -4.390625 -2.09375 C -4.078125 -1.832031 -3.71875 -1.703125 -3.3125 -1.703125 L 0 -1.703125 L 0 -0.734375 Z M -5.75 -0.734375 "/>
</g>
<g id="glyph-2-9">
<path d="M 1.125 -0.90625 C 1.082031 -1.15625 0.910156 -1.332031 0.609375 -1.4375 C 0.441406 -1.488281 0.285156 -1.515625 0.140625 -1.515625 C 0.109375 -1.515625 0.0820312 -1.515625 0.0625 -1.515625 C 0.0390625 -1.515625 0.0195312 -1.507812 0 -1.5 L 0 -0.90625 L -1.171875 -0.90625 L -1.171875 -2.0625 L -0.09375 -2.0625 C 0.332031 -2.0625 0.707031 -1.972656 1.03125 -1.796875 C 1.351562 -1.628906 1.554688 -1.332031 1.640625 -0.90625 Z M 1.125 -0.90625 "/>
</g>
<g id="glyph-2-10">
<path d="M -7.890625 -1.46875 L -1.171875 -3.734375 L -7.890625 -5.96875 L -7.890625 -7.171875 L 0 -4.28125 L 0 -3.15625 L -7.890625 -0.28125 Z M -7.890625 -1.46875 "/>
</g>
</g>
<clipPath id="clip-0">
<path clip-rule="nonzero" d="M 37.152344 5.480469 L 318.523438 5.480469 L 318.523438 152.851562 L 37.152344 152.851562 Z M 37.152344 5.480469 "/>
</clipPath>
<clipPath id="clip-1">
<path clip-rule="nonzero" d="M 37.152344 132 L 318.523438 132 L 318.523438 134 L 37.152344 134 Z M 37.152344 132 "/>
</clipPath>
<clipPath id="clip-2">
<path clip-rule="nonzero" d="M 37.152344 106 L 318.523438 106 L 318.523438 108 L 37.152344 108 Z M 37.152344 106 "/>
</clipPath>
<clipPath id="clip-3">
<path clip-rule="nonzero" d="M 37.152344 80 L 318.523438 80 L 318.523438 82 L 37.152344 82 Z M 37.152344 80 "/>
</clipPath>
<clipPath id="clip-4">
<path clip-rule="nonzero" d="M 37.152344 54 L 318.523438 54 L 318.523438 56 L 37.152344 56 Z M 37.152344 54 "/>
</clipPath>
<clipPath id="clip-5">
<path clip-rule="nonzero" d="M 37.152344 28 L 318.523438 28 L 318.523438 30 L 37.152344 30 Z M 37.152344 28 "/>
</clipPath>
<clipPath id="clip-6">
<path clip-rule="nonzero" d="M 92 5.480469 L 94 5.480469 L 94 152.851562 L 92 152.851562 Z M 92 5.480469 "/>
</clipPath>
<clipPath id="clip-7">
<path clip-rule="nonzero" d="M 177 5.480469 L 179 5.480469 L 179 152.851562 L 177 152.851562 Z M 177 5.480469 "/>
</clipPath>
<clipPath id="clip-8">
<path clip-rule="nonzero" d="M 262 5.480469 L 264 5.480469 L 264 152.851562 L 262 152.851562 Z M 262 5.480469 "/>
</clipPath>
<clipPath id="clip-9">
<path clip-rule="nonzero" d="M 37.152344 145 L 318.523438 145 L 318.523438 147 L 37.152344 147 Z M 37.152344 145 "/>
</clipPath>
<clipPath id="clip-10">
<path clip-rule="nonzero" d="M 37.152344 119 L 318.523438 119 L 318.523438 121 L 37.152344 121 Z M 37.152344 119 "/>
</clipPath>
<clipPath id="clip-11">
<path clip-rule="nonzero" d="M 37.152344 93 L 318.523438 93 L 318.523438 95 L 37.152344 95 Z M 37.152344 93 "/>
</clipPath>
<clipPath id="clip-12">
<path clip-rule="nonzero" d="M 37.152344 67 L 318.523438 67 L 318.523438 69 L 37.152344 69 Z M 37.152344 67 "/>
</clipPath>
<clipPath id="clip-13">
<path clip-rule="nonzero" d="M 37.152344 41 L 318.523438 41 L 318.523438 43 L 37.152344 43 Z M 37.152344 41 "/>
</clipPath>
<clipPath id="clip-14">
<path clip-rule="nonzero" d="M 37.152344 15 L 318.523438 15 L 318.523438 17 L 37.152344 17 Z M 37.152344 15 "/>
</clipPath>
<clipPath id="clip-15">
<path clip-rule="nonzero" d="M 49 5.480469 L 52 5.480469 L 52 152.851562 L 49 152.851562 Z M 49 5.480469 "/>
</clipPath>
<clipPath id="clip-16">
<path clip-rule="nonzero" d="M 134 5.480469 L 136 5.480469 L 136 152.851562 L 134 152.851562 Z M 134 5.480469 "/>
</clipPath>
<clipPath id="clip-17">
<path clip-rule="nonzero" d="M 219 5.480469 L 221 5.480469 L 221 152.851562 L 219 152.851562 Z M 219 5.480469 "/>
</clipPath>
<clipPath id="clip-18">
<path clip-rule="nonzero" d="M 304 5.480469 L 306 5.480469 L 306 152.851562 L 304 152.851562 Z M 304 5.480469 "/>
</clipPath>
<clipPath id="clip-19">
<path clip-rule="nonzero" d="M 139 5.480469 L 141 5.480469 L 141 152.851562 L 139 152.851562 Z M 139 5.480469 "/>
</clipPath>
<clipPath id="clip-20">
<path clip-rule="nonzero" d="M 37.152344 11 L 318.523438 11 L 318.523438 13 L 37.152344 13 Z M 37.152344 11 "/>
</clipPath>
</defs>
<rect x="-32.4" y="-18.9" width="388.8" height="226.8" fill="rgb(100%, 100%, 100%)" fill-opacity="1"/>
<rect x="-32.4" y="-18.9" width="388.8" height="226.8" fill="rgb(100%, 100%, 100%)" fill-opacity="1"/>
<path fill="none" stroke-width="1.066978" stroke-linecap="round" stroke-linejoin="round" stroke="rgb(100%, 100%, 100%)" stroke-opacity="1" stroke-miterlimit="10" d="M 0 189 L 324 189 L 324 0 L 0 0 Z M 0 189 "/>
<g clip-path="url(#clip-0)">
<path fill-rule="nonzero" fill="rgb(92.156863%, 92.156863%, 92.156863%)" fill-opacity="1" d="M 37.152344 152.847656 L 318.523438 152.847656 L 318.523438 5.476562 L 37.152344 5.476562 Z M 37.152344 152.847656 "/>
</g>
<g clip-path="url(#clip-1)">
<path fill="none" stroke-width="0.533489" stroke-linecap="butt" stroke-linejoin="round" stroke="rgb(100%, 100%, 100%)" stroke-opacity="1" stroke-miterlimit="10" d="M 37.152344 133.117188 L 318.519531 133.117188 "/>
</g>
<g clip-path="url(#clip-2)">
<path fill="none" stroke-width="0.533489" stroke-linecap="butt" stroke-linejoin="round" stroke="rgb(100%, 100%, 100%)" stroke-opacity="1" stroke-miterlimit="10" d="M 37.152344 107.074219 L 318.519531 107.074219 "/>
</g>
<g clip-path="url(#clip-3)">
<path fill="none" stroke-width="0.533489" stroke-linecap="butt" stroke-linejoin="round" stroke="rgb(100%, 100%, 100%)" stroke-opacity="1" stroke-miterlimit="10" d="M 37.152344 81.035156 L 318.519531 81.035156 "/>
</g>
<g clip-path="url(#clip-4)">
<path fill="none" stroke-width="0.533489" stroke-linecap="butt" stroke-linejoin="round" stroke="rgb(100%, 100%, 100%)" stroke-opacity="1" stroke-miterlimit="10" d="M 37.152344 54.992188 L 318.519531 54.992188 "/>
</g>
<g clip-path="url(#clip-5)">
<path fill="none" stroke-width="0.533489" stroke-linecap="butt" stroke-linejoin="round" stroke="rgb(100%, 100%, 100%)" stroke-opacity="1" stroke-miterlimit="10" d="M 37.152344 28.953125 L 318.519531 28.953125 "/>
</g>
<g clip-path="url(#clip-6)">
<path fill="none" stroke-width="0.533489" stroke-linecap="butt" stroke-linejoin="round" stroke="rgb(100%, 100%, 100%)" stroke-opacity="1" stroke-miterlimit="10" d="M 92.941406 152.847656 L 92.941406 5.480469 "/>
</g>
<g clip-path="url(#clip-7)">
<path fill="none" stroke-width="0.533489" stroke-linecap="butt" stroke-linejoin="round" stroke="rgb(100%, 100%, 100%)" stroke-opacity="1" stroke-miterlimit="10" d="M 177.859375 152.847656 L 177.859375 5.480469 "/>
</g>
<g clip-path="url(#clip-8)">
<path fill="none" stroke-width="0.533489" stroke-linecap="butt" stroke-linejoin="round" stroke="rgb(100%, 100%, 100%)" stroke-opacity="1" stroke-miterlimit="10" d="M 262.78125 152.847656 L 262.78125 5.480469 "/>
</g>
<g clip-path="url(#clip-9)">
<path fill="none" stroke-width="1.066978" stroke-linecap="butt" stroke-linejoin="round" stroke="rgb(100%, 100%, 100%)" stroke-opacity="1" stroke-miterlimit="10" d="M 37.152344 146.136719 L 318.519531 146.136719 "/>
</g>
<g clip-path="url(#clip-10)">
<path fill="none" stroke-width="1.066978" stroke-linecap="butt" stroke-linejoin="round" stroke="rgb(100%, 100%, 100%)" stroke-opacity="1" stroke-miterlimit="10" d="M 37.152344 120.09375 L 318.519531 120.09375 "/>
</g>
<g clip-path="url(#clip-11)">
<path fill="none" stroke-width="1.066978" stroke-linecap="butt" stroke-linejoin="round" stroke="rgb(100%, 100%, 100%)" stroke-opacity="1" stroke-miterlimit="10" d="M 37.152344 94.054688 L 318.519531 94.054688 "/>
</g>
<g clip-path="url(#clip-12)">
<path fill="none" stroke-width="1.066978" stroke-linecap="butt" stroke-linejoin="round" stroke="rgb(100%, 100%, 100%)" stroke-opacity="1" stroke-miterlimit="10" d="M 37.152344 68.015625 L 318.519531 68.015625 "/>
</g>
<g clip-path="url(#clip-13)">
<path fill="none" stroke-width="1.066978" stroke-linecap="butt" stroke-linejoin="round" stroke="rgb(100%, 100%, 100%)" stroke-opacity="1" stroke-miterlimit="10" d="M 37.152344 41.972656 L 318.519531 41.972656 "/>
</g>
<g clip-path="url(#clip-14)">
<path fill="none" stroke-width="1.066978" stroke-linecap="butt" stroke-linejoin="round" stroke="rgb(100%, 100%, 100%)" stroke-opacity="1" stroke-miterlimit="10" d="M 37.152344 15.933594 L 318.519531 15.933594 "/>
</g>
<g clip-path="url(#clip-15)">
<path fill="none" stroke-width="1.066978" stroke-linecap="butt" stroke-linejoin="round" stroke="rgb(100%, 100%, 100%)" stroke-opacity="1" stroke-miterlimit="10" d="M 50.480469 152.847656 L 50.480469 5.480469 "/>
</g>
<g clip-path="url(#clip-16)">
<path fill="none" stroke-width="1.066978" stroke-linecap="butt" stroke-linejoin="round" stroke="rgb(100%, 100%, 100%)" stroke-opacity="1" stroke-miterlimit="10" d="M 135.398438 152.847656 L 135.398438 5.480469 "/>
</g>
<g clip-path="url(#clip-17)">
<path fill="none" stroke-width="1.066978" stroke-linecap="butt" stroke-linejoin="round" stroke="rgb(100%, 100%, 100%)" stroke-opacity="1" stroke-miterlimit="10" d="M 220.320312 152.847656 L 220.320312 5.480469 "/>
</g>
<g clip-path="url(#clip-18)">
<path fill="none" stroke-width="1.066978" stroke-linecap="butt" stroke-linejoin="round" stroke="rgb(100%, 100%, 100%)" stroke-opacity="1" stroke-miterlimit="10" d="M 305.242188 152.847656 L 305.242188 5.480469 "/>
</g>
<path fill="none" stroke-width="0.708661" stroke-linecap="round" stroke-linejoin="round" stroke="rgb(26.27451%, 43.137255%, 93.333333%)" stroke-opacity="1" stroke-miterlimit="10" d="M 53.109375 146.152344 C 53.109375 149.46875 48.132812 149.46875 48.132812 146.152344 C 48.132812 142.832031 53.109375 142.832031 53.109375 146.152344 "/>
<path fill="none" stroke-width="0.708661" stroke-linecap="round" stroke-linejoin="round" stroke="rgb(26.27451%, 43.137255%, 93.333333%)" stroke-opacity="1" stroke-miterlimit="10" d="M 53.035156 146.132812 C 53.035156 149.453125 48.058594 149.453125 48.058594 146.132812 C 48.058594 142.816406 53.035156 142.816406 53.035156 146.132812 "/>
<path fill="none" stroke-width="0.708661" stroke-linecap="round" stroke-linejoin="round" stroke="rgb(26.27451%, 43.137255%, 93.333333%)" stroke-opacity="1" stroke-miterlimit="10" d="M 52.632812 146.132812 C 52.632812 149.449219 47.65625 149.449219 47.65625 146.132812 C 47.65625 142.8125 52.632812 142.8125 52.632812 146.132812 "/>
<path fill="none" stroke-width="0.708661" stroke-linecap="round" stroke-linejoin="round" stroke="rgb(26.27451%, 43.137255%, 93.333333%)" stroke-opacity="1" stroke-miterlimit="10" d="M 53.167969 146.136719 C 53.167969 149.457031 48.191406 149.457031 48.191406 146.136719 C 48.191406 142.820312 53.167969 142.820312 53.167969 146.136719 "/>
<path fill="none" stroke-width="0.708661" stroke-linecap="round" stroke-linejoin="round" stroke="rgb(26.27451%, 43.137255%, 93.333333%)" stroke-opacity="1" stroke-miterlimit="10" d="M 52.429688 146.144531 C 52.429688 149.460938 47.453125 149.460938 47.453125 146.144531 C 47.453125 142.828125 52.429688 142.828125 52.429688 146.144531 "/>
<path fill="none" stroke-width="0.708661" stroke-linecap="round" stroke-linejoin="round" stroke="rgb(26.27451%, 43.137255%, 93.333333%)" stroke-opacity="1" stroke-miterlimit="10" d="M 53.507812 144.808594 C 53.507812 148.125 48.53125 148.125 48.53125 144.808594 C 48.53125 141.488281 53.507812 141.488281 53.507812 144.808594 "/>
<path fill="none" stroke-width="0.708661" stroke-linecap="round" stroke-linejoin="round" stroke="rgb(26.27451%, 43.137255%, 93.333333%)" stroke-opacity="1" stroke-miterlimit="10" d="M 53.683594 144.617188 C 53.683594 147.9375 48.707031 147.9375 48.707031 144.617188 C 48.707031 141.300781 53.683594 141.300781 53.683594 144.617188 "/>
<path fill="none" stroke-width="0.708661" stroke-linecap="round" stroke-linejoin="round" stroke="rgb(26.27451%, 43.137255%, 93.333333%)" stroke-opacity="1" stroke-miterlimit="10" d="M 53.464844 144.878906 C 53.464844 148.199219 48.488281 148.199219 48.488281 144.878906 C 48.488281 141.5625 53.464844 141.5625 53.464844 144.878906 "/>
<path fill="none" stroke-width="0.708661" stroke-linecap="round" stroke-linejoin="round" stroke="rgb(26.27451%, 43.137255%, 93.333333%)" stroke-opacity="1" stroke-miterlimit="10" d="M 54.308594 144.84375 C 54.308594 148.164062 49.332031 148.164062 49.332031 144.84375 C 49.332031 141.527344 54.308594 141.527344 54.308594 144.84375 "/>
<path fill="none" stroke-width="0.708661" stroke-linecap="round" stroke-linejoin="round" stroke="rgb(26.27451%, 43.137255%, 93.333333%)" stroke-opacity="1" stroke-miterlimit="10" d="M 54.378906 144.957031 C 54.378906 148.273438 49.402344 148.273438 49.402344 144.957031 C 49.402344 141.640625 54.378906 141.640625 54.378906 144.957031 "/>
<path fill="none" stroke-width="0.708661" stroke-linecap="round" stroke-linejoin="round" stroke="rgb(26.27451%, 43.137255%, 93.333333%)" stroke-opacity="1" stroke-miterlimit="10" d="M 57.089844 139.761719 C 57.089844 143.078125 52.113281 143.078125 52.113281 139.761719 C 52.113281 136.445312 57.089844 136.445312 57.089844 139.761719 "/>
<path fill="none" stroke-width="0.708661" stroke-linecap="round" stroke-linejoin="round" stroke="rgb(26.27451%, 43.137255%, 93.333333%)" stroke-opacity="1" stroke-miterlimit="10" d="M 57.84375 140.328125 C 57.84375 143.648438 52.867188 143.648438 52.867188 140.328125 C 52.867188 137.011719 57.84375 137.011719 57.84375 140.328125 "/>
<path fill="none" stroke-width="0.708661" stroke-linecap="round" stroke-linejoin="round" stroke="rgb(26.27451%, 43.137255%, 93.333333%)" stroke-opacity="1" stroke-miterlimit="10" d="M 57.714844 138.503906 C 57.714844 141.820312 52.738281 141.820312 52.738281 138.503906 C 52.738281 135.183594 57.714844 135.183594 57.714844 138.503906 "/>
<path fill="none" stroke-width="0.708661" stroke-linecap="round" stroke-linejoin="round" stroke="rgb(26.27451%, 43.137255%, 93.333333%)" stroke-opacity="1" stroke-miterlimit="10" d="M 57.8125 139.96875 C 57.8125 143.285156 52.835938 143.285156 52.835938 139.96875 C 52.835938 136.652344 57.8125 136.652344 57.8125 139.96875 "/>
<path fill="none" stroke-width="0.708661" stroke-linecap="round" stroke-linejoin="round" stroke="rgb(26.27451%, 43.137255%, 93.333333%)" stroke-opacity="1" stroke-miterlimit="10" d="M 56.644531 139.847656 C 56.644531 143.164062 51.667969 143.164062 51.667969 139.847656 C 51.667969 136.53125 56.644531 136.53125 56.644531 139.847656 "/>
<path fill="none" stroke-width="0.708661" stroke-linecap="round" stroke-linejoin="round" stroke="rgb(26.27451%, 43.137255%, 93.333333%)" stroke-opacity="1" stroke-miterlimit="10" d="M 69.5 122.40625 C 69.5 125.726562 64.523438 125.726562 64.523438 122.40625 C 64.523438 119.089844 69.5 119.089844 69.5 122.40625 "/>
<path fill="none" stroke-width="0.708661" stroke-linecap="round" stroke-linejoin="round" stroke="rgb(26.27451%, 43.137255%, 93.333333%)" stroke-opacity="1" stroke-miterlimit="10" d="M 69.421875 126.898438 C 69.421875 130.21875 64.445312 130.21875 64.445312 126.898438 C 64.445312 123.582031 69.421875 123.582031 69.421875 126.898438 "/>
<path fill="none" stroke-width="0.708661" stroke-linecap="round" stroke-linejoin="round" stroke="rgb(26.27451%, 43.137255%, 93.333333%)" stroke-opacity="1" stroke-miterlimit="10" d="M 69.796875 125.03125 C 69.796875 128.347656 64.820312 128.347656 64.820312 125.03125 C 64.820312 121.710938 69.796875 121.710938 69.796875 125.03125 "/>
<path fill="none" stroke-width="0.708661" stroke-linecap="round" stroke-linejoin="round" stroke="rgb(26.27451%, 43.137255%, 93.333333%)" stroke-opacity="1" stroke-miterlimit="10" d="M 70.027344 123.566406 C 70.027344 126.882812 65.050781 126.882812 65.050781 123.566406 C 65.050781 120.25 70.027344 120.25 70.027344 123.566406 "/>
<path fill="none" stroke-width="0.708661" stroke-linecap="round" stroke-linejoin="round" stroke="rgb(26.27451%, 43.137255%, 93.333333%)" stroke-opacity="1" stroke-miterlimit="10" d="M 69.875 127.339844 C 69.875 130.660156 64.898438 130.660156 64.898438 127.339844 C 64.898438 124.023438 69.875 124.023438 69.875 127.339844 "/>
<path fill="none" stroke-width="0.708661" stroke-linecap="round" stroke-linejoin="round" stroke="rgb(26.27451%, 43.137255%, 93.333333%)" stroke-opacity="1" stroke-miterlimit="10" d="M 94.992188 97.617188 C 94.992188 100.933594 90.015625 100.933594 90.015625 97.617188 C 90.015625 94.296875 94.992188 94.296875 94.992188 97.617188 "/>
<path fill="none" stroke-width="0.708661" stroke-linecap="round" stroke-linejoin="round" stroke="rgb(26.27451%, 43.137255%, 93.333333%)" stroke-opacity="1" stroke-miterlimit="10" d="M 94.992188 107.566406 C 94.992188 110.886719 90.015625 110.886719 90.015625 107.566406 C 90.015625 104.25 94.992188 104.25 94.992188 107.566406 "/>
<path fill="none" stroke-width="0.708661" stroke-linecap="round" stroke-linejoin="round" stroke="rgb(26.27451%, 43.137255%, 93.333333%)" stroke-opacity="1" stroke-miterlimit="10" d="M 95.035156 99.46875 C 95.035156 102.785156 90.058594 102.785156 90.058594 99.46875 C 90.058594 96.152344 95.035156 96.152344 95.035156 99.46875 "/>
<path fill="none" stroke-width="0.708661" stroke-linecap="round" stroke-linejoin="round" stroke="rgb(26.27451%, 43.137255%, 93.333333%)" stroke-opacity="1" stroke-miterlimit="10" d="M 95.503906 99.203125 C 95.503906 102.519531 90.527344 102.519531 90.527344 99.203125 C 90.527344 95.886719 95.503906 95.886719 95.503906 99.203125 "/>
<path fill="none" stroke-width="0.708661" stroke-linecap="round" stroke-linejoin="round" stroke="rgb(26.27451%, 43.137255%, 93.333333%)" stroke-opacity="1" stroke-miterlimit="10" d="M 95.027344 102.859375 C 95.027344 106.179688 90.050781 106.179688 90.050781 102.859375 C 90.050781 99.542969 95.027344 99.542969 95.027344 102.859375 "/>
<path fill="none" stroke-width="0.708661" stroke-linecap="round" stroke-linejoin="round" stroke="rgb(26.27451%, 43.137255%, 93.333333%)" stroke-opacity="1" stroke-miterlimit="10" d="M 116.785156 90.316406 C 116.785156 93.636719 111.808594 93.636719 111.808594 90.316406 C 111.808594 87 116.785156 87 116.785156 90.316406 "/>
<path fill="none" stroke-width="0.708661" stroke-linecap="round" stroke-linejoin="round" stroke="rgb(26.27451%, 43.137255%, 93.333333%)" stroke-opacity="1" stroke-miterlimit="10" d="M 116.222656 92.941406 C 116.222656 96.261719 111.246094 96.261719 111.246094 92.941406 C 111.246094 89.625 116.222656 89.625 116.222656 92.941406 "/>
<path fill="none" stroke-width="0.708661" stroke-linecap="round" stroke-linejoin="round" stroke="rgb(26.27451%, 43.137255%, 93.333333%)" stroke-opacity="1" stroke-miterlimit="10" d="M 116.195312 94.59375 C 116.195312 97.914062 111.21875 97.914062 111.21875 94.59375 C 111.21875 91.277344 116.195312 91.277344 116.195312 94.59375 "/>
<path fill="none" stroke-width="0.708661" stroke-linecap="round" stroke-linejoin="round" stroke="rgb(26.27451%, 43.137255%, 93.333333%)" stroke-opacity="1" stroke-miterlimit="10" d="M 116.691406 91.9375 C 116.691406 95.257812 111.714844 95.257812 111.714844 91.9375 C 111.714844 88.621094 116.691406 88.621094 116.691406 91.9375 "/>
<path fill="none" stroke-width="0.708661" stroke-linecap="round" stroke-linejoin="round" stroke="rgb(26.27451%, 43.137255%, 93.333333%)" stroke-opacity="1" stroke-miterlimit="10" d="M 117.175781 89.453125 C 117.175781 92.769531 112.199219 92.769531 112.199219 89.453125 C 112.199219 86.132812 117.175781 86.132812 117.175781 89.453125 "/>
<path fill="none" stroke-width="0.708661" stroke-linecap="round" stroke-linejoin="round" stroke="rgb(26.27451%, 43.137255%, 93.333333%)" stroke-opacity="1" stroke-miterlimit="10" d="M 138.199219 86.921875 C 138.199219 90.238281 133.222656 90.238281 133.222656 86.921875 C 133.222656 83.601562 138.199219 83.601562 138.199219 86.921875 "/>
<path fill="none" stroke-width="0.708661" stroke-linecap="round" stroke-linejoin="round" stroke="rgb(26.27451%, 43.137255%, 93.333333%)" stroke-opacity="1" stroke-miterlimit="10" d="M 138.414062 82.5625 C 138.414062 85.878906 133.4375 85.878906 133.4375 82.5625 C 133.4375 79.242188 138.414062 79.242188 138.414062 82.5625 "/>
<path fill="none" stroke-width="0.708661" stroke-linecap="round" stroke-linejoin="round" stroke="rgb(26.27451%, 43.137255%, 93.333333%)" stroke-opacity="1" stroke-miterlimit="10" d="M 137.351562 80.992188 C 137.351562 84.3125 132.375 84.3125 132.375 80.992188 C 132.375 77.675781 137.351562 77.675781 137.351562 80.992188 "/>
<path fill="none" stroke-width="0.708661" stroke-linecap="round" stroke-linejoin="round" stroke="rgb(26.27451%, 43.137255%, 93.333333%)" stroke-opacity="1" stroke-miterlimit="10" d="M 137.246094 81.710938 C 137.246094 85.03125 132.269531 85.03125 132.269531 81.710938 C 132.269531 78.394531 137.246094 78.394531 137.246094 81.710938 "/>
<path fill="none" stroke-width="0.708661" stroke-linecap="round" stroke-linejoin="round" stroke="rgb(26.27451%, 43.137255%, 93.333333%)" stroke-opacity="1" stroke-miterlimit="10" d="M 138.132812 74.507812 C 138.132812 77.824219 133.15625 77.824219 133.15625 74.507812 C 133.15625 71.1875 138.132812 71.1875 138.132812 74.507812 "/>
<path fill="none" stroke-width="0.708661" stroke-linecap="round" stroke-linejoin="round" stroke="rgb(26.27451%, 43.137255%, 93.333333%)" stroke-opacity="1" stroke-miterlimit="10" d="M 159.023438 72.007812 C 159.023438 75.324219 154.046875 75.324219 154.046875 72.007812 C 154.046875 68.6875 159.023438 68.6875 159.023438 72.007812 "/>
<path fill="none" stroke-width="0.708661" stroke-linecap="round" stroke-linejoin="round" stroke="rgb(26.27451%, 43.137255%, 93.333333%)" stroke-opacity="1" stroke-miterlimit="10" d="M 159.167969 72.4375 C 159.167969 75.753906 154.191406 75.753906 154.191406 72.4375 C 154.191406 69.121094 159.167969 69.121094 159.167969 72.4375 "/>
<path fill="none" stroke-width="0.708661" stroke-linecap="round" stroke-linejoin="round" stroke="rgb(26.27451%, 43.137255%, 93.333333%)" stroke-opacity="1" stroke-miterlimit="10" d="M 159.09375 73.09375 C 159.09375 76.414062 154.117188 76.414062 154.117188 73.09375 C 154.117188 69.777344 159.09375 69.777344 159.09375 73.09375 "/>
<path fill="none" stroke-width="0.708661" stroke-linecap="round" stroke-linejoin="round" stroke="rgb(26.27451%, 43.137255%, 93.333333%)" stroke-opacity="1" stroke-miterlimit="10" d="M 158.933594 70.757812 C 158.933594 74.078125 153.957031 74.078125 153.957031 70.757812 C 153.957031 67.441406 158.933594 67.441406 158.933594 70.757812 "/>
<path fill="none" stroke-width="0.708661" stroke-linecap="round" stroke-linejoin="round" stroke="rgb(26.27451%, 43.137255%, 93.333333%)" stroke-opacity="1" stroke-miterlimit="10" d="M 158.640625 69.636719 C 158.640625 72.953125 153.664062 72.953125 153.664062 69.636719 C 153.664062 66.320312 158.640625 66.320312 158.640625 69.636719 "/>
<path fill="none" stroke-width="0.708661" stroke-linecap="round" stroke-linejoin="round" stroke="rgb(26.27451%, 43.137255%, 93.333333%)" stroke-opacity="1" stroke-miterlimit="10" d="M 180.484375 71.0625 C 180.484375 74.382812 175.507812 74.382812 175.507812 71.0625 C 175.507812 67.746094 180.484375 67.746094 180.484375 71.0625 "/>
<path fill="none" stroke-width="0.708661" stroke-linecap="round" stroke-linejoin="round" stroke="rgb(26.27451%, 43.137255%, 93.333333%)" stroke-opacity="1" stroke-miterlimit="10" d="M 180.742188 67.679688 C 180.742188 70.996094 175.765625 70.996094 175.765625 67.679688 C 175.765625 64.363281 180.742188 64.363281 180.742188 67.679688 "/>
<path fill="none" stroke-width="0.708661" stroke-linecap="round" stroke-linejoin="round" stroke="rgb(26.27451%, 43.137255%, 93.333333%)" stroke-opacity="1" stroke-miterlimit="10" d="M 180.683594 68.160156 C 180.683594 71.480469 175.707031 71.480469 175.707031 68.160156 C 175.707031 64.84375 180.683594 64.84375 180.683594 68.160156 "/>
<path fill="none" stroke-width="0.708661" stroke-linecap="round" stroke-linejoin="round" stroke="rgb(26.27451%, 43.137255%, 93.333333%)" stroke-opacity="1" stroke-miterlimit="10" d="M 179.925781 72.09375 C 179.925781 75.410156 174.949219 75.410156 174.949219 72.09375 C 174.949219 68.773438 179.925781 68.773438 179.925781 72.09375 "/>
<path fill="none" stroke-width="0.708661" stroke-linecap="round" stroke-linejoin="round" stroke="rgb(26.27451%, 43.137255%, 93.333333%)" stroke-opacity="1" stroke-miterlimit="10" d="M 180.394531 74.25 C 180.394531 77.566406 175.417969 77.566406 175.417969 74.25 C 175.417969 70.929688 180.394531 70.929688 180.394531 74.25 "/>
<path fill="none" stroke-width="0.708661" stroke-linecap="round" stroke-linejoin="round" stroke="rgb(26.27451%, 43.137255%, 93.333333%)" stroke-opacity="1" stroke-miterlimit="10" d="M 201.449219 61.421875 C 201.449219 64.742188 196.472656 64.742188 196.472656 61.421875 C 196.472656 58.105469 201.449219 58.105469 201.449219 61.421875 "/>
<path fill="none" stroke-width="0.708661" stroke-linecap="round" stroke-linejoin="round" stroke="rgb(26.27451%, 43.137255%, 93.333333%)" stroke-opacity="1" stroke-miterlimit="10" d="M 201.566406 60.859375 C 201.566406 64.175781 196.589844 64.175781 196.589844 60.859375 C 196.589844 57.542969 201.566406 57.542969 201.566406 60.859375 "/>
<path fill="none" stroke-width="0.708661" stroke-linecap="round" stroke-linejoin="round" stroke="rgb(26.27451%, 43.137255%, 93.333333%)" stroke-opacity="1" stroke-miterlimit="10" d="M 201.804688 66.304688 C 201.804688 69.625 196.828125 69.625 196.828125 66.304688 C 196.828125 62.988281 201.804688 62.988281 201.804688 66.304688 "/>
<path fill="none" stroke-width="0.708661" stroke-linecap="round" stroke-linejoin="round" stroke="rgb(26.27451%, 43.137255%, 93.333333%)" stroke-opacity="1" stroke-miterlimit="10" d="M 201.003906 65.386719 C 201.003906 68.707031 196.027344 68.707031 196.027344 65.386719 C 196.027344 62.070312 201.003906 62.070312 201.003906 65.386719 "/>
<path fill="none" stroke-width="0.708661" stroke-linecap="round" stroke-linejoin="round" stroke="rgb(26.27451%, 43.137255%, 93.333333%)" stroke-opacity="1" stroke-miterlimit="10" d="M 201.136719 56.773438 C 201.136719 60.089844 196.160156 60.089844 196.160156 56.773438 C 196.160156 53.453125 201.136719 53.453125 201.136719 56.773438 "/>
<path fill="none" stroke-width="0.708661" stroke-linecap="round" stroke-linejoin="round" stroke="rgb(26.27451%, 43.137255%, 93.333333%)" stroke-opacity="1" stroke-miterlimit="10" d="M 223.320312 61.226562 C 223.320312 64.546875 218.34375 64.546875 218.34375 61.226562 C 218.34375 57.910156 223.320312 57.910156 223.320312 61.226562 "/>
<path fill="none" stroke-width="0.708661" stroke-linecap="round" stroke-linejoin="round" stroke="rgb(26.27451%, 43.137255%, 93.333333%)" stroke-opacity="1" stroke-miterlimit="10" d="M 222.578125 56.9375 C 222.578125 60.257812 217.601562 60.257812 217.601562 56.9375 C 217.601562 53.621094 222.578125 53.621094 222.578125 56.9375 "/>
<path fill="none" stroke-width="0.708661" stroke-linecap="round" stroke-linejoin="round" stroke="rgb(26.27451%, 43.137255%, 93.333333%)" stroke-opacity="1" stroke-miterlimit="10" d="M 223.203125 53.230469 C 223.203125 56.546875 218.226562 56.546875 218.226562 53.230469 C 218.226562 49.914062 223.203125 49.914062 223.203125 53.230469 "/>
<path fill="none" stroke-width="0.708661" stroke-linecap="round" stroke-linejoin="round" stroke="rgb(26.27451%, 43.137255%, 93.333333%)" stroke-opacity="1" stroke-miterlimit="10" d="M 222.28125 53.554688 C 222.28125 56.875 217.304688 56.875 217.304688 53.554688 C 217.304688 50.238281 222.28125 50.238281 222.28125 53.554688 "/>
<path fill="none" stroke-width="0.708661" stroke-linecap="round" stroke-linejoin="round" stroke="rgb(26.27451%, 43.137255%, 93.333333%)" stroke-opacity="1" stroke-miterlimit="10" d="M 223.289062 61.898438 C 223.289062 65.21875 218.3125 65.21875 218.3125 61.898438 C 218.3125 58.582031 223.289062 58.582031 223.289062 61.898438 "/>
<path fill="none" stroke-width="0.708661" stroke-linecap="round" stroke-linejoin="round" stroke="rgb(26.27451%, 43.137255%, 93.333333%)" stroke-opacity="1" stroke-miterlimit="10" d="M 265.25 60.523438 C 265.25 63.839844 260.273438 63.839844 260.273438 60.523438 C 260.273438 57.203125 265.25 57.203125 265.25 60.523438 "/>
<path fill="none" stroke-width="0.708661" stroke-linecap="round" stroke-linejoin="round" stroke="rgb(26.27451%, 43.137255%, 93.333333%)" stroke-opacity="1" stroke-miterlimit="10" d="M 264.964844 47.53125 C 264.964844 50.847656 259.988281 50.847656 259.988281 47.53125 C 259.988281 44.214844 264.964844 44.214844 264.964844 47.53125 "/>
<path fill="none" stroke-width="0.708661" stroke-linecap="round" stroke-linejoin="round" stroke="rgb(26.27451%, 43.137255%, 93.333333%)" stroke-opacity="1" stroke-miterlimit="10" d="M 265.648438 53.117188 C 265.648438 56.433594 260.671875 56.433594 260.671875 53.117188 C 260.671875 49.800781 265.648438 49.800781 265.648438 53.117188 "/>
<path fill="none" stroke-width="0.708661" stroke-linecap="round" stroke-linejoin="round" stroke="rgb(26.27451%, 43.137255%, 93.333333%)" stroke-opacity="1" stroke-miterlimit="10" d="M 265.796875 46.746094 C 265.796875 50.0625 260.820312 50.0625 260.820312 46.746094 C 260.820312 43.429688 265.796875 43.429688 265.796875 46.746094 "/>
<path fill="none" stroke-width="0.708661" stroke-linecap="round" stroke-linejoin="round" stroke="rgb(26.27451%, 43.137255%, 93.333333%)" stroke-opacity="1" stroke-miterlimit="10" d="M 265.304688 51.578125 C 265.304688 54.898438 260.328125 54.898438 260.328125 51.578125 C 260.328125 48.261719 265.304688 48.261719 265.304688 51.578125 "/>
<path fill="none" stroke-width="0.708661" stroke-linecap="round" stroke-linejoin="round" stroke="rgb(26.27451%, 43.137255%, 93.333333%)" stroke-opacity="1" stroke-miterlimit="10" d="M 308.21875 37.441406 C 308.21875 40.757812 303.242188 40.757812 303.242188 37.441406 C 303.242188 34.125 308.21875 34.125 308.21875 37.441406 "/>
<path fill="none" stroke-width="0.708661" stroke-linecap="round" stroke-linejoin="round" stroke="rgb(26.27451%, 43.137255%, 93.333333%)" stroke-opacity="1" stroke-miterlimit="10" d="M 308.058594 54.671875 C 308.058594 57.988281 303.082031 57.988281 303.082031 54.671875 C 303.082031 51.351562 308.058594 51.351562 308.058594 54.671875 "/>
<path fill="none" stroke-width="0.708661" stroke-linecap="round" stroke-linejoin="round" stroke="rgb(26.27451%, 43.137255%, 93.333333%)" stroke-opacity="1" stroke-miterlimit="10" d="M 307.632812 44.398438 C 307.632812 47.714844 302.65625 47.714844 302.65625 44.398438 C 302.65625 41.078125 307.632812 41.078125 307.632812 44.398438 "/>
<path fill="none" stroke-width="0.708661" stroke-linecap="round" stroke-linejoin="round" stroke="rgb(26.27451%, 43.137255%, 93.333333%)" stroke-opacity="1" stroke-miterlimit="10" d="M 307.203125 47.761719 C 307.203125 51.078125 302.226562 51.078125 302.226562 47.761719 C 302.226562 44.445312 307.203125 44.445312 307.203125 47.761719 "/>
<path fill="none" stroke-width="0.708661" stroke-linecap="round" stroke-linejoin="round" stroke="rgb(26.27451%, 43.137255%, 93.333333%)" stroke-opacity="1" stroke-miterlimit="10" d="M 307.640625 50.476562 C 307.640625 53.792969 302.664062 53.792969 302.664062 50.476562 C 302.664062 47.160156 307.640625 47.160156 307.640625 50.476562 "/>
<path fill="none" stroke-width="1.49377" stroke-linecap="butt" stroke-linejoin="round" stroke="rgb(0%, 0%, 0%)" stroke-opacity="1" stroke-miterlimit="10" d="M 50.480469 146.136719 L 51.761719 144.25 L 53.039062 142.414062 L 54.320312 140.628906 L 55.601562 138.894531 L 56.882812 137.203125 L 58.160156 135.558594 L 59.441406 133.957031 L 60.722656 132.394531 L 62 130.871094 L 63.28125 129.386719 L 64.5625 127.941406 L 65.84375 126.527344 L 67.121094 125.152344 L 68.402344 123.804688 L 69.683594 122.492188 L 70.964844 121.210938 L 72.242188 119.957031 L 73.523438 118.730469 L 74.804688 117.535156 L 76.085938 116.363281 L 77.363281 115.21875 L 78.644531 114.097656 L 79.925781 113 L 81.203125 111.929688 L 82.484375 110.878906 L 83.765625 109.851562 L 85.046875 108.84375 L 86.324219 107.855469 L 87.605469 106.890625 L 88.886719 105.941406 L 90.167969 105.015625 L 91.445312 104.105469 L 92.726562 103.210938 L 94.007812 102.335938 L 95.289062 101.476562 L 96.566406 100.636719 L 97.847656 99.808594 L 99.128906 98.996094 L 100.40625 98.199219 L 101.6875 97.417969 L 102.96875 96.648438 L 104.25 95.894531 L 105.527344 95.15625 L 106.808594 94.425781 L 108.089844 93.710938 L 109.371094 93.007812 L 110.648438 92.316406 L 111.929688 91.636719 L 113.210938 90.96875 L 114.492188 90.3125 L 115.769531 89.667969 L 117.050781 89.03125 L 118.332031 88.40625 L 119.609375 87.792969 L 120.890625 87.1875 L 122.171875 86.59375 L 123.453125 86.007812 L 124.730469 85.429688 L 126.011719 84.863281 L 127.292969 84.304688 L 128.574219 83.753906 L 129.851562 83.210938 L 131.132812 82.675781 L 132.414062 82.148438 L 133.695312 81.632812 L 134.972656 81.121094 L 136.253906 80.617188 L 137.535156 80.121094 L 138.8125 79.632812 L 140.09375 79.152344 L 141.375 78.675781 L 142.65625 78.207031 L 143.933594 77.746094 L 145.214844 77.289062 L 146.496094 76.839844 L 147.777344 76.398438 L 149.054688 75.960938 L 150.335938 75.53125 L 151.617188 75.105469 L 152.898438 74.683594 L 154.175781 74.269531 L 155.457031 73.863281 L 156.738281 73.460938 L 158.015625 73.0625 L 159.296875 72.667969 L 160.578125 72.28125 L 161.859375 71.898438 L 163.136719 71.519531 L 165.699219 70.777344 L 166.980469 70.414062 L 168.257812 70.054688 L 169.539062 69.699219 L 170.820312 69.347656 L 172.101562 69.003906 L 173.378906 68.660156 L 174.660156 68.320312 L 175.941406 67.988281 L 177.21875 67.65625 L 179.78125 67.007812 L 181.0625 66.691406 L 182.339844 66.375 L 183.621094 66.0625 L 184.902344 65.753906 L 186.183594 65.449219 L 187.460938 65.148438 L 188.742188 64.851562 L 190.023438 64.558594 L 191.300781 64.265625 L 193.863281 63.695312 L 195.144531 63.414062 L 196.421875 63.132812 L 198.984375 62.585938 L 200.265625 62.316406 L 201.542969 62.050781 L 202.824219 61.785156 L 204.105469 61.523438 L 205.386719 61.265625 L 206.664062 61.011719 L 207.945312 60.757812 L 209.226562 60.507812 L 210.503906 60.257812 L 211.785156 60.015625 L 213.066406 59.769531 L 214.347656 59.53125 L 215.625 59.292969 L 218.1875 58.824219 L 219.46875 58.59375 L 220.746094 58.363281 L 222.027344 58.136719 L 224.589844 57.691406 L 225.867188 57.472656 L 227.148438 57.253906 L 228.429688 57.039062 L 229.707031 56.824219 L 232.269531 56.402344 L 233.550781 56.195312 L 234.828125 55.992188 L 236.109375 55.785156 L 237.390625 55.585938 L 238.671875 55.382812 L 239.949219 55.1875 L 241.230469 54.988281 L 242.511719 54.796875 L 243.792969 54.601562 L 245.070312 54.410156 L 247.632812 54.035156 L 248.910156 53.847656 L 251.472656 53.480469 L 252.753906 53.300781 L 254.03125 53.121094 L 255.3125 52.941406 L 257.875 52.589844 L 259.152344 52.417969 L 261.714844 52.074219 L 262.996094 51.90625 L 264.273438 51.738281 L 265.554688 51.570312 L 266.835938 51.40625 L 268.113281 51.242188 L 271.957031 50.761719 L 273.234375 50.601562 L 275.796875 50.289062 L 277.078125 50.136719 L 278.355469 49.984375 L 280.917969 49.679688 L 282.199219 49.53125 L 283.476562 49.382812 L 284.757812 49.234375 L 286.039062 49.089844 L 287.316406 48.945312 L 288.597656 48.800781 L 291.160156 48.519531 L 292.4375 48.378906 L 293.71875 48.238281 L 296.28125 47.964844 L 297.558594 47.828125 L 298.839844 47.691406 L 301.402344 47.425781 L 302.679688 47.292969 L 303.960938 47.160156 L 305.242188 47.03125 "/>
<g clip-path="url(#clip-19)">
<path fill="none" stroke-width="1.066978" stroke-linecap="butt" stroke-linejoin="round" stroke="rgb(80.392157%, 37.647059%, 56.470588%)" stroke-opacity="1" stroke-dasharray="4.267913 4.267913" stroke-miterlimit="10" d="M 140.078125 152.847656 L 140.078125 5.480469 "/>
</g>
<g clip-path="url(#clip-20)">
<path fill="none" stroke-width="1.066978" stroke-linecap="butt" stroke-linejoin="round" stroke="rgb(80.392157%, 37.647059%, 56.470588%)" stroke-opacity="1" stroke-dasharray="4.267913 4.267913" stroke-miterlimit="10" d="M 37.152344 12.179688 L 318.519531 12.179688 "/>
</g>
<g fill="rgb(30.196078%, 30.196078%, 30.196078%)" fill-opacity="1">
<use xlink:href="#glyph-0-1" x="27.21875" y="149.413086"/>
</g>
<g fill="rgb(30.196078%, 30.196078%, 30.196078%)" fill-opacity="1">
<use xlink:href="#glyph-0-2" x="22.21875" y="123.370117"/>
<use xlink:href="#glyph-0-1" x="27.21875" y="123.370117"/>
</g>
<g fill="rgb(30.196078%, 30.196078%, 30.196078%)" fill-opacity="1">
<use xlink:href="#glyph-0-3" x="22.21875" y="97.331055"/>
<use xlink:href="#glyph-0-1" x="27.21875" y="97.331055"/>
</g>
<g fill="rgb(30.196078%, 30.196078%, 30.196078%)" fill-opacity="1">
<use xlink:href="#glyph-0-4" x="22.21875" y="71.291992"/>
<use xlink:href="#glyph-0-1" x="27.21875" y="71.291992"/>
</g>
<g fill="rgb(30.196078%, 30.196078%, 30.196078%)" fill-opacity="1">
<use xlink:href="#glyph-0-5" x="22.21875" y="45.249023"/>
<use xlink:href="#glyph-0-1" x="27.21875" y="45.249023"/>
</g>
<g fill="rgb(30.196078%, 30.196078%, 30.196078%)" fill-opacity="1">
<use xlink:href="#glyph-0-6" x="22.21875" y="19.209961"/>
<use xlink:href="#glyph-0-1" x="27.21875" y="19.209961"/>
</g>
<path fill="none" stroke-width="1.066978" stroke-linecap="butt" stroke-linejoin="round" stroke="rgb(20%, 20%, 20%)" stroke-opacity="1" stroke-miterlimit="10" d="M 34.410156 146.136719 L 37.152344 146.136719 "/>
<path fill="none" stroke-width="1.066978" stroke-linecap="butt" stroke-linejoin="round" stroke="rgb(20%, 20%, 20%)" stroke-opacity="1" stroke-miterlimit="10" d="M 34.410156 120.09375 L 37.152344 120.09375 "/>
<path fill="none" stroke-width="1.066978" stroke-linecap="butt" stroke-linejoin="round" stroke="rgb(20%, 20%, 20%)" stroke-opacity="1" stroke-miterlimit="10" d="M 34.410156 94.054688 L 37.152344 94.054688 "/>
<path fill="none" stroke-width="1.066978" stroke-linecap="butt" stroke-linejoin="round" stroke="rgb(20%, 20%, 20%)" stroke-opacity="1" stroke-miterlimit="10" d="M 34.410156 68.015625 L 37.152344 68.015625 "/>
<path fill="none" stroke-width="1.066978" stroke-linecap="butt" stroke-linejoin="round" stroke="rgb(20%, 20%, 20%)" stroke-opacity="1" stroke-miterlimit="10" d="M 34.410156 41.972656 L 37.152344 41.972656 "/>
<path fill="none" stroke-width="1.066978" stroke-linecap="butt" stroke-linejoin="round" stroke="rgb(20%, 20%, 20%)" stroke-opacity="1" stroke-miterlimit="10" d="M 34.410156 15.933594 L 37.152344 15.933594 "/>
<path fill="none" stroke-width="1.066978" stroke-linecap="butt" stroke-linejoin="round" stroke="rgb(20%, 20%, 20%)" stroke-opacity="1" stroke-miterlimit="10" d="M 50.480469 155.589844 L 50.480469 152.847656 "/>
<path fill="none" stroke-width="1.066978" stroke-linecap="butt" stroke-linejoin="round" stroke="rgb(20%, 20%, 20%)" stroke-opacity="1" stroke-miterlimit="10" d="M 135.398438 155.589844 L 135.398438 152.847656 "/>
<path fill="none" stroke-width="1.066978" stroke-linecap="butt" stroke-linejoin="round" stroke="rgb(20%, 20%, 20%)" stroke-opacity="1" stroke-miterlimit="10" d="M 220.320312 155.589844 L 220.320312 152.847656 "/>
<path fill="none" stroke-width="1.066978" stroke-linecap="butt" stroke-linejoin="round" stroke="rgb(20%, 20%, 20%)" stroke-opacity="1" stroke-miterlimit="10" d="M 305.242188 155.589844 L 305.242188 152.847656 "/>
<g fill="rgb(30.196078%, 30.196078%, 30.196078%)" fill-opacity="1">
<use xlink:href="#glyph-0-1" x="47.980469" y="164.557617"/>
</g>
<g fill="rgb(30.196078%, 30.196078%, 30.196078%)" fill-opacity="1">
<use xlink:href="#glyph-0-2" x="130.398438" y="164.557617"/>
<use xlink:href="#glyph-0-1" x="135.398438" y="164.557617"/>
</g>
<g fill="rgb(30.196078%, 30.196078%, 30.196078%)" fill-opacity="1">
<use xlink:href="#glyph-0-3" x="215.320312" y="164.557617"/>
<use xlink:href="#glyph-0-1" x="220.320312" y="164.557617"/>
</g>
<g fill="rgb(30.196078%, 30.196078%, 30.196078%)" fill-opacity="1">
<use xlink:href="#glyph-0-4" x="300.242188" y="164.557617"/>
<use xlink:href="#glyph-0-1" x="305.242188" y="164.557617"/>
</g>
<g fill="rgb(0%, 0%, 0%)" fill-opacity="1">
<use xlink:href="#glyph-1-1" x="113.335938" y="177.990234"/>
<use xlink:href="#glyph-1-2" x="120.335938" y="177.990234"/>
<use xlink:href="#glyph-1-3" x="126.335938" y="177.990234"/>
<use xlink:href="#glyph-1-4" x="132.335938" y="177.990234"/>
<use xlink:href="#glyph-1-5" x="138.335938" y="177.990234"/>
<use xlink:href="#glyph-1-6" x="141.335938" y="177.990234"/>
<use xlink:href="#glyph-1-7" x="145.335938" y="177.990234"/>
<use xlink:href="#glyph-1-5" x="151.335938" y="177.990234"/>
<use xlink:href="#glyph-1-8" x="154.335938" y="177.990234"/>
<use xlink:href="#glyph-1-9" x="160.335938" y="177.990234"/>
<use xlink:href="#glyph-1-10" x="163.335938" y="177.990234"/>
<use xlink:href="#glyph-1-11" x="169.335938" y="177.990234"/>
<use xlink:href="#glyph-1-12" x="175.335938" y="177.990234"/>
<use xlink:href="#glyph-1-10" x="181.335938" y="177.990234"/>
<use xlink:href="#glyph-1-8" x="187.335938" y="177.990234"/>
<use xlink:href="#glyph-1-12" x="193.335938" y="177.990234"/>
<use xlink:href="#glyph-1-5" x="199.335938" y="177.990234"/>
<use xlink:href="#glyph-1-6" x="202.335938" y="177.990234"/>
<use xlink:href="#glyph-1-7" x="206.335938" y="177.990234"/>
<use xlink:href="#glyph-1-5" x="212.335938" y="177.990234"/>
<use xlink:href="#glyph-1-13" x="215.335938" y="177.990234"/>
<use xlink:href="#glyph-1-11" x="217.335938" y="177.990234"/>
<use xlink:href="#glyph-1-12" x="223.335938" y="177.990234"/>
<use xlink:href="#glyph-1-14" x="229.335938" y="177.990234"/>
<use xlink:href="#glyph-1-9" x="232.335938" y="177.990234"/>
</g>
<g fill="rgb(0%, 0%, 0%)" fill-opacity="1">
<use xlink:href="#glyph-1-1" x="235.335938" y="177.990234"/>
</g>
<g fill="rgb(0%, 0%, 0%)" fill-opacity="1">
<use xlink:href="#glyph-2-1" x="12.951172" y="114.164062"/>
<use xlink:href="#glyph-2-2" x="12.951172" y="106.164062"/>
<use xlink:href="#glyph-2-3" x="12.951172" y="100.164062"/>
<use xlink:href="#glyph-2-4" x="12.951172" y="97.164062"/>
<use xlink:href="#glyph-2-5" x="12.951172" y="91.164062"/>
<use xlink:href="#glyph-2-6" x="12.951172" y="85.164062"/>
<use xlink:href="#glyph-2-7" x="12.951172" y="79.164062"/>
<use xlink:href="#glyph-2-8" x="12.951172" y="76.164062"/>
<use xlink:href="#glyph-2-4" x="12.951172" y="72.164062"/>
<use xlink:href="#glyph-2-3" x="12.951172" y="66.164062"/>
<use xlink:href="#glyph-2-6" x="12.951172" y="63.164062"/>
<use xlink:href="#glyph-2-9" x="12.951172" y="57.164062"/>
<use xlink:href="#glyph-2-7" x="12.951172" y="54.164062"/>
</g>
<g fill="rgb(0%, 0%, 0%)" fill-opacity="1">
<use xlink:href="#glyph-2-10" x="12.951172" y="51.164062"/>
</g>
</svg>
