<?xml version="1.0" encoding="UTF-8"?>
<svg xmlns="http://www.w3.org/2000/svg" xmlns:xlink="http://www.w3.org/1999/xlink" width="324pt" height="216pt" viewBox="0 0 324 216">
<defs>
<g>
<g id="glyph-0-0">
<path d="M 0.28125 0 L 0.28125 -6.3125 L 5.296875 -6.3125 L 5.296875 0 Z M 4.5 -0.796875 L 4.5 -5.515625 L 1.078125 -5.515625 L 1.078125 -0.796875 Z M 4.5 -0.796875 "/>
</g>
<g id="glyph-0-1">
<path d="M 2.375 -6.15625 C 3.175781 -6.15625 3.753906 -5.828125 4.109375 -5.171875 C 4.378906 -4.660156 4.515625 -3.960938 4.515625 -3.078125 C 4.515625 -2.242188 4.390625 -1.554688 4.140625 -1.015625 C 3.785156 -0.222656 3.195312 0.171875 2.375 0.171875 C 1.632812 0.171875 1.082031 -0.148438 0.71875 -0.796875 C 0.425781 -1.328125 0.28125 -2.046875 0.28125 -2.953125 C 0.28125 -3.648438 0.367188 -4.25 0.546875 -4.75 C 0.878906 -5.6875 1.488281 -6.15625 2.375 -6.15625 Z M 2.375 -0.53125 C 2.769531 -0.53125 3.085938 -0.707031 3.328125 -1.0625 C 3.566406 -1.425781 3.6875 -2.085938 3.6875 -3.046875 C 3.6875 -3.753906 3.597656 -4.332031 3.421875 -4.78125 C 3.253906 -5.226562 2.921875 -5.453125 2.421875 -5.453125 C 1.972656 -5.453125 1.640625 -5.238281 1.421875 -4.8125 C 1.210938 -4.382812 1.109375 -3.753906 1.109375 -2.921875 C 1.109375 -2.296875 1.175781 -1.789062 1.3125 -1.40625 C 1.519531 -0.820312 1.875 -0.53125 2.375 -0.53125 Z M 2.375 -0.53125 "/>
</g>
<g id="glyph-0-2">
<path d="M 0.84375 -4.359375 L 0.84375 -4.953125 C 1.394531 -5.003906 1.78125 -5.09375 2 -5.21875 C 2.226562 -5.34375 2.394531 -5.644531 2.5 -6.125 L 3.109375 -6.125 L 3.109375 0 L 2.296875 0 L 2.296875 -4.359375 Z M 0.84375 -4.359375 "/>
</g>
<g id="glyph-0-3">
<path d="M 0.28125 0 C 0.300781 -0.53125 0.40625 -0.988281 0.59375 -1.375 C 0.789062 -1.769531 1.164062 -2.128906 1.71875 -2.453125 L 2.546875 -2.921875 C 2.910156 -3.140625 3.164062 -3.328125 3.3125 -3.484375 C 3.550781 -3.710938 3.671875 -3.984375 3.671875 -4.296875 C 3.671875 -4.648438 3.5625 -4.929688 3.34375 -5.140625 C 3.132812 -5.359375 2.847656 -5.46875 2.484375 -5.46875 C 1.960938 -5.46875 1.597656 -5.265625 1.390625 -4.859375 C 1.285156 -4.648438 1.226562 -4.351562 1.21875 -3.96875 L 0.421875 -3.96875 C 0.429688 -4.5 0.53125 -4.9375 0.71875 -5.28125 C 1.050781 -5.875 1.644531 -6.171875 2.5 -6.171875 C 3.195312 -6.171875 3.707031 -5.976562 4.03125 -5.59375 C 4.363281 -5.21875 4.53125 -4.796875 4.53125 -4.328125 C 4.53125 -3.835938 4.351562 -3.414062 4 -3.0625 C 3.800781 -2.863281 3.441406 -2.617188 2.921875 -2.328125 L 2.34375 -2 C 2.0625 -1.84375 1.835938 -1.695312 1.671875 -1.5625 C 1.390625 -1.3125 1.210938 -1.035156 1.140625 -0.734375 L 4.5 -0.734375 L 4.5 0 Z M 0.28125 0 "/>
</g>
<g id="glyph-0-4">
<path d="M 2.28125 0.171875 C 1.550781 0.171875 1.019531 -0.0234375 0.6875 -0.421875 C 0.363281 -0.828125 0.203125 -1.316406 0.203125 -1.890625 L 1.015625 -1.890625 C 1.046875 -1.492188 1.117188 -1.203125 1.234375 -1.015625 C 1.441406 -0.691406 1.804688 -0.53125 2.328125 -0.53125 C 2.734375 -0.53125 3.054688 -0.640625 3.296875 -0.859375 C 3.546875 -1.078125 3.671875 -1.359375 3.671875 -1.703125 C 3.671875 -2.128906 3.539062 -2.425781 3.28125 -2.59375 C 3.03125 -2.757812 2.671875 -2.84375 2.203125 -2.84375 C 2.148438 -2.84375 2.097656 -2.84375 2.046875 -2.84375 C 1.992188 -2.84375 1.941406 -2.84375 1.890625 -2.84375 L 1.890625 -3.515625 C 1.972656 -3.515625 2.039062 -3.507812 2.09375 -3.5 C 2.144531 -3.5 2.203125 -3.5 2.265625 -3.5 C 2.554688 -3.5 2.796875 -3.546875 2.984375 -3.640625 C 3.304688 -3.796875 3.46875 -4.082031 3.46875 -4.5 C 3.46875 -4.800781 3.359375 -5.035156 3.140625 -5.203125 C 2.921875 -5.367188 2.671875 -5.453125 2.390625 -5.453125 C 1.867188 -5.453125 1.507812 -5.28125 1.3125 -4.9375 C 1.207031 -4.75 1.144531 -4.476562 1.125 -4.125 L 0.359375 -4.125 C 0.359375 -4.582031 0.453125 -4.972656 0.640625 -5.296875 C 0.953125 -5.867188 1.503906 -6.15625 2.296875 -6.15625 C 2.929688 -6.15625 3.421875 -6.015625 3.765625 -5.734375 C 4.109375 -5.460938 4.28125 -5.0625 4.28125 -4.53125 C 4.28125 -4.144531 4.175781 -3.835938 3.96875 -3.609375 C 3.84375 -3.460938 3.679688 -3.347656 3.484375 -3.265625 C 3.804688 -3.171875 4.054688 -3 4.234375 -2.75 C 4.421875 -2.5 4.515625 -2.191406 4.515625 -1.828125 C 4.515625 -1.234375 4.316406 -0.75 3.921875 -0.375 C 3.535156 -0.0078125 2.988281 0.171875 2.28125 0.171875 Z M 2.28125 0.171875 "/>
</g>
<g id="glyph-0-5">
<path d="M 2.90625 -2.171875 L 2.90625 -4.96875 L 0.9375 -2.171875 Z M 2.921875 0 L 2.921875 -1.5 L 0.21875 -1.5 L 0.21875 -2.265625 L 3.046875 -6.171875 L 3.6875 -6.171875 L 3.6875 -2.171875 L 4.59375 -2.171875 L 4.59375 -1.5 L 3.6875 -1.5 L 3.6875 0 Z M 2.921875 0 "/>
</g>
<g id="glyph-0-6">
<path d="M 1.09375 -1.5625 C 1.132812 -1.125 1.335938 -0.820312 1.703125 -0.65625 C 1.878906 -0.570312 2.09375 -0.53125 2.34375 -0.53125 C 2.800781 -0.53125 3.140625 -0.675781 3.359375 -0.96875 C 3.578125 -1.257812 3.6875 -1.582031 3.6875 -1.9375 C 3.6875 -2.363281 3.554688 -2.691406 3.296875 -2.921875 C 3.035156 -3.160156 2.71875 -3.28125 2.34375 -3.28125 C 2.082031 -3.28125 1.851562 -3.226562 1.65625 -3.125 C 1.46875 -3.019531 1.304688 -2.878906 1.171875 -2.703125 L 0.5 -2.734375 L 0.96875 -6.046875 L 4.171875 -6.046875 L 4.171875 -5.296875 L 1.5625 -5.296875 L 1.296875 -3.59375 C 1.429688 -3.695312 1.566406 -3.773438 1.703125 -3.828125 C 1.929688 -3.929688 2.195312 -3.984375 2.5 -3.984375 C 3.0625 -3.984375 3.535156 -3.800781 3.921875 -3.4375 C 4.316406 -3.070312 4.515625 -2.609375 4.515625 -2.046875 C 4.515625 -1.460938 4.332031 -0.945312 3.96875 -0.5 C 3.613281 -0.0625 3.046875 0.15625 2.265625 0.15625 C 1.753906 0.15625 1.304688 0.0117188 0.921875 -0.265625 C 0.546875 -0.546875 0.332031 -0.976562 0.28125 -1.5625 Z M 1.09375 -1.5625 "/>
</g>
<g id="glyph-1-0">
<path d="M 0.359375 0 L 0.359375 -7.890625 L 6.625 -7.890625 L 6.625 0 Z M 5.625 -0.984375 L 5.625 -6.90625 L 1.34375 -6.90625 L 1.34375 -0.984375 Z M 5.625 -0.984375 "/>
</g>
<g id="glyph-1-1">
<path d="M 1.53125 -2.546875 C 1.5625 -2.097656 1.671875 -1.734375 1.859375 -1.453125 C 2.210938 -0.929688 2.835938 -0.671875 3.734375 -0.671875 C 4.128906 -0.671875 4.492188 -0.726562 4.828125 -0.84375 C 5.460938 -1.0625 5.78125 -1.457031 5.78125 -2.03125 C 5.78125 -2.46875 5.644531 -2.773438 5.375 -2.953125 C 5.101562 -3.128906 4.675781 -3.285156 4.09375 -3.421875 L 3.03125 -3.65625 C 2.332031 -3.820312 1.835938 -4 1.546875 -4.1875 C 1.046875 -4.507812 0.796875 -5 0.796875 -5.65625 C 0.796875 -6.363281 1.039062 -6.945312 1.53125 -7.40625 C 2.019531 -7.863281 2.710938 -8.09375 3.609375 -8.09375 C 4.441406 -8.09375 5.144531 -7.890625 5.71875 -7.484375 C 6.300781 -7.085938 6.59375 -6.453125 6.59375 -5.578125 L 5.59375 -5.578125 C 5.53125 -5.992188 5.414062 -6.316406 5.25 -6.546875 C 4.914062 -6.960938 4.359375 -7.171875 3.578125 -7.171875 C 2.953125 -7.171875 2.5 -7.035156 2.21875 -6.765625 C 1.945312 -6.503906 1.8125 -6.195312 1.8125 -5.84375 C 1.8125 -5.457031 1.972656 -5.175781 2.296875 -5 C 2.503906 -4.882812 2.984375 -4.738281 3.734375 -4.5625 L 4.828125 -4.3125 C 5.367188 -4.1875 5.78125 -4.019531 6.0625 -3.8125 C 6.570312 -3.445312 6.828125 -2.910156 6.828125 -2.203125 C 6.828125 -1.328125 6.507812 -0.703125 5.875 -0.328125 C 5.238281 0.0429688 4.5 0.234375 3.65625 0.234375 C 2.675781 0.234375 1.90625 -0.015625 1.34375 -0.515625 C 0.789062 -1.015625 0.519531 -1.691406 0.53125 -2.546875 Z M 3.703125 -8.109375 Z M 3.703125 -8.109375 "/>
</g>
<g id="glyph-1-2">
<path d="M 1.671875 -5.75 L 1.671875 -1.9375 C 1.671875 -1.644531 1.71875 -1.40625 1.8125 -1.21875 C 1.988281 -0.875 2.3125 -0.703125 2.78125 -0.703125 C 3.445312 -0.703125 3.90625 -1 4.15625 -1.59375 C 4.28125 -1.914062 4.34375 -2.359375 4.34375 -2.921875 L 4.34375 -5.75 L 5.3125 -5.75 L 5.3125 0 L 4.40625 0 L 4.421875 -0.84375 C 4.296875 -0.625 4.140625 -0.441406 3.953125 -0.296875 C 3.578125 0.00390625 3.128906 0.15625 2.609375 0.15625 C 1.785156 0.15625 1.222656 -0.117188 0.921875 -0.671875 C 0.765625 -0.960938 0.6875 -1.351562 0.6875 -1.84375 L 0.6875 -5.75 Z M 3 -5.890625 Z M 3 -5.890625 "/>
</g>
<g id="glyph-1-3">
<path d="M 0.640625 -7.921875 L 1.578125 -7.921875 L 1.578125 -5.046875 C 1.785156 -5.328125 2.035156 -5.539062 2.328125 -5.6875 C 2.617188 -5.832031 2.9375 -5.90625 3.28125 -5.90625 C 4 -5.90625 4.582031 -5.65625 5.03125 -5.15625 C 5.476562 -4.664062 5.703125 -3.941406 5.703125 -2.984375 C 5.703125 -2.078125 5.476562 -1.320312 5.03125 -0.71875 C 4.59375 -0.113281 3.984375 0.1875 3.203125 0.1875 C 2.765625 0.1875 2.394531 0.0742188 2.09375 -0.140625 C 1.914062 -0.265625 1.726562 -0.460938 1.53125 -0.734375 L 1.53125 0 L 0.640625 0 Z M 3.140625 -0.671875 C 3.671875 -0.671875 4.0625 -0.878906 4.3125 -1.296875 C 4.570312 -1.710938 4.703125 -2.257812 4.703125 -2.9375 C 4.703125 -3.539062 4.570312 -4.039062 4.3125 -4.4375 C 4.0625 -4.832031 3.679688 -5.03125 3.171875 -5.03125 C 2.734375 -5.03125 2.347656 -4.867188 2.015625 -4.546875 C 1.679688 -4.222656 1.515625 -3.6875 1.515625 -2.9375 C 1.515625 -2.394531 1.582031 -1.957031 1.71875 -1.625 C 1.976562 -0.988281 2.453125 -0.671875 3.140625 -0.671875 Z M 3.140625 -0.671875 "/>
</g>
<g id="glyph-1-4">
<path d="M 1.28125 -1.8125 C 1.3125 -1.488281 1.394531 -1.238281 1.53125 -1.0625 C 1.769531 -0.75 2.191406 -0.59375 2.796875 -0.59375 C 3.148438 -0.59375 3.460938 -0.671875 3.734375 -0.828125 C 4.003906 -0.984375 4.140625 -1.222656 4.140625 -1.546875 C 4.140625 -1.796875 4.03125 -1.984375 3.8125 -2.109375 C 3.675781 -2.191406 3.398438 -2.285156 2.984375 -2.390625 L 2.21875 -2.578125 C 1.726562 -2.703125 1.367188 -2.835938 1.140625 -2.984375 C 0.722656 -3.253906 0.515625 -3.617188 0.515625 -4.078125 C 0.515625 -4.617188 0.707031 -5.054688 1.09375 -5.390625 C 1.488281 -5.734375 2.019531 -5.90625 2.6875 -5.90625 C 3.550781 -5.90625 4.175781 -5.648438 4.5625 -5.140625 C 4.800781 -4.816406 4.914062 -4.46875 4.90625 -4.09375 L 4 -4.09375 C 3.976562 -4.3125 3.898438 -4.507812 3.765625 -4.6875 C 3.546875 -4.945312 3.160156 -5.078125 2.609375 -5.078125 C 2.242188 -5.078125 1.96875 -5.003906 1.78125 -4.859375 C 1.59375 -4.722656 1.5 -4.539062 1.5 -4.3125 C 1.5 -4.0625 1.625 -3.863281 1.875 -3.71875 C 2.007812 -3.625 2.21875 -3.539062 2.5 -3.46875 L 3.140625 -3.3125 C 3.835938 -3.144531 4.300781 -2.984375 4.53125 -2.828125 C 4.914062 -2.578125 5.109375 -2.191406 5.109375 -1.671875 C 5.109375 -1.148438 4.910156 -0.703125 4.515625 -0.328125 C 4.128906 0.0351562 3.539062 0.21875 2.75 0.21875 C 1.894531 0.21875 1.285156 0.0234375 0.921875 -0.359375 C 0.566406 -0.753906 0.378906 -1.238281 0.359375 -1.8125 Z M 2.71875 -5.890625 Z M 2.71875 -5.890625 "/>
</g>
<g id="glyph-1-5">
<path d="M 0.90625 -7.359375 L 1.875 -7.359375 L 1.875 -5.75 L 2.796875 -5.75 L 2.796875 -4.96875 L 1.875 -4.96875 L 1.875 -1.203125 C 1.875 -1.003906 1.941406 -0.875 2.078125 -0.8125 C 2.160156 -0.769531 2.285156 -0.75 2.453125 -0.75 C 2.503906 -0.75 2.554688 -0.75 2.609375 -0.75 C 2.660156 -0.75 2.722656 -0.753906 2.796875 -0.765625 L 2.796875 0 C 2.679688 0.03125 2.5625 0.0507812 2.4375 0.0625 C 2.320312 0.0820312 2.195312 0.09375 2.0625 0.09375 C 1.613281 0.09375 1.304688 -0.0195312 1.140625 -0.25 C 0.984375 -0.488281 0.90625 -0.789062 0.90625 -1.15625 L 0.90625 -4.96875 L 0.125 -4.96875 L 0.125 -5.75 L 0.90625 -5.75 Z M 0.90625 -7.359375 "/>
</g>
<g id="glyph-1-6">
<path d="M 0.734375 -5.75 L 1.65625 -5.75 L 1.65625 -4.765625 C 1.726562 -4.953125 1.910156 -5.179688 2.203125 -5.453125 C 2.492188 -5.734375 2.832031 -5.875 3.21875 -5.875 C 3.238281 -5.875 3.269531 -5.875 3.3125 -5.875 C 3.351562 -5.875 3.425781 -5.867188 3.53125 -5.859375 L 3.53125 -4.828125 C 3.476562 -4.835938 3.425781 -4.84375 3.375 -4.84375 C 3.320312 -4.851562 3.269531 -4.859375 3.21875 -4.859375 C 2.726562 -4.859375 2.351562 -4.703125 2.09375 -4.390625 C 1.832031 -4.078125 1.703125 -3.71875 1.703125 -3.3125 L 1.703125 0 L 0.734375 0 Z M 0.734375 -5.75 "/>
</g>
<g id="glyph-1-7">
<path d="M 1.453125 -1.53125 C 1.453125 -1.25 1.550781 -1.023438 1.75 -0.859375 C 1.957031 -0.703125 2.203125 -0.625 2.484375 -0.625 C 2.816406 -0.625 3.144531 -0.703125 3.46875 -0.859375 C 4.007812 -1.117188 4.28125 -1.550781 4.28125 -2.15625 L 4.28125 -2.921875 C 4.15625 -2.847656 4 -2.785156 3.8125 -2.734375 C 3.632812 -2.691406 3.453125 -2.65625 3.265625 -2.625 L 2.6875 -2.5625 C 2.332031 -2.507812 2.066406 -2.4375 1.890625 -2.34375 C 1.597656 -2.164062 1.453125 -1.894531 1.453125 -1.53125 Z M 3.796875 -3.484375 C 4.015625 -3.515625 4.160156 -3.609375 4.234375 -3.765625 C 4.273438 -3.847656 4.296875 -3.972656 4.296875 -4.140625 C 4.296875 -4.460938 4.175781 -4.695312 3.9375 -4.84375 C 3.707031 -5 3.375 -5.078125 2.9375 -5.078125 C 2.4375 -5.078125 2.082031 -4.941406 1.875 -4.671875 C 1.75 -4.515625 1.671875 -4.289062 1.640625 -4 L 0.734375 -4 C 0.753906 -4.707031 0.984375 -5.195312 1.421875 -5.46875 C 1.867188 -5.75 2.382812 -5.890625 2.96875 -5.890625 C 3.644531 -5.890625 4.191406 -5.757812 4.609375 -5.5 C 5.035156 -5.25 5.25 -4.847656 5.25 -4.296875 L 5.25 -0.984375 C 5.25 -0.890625 5.265625 -0.8125 5.296875 -0.75 C 5.335938 -0.6875 5.425781 -0.65625 5.5625 -0.65625 C 5.601562 -0.65625 5.648438 -0.65625 5.703125 -0.65625 C 5.765625 -0.664062 5.820312 -0.675781 5.875 -0.6875 L 5.875 0.03125 C 5.726562 0.0703125 5.613281 0.0976562 5.53125 0.109375 C 5.457031 0.117188 5.351562 0.125 5.21875 0.125 C 4.882812 0.125 4.640625 0.00390625 4.484375 -0.234375 C 4.410156 -0.359375 4.359375 -0.535156 4.328125 -0.765625 C 4.128906 -0.503906 3.84375 -0.28125 3.46875 -0.09375 C 3.101562 0.0898438 2.695312 0.1875 2.25 0.1875 C 1.71875 0.1875 1.28125 0.0234375 0.9375 -0.296875 C 0.601562 -0.617188 0.4375 -1.023438 0.4375 -1.515625 C 0.4375 -2.046875 0.601562 -2.457031 0.9375 -2.75 C 1.269531 -3.039062 1.707031 -3.222656 2.25 -3.296875 Z M 2.984375 -5.890625 Z M 2.984375 -5.890625 "/>
</g>
<g id="glyph-1-8">
<path d="M 3.109375 -5.875 C 3.515625 -5.875 3.90625 -5.78125 4.28125 -5.59375 C 4.664062 -5.40625 4.960938 -5.15625 5.171875 -4.84375 C 5.359375 -4.5625 5.484375 -4.222656 5.546875 -3.828125 C 5.609375 -3.566406 5.640625 -3.144531 5.640625 -2.5625 L 1.421875 -2.5625 C 1.441406 -1.976562 1.578125 -1.507812 1.828125 -1.15625 C 2.085938 -0.8125 2.488281 -0.640625 3.03125 -0.640625 C 3.539062 -0.640625 3.945312 -0.804688 4.25 -1.140625 C 4.414062 -1.328125 4.535156 -1.550781 4.609375 -1.8125 L 5.5625 -1.8125 C 5.53125 -1.59375 5.441406 -1.351562 5.296875 -1.09375 C 5.160156 -0.832031 5.003906 -0.625 4.828125 -0.46875 C 4.535156 -0.175781 4.175781 0.0195312 3.75 0.125 C 3.507812 0.175781 3.242188 0.203125 2.953125 0.203125 C 2.234375 0.203125 1.625 -0.0546875 1.125 -0.578125 C 0.632812 -1.097656 0.390625 -1.828125 0.390625 -2.765625 C 0.390625 -3.691406 0.640625 -4.441406 1.140625 -5.015625 C 1.640625 -5.585938 2.296875 -5.875 3.109375 -5.875 Z M 4.640625 -3.328125 C 4.609375 -3.753906 4.519531 -4.09375 4.375 -4.34375 C 4.101562 -4.800781 3.660156 -5.03125 3.046875 -5.03125 C 2.597656 -5.03125 2.222656 -4.867188 1.921875 -4.546875 C 1.628906 -4.234375 1.472656 -3.828125 1.453125 -3.328125 Z M 3.015625 -5.890625 Z M 3.015625 -5.890625 "/>
</g>
<g id="glyph-1-9">
</g>
<g id="glyph-1-10">
<path d="M 2.921875 -5.921875 C 3.578125 -5.921875 4.109375 -5.757812 4.515625 -5.4375 C 4.921875 -5.125 5.164062 -4.582031 5.25 -3.8125 L 4.296875 -3.8125 C 4.242188 -4.164062 4.113281 -4.457031 3.90625 -4.6875 C 3.707031 -4.925781 3.378906 -5.046875 2.921875 -5.046875 C 2.304688 -5.046875 1.867188 -4.75 1.609375 -4.15625 C 1.429688 -3.757812 1.34375 -3.273438 1.34375 -2.703125 C 1.34375 -2.128906 1.460938 -1.644531 1.703125 -1.25 C 1.953125 -0.851562 2.335938 -0.65625 2.859375 -0.65625 C 3.265625 -0.65625 3.582031 -0.773438 3.8125 -1.015625 C 4.050781 -1.265625 4.210938 -1.601562 4.296875 -2.03125 L 5.25 -2.03125 C 5.132812 -1.269531 4.863281 -0.710938 4.4375 -0.359375 C 4.007812 -0.00390625 3.457031 0.171875 2.78125 0.171875 C 2.03125 0.171875 1.429688 -0.101562 0.984375 -0.65625 C 0.535156 -1.207031 0.3125 -1.894531 0.3125 -2.71875 C 0.3125 -3.726562 0.554688 -4.515625 1.046875 -5.078125 C 1.535156 -5.640625 2.160156 -5.921875 2.921875 -5.921875 Z M 2.78125 -5.890625 Z M 2.78125 -5.890625 "/>
</g>
<g id="glyph-1-11">
<path d="M 2.984375 -0.625 C 3.628906 -0.625 4.070312 -0.863281 4.3125 -1.34375 C 4.550781 -1.832031 4.671875 -2.375 4.671875 -2.96875 C 4.671875 -3.507812 4.582031 -3.945312 4.40625 -4.28125 C 4.132812 -4.8125 3.664062 -5.078125 3 -5.078125 C 2.40625 -5.078125 1.972656 -4.847656 1.703125 -4.390625 C 1.441406 -3.941406 1.3125 -3.398438 1.3125 -2.765625 C 1.3125 -2.148438 1.441406 -1.640625 1.703125 -1.234375 C 1.972656 -0.828125 2.398438 -0.625 2.984375 -0.625 Z M 3.03125 -5.921875 C 3.769531 -5.921875 4.394531 -5.671875 4.90625 -5.171875 C 5.414062 -4.679688 5.671875 -3.957031 5.671875 -3 C 5.671875 -2.070312 5.445312 -1.304688 5 -0.703125 C 4.550781 -0.0976562 3.851562 0.203125 2.90625 0.203125 C 2.113281 0.203125 1.484375 -0.0625 1.015625 -0.59375 C 0.546875 -1.125 0.3125 -1.84375 0.3125 -2.75 C 0.3125 -3.71875 0.554688 -4.488281 1.046875 -5.0625 C 1.535156 -5.632812 2.195312 -5.921875 3.03125 -5.921875 Z M 3 -5.890625 Z M 3 -5.890625 "/>
</g>
<g id="glyph-1-12">
<path d="M 0.703125 -5.75 L 1.625 -5.75 L 1.625 -4.9375 C 1.894531 -5.269531 2.179688 -5.507812 2.484375 -5.65625 C 2.796875 -5.800781 3.132812 -5.875 3.5 -5.875 C 4.320312 -5.875 4.875 -5.59375 5.15625 -5.03125 C 5.3125 -4.71875 5.390625 -4.269531 5.390625 -3.6875 L 5.390625 0 L 4.421875 0 L 4.421875 -3.625 C 4.421875 -3.976562 4.367188 -4.257812 4.265625 -4.46875 C 4.085938 -4.832031 3.773438 -5.015625 3.328125 -5.015625 C 3.097656 -5.015625 2.910156 -4.988281 2.765625 -4.9375 C 2.492188 -4.863281 2.257812 -4.707031 2.0625 -4.46875 C 1.90625 -4.28125 1.800781 -4.082031 1.75 -3.875 C 1.695312 -3.675781 1.671875 -3.390625 1.671875 -3.015625 L 1.671875 0 L 0.703125 0 Z M 2.984375 -5.890625 Z M 2.984375 -5.890625 "/>
</g>
<g id="glyph-1-13">
<path d="M 0.703125 -5.71875 L 1.6875 -5.71875 L 1.6875 0 L 0.703125 0 Z M 0.703125 -7.890625 L 1.6875 -7.890625 L 1.6875 -6.796875 L 0.703125 -6.796875 Z M 0.703125 -7.890625 "/>
</g>
<g id="glyph-1-14">
<path d="M 3.25 -8.015625 C 2.6875 -6.921875 2.320312 -6.117188 2.15625 -5.609375 C 1.90625 -4.828125 1.78125 -3.921875 1.78125 -2.890625 C 1.78125 -1.847656 1.925781 -0.898438 2.21875 -0.046875 C 2.394531 0.480469 2.742188 1.25 3.265625 2.25 L 2.625 2.25 C 2.101562 1.425781 1.78125 0.898438 1.65625 0.671875 C 1.53125 0.453125 1.390625 0.148438 1.234375 -0.234375 C 1.035156 -0.765625 0.898438 -1.332031 0.828125 -1.9375 C 0.785156 -2.25 0.765625 -2.546875 0.765625 -2.828125 C 0.765625 -3.890625 0.929688 -4.832031 1.265625 -5.65625 C 1.472656 -6.1875 1.910156 -6.972656 2.578125 -8.015625 Z M 3.25 -8.015625 "/>
</g>
<g id="glyph-1-15">
<path d="M 0.703125 -5.75 L 1.671875 -5.75 L 1.671875 -4.9375 C 1.898438 -5.21875 2.101562 -5.421875 2.28125 -5.546875 C 2.601562 -5.765625 2.96875 -5.875 3.375 -5.875 C 3.832031 -5.875 4.203125 -5.765625 4.484375 -5.546875 C 4.640625 -5.410156 4.78125 -5.21875 4.90625 -4.96875 C 5.125 -5.28125 5.378906 -5.507812 5.671875 -5.65625 C 5.960938 -5.800781 6.285156 -5.875 6.640625 -5.875 C 7.410156 -5.875 7.9375 -5.597656 8.21875 -5.046875 C 8.375 -4.742188 8.453125 -4.335938 8.453125 -3.828125 L 8.453125 0 L 7.4375 0 L 7.4375 -4 C 7.4375 -4.382812 7.34375 -4.644531 7.15625 -4.78125 C 6.96875 -4.925781 6.734375 -5 6.453125 -5 C 6.078125 -5 5.75 -4.867188 5.46875 -4.609375 C 5.195312 -4.359375 5.0625 -3.9375 5.0625 -3.34375 L 5.0625 0 L 4.078125 0 L 4.078125 -3.75 C 4.078125 -4.144531 4.03125 -4.429688 3.9375 -4.609375 C 3.789062 -4.878906 3.519531 -5.015625 3.125 -5.015625 C 2.757812 -5.015625 2.425781 -4.867188 2.125 -4.578125 C 1.820312 -4.296875 1.671875 -3.785156 1.671875 -3.046875 L 1.671875 0 L 0.703125 0 Z M 0.703125 -5.75 "/>
</g>
<g id="glyph-1-16">
<path d="M 0.734375 -7.890625 L 1.703125 -7.890625 L 1.703125 0 L 0.734375 0 Z M 0.734375 -7.890625 "/>
</g>
<g id="glyph-1-17">
<path d="M 0.84375 -7.890625 L 1.90625 -7.890625 L 1.90625 -0.9375 L 5.90625 -0.9375 L 5.90625 0 L 0.84375 0 Z M 0.84375 -7.890625 "/>
</g>
<g id="glyph-1-18">
<path d="M 0.375 2.25 C 0.945312 1.132812 1.316406 0.320312 1.484375 -0.1875 C 1.734375 -0.957031 1.859375 -1.859375 1.859375 -2.890625 C 1.859375 -3.921875 1.710938 -4.867188 1.421875 -5.734375 C 1.242188 -6.265625 0.890625 -7.023438 0.359375 -8.015625 L 1.015625 -8.015625 C 1.566406 -7.140625 1.898438 -6.597656 2.015625 -6.390625 C 2.128906 -6.179688 2.253906 -5.894531 2.390625 -5.53125 C 2.566406 -5.082031 2.691406 -4.640625 2.765625 -4.203125 C 2.835938 -3.773438 2.875 -3.359375 2.875 -2.953125 C 2.875 -1.890625 2.707031 -0.941406 2.375 -0.109375 C 2.15625 0.417969 1.710938 1.207031 1.046875 2.25 Z M 0.375 2.25 "/>
</g>
<g id="glyph-2-0">
<path d="M 1.375 0 L 1.375 -8.25 L 9.625 -8.25 L 9.625 0 Z M 2.0625 -0.6875 L 8.9375 -0.6875 L 8.9375 -7.5625 L 2.0625 -7.5625 Z M 2.0625 -0.6875 "/>
</g>
<g id="glyph-2-1">
<path d="M 6.046875 0 L 5.046875 0 L 5.046875 -0.640625 C 4.773438 -0.359375 4.519531 -0.160156 4.28125 -0.046875 C 4.039062 0.0546875 3.78125 0.109375 3.5 0.109375 C 3.226562 0.109375 2.984375 0.0585938 2.765625 -0.03125 C 2.554688 -0.125 2.300781 -0.316406 2 -0.609375 L 2 2.21875 L 1 2.21875 L 1 -6 L 2 -6 L 2 -1.5 C 2.113281 -1.363281 2.3125 -1.21875 2.59375 -1.0625 C 2.882812 -0.914062 3.191406 -0.84375 3.515625 -0.84375 C 3.847656 -0.84375 4.132812 -0.898438 4.375 -1.015625 C 4.625 -1.140625 4.84375 -1.3125 5.03125 -1.53125 L 5.03125 -6 L 6.046875 -6 Z M 6.046875 0 "/>
</g>
<g id="glyph-3-0">
<path d="M 0.390625 1.359375 L 0.390625 -5.4375 L 4.234375 -5.4375 L 4.234375 1.359375 Z M 0.8125 0.9375 L 3.8125 0.9375 L 3.8125 -5 L 0.8125 -5 Z M 0.8125 0.9375 "/>
</g>
<g id="glyph-3-1">
<path d="M 0.8125 -2.734375 L 5.640625 -2.734375 L 5.640625 -2.09375 L 0.8125 -2.09375 Z M 0.8125 -2.734375 "/>
</g>
<g id="glyph-4-0">
<path d="M 0.25 0 L 0.25 -5.53125 L 4.640625 -5.53125 L 4.640625 0 Z M 3.9375 -0.6875 L 3.9375 -4.828125 L 0.9375 -4.828125 L 0.9375 -0.6875 Z M 3.9375 -0.6875 "/>
</g>
<g id="glyph-4-1">
<path d="M 0.734375 -3.8125 L 0.734375 -4.328125 C 1.222656 -4.378906 1.5625 -4.457031 1.75 -4.5625 C 1.945312 -4.675781 2.09375 -4.941406 2.1875 -5.359375 L 2.734375 -5.359375 L 2.734375 0 L 2 0 L 2 -3.8125 Z M 0.734375 -3.8125 "/>
</g>
<g id="glyph-5-0">
<path d="M 0 -0.359375 L -7.890625 -0.359375 L -7.890625 -6.625 L 0 -6.625 Z M -0.984375 -5.625 L -6.90625 -5.625 L -6.90625 -1.34375 L -0.984375 -1.34375 Z M -0.984375 -5.625 "/>
</g>
<g id="glyph-5-1">
<path d="M -7.890625 -2 L -3.015625 -2 C -2.441406 -2 -1.960938 -2.109375 -1.578125 -2.328125 C -1.003906 -2.640625 -0.71875 -3.175781 -0.71875 -3.9375 C -0.71875 -4.84375 -1.03125 -5.457031 -1.65625 -5.78125 C -1.988281 -5.957031 -2.441406 -6.046875 -3.015625 -6.046875 L -7.890625 -6.046875 L -7.890625 -7.125 L -3.453125 -7.125 C -2.484375 -7.125 -1.738281 -6.992188 -1.21875 -6.734375 C -0.269531 -6.253906 0.203125 -5.347656 0.203125 -4.015625 C 0.203125 -2.679688 -0.269531 -1.78125 -1.21875 -1.3125 C -1.738281 -1.039062 -2.484375 -0.90625 -3.453125 -0.90625 L -7.890625 -0.90625 Z M -7.890625 -4.015625 Z M -7.890625 -4.015625 "/>
</g>
<g id="glyph-5-2">
<path d="M -0.65625 -3.140625 C -0.65625 -3.585938 -0.84375 -3.957031 -1.21875 -4.25 C -1.59375 -4.550781 -2.15625 -4.703125 -2.90625 -4.703125 C -3.363281 -4.703125 -3.757812 -4.640625 -4.09375 -4.515625 C -4.726562 -4.265625 -5.046875 -3.804688 -5.046875 -3.140625 C -5.046875 -2.460938 -4.710938 -2.003906 -4.046875 -1.765625 C -3.679688 -1.628906 -3.222656 -1.5625 -2.671875 -1.5625 C -2.234375 -1.5625 -1.859375 -1.628906 -1.546875 -1.765625 C -0.953125 -2.015625 -0.65625 -2.472656 -0.65625 -3.140625 Z M -5.71875 -0.640625 L -5.71875 -1.578125 L -4.96875 -1.578125 C -5.226562 -1.765625 -5.425781 -1.972656 -5.5625 -2.203125 C -5.78125 -2.535156 -5.890625 -2.921875 -5.890625 -3.359375 C -5.890625 -4.003906 -5.640625 -4.554688 -5.140625 -5.015625 C -4.640625 -5.472656 -3.925781 -5.703125 -3 -5.703125 C -1.75 -5.703125 -0.851562 -5.375 -0.3125 -4.71875 C 0.0195312 -4.300781 0.1875 -3.816406 0.1875 -3.265625 C 0.1875 -2.828125 0.0898438 -2.460938 -0.09375 -2.171875 C -0.195312 -2.003906 -0.378906 -1.8125 -0.640625 -1.59375 L 2.296875 -1.59375 L 2.296875 -0.640625 Z M -5.71875 -0.640625 "/>
</g>
<g id="glyph-5-3">
<path d="M -7.359375 -0.90625 L -7.359375 -1.875 L -5.75 -1.875 L -5.75 -2.796875 L -4.96875 -2.796875 L -4.96875 -1.875 L -1.203125 -1.875 C -1.003906 -1.875 -0.875 -1.941406 -0.8125 -2.078125 C -0.769531 -2.160156 -0.75 -2.285156 -0.75 -2.453125 C -0.75 -2.503906 -0.75 -2.554688 -0.75 -2.609375 C -0.75 -2.660156 -0.753906 -2.722656 -0.765625 -2.796875 L 0 -2.796875 C 0.03125 -2.679688 0.0507812 -2.5625 0.0625 -2.4375 C 0.0820312 -2.320312 0.09375 -2.195312 0.09375 -2.0625 C 0.09375 -1.613281 -0.0195312 -1.304688 -0.25 -1.140625 C -0.488281 -0.984375 -0.789062 -0.90625 -1.15625 -0.90625 L -4.96875 -0.90625 L -4.96875 -0.125 L -5.75 -0.125 L -5.75 -0.90625 Z M -7.359375 -0.90625 "/>
</g>
<g id="glyph-5-4">
<path d="M -1.53125 -1.453125 C -1.25 -1.453125 -1.023438 -1.550781 -0.859375 -1.75 C -0.703125 -1.957031 -0.625 -2.203125 -0.625 -2.484375 C -0.625 -2.816406 -0.703125 -3.144531 -0.859375 -3.46875 C -1.117188 -4.007812 -1.550781 -4.28125 -2.15625 -4.28125 L -2.921875 -4.28125 C -2.847656 -4.15625 -2.785156 -4 -2.734375 -3.8125 C -2.691406 -3.632812 -2.65625 -3.453125 -2.625 -3.265625 L -2.5625 -2.6875 C -2.507812 -2.332031 -2.4375 -2.066406 -2.34375 -1.890625 C -2.164062 -1.597656 -1.894531 -1.453125 -1.53125 -1.453125 Z M -3.484375 -3.796875 C -3.515625 -4.015625 -3.609375 -4.160156 -3.765625 -4.234375 C -3.847656 -4.273438 -3.972656 -4.296875 -4.140625 -4.296875 C -4.460938 -4.296875 -4.695312 -4.175781 -4.84375 -3.9375 C -5 -3.707031 -5.078125 -3.375 -5.078125 -2.9375 C -5.078125 -2.4375 -4.941406 -2.082031 -4.671875 -1.875 C -4.515625 -1.75 -4.289062 -1.671875 -4 -1.640625 L -4 -0.734375 C -4.707031 -0.753906 -5.195312 -0.984375 -5.46875 -1.421875 C -5.75 -1.867188 -5.890625 -2.382812 -5.890625 -2.96875 C -5.890625 -3.644531 -5.757812 -4.191406 -5.5 -4.609375 C -5.25 -5.035156 -4.847656 -5.25 -4.296875 -5.25 L -0.984375 -5.25 C -0.890625 -5.25 -0.8125 -5.265625 -0.75 -5.296875 C -0.6875 -5.335938 -0.65625 -5.425781 -0.65625 -5.5625 C -0.65625 -5.601562 -0.65625 -5.648438 -0.65625 -5.703125 C -0.664062 -5.765625 -0.675781 -5.820312 -0.6875 -5.875 L 0.03125 -5.875 C 0.0703125 -5.726562 0.0976562 -5.613281 0.109375 -5.53125 C 0.117188 -5.457031 0.125 -5.351562 0.125 -5.21875 C 0.125 -4.882812 0.00390625 -4.640625 -0.234375 -4.484375 C -0.359375 -4.410156 -0.535156 -4.359375 -0.765625 -4.328125 C -0.503906 -4.128906 -0.28125 -3.84375 -0.09375 -3.46875 C 0.0898438 -3.101562 0.1875 -2.695312 0.1875 -2.25 C 0.1875 -1.71875 0.0234375 -1.28125 -0.296875 -0.9375 C -0.617188 -0.601562 -1.023438 -0.4375 -1.515625 -0.4375 C -2.046875 -0.4375 -2.457031 -0.601562 -2.75 -0.9375 C -3.039062 -1.269531 -3.222656 -1.707031 -3.296875 -2.25 Z M -5.890625 -2.984375 Z M -5.890625 -2.984375 "/>
</g>
<g id="glyph-5-5">
<path d="M -7.890625 -0.6875 L -7.890625 -1.609375 L -3.3125 -1.609375 L -5.75 -4.09375 L -5.75 -5.328125 L -3.59375 -3.125 L 0 -5.453125 L 0 -4.21875 L -2.90625 -2.421875 L -2.15625 -1.609375 L 0 -1.609375 L 0 -0.6875 Z M -7.890625 -0.6875 "/>
</g>
<g id="glyph-5-6">
<path d="M -5.875 -3.109375 C -5.875 -3.515625 -5.78125 -3.90625 -5.59375 -4.28125 C -5.40625 -4.664062 -5.15625 -4.960938 -4.84375 -5.171875 C -4.5625 -5.359375 -4.222656 -5.484375 -3.828125 -5.546875 C -3.566406 -5.609375 -3.144531 -5.640625 -2.5625 -5.640625 L -2.5625 -1.421875 C -1.976562 -1.441406 -1.507812 -1.578125 -1.15625 -1.828125 C -0.8125 -2.085938 -0.640625 -2.488281 -0.640625 -3.03125 C -0.640625 -3.539062 -0.804688 -3.945312 -1.140625 -4.25 C -1.328125 -4.414062 -1.550781 -4.535156 -1.8125 -4.609375 L -1.8125 -5.5625 C -1.59375 -5.53125 -1.351562 -5.441406 -1.09375 -5.296875 C -0.832031 -5.160156 -0.625 -5.003906 -0.46875 -4.828125 C -0.175781 -4.535156 0.0195312 -4.175781 0.125 -3.75 C 0.175781 -3.507812 0.203125 -3.242188 0.203125 -2.953125 C 0.203125 -2.234375 -0.0546875 -1.625 -0.578125 -1.125 C -1.097656 -0.632812 -1.828125 -0.390625 -2.765625 -0.390625 C -3.691406 -0.390625 -4.441406 -0.640625 -5.015625 -1.140625 C -5.585938 -1.640625 -5.875 -2.296875 -5.875 -3.109375 Z M -3.328125 -4.640625 C -3.753906 -4.609375 -4.09375 -4.519531 -4.34375 -4.375 C -4.800781 -4.101562 -5.03125 -3.660156 -5.03125 -3.046875 C -5.03125 -2.597656 -4.867188 -2.222656 -4.546875 -1.921875 C -4.234375 -1.628906 -3.828125 -1.472656 -3.328125 -1.453125 Z M -5.890625 -3.015625 Z M -5.890625 -3.015625 "/>
</g>
<g id="glyph-5-7">
</g>
<g id="glyph-5-8">
<path d="M -5.75 -0.734375 L -5.75 -1.65625 L -4.765625 -1.65625 C -4.953125 -1.726562 -5.179688 -1.910156 -5.453125 -2.203125 C -5.734375 -2.492188 -5.875 -2.832031 -5.875 -3.21875 C -5.875 -3.238281 -5.875 -3.269531 -5.875 -3.3125 C -5.875 -3.351562 -5.867188 -3.425781 -5.859375 -3.53125 L -4.828125 -3.53125 C -4.835938 -3.476562 -4.84375 -3.425781 -4.84375 -3.375 C -4.851562 -3.320312 -4.859375 -3.269531 -4.859375 -3.21875 C -4.859375 -2.726562 -4.703125 -2.351562 -4.390625 -2.09375 C -4.078125 -1.832031 -3.71875 -1.703125 -3.3125 -1.703125 L 0 -1.703125 L 0 -0.734375 Z M -5.75 -0.734375 "/>
</g>
<g id="glyph-5-9">
<path d="M -8.015625 -3.25 C -6.921875 -2.6875 -6.117188 -2.320312 -5.609375 -2.15625 C -4.828125 -1.90625 -3.921875 -1.78125 -2.890625 -1.78125 C -1.847656 -1.78125 -0.898438 -1.925781 -0.046875 -2.21875 C 0.480469 -2.394531 1.25 -2.742188 2.25 -3.265625 L 2.25 -2.625 C 1.425781 -2.101562 0.898438 -1.78125 0.671875 -1.65625 C 0.453125 -1.53125 0.148438 -1.390625 -0.234375 -1.234375 C -0.765625 -1.035156 -1.332031 -0.898438 -1.9375 -0.828125 C -2.25 -0.785156 -2.546875 -0.765625 -2.828125 -0.765625 C -3.890625 -0.765625 -4.832031 -0.929688 -5.65625 -1.265625 C -6.1875 -1.472656 -6.972656 -1.910156 -8.015625 -2.578125 Z M -8.015625 -3.25 "/>
</g>
<g id="glyph-5-10">
<path d="M -5.75 -0.703125 L -5.75 -1.671875 L -4.9375 -1.671875 C -5.21875 -1.898438 -5.421875 -2.101562 -5.546875 -2.28125 C -5.765625 -2.601562 -5.875 -2.96875 -5.875 -3.375 C -5.875 -3.832031 -5.765625 -4.203125 -5.546875 -4.484375 C -5.410156 -4.640625 -5.21875 -4.78125 -4.96875 -4.90625 C -5.28125 -5.125 -5.507812 -5.378906 -5.65625 -5.671875 C -5.800781 -5.960938 -5.875 -6.285156 -5.875 -6.640625 C -5.875 -7.410156 -5.597656 -7.9375 -5.046875 -8.21875 C -4.742188 -8.375 -4.335938 -8.453125 -3.828125 -8.453125 L 0 -8.453125 L 0 -7.4375 L -4 -7.4375 C -4.382812 -7.4375 -4.644531 -7.34375 -4.78125 -7.15625 C -4.925781 -6.96875 -5 -6.734375 -5 -6.453125 C -5 -6.078125 -4.867188 -5.75 -4.609375 -5.46875 C -4.359375 -5.195312 -3.9375 -5.0625 -3.34375 -5.0625 L 0 -5.0625 L 0 -4.078125 L -3.75 -4.078125 C -4.144531 -4.078125 -4.429688 -4.03125 -4.609375 -3.9375 C -4.878906 -3.789062 -5.015625 -3.519531 -5.015625 -3.125 C -5.015625 -2.757812 -4.867188 -2.425781 -4.578125 -2.125 C -4.296875 -1.820312 -3.785156 -1.671875 -3.046875 -1.671875 L 0 -1.671875 L 0 -0.703125 Z M -5.75 -0.703125 "/>
</g>
<g id="glyph-5-11">
<path d="M -0.625 -2.984375 C -0.625 -3.628906 -0.863281 -4.070312 -1.34375 -4.3125 C -1.832031 -4.550781 -2.375 -4.671875 -2.96875 -4.671875 C -3.507812 -4.671875 -3.945312 -4.582031 -4.28125 -4.40625 C -4.8125 -4.132812 -5.078125 -3.664062 -5.078125 -3 C -5.078125 -2.40625 -4.847656 -1.972656 -4.390625 -1.703125 C -3.941406 -1.441406 -3.398438 -1.3125 -2.765625 -1.3125 C -2.148438 -1.3125 -1.640625 -1.441406 -1.234375 -1.703125 C -0.828125 -1.972656 -0.625 -2.398438 -0.625 -2.984375 Z M -5.921875 -3.03125 C -5.921875 -3.769531 -5.671875 -4.394531 -5.171875 -4.90625 C -4.679688 -5.414062 -3.957031 -5.671875 -3 -5.671875 C -2.070312 -5.671875 -1.304688 -5.445312 -0.703125 -5 C -0.0976562 -4.550781 0.203125 -3.851562 0.203125 -2.90625 C 0.203125 -2.113281 -0.0625 -1.484375 -0.59375 -1.015625 C -1.125 -0.546875 -1.84375 -0.3125 -2.75 -0.3125 C -3.71875 -0.3125 -4.488281 -0.554688 -5.0625 -1.046875 C -5.632812 -1.535156 -5.921875 -2.195312 -5.921875 -3.03125 Z M -5.890625 -3 Z M -5.890625 -3 "/>
</g>
<g id="glyph-5-12">
<path d="M -7.890625 -0.734375 L -7.890625 -1.703125 L 0 -1.703125 L 0 -0.734375 Z M -7.890625 -0.734375 "/>
</g>
<g id="glyph-5-13">
<path d="M -7.890625 -0.84375 L -7.890625 -2.09375 L -1.5 -6.078125 L -7.890625 -6.078125 L -7.890625 -7.09375 L 0 -7.09375 L 0 -5.90625 L -6.390625 -1.859375 L 0 -1.859375 L 0 -0.84375 Z M -7.890625 -3.90625 Z M -7.890625 -3.90625 "/>
</g>
<g id="glyph-5-14">
<path d="M -5.859375 -2.734375 C -5.859375 -3.191406 -5.742188 -3.585938 -5.515625 -3.921875 C -5.390625 -4.097656 -5.207031 -4.285156 -4.96875 -4.484375 L -5.703125 -4.484375 L -5.703125 -5.375 L -0.46875 -5.375 C 0.257812 -5.375 0.835938 -5.265625 1.265625 -5.046875 C 2.046875 -4.648438 2.4375 -3.894531 2.4375 -2.78125 C 2.4375 -2.15625 2.296875 -1.628906 2.015625 -1.203125 C 1.734375 -0.785156 1.300781 -0.550781 0.71875 -0.5 L 0.71875 -1.484375 C 0.96875 -1.535156 1.164062 -1.628906 1.3125 -1.765625 C 1.53125 -1.984375 1.640625 -2.328125 1.640625 -2.796875 C 1.640625 -3.535156 1.375 -4.019531 0.84375 -4.25 C 0.539062 -4.382812 -0.00390625 -4.445312 -0.796875 -4.4375 C -0.503906 -4.25 -0.285156 -4.015625 -0.140625 -3.734375 C -0.00390625 -3.460938 0.0625 -3.109375 0.0625 -2.671875 C 0.0625 -2.046875 -0.15625 -1.5 -0.59375 -1.03125 C -1.03125 -0.5625 -1.757812 -0.328125 -2.78125 -0.328125 C -3.75 -0.328125 -4.503906 -0.5625 -5.046875 -1.03125 C -5.585938 -1.5 -5.859375 -2.066406 -5.859375 -2.734375 Z M -2.90625 -4.484375 C -3.613281 -4.484375 -4.140625 -4.332031 -4.484375 -4.03125 C -4.828125 -3.738281 -5 -3.367188 -5 -2.921875 C -5 -2.234375 -4.679688 -1.765625 -4.046875 -1.515625 C -3.703125 -1.390625 -3.253906 -1.328125 -2.703125 -1.328125 C -2.054688 -1.328125 -1.5625 -1.457031 -1.21875 -1.71875 C -0.882812 -1.976562 -0.71875 -2.332031 -0.71875 -2.78125 C -0.71875 -3.46875 -1.03125 -3.957031 -1.65625 -4.25 C -2.007812 -4.40625 -2.425781 -4.484375 -2.90625 -4.484375 Z M -5.890625 -2.859375 Z M -5.890625 -2.859375 "/>
</g>
<g id="glyph-5-15">
<path d="M -7.921875 -0.703125 L -7.921875 -1.671875 L -4.96875 -1.671875 C -5.257812 -1.898438 -5.46875 -2.109375 -5.59375 -2.296875 C -5.789062 -2.609375 -5.890625 -2.992188 -5.890625 -3.453125 C -5.890625 -4.285156 -5.597656 -4.851562 -5.015625 -5.15625 C -4.691406 -5.3125 -4.25 -5.390625 -3.6875 -5.390625 L 0 -5.390625 L 0 -4.40625 L -3.625 -4.40625 C -4.050781 -4.40625 -4.363281 -4.351562 -4.5625 -4.25 C -4.875 -4.070312 -5.03125 -3.738281 -5.03125 -3.25 C -5.03125 -2.851562 -4.890625 -2.488281 -4.609375 -2.15625 C -4.335938 -1.832031 -3.816406 -1.671875 -3.046875 -1.671875 L 0 -1.671875 L 0 -0.703125 Z M -7.921875 -0.703125 "/>
</g>
<g id="glyph-5-16">
<path d="M 2.25 -0.375 C 1.132812 -0.945312 0.320312 -1.316406 -0.1875 -1.484375 C -0.957031 -1.734375 -1.859375 -1.859375 -2.890625 -1.859375 C -3.921875 -1.859375 -4.867188 -1.710938 -5.734375 -1.421875 C -6.265625 -1.242188 -7.023438 -0.890625 -8.015625 -0.359375 L -8.015625 -1.015625 C -7.140625 -1.566406 -6.597656 -1.898438 -6.390625 -2.015625 C -6.179688 -2.128906 -5.894531 -2.253906 -5.53125 -2.390625 C -5.082031 -2.566406 -4.640625 -2.691406 -4.203125 -2.765625 C -3.773438 -2.835938 -3.359375 -2.875 -2.953125 -2.875 C -1.890625 -2.875 -0.941406 -2.707031 -0.109375 -2.375 C 0.417969 -2.15625 1.207031 -1.710938 2.25 -1.046875 Z M 2.25 -0.375 "/>
</g>
<g id="glyph-6-0">
<path d="M 0 -1.375 L -8.25 -1.375 L -8.25 -9.625 L 0 -9.625 Z M -0.6875 -2.0625 L -0.6875 -8.9375 L -7.5625 -8.9375 L -7.5625 -2.0625 Z M -0.6875 -2.0625 "/>
</g>
<g id="glyph-6-1">
<path d="M 0 -6.046875 L 0 -5.046875 L -0.640625 -5.046875 C -0.359375 -4.773438 -0.160156 -4.519531 -0.046875 -4.28125 C 0.0546875 -4.039062 0.109375 -3.78125 0.109375 -3.5 C 0.109375 -3.226562 0.0585938 -2.984375 -0.03125 -2.765625 C -0.125 -2.554688 -0.316406 -2.300781 -0.609375 -2 L 2.21875 -2 L 2.21875 -1 L -6 -1 L -6 -2 L -1.5 -2 C -1.363281 -2.113281 -1.21875 -2.3125 -1.0625 -2.59375 C -0.914062 -2.882812 -0.84375 -3.191406 -0.84375 -3.515625 C -0.84375 -3.847656 -0.898438 -4.132812 -1.015625 -4.375 C -1.140625 -4.625 -1.3125 -4.84375 -1.53125 -5.03125 L -6 -5.03125 L -6 -6.046875 Z M 0 -6.046875 "/>
</g>
<g id="glyph-7-0">
<path d="M 1.359375 -0.390625 L -5.4375 -0.390625 L -5.4375 -4.234375 L 1.359375 -4.234375 Z M 0.9375 -0.8125 L 0.9375 -3.8125 L -5 -3.8125 L -5 -0.8125 Z M 0.9375 -0.8125 "/>
</g>
<g id="glyph-7-1">
<path d="M -2.734375 -0.8125 L -2.734375 -5.640625 L -2.09375 -5.640625 L -2.09375 -0.8125 Z M -2.734375 -0.8125 "/>
</g>
<g id="glyph-8-0">
<path d="M 0 -0.25 L -5.53125 -0.25 L -5.53125 -4.640625 L 0 -4.640625 Z M -0.6875 -3.9375 L -4.828125 -3.9375 L -4.828125 -0.9375 L -0.6875 -0.9375 Z M -0.6875 -3.9375 "/>
</g>
<g id="glyph-8-1">
<path d="M -3.8125 -0.734375 L -4.328125 -0.734375 C -4.378906 -1.222656 -4.457031 -1.5625 -4.5625 -1.75 C -4.675781 -1.945312 -4.941406 -2.09375 -5.359375 -2.1875 L -5.359375 -2.734375 L 0 -2.734375 L 0 -2 L -3.8125 -2 Z M -3.8125 -0.734375 "/>
</g>
</g>
<clipPath id="clip-0">
<path clip-rule="nonzero" d="M 40.851562 5.480469 L 318.519531 5.480469 L 318.519531 176.148438 L 40.851562 176.148438 Z M 40.851562 5.480469 "/>
</clipPath>
<clipPath id="clip-1">
<path clip-rule="nonzero" d="M 40.851562 153 L 318.519531 153 L 318.519531 154 L 40.851562 154 Z M 40.851562 153 "/>
</clipPath>
<clipPath id="clip-2">
<path clip-rule="nonzero" d="M 40.851562 122 L 318.519531 122 L 318.519531 124 L 40.851562 124 Z M 40.851562 122 "/>
</clipPath>
<clipPath id="clip-3">
<path clip-rule="nonzero" d="M 40.851562 92 L 318.519531 92 L 318.519531 94 L 40.851562 94 Z M 40.851562 92 "/>
</clipPath>
<clipPath id="clip-4">
<path clip-rule="nonzero" d="M 40.851562 62 L 318.519531 62 L 318.519531 64 L 40.851562 64 Z M 40.851562 62 "/>
</clipPath>
<clipPath id="clip-5">
<path clip-rule="nonzero" d="M 40.851562 32 L 318.519531 32 L 318.519531 33 L 40.851562 33 Z M 40.851562 32 "/>
</clipPath>
<clipPath id="clip-6">
<path clip-rule="nonzero" d="M 95 5.480469 L 97 5.480469 L 97 176.148438 L 95 176.148438 Z M 95 5.480469 "/>
</clipPath>
<clipPath id="clip-7">
<path clip-rule="nonzero" d="M 179 5.480469 L 180 5.480469 L 180 176.148438 L 179 176.148438 Z M 179 5.480469 "/>
</clipPath>
<clipPath id="clip-8">
<path clip-rule="nonzero" d="M 263 5.480469 L 264 5.480469 L 264 176.148438 L 263 176.148438 Z M 263 5.480469 "/>
</clipPath>
<clipPath id="clip-9">
<path clip-rule="nonzero" d="M 40.851562 167 L 318.519531 167 L 318.519531 169 L 40.851562 169 Z M 40.851562 167 "/>
</clipPath>
<clipPath id="clip-10">
<path clip-rule="nonzero" d="M 40.851562 137 L 318.519531 137 L 318.519531 139 L 40.851562 139 Z M 40.851562 137 "/>
</clipPath>
<clipPath id="clip-11">
<path clip-rule="nonzero" d="M 40.851562 107 L 318.519531 107 L 318.519531 109 L 40.851562 109 Z M 40.851562 107 "/>
</clipPath>
<clipPath id="clip-12">
<path clip-rule="nonzero" d="M 40.851562 77 L 318.519531 77 L 318.519531 79 L 40.851562 79 Z M 40.851562 77 "/>
</clipPath>
<clipPath id="clip-13">
<path clip-rule="nonzero" d="M 40.851562 47 L 318.519531 47 L 318.519531 49 L 40.851562 49 Z M 40.851562 47 "/>
</clipPath>
<clipPath id="clip-14">
<path clip-rule="nonzero" d="M 40.851562 17 L 318.519531 17 L 318.519531 19 L 40.851562 19 Z M 40.851562 17 "/>
</clipPath>
<clipPath id="clip-15">
<path clip-rule="nonzero" d="M 53 5.480469 L 55 5.480469 L 55 176.148438 L 53 176.148438 Z M 53 5.480469 "/>
</clipPath>
<clipPath id="clip-16">
<path clip-rule="nonzero" d="M 137 5.480469 L 139 5.480469 L 139 176.148438 L 137 176.148438 Z M 137 5.480469 "/>
</clipPath>
<clipPath id="clip-17">
<path clip-rule="nonzero" d="M 221 5.480469 L 223 5.480469 L 223 176.148438 L 221 176.148438 Z M 221 5.480469 "/>
</clipPath>
<clipPath id="clip-18">
<path clip-rule="nonzero" d="M 304 5.480469 L 306 5.480469 L 306 176.148438 L 304 176.148438 Z M 304 5.480469 "/>
</clipPath>
<clipPath id="clip-19">
<path clip-rule="nonzero" d="M 141 5.480469 L 143 5.480469 L 143 176.148438 L 141 176.148438 Z M 141 5.480469 "/>
</clipPath>
<clipPath id="clip-20">
<path clip-rule="nonzero" d="M 40.851562 12 L 318.519531 12 L 318.519531 14 L 40.851562 14 Z M 40.851562 12 "/>
</clipPath>
</defs>
<rect x="-32.4" y="-21.6" width="388.8" height="259.2" fill="rgb(100%, 100%, 100%)" fill-opacity="1"/>
<rect x="-32.4" y="-21.6" width="388.8" height="259.2" fill="rgb(100%, 100%, 100%)" fill-opacity="1"/>
<path fill="none" stroke-width="1.066978" stroke-linecap="round" stroke-linejoin="round" stroke="rgb(100%, 100%, 100%)" stroke-opacity="1" stroke-miterlimit="10" d="M 0 216 L 324 216 L 324 0 L 0 0 Z M 0 216 "/>
<g clip-path="url(#clip-0)">
<path fill-rule="nonzero" fill="rgb(92.156863%, 92.156863%, 92.156863%)" fill-opacity="1" d="M 40.851562 176.148438 L 318.519531 176.148438 L 318.519531 5.480469 L 40.851562 5.480469 Z M 40.851562 176.148438 "/>
</g>
<g clip-path="url(#clip-1)">
<path fill="none" stroke-width="0.533489" stroke-linecap="butt" stroke-linejoin="round" stroke="rgb(100%, 100%, 100%)" stroke-opacity="1" stroke-miterlimit="10" d="M 40.851562 153.296875 L 318.519531 153.296875 "/>
</g>
<g clip-path="url(#clip-2)">
<path fill="none" stroke-width="0.533489" stroke-linecap="butt" stroke-linejoin="round" stroke="rgb(100%, 100%, 100%)" stroke-opacity="1" stroke-miterlimit="10" d="M 40.851562 123.136719 L 318.519531 123.136719 "/>
</g>
<g clip-path="url(#clip-3)">
<path fill="none" stroke-width="0.533489" stroke-linecap="butt" stroke-linejoin="round" stroke="rgb(100%, 100%, 100%)" stroke-opacity="1" stroke-miterlimit="10" d="M 40.851562 92.980469 L 318.519531 92.980469 "/>
</g>
<g clip-path="url(#clip-4)">
<path fill="none" stroke-width="0.533489" stroke-linecap="butt" stroke-linejoin="round" stroke="rgb(100%, 100%, 100%)" stroke-opacity="1" stroke-miterlimit="10" d="M 40.851562 62.820312 L 318.519531 62.820312 "/>
</g>
<g clip-path="url(#clip-5)">
<path fill="none" stroke-width="0.533489" stroke-linecap="butt" stroke-linejoin="round" stroke="rgb(100%, 100%, 100%)" stroke-opacity="1" stroke-miterlimit="10" d="M 40.851562 32.664062 L 318.519531 32.664062 "/>
</g>
<g clip-path="url(#clip-6)">
<path fill="none" stroke-width="0.533489" stroke-linecap="butt" stroke-linejoin="round" stroke="rgb(100%, 100%, 100%)" stroke-opacity="1" stroke-miterlimit="10" d="M 95.90625 176.148438 L 95.90625 5.480469 "/>
</g>
<g clip-path="url(#clip-7)">
<path fill="none" stroke-width="0.533489" stroke-linecap="butt" stroke-linejoin="round" stroke="rgb(100%, 100%, 100%)" stroke-opacity="1" stroke-miterlimit="10" d="M 179.710938 176.148438 L 179.710938 5.480469 "/>
</g>
<g clip-path="url(#clip-8)">
<path fill="none" stroke-width="0.533489" stroke-linecap="butt" stroke-linejoin="round" stroke="rgb(100%, 100%, 100%)" stroke-opacity="1" stroke-miterlimit="10" d="M 263.515625 176.148438 L 263.515625 5.480469 "/>
</g>
<g clip-path="url(#clip-9)">
<path fill="none" stroke-width="1.066978" stroke-linecap="butt" stroke-linejoin="round" stroke="rgb(100%, 100%, 100%)" stroke-opacity="1" stroke-miterlimit="10" d="M 40.851562 168.375 L 318.519531 168.375 "/>
</g>
<g clip-path="url(#clip-10)">
<path fill="none" stroke-width="1.066978" stroke-linecap="butt" stroke-linejoin="round" stroke="rgb(100%, 100%, 100%)" stroke-opacity="1" stroke-miterlimit="10" d="M 40.851562 138.214844 L 318.519531 138.214844 "/>
</g>
<g clip-path="url(#clip-11)">
<path fill="none" stroke-width="1.066978" stroke-linecap="butt" stroke-linejoin="round" stroke="rgb(100%, 100%, 100%)" stroke-opacity="1" stroke-miterlimit="10" d="M 40.851562 108.058594 L 318.519531 108.058594 "/>
</g>
<g clip-path="url(#clip-12)">
<path fill="none" stroke-width="1.066978" stroke-linecap="butt" stroke-linejoin="round" stroke="rgb(100%, 100%, 100%)" stroke-opacity="1" stroke-miterlimit="10" d="M 40.851562 77.902344 L 318.519531 77.902344 "/>
</g>
<g clip-path="url(#clip-13)">
<path fill="none" stroke-width="1.066978" stroke-linecap="butt" stroke-linejoin="round" stroke="rgb(100%, 100%, 100%)" stroke-opacity="1" stroke-miterlimit="10" d="M 40.851562 47.742188 L 318.519531 47.742188 "/>
</g>
<g clip-path="url(#clip-14)">
<path fill="none" stroke-width="1.066978" stroke-linecap="butt" stroke-linejoin="round" stroke="rgb(100%, 100%, 100%)" stroke-opacity="1" stroke-miterlimit="10" d="M 40.851562 17.585938 L 318.519531 17.585938 "/>
</g>
<g clip-path="url(#clip-15)">
<path fill="none" stroke-width="1.066978" stroke-linecap="butt" stroke-linejoin="round" stroke="rgb(100%, 100%, 100%)" stroke-opacity="1" stroke-miterlimit="10" d="M 54.003906 176.148438 L 54.003906 5.480469 "/>
</g>
<g clip-path="url(#clip-16)">
<path fill="none" stroke-width="1.066978" stroke-linecap="butt" stroke-linejoin="round" stroke="rgb(100%, 100%, 100%)" stroke-opacity="1" stroke-miterlimit="10" d="M 137.808594 176.148438 L 137.808594 5.480469 "/>
</g>
<g clip-path="url(#clip-17)">
<path fill="none" stroke-width="1.066978" stroke-linecap="butt" stroke-linejoin="round" stroke="rgb(100%, 100%, 100%)" stroke-opacity="1" stroke-miterlimit="10" d="M 221.613281 176.148438 L 221.613281 5.480469 "/>
</g>
<g clip-path="url(#clip-18)">
<path fill="none" stroke-width="1.066978" stroke-linecap="butt" stroke-linejoin="round" stroke="rgb(100%, 100%, 100%)" stroke-opacity="1" stroke-miterlimit="10" d="M 305.414062 176.148438 L 305.414062 5.480469 "/>
</g>
<path fill="none" stroke-width="0.708661" stroke-linecap="round" stroke-linejoin="round" stroke="rgb(26.27451%, 43.137255%, 93.333333%)" stroke-opacity="1" stroke-miterlimit="10" d="M 56.628906 168.390625 C 56.628906 171.710938 51.652344 171.710938 51.652344 168.390625 C 51.652344 165.074219 56.628906 165.074219 56.628906 168.390625 "/>
<path fill="none" stroke-width="0.708661" stroke-linecap="round" stroke-linejoin="round" stroke="rgb(26.27451%, 43.137255%, 93.333333%)" stroke-opacity="1" stroke-miterlimit="10" d="M 56.558594 168.371094 C 56.558594 171.691406 51.582031 171.691406 51.582031 168.371094 C 51.582031 165.054688 56.558594 165.054688 56.558594 168.371094 "/>
<path fill="none" stroke-width="0.708661" stroke-linecap="round" stroke-linejoin="round" stroke="rgb(26.27451%, 43.137255%, 93.333333%)" stroke-opacity="1" stroke-miterlimit="10" d="M 56.160156 168.371094 C 56.160156 171.6875 51.183594 171.6875 51.183594 168.371094 C 51.183594 165.050781 56.160156 165.050781 56.160156 168.371094 "/>
<path fill="none" stroke-width="0.708661" stroke-linecap="round" stroke-linejoin="round" stroke="rgb(26.27451%, 43.137255%, 93.333333%)" stroke-opacity="1" stroke-miterlimit="10" d="M 56.691406 168.375 C 56.691406 171.695312 51.714844 171.695312 51.714844 168.375 C 51.714844 165.058594 56.691406 165.058594 56.691406 168.375 "/>
<path fill="none" stroke-width="0.708661" stroke-linecap="round" stroke-linejoin="round" stroke="rgb(26.27451%, 43.137255%, 93.333333%)" stroke-opacity="1" stroke-miterlimit="10" d="M 55.960938 168.382812 C 55.960938 171.703125 50.984375 171.703125 50.984375 168.382812 C 50.984375 165.066406 55.960938 165.066406 55.960938 168.382812 "/>
<path fill="none" stroke-width="0.708661" stroke-linecap="round" stroke-linejoin="round" stroke="rgb(26.27451%, 43.137255%, 93.333333%)" stroke-opacity="1" stroke-miterlimit="10" d="M 57.023438 166.835938 C 57.023438 170.152344 52.046875 170.152344 52.046875 166.835938 C 52.046875 163.519531 57.023438 163.519531 57.023438 166.835938 "/>
<path fill="none" stroke-width="0.708661" stroke-linecap="round" stroke-linejoin="round" stroke="rgb(26.27451%, 43.137255%, 93.333333%)" stroke-opacity="1" stroke-miterlimit="10" d="M 57.199219 166.617188 C 57.199219 169.933594 52.222656 169.933594 52.222656 166.617188 C 52.222656 163.300781 57.199219 163.300781 57.199219 166.617188 "/>
<path fill="none" stroke-width="0.708661" stroke-linecap="round" stroke-linejoin="round" stroke="rgb(26.27451%, 43.137255%, 93.333333%)" stroke-opacity="1" stroke-miterlimit="10" d="M 56.980469 166.921875 C 56.980469 170.238281 52.003906 170.238281 52.003906 166.921875 C 52.003906 163.601562 56.980469 163.601562 56.980469 166.921875 "/>
<path fill="none" stroke-width="0.708661" stroke-linecap="round" stroke-linejoin="round" stroke="rgb(26.27451%, 43.137255%, 93.333333%)" stroke-opacity="1" stroke-miterlimit="10" d="M 57.816406 166.878906 C 57.816406 170.199219 52.839844 170.199219 52.839844 166.878906 C 52.839844 163.5625 57.816406 163.5625 57.816406 166.878906 "/>
<path fill="none" stroke-width="0.708661" stroke-linecap="round" stroke-linejoin="round" stroke="rgb(26.27451%, 43.137255%, 93.333333%)" stroke-opacity="1" stroke-miterlimit="10" d="M 57.886719 167.007812 C 57.886719 170.328125 52.910156 170.328125 52.910156 167.007812 C 52.910156 163.691406 57.886719 163.691406 57.886719 167.007812 "/>
<path fill="none" stroke-width="0.708661" stroke-linecap="round" stroke-linejoin="round" stroke="rgb(26.27451%, 43.137255%, 93.333333%)" stroke-opacity="1" stroke-miterlimit="10" d="M 60.558594 160.992188 C 60.558594 164.3125 55.582031 164.3125 55.582031 160.992188 C 55.582031 157.675781 60.558594 157.675781 60.558594 160.992188 "/>
<path fill="none" stroke-width="0.708661" stroke-linecap="round" stroke-linejoin="round" stroke="rgb(26.27451%, 43.137255%, 93.333333%)" stroke-opacity="1" stroke-miterlimit="10" d="M 61.300781 161.652344 C 61.300781 164.96875 56.324219 164.96875 56.324219 161.652344 C 56.324219 158.332031 61.300781 158.332031 61.300781 161.652344 "/>
<path fill="none" stroke-width="0.708661" stroke-linecap="round" stroke-linejoin="round" stroke="rgb(26.27451%, 43.137255%, 93.333333%)" stroke-opacity="1" stroke-miterlimit="10" d="M 61.175781 159.535156 C 61.175781 162.851562 56.199219 162.851562 56.199219 159.535156 C 56.199219 156.214844 61.175781 156.214844 61.175781 159.535156 "/>
<path fill="none" stroke-width="0.708661" stroke-linecap="round" stroke-linejoin="round" stroke="rgb(26.27451%, 43.137255%, 93.333333%)" stroke-opacity="1" stroke-miterlimit="10" d="M 61.273438 161.234375 C 61.273438 164.550781 56.296875 164.550781 56.296875 161.234375 C 56.296875 157.914062 61.273438 157.914062 61.273438 161.234375 "/>
<path fill="none" stroke-width="0.708661" stroke-linecap="round" stroke-linejoin="round" stroke="rgb(26.27451%, 43.137255%, 93.333333%)" stroke-opacity="1" stroke-miterlimit="10" d="M 60.121094 161.089844 C 60.121094 164.410156 55.144531 164.410156 55.144531 161.089844 C 55.144531 157.773438 60.121094 157.773438 60.121094 161.089844 "/>
<path fill="none" stroke-width="0.708661" stroke-linecap="round" stroke-linejoin="round" stroke="rgb(26.27451%, 43.137255%, 93.333333%)" stroke-opacity="1" stroke-miterlimit="10" d="M 72.804688 140.894531 C 72.804688 144.210938 67.828125 144.210938 67.828125 140.894531 C 67.828125 137.578125 72.804688 137.578125 72.804688 140.894531 "/>
<path fill="none" stroke-width="0.708661" stroke-linecap="round" stroke-linejoin="round" stroke="rgb(26.27451%, 43.137255%, 93.333333%)" stroke-opacity="1" stroke-miterlimit="10" d="M 72.730469 146.097656 C 72.730469 149.414062 67.753906 149.414062 67.753906 146.097656 C 67.753906 142.78125 72.730469 142.78125 72.730469 146.097656 "/>
<path fill="none" stroke-width="0.708661" stroke-linecap="round" stroke-linejoin="round" stroke="rgb(26.27451%, 43.137255%, 93.333333%)" stroke-opacity="1" stroke-miterlimit="10" d="M 73.101562 143.929688 C 73.101562 147.25 68.125 147.25 68.125 143.929688 C 68.125 140.613281 73.101562 140.613281 73.101562 143.929688 "/>
<path fill="none" stroke-width="0.708661" stroke-linecap="round" stroke-linejoin="round" stroke="rgb(26.27451%, 43.137255%, 93.333333%)" stroke-opacity="1" stroke-miterlimit="10" d="M 73.328125 142.238281 C 73.328125 145.554688 68.351562 145.554688 68.351562 142.238281 C 68.351562 138.917969 73.328125 138.917969 73.328125 142.238281 "/>
<path fill="none" stroke-width="0.708661" stroke-linecap="round" stroke-linejoin="round" stroke="rgb(26.27451%, 43.137255%, 93.333333%)" stroke-opacity="1" stroke-miterlimit="10" d="M 73.175781 146.609375 C 73.175781 149.925781 68.199219 149.925781 68.199219 146.609375 C 68.199219 143.289062 73.175781 143.289062 73.175781 146.609375 "/>
<path fill="none" stroke-width="0.708661" stroke-linecap="round" stroke-linejoin="round" stroke="rgb(26.27451%, 43.137255%, 93.333333%)" stroke-opacity="1" stroke-miterlimit="10" d="M 97.964844 112.183594 C 97.964844 115.5 92.988281 115.5 92.988281 112.183594 C 92.988281 108.867188 97.964844 108.867188 97.964844 112.183594 "/>
<path fill="none" stroke-width="0.708661" stroke-linecap="round" stroke-linejoin="round" stroke="rgb(26.27451%, 43.137255%, 93.333333%)" stroke-opacity="1" stroke-miterlimit="10" d="M 97.960938 123.707031 C 97.960938 127.027344 92.984375 127.027344 92.984375 123.707031 C 92.984375 120.390625 97.960938 120.390625 97.960938 123.707031 "/>
<path fill="none" stroke-width="0.708661" stroke-linecap="round" stroke-linejoin="round" stroke="rgb(26.27451%, 43.137255%, 93.333333%)" stroke-opacity="1" stroke-miterlimit="10" d="M 98.003906 114.328125 C 98.003906 117.648438 93.027344 117.648438 93.027344 114.328125 C 93.027344 111.011719 98.003906 111.011719 98.003906 114.328125 "/>
<path fill="none" stroke-width="0.708661" stroke-linecap="round" stroke-linejoin="round" stroke="rgb(26.27451%, 43.137255%, 93.333333%)" stroke-opacity="1" stroke-miterlimit="10" d="M 98.46875 114.019531 C 98.46875 117.339844 93.492188 117.339844 93.492188 114.019531 C 93.492188 110.703125 98.46875 110.703125 98.46875 114.019531 "/>
<path fill="none" stroke-width="0.708661" stroke-linecap="round" stroke-linejoin="round" stroke="rgb(26.27451%, 43.137255%, 93.333333%)" stroke-opacity="1" stroke-miterlimit="10" d="M 98 118.257812 C 98 121.574219 93.023438 121.574219 93.023438 118.257812 C 93.023438 114.941406 98 114.941406 98 118.257812 "/>
<path fill="none" stroke-width="0.708661" stroke-linecap="round" stroke-linejoin="round" stroke="rgb(26.27451%, 43.137255%, 93.333333%)" stroke-opacity="1" stroke-miterlimit="10" d="M 119.46875 103.730469 C 119.46875 107.046875 114.492188 107.046875 114.492188 103.730469 C 114.492188 100.414062 119.46875 100.414062 119.46875 103.730469 "/>
<path fill="none" stroke-width="0.708661" stroke-linecap="round" stroke-linejoin="round" stroke="rgb(26.27451%, 43.137255%, 93.333333%)" stroke-opacity="1" stroke-miterlimit="10" d="M 118.914062 106.773438 C 118.914062 110.089844 113.9375 110.089844 113.9375 106.773438 C 113.9375 103.453125 118.914062 103.453125 118.914062 106.773438 "/>
<path fill="none" stroke-width="0.708661" stroke-linecap="round" stroke-linejoin="round" stroke="rgb(26.27451%, 43.137255%, 93.333333%)" stroke-opacity="1" stroke-miterlimit="10" d="M 118.890625 108.683594 C 118.890625 112.003906 113.914062 112.003906 113.914062 108.683594 C 113.914062 105.367188 118.890625 105.367188 118.890625 108.683594 "/>
<path fill="none" stroke-width="0.708661" stroke-linecap="round" stroke-linejoin="round" stroke="rgb(26.27451%, 43.137255%, 93.333333%)" stroke-opacity="1" stroke-miterlimit="10" d="M 119.378906 105.609375 C 119.378906 108.925781 114.402344 108.925781 114.402344 105.609375 C 114.402344 102.292969 119.378906 102.292969 119.378906 105.609375 "/>
<path fill="none" stroke-width="0.708661" stroke-linecap="round" stroke-linejoin="round" stroke="rgb(26.27451%, 43.137255%, 93.333333%)" stroke-opacity="1" stroke-miterlimit="10" d="M 119.855469 102.726562 C 119.855469 106.046875 114.878906 106.046875 114.878906 102.726562 C 114.878906 99.410156 119.855469 99.410156 119.855469 102.726562 "/>
<path fill="none" stroke-width="0.708661" stroke-linecap="round" stroke-linejoin="round" stroke="rgb(26.27451%, 43.137255%, 93.333333%)" stroke-opacity="1" stroke-miterlimit="10" d="M 140.605469 99.796875 C 140.605469 103.113281 135.628906 103.113281 135.628906 99.796875 C 135.628906 96.476562 140.605469 96.476562 140.605469 99.796875 "/>
<path fill="none" stroke-width="0.708661" stroke-linecap="round" stroke-linejoin="round" stroke="rgb(26.27451%, 43.137255%, 93.333333%)" stroke-opacity="1" stroke-miterlimit="10" d="M 140.816406 94.75 C 140.816406 98.066406 135.839844 98.066406 135.839844 94.75 C 135.839844 91.429688 140.816406 91.429688 140.816406 94.75 "/>
<path fill="none" stroke-width="0.708661" stroke-linecap="round" stroke-linejoin="round" stroke="rgb(26.27451%, 43.137255%, 93.333333%)" stroke-opacity="1" stroke-miterlimit="10" d="M 139.765625 92.933594 C 139.765625 96.25 134.789062 96.25 134.789062 92.933594 C 134.789062 89.617188 139.765625 89.617188 139.765625 92.933594 "/>
<path fill="none" stroke-width="0.708661" stroke-linecap="round" stroke-linejoin="round" stroke="rgb(26.27451%, 43.137255%, 93.333333%)" stroke-opacity="1" stroke-miterlimit="10" d="M 139.664062 93.765625 C 139.664062 97.082031 134.6875 97.082031 134.6875 93.765625 C 134.6875 90.449219 139.664062 90.449219 139.664062 93.765625 "/>
<path fill="none" stroke-width="0.708661" stroke-linecap="round" stroke-linejoin="round" stroke="rgb(26.27451%, 43.137255%, 93.333333%)" stroke-opacity="1" stroke-miterlimit="10" d="M 140.535156 85.421875 C 140.535156 88.738281 135.558594 88.738281 135.558594 85.421875 C 135.558594 82.101562 140.535156 82.101562 140.535156 85.421875 "/>
<path fill="none" stroke-width="0.708661" stroke-linecap="round" stroke-linejoin="round" stroke="rgb(26.27451%, 43.137255%, 93.333333%)" stroke-opacity="1" stroke-miterlimit="10" d="M 161.15625 82.523438 C 161.15625 85.84375 156.179688 85.84375 156.179688 82.523438 C 156.179688 79.207031 161.15625 79.207031 161.15625 82.523438 "/>
<path fill="none" stroke-width="0.708661" stroke-linecap="round" stroke-linejoin="round" stroke="rgb(26.27451%, 43.137255%, 93.333333%)" stroke-opacity="1" stroke-miterlimit="10" d="M 161.296875 83.023438 C 161.296875 86.34375 156.320312 86.34375 156.320312 83.023438 C 156.320312 79.707031 161.296875 79.707031 161.296875 83.023438 "/>
<path fill="none" stroke-width="0.708661" stroke-linecap="round" stroke-linejoin="round" stroke="rgb(26.27451%, 43.137255%, 93.333333%)" stroke-opacity="1" stroke-miterlimit="10" d="M 161.222656 83.785156 C 161.222656 87.105469 156.246094 87.105469 156.246094 83.785156 C 156.246094 80.46875 161.222656 80.46875 161.222656 83.785156 "/>
<path fill="none" stroke-width="0.708661" stroke-linecap="round" stroke-linejoin="round" stroke="rgb(26.27451%, 43.137255%, 93.333333%)" stroke-opacity="1" stroke-miterlimit="10" d="M 161.0625 81.082031 C 161.0625 84.398438 156.085938 84.398438 156.085938 81.082031 C 156.085938 77.761719 161.0625 77.761719 161.0625 81.082031 "/>
<path fill="none" stroke-width="0.708661" stroke-linecap="round" stroke-linejoin="round" stroke="rgb(26.27451%, 43.137255%, 93.333333%)" stroke-opacity="1" stroke-miterlimit="10" d="M 160.773438 79.78125 C 160.773438 83.097656 155.796875 83.097656 155.796875 79.78125 C 155.796875 76.464844 160.773438 76.464844 160.773438 79.78125 "/>
<path fill="none" stroke-width="0.708661" stroke-linecap="round" stroke-linejoin="round" stroke="rgb(26.27451%, 43.137255%, 93.333333%)" stroke-opacity="1" stroke-miterlimit="10" d="M 182.332031 81.433594 C 182.332031 84.75 177.355469 84.75 177.355469 81.433594 C 177.355469 78.113281 182.332031 78.113281 182.332031 81.433594 "/>
<path fill="none" stroke-width="0.708661" stroke-linecap="round" stroke-linejoin="round" stroke="rgb(26.27451%, 43.137255%, 93.333333%)" stroke-opacity="1" stroke-miterlimit="10" d="M 182.585938 77.515625 C 182.585938 80.832031 177.609375 80.832031 177.609375 77.515625 C 177.609375 74.195312 182.585938 74.195312 182.585938 77.515625 "/>
<path fill="none" stroke-width="0.708661" stroke-linecap="round" stroke-linejoin="round" stroke="rgb(26.27451%, 43.137255%, 93.333333%)" stroke-opacity="1" stroke-miterlimit="10" d="M 182.527344 78.070312 C 182.527344 81.390625 177.550781 81.390625 177.550781 78.070312 C 177.550781 74.753906 182.527344 74.753906 182.527344 78.070312 "/>
<path fill="none" stroke-width="0.708661" stroke-linecap="round" stroke-linejoin="round" stroke="rgb(26.27451%, 43.137255%, 93.333333%)" stroke-opacity="1" stroke-miterlimit="10" d="M 181.78125 82.625 C 181.78125 85.941406 176.804688 85.941406 176.804688 82.625 C 176.804688 79.308594 181.78125 79.308594 181.78125 82.625 "/>
<path fill="none" stroke-width="0.708661" stroke-linecap="round" stroke-linejoin="round" stroke="rgb(26.27451%, 43.137255%, 93.333333%)" stroke-opacity="1" stroke-miterlimit="10" d="M 182.246094 85.121094 C 182.246094 88.441406 177.269531 88.441406 177.269531 85.121094 C 177.269531 81.804688 182.246094 81.804688 182.246094 85.121094 "/>
<path fill="none" stroke-width="0.708661" stroke-linecap="round" stroke-linejoin="round" stroke="rgb(26.27451%, 43.137255%, 93.333333%)" stroke-opacity="1" stroke-miterlimit="10" d="M 203.023438 70.265625 C 203.023438 73.585938 198.046875 73.585938 198.046875 70.265625 C 198.046875 66.949219 203.023438 66.949219 203.023438 70.265625 "/>
<path fill="none" stroke-width="0.708661" stroke-linecap="round" stroke-linejoin="round" stroke="rgb(26.27451%, 43.137255%, 93.333333%)" stroke-opacity="1" stroke-miterlimit="10" d="M 203.136719 69.613281 C 203.136719 72.933594 198.160156 72.933594 198.160156 69.613281 C 198.160156 66.296875 203.136719 66.296875 203.136719 69.613281 "/>
<path fill="none" stroke-width="0.708661" stroke-linecap="round" stroke-linejoin="round" stroke="rgb(26.27451%, 43.137255%, 93.333333%)" stroke-opacity="1" stroke-miterlimit="10" d="M 203.371094 75.921875 C 203.371094 79.242188 198.394531 79.242188 198.394531 75.921875 C 198.394531 72.605469 203.371094 72.605469 203.371094 75.921875 "/>
<path fill="none" stroke-width="0.708661" stroke-linecap="round" stroke-linejoin="round" stroke="rgb(26.27451%, 43.137255%, 93.333333%)" stroke-opacity="1" stroke-miterlimit="10" d="M 202.582031 74.859375 C 202.582031 78.179688 197.605469 78.179688 197.605469 74.859375 C 197.605469 71.542969 202.582031 71.542969 202.582031 74.859375 "/>
<path fill="none" stroke-width="0.708661" stroke-linecap="round" stroke-linejoin="round" stroke="rgb(26.27451%, 43.137255%, 93.333333%)" stroke-opacity="1" stroke-miterlimit="10" d="M 202.710938 64.882812 C 202.710938 68.199219 197.734375 68.199219 197.734375 64.882812 C 197.734375 61.5625 202.710938 61.5625 202.710938 64.882812 "/>
<path fill="none" stroke-width="0.708661" stroke-linecap="round" stroke-linejoin="round" stroke="rgb(26.27451%, 43.137255%, 93.333333%)" stroke-opacity="1" stroke-miterlimit="10" d="M 224.605469 70.042969 C 224.605469 73.359375 219.628906 73.359375 219.628906 70.042969 C 219.628906 66.722656 224.605469 66.722656 224.605469 70.042969 "/>
<path fill="none" stroke-width="0.708661" stroke-linecap="round" stroke-linejoin="round" stroke="rgb(26.27451%, 43.137255%, 93.333333%)" stroke-opacity="1" stroke-miterlimit="10" d="M 223.875 65.074219 C 223.875 68.390625 218.898438 68.390625 218.898438 65.074219 C 218.898438 61.757812 223.875 61.757812 223.875 65.074219 "/>
<path fill="none" stroke-width="0.708661" stroke-linecap="round" stroke-linejoin="round" stroke="rgb(26.27451%, 43.137255%, 93.333333%)" stroke-opacity="1" stroke-miterlimit="10" d="M 224.488281 60.78125 C 224.488281 64.097656 219.511719 64.097656 219.511719 60.78125 C 219.511719 57.460938 224.488281 57.460938 224.488281 60.78125 "/>
<path fill="none" stroke-width="0.708661" stroke-linecap="round" stroke-linejoin="round" stroke="rgb(26.27451%, 43.137255%, 93.333333%)" stroke-opacity="1" stroke-miterlimit="10" d="M 223.578125 61.15625 C 223.578125 64.476562 218.601562 64.476562 218.601562 61.15625 C 218.601562 57.839844 223.578125 57.839844 223.578125 61.15625 "/>
<path fill="none" stroke-width="0.708661" stroke-linecap="round" stroke-linejoin="round" stroke="rgb(26.27451%, 43.137255%, 93.333333%)" stroke-opacity="1" stroke-miterlimit="10" d="M 224.574219 70.820312 C 224.574219 74.136719 219.597656 74.136719 219.597656 70.820312 C 219.597656 67.503906 224.574219 67.503906 224.574219 70.820312 "/>
<path fill="none" stroke-width="0.708661" stroke-linecap="round" stroke-linejoin="round" stroke="rgb(26.27451%, 43.137255%, 93.333333%)" stroke-opacity="1" stroke-miterlimit="10" d="M 265.980469 69.226562 C 265.980469 72.542969 261.003906 72.542969 261.003906 69.226562 C 261.003906 65.90625 265.980469 65.90625 265.980469 69.226562 "/>
<path fill="none" stroke-width="0.708661" stroke-linecap="round" stroke-linejoin="round" stroke="rgb(26.27451%, 43.137255%, 93.333333%)" stroke-opacity="1" stroke-miterlimit="10" d="M 265.699219 54.179688 C 265.699219 57.5 260.722656 57.5 260.722656 54.179688 C 260.722656 50.863281 265.699219 50.863281 265.699219 54.179688 "/>
<path fill="none" stroke-width="0.708661" stroke-linecap="round" stroke-linejoin="round" stroke="rgb(26.27451%, 43.137255%, 93.333333%)" stroke-opacity="1" stroke-miterlimit="10" d="M 266.378906 60.648438 C 266.378906 63.96875 261.402344 63.96875 261.402344 60.648438 C 261.402344 57.332031 266.378906 57.332031 266.378906 60.648438 "/>
<path fill="none" stroke-width="0.708661" stroke-linecap="round" stroke-linejoin="round" stroke="rgb(26.27451%, 43.137255%, 93.333333%)" stroke-opacity="1" stroke-miterlimit="10" d="M 266.523438 53.269531 C 266.523438 56.589844 261.546875 56.589844 261.546875 53.269531 C 261.546875 49.953125 266.523438 49.953125 266.523438 53.269531 "/>
<path fill="none" stroke-width="0.708661" stroke-linecap="round" stroke-linejoin="round" stroke="rgb(26.27451%, 43.137255%, 93.333333%)" stroke-opacity="1" stroke-miterlimit="10" d="M 266.035156 58.867188 C 266.035156 62.183594 261.058594 62.183594 261.058594 58.867188 C 261.058594 55.550781 266.035156 55.550781 266.035156 58.867188 "/>
<path fill="none" stroke-width="0.708661" stroke-linecap="round" stroke-linejoin="round" stroke="rgb(26.27451%, 43.137255%, 93.333333%)" stroke-opacity="1" stroke-miterlimit="10" d="M 308.386719 42.496094 C 308.386719 45.8125 303.410156 45.8125 303.410156 42.496094 C 303.410156 39.175781 308.386719 39.175781 308.386719 42.496094 "/>
<path fill="none" stroke-width="0.708661" stroke-linecap="round" stroke-linejoin="round" stroke="rgb(26.27451%, 43.137255%, 93.333333%)" stroke-opacity="1" stroke-miterlimit="10" d="M 308.226562 62.449219 C 308.226562 65.765625 303.25 65.765625 303.25 62.449219 C 303.25 59.128906 308.226562 59.128906 308.226562 62.449219 "/>
<path fill="none" stroke-width="0.708661" stroke-linecap="round" stroke-linejoin="round" stroke="rgb(26.27451%, 43.137255%, 93.333333%)" stroke-opacity="1" stroke-miterlimit="10" d="M 307.808594 50.550781 C 307.808594 53.867188 302.832031 53.867188 302.832031 50.550781 C 302.832031 47.234375 307.808594 47.234375 307.808594 50.550781 "/>
<path fill="none" stroke-width="0.708661" stroke-linecap="round" stroke-linejoin="round" stroke="rgb(26.27451%, 43.137255%, 93.333333%)" stroke-opacity="1" stroke-miterlimit="10" d="M 307.382812 54.449219 C 307.382812 57.765625 302.40625 57.765625 302.40625 54.449219 C 302.40625 51.128906 307.382812 51.128906 307.382812 54.449219 "/>
<path fill="none" stroke-width="0.708661" stroke-linecap="round" stroke-linejoin="round" stroke="rgb(26.27451%, 43.137255%, 93.333333%)" stroke-opacity="1" stroke-miterlimit="10" d="M 307.816406 57.589844 C 307.816406 60.910156 302.839844 60.910156 302.839844 57.589844 C 302.839844 54.273438 307.816406 54.273438 307.816406 57.589844 "/>
<path fill="none" stroke-width="1.49377" stroke-linecap="butt" stroke-linejoin="round" stroke="rgb(0%, 0%, 0%)" stroke-opacity="1" stroke-miterlimit="10" d="M 54.003906 168.375 L 55.269531 166.1875 L 56.53125 164.066406 L 57.792969 161.996094 L 59.058594 159.988281 L 60.320312 158.03125 L 61.585938 156.125 L 62.847656 154.269531 L 64.113281 152.460938 L 65.375 150.699219 L 66.636719 148.980469 L 67.902344 147.304688 L 69.164062 145.667969 L 70.429688 144.070312 L 71.691406 142.515625 L 72.957031 140.992188 L 74.21875 139.507812 L 75.480469 138.054688 L 76.746094 136.636719 L 78.007812 135.25 L 79.273438 133.894531 L 80.535156 132.566406 L 81.800781 131.269531 L 83.0625 130 L 84.324219 128.757812 L 85.589844 127.542969 L 86.851562 126.351562 L 88.117188 125.1875 L 89.378906 124.042969 L 90.640625 122.925781 L 91.90625 121.828125 L 93.167969 120.75 L 94.433594 119.699219 L 95.695312 118.664062 L 96.960938 117.648438 L 98.222656 116.65625 L 99.484375 115.679688 L 100.75 114.722656 L 102.011719 113.78125 L 103.277344 112.859375 L 104.539062 111.953125 L 105.804688 111.066406 L 107.066406 110.191406 L 108.328125 109.332031 L 109.59375 108.488281 L 110.855469 107.660156 L 112.121094 106.847656 L 113.382812 106.046875 L 114.648438 105.261719 L 115.910156 104.488281 L 117.171875 103.726562 L 118.4375 102.980469 L 119.699219 102.242188 L 120.964844 101.519531 L 122.226562 100.808594 L 123.488281 100.105469 L 124.753906 99.417969 L 126.015625 98.738281 L 127.28125 98.070312 L 128.542969 97.414062 L 129.808594 96.765625 L 131.070312 96.128906 L 132.332031 95.5 L 133.597656 94.882812 L 134.859375 94.273438 L 136.125 93.671875 L 137.386719 93.078125 L 138.652344 92.496094 L 139.914062 91.921875 L 141.175781 91.355469 L 142.441406 90.796875 L 143.703125 90.25 L 144.96875 89.707031 L 146.230469 89.171875 L 147.496094 88.644531 L 148.757812 88.125 L 150.019531 87.609375 L 151.285156 87.105469 L 152.546875 86.605469 L 153.8125 86.113281 L 155.074219 85.628906 L 156.335938 85.148438 L 157.601562 84.675781 L 158.863281 84.207031 L 160.128906 83.746094 L 161.390625 83.292969 L 162.65625 82.84375 L 163.917969 82.398438 L 165.179688 81.960938 L 166.445312 81.527344 L 167.707031 81.101562 L 168.972656 80.679688 L 170.234375 80.265625 L 171.5 79.851562 L 172.761719 79.445312 L 174.023438 79.046875 L 175.289062 78.648438 L 176.550781 78.257812 L 177.816406 77.871094 L 179.078125 77.488281 L 180.34375 77.109375 L 182.867188 76.367188 L 184.132812 76.003906 L 185.394531 75.640625 L 186.660156 75.285156 L 189.183594 74.582031 L 190.449219 74.238281 L 191.710938 73.898438 L 192.976562 73.5625 L 194.238281 73.226562 L 195.503906 72.898438 L 196.765625 72.570312 L 198.027344 72.25 L 199.292969 71.929688 L 200.554688 71.613281 L 201.820312 71.304688 L 203.082031 70.992188 L 204.347656 70.6875 L 206.871094 70.085938 L 208.136719 69.789062 L 209.398438 69.496094 L 210.664062 69.207031 L 211.925781 68.921875 L 213.191406 68.636719 L 214.453125 68.355469 L 215.714844 68.078125 L 216.980469 67.800781 L 218.242188 67.527344 L 219.507812 67.257812 L 222.03125 66.726562 L 223.296875 66.464844 L 224.558594 66.203125 L 225.824219 65.945312 L 227.085938 65.691406 L 228.351562 65.441406 L 230.875 64.941406 L 232.140625 64.699219 L 233.402344 64.457031 L 234.667969 64.214844 L 235.929688 63.976562 L 237.195312 63.742188 L 239.71875 63.273438 L 240.984375 63.046875 L 242.246094 62.816406 L 243.511719 62.59375 L 244.773438 62.371094 L 246.039062 62.148438 L 248.5625 61.710938 L 249.828125 61.496094 L 251.089844 61.28125 L 252.355469 61.070312 L 253.617188 60.859375 L 254.882812 60.652344 L 256.144531 60.445312 L 257.40625 60.242188 L 258.671875 60.039062 L 259.933594 59.839844 L 261.199219 59.640625 L 262.460938 59.441406 L 263.722656 59.246094 L 264.988281 59.050781 L 266.25 58.859375 L 267.515625 58.667969 L 268.777344 58.480469 L 270.042969 58.292969 L 271.304688 58.105469 L 272.566406 57.921875 L 273.832031 57.738281 L 275.09375 57.554688 L 276.359375 57.375 L 277.621094 57.195312 L 278.886719 57.019531 L 281.410156 56.667969 L 282.675781 56.496094 L 283.9375 56.324219 L 285.203125 56.15625 L 286.464844 55.984375 L 287.730469 55.816406 L 290.253906 55.488281 L 291.519531 55.324219 L 292.78125 55.160156 L 294.046875 55 L 296.570312 54.679688 L 297.835938 54.523438 L 299.097656 54.367188 L 300.363281 54.210938 L 301.625 54.058594 L 302.890625 53.902344 L 304.152344 53.753906 L 305.414062 53.601562 "/>
<g clip-path="url(#clip-19)">
<path fill="none" stroke-width="1.066978" stroke-linecap="butt" stroke-linejoin="round" stroke="rgb(80.392157%, 37.647059%, 56.470588%)" stroke-opacity="1" stroke-dasharray="4.267913 4.267913" stroke-miterlimit="10" d="M 142.421875 176.148438 L 142.421875 5.480469 "/>
</g>
<g clip-path="url(#clip-20)">
<path fill="none" stroke-width="1.066978" stroke-linecap="butt" stroke-linejoin="round" stroke="rgb(80.392157%, 37.647059%, 56.470588%)" stroke-opacity="1" stroke-dasharray="4.267913 4.267913" stroke-miterlimit="10" d="M 40.851562 13.238281 L 318.519531 13.238281 "/>
</g>
<g fill="rgb(30.196078%, 30.196078%, 30.196078%)" fill-opacity="1">
<use xlink:href="#glyph-0-1" x="30.917969" y="171.651367"/>
</g>
<g fill="rgb(30.196078%, 30.196078%, 30.196078%)" fill-opacity="1">
<use xlink:href="#glyph-0-2" x="25.917969" y="141.491211"/>
<use xlink:href="#glyph-0-1" x="30.917969" y="141.491211"/>
</g>
<g fill="rgb(30.196078%, 30.196078%, 30.196078%)" fill-opacity="1">
<use xlink:href="#glyph-0-3" x="25.917969" y="111.334961"/>
<use xlink:href="#glyph-0-1" x="30.917969" y="111.334961"/>
</g>
<g fill="rgb(30.196078%, 30.196078%, 30.196078%)" fill-opacity="1">
<use xlink:href="#glyph-0-4" x="25.917969" y="81.178711"/>
<use xlink:href="#glyph-0-1" x="30.917969" y="81.178711"/>
</g>
<g fill="rgb(30.196078%, 30.196078%, 30.196078%)" fill-opacity="1">
<use xlink:href="#glyph-0-5" x="25.917969" y="51.018555"/>
<use xlink:href="#glyph-0-1" x="30.917969" y="51.018555"/>
</g>
<g fill="rgb(30.196078%, 30.196078%, 30.196078%)" fill-opacity="1">
<use xlink:href="#glyph-0-6" x="25.917969" y="20.862305"/>
<use xlink:href="#glyph-0-1" x="30.917969" y="20.862305"/>
</g>
<path fill="none" stroke-width="1.066978" stroke-linecap="butt" stroke-linejoin="round" stroke="rgb(20%, 20%, 20%)" stroke-opacity="1" stroke-miterlimit="10" d="M 38.109375 168.375 L 40.851562 168.375 "/>
<path fill="none" stroke-width="1.066978" stroke-linecap="butt" stroke-linejoin="round" stroke="rgb(20%, 20%, 20%)" stroke-opacity="1" stroke-miterlimit="10" d="M 38.109375 138.214844 L 40.851562 138.214844 "/>
<path fill="none" stroke-width="1.066978" stroke-linecap="butt" stroke-linejoin="round" stroke="rgb(20%, 20%, 20%)" stroke-opacity="1" stroke-miterlimit="10" d="M 38.109375 108.058594 L 40.851562 108.058594 "/>
<path fill="none" stroke-width="1.066978" stroke-linecap="butt" stroke-linejoin="round" stroke="rgb(20%, 20%, 20%)" stroke-opacity="1" stroke-miterlimit="10" d="M 38.109375 77.902344 L 40.851562 77.902344 "/>
<path fill="none" stroke-width="1.066978" stroke-linecap="butt" stroke-linejoin="round" stroke="rgb(20%, 20%, 20%)" stroke-opacity="1" stroke-miterlimit="10" d="M 38.109375 47.742188 L 40.851562 47.742188 "/>
<path fill="none" stroke-width="1.066978" stroke-linecap="butt" stroke-linejoin="round" stroke="rgb(20%, 20%, 20%)" stroke-opacity="1" stroke-miterlimit="10" d="M 38.109375 17.585938 L 40.851562 17.585938 "/>
<path fill="none" stroke-width="1.066978" stroke-linecap="butt" stroke-linejoin="round" stroke="rgb(20%, 20%, 20%)" stroke-opacity="1" stroke-miterlimit="10" d="M 54.003906 178.890625 L 54.003906 176.148438 "/>
<path fill="none" stroke-width="1.066978" stroke-linecap="butt" stroke-linejoin="round" stroke="rgb(20%, 20%, 20%)" stroke-opacity="1" stroke-miterlimit="10" d="M 137.808594 178.890625 L 137.808594 176.148438 "/>
<path fill="none" stroke-width="1.066978" stroke-linecap="butt" stroke-linejoin="round" stroke="rgb(20%, 20%, 20%)" stroke-opacity="1" stroke-miterlimit="10" d="M 221.613281 178.890625 L 221.613281 176.148438 "/>
<path fill="none" stroke-width="1.066978" stroke-linecap="butt" stroke-linejoin="round" stroke="rgb(20%, 20%, 20%)" stroke-opacity="1" stroke-miterlimit="10" d="M 305.414062 178.890625 L 305.414062 176.148438 "/>
<g fill="rgb(30.196078%, 30.196078%, 30.196078%)" fill-opacity="1">
<use xlink:href="#glyph-0-1" x="51.503906" y="187.858398"/>
</g>
<g fill="rgb(30.196078%, 30.196078%, 30.196078%)" fill-opacity="1">
<use xlink:href="#glyph-0-2" x="132.808594" y="187.858398"/>
<use xlink:href="#glyph-0-1" x="137.808594" y="187.858398"/>
</g>
<g fill="rgb(30.196078%, 30.196078%, 30.196078%)" fill-opacity="1">
<use xlink:href="#glyph-0-3" x="216.613281" y="187.858398"/>
<use xlink:href="#glyph-0-1" x="221.613281" y="187.858398"/>
</g>
<g fill="rgb(30.196078%, 30.196078%, 30.196078%)" fill-opacity="1">
<use xlink:href="#glyph-0-4" x="300.414062" y="187.858398"/>
<use xlink:href="#glyph-0-1" x="305.414062" y="187.858398"/>
</g>
<g fill="rgb(0%, 0%, 0%)" fill-opacity="1">
<use xlink:href="#glyph-1-1" x="94.6875" y="203.990234"/>
<use xlink:href="#glyph-1-2" x="101.6875" y="203.990234"/>
<use xlink:href="#glyph-1-3" x="107.6875" y="203.990234"/>
<use xlink:href="#glyph-1-4" x="113.6875" y="203.990234"/>
<use xlink:href="#glyph-1-5" x="119.6875" y="203.990234"/>
<use xlink:href="#glyph-1-6" x="122.6875" y="203.990234"/>
<use xlink:href="#glyph-1-7" x="126.6875" y="203.990234"/>
<use xlink:href="#glyph-1-5" x="132.6875" y="203.990234"/>
<use xlink:href="#glyph-1-8" x="135.6875" y="203.990234"/>
<use xlink:href="#glyph-1-9" x="141.6875" y="203.990234"/>
<use xlink:href="#glyph-1-10" x="144.6875" y="203.990234"/>
<use xlink:href="#glyph-1-11" x="150.6875" y="203.990234"/>
<use xlink:href="#glyph-1-12" x="156.6875" y="203.990234"/>
<use xlink:href="#glyph-1-10" x="162.6875" y="203.990234"/>
<use xlink:href="#glyph-1-8" x="168.6875" y="203.990234"/>
<use xlink:href="#glyph-1-12" x="174.6875" y="203.990234"/>
<use xlink:href="#glyph-1-5" x="180.6875" y="203.990234"/>
<use xlink:href="#glyph-1-6" x="183.6875" y="203.990234"/>
<use xlink:href="#glyph-1-7" x="187.6875" y="203.990234"/>
<use xlink:href="#glyph-1-5" x="193.6875" y="203.990234"/>
<use xlink:href="#glyph-1-13" x="196.6875" y="203.990234"/>
<use xlink:href="#glyph-1-11" x="198.6875" y="203.990234"/>
<use xlink:href="#glyph-1-12" x="204.6875" y="203.990234"/>
<use xlink:href="#glyph-1-9" x="210.6875" y="203.990234"/>
<use xlink:href="#glyph-1-14" x="213.6875" y="203.990234"/>
</g>
<g fill="rgb(0%, 0%, 0%)" fill-opacity="1">
<use xlink:href="#glyph-2-1" x="217.6875" y="203.579102"/>
</g>
<g fill="rgb(0%, 0%, 0%)" fill-opacity="1">
<use xlink:href="#glyph-1-15" x="224.6875" y="203.990234"/>
<use xlink:href="#glyph-1-11" x="233.6875" y="203.990234"/>
<use xlink:href="#glyph-1-16" x="239.6875" y="203.990234"/>
<use xlink:href="#glyph-1-9" x="241.6875" y="203.990234"/>
<use xlink:href="#glyph-1-17" x="244.6875" y="203.990234"/>
</g>
<g fill="rgb(0%, 0%, 0%)" fill-opacity="1">
<use xlink:href="#glyph-3-1" x="250.6875" y="197.966797"/>
</g>
<g fill="rgb(0%, 0%, 0%)" fill-opacity="1">
<use xlink:href="#glyph-4-1" x="256.6875" y="198.749023"/>
</g>
<g fill="rgb(0%, 0%, 0%)" fill-opacity="1">
<use xlink:href="#glyph-1-18" x="260.6875" y="203.990234"/>
</g>
<g fill="rgb(0%, 0%, 0%)" fill-opacity="1">
<use xlink:href="#glyph-5-1" x="16.650391" y="161.3125"/>
<use xlink:href="#glyph-5-2" x="16.650391" y="153.3125"/>
<use xlink:href="#glyph-5-3" x="16.650391" y="147.3125"/>
<use xlink:href="#glyph-5-4" x="16.650391" y="144.3125"/>
<use xlink:href="#glyph-5-5" x="16.650391" y="138.3125"/>
<use xlink:href="#glyph-5-6" x="16.650391" y="132.3125"/>
<use xlink:href="#glyph-5-7" x="16.650391" y="126.3125"/>
<use xlink:href="#glyph-5-8" x="16.650391" y="123.3125"/>
<use xlink:href="#glyph-5-4" x="16.650391" y="119.3125"/>
<use xlink:href="#glyph-5-3" x="16.650391" y="113.3125"/>
<use xlink:href="#glyph-5-6" x="16.650391" y="110.3125"/>
<use xlink:href="#glyph-5-7" x="16.650391" y="104.3125"/>
<use xlink:href="#glyph-5-9" x="16.650391" y="101.3125"/>
</g>
<g fill="rgb(0%, 0%, 0%)" fill-opacity="1">
<use xlink:href="#glyph-6-1" x="16.239258" y="97.3125"/>
</g>
<g fill="rgb(0%, 0%, 0%)" fill-opacity="1">
<use xlink:href="#glyph-5-10" x="16.650391" y="90.3125"/>
<use xlink:href="#glyph-5-11" x="16.650391" y="81.3125"/>
<use xlink:href="#glyph-5-12" x="16.650391" y="75.3125"/>
<use xlink:href="#glyph-5-7" x="16.650391" y="73.3125"/>
<use xlink:href="#glyph-5-13" x="16.650391" y="70.3125"/>
<use xlink:href="#glyph-5-7" x="16.650391" y="62.3125"/>
<use xlink:href="#glyph-5-14" x="16.650391" y="59.3125"/>
</g>
<g fill="rgb(0%, 0%, 0%)" fill-opacity="1">
<use xlink:href="#glyph-7-1" x="10.626953" y="53.3125"/>
</g>
<g fill="rgb(0%, 0%, 0%)" fill-opacity="1">
<use xlink:href="#glyph-8-1" x="11.40918" y="47.3125"/>
</g>
<g fill="rgb(0%, 0%, 0%)" fill-opacity="1">
<use xlink:href="#glyph-5-7" x="16.650391" y="43.3125"/>
<use xlink:href="#glyph-5-15" x="16.650391" y="40.3125"/>
</g>
<g fill="rgb(0%, 0%, 0%)" fill-opacity="1">
<use xlink:href="#glyph-7-1" x="10.626953" y="34.3125"/>
</g>
<g fill="rgb(0%, 0%, 0%)" fill-opacity="1">
<use xlink:href="#glyph-8-1" x="11.40918" y="28.3125"/>
</g>
<g fill="rgb(0%, 0%, 0%)" fill-opacity="1">
<use xlink:href="#glyph-5-16" x="16.650391" y="24.3125"/>
</g>
</svg>
